<?xml version="1.0" encoding="UTF-8" standalone="no"?>
<svg
    xmlns:dc="http://purl.org/dc/elements/1.1/"
    xmlns:cc="http://creativecommons.org/ns#"
    xmlns:rdf="http://www.w3.org/1999/02/22-rdf-syntax-ns#"
    xmlns:svg="http://www.w3.org/2000/svg"
    xmlns="http://www.w3.org/2000/svg"
    xmlns:xlink="http://www.w3.org/1999/xlink"
    xmlns:sodipodi="http://sodipodi.sourceforge.net/DTD/sodipodi-0.dtd"
    xmlns:inkscape="http://www.inkscape.org/namespaces/inkscape"
    height="128mm"
    id="svg8"
    version="1.1"
    viewBox="0 0 128 128"
    width="128mm"
    sodipodi:docname="0.svg"
    inkscape:version="0.92.2 2405546, 2018-03-11">
   <defs
       id="rmid-defs2" />
   <sodipodi:namedview
       bordercolor="#666666"
       borderopacity="1.0"
       id="rmid-base"
       pagecolor="#ffffff"
       showgrid="true"
       showguides="false"
       inkscape:current-layer="rmid-details"
       inkscape:cx="-405.995"
       inkscape:cy="217.277"
       inkscape:document-units="mm"
       inkscape:pageopacity="0.0"
       inkscape:pageshadow="2"
       inkscape:snap-global="false"
       inkscape:window-height="1029"
       inkscape:window-maximized="0"
       inkscape:window-width="1678"
       inkscape:window-x="1"
       inkscape:window-y="516"
       inkscape:zoom="0.6">
      <inkscape:grid
          id="rmid-grid882"
          spacingx="31.999999"
          spacingy="31.999999"
          type="xygrid"
          units="mm" />
   </sodipodi:namedview>
   <metadata
       id="rmid-metadata5">
      <rdf:RDF>
         <cc:Work
             rdf:about="">
            <dc:format>image/svg+xml</dc:format>
            <dc:type
                rdf:resource="http://purl.org/dc/dcmitype/StillImage" />
            <dc:title />
         </cc:Work>
      </rdf:RDF>
   </metadata>
   <g
       id="rmid-details"
       inkscape:groupmode="layer"
       inkscape:label="rmid-details"
       sodipodi:insensitive="true">
      <use
          x="0"
          y="0"
          xlink:href="#use3656"
          id="use3666"
          transform="translate(-15.123,-5.30084)"
          width="100%"
          height="100%" />
      <use
          x="0"
          y="0"
          xlink:href="#use3656"
          id="use3658"
          transform="translate(-4.94852,-4.7437)"
          width="100%"
          height="100%" />
      <use
          x="0"
          y="0"
          xlink:href="#use3660"
          id="use3662"
          transform="translate(8.81944,-3.52778)"
          width="100%"
          height="100%" />
      <use
          x="0"
          y="0"
          xlink:href="#use3662"
          id="use3664"
          transform="translate(-14.552)"
          width="100%"
          height="100%" />
      <use
          x="0"
          y="0"
          xlink:href="#use3654"
          id="use3660"
          transform="translate(8.15799,-4.40972)"
          width="100%"
          height="100%" />
      <use
          x="0"
          y="0"
          xlink:href="#use3136"
          id="use3654"
          transform="translate(32.3675,-0.308689)"
          width="100%"
          height="100%" />
      <g
          id="use3136"
          transform="matrix(1.85135,0,0,1.85135,-16.6128,-27.2992)">
         <path
             inkscape:connector-curvature="0"
             sodipodi:nodetypes="zzz"
             style="fill:#454837;stroke-width:0.428411px"
             id="path3612"
             d="M 47.1835,-88.3787 C 47.0367,-87.4719 42.2523,-87.655 42.3206,-88.5701 42.3889,-89.4853 47.3303,-89.2856 47.1835,-88.3787 Z"
             transform="matrix(1.04227,0,0,0.988499,-33.5923,118.687)" />
         <path
             inkscape:connector-curvature="0"
             id="path3614"
             d="M 11.9792,31.2303 C 12.0877,31.4298 13.5567,31.8411 14.0382,31.2401 L 14.2821,27.6047 12.0494,27.5261 Z"
             style="fill:#6c5353;stroke:#000000;stroke-width:0.081022"
             sodipodi:nodetypes="ccccc" />
         <path
             inkscape:connector-curvature="0"
             id="path3616"
             d="M 12.0757,30.3221 12.6612,31.1413 13.5091,30.7607 13.9726,30.9912 14.0413,29.786 C 13.3508,29.2499 12.634,28.8314 12.0885,29.3827 Z"
             style="fill:#483737;stroke-width:0.15"
             sodipodi:nodetypes="ccccccc" />
         <path
             sodipodi:nodetypes="ccccccccc"
             inkscape:connector-curvature="0"
             id="path3618"
             d="M 9.5746,29.9192 12.8567,22.8405 16.3969,30.0051 15.0606,28.9124 14.2208,30.15 13.064,29.2337 11.8508,30.1843 11.4101,28.8433 Z"
             style="fill:#5d6c53;stroke:#000000;stroke-width:0.081022" />
         <path
             sodipodi:nodetypes="ccccccccc"
             inkscape:connector-curvature="0"
             id="path3620"
             d="M 9.33396,27.6833 13.3744,22.0562 16.2648,27.7777 14.8687,27.2833 14.5044,28.7818 13.1519,27.0461 12.4223,28.2978 11.5529,27.104 Z"
             style="fill:#7c916f;stroke:#000000;stroke-width:0.081022" />
         <path
             sodipodi:nodetypes="cccccccc"
             inkscape:connector-curvature="0"
             id="path3622"
             d="M 13.042,25.7537 11.9665,24.8131 9.72135,25.6068 13.3893,19.7408 15.0553,23.2123 16.1935,25.3966 14.4892,24.8436 Z"
             style="fill:#9dac93;stroke:#000000;stroke-width:0.081022" />
      </g>
      <use
          x="0"
          y="0"
          xlink:href="#use3654"
          id="use3656"
          transform="translate(-16.0955,-1.32291)"
          width="100%"
          height="100%" />
      <use
          x="0"
          y="0"
          xlink:href="#use3654"
          id="use3668"
          transform="translate(-33.2082,23.8538)"
          width="100%"
          height="100%" />
      <use
          x="0"
          y="0"
          xlink:href="#use3668"
          id="use3670"
          transform="translate(18.3971,7.32765)"
          width="100%"
          height="100%" />
      <use
          x="0"
          y="0"
          xlink:href="#use3674"
          id="use3676"
          transform="translate(-9.35443,-1.55907)"
          width="100%"
          height="100%" />
      <use
          x="0"
          y="0"
          xlink:href="#use3670"
          id="use3672"
          transform="translate(16.0584,-0.467727)"
          width="100%"
          height="100%" />
      <use
          x="0"
          y="0"
          xlink:href="#use3672"
          id="use3674"
          transform="translate(15.5907,-5.76856)"
          width="100%"
          height="100%" />
      <use
          x="0"
          y="0"
          xlink:href="#use3676"
          id="use3678"
          transform="translate(30.8697,0.779536)"
          width="100%"
          height="100%" />
      <use
          x="0"
          y="0"
          xlink:href="#use3680"
          id="use3682"
          transform="translate(14.8112,-8.26308)"
          width="100%"
          height="100%" />
      <use
          x="0"
          y="0"
          xlink:href="#use3756"
          id="use3758"
          transform="translate(5.30084,-9.04262)"
          width="100%"
          height="100%" />
      <use
          x="0"
          y="0"
          xlink:href="#use3678"
          id="use3680"
          transform="translate(-4.05362,8.10717)"
          width="100%"
          height="100%" />
      <use
          x="0"
          y="0"
          xlink:href="#use3682"
          id="use3684"
          inkscape:transform-center-x="-11.2828"
          inkscape:transform-center-y="-4.28775"
          width="100%"
          height="100%"
          transform="translate(-1.40318,7.63946)" />
      <use
          x="0"
          y="0"
          xlink:href="#use3682"
          id="use3686"
          transform="translate(-14.6553,-24.4774)"
          width="100%"
          height="100%" />
      <use
          x="0"
          y="0"
          xlink:href="#use3686"
          id="use3688"
          transform="translate(13.5639,-7.48355)"
          width="100%"
          height="100%" />
      <use
          x="0"
          y="0"
          xlink:href="#use3688"
          id="use3690"
          transform="translate(15.2789,0.155907)"
          width="100%"
          height="100%" />
      <use
          x="0"
          y="0"
          xlink:href="#use3694"
          id="use3696"
          transform="translate(4.05358,-7.17173)"
          width="100%"
          height="100%" />
      <use
          x="0"
          y="0"
          xlink:href="#use3690"
          id="use3692"
          transform="translate(7.79536,3.27405)"
          width="100%"
          height="100%" />
      <use
          x="0"
          y="0"
          xlink:href="#use3692"
          id="use3694"
          transform="translate(6.3922,3.42996)"
          width="100%"
          height="100%" />
      <use
          x="0"
          y="0"
          xlink:href="#use3698"
          id="use3700"
          transform="translate(5.92447,0.467722)"
          width="100%"
          height="100%" />
      <use
          x="0"
          y="0"
          xlink:href="#use3694"
          id="use3698"
          transform="translate(-14.9671,24.3215)"
          width="100%"
          height="100%" />
      <use
          x="0"
          y="0"
          xlink:href="#use3700"
          id="use3702"
          transform="translate(-2.96224,7.17173)"
          width="100%"
          height="100%" />
      <use
          x="0"
          y="0"
          xlink:href="#use3702"
          id="use3704"
          transform="translate(16.0584,1.55907)"
          width="100%"
          height="100%" />
      <use
          x="0"
          y="0"
          xlink:href="#use3704"
          id="use3706"
          transform="translate(0,23.0743)"
          width="100%"
          height="100%" />
      <use
          x="0"
          y="0"
          xlink:href="#use3710"
          id="use3712"
          transform="translate(-1.55907,-7.17173)"
          width="100%"
          height="100%" />
      <use
          x="0"
          y="0"
          xlink:href="#use3706"
          id="use3708"
          transform="translate(-9.19853,2.96224)"
          width="100%"
          height="100%" />
      <use
          x="0"
          y="0"
          xlink:href="#use3708"
          id="use3710"
          transform="translate(-7.32764,4.52131)"
          width="100%"
          height="100%" />
      <use
          x="0"
          y="0"
          xlink:href="#use3708"
          id="use3714"
          transform="translate(-8.88671,29.1547)"
          width="100%"
          height="100%" />
      <use
          x="0"
          y="0"
          xlink:href="#use3718"
          id="use3720"
          transform="translate(-6.85992,0.155907)"
          width="100%"
          height="100%" />
      <use
          x="0"
          y="0"
          xlink:href="#use3714"
          id="use3716"
          transform="translate(5.92447,5.30085)"
          width="100%"
          height="100%" />
      <use
          x="0"
          y="0"
          xlink:href="#use3716"
          id="use3718"
          transform="translate(12.0049,-5.45675)"
          width="100%"
          height="100%" />
      <use
          x="0"
          y="0"
          xlink:href="#use3716"
          id="use3722"
          transform="translate(-38.0414,-5.30085)"
          width="100%"
          height="100%" />
      <use
          x="0"
          y="0"
          xlink:href="#use3730"
          id="use3734"
          transform="translate(-3.42996,-2.02679)"
          width="100%"
          height="100%" />
      <use
          x="0"
          y="0"
          xlink:href="#use3728"
          id="use3732"
          transform="translate(1.09135,-8.5749)"
          width="100%"
          height="100%" />
      <use
          x="0"
          y="0"
          xlink:href="#use3728"
          id="use3730"
          transform="translate(-4.05359,-6.85992)"
          width="100%"
          height="100%" />
      <use
          x="0"
          y="0"
          xlink:href="#use3722"
          id="use3724"
          transform="translate(4.98903,3.11814)"
          width="100%"
          height="100%" />
      <use
          x="0"
          y="0"
          xlink:href="#use3724"
          id="use3726"
          transform="translate(-2.49452,5.30085)"
          width="100%"
          height="100%" />
      <use
          x="0"
          y="0"
          xlink:href="#use3726"
          id="use3728"
          transform="translate(14.6553)"
          width="100%"
          height="100%" />
      <use
          x="0"
          y="0"
          xlink:href="#use3736"
          id="use3738"
          transform="translate(-7.4836,-8.41899)"
          width="100%"
          height="100%" />
      <use
          x="0"
          y="0"
          xlink:href="#use3728"
          id="use3736"
          transform="translate(-31.1814,-0.155907)"
          width="100%"
          height="100%" />
      <use
          x="0"
          y="0"
          xlink:href="#use3738"
          id="use3740"
          transform="translate(-31.961,0.623629)"
          width="100%"
          height="100%" />
      <use
          x="0"
          y="0"
          xlink:href="#use3740"
          id="use3742"
          transform="translate(-9.66625,7.95127)"
          width="100%"
          height="100%" />
      <use
          x="0"
          y="0"
          xlink:href="#use3746"
          id="use3748"
          transform="translate(12.6285,-5.30085)"
          width="100%"
          height="100%" />
      <use
          x="0"
          y="0"
          xlink:href="#use3744"
          id="use3746"
          transform="translate(-15.7467,-3.11815)"
          width="100%"
          height="100%" />
      <use
          x="0"
          y="0"
          xlink:href="#use3740"
          id="use3744"
          transform="translate(7.17173,-24.0097)"
          width="100%"
          height="100%" />
      <use
          x="0"
          y="0"
          xlink:href="#use3746"
          id="use3750"
          width="100%"
          height="100%"
          transform="translate(30.246,-5.30084)" />
      <use
          x="0"
          y="0"
          xlink:href="#use3752"
          id="use3754"
          transform="translate(13.564,-8.26308)"
          width="100%"
          height="100%" />
      <use
          x="0"
          y="0"
          xlink:href="#use3750"
          id="use3752"
          transform="translate(3.58586,8.26308)"
          width="100%"
          height="100%" />
      <use
          x="0"
          y="0"
          xlink:href="#use3750"
          id="use3756"
          transform="translate(31.8051,8.88671)"
          width="100%"
          height="100%" />
      <use
          x="0"
          y="0"
          xlink:href="#use3758"
          id="use3760"
          transform="translate(11.0694,7.17173)"
          width="100%"
          height="100%" />
   </g>
</svg>
