<?xml version="1.0" encoding="UTF-8" standalone="no"?>
<!-- Created with Inkscape (http://www.inkscape.org/) -->

<svg
   xmlns:dc="http://purl.org/dc/elements/1.1/"
   xmlns:cc="http://creativecommons.org/ns#"
   xmlns:rdf="http://www.w3.org/1999/02/22-rdf-syntax-ns#"
   xmlns:svg="http://www.w3.org/2000/svg"
   xmlns="http://www.w3.org/2000/svg"
   xmlns:xlink="http://www.w3.org/1999/xlink"
   xmlns:sodipodi="http://sodipodi.sourceforge.net/DTD/sodipodi-0.dtd"
   xmlns:inkscape="http://www.inkscape.org/namespaces/inkscape"
   width="96mm"
   height="96mm"
   viewBox="0 0 96 96"
   version="1.1"
   id="svg8"
   inkscape:version="0.92.2 5c3e80d, 2017-08-06"
   sodipodi:docname="-1.svg">
  <defs
     id="defs2" />
  <sodipodi:namedview
     id="base"
     pagecolor="#ffffff"
     bordercolor="#666666"
     borderopacity="1.0"
     inkscape:pageopacity="0.0"
     inkscape:pageshadow="2"
     inkscape:zoom="1.86"
     inkscape:cx="194.22928"
     inkscape:cy="191.07429"
     inkscape:document-units="mm"
     inkscape:current-layer="layer1"
     showgrid="true"
     showguides="false"
     inkscape:window-width="1678"
     inkscape:window-height="1029"
     inkscape:window-x="1"
     inkscape:window-y="516"
     inkscape:window-maximized="0"
     inkscape:snap-global="false">
    <inkscape:grid
       type="xygrid"
       id="grid882"
       units="mm"
       spacingx="31.999999"
       spacingy="31.999999" />
  </sodipodi:namedview>
  <metadata
     id="metadata5">
    <rdf:RDF>
      <cc:Work
         rdf:about="">
        <dc:format>image/svg+xml</dc:format>
        <dc:type
           rdf:resource="http://purl.org/dc/dcmitype/StillImage" />
        <dc:title></dc:title>
      </cc:Work>
    </rdf:RDF>
  </metadata>
  <g
     inkscape:label="background"
     inkscape:groupmode="layer"
     id="layer1"
     transform="translate(0,-201)"
     style="display:inline">
    <rect
       style="opacity:1;fill:#800080;fill-opacity:1;stroke:none;stroke-width:9.41215611;stroke-linejoin:bevel;stroke-miterlimit:4;stroke-dasharray:none;stroke-dashoffset:0;stroke-opacity:1"
       id="rect4504"
       width="96"
       height="96"
       x="0"
       y="201" />
    <flowRoot
       xml:space="preserve"
       id="flowRoot1100"
       style="font-style:normal;font-weight:normal;font-size:40px;line-height:1.25;font-family:sans-serif;letter-spacing:0px;word-spacing:0px;fill:#000000;fill-opacity:1;stroke:none"
       transform="matrix(0.26458333,0,0,0.26458333,0,201)"><flowRegion
         id="flowRegion1102"><rect
           id="rect1104"
           width="68.817207"
           height="66.666664"
           x="15.053763"
           y="35.415291" /></flowRegion><flowPara
         id="flowPara1106">ERROR</flowPara></flowRoot>    <g
       aria-label="error"
       style="font-style:normal;font-weight:normal;font-size:10.58333302px;line-height:1.25;font-family:sans-serif;letter-spacing:0px;word-spacing:0px;fill:#000000;fill-opacity:1;stroke:none;stroke-width:0.26458332"
       id="text1110">
      <path
         d="m 39.982403,249.52193 h -4.216797 q 0.05684,0.50643 0.273885,0.75448 0.304891,0.35657 0.795817,0.35657 0.310059,0 0.589111,-0.15503 0.170532,-0.0982 0.366903,-0.34624 l 2.072225,0.19121 q -0.475423,0.82682 -1.147217,1.18855 -0.671794,0.35657 -1.927531,0.35657 -1.090373,0 -1.715657,-0.30489 -0.625285,-0.31006 -1.038697,-0.97668 -0.408243,-0.6718 -0.408243,-1.57613 0,-1.28675 0.821655,-2.08256 0.826823,-0.79582 2.27893,-0.79582 1.178223,0 1.860352,0.35657 0.682129,0.35656 1.038696,1.03352 0.356568,0.67697 0.356568,1.76217 z m -2.139405,-1.00769 q -0.06201,-0.60978 -0.330729,-0.87333 -0.26355,-0.26355 -0.697632,-0.26355 -0.501261,0 -0.800984,0.39791 -0.191203,0.24805 -0.24288,0.73897 z"
         style="font-style:normal;font-variant:normal;font-weight:normal;font-stretch:normal;font-family:'Arial Black';-inkscape-font-specification:'Arial Black, ';fill:#ffffff;stroke-width:0.26458332"
         id="path1112" />
      <path
         d="m 40.979758,246.25598 h 1.968872 v 0.89917 q 0.28422,-0.58394 0.583944,-0.80098 0.304891,-0.22221 0.749308,-0.22221 0.465088,0 1.018026,0.28939 l -0.651123,1.49861 q -0.372071,-0.15503 -0.589112,-0.15503 -0.413411,0 -0.640788,0.34107 -0.325561,0.48059 -0.325561,1.79834 v 1.83968 h -2.113566 z"
         style="font-style:normal;font-variant:normal;font-weight:normal;font-stretch:normal;font-family:'Arial Black';-inkscape-font-specification:'Arial Black, ';fill:#ffffff;stroke-width:0.26458332"
         id="path1114" />
      <path
         d="m 46.126731,246.25598 h 1.968872 v 0.89917 q 0.28422,-0.58394 0.583943,-0.80098 0.304891,-0.22221 0.749309,-0.22221 0.465087,0 1.018025,0.28939 l -0.651123,1.49861 q -0.37207,-0.15503 -0.589111,-0.15503 -0.413412,0 -0.640788,0.34107 -0.325561,0.48059 -0.325561,1.79834 v 1.83968 h -2.113566 z"
         style="font-style:normal;font-variant:normal;font-weight:normal;font-stretch:normal;font-family:'Arial Black';-inkscape-font-specification:'Arial Black, ';fill:#ffffff;stroke-width:0.26458332"
         id="path1116" />
      <path
         d="m 50.705262,249.0155 q 0,-1.25573 0.847493,-2.06705 0.847494,-0.81649 2.289266,-0.81649 1.648478,0 2.490804,0.95601 0.676961,0.76998 0.676961,1.89653 0,1.26607 -0.842325,2.07739 -0.837159,0.80615 -2.320272,0.80615 -1.322917,0 -2.139404,-0.67179 -1.002523,-0.83199 -1.002523,-2.18075 z m 2.108398,-0.005 q 0,0.7338 0.294556,1.0852 0.299723,0.3514 0.749308,0.3514 0.454753,0 0.744141,-0.34623 0.294555,-0.34623 0.294555,-1.11105 0,-0.71313 -0.294555,-1.05936 -0.294556,-0.3514 -0.728638,-0.3514 -0.45992,0 -0.759643,0.35657 -0.299724,0.3514 -0.299724,1.07487 z"
         style="font-style:normal;font-variant:normal;font-weight:normal;font-stretch:normal;font-family:'Arial Black';-inkscape-font-specification:'Arial Black, ';fill:#ffffff;stroke-width:0.26458332"
         id="path1118" />
      <path
         d="m 58.053651,246.25598 h 1.968872 v 0.89917 q 0.28422,-0.58394 0.583943,-0.80098 0.304891,-0.22221 0.749308,-0.22221 0.465088,0 1.018026,0.28939 l -0.651123,1.49861 q -0.37207,-0.15503 -0.589111,-0.15503 -0.413412,0 -0.640788,0.34107 -0.325561,0.48059 -0.325561,1.79834 v 1.83968 h -2.113566 z"
         style="font-style:normal;font-variant:normal;font-weight:normal;font-stretch:normal;font-family:'Arial Black';-inkscape-font-specification:'Arial Black, ';fill:#ffffff;stroke-width:0.26458332"
         id="path1120" />
    </g>
    <use
       x="0"
       y="0"
       xlink:href="#text1110"
       id="use1123"
       transform="translate(-32.000202)"
       width="100%"
       height="100%" />
    <use
       x="0"
       y="0"
       xlink:href="#use1123"
       id="use1125"
       transform="translate(64)"
       width="100%"
       height="100%" />
    <use
       x="0"
       y="0"
       xlink:href="#use1125"
       id="use1127"
       transform="translate(0,31.99996)"
       width="100%"
       height="100%" />
    <use
       x="0"
       y="0"
       xlink:href="#use1127"
       id="use1129"
       transform="translate(-32)"
       width="100%"
       height="100%" />
    <use
       x="0"
       y="0"
       xlink:href="#use1129"
       id="use1131"
       transform="translate(-32)"
       width="100%"
       height="100%" />
    <use
       x="0"
       y="0"
       xlink:href="#use1131"
       id="use1133"
       transform="translate(0,-64)"
       width="100%"
       height="100%" />
    <use
       x="0"
       y="0"
       xlink:href="#use1133"
       id="use1135"
       transform="translate(32)"
       width="100%"
       height="100%" />
    <use
       x="0"
       y="0"
       xlink:href="#use1135"
       id="use1137"
       transform="translate(32)"
       width="100%"
       height="100%" />
  </g>
  <g
     inkscape:groupmode="layer"
     id="layer2"
     inkscape:label="details"
     transform="translate(0,64)"
     style="display:inline" />
</svg>
