<?xml version="1.0" encoding="UTF-8" standalone="no"?>
<!-- Created with Inkscape (http://www.inkscape.org/) -->

<svg
   xmlns:dc="http://purl.org/dc/elements/1.1/"
   xmlns:cc="http://creativecommons.org/ns#"
   xmlns:rdf="http://www.w3.org/1999/02/22-rdf-syntax-ns#"
   xmlns:svg="http://www.w3.org/2000/svg"
   xmlns="http://www.w3.org/2000/svg"
   xmlns:xlink="http://www.w3.org/1999/xlink"
   xmlns:sodipodi="http://sodipodi.sourceforge.net/DTD/sodipodi-0.dtd"
   xmlns:inkscape="http://www.inkscape.org/namespaces/inkscape"
   width="96mm"
   height="96mm"
   viewBox="0 0 96 96"
   version="1.1"
   id="svg8"
   inkscape:version="0.92.2 5c3e80d, 2017-08-06"
   sodipodi:docname="1.svg">
  <defs
     id="defs2" />
  <sodipodi:namedview
     id="base"
     pagecolor="#ffffff"
     bordercolor="#666666"
     borderopacity="1.0"
     inkscape:pageopacity="0.0"
     inkscape:pageshadow="2"
     inkscape:zoom="2.0000001"
     inkscape:cx="192.58995"
     inkscape:cy="164.28649"
     inkscape:document-units="mm"
     inkscape:current-layer="layer2"
     showgrid="true"
     showguides="false"
     inkscape:window-width="1918"
     inkscape:window-height="1078"
     inkscape:window-x="1"
     inkscape:window-y="1"
     inkscape:window-maximized="0"
     inkscape:snap-global="false">
    <inkscape:grid
       type="xygrid"
       id="grid5483"
       spacingx="31.999999"
       units="mm"
       spacingy="31.999999" />
  </sodipodi:namedview>
  <metadata
     id="metadata5">
    <rdf:RDF>
      <cc:Work
         rdf:about="">
        <dc:format>image/svg+xml</dc:format>
        <dc:type
           rdf:resource="http://purl.org/dc/dcmitype/StillImage" />
        <dc:title />
      </cc:Work>
    </rdf:RDF>
  </metadata>
  <g
     inkscape:label="background"
     inkscape:groupmode="layer"
     id="layer1"
     transform="translate(0,-201)"
     style="display:inline">
    <rect
       style="opacity:1;fill:#bcd35f;fill-opacity:1;stroke:none;stroke-width:0.1;stroke-linejoin:bevel;stroke-miterlimit:4;stroke-dasharray:none;stroke-dashoffset:0;stroke-opacity:1"
       id="rect4504"
       width="96"
       height="96"
       x="0"
       y="201" />
    <g
       transform="matrix(0.99998894,0,0,0.99998894,28.689857,228.73927)"
       style="display:inline;stroke-width:0.10000111;stroke-miterlimit:4;stroke-dasharray:none"
       id="use5480"
       inkscape:transform-center-x="104.24583"
       inkscape:transform-center-y="108.47916">
      <path
         style="fill:#cdde87;fill-opacity:1;fill-rule:evenodd;stroke:none;stroke-width:0.10000111;stroke-linecap:butt;stroke-linejoin:miter;stroke-opacity:1;stroke-miterlimit:4;stroke-dasharray:none"
         d="M 7.726239,11.728478 C 10.298977,11.50653 11.748145,8.4506522 12.658664,5.1787364 9.4708713,5.2666865 7.8918063,7.7400044 7.726239,11.728478 Z"
         id="path1725"
         inkscape:connector-curvature="0"
         sodipodi:nodetypes="ccc" />
      <path
         style="fill:#cdde87;fill-opacity:1;fill-rule:evenodd;stroke:none;stroke-width:0.10000111;stroke-linecap:butt;stroke-linejoin:miter;stroke-opacity:1;stroke-miterlimit:4;stroke-dasharray:none"
         d="M 7.726239,11.728478 C 5.2196468,10.249759 4.4980827,10.501173 3.5875637,7.2292572 6.775357,7.3172073 7.957547,7.2108377 7.726239,11.728478 Z"
         id="path1727"
         inkscape:connector-curvature="0"
         sodipodi:nodetypes="ccc" />
    </g>
    <use
       x="0"
       y="0"
       xlink:href="#use5480"
       inkscape:transform-center-x="104.24583"
       inkscape:transform-center-y="108.47916"
       id="use1732"
       transform="translate(10.186458,-26.590624)"
       width="100%"
       height="100%" />
    <use
       x="0"
       y="0"
       xlink:href="#use1732"
       inkscape:transform-center-x="104.24583"
       inkscape:transform-center-y="108.47916"
       id="use1734"
       transform="translate(28.971874,1.190625)"
       width="100%"
       height="100%" />
    <use
       x="0"
       y="0"
       xlink:href="#use1734"
       inkscape:transform-center-x="104.24583"
       inkscape:transform-center-y="108.47916"
       id="use1736"
       transform="translate(-17.330208,6.7468748)"
       width="100%"
       height="100%" />
    <use
       x="0"
       y="0"
       xlink:href="#use1736"
       inkscape:transform-center-x="104.24583"
       inkscape:transform-center-y="108.47916"
       id="use1738"
       transform="translate(-20.637499,9.2604164)"
       width="100%"
       height="100%" />
    <use
       x="0"
       y="0"
       xlink:href="#use1738"
       inkscape:transform-center-x="104.24583"
       inkscape:transform-center-y="108.47916"
       id="use1740"
       transform="translate(-29.897916,30.956249)"
       width="100%"
       height="100%" />
    <use
       x="0"
       y="0"
       xlink:href="#use1740"
       inkscape:transform-center-x="104.24583"
       inkscape:transform-center-y="108.47916"
       id="use1742"
       transform="translate(17.991666,-5.9531249)"
       width="100%"
       height="100%" />
    <use
       x="0"
       y="0"
       xlink:href="#use1742"
       inkscape:transform-center-x="104.24583"
       inkscape:transform-center-y="108.47916"
       id="use1744"
       transform="translate(-20.6375,-15.742708)"
       width="100%"
       height="100%" />
    <use
       x="0"
       y="0"
       xlink:href="#use1744"
       inkscape:transform-center-x="104.24583"
       inkscape:transform-center-y="108.47916"
       id="use1746"
       transform="translate(6.2177082,-10.054166)"
       width="100%"
       height="100%" />
    <use
       x="0"
       y="0"
       xlink:href="#use1746"
       inkscape:transform-center-x="104.24583"
       inkscape:transform-center-y="108.47916"
       id="use1748"
       transform="translate(15.213541,-12.567708)"
       width="100%"
       height="100%" />
    <use
       x="0"
       y="0"
       xlink:href="#use1748"
       inkscape:transform-center-x="104.24583"
       inkscape:transform-center-y="108.47916"
       id="use1750"
       transform="translate(55.297915,12.964583)"
       width="100%"
       height="100%" />
    <use
       x="0"
       y="0"
       xlink:href="#use1750"
       inkscape:transform-center-x="104.24583"
       inkscape:transform-center-y="108.47916"
       id="use1752"
       transform="translate(8.2020832,22.754166)"
       width="100%"
       height="100%" />
    <use
       x="0"
       y="0"
       xlink:href="#use1752"
       inkscape:transform-center-x="104.24583"
       inkscape:transform-center-y="108.47916"
       id="use1754"
       transform="translate(-10.186458,6.6145828)"
       width="100%"
       height="100%" />
    <use
       x="0"
       y="0"
       xlink:href="#use1754"
       inkscape:transform-center-x="104.24583"
       inkscape:transform-center-y="108.47916"
       id="use1756"
       transform="translate(-22.224999,3.7041666)"
       width="100%"
       height="100%" />
    <use
       x="0"
       y="0"
       xlink:href="#use1756"
       inkscape:transform-center-x="104.24583"
       inkscape:transform-center-y="108.47916"
       id="use1758"
       transform="translate(-19.05,24.077082)"
       width="100%"
       height="100%" />
    <use
       x="0"
       y="0"
       xlink:href="#use1758"
       inkscape:transform-center-x="104.24583"
       inkscape:transform-center-y="108.47916"
       id="use1760"
       transform="translate(51.196874,-13.890625)"
       width="100%"
       height="100%" />
    <use
       x="0"
       y="0"
       xlink:href="#use1760"
       inkscape:transform-center-x="104.24583"
       inkscape:transform-center-y="108.47916"
       id="use1762"
       transform="translate(-64.955207,20.240624)"
       width="100%"
       height="100%" />
  </g>
  <g
     inkscape:groupmode="layer"
     id="layer3"
     inkscape:label="leaves" />
  <g
     inkscape:groupmode="layer"
     id="layer2"
     inkscape:label="details"
     transform="translate(0,64)"
     style="display:inline">
    <path
       style="fill:#e3dedb;fill-opacity:1;fill-rule:evenodd;stroke:#000000;stroke-width:0.1;stroke-linecap:butt;stroke-linejoin:miter;stroke-miterlimit:4;stroke-dasharray:none;stroke-opacity:1"
       d="m 1.2158842,-49.341484 c 0.8651102,4.216621 7.5557011,6.342755 11.7471238,5.362817 4.595661,-1.074446 9.105459,-6.264387 8.938027,-10.981007 -0.136728,-3.851729 -4.062511,-8.458779 -7.916537,-8.427285 -6.3270923,0.05171 -14.04027743,7.847282 -12.7686138,14.045475 z"
       id="path5587"
       inkscape:connector-curvature="0"
       sodipodi:nodetypes="sssss" />
    <path
       style="fill:#c8beb7;fill-opacity:1;fill-rule:evenodd;stroke:#000000;stroke-width:0.1;stroke-linecap:butt;stroke-linejoin:miter;stroke-miterlimit:4;stroke-dasharray:none;stroke-opacity:1"
       d="m 19.286033,-41.903465 c 0.650101,3.168644 5.677847,4.766361 8.827553,4.029971 3.453483,-0.807408 2.42866,-1.828918 2.30284,-5.373294 -0.102738,-2.89444 -1.325701,-3.286024 -4.221872,-3.262358 -4.754587,0.03886 -7.864132,-0.05205 -6.908521,4.605681 z"
       id="use5507"
       inkscape:connector-curvature="0"
       sodipodi:nodetypes="sssss" />
    <path
       style="fill:#e3dedb;fill-opacity:1;fill-rule:evenodd;stroke:#000000;stroke-width:0.1;stroke-linecap:butt;stroke-linejoin:miter;stroke-miterlimit:4;stroke-dasharray:none;stroke-opacity:1"
       d="m 34.859879,-48.033837 c -1.331734,4.439114 -0.113546,7.929026 4.399314,6.873934 4.948118,-1.156845 3.479762,-2.620457 3.299489,-7.698806 -0.147209,-4.147127 -4.856641,-8.649011 -6.049061,-4.674276 -1.649742,5.499148 -1.649742,5.499148 -1.649742,5.499148 z"
       id="use5539"
       inkscape:connector-curvature="0"
       sodipodi:nodetypes="sssss" />
    <use
       x="0"
       y="0"
       xlink:href="#path5587"
       id="use5871"
       transform="translate(4.013477,32.33424)"
       width="100%"
       height="100%"
       style="stroke-width:0.1;stroke-miterlimit:4;stroke-dasharray:none" />
    <path
       style="fill:#c8beb7;fill-opacity:1;fill-rule:evenodd;stroke:#000000;stroke-width:0.1;stroke-linecap:butt;stroke-linejoin:miter;stroke-miterlimit:4;stroke-dasharray:none;stroke-opacity:1"
       d="m 54.193493,-56.138775 c -0.468829,4.403045 -0.391544,4.532955 3.787028,3.73969 4.218319,-0.800804 2.868176,-0.885825 1.514809,-5.112489 -2.407486,-3.621045 -3.016224,-2.206411 -5.301837,1.372799 z"
       id="use5877"
       inkscape:connector-curvature="0"
       sodipodi:nodetypes="cscc" />
    <use
       x="0"
       y="0"
       xlink:href="#use5507"
       id="use5879"
       transform="translate(65.174005,-7.7059606)"
       width="100%"
       height="100%"
       style="stroke-width:0.1;stroke-miterlimit:4;stroke-dasharray:none" />
    <path
       style="fill:#e3dedb;fill-opacity:1;fill-rule:evenodd;stroke:#000000;stroke-width:0.1;stroke-linecap:butt;stroke-linejoin:miter;stroke-miterlimit:4;stroke-dasharray:none;stroke-opacity:1"
       d="m 64.875233,-39.248158 c -0.721738,3.808814 3.269732,5.315232 3.269732,5.315232 0,0 6.877812,-1.971351 7.765623,-6.932912 -2.564262,-5.925721 -9.204582,-8.505997 -11.035355,1.61768 z"
       id="use5881"
       inkscape:connector-curvature="0"
       sodipodi:nodetypes="cccc" />
    <use
       x="0"
       y="0"
       xlink:href="#use5877"
       id="use5883"
       transform="translate(11.96939,-2.8180127)"
       width="100%"
       height="100%"
       style="stroke-width:0.1;stroke-miterlimit:4;stroke-dasharray:none" />
    <path
       sodipodi:nodetypes="cscc"
       inkscape:connector-curvature="0"
       id="use5887"
       d="m 88.391777,-26.869941 c -0.468829,4.403045 -0.391544,4.532955 3.787028,3.73969 4.218319,-0.800804 2.868176,-0.885825 1.514809,-5.112489 -2.407486,-3.621045 -3.016224,-2.206411 -5.301837,1.372799 z"
       style="fill:#c8beb7;fill-opacity:1;fill-rule:evenodd;stroke:#000000;stroke-width:0.1;stroke-linecap:butt;stroke-linejoin:miter;stroke-miterlimit:4;stroke-dasharray:none;stroke-opacity:1" />
    <path
       sodipodi:nodetypes="sssss"
       inkscape:connector-curvature="0"
       id="use5895"
       d="m 64.839327,-17.41352 c 0.86511,4.216621 7.555701,6.342755 11.747124,5.362817 4.595661,-1.074446 9.105459,-6.264387 8.938027,-10.981007 -0.136728,-3.851729 -4.062511,-8.458779 -7.916537,-8.427285 -6.327092,0.05171 -14.040277,7.847282 -12.768614,14.045475 z"
       style="fill:#e3dedb;fill-opacity:1;fill-rule:evenodd;stroke:#000000;stroke-width:0.1;stroke-linecap:butt;stroke-linejoin:miter;stroke-miterlimit:4;stroke-dasharray:none;stroke-opacity:1" />
    <use
       x="0"
       y="0"
       xlink:href="#use5507"
       id="use5897"
       transform="translate(-6.6349998,37.020859)"
       width="100%"
       height="100%"
       style="stroke-width:0.1;stroke-miterlimit:4;stroke-dasharray:none" />
    <use
       x="0"
       y="0"
       xlink:href="#use5507"
       id="use5901"
       transform="translate(-9.9516935,47.656708)"
       width="100%"
       height="100%"
       style="stroke-width:0.1;stroke-miterlimit:4;stroke-dasharray:none" />
    <path
       sodipodi:nodetypes="sssss"
       inkscape:connector-curvature="0"
       id="use5905"
       d="m 0.74554272,24.790664 c -1.331734,4.439114 -0.113546,7.929026 4.39931398,6.873934 4.9481183,-1.156845 3.479762,-2.620457 3.299489,-7.698806 -0.147209,-4.147127 -4.856641,-8.649011 -6.049061,-4.674276 -1.64974198,5.499148 -1.64974198,5.499148 -1.64974198,5.499148 z"
       style="fill:#e3dedb;fill-opacity:1;fill-rule:evenodd;stroke:#000000;stroke-width:0.1;stroke-linecap:butt;stroke-linejoin:miter;stroke-miterlimit:4;stroke-dasharray:none;stroke-opacity:1" />
    <path
       sodipodi:nodetypes="cscc"
       inkscape:connector-curvature="0"
       id="use5911"
       d="m 36.449219,-8.2612657 c -0.468829,4.403045 -0.391544,4.532955 3.787028,3.73969 4.218319,-0.800804 2.868176,-0.885825 1.514809,-5.112489 -2.407486,-3.6210453 -3.016224,-2.2064113 -5.301837,1.372799 z"
       style="fill:#c8beb7;fill-opacity:1;fill-rule:evenodd;stroke:#000000;stroke-width:0.1;stroke-linecap:butt;stroke-linejoin:miter;stroke-miterlimit:4;stroke-dasharray:none;stroke-opacity:1" />
    <use
       x="0"
       y="0"
       xlink:href="#use5539"
       id="use5913"
       transform="translate(20.870929,25.927831)"
       width="100%"
       height="100%"
       style="stroke-width:0.1;stroke-miterlimit:4;stroke-dasharray:none" />
    <use
       x="0"
       y="0"
       xlink:href="#use5879"
       id="use5915"
       transform="translate(-0.19943917,44.494336)"
       width="100%"
       height="100%"
       style="stroke-width:0.1;stroke-miterlimit:4;stroke-dasharray:none" />
    <path
       style="fill:#e3dedb;fill-opacity:1;fill-rule:evenodd;stroke:#000000;stroke-width:0.1;stroke-linecap:butt;stroke-linejoin:miter;stroke-miterlimit:4;stroke-dasharray:none;stroke-opacity:1"
       d="m 36.527878,8.844644 c -0.721738,3.808814 3.269732,5.315232 3.269732,5.315232 0,0 6.877812,-1.971351 7.765623,-6.932912 -2.564262,-5.925721 -9.204582,-8.505997 -11.035355,1.61768 z"
       id="use5917"
       inkscape:connector-curvature="0"
       sodipodi:nodetypes="cccc" />
    <use
       x="0"
       y="0"
       xlink:href="#use5901"
       id="use5921"
       transform="translate(56.253385,18.656351)"
       width="100%"
       height="100%"
       style="stroke-width:0.1;stroke-miterlimit:4;stroke-dasharray:none" />
    <path
       style="fill:#e3dedb;fill-opacity:1;fill-rule:evenodd;stroke:#000000;stroke-width:0.1;stroke-linecap:butt;stroke-linejoin:miter;stroke-miterlimit:4;stroke-dasharray:none;stroke-opacity:1"
       d="M 68.639926,9.3248905 C 67.308192,13.764004 68.52638,17.253917 73.03924,16.198824 77.987358,15.04198 76.519002,13.578367 76.338729,8.5000186 76.19152,4.3528916 71.482088,-0.1489924 70.289668,3.8257426 68.639926,9.3248905 68.639926,9.3248905 68.639926,9.3248905 Z"
       id="use5923"
       inkscape:connector-curvature="0"
       sodipodi:nodetypes="sssss" />
    <use
       x="0"
       y="0"
       xlink:href="#use5883"
       id="use5925"
       transform="translate(18.368125,82.313507)"
       width="100%"
       height="100%"
       style="stroke-width:0.1;stroke-miterlimit:4;stroke-dasharray:none" />
    <path
       style="fill:#e3dedb;fill-opacity:1;fill-rule:evenodd;stroke:#000000;stroke-width:0.1;stroke-linecap:butt;stroke-linejoin:miter;stroke-miterlimit:4;stroke-dasharray:none;stroke-opacity:1"
       d="m 77.971439,14.645061 c -0.721738,3.808814 3.269732,5.315232 3.269732,5.315232 0,0 6.877812,-1.971351 7.765623,-6.932912 -2.564262,-5.925721 -9.204582,-8.505997 -11.035355,1.61768 z"
       id="use5927"
       inkscape:connector-curvature="0"
       sodipodi:nodetypes="cccc" />
  </g>
</svg>
