<?xml version="1.0" encoding="UTF-8" standalone="no"?>
<!-- Created with Inkscape (http://www.inkscape.org/) -->

<svg
   xmlns:dc="http://purl.org/dc/elements/1.1/"
   xmlns:cc="http://creativecommons.org/ns#"
   xmlns:rdf="http://www.w3.org/1999/02/22-rdf-syntax-ns#"
   xmlns:svg="http://www.w3.org/2000/svg"
   xmlns="http://www.w3.org/2000/svg"
   xmlns:xlink="http://www.w3.org/1999/xlink"
   xmlns:sodipodi="http://sodipodi.sourceforge.net/DTD/sodipodi-0.dtd"
   xmlns:inkscape="http://www.inkscape.org/namespaces/inkscape"
   width="96mm"
   height="96mm"
   viewBox="0 0 96 96"
   version="1.1"
   id="svg8"
   inkscape:version="0.92.2 5c3e80d, 2017-08-06"
   sodipodi:docname="1.svg">
  <defs
     id="defs2" />
  <sodipodi:namedview
     id="base"
     pagecolor="#ffffff"
     bordercolor="#666666"
     borderopacity="1.0"
     inkscape:pageopacity="0.0"
     inkscape:pageshadow="2"
     inkscape:zoom="1.4142136"
     inkscape:cx="94.314681"
     inkscape:cy="84.71984"
     inkscape:document-units="mm"
     inkscape:current-layer="layer2"
     showgrid="true"
     showguides="false"
     inkscape:window-width="1678"
     inkscape:window-height="1029"
     inkscape:window-x="1"
     inkscape:window-y="516"
     inkscape:window-maximized="0"
     inkscape:snap-global="false">
    <inkscape:grid
       type="xygrid"
       id="grid5483"
       spacingx="31.999999"
       units="mm"
       spacingy="31.999999" />
  </sodipodi:namedview>
  <metadata
     id="metadata5">
    <rdf:RDF>
      <cc:Work
         rdf:about="">
        <dc:format>image/svg+xml</dc:format>
        <dc:type
           rdf:resource="http://purl.org/dc/dcmitype/StillImage" />
        <dc:title />
      </cc:Work>
    </rdf:RDF>
  </metadata>
  <g
     inkscape:label="background"
     inkscape:groupmode="layer"
     id="layer1"
     transform="translate(0,-201)"
     style="display:inline"
     sodipodi:insensitive="true">
    <rect
       style="opacity:1;fill:#bcd35f;fill-opacity:1;stroke:none;stroke-width:0.1;stroke-linejoin:bevel;stroke-miterlimit:4;stroke-dasharray:none;stroke-dashoffset:0;stroke-opacity:1"
       id="rect4504"
       width="96"
       height="96"
       x="0"
       y="201" />
  </g>
  <g
     inkscape:groupmode="layer"
     id="layer2"
     inkscape:label="details"
     transform="translate(0,64)"
     style="display:inline">
    <g
       id="g4721"
       transform="matrix(1.5625102,0,0,1.5625102,-8.4888128,31.585124)">
      <path
         sodipodi:nodetypes="ccc"
         inkscape:connector-curvature="0"
         id="path4674"
         d="m 23.715824,-52.392332 c -2.13916,-2.152636 -4.906337,-1.395386 -6.820086,0.172224 0.341329,0.0718 3.308305,3.657512 6.820086,-0.172224 z"
         style="fill:#454837;stroke:none;stroke-width:0.38969928px;stroke-linecap:butt;stroke-linejoin:miter;stroke-opacity:1" />
      <path
         sodipodi:nodetypes="ccccc"
         inkscape:connector-curvature="0"
         id="path4672"
         d="m 19.065765,-56.491265 c -0.344109,1.026149 -0.851263,1.834906 -0.137788,4.271164 1.376363,0.937912 2.249413,0.617545 2.893369,-0.275559 0.237474,-1.657275 -0.20541,-2.974369 -0.688896,-4.271164 z"
         style="fill:#6c5353;stroke:none;stroke-width:0.38969928px;stroke-linecap:butt;stroke-linejoin:miter;stroke-opacity:1" />
      <path
         sodipodi:nodetypes="ccc"
         inkscape:connector-curvature="0"
         id="path4670"
         d="m 15.549641,-56.197557 c 2.696517,-3.451103 6.059481,-5.199394 9.025153,-0.860108 0.204119,2.145328 -7.101986,1.766314 -9.025153,0.860108 z"
         style="fill:#ac9393;fill-opacity:1;stroke:#000000;stroke-width:0.1;stroke-linecap:butt;stroke-linejoin:miter;stroke-miterlimit:4;stroke-dasharray:none;stroke-opacity:1" />
    </g>
    <g
       id="g4726"
       transform="matrix(1.5625102,0,0,1.5625102,-2.039594,20.009603)">
      <path
         sodipodi:nodetypes="ccc"
         inkscape:connector-curvature="0"
         id="path4674-5"
         d="m 9.9909907,-37.153412 c -1.2623362,-2.250062 -5.101187,-1.785086 -6.0406876,0.172223 0.3413295,0.851202 2.9186053,2.780689 6.0406876,-0.172223 z"
         style="display:inline;fill:#454837;stroke:none;stroke-width:0.38969928px;stroke-linecap:butt;stroke-linejoin:miter;stroke-opacity:1" />
      <path
         sodipodi:nodetypes="ccccc"
         inkscape:connector-curvature="0"
         id="path4672-3"
         d="m 5.3409313,-41.252345 c -0.342164,1.026149 1.485821,1.834905 -0.1377878,4.271164 1.376363,0.937912 2.2494133,0.617544 2.8933697,-0.27556 0.2374738,-1.657275 -0.205411,-2.974369 -0.6888964,-4.271164 z"
         style="display:inline;fill:#552200;stroke:none;stroke-width:0.38969928px;stroke-linecap:butt;stroke-linejoin:miter;stroke-opacity:1" />
      <path
         sodipodi:nodetypes="ccc"
         inkscape:connector-curvature="0"
         id="path4670-5"
         d="m 3.6758794,-39.692114 c -2.298e-4,-2.95874 2.620153,-5.049217 5.4204345,-1.931781 -0.8510705,1.040393 -4.2240781,5.163777 -5.4204345,1.931781 z"
         style="display:inline;fill:#aa4400;fill-opacity:1;stroke:#000000;stroke-width:0.1;stroke-linecap:butt;stroke-linejoin:miter;stroke-miterlimit:4;stroke-dasharray:none;stroke-opacity:1" />
    </g>
    <use
       x="0"
       y="0"
       xlink:href="#g4721"
       id="use4728"
       width="100%"
       height="100%"
       transform="translate(23.48177,62.838541)" />
    <use
       x="0"
       y="0"
       xlink:href="#use4728"
       id="use4730"
       width="100%"
       height="100%"
       transform="translate(9.0619797,-30.39401)" />
    <use
       x="0"
       y="0"
       xlink:href="#use4730"
       id="use4732"
       width="100%"
       height="100%"
       transform="translate(28.34349,31.121614)" />
    <use
       x="0"
       y="0"
       xlink:href="#g4726"
       id="use4734"
       width="100%"
       height="100%"
       transform="translate(42.201042,-8.0697917)" />
    <use
       x="0"
       y="0"
       xlink:href="#use4734"
       id="use4736"
       width="100%"
       height="100%"
       transform="translate(20.439063,57.282291)" />
    <use
       x="0"
       y="0"
       xlink:href="#use4736"
       id="use4738"
       width="100%"
       height="100%"
       transform="translate(-46.36823,6.7468747)" />
    <g
       id="g4770">
      <path
         sodipodi:nodetypes="ccc"
         inkscape:connector-curvature="0"
         id="path4674-2"
         d="m 43.485313,-35.750981 c -1.080827,-2.417219 -6.626129,-1.924553 -7.613836,0.172224 -0.320129,0.336383 5.821847,3.260637 7.613836,-0.172224 z"
         style="fill:#454837;stroke:none;stroke-width:0.38969928px;stroke-linecap:butt;stroke-linejoin:miter;stroke-opacity:1" />
      <path
         sodipodi:nodetypes="ccccc"
         inkscape:connector-curvature="0"
         id="path4672-9"
         d="m 38.041504,-39.849914 c -0.344109,1.026149 -0.851263,1.834906 -0.137788,4.271164 1.376363,0.937912 2.249413,0.617545 2.893369,-0.275559 0.237474,-1.657275 -0.20541,-2.974369 -0.688896,-4.271164 z"
         style="fill:#806600;stroke:none;stroke-width:0.38969928px;stroke-linecap:butt;stroke-linejoin:miter;stroke-opacity:1" />
      <path
         sodipodi:nodetypes="ccc"
         inkscape:connector-curvature="0"
         id="path4670-1"
         d="m 35.716005,-38.233289 c 2.696517,-3.451103 4.075106,-4.934811 7.040778,-0.595525 0.204119,2.145328 -5.117611,1.501731 -7.040778,0.595525 z"
         style="fill:#aa8800;fill-opacity:1;stroke:#000000;stroke-width:0.1;stroke-linecap:butt;stroke-linejoin:miter;stroke-miterlimit:4;stroke-dasharray:none;stroke-opacity:1" />
    </g>
    <use
       x="0"
       y="0"
       xlink:href="#g4770"
       id="use4772"
       width="100%"
       height="100%"
       transform="translate(-1.7197917,11.1125)" />
    <use
       x="0"
       y="0"
       xlink:href="#use4772"
       id="use4774"
       width="100%"
       height="100%"
       transform="translate(-22.621875,9.3927083)" />
    <use
       x="0"
       y="0"
       xlink:href="#use4774"
       id="use4776"
       width="100%"
       height="100%"
       transform="translate(65.88125,-9.2604167)" />
    <use
       x="0"
       y="0"
       xlink:href="#use4728"
       id="use4807"
       width="100%"
       height="100%"
       transform="translate(30.427083,-54.636458)" />
    <use
       x="0"
       y="0"
       xlink:href="#use4776"
       id="use4809"
       width="100%"
       height="100%"
       transform="translate(7.540625,-30.691667)" />
    <use
       x="0"
       y="0"
       xlink:href="#use4809"
       id="use4811"
       width="100%"
       height="100%"
       transform="translate(0.79375,19.976042)" />
    <use
       x="0"
       y="0"
       xlink:href="#use4734"
       id="use4813"
       width="100%"
       height="100%"
       transform="translate(22.754167,39.158333)" />
    <g
       id="use4583"
       style="display:inline"
       transform="matrix(0.99998894,0,0,0.99998894,6.8894415,16.904056)">
      <path
         sodipodi:nodetypes="ccc"
         inkscape:connector-curvature="0"
         id="path5523"
         d="M 7.726239,11.728478 C 10.298977,11.50653 11.748145,8.4506522 12.658664,5.1787364 9.4708713,5.2666865 7.8918063,7.7400044 7.726239,11.728478 Z"
         style="fill:#cdde87;fill-opacity:1;fill-rule:evenodd;stroke:none;stroke-width:0.40300986px;stroke-linecap:butt;stroke-linejoin:miter;stroke-opacity:1" />
      <path
         sodipodi:nodetypes="ccc"
         inkscape:connector-curvature="0"
         id="path5525"
         d="M 7.726239,11.728478 C 5.2196468,10.249759 4.4980827,10.501173 3.5875637,7.2292572 6.775357,7.3172073 7.957547,7.2108377 7.726239,11.728478 Z"
         style="fill:#cdde87;fill-opacity:1;fill-rule:evenodd;stroke:none;stroke-width:0.40300986px;stroke-linecap:butt;stroke-linejoin:miter;stroke-opacity:1" />
    </g>
    <use
       x="0"
       y="0"
       xlink:href="#use4583"
       id="use5529"
       width="100%"
       height="100%"
       transform="translate(-6.7351921,-17.960513)" />
    <use
       x="0"
       y="0"
       xlink:href="#use4583"
       id="use5531"
       width="100%"
       height="100%"
       transform="translate(41.907862,-5.0513941)" />
    <use
       x="0"
       y="0"
       xlink:href="#use5531"
       id="use5533"
       width="100%"
       height="100%"
       transform="translate(-14.405828,-30.121276)" />
    <use
       x="0"
       y="0"
       xlink:href="#use5533"
       id="use5535"
       width="100%"
       height="100%"
       transform="translate(-17.212158,-15.715448)" />
    <use
       x="0"
       y="0"
       xlink:href="#use5535"
       id="use5537"
       width="100%"
       height="100%"
       transform="translate(-16.650892,19.457222)" />
    <use
       x="0"
       y="0"
       xlink:href="#use5537"
       id="use5539"
       width="100%"
       height="100%"
       transform="translate(14.592916,-33.863049)" />
    <use
       x="0"
       y="0"
       xlink:href="#use5539"
       id="use5541"
       width="100%"
       height="100%"
       transform="translate(32.179251,2.0579754)" />
    <use
       x="0"
       y="0"
       xlink:href="#use5541"
       id="use5543"
       width="100%"
       height="100%"
       transform="translate(-15.52836,-20.579754)" />
    <use
       x="0"
       y="0"
       xlink:href="#use5543"
       id="use5545"
       width="100%"
       height="100%"
       transform="translate(33.488872)" />
    <use
       x="0"
       y="0"
       xlink:href="#use5545"
       id="use5547"
       width="100%"
       height="100%"
       transform="translate(12.909118,42.656217)" />
    <use
       x="0"
       y="0"
       xlink:href="#use5547"
       id="use5549"
       width="100%"
       height="100%"
       transform="translate(-6.5481034,38.914443)" />
  </g>
</svg>
