<?xml version="1.0" encoding="UTF-8" standalone="no"?>
<!-- Created with Inkscape (http://www.inkscape.org/) -->

<svg
   xmlns:dc="http://purl.org/dc/elements/1.1/"
   xmlns:cc="http://creativecommons.org/ns#"
   xmlns:rdf="http://www.w3.org/1999/02/22-rdf-syntax-ns#"
   xmlns:svg="http://www.w3.org/2000/svg"
   xmlns="http://www.w3.org/2000/svg"
   xmlns:xlink="http://www.w3.org/1999/xlink"
   xmlns:sodipodi="http://sodipodi.sourceforge.net/DTD/sodipodi-0.dtd"
   xmlns:inkscape="http://www.inkscape.org/namespaces/inkscape"
   width="96mm"
   height="96mm"
   viewBox="0 0 96 96"
   version="1.1"
   id="svg8"
   inkscape:version="0.92.2 5c3e80d, 2017-08-06"
   sodipodi:docname="10.svg"
   enable-background="new">
  <defs
     id="defs2" />
  <sodipodi:namedview
     id="base"
     pagecolor="#ffffff"
     bordercolor="#666666"
     borderopacity="1.0"
     inkscape:pageopacity="0.0"
     inkscape:pageshadow="2"
     inkscape:zoom="1.9999999"
     inkscape:cx="260.18226"
     inkscape:cy="193.37602"
     inkscape:document-units="mm"
     inkscape:current-layer="layer3"
     showgrid="true"
     showguides="false"
     inkscape:window-width="1918"
     inkscape:window-height="1078"
     inkscape:window-x="1"
     inkscape:window-y="1"
     inkscape:window-maximized="0"
     inkscape:snap-global="false">
    <inkscape:grid
       type="xygrid"
       id="grid882"
       units="mm"
       spacingx="31.999999"
       spacingy="31.999999" />
  </sodipodi:namedview>
  <metadata
     id="metadata5">
    <rdf:RDF>
      <cc:Work
         rdf:about="">
        <dc:format>image/svg+xml</dc:format>
        <dc:type
           rdf:resource="http://purl.org/dc/dcmitype/StillImage" />
        <dc:title></dc:title>
      </cc:Work>
    </rdf:RDF>
  </metadata>
  <g
     inkscape:groupmode="layer"
     id="layer5"
     inkscape:label="background"
     sodipodi:insensitive="true">
    <rect
       style="display:inline;opacity:1;fill:#5f8dd3;fill-opacity:1;stroke:none;stroke-width:9.41215611;stroke-linejoin:bevel;stroke-miterlimit:4;stroke-dasharray:none;stroke-dashoffset:0;stroke-opacity:1"
       id="rect4504"
       width="96"
       height="96"
       x="0"
       y="0"
       transform="matrix(0,1,1,0,0,0)" />
  </g>
  <g
     inkscape:groupmode="layer"
     id="layer1"
     inkscape:label="cliff"
     style="display:inline" />
  <g
     inkscape:groupmode="layer"
     id="layer3"
     inkscape:label="details &amp; borders"
     style="display:inline">
    <g
       inkscape:groupmode="layer"
       id="layer2"
       inkscape:label="templates"
       style="display:inline" />
    <g
       style="display:inline"
       transform="matrix(1.6534368,0,0,1.6534368,-12.276915,-0.6289736)"
       id="g1910">
      <ellipse
         style="opacity:1;fill:#3771c8;fill-opacity:1;stroke:none;stroke-width:0.09944903;stroke-linecap:round;stroke-linejoin:miter;stroke-miterlimit:4;stroke-dasharray:none;stroke-dashoffset:170.07873535;stroke-opacity:1;paint-order:fill markers stroke"
         id="ellipse1900"
         cx="15.505153"
         cy="10.022491"
         rx="2.8449819"
         ry="1.9203628" />
      <path
         style="display:inline;fill:#c8beb7;stroke:#000000;stroke-width:0.1;stroke-linecap:butt;stroke-linejoin:miter;stroke-miterlimit:4;stroke-dasharray:none;stroke-opacity:1"
         d="M 13.371416,9.9513884 C 14.367113,11.374061 15.639819,11.688704 17.35439,10.235885 17.583961,7.5519296 16.976071,7.6017491 15.931899,6.5374107 14.902564,5.4211262 14.166468,6.9090308 13.513664,7.6754035 13.347127,9.0030615 13.195656,8.6237304 13.371416,9.9513884 Z"
         id="path1902"
         inkscape:connector-curvature="0"
         sodipodi:nodetypes="ccccc" />
      <path
         style="fill:#6c5d53;stroke:none;stroke-width:0.26458332px;stroke-linecap:butt;stroke-linejoin:miter;stroke-opacity:1"
         d="m 13.565408,7.7209264 c 0.120439,0.3437666 0.703975,0.9851895 1.149461,1.3289562 l 0.220755,1.9815314 -0.0665,-1.9715731 C 15.818261,8.9123556 16.436092,8.482764 17.037354,8.0526289 16.276284,8.4403355 15.48236,8.8240395 14.830271,8.8630074 14.434624,8.5972893 13.763886,8.1180903 13.565408,7.7209264 Z"
         id="path1904"
         inkscape:connector-curvature="0"
         sodipodi:nodetypes="ccccccc" />
      <path
         style="fill:#3771c8;stroke:none;stroke-width:0.26458332px;stroke-linecap:butt;stroke-linejoin:miter;stroke-opacity:1"
         d="m 12.909119,11.467019 c 1.002858,1.584739 4.051141,2.203337 5.42557,-0.140317 -0.957073,0.735843 -3.879976,1.721583 -5.42557,0.140317 z"
         id="path1906"
         inkscape:connector-curvature="0"
         sodipodi:nodetypes="ccc" />
      <path
         style="display:inline;fill:#3771c8;stroke:none;stroke-width:0.14472419px;stroke-linecap:butt;stroke-linejoin:miter;stroke-opacity:1"
         d="m 14.499373,13.108023 c 0.300505,0.536106 2.171995,0.684303 2.799769,-0.291724 -0.523509,0.402498 -2.188207,0.782483 -2.799769,0.291724 z"
         id="path1908"
         inkscape:connector-curvature="0"
         sodipodi:nodetypes="ccc" />
    </g>
    <g
       style="display:inline"
       id="use1928"
       transform="translate(21.440584,55.759159)">
      <path
         style="display:inline;fill:#3771c8;stroke:none;stroke-width:0.26458332px;stroke-linecap:butt;stroke-linejoin:miter;stroke-opacity:1"
         d="m 16.0809,25.214399 c 0.435409,3.100781 7.960351,6.370837 8.765935,-0.454508 -3.337022,0 -5.45644,0.454508 -8.765935,0.454508 z"
         id="path1950"
         inkscape:connector-curvature="0"
         sodipodi:nodetypes="ccc" />
      <path
         style="opacity:1;fill:#5aa02c;fill-opacity:1;stroke:#2d5016;stroke-width:0.2;stroke-linecap:round;stroke-linejoin:miter;stroke-miterlimit:4;stroke-dasharray:none;stroke-dashoffset:170.07873535;stroke-opacity:1;paint-order:fill markers stroke"
         d="m 24.730982,24.503921 a 4.3148789,3.343368 0 0 1 -3.93966,3.330703 4.3148789,3.343368 0 0 1 -4.624839,-2.751434 4.3148789,3.343368 0 0 1 3.135319,-3.809228 4.3148789,3.343368 0 0 1 5.170127,2.088942 l -4.055825,1.141017 z"
         id="path1952"
         inkscape:connector-curvature="0" />
      <path
         style="fill:#5aa02c;stroke:#71c837;stroke-width:0.1;stroke-linecap:butt;stroke-linejoin:miter;stroke-miterlimit:4;stroke-dasharray:none;stroke-opacity:1"
         d="m 22.474026,21.675042 c 0.375919,1.922535 -0.605229,2.533689 -2.011203,2.80633 1.928161,-0.1079 2.914107,0.668336 2.829716,2.397075 -1.253334,-0.319817 -2.821565,-0.159696 -2.864795,-2.315223 0.185004,2.560759 -1.041468,2.360061 -1.88258,2.806331 -0.886629,-1.349885 -0.0694,-2.315697 1.870887,-2.888183 -1.598951,0.76912 -2.860238,1.057313 -4.045793,-0.830204 1.327986,-0.994208 2.818344,-0.213611 4.022407,0.760048 -1.052745,-0.737622 -2.429277,-1.417422 -1.473323,-2.958339 2.313929,0.226748 1.5299,1.77042 1.543481,2.934952 0.0058,-1.630067 0.480102,-2.73872 2.011203,-2.712787 z"
         id="path1954"
         inkscape:connector-curvature="0"
         sodipodi:nodetypes="ccccccccccc" />
      <path
         style="color:#000000;font-style:normal;font-variant:normal;font-weight:normal;font-stretch:normal;font-size:medium;line-height:normal;font-family:sans-serif;font-variant-ligatures:normal;font-variant-position:normal;font-variant-caps:normal;font-variant-numeric:normal;font-variant-alternates:normal;font-feature-settings:normal;text-indent:0;text-align:start;text-decoration:none;text-decoration-line:none;text-decoration-style:solid;text-decoration-color:#000000;letter-spacing:normal;word-spacing:normal;text-transform:none;writing-mode:lr-tb;direction:ltr;text-orientation:mixed;dominant-baseline:auto;baseline-shift:baseline;text-anchor:start;white-space:normal;shape-padding:0;clip-rule:nonzero;display:inline;overflow:visible;visibility:visible;opacity:1;isolation:auto;mix-blend-mode:normal;color-interpolation:sRGB;color-interpolation-filters:linearRGB;solid-color:#000000;solid-opacity:1;vector-effect:none;fill:#2d5016;fill-opacity:1;fill-rule:nonzero;stroke:none;stroke-width:0.2;stroke-linecap:round;stroke-linejoin:miter;stroke-miterlimit:4;stroke-dasharray:none;stroke-dashoffset:170.07873535;stroke-opacity:1;paint-order:fill markers stroke;color-rendering:auto;image-rendering:auto;shape-rendering:auto;text-rendering:auto;enable-background:accumulate"
         d="m 19.28125,21.175781 c -1.100719,0.227989 -2.001421,0.763763 -2.580078,1.466797 -0.578657,0.703034 -0.833795,1.577657 -0.632813,2.462891 0.401964,1.770467 2.461815,2.981567 4.730469,2.828125 2.268654,-0.153444 4.03125,-1.63011 4.03125,-3.429688 v -0.09961 h -0.09961 -3.591797 L 24.61328,23.427733 24.5625,23.320311 c -0.789546,-1.684985 -3.079812,-2.600508 -5.28125,-2.14453 z m 0.04102,0.195313 c 2.0715,-0.429064 4.195175,0.430326 4.982422,1.935547 l -3.916016,1.101562 0.02734,0.195313 h 4.189453 c -0.06767,1.622133 -1.676699,2.985873 -3.820313,3.130859 -2.189619,0.148097 -4.148074,-1.029126 -4.521484,-2.673828 -0.186706,-0.822351 0.0463,-1.628269 0.591797,-2.291016 0.545497,-0.662746 1.405804,-1.178677 2.466797,-1.398437 z"
         id="path1956"
         inkscape:connector-curvature="0" />
      <path
         style="display:inline;fill:#3771c8;stroke:none;stroke-width:0.26458332px;stroke-linecap:butt;stroke-linejoin:miter;stroke-opacity:1"
         d="m 17.203193,27.379329 c 1.075907,2.157755 7.203164,4.583829 7.558903,-1.52802 -1.536899,5.755188 -6.768023,2.296567 -7.558903,1.52802 z"
         id="path1958"
         inkscape:connector-curvature="0"
         sodipodi:nodetypes="ccc" />
      <path
         style="display:inline;fill:#3771c8;stroke:none;stroke-width:0.19762993px;stroke-linecap:butt;stroke-linejoin:miter;stroke-opacity:1"
         d="m 20.834203,29.801851 c 0.580002,0.514345 2.499284,1.414263 3.499433,-1.45208 -1.253226,1.929147 -2.835892,1.632749 -3.499433,1.45208 z"
         id="path1960"
         inkscape:connector-curvature="0"
         sodipodi:nodetypes="ccc" />
    </g>
    <path
       style="display:inline;opacity:1;fill:#803300;fill-opacity:1;stroke:none;stroke-width:0.5;stroke-linecap:round;stroke-linejoin:miter;stroke-miterlimit:4;stroke-dasharray:none;stroke-dashoffset:170.07873535;stroke-opacity:1;paint-order:fill markers stroke"
       d="M 94.941863,92.295918 V 87.31276 63.999973 h -5.141795 c 0,0 -2.129549,9.515433 -6.096281,19.516365 -1.608796,3.626767 -2.353309,4.3901 -3.825089,4.992637 -11.276784,2.815007 -15.87863,1.962979 -15.87863,1.962979 v 1.823964 h 25.958636 z"
       id="path1932-36"
       inkscape:connector-curvature="0"
       sodipodi:nodetypes="cccccccccc" />
    <path
       style="display:inline;opacity:1;fill:#803300;fill-opacity:1;stroke:none;stroke-width:0.5;stroke-linecap:round;stroke-linejoin:miter;stroke-miterlimit:4;stroke-dasharray:none;stroke-dashoffset:170.07873535;stroke-opacity:1;paint-order:fill markers stroke"
       d="m 94.941734,60.295917 v -4.98316 -23.312784 h -5.141666 c 0,0 3.243098,7.855437 -0.606304,18.326052 -0.581984,1.583032 -6.573112,3.51482 -9.645923,4.132067 -11.395201,2.288994 -15.547773,4.014175 -15.547773,4.014175 v 1.82365 h 25.958508 z"
       id="path1932-5-7"
       inkscape:connector-curvature="0"
       sodipodi:nodetypes="ccccsscccc" />
    <path
       style="display:inline;opacity:1;fill:#803300;fill-opacity:1;stroke:none;stroke-width:0.5;stroke-linecap:round;stroke-linejoin:miter;stroke-miterlimit:4;stroke-dasharray:none;stroke-dashoffset:170.07873535;stroke-opacity:1;paint-order:fill markers stroke"
       d="M 30.941733,31.999973 V 23.312757 -1.13e-4 L 25.958574,5.9e-5 c 0,0 4.486946,8.3237175 1.215831,13.614938 -0.483926,0.782778 0.227428,6.121052 -0.194703,7.002437 -2.606477,5.442173 -9.695499,3.487138 -12.88707,4.354256 -2.534295,1.045824 0.253864,4.311979 -1.230259,4.609376 C 7.5005491,30.655499 6.755994e-5,26.628241 6.755994e-5,26.628241 V 32 L 25.958574,31.999973 Z"
       id="path1932-4-5"
       inkscape:connector-curvature="0"
       sodipodi:nodetypes="ccccsscscccc" />
    <path
       style="display:inline;opacity:1;fill:#803300;fill-opacity:1;stroke:none;stroke-width:0.5;stroke-linecap:round;stroke-linejoin:miter;stroke-miterlimit:4;stroke-dasharray:none;stroke-dashoffset:170.07873535;stroke-opacity:1;paint-order:fill markers stroke"
       d="m 30.941733,60.295917 v -4.98316 -23.312784 h -5.141665 c -0.05688,0.609508 1.541983,2.962377 -0.04532,10.891196 -0.534917,2.67198 -2.321901,2.66856 -4.199001,5.75715 -3.046933,5.01344 -1.810613,4.861492 -4.684986,5.677176 C 5.6894285,57.498512 6.755994e-5,58.472143 6.755994e-5,58.472143 v 1.823774 H 25.958574 Z"
       id="path1932-7-35"
       inkscape:connector-curvature="0"
       sodipodi:nodetypes="ccccssscccc" />
    <path
       style="display:inline;opacity:1;fill:#803300;fill-opacity:1;stroke:none;stroke-width:0.5;stroke-linecap:round;stroke-linejoin:miter;stroke-miterlimit:4;stroke-dasharray:none;stroke-dashoffset:170.07873535;stroke-opacity:1;paint-order:fill markers stroke"
       d="M 62.941733,92.295918 V 87.312759 63.999973 h -5.141665 c 0,0 -0.872907,7.04438 -4.839639,17.045312 -2.667129,5.412704 -3.080913,6.860576 -6.272484,7.727696 -11.276785,2.815006 -14.687877,1.699192 -14.687877,1.699192 v 1.823745 h 25.958508 z"
       id="path1932-44-6"
       inkscape:connector-curvature="0"
       sodipodi:nodetypes="cccccccccc" />
    <path
       style="display:inline;opacity:1;fill:#803300;fill-opacity:1;stroke:none;stroke-width:0.5;stroke-linecap:round;stroke-linejoin:miter;stroke-miterlimit:4;stroke-dasharray:none;stroke-dashoffset:170.07873535;stroke-opacity:1;paint-order:fill markers stroke"
       d="m 30.942124,95.999973 -3.91e-4,-8.687214 V 63.999888 l -5.141665,1.7e-4 c 0,0 3.480527,13.694579 1.576509,24.123105 -0.247269,1.354322 -3.638604,4.340404 -11.894882,5.611027 C 3.9941088,95.502106 -1.2844006e-4,90.472 -1.2844006e-4,90.472 l 3.92e-4,5.527973 H 25.958965 Z"
       id="path1932-3-2"
       inkscape:connector-curvature="0"
       sodipodi:nodetypes="ccccsscccc" />
    <path
       style="display:inline;opacity:1;fill:#803300;fill-opacity:1;stroke:none;stroke-width:0.5;stroke-linecap:round;stroke-linejoin:miter;stroke-miterlimit:4;stroke-dasharray:none;stroke-dashoffset:170.07873535;stroke-opacity:1;paint-order:fill markers stroke"
       d="M 62.941733,28.29615 V 23.312802 -2.7e-5 h -5.141665 c 0,0 -3.03538,8.4890737 -2.413001,11.783712 0.421171,2.229523 -0.527372,4.66287 -1.897471,4.93216 -8.324913,1.636246 -7.098857,3.642389 -6.669359,7.992276 0.282148,2.857554 -4.334423,1.092411 -6.282113,1.395519 -5.936025,0.923795 -8.538056,0.368821 -8.538056,0.368821 v 1.823928 l 25.958508,-2.39e-4 z"
       id="path1932-0-91"
       inkscape:connector-curvature="0"
       sodipodi:nodetypes="ccccsssscccc" />
    <path
       style="display:inline;opacity:1;fill:#803300;fill-opacity:1;stroke:none;stroke-width:0.5;stroke-linecap:round;stroke-linejoin:miter;stroke-miterlimit:4;stroke-dasharray:none;stroke-dashoffset:170.07873535;stroke-opacity:1;paint-order:fill markers stroke"
       d="M 94.941734,28.295975 V 23.312815 -2.7e-5 h -5.141666 c 0,0 -3.36267,4.8400024 -4.018118,11.779475 -0.249,2.636255 5.973258,8.317125 5.462336,9.632069 -2.185403,5.624499 -9.563207,4.016306 -12.754779,4.883424 -11.80595,3.278029 -14.489439,0.177122 -14.489439,0.177122 v 1.823912 h 25.958508 z"
       id="path1932-78-27"
       inkscape:connector-curvature="0"
       sodipodi:nodetypes="ccccssccccc" />
    <path
       style="display:inline;opacity:1;fill:#803300;fill-opacity:1;stroke:none;stroke-width:0.5;stroke-linecap:round;stroke-linejoin:miter;stroke-miterlimit:4;stroke-dasharray:none;stroke-dashoffset:170.07873535;stroke-opacity:1;paint-order:fill markers stroke"
       d="m 62.941733,60.295917 v -4.98316 l -8.7e-5,-23.312784 h -5.141578 c 0,0 -2.970973,6.112898 -4.97193,10.718843 -2.925019,6.733014 -6.447858,8.051944 -9.645923,8.894796 -8.617953,2.271265 -11.240147,6.858218 -11.240147,6.858218 v 1.824087 h 26.016508 z"
       id="path1932-6-09"
       inkscape:connector-curvature="0"
       sodipodi:nodetypes="ccccsscccc" />
    <path
       style="display:inline;opacity:1;fill:#bcd35f;fill-opacity:1;stroke:none;stroke-width:0.5;stroke-linecap:round;stroke-linejoin:miter;stroke-miterlimit:4;stroke-dasharray:none;stroke-dashoffset:170.07873535;stroke-opacity:1;paint-order:fill markers stroke"
       d="M 96.000196,96.000086 V 91.016928 63.999973 h -4.983158 c 0,0 -1.295997,7.53133 -5.262728,17.532262 -2.667129,5.412704 -3.279351,6.79443 -6.470923,7.661548 -11.276785,2.815007 -15.283304,1.823145 -15.283304,1.823145 v 4.983158 h 27.016955 z"
       id="path1932"
       inkscape:connector-curvature="0"
       sodipodi:nodetypes="cccccccccc" />
    <path
       style="display:inline;opacity:1;fill:#bcd35f;fill-opacity:1;stroke:none;stroke-width:0.5;stroke-linecap:round;stroke-linejoin:miter;stroke-miterlimit:4;stroke-dasharray:none;stroke-dashoffset:170.07873535;stroke-opacity:1;paint-order:fill markers stroke"
       d="M 96.000068,64.000086 V 59.016928 31.999973 h -4.983159 c 0,0 1.810542,6.046235 -0.367936,16.341637 -1.249151,5.903437 -10.409569,6.316698 -13.614672,7.132381 -11.263785,2.866578 -13.034346,3.542937 -13.034346,3.542937 v 4.983158 h 27.016954 z"
       id="path1932-5"
       inkscape:connector-curvature="0"
       sodipodi:nodetypes="ccccsscccc" />
    <path
       style="display:inline;opacity:1;fill:#bcd35f;fill-opacity:1;stroke:none;stroke-width:0.5;stroke-linecap:round;stroke-linejoin:miter;stroke-miterlimit:4;stroke-dasharray:none;stroke-dashoffset:170.07873535;stroke-opacity:1;paint-order:fill markers stroke"
       d="M 32.000068,32.000086 V 27.016927 -2.7e-5 H 27.01691 c 0,0 4.088123,4.902368 0.912499,13.549029 -0.317269,0.863867 -0.06455,6.541431 -0.486685,7.422816 -2.606477,5.442172 -8.967893,3.354846 -12.159465,4.221965 -3.129608,0.781239 -0.01071,4.708853 -2.090155,5.006249 C 7.7797706,30.974231 -4.544006e-5,27.016927 -4.544006e-5,27.016927 v 4.983159 H 27.01691 Z"
       id="path1932-4"
       inkscape:connector-curvature="0"
       sodipodi:nodetypes="ccccsscscccc" />
    <path
       style="display:inline;opacity:1;fill:#bcd35f;fill-opacity:1;stroke:none;stroke-width:0.5;stroke-linecap:round;stroke-linejoin:miter;stroke-miterlimit:4;stroke-dasharray:none;stroke-dashoffset:170.07873535;stroke-opacity:1;paint-order:fill markers stroke"
       d="M 32.000068,64.000086 V 59.016927 31.999973 H 27.01691 c 0,0 0.745484,6.283863 -0.799143,11.444382 -0.781385,2.610563 -3.03476,2.768034 -4.463585,6.08788 -2.385476,5.542603 -3.662695,5.126073 -6.867798,5.941756 C 3.6225986,58.34057 -4.544006e-5,59.016927 -4.544006e-5,59.016927 v 4.983159 H 27.01691 Z"
       id="path1932-7"
       inkscape:connector-curvature="0"
       sodipodi:nodetypes="ccccssscccc" />
    <path
       style="display:inline;opacity:1;fill:#bcd35f;fill-opacity:1;stroke:none;stroke-width:0.5;stroke-linecap:round;stroke-linejoin:miter;stroke-miterlimit:4;stroke-dasharray:none;stroke-dashoffset:170.07873535;stroke-opacity:1;paint-order:fill markers stroke"
       d="M 64.000068,96.000086 V 91.016927 63.999973 H 59.01691 c 0,0 -1.295998,7.53133 -5.262728,17.532262 -2.66713,5.412704 -3.279351,6.794429 -6.470923,7.661548 -11.276784,2.815007 -15.283304,1.823144 -15.283304,1.823144 v 4.983159 H 59.01691 Z"
       id="path1932-44"
       inkscape:connector-curvature="0"
       sodipodi:nodetypes="cccccccccc" />
    <path
       style="display:inline;opacity:1;fill:#bcd35f;fill-opacity:1;stroke:none;stroke-width:0.5;stroke-linecap:round;stroke-linejoin:miter;stroke-miterlimit:4;stroke-dasharray:none;stroke-dashoffset:170.07873535;stroke-opacity:1;paint-order:fill markers stroke"
       d="M 32.000068,96.000086 V 91.016927 63.999973 H 27.01691 c 0,0 3.123581,13.982904 1.219564,24.411429 -0.247268,1.35432 -4.564645,4.53884 -12.820923,5.809465 C 3.9279656,95.988782 -4.544006e-5,91.016927 -4.544006e-5,91.016927 v 4.983159 H 27.01691 Z"
       id="path1932-3"
       inkscape:connector-curvature="0"
       sodipodi:nodetypes="ccccsscccc" />
    <path
       style="display:inline;opacity:1;fill:#bcd35f;fill-opacity:1;stroke:none;stroke-width:0.5;stroke-linecap:round;stroke-linejoin:miter;stroke-miterlimit:4;stroke-dasharray:none;stroke-dashoffset:170.07873535;stroke-opacity:1;paint-order:fill markers stroke"
       d="M 64.000068,32.00032 V 27.016973 2.07e-4 H 59.01691 c 0,0 -1.230843,2.382778 -2.769945,7.526406 -0.782921,2.616499 1.132569,9.878271 -2.492783,10.005856 -7.317331,0.257514 -6.503545,3.311661 -6.470923,7.661548 0.02153,2.871366 -5.128172,1.158556 -7.075862,1.461666 -5.936025,0.923795 -8.207442,0.361478 -8.207442,0.361478 V 32.00032 H 59.01691 Z"
       id="path1932-0"
       inkscape:connector-curvature="0"
       sodipodi:nodetypes="ccccsssscccc" />
    <path
       style="display:inline;opacity:1;fill:#bcd35f;fill-opacity:1;stroke:none;stroke-width:0.5;stroke-linecap:round;stroke-linejoin:miter;stroke-miterlimit:4;stroke-dasharray:none;stroke-dashoffset:170.07873535;stroke-opacity:1;paint-order:fill markers stroke"
       d="M 96.000068,32.000146 V 27.016987 3.3e-5 h -4.983159 c 0,0 -3.833658,4.423054 -4.523404,11.3592 -0.249,2.503963 6.25389,8.297701 5.213802,10.538687 -2.540306,5.473372 -10.952268,4.280887 -14.14384,5.148006 -11.276784,2.815007 -13.563512,-0.02894 -13.563512,-0.02894 v 4.98316 h 27.016954 z"
       id="path1932-78"
       inkscape:connector-curvature="0"
       sodipodi:nodetypes="ccccssccccc" />
    <path
       style="display:inline;opacity:1;fill:#bcd35f;fill-opacity:1;stroke:none;stroke-width:0.5;stroke-linecap:round;stroke-linejoin:miter;stroke-miterlimit:4;stroke-dasharray:none;stroke-dashoffset:170.07873535;stroke-opacity:1;paint-order:fill markers stroke"
       d="M 64.000068,64.000086 V 59.016927 31.999973 H 59.01691 c 0,0 -1.009426,0.506052 -5.262728,10.388512 -2.385476,5.542603 -5.382487,8.433365 -8.58759,9.249048 -11.263785,2.866578 -13.166637,7.379394 -13.166637,7.379394 v 4.983159 H 59.01691 Z"
       id="path1932-6"
       inkscape:connector-curvature="0"
       sodipodi:nodetypes="ccccsscccc" />
    <path
       style="color:#000000;font-style:normal;font-variant:normal;font-weight:normal;font-stretch:normal;font-size:medium;line-height:normal;font-family:sans-serif;font-variant-ligatures:normal;font-variant-position:normal;font-variant-caps:normal;font-variant-numeric:normal;font-variant-alternates:normal;font-feature-settings:normal;text-indent:0;text-align:start;text-decoration:none;text-decoration-line:none;text-decoration-style:solid;text-decoration-color:#000000;letter-spacing:normal;word-spacing:normal;text-transform:none;writing-mode:lr-tb;direction:ltr;text-orientation:mixed;dominant-baseline:auto;baseline-shift:baseline;text-anchor:start;white-space:normal;shape-padding:0;clip-rule:nonzero;display:inline;overflow:visible;visibility:visible;opacity:1;isolation:auto;mix-blend-mode:normal;color-interpolation:sRGB;color-interpolation-filters:linearRGB;solid-color:#000000;solid-opacity:1;vector-effect:none;fill:#000000;fill-opacity:1;fill-rule:nonzero;stroke:none;stroke-width:0.5;stroke-linecap:round;stroke-linejoin:miter;stroke-miterlimit:4;stroke-dasharray:none;stroke-dashoffset:170.07873535;stroke-opacity:1;paint-order:fill markers stroke;color-rendering:auto;image-rendering:auto;shape-rendering:auto;text-rendering:auto;enable-background:accumulate"
       d="m 90.750068,63.999973 c 0,0 -1.27152,7.457907 -5.226434,17.431641 -1.329658,2.698511 -2.150793,4.390731 -3.00586,5.482421 -0.856623,1.093678 -1.733514,1.613252 -3.300781,2.039063 -5.621043,1.402753 -9.424301,1.855982 -11.814453,1.958984 -2.391161,0.103046 -3.402472,-0.162109 -3.402472,-0.162109 v 0.35 c 0.173241,0.03709 1.209359,0.405593 3.423956,0.310156 2.431295,-0.104775 6.268085,-0.56375 11.919922,-1.974609 h 0.002 0.0039 c 1.624305,-0.441308 2.648337,-1.045749 3.5625,-2.212891 0.914164,-1.167141 1.733218,-2.874489 3.066407,-5.580078 l 0.0039,-0.0098 0.0039,-0.0078 c 3.893916,-9.8174 5.060532,-17.322583 5.113515,-17.624978 z"
       id="path1932-8"
       inkscape:connector-curvature="0"
       sodipodi:nodetypes="ccscsccscccsccccc" />
    <path
       style="color:#000000;font-style:normal;font-variant:normal;font-weight:normal;font-stretch:normal;font-size:medium;line-height:normal;font-family:sans-serif;font-variant-ligatures:normal;font-variant-position:normal;font-variant-caps:normal;font-variant-numeric:normal;font-variant-alternates:normal;font-feature-settings:normal;text-indent:0;text-align:start;text-decoration:none;text-decoration-line:none;text-decoration-style:solid;text-decoration-color:#000000;letter-spacing:normal;word-spacing:normal;text-transform:none;writing-mode:lr-tb;direction:ltr;text-orientation:mixed;dominant-baseline:auto;baseline-shift:baseline;text-anchor:start;white-space:normal;shape-padding:0;clip-rule:nonzero;display:inline;overflow:visible;visibility:visible;opacity:1;isolation:auto;mix-blend-mode:normal;color-interpolation:sRGB;color-interpolation-filters:linearRGB;solid-color:#000000;solid-opacity:1;vector-effect:none;fill:#000000;fill-opacity:1;fill-rule:nonzero;stroke:none;stroke-width:0.5;stroke-linecap:round;stroke-linejoin:miter;stroke-miterlimit:4;stroke-dasharray:none;stroke-dashoffset:170.07873535;stroke-opacity:1;paint-order:fill markers stroke;color-rendering:auto;image-rendering:auto;shape-rendering:auto;text-rendering:auto;enable-background:accumulate"
       d="m 90.750068,31.999973 c 0,0 1.824511,6.041988 -0.344056,16.290549 -0.599198,2.831789 -3.09722,4.3558 -5.908202,5.287109 -2.810984,0.93131 -5.875497,1.234905 -7.523438,1.654297 -11.266825,2.867351 -12.974304,3.518045 -12.974304,3.518045 v 0.35 c 0.04423,-0.01671 1.977138,-0.553631 13.097351,-3.38367 1.557163,-0.396289 4.673851,-0.708962 7.556641,-1.664062 2.882789,-0.9551 5.590281,-2.586553 6.240233,-5.658203 2.107888,-9.961793 0.327531,-15.962647 0.205775,-16.394065 z"
       id="path1932-5-8"
       inkscape:connector-curvature="0"
       sodipodi:nodetypes="csssccssscc" />
    <path
       style="color:#000000;font-style:normal;font-variant:normal;font-weight:normal;font-stretch:normal;font-size:medium;line-height:normal;font-family:sans-serif;font-variant-ligatures:normal;font-variant-position:normal;font-variant-caps:normal;font-variant-numeric:normal;font-variant-alternates:normal;font-feature-settings:normal;text-indent:0;text-align:start;text-decoration:none;text-decoration-line:none;text-decoration-style:solid;text-decoration-color:#000000;letter-spacing:normal;word-spacing:normal;text-transform:none;writing-mode:lr-tb;direction:ltr;text-orientation:mixed;dominant-baseline:auto;baseline-shift:baseline;text-anchor:start;white-space:normal;shape-padding:0;clip-rule:nonzero;display:inline;overflow:visible;visibility:visible;opacity:1;isolation:auto;mix-blend-mode:normal;color-interpolation:sRGB;color-interpolation-filters:linearRGB;solid-color:#000000;solid-opacity:1;vector-effect:none;fill:#000000;fill-opacity:1;fill-rule:nonzero;stroke:none;stroke-width:0.5;stroke-linecap:round;stroke-linejoin:miter;stroke-miterlimit:4;stroke-dasharray:none;stroke-dashoffset:170.07873535;stroke-opacity:1;paint-order:fill markers stroke;color-rendering:auto;image-rendering:auto;shape-rendering:auto;text-rendering:auto;enable-background:accumulate"
       d="M 6.755994e-5,27.099973 C 0.27805356,27.238838 2.0557366,28.307202 4.4863956,29.134739 c 2.639264,0.898558 5.9598094,1.710426 8.7421884,1.3125 0.302437,-0.04325 0.54726,-0.163924 0.710937,-0.351563 0.163677,-0.187639 0.237575,-0.421978 0.265625,-0.664062 0.0561,-0.484169 -0.05015,-1.033779 -0.113281,-1.582032 -0.06313,-0.548252 -0.08386,-1.085038 0.07031,-1.498047 0.154173,-0.413008 0.456464,-0.73499 1.181641,-0.916015 h 0.002 0.0039 c 1.506252,-0.409234 3.905651,-0.117122 6.261719,-0.388672 2.356069,-0.27155 4.713798,-1.16302 6.056641,-3.966797 0.154898,-0.323416 0.19327,-0.82632 0.234375,-1.503906 0.04111,-0.677586 0.05763,-1.498921 0.07227,-2.31836 0.01463,-0.819438 0.0274,-1.636878 0.05469,-2.298828 0.02729,-0.661949 0.0897,-1.201521 0.134765,-1.324218 C 29.769228,9.264467 29.541637,5.818018 28.904411,3.46677 28.407345,1.632687 27.407628,0.430116 27.100068,-2.7e-5 h -0.35 c 0,0 1.058945,1.336059 1.671875,3.59766 0.61293,2.261601 0.84401,5.588846 -0.726563,9.865235 -0.113572,0.309236 -0.138266,0.803462 -0.166015,1.476562 -0.02775,0.6731 -0.04008,1.492438 -0.05469,2.310547 -0.01461,0.818109 -0.03212,1.635032 -0.07227,2.296875 -0.04015,0.661843 -0.129378,1.19913 -0.185547,1.316406 -1.263634,2.638395 -3.389911,3.425391 -5.664063,3.6875 -2.273405,0.262023 -4.648764,-0.05488 -6.333984,0.402344 h -0.002 c -0.835356,0.210408 -1.315832,0.67174 -1.521485,1.222656 -0.20622,0.552436 -0.165069,1.161989 -0.09961,1.730469 0.06546,0.56848 0.155031,1.106482 0.113281,1.466797 -0.02087,0.180157 -0.07048,0.307404 -0.146484,0.394531 -0.076,0.08713 -0.186875,0.154452 -0.404297,0.185547 C 10.527262,30.329372 7.2504746,29.548631 4.6464966,28.662086 2.0425196,27.775542 6.755994e-5,26.749973 6.755994e-5,26.749973 Z"
       id="path1932-4-4"
       inkscape:connector-curvature="0"
       sodipodi:nodetypes="cscsscccccscccscsccsscsscsccscccsscc" />
    <path
       style="color:#000000;font-style:normal;font-variant:normal;font-weight:normal;font-stretch:normal;font-size:medium;line-height:normal;font-family:sans-serif;font-variant-ligatures:normal;font-variant-position:normal;font-variant-caps:normal;font-variant-numeric:normal;font-variant-alternates:normal;font-feature-settings:normal;text-indent:0;text-align:start;text-decoration:none;text-decoration-line:none;text-decoration-style:solid;text-decoration-color:#000000;letter-spacing:normal;word-spacing:normal;text-transform:none;writing-mode:lr-tb;direction:ltr;text-orientation:mixed;dominant-baseline:auto;baseline-shift:baseline;text-anchor:start;white-space:normal;shape-padding:0;clip-rule:nonzero;display:inline;overflow:visible;visibility:visible;opacity:1;isolation:auto;mix-blend-mode:normal;color-interpolation:sRGB;color-interpolation-filters:linearRGB;solid-color:#000000;solid-opacity:1;vector-effect:none;fill:#000000;fill-opacity:1;fill-rule:nonzero;stroke:none;stroke-width:0.5;stroke-linecap:round;stroke-linejoin:miter;stroke-miterlimit:4;stroke-dasharray:none;stroke-dashoffset:170.07873535;stroke-opacity:1;paint-order:fill markers stroke;color-rendering:auto;image-rendering:auto;shape-rendering:auto;text-rendering:auto;enable-background:accumulate"
       d="M 6.755994e-5,59.099973 C 0.09948756,59.081263 3.8352946,58.544731 14.947334,55.71677 c 1.585002,-0.403375 2.740918,-0.502161 3.820312,-1.234375 1.079395,-0.732214 2.016755,-2.06329 3.216797,-4.851563 0.696113,-1.617405 1.575488,-2.444913 2.414063,-3.224609 0.838574,-0.779696 1.649368,-1.523421 2.058593,-2.890625 1.509493,-5.043136 0.692597,-11.079379 0.642969,-11.515625 h -0.35 c 0,0 0.750817,6.287107 -0.771487,11.373047 -0.372158,1.24336 -1.079256,1.884374 -1.919922,2.666015 -0.840666,0.781642 -1.800492,1.692091 -2.533203,3.394532 -1.185434,2.75433 -2.082203,3.985673 -3.039063,4.634765 -0.95686,0.649093 -2.042009,0.751756 -3.662109,1.164063 C 3.5638076,58.098133 6.755994e-5,58.749973 6.755994e-5,58.749973 Z"
       id="path1932-7-3"
       inkscape:connector-curvature="0"
       sodipodi:nodetypes="csssscccssssscc" />
    <path
       style="color:#000000;font-style:normal;font-variant:normal;font-weight:normal;font-stretch:normal;font-size:medium;line-height:normal;font-family:sans-serif;font-variant-ligatures:normal;font-variant-position:normal;font-variant-caps:normal;font-variant-numeric:normal;font-variant-alternates:normal;font-feature-settings:normal;text-indent:0;text-align:start;text-decoration:none;text-decoration-line:none;text-decoration-style:solid;text-decoration-color:#000000;letter-spacing:normal;word-spacing:normal;text-transform:none;writing-mode:lr-tb;direction:ltr;text-orientation:mixed;dominant-baseline:auto;baseline-shift:baseline;text-anchor:start;white-space:normal;shape-padding:0;clip-rule:nonzero;display:inline;overflow:visible;visibility:visible;opacity:1;isolation:auto;mix-blend-mode:normal;color-interpolation:sRGB;color-interpolation-filters:linearRGB;solid-color:#000000;solid-opacity:1;vector-effect:none;fill:#000000;fill-opacity:1;fill-rule:nonzero;stroke:none;stroke-width:0.5;stroke-linecap:round;stroke-linejoin:miter;stroke-miterlimit:4;stroke-dasharray:none;stroke-dashoffset:170.07873535;stroke-opacity:1;paint-order:fill markers stroke;color-rendering:auto;image-rendering:auto;shape-rendering:auto;text-rendering:auto;enable-background:accumulate"
       d="m 32.000068,91.099973 c 0.173241,0.03709 1.209232,0.405593 3.423828,0.310156 2.431295,-0.104775 6.268085,-0.563749 11.919922,-1.974609 h 0.002 0.0039 c 1.624305,-0.441308 2.648337,-1.04575 3.5625,-2.212891 0.914164,-1.167141 1.733218,-2.874489 3.066407,-5.580078 l 0.0039,-0.0098 0.0039,-0.0078 c 3.893916,-9.8174 5.06066,-17.322583 5.113643,-17.624978 h -0.330469 c 0,0 -1.291179,7.457907 -5.246093,17.431641 -1.329658,2.698511 -2.150794,4.390731 -3.00586,5.482421 -0.856622,1.093678 -1.733515,1.613252 -3.300781,2.039063 -5.621042,1.402754 -9.424301,1.855982 -11.814453,1.958984 -2.391161,0.103046 -3.402344,-0.162109 -3.402344,-0.162109 z"
       id="path1932-44-1"
       inkscape:connector-curvature="0"
       sodipodi:nodetypes="cscccsccccccscscc" />
    <path
       style="color:#000000;font-style:normal;font-variant:normal;font-weight:normal;font-stretch:normal;font-size:medium;line-height:normal;font-family:sans-serif;font-variant-ligatures:normal;font-variant-position:normal;font-variant-caps:normal;font-variant-numeric:normal;font-variant-alternates:normal;font-feature-settings:normal;text-indent:0;text-align:start;text-decoration:none;text-decoration-line:none;text-decoration-style:solid;text-decoration-color:#000000;letter-spacing:normal;word-spacing:normal;text-transform:none;writing-mode:lr-tb;direction:ltr;text-orientation:mixed;dominant-baseline:auto;baseline-shift:baseline;text-anchor:start;white-space:normal;shape-padding:0;clip-rule:nonzero;display:inline;overflow:visible;visibility:visible;opacity:1;isolation:auto;mix-blend-mode:normal;color-interpolation:sRGB;color-interpolation-filters:linearRGB;solid-color:#000000;solid-opacity:1;vector-effect:none;fill:#000000;fill-opacity:1;fill-rule:nonzero;stroke:none;stroke-width:0.5;stroke-linecap:round;stroke-linejoin:miter;stroke-miterlimit:4;stroke-dasharray:none;stroke-dashoffset:170.07873535;stroke-opacity:1;paint-order:fill markers stroke;color-rendering:auto;image-rendering:auto;shape-rendering:auto;text-rendering:auto;enable-background:accumulate"
       d="M 6.755994e-5,91.099973 C 0.42973756,91.529562 1.5061136,92.752301 3.3028016,93.511692 c 2.462549,1.040824 6.367542,1.847 12.1503914,0.957031 4.152697,-0.639092 7.320958,-1.760954 9.492187,-2.900391 1.085615,-0.569718 1.922576,-1.142619 2.511719,-1.669922 0.589144,-0.527302 0.943595,-0.993403 1.025391,-1.441406 1.884601,-10.322177 -1.272091,-23.959168 -1.382422,-24.457031 h -0.35 c 0,0 3.128484,14.02503 1.240234,24.367187 -0.04184,0.229158 -0.319269,0.667799 -0.867187,1.158204 -0.547918,0.490404 -1.353484,1.047032 -2.410156,1.601562 -2.113345,1.10906 -5.232357,2.216124 -9.335938,2.847656 C 9.6722846,94.85253 5.8714676,94.053879 3.4981146,93.050754 1.1247616,92.047629 6.855994e-5,90.749973 6.755994e-5,90.749973 Z"
       id="path1932-3-4"
       inkscape:connector-curvature="0"
       sodipodi:nodetypes="cssssccccsssscc" />
    <path
       style="color:#000000;font-style:normal;font-variant:normal;font-weight:normal;font-stretch:normal;font-size:medium;line-height:normal;font-family:sans-serif;font-variant-ligatures:normal;font-variant-position:normal;font-variant-caps:normal;font-variant-numeric:normal;font-variant-alternates:normal;font-feature-settings:normal;text-indent:0;text-align:start;text-decoration:none;text-decoration-line:none;text-decoration-style:solid;text-decoration-color:#000000;letter-spacing:normal;word-spacing:normal;text-transform:none;writing-mode:lr-tb;direction:ltr;text-orientation:mixed;dominant-baseline:auto;baseline-shift:baseline;text-anchor:start;white-space:normal;shape-padding:0;clip-rule:nonzero;display:inline;overflow:visible;visibility:visible;opacity:1;isolation:auto;mix-blend-mode:normal;color-interpolation:sRGB;color-interpolation-filters:linearRGB;solid-color:#000000;solid-opacity:1;vector-effect:none;fill:#000000;fill-opacity:1;fill-rule:nonzero;stroke:none;stroke-width:0.5;stroke-linecap:round;stroke-linejoin:miter;stroke-miterlimit:4;stroke-dasharray:none;stroke-dashoffset:170.07873535;stroke-opacity:1;paint-order:fill markers stroke;color-rendering:auto;image-rendering:auto;shape-rendering:auto;text-rendering:auto;enable-background:accumulate"
       d="m 32.000068,27.099973 c 0.166004,0.03394 0.7597,0.310536 1.873047,0.331875 1.32635,0.02542 3.392631,-0.06547 6.373047,-0.529297 0.870064,-0.135404 2.669786,0.202274 4.232422,0.234375 0.781318,0.01605 1.5158,-0.04039 2.091796,-0.320313 0.575997,-0.279928 0.968835,-0.832623 0.962891,-1.625 -0.01642,-2.190094 -0.201964,-4.008931 0.451172,-5.246094 0.326568,-0.618581 0.851476,-1.114981 1.761719,-1.488281 0.910242,-0.3733 2.205767,-0.612019 4.017578,-0.675781 0.990417,-0.03485 1.656504,-0.595914 2.02539,-1.392578 0.368887,-0.796664 0.490792,-1.824647 0.527344,-2.917969 0.03655,-1.093322 -0.01654,-2.254222 -0.0293,-3.298828 -0.01276,-1.044606 0.02062,-1.977342 0.199219,-2.574219 1.507095,-5.03666 2.570956,-7.514617 2.613675,-7.59789 h -0.35 c 0,0 -1.198669,2.296931 -2.742186,7.455312 -0.21286,0.711373 -0.23361,1.667756 -0.220703,2.72461 0.01291,1.056853 0.06491,2.210259 0.0293,3.27539 -0.03561,1.065131 -0.164413,2.040089 -0.480468,2.722656 -0.316056,0.682567 -0.767585,1.076532 -1.589844,1.105469 -1.846854,0.06499 -3.195301,0.303225 -4.189453,0.710938 -0.994153,0.407712 -1.635051,0.995916 -2.015625,1.716797 -0.761149,1.44176 -0.524011,3.324581 -0.507813,5.484374 0.0048,0.643307 -0.237259,0.953958 -0.681641,1.169922 -0.444381,0.215965 -1.116402,0.288781 -1.863281,0.273438 -1.493758,-0.03069 -3.242687,-0.398175 -4.320312,-0.230469 -2.955609,0.459967 -4.991793,0.55018 -6.285157,0.525391 -1.293363,-0.02479 -1.882817,-0.183829 -1.882817,-0.183828 z"
       id="path1932-0-9"
       inkscape:connector-curvature="0"
       sodipodi:nodetypes="ccssccsscccscccscscccccccsscc" />
    <path
       style="color:#000000;font-style:normal;font-variant:normal;font-weight:normal;font-stretch:normal;font-size:medium;line-height:normal;font-family:sans-serif;font-variant-ligatures:normal;font-variant-position:normal;font-variant-caps:normal;font-variant-numeric:normal;font-variant-alternates:normal;font-feature-settings:normal;text-indent:0;text-align:start;text-decoration:none;text-decoration-line:none;text-decoration-style:solid;text-decoration-color:#000000;letter-spacing:normal;word-spacing:normal;text-transform:none;writing-mode:lr-tb;direction:ltr;text-orientation:mixed;dominant-baseline:auto;baseline-shift:baseline;text-anchor:start;white-space:normal;shape-padding:0;clip-rule:nonzero;display:inline;overflow:visible;visibility:visible;opacity:1;isolation:auto;mix-blend-mode:normal;color-interpolation:sRGB;color-interpolation-filters:linearRGB;solid-color:#000000;solid-opacity:1;vector-effect:none;fill:#000000;fill-opacity:1;fill-rule:nonzero;stroke:none;stroke-width:0.5;stroke-linecap:round;stroke-linejoin:miter;stroke-miterlimit:4;stroke-dasharray:none;stroke-dashoffset:170.07873535;stroke-opacity:1;paint-order:fill markers stroke;color-rendering:auto;image-rendering:auto;shape-rendering:auto;text-rendering:auto;enable-background:accumulate"
       d="m 64.000068,27.099973 c 0.343107,0.320673 1.492835,1.050078 2.507812,1.234044 2.029955,0.367934 5.453796,0.368336 11.115235,-1.044922 l 0.0039,-0.002 h 0.002 c 1.514177,-0.411387 4.440163,-0.341511 7.292969,-0.841797 2.852806,-0.500285 5.694285,-1.602849 7.011718,-4.441406 0.31922,-0.687793 0.05811,-1.536787 -0.414062,-2.458984 -0.472176,-0.922197 -1.186446,-1.940465 -1.919922,-2.962891 -0.733476,-1.022425 -1.486226,-2.048334 -2.035156,-2.96289 C 87.015631,12.70457 86.691588,11.894671 86.742296,11.384752 87.414331,4.626355 90.995563,0.121783 91.100068,-2.7e-5 h -0.35 c 0,0 -3.808123,4.317547 -4.505859,11.334046 -0.07379,0.74206 0.322797,1.594974 0.890624,2.541014 0.567827,0.94604 1.327483,1.978919 2.058594,2.998047 0.73111,1.019127 1.434049,2.025782 1.880859,2.898437 0.44681,0.872656 0.607075,1.588785 0.40625,2.021485 -1.222872,2.634815 -3.858386,3.671561 -6.64453,4.160156 -2.786146,0.488595 -5.660496,0.39583 -7.337891,0.851563 l 0.0039,-0.002 c -5.615344,1.401751 -8.97169,1.389352 -10.904297,1.039063 -0.966303,-0.175144 -2.234009,-0.884532 -2.59765,-1.091811 z"
       id="path1932-78-2"
       inkscape:connector-curvature="0"
       sodipodi:nodetypes="cscccsssssccccsssssccscc" />
    <path
       style="color:#000000;font-style:normal;font-variant:normal;font-weight:normal;font-stretch:normal;font-size:medium;line-height:normal;font-family:sans-serif;font-variant-ligatures:normal;font-variant-position:normal;font-variant-caps:normal;font-variant-numeric:normal;font-variant-alternates:normal;font-feature-settings:normal;text-indent:0;text-align:start;text-decoration:none;text-decoration-line:none;text-decoration-style:solid;text-decoration-color:#000000;letter-spacing:normal;word-spacing:normal;text-transform:none;writing-mode:lr-tb;direction:ltr;text-orientation:mixed;dominant-baseline:auto;baseline-shift:baseline;text-anchor:start;white-space:normal;shape-padding:0;clip-rule:nonzero;display:inline;overflow:visible;visibility:visible;opacity:1;isolation:auto;mix-blend-mode:normal;color-interpolation:sRGB;color-interpolation-filters:linearRGB;solid-color:#000000;solid-opacity:1;vector-effect:none;fill:#000000;fill-opacity:1;fill-rule:nonzero;stroke:none;stroke-width:0.5;stroke-linecap:round;stroke-linejoin:miter;stroke-miterlimit:4;stroke-dasharray:none;stroke-dashoffset:170.07873535;stroke-opacity:1;paint-order:fill markers stroke;color-rendering:auto;image-rendering:auto;shape-rendering:auto;text-rendering:auto;enable-background:accumulate"
       d="m 32.000068,59.099973 c 0.0089,-0.0209 0.34571,-0.251424 0.671875,-0.682031 0.341444,-0.450777 0.916064,-1.089763 1.841797,-1.820313 1.851466,-1.461099 5.110078,-3.292363 10.714844,-4.71875 3.305819,-0.841313 6.352803,-3.807173 8.755859,-9.390625 2.124424,-4.936056 3.437104,-7.52748 4.212891,-8.875 0.387893,-0.67376 0.753551,-1.426347 0.902734,-1.613281 h -0.35 c -0.173,0.216778 -0.590198,0.675218 -0.986324,1.363279 -0.792253,1.376122 -2.109404,3.979378 -4.238281,8.925781 -2.367895,5.501755 -5.315538,8.31542 -8.419922,9.105469 -5.65902,1.440194 -8.984485,3.298594 -10.900391,4.810547 -0.957953,0.755977 -1.601294,1.399287 -1.93164,1.910156 -0.313591,0.484957 -0.273442,0.634768 -0.273442,0.634768 z"
       id="path1932-6-0"
       inkscape:connector-curvature="0"
       sodipodi:nodetypes="ccssssccssssscc" />
  </g>
  <g
     inkscape:groupmode="layer"
     id="layer6"
     inkscape:label="grass"
     style="display:inline">
    <g
       id="use4581"
       style="display:inline"
       transform="matrix(0.99998894,0,0,1.0000395,12.562406,50.445892)">
      <path
         sodipodi:nodetypes="ccc"
         inkscape:connector-curvature="0"
         id="path3635"
         d="M 7.726239,11.728478 C 10.298977,11.50653 11.748145,8.4506522 12.658664,5.1787364 9.4708713,5.2666865 7.8918063,7.7400044 7.726239,11.728478 Z"
         style="fill:#cdde87;fill-opacity:1;fill-rule:evenodd;stroke:none;stroke-width:0.40300986px;stroke-linecap:butt;stroke-linejoin:miter;stroke-opacity:1" />
      <path
         sodipodi:nodetypes="ccc"
         inkscape:connector-curvature="0"
         id="path3637"
         d="M 7.726239,11.728478 C 5.2196468,10.249759 4.4980827,10.501173 3.5875637,7.2292572 6.775357,7.3172073 7.957547,7.2108377 7.726239,11.728478 Z"
         style="fill:#cdde87;fill-opacity:1;fill-rule:evenodd;stroke:none;stroke-width:0.40300986px;stroke-linecap:butt;stroke-linejoin:miter;stroke-opacity:1" />
    </g>
    <use
       x="0"
       y="0"
       xlink:href="#use4581"
       id="use3641"
       transform="translate(28.661898,-2.0806732)"
       width="100%"
       height="100%" />
    <use
       x="0"
       y="0"
       xlink:href="#use3641"
       id="use3643"
       transform="translate(9.4355466,-10.131661)"
       width="100%"
       height="100%" />
    <use
       x="0"
       y="0"
       xlink:href="#use3643"
       id="use3645"
       transform="translate(21.46819,12.146523)"
       width="100%"
       height="100%" />
    <use
       x="0"
       y="0"
       xlink:href="#use3645"
       id="use3647"
       transform="translate(10.7233,-30.771444)"
       width="100%"
       height="100%" />
    <use
       x="0"
       y="0"
       xlink:href="#use3647"
       id="use3649"
       transform="translate(-34.29781,62.842439)"
       width="100%"
       height="100%" />
    <use
       x="0"
       y="0"
       xlink:href="#use3649"
       id="use3651"
       transform="translate(32.996483,0.15498935)"
       width="100%"
       height="100%" />
  </g>
</svg>
