<?xml version="1.0" encoding="UTF-8" standalone="no"?>
<!-- Created with Inkscape (http://www.inkscape.org/) -->

<svg
   xmlns:dc="http://purl.org/dc/elements/1.1/"
   xmlns:cc="http://creativecommons.org/ns#"
   xmlns:rdf="http://www.w3.org/1999/02/22-rdf-syntax-ns#"
   xmlns:svg="http://www.w3.org/2000/svg"
   xmlns="http://www.w3.org/2000/svg"
   xmlns:sodipodi="http://sodipodi.sourceforge.net/DTD/sodipodi-0.dtd"
   xmlns:inkscape="http://www.inkscape.org/namespaces/inkscape"
   width="96mm"
   height="96mm"
   viewBox="0 0 96 96"
   version="1.1"
   id="svg8"
   inkscape:version="0.92.2 5c3e80d, 2017-08-06"
   sodipodi:docname="5.svg">
  <defs
     id="defs2" />
  <sodipodi:namedview
     id="base"
     pagecolor="#ffffff"
     bordercolor="#666666"
     borderopacity="1.0"
     inkscape:pageopacity="0.0"
     inkscape:pageshadow="2"
     inkscape:zoom="0.99999996"
     inkscape:cx="197.92288"
     inkscape:cy="155.13684"
     inkscape:document-units="mm"
     inkscape:current-layer="g1948"
     showgrid="true"
     showguides="true"
     inkscape:window-width="1678"
     inkscape:window-height="1029"
     inkscape:window-x="1"
     inkscape:window-y="516"
     inkscape:window-maximized="0"
     inkscape:snap-global="false">
    <inkscape:grid
       type="xygrid"
       id="grid882"
       units="mm"
       spacingx="31.999999"
       spacingy="31.999999" />
  </sodipodi:namedview>
  <metadata
     id="metadata5">
    <rdf:RDF>
      <cc:Work
         rdf:about="">
        <dc:format>image/svg+xml</dc:format>
        <dc:type
           rdf:resource="http://purl.org/dc/dcmitype/StillImage" />
        <dc:title></dc:title>
      </cc:Work>
    </rdf:RDF>
  </metadata>
  <g
     inkscape:label="background"
     inkscape:groupmode="layer"
     id="layer1"
     transform="translate(0,-201)"
     style="display:inline">
    <rect
       style="opacity:1;fill:#5f8dd3;fill-opacity:1;stroke:none;stroke-width:9.41215611;stroke-linejoin:bevel;stroke-miterlimit:4;stroke-dasharray:none;stroke-dashoffset:0;stroke-opacity:1"
       id="rect4504"
       width="96"
       height="96"
       x="-96"
       y="201"
       transform="scale(-1,1)" />
  </g>
  <g
     inkscape:groupmode="layer"
     id="layer2"
     inkscape:label="cliff"
     transform="translate(0,64)"
     style="display:inline">
    <path
       style="opacity:1;fill:#803300;fill-opacity:1;stroke:none;stroke-width:0.5001303;stroke-linecap:round;stroke-linejoin:miter;stroke-miterlimit:4;stroke-dasharray:none;stroke-dashoffset:170.07873535;stroke-opacity:1;paint-order:fill markers stroke"
       d="m 94.8,0 h -4.983331 c 0.247163,1.5429758 0.632173,3.1549102 0.65481,4.5855644 0.0392,2.4772323 -0.429495,4.6337587 -1.403165,7.8618186 -0.522073,1.730859 -0.225691,4.287946 -0.841899,7.019482 -0.727344,3.22418 1.841646,6.154529 1.590254,8.984936 -0.08294,0.933789 -0.03811,2.251077 0,3.548199 H 94.8 Z"
       id="rect1571"
       inkscape:connector-curvature="0"
       sodipodi:nodetypes="ccssssccc" />
    <path
       style="display:inline;opacity:1;fill:#803300;fill-opacity:1;stroke:none;stroke-width:0.50013024;stroke-linecap:round;stroke-linejoin:miter;stroke-miterlimit:4;stroke-dasharray:none;stroke-dashoffset:170.07873535;stroke-opacity:1;paint-order:fill markers stroke"
       d="m 94.8,-64 h -4.983331 c 0,0 0.687668,3.700239 0.382804,9.086991 -0.152229,2.689806 -1.340423,7.065929 -1.411792,9.085255 C 88.407668,-35.07558 89.816669,-32 89.816669,-32 H 94.8 Z"
       id="rect1571-3"
       inkscape:connector-curvature="0"
       sodipodi:nodetypes="ccssccc" />
    <path
       style="display:inline;opacity:1;fill:#803300;fill-opacity:1;stroke:none;stroke-width:0.50094038;stroke-linecap:round;stroke-linejoin:miter;stroke-miterlimit:4;stroke-dasharray:none;stroke-dashoffset:170.07873535;stroke-opacity:1;paint-order:fill markers stroke"
       d="m 62.8,0 h -4.999489 c 0,0 -0.03896,5.2308334 0.563086,7.3465622 0.656933,2.3086293 2.426915,4.9218468 2.768506,7.3470568 0.656934,4.664055 -2.767236,8.120214 -2.768506,12.588269 C 58.363222,28.601838 57.800511,32 57.800511,32 H 62.8 Z"
       id="rect1571-6"
       inkscape:connector-curvature="0"
       sodipodi:nodetypes="ccsssccc" />
    <path
       style="display:inline;opacity:1;fill:#803300;fill-opacity:1;stroke:none;stroke-width:0.50014865;stroke-linecap:round;stroke-linejoin:miter;stroke-miterlimit:4;stroke-dasharray:none;stroke-dashoffset:170.07873535;stroke-opacity:1;paint-order:fill markers stroke"
       d="m 30.8,-64 h -4.983699 c 0,0 0.214969,2.834429 0,4.226877 -2.151678,13.937362 0,27.773123 0,27.773123 H 30.8 Z"
       id="rect1571-0"
       inkscape:connector-curvature="0"
       sodipodi:nodetypes="ccsccc" />
    <path
       style="display:inline;opacity:1;fill:#803300;fill-opacity:1;stroke:none;stroke-width:0.50013024;stroke-linecap:round;stroke-linejoin:miter;stroke-miterlimit:4;stroke-dasharray:none;stroke-dashoffset:170.07873535;stroke-opacity:1;paint-order:fill markers stroke"
       d="m 30.8,-32 h -4.983332 c 0,0 1.309621,13.794278 -1.309621,24.1543617 C 23.88135,-5.3707704 25.816668,0 25.816668,0 H 30.8 Z"
       id="rect1571-62"
       inkscape:connector-curvature="0"
       sodipodi:nodetypes="ccsccc" />
    <path
       style="display:inline;opacity:1;fill:#803300;fill-opacity:1;stroke:none;stroke-width:0.50011361;stroke-linecap:round;stroke-linejoin:miter;stroke-miterlimit:4;stroke-dasharray:none;stroke-dashoffset:170.07873535;stroke-opacity:1;paint-order:fill markers stroke"
       d="m 62.8,-64 h -4.983 c 0,0 0.650577,9.196019 1.590148,11.714323 1.038741,2.784105 0.692336,5.766203 0,8.79775 C 58.679622,-40.302291 57.817,-32 57.817,-32 H 62.8 Z"
       id="rect1571-61"
       inkscape:connector-curvature="0"
       sodipodi:nodetypes="ccssccc" />
    <path
       style="display:inline;opacity:1;fill:#803300;fill-opacity:1;stroke:none;stroke-width:0.50096595;stroke-linecap:round;stroke-linejoin:miter;stroke-miterlimit:4;stroke-dasharray:none;stroke-dashoffset:170.07873535;stroke-opacity:1;paint-order:fill markers stroke"
       d="m 30.8,0 h -5 c 0,0 5.60904,8.4141816 3.660431,12.821757 -2.61968,5.92548 1.529153,5.861149 -0.890588,11.870577 C 27.98682,26.140271 25.8,32 25.8,32 h 5 z"
       id="rect1571-8"
       inkscape:connector-curvature="0"
       sodipodi:nodetypes="ccssccc" />
    <path
       style="display:inline;opacity:1;fill:#803300;fill-opacity:1;stroke:none;stroke-width:0.5;stroke-linecap:round;stroke-linejoin:miter;stroke-miterlimit:4;stroke-dasharray:none;stroke-dashoffset:170.07873535;stroke-opacity:1;paint-order:fill markers stroke"
       d="m 62.791666,-31.983334 h -4.983332 c 0,0 -0.250489,5.117985 -1.403165,7.210257 -0.841756,1.527908 -1.189101,6.229351 -0.841899,7.109369 1.112172,2.818915 0.552594,3.812197 0.841899,6.828737 C 56.690587,-7.8589656 57.808334,0 57.808334,0 h 4.983332 z"
       id="rect1571-7"
       inkscape:connector-curvature="0"
       sodipodi:nodetypes="ccsssccc" />
    <path
       style="display:inline;opacity:1;fill:#803300;fill-opacity:1;stroke:none;stroke-width:0.50013024;stroke-linecap:round;stroke-linejoin:miter;stroke-miterlimit:4;stroke-dasharray:none;stroke-dashoffset:170.07873535;stroke-opacity:1;paint-order:fill markers stroke"
       d="m 94.8,-32 h -4.983331 c 0.326376,2.308069 1.417858,4.275914 0.748354,7.026828 -1.140086,4.684481 0.578921,7.495834 0,11.09078 -0.639472,3.9709592 -0.942402,5.6904757 -1.262848,8.6573599 C 89.105371,-3.4029017 89.605452,-0.84771505 89.816669,0 H 94.8 Z"
       id="rect1571-9"
       inkscape:connector-curvature="0"
       sodipodi:nodetypes="ccsssccc" />
  </g>
  <g
     style="display:inline"
     transform="translate(0,64)"
     inkscape:label="details copy"
     id="g1948"
     inkscape:groupmode="layer">
    <g
       transform="matrix(1.6534368,0,0,1.6534368,44.580051,-5.8479066)"
       id="g1910">
      <ellipse
         style="opacity:1;fill:#3771c8;fill-opacity:1;stroke:none;stroke-width:0.09944903;stroke-linecap:round;stroke-linejoin:miter;stroke-miterlimit:4;stroke-dasharray:none;stroke-dashoffset:170.07873535;stroke-opacity:1;paint-order:fill markers stroke"
         id="ellipse1900"
         cx="15.505153"
         cy="10.022491"
         rx="2.8449819"
         ry="1.9203628" />
      <path
         style="display:inline;fill:#c8beb7;stroke:#000000;stroke-width:0.1;stroke-linecap:butt;stroke-linejoin:miter;stroke-miterlimit:4;stroke-dasharray:none;stroke-opacity:1"
         d="M 13.371416,9.9513884 C 14.367113,11.374061 15.639819,11.688704 17.35439,10.235885 17.583961,7.5519296 16.976071,7.6017491 15.931899,6.5374107 14.902564,5.4211262 14.166468,6.9090308 13.513664,7.6754035 13.347127,9.0030615 13.195656,8.6237304 13.371416,9.9513884 Z"
         id="path1902"
         inkscape:connector-curvature="0"
         sodipodi:nodetypes="ccccc" />
      <path
         style="fill:#6c5d53;stroke:none;stroke-width:0.26458332px;stroke-linecap:butt;stroke-linejoin:miter;stroke-opacity:1"
         d="m 13.565408,7.7209264 c 0.120439,0.3437666 0.703975,0.9851895 1.149461,1.3289562 l 0.220755,1.9815314 -0.0665,-1.9715731 C 15.818261,8.9123556 16.436092,8.482764 17.037354,8.0526289 16.276284,8.4403355 15.48236,8.8240395 14.830271,8.8630074 14.434624,8.5972893 13.763886,8.1180903 13.565408,7.7209264 Z"
         id="path1904"
         inkscape:connector-curvature="0"
         sodipodi:nodetypes="ccccccc" />
      <path
         style="fill:#3771c8;stroke:none;stroke-width:0.26458332px;stroke-linecap:butt;stroke-linejoin:miter;stroke-opacity:1"
         d="m 12.909119,11.467019 c 1.002858,1.584739 4.051141,2.203337 5.42557,-0.140317 -0.957073,0.735843 -3.879976,1.721583 -5.42557,0.140317 z"
         id="path1906"
         inkscape:connector-curvature="0"
         sodipodi:nodetypes="ccc" />
      <path
         style="display:inline;fill:#3771c8;stroke:none;stroke-width:0.14472419px;stroke-linecap:butt;stroke-linejoin:miter;stroke-opacity:1"
         d="m 14.499373,13.108023 c 0.300505,0.536106 2.171995,0.684303 2.799769,-0.291724 -0.523509,0.402498 -2.188207,0.782483 -2.799769,0.291724 z"
         id="path1908"
         inkscape:connector-curvature="0"
         sodipodi:nodetypes="ccc" />
    </g>
    <g
       id="g1924"
       transform="translate(26.528151)">
      <path
         style="display:inline;fill:#3771c8;stroke:none;stroke-width:0.26458332px;stroke-linecap:butt;stroke-linejoin:miter;stroke-opacity:1"
         d="m 16.0809,25.214399 c 0.435409,3.100781 7.960351,6.370837 8.765935,-0.454508 -3.337022,0 -5.45644,0.454508 -8.765935,0.454508 z"
         id="path1912"
         inkscape:connector-curvature="0"
         sodipodi:nodetypes="ccc" />
      <path
         style="opacity:1;fill:#5aa02c;fill-opacity:1;stroke:#2d5016;stroke-width:0.2;stroke-linecap:round;stroke-linejoin:miter;stroke-miterlimit:4;stroke-dasharray:none;stroke-dashoffset:170.07873535;stroke-opacity:1;paint-order:fill markers stroke"
         d="m 24.730982,24.503921 a 4.3148789,3.343368 0 0 1 -3.93966,3.330703 4.3148789,3.343368 0 0 1 -4.624839,-2.751434 4.3148789,3.343368 0 0 1 3.135319,-3.809228 4.3148789,3.343368 0 0 1 5.170127,2.088942 l -4.055825,1.141017 z"
         id="path1914"
         inkscape:connector-curvature="0" />
      <path
         style="fill:#5aa02c;stroke:#71c837;stroke-width:0.1;stroke-linecap:butt;stroke-linejoin:miter;stroke-miterlimit:4;stroke-dasharray:none;stroke-opacity:1"
         d="m 22.474026,21.675042 c 0.375919,1.922535 -0.605229,2.533689 -2.011203,2.80633 1.928161,-0.1079 2.914107,0.668336 2.829716,2.397075 -1.253334,-0.319817 -2.821565,-0.159696 -2.864795,-2.315223 0.185004,2.560759 -1.041468,2.360061 -1.88258,2.806331 -0.886629,-1.349885 -0.0694,-2.315697 1.870887,-2.888183 -1.598951,0.76912 -2.860238,1.057313 -4.045793,-0.830204 1.327986,-0.994208 2.818344,-0.213611 4.022407,0.760048 -1.052745,-0.737622 -2.429277,-1.417422 -1.473323,-2.958339 2.313929,0.226748 1.5299,1.77042 1.543481,2.934952 0.0058,-1.630067 0.480102,-2.73872 2.011203,-2.712787 z"
         id="path1916"
         inkscape:connector-curvature="0"
         sodipodi:nodetypes="ccccccccccc" />
      <path
         style="color:#000000;font-style:normal;font-variant:normal;font-weight:normal;font-stretch:normal;font-size:medium;line-height:normal;font-family:sans-serif;font-variant-ligatures:normal;font-variant-position:normal;font-variant-caps:normal;font-variant-numeric:normal;font-variant-alternates:normal;font-feature-settings:normal;text-indent:0;text-align:start;text-decoration:none;text-decoration-line:none;text-decoration-style:solid;text-decoration-color:#000000;letter-spacing:normal;word-spacing:normal;text-transform:none;writing-mode:lr-tb;direction:ltr;text-orientation:mixed;dominant-baseline:auto;baseline-shift:baseline;text-anchor:start;white-space:normal;shape-padding:0;clip-rule:nonzero;display:inline;overflow:visible;visibility:visible;opacity:1;isolation:auto;mix-blend-mode:normal;color-interpolation:sRGB;color-interpolation-filters:linearRGB;solid-color:#000000;solid-opacity:1;vector-effect:none;fill:#2d5016;fill-opacity:1;fill-rule:nonzero;stroke:none;stroke-width:0.2;stroke-linecap:round;stroke-linejoin:miter;stroke-miterlimit:4;stroke-dasharray:none;stroke-dashoffset:170.07873535;stroke-opacity:1;paint-order:fill markers stroke;color-rendering:auto;image-rendering:auto;shape-rendering:auto;text-rendering:auto;enable-background:accumulate"
         d="m 19.28125,21.175781 c -1.100719,0.227989 -2.001421,0.763763 -2.580078,1.466797 -0.578657,0.703034 -0.833795,1.577657 -0.632813,2.462891 0.401964,1.770467 2.461815,2.981567 4.730469,2.828125 2.268654,-0.153444 4.03125,-1.63011 4.03125,-3.429688 v -0.09961 h -0.09961 -3.591797 L 24.61328,23.427733 24.5625,23.320311 c -0.789546,-1.684985 -3.079812,-2.600508 -5.28125,-2.14453 z m 0.04102,0.195313 c 2.0715,-0.429064 4.195175,0.430326 4.982422,1.935547 l -3.916016,1.101562 0.02734,0.195313 h 4.189453 c -0.06767,1.622133 -1.676699,2.985873 -3.820313,3.130859 -2.189619,0.148097 -4.148074,-1.029126 -4.521484,-2.673828 -0.186706,-0.822351 0.0463,-1.628269 0.591797,-2.291016 0.545497,-0.662746 1.405804,-1.178677 2.466797,-1.398437 z"
         id="path1918"
         inkscape:connector-curvature="0" />
      <path
         style="display:inline;fill:#3771c8;stroke:none;stroke-width:0.26458332px;stroke-linecap:butt;stroke-linejoin:miter;stroke-opacity:1"
         d="m 17.203193,27.379329 c 1.075907,2.157755 7.203164,4.583829 7.558903,-1.52802 -1.536899,5.755188 -6.768023,2.296567 -7.558903,1.52802 z"
         id="path1920"
         inkscape:connector-curvature="0"
         sodipodi:nodetypes="ccc" />
      <path
         style="display:inline;fill:#3771c8;stroke:none;stroke-width:0.19762993px;stroke-linecap:butt;stroke-linejoin:miter;stroke-opacity:1"
         d="m 20.834203,29.801851 c 0.580002,0.514345 2.499284,1.414263 3.499433,-1.45208 -1.253226,1.929147 -2.835892,1.632749 -3.499433,1.45208 z"
         id="path1922"
         inkscape:connector-curvature="0"
         sodipodi:nodetypes="ccc" />
    </g>
    <g
       transform="matrix(1.6534368,0,0,1.6534368,19.311675,-61.539751)"
       id="use1926">
      <ellipse
         style="opacity:1;fill:#3771c8;fill-opacity:1;stroke:none;stroke-width:0.09944903;stroke-linecap:round;stroke-linejoin:miter;stroke-miterlimit:4;stroke-dasharray:none;stroke-dashoffset:170.07873535;stroke-opacity:1;paint-order:fill markers stroke"
         id="ellipse1976"
         cx="15.505153"
         cy="10.022491"
         rx="2.8449819"
         ry="1.9203628" />
      <path
         style="display:inline;fill:#c8beb7;stroke:#000000;stroke-width:0.1;stroke-linecap:butt;stroke-linejoin:miter;stroke-miterlimit:4;stroke-dasharray:none;stroke-opacity:1"
         d="M 13.371416,9.9513884 C 14.367113,11.374061 15.639819,11.688704 17.35439,10.235885 17.583961,7.5519296 16.976071,7.6017491 15.931899,6.5374107 14.902564,5.4211262 14.166468,6.9090308 13.513664,7.6754035 13.347127,9.0030615 13.195656,8.6237304 13.371416,9.9513884 Z"
         id="path1978"
         inkscape:connector-curvature="0"
         sodipodi:nodetypes="ccccc" />
      <path
         style="fill:#6c5d53;stroke:none;stroke-width:0.26458332px;stroke-linecap:butt;stroke-linejoin:miter;stroke-opacity:1"
         d="m 13.565408,7.7209264 c 0.120439,0.3437666 0.703975,0.9851895 1.149461,1.3289562 l 0.220755,1.9815314 -0.0665,-1.9715731 C 15.818261,8.9123556 16.436092,8.482764 17.037354,8.0526289 16.276284,8.4403355 15.48236,8.8240395 14.830271,8.8630074 14.434624,8.5972893 13.763886,8.1180903 13.565408,7.7209264 Z"
         id="path1980"
         inkscape:connector-curvature="0"
         sodipodi:nodetypes="ccccccc" />
      <path
         style="fill:#3771c8;stroke:none;stroke-width:0.26458332px;stroke-linecap:butt;stroke-linejoin:miter;stroke-opacity:1"
         d="m 12.909119,11.467019 c 1.002858,1.584739 4.051141,2.203337 5.42557,-0.140317 -0.957073,0.735843 -3.879976,1.721583 -5.42557,0.140317 z"
         id="path1982"
         inkscape:connector-curvature="0"
         sodipodi:nodetypes="ccc" />
      <path
         style="display:inline;fill:#3771c8;stroke:none;stroke-width:0.14472419px;stroke-linecap:butt;stroke-linejoin:miter;stroke-opacity:1"
         d="m 14.499373,13.108023 c 0.300505,0.536106 2.171995,0.684303 2.799769,-0.291724 -0.523509,0.402498 -2.188207,0.782483 -2.799769,0.291724 z"
         id="path1984"
         inkscape:connector-curvature="0"
         sodipodi:nodetypes="ccc" />
    </g>
    <g
       id="use1928"
       transform="translate(55.152717,-45.462547)">
      <path
         style="display:inline;fill:#3771c8;stroke:none;stroke-width:0.26458332px;stroke-linecap:butt;stroke-linejoin:miter;stroke-opacity:1"
         d="m 16.0809,25.214399 c 0.435409,3.100781 7.960351,6.370837 8.765935,-0.454508 -3.337022,0 -5.45644,0.454508 -8.765935,0.454508 z"
         id="path1950"
         inkscape:connector-curvature="0"
         sodipodi:nodetypes="ccc" />
      <path
         style="opacity:1;fill:#5aa02c;fill-opacity:1;stroke:#2d5016;stroke-width:0.2;stroke-linecap:round;stroke-linejoin:miter;stroke-miterlimit:4;stroke-dasharray:none;stroke-dashoffset:170.07873535;stroke-opacity:1;paint-order:fill markers stroke"
         d="m 24.730982,24.503921 a 4.3148789,3.343368 0 0 1 -3.93966,3.330703 4.3148789,3.343368 0 0 1 -4.624839,-2.751434 4.3148789,3.343368 0 0 1 3.135319,-3.809228 4.3148789,3.343368 0 0 1 5.170127,2.088942 l -4.055825,1.141017 z"
         id="path1952"
         inkscape:connector-curvature="0" />
      <path
         style="fill:#5aa02c;stroke:#71c837;stroke-width:0.1;stroke-linecap:butt;stroke-linejoin:miter;stroke-miterlimit:4;stroke-dasharray:none;stroke-opacity:1"
         d="m 22.474026,21.675042 c 0.375919,1.922535 -0.605229,2.533689 -2.011203,2.80633 1.928161,-0.1079 2.914107,0.668336 2.829716,2.397075 -1.253334,-0.319817 -2.821565,-0.159696 -2.864795,-2.315223 0.185004,2.560759 -1.041468,2.360061 -1.88258,2.806331 -0.886629,-1.349885 -0.0694,-2.315697 1.870887,-2.888183 -1.598951,0.76912 -2.860238,1.057313 -4.045793,-0.830204 1.327986,-0.994208 2.818344,-0.213611 4.022407,0.760048 -1.052745,-0.737622 -2.429277,-1.417422 -1.473323,-2.958339 2.313929,0.226748 1.5299,1.77042 1.543481,2.934952 0.0058,-1.630067 0.480102,-2.73872 2.011203,-2.712787 z"
         id="path1954"
         inkscape:connector-curvature="0"
         sodipodi:nodetypes="ccccccccccc" />
      <path
         style="color:#000000;font-style:normal;font-variant:normal;font-weight:normal;font-stretch:normal;font-size:medium;line-height:normal;font-family:sans-serif;font-variant-ligatures:normal;font-variant-position:normal;font-variant-caps:normal;font-variant-numeric:normal;font-variant-alternates:normal;font-feature-settings:normal;text-indent:0;text-align:start;text-decoration:none;text-decoration-line:none;text-decoration-style:solid;text-decoration-color:#000000;letter-spacing:normal;word-spacing:normal;text-transform:none;writing-mode:lr-tb;direction:ltr;text-orientation:mixed;dominant-baseline:auto;baseline-shift:baseline;text-anchor:start;white-space:normal;shape-padding:0;clip-rule:nonzero;display:inline;overflow:visible;visibility:visible;opacity:1;isolation:auto;mix-blend-mode:normal;color-interpolation:sRGB;color-interpolation-filters:linearRGB;solid-color:#000000;solid-opacity:1;vector-effect:none;fill:#2d5016;fill-opacity:1;fill-rule:nonzero;stroke:none;stroke-width:0.2;stroke-linecap:round;stroke-linejoin:miter;stroke-miterlimit:4;stroke-dasharray:none;stroke-dashoffset:170.07873535;stroke-opacity:1;paint-order:fill markers stroke;color-rendering:auto;image-rendering:auto;shape-rendering:auto;text-rendering:auto;enable-background:accumulate"
         d="m 19.28125,21.175781 c -1.100719,0.227989 -2.001421,0.763763 -2.580078,1.466797 -0.578657,0.703034 -0.833795,1.577657 -0.632813,2.462891 0.401964,1.770467 2.461815,2.981567 4.730469,2.828125 2.268654,-0.153444 4.03125,-1.63011 4.03125,-3.429688 v -0.09961 h -0.09961 -3.591797 L 24.61328,23.427733 24.5625,23.320311 c -0.789546,-1.684985 -3.079812,-2.600508 -5.28125,-2.14453 z m 0.04102,0.195313 c 2.0715,-0.429064 4.195175,0.430326 4.982422,1.935547 l -3.916016,1.101562 0.02734,0.195313 h 4.189453 c -0.06767,1.622133 -1.676699,2.985873 -3.820313,3.130859 -2.189619,0.148097 -4.148074,-1.029126 -4.521484,-2.673828 -0.186706,-0.822351 0.0463,-1.628269 0.591797,-2.291016 0.545497,-0.662746 1.405804,-1.178677 2.466797,-1.398437 z"
         id="path1956"
         inkscape:connector-curvature="0" />
      <path
         style="display:inline;fill:#3771c8;stroke:none;stroke-width:0.26458332px;stroke-linecap:butt;stroke-linejoin:miter;stroke-opacity:1"
         d="m 17.203193,27.379329 c 1.075907,2.157755 7.203164,4.583829 7.558903,-1.52802 -1.536899,5.755188 -6.768023,2.296567 -7.558903,1.52802 z"
         id="path1958"
         inkscape:connector-curvature="0"
         sodipodi:nodetypes="ccc" />
      <path
         style="display:inline;fill:#3771c8;stroke:none;stroke-width:0.19762993px;stroke-linecap:butt;stroke-linejoin:miter;stroke-opacity:1"
         d="m 20.834203,29.801851 c 0.580002,0.514345 2.499284,1.414263 3.499433,-1.45208 -1.253226,1.929147 -2.835892,1.632749 -3.499433,1.45208 z"
         id="path1960"
         inkscape:connector-curvature="0"
         sodipodi:nodetypes="ccc" />
    </g>
    <path
       sodipodi:nodetypes="ccssssccc"
       inkscape:connector-curvature="0"
       id="path1930"
       d="m 96,0 h -4.983331 c 0.247163,1.5429758 0.632173,3.1549102 0.65481,4.5855644 0.0392,2.4772323 -0.429495,4.6337587 -1.403165,7.8618186 -0.522073,1.730859 -0.225691,4.287946 -0.841899,7.019482 -0.727344,3.22418 1.841646,6.154529 1.590254,8.984936 -0.08294,0.933789 -0.03811,2.251077 0,3.548199 H 96 Z"
       style="opacity:1;fill:#bcd35f;fill-opacity:1;stroke:none;stroke-width:0.5001303;stroke-linecap:round;stroke-linejoin:miter;stroke-miterlimit:4;stroke-dasharray:none;stroke-dashoffset:170.07873535;stroke-opacity:1;paint-order:fill markers stroke" />
    <path
       sodipodi:nodetypes="ccssccc"
       inkscape:connector-curvature="0"
       id="path1932"
       d="m 96,-64 h -4.983331 c 0,0 0.687668,3.700239 0.382804,9.086991 -0.15223,2.689806 -1.340423,7.065929 -1.411792,9.085255 C 89.607668,-35.07558 91.016669,-32 91.016669,-32 H 96 Z"
       style="display:inline;opacity:1;fill:#bcd35f;fill-opacity:1;stroke:none;stroke-width:0.50013024;stroke-linecap:round;stroke-linejoin:miter;stroke-miterlimit:4;stroke-dasharray:none;stroke-dashoffset:170.07873535;stroke-opacity:1;paint-order:fill markers stroke" />
    <path
       sodipodi:nodetypes="ccsssccc"
       inkscape:connector-curvature="0"
       id="path1934"
       d="m 64,0 h -4.999489 c 0,0 -0.03896,5.2308334 0.563086,7.3465622 0.656933,2.3086293 2.426915,4.9218468 2.768506,7.3470568 0.656934,4.664055 -2.767236,8.120214 -2.768506,12.588269 C 59.563222,28.601838 59.000511,32 59.000511,32 H 64 Z"
       style="display:inline;opacity:1;fill:#bcd35f;fill-opacity:1;stroke:none;stroke-width:0.50094038;stroke-linecap:round;stroke-linejoin:miter;stroke-miterlimit:4;stroke-dasharray:none;stroke-dashoffset:170.07873535;stroke-opacity:1;paint-order:fill markers stroke" />
    <path
       sodipodi:nodetypes="ccsccc"
       inkscape:connector-curvature="0"
       id="path1936"
       d="m 32,-64 h -4.983699 c 0,0 0.214969,2.834429 0,4.226877 -2.151678,13.937362 0,27.773123 0,27.773123 H 32 Z"
       style="display:inline;opacity:1;fill:#bcd35f;fill-opacity:1;stroke:none;stroke-width:0.50014865;stroke-linecap:round;stroke-linejoin:miter;stroke-miterlimit:4;stroke-dasharray:none;stroke-dashoffset:170.07873535;stroke-opacity:1;paint-order:fill markers stroke" />
    <path
       sodipodi:nodetypes="ccsccc"
       inkscape:connector-curvature="0"
       id="path1938"
       d="m 32,-32 h -4.983332 c 0,0 1.309621,13.794278 -1.309621,24.1543617 C 25.08135,-5.3707704 27.016668,0 27.016668,0 H 32 Z"
       style="display:inline;opacity:1;fill:#bcd35f;fill-opacity:1;stroke:none;stroke-width:0.50013024;stroke-linecap:round;stroke-linejoin:miter;stroke-miterlimit:4;stroke-dasharray:none;stroke-dashoffset:170.07873535;stroke-opacity:1;paint-order:fill markers stroke" />
    <path
       sodipodi:nodetypes="ccssccc"
       inkscape:connector-curvature="0"
       id="path1940"
       d="m 64,-64 h -4.983 c 0,0 0.650577,9.196019 1.590148,11.714323 1.038741,2.784105 0.692336,5.766203 0,8.79775 C 59.879622,-40.302291 59.017,-32 59.017,-32 H 64 Z"
       style="display:inline;opacity:1;fill:#bcd35f;fill-opacity:1;stroke:none;stroke-width:0.50011361;stroke-linecap:round;stroke-linejoin:miter;stroke-miterlimit:4;stroke-dasharray:none;stroke-dashoffset:170.07873535;stroke-opacity:1;paint-order:fill markers stroke" />
    <path
       sodipodi:nodetypes="ccssccc"
       inkscape:connector-curvature="0"
       id="path1942"
       d="m 32,0 h -5 c 0,0 5.60904,8.4141816 3.660431,12.821757 -2.61968,5.92548 1.529153,5.861149 -0.890588,11.870577 C 29.18682,26.140271 27,32 27,32 h 5 z"
       style="display:inline;opacity:1;fill:#bcd35f;fill-opacity:1;stroke:none;stroke-width:0.50096595;stroke-linecap:round;stroke-linejoin:miter;stroke-miterlimit:4;stroke-dasharray:none;stroke-dashoffset:170.07873535;stroke-opacity:1;paint-order:fill markers stroke" />
    <path
       sodipodi:nodetypes="ccsssccc"
       inkscape:connector-curvature="0"
       id="path1944"
       d="m 63.991666,-31.983334 h -4.983332 c 0,0 -0.250489,5.117985 -1.403165,7.210257 -0.841756,1.527908 -1.189101,6.229351 -0.841899,7.109369 1.112172,2.818915 0.552594,3.812197 0.841899,6.828737 C 57.890587,-7.8589656 59.008334,0 59.008334,0 h 4.983332 z"
       style="display:inline;opacity:1;fill:#bcd35f;fill-opacity:1;stroke:none;stroke-width:0.5;stroke-linecap:round;stroke-linejoin:miter;stroke-miterlimit:4;stroke-dasharray:none;stroke-dashoffset:170.07873535;stroke-opacity:1;paint-order:fill markers stroke" />
    <path
       sodipodi:nodetypes="ccsssccc"
       inkscape:connector-curvature="0"
       id="path1946"
       d="m 96,-32 h -4.983331 c 0.326376,2.308069 1.417858,4.275914 0.748354,7.026828 -1.140086,4.684481 0.57892,7.495834 0,11.09078 -0.639472,3.9709592 -0.942402,5.6904757 -1.262848,8.6573599 C 90.305371,-3.4029017 90.805452,-0.84771505 91.016669,0 H 96 Z"
       style="display:inline;opacity:1;fill:#bcd35f;fill-opacity:1;stroke:none;stroke-width:0.50013024;stroke-linecap:round;stroke-linejoin:miter;stroke-miterlimit:4;stroke-dasharray:none;stroke-dashoffset:170.07873535;stroke-opacity:1;paint-order:fill markers stroke" />
  </g>
  <g
     inkscape:groupmode="layer"
     id="layer3"
     inkscape:label="details 1"
     style="display:inline">
    <path
       style="color:#000000;font-style:normal;font-variant:normal;font-weight:normal;font-stretch:normal;font-size:medium;line-height:normal;font-family:sans-serif;font-variant-ligatures:normal;font-variant-position:normal;font-variant-caps:normal;font-variant-numeric:normal;font-variant-alternates:normal;font-feature-settings:normal;text-indent:0;text-align:start;text-decoration:none;text-decoration-line:none;text-decoration-style:solid;text-decoration-color:#000000;letter-spacing:normal;word-spacing:normal;text-transform:none;writing-mode:lr-tb;direction:ltr;text-orientation:mixed;dominant-baseline:auto;baseline-shift:baseline;text-anchor:start;white-space:normal;shape-padding:0;clip-rule:nonzero;display:inline;overflow:visible;visibility:visible;opacity:1;isolation:auto;mix-blend-mode:normal;color-interpolation:sRGB;color-interpolation-filters:linearRGB;solid-color:#000000;solid-opacity:1;vector-effect:none;fill:#000000;fill-opacity:1;fill-rule:nonzero;stroke:none;stroke-width:0.5;stroke-linecap:round;stroke-linejoin:miter;stroke-miterlimit:4;stroke-dasharray:none;stroke-dashoffset:170.07873535;stroke-opacity:1;paint-order:fill markers stroke;color-rendering:auto;image-rendering:auto;shape-rendering:auto;text-rendering:auto;enable-background:accumulate"
       d="m 91.1,64 c 0.244797,1.442886 0.79222,3.208191 0.814062,4.587891 0.03973,2.509776 -0.437906,4.698974 -1.414062,7.933593 -0.494836,1.639703 -0.210515,4.218454 -0.837891,6.998047 -0.346173,1.533722 0.09199,3.018589 0.609375,4.5 0.517383,1.481411 1.119344,2.950434 0.986328,4.447266 C 91.182948,93.309247 91.064418,94.791705 91.1,96 h -0.35 c -0.03809,-1.29566 -0.07571,-2.61431 0.0098,-3.576172 0.118377,-1.332101 -0.438509,-2.742423 -0.960938,-4.238281 -0.522428,-1.495858 -1.006171,-3.086611 -0.625,-4.775391 0.605046,-2.680633 0.298351,-5.212991 0.847662,-7.033203 0.971183,-3.218141 1.43124,-5.339142 1.392578,-7.78125 C 91.392088,67.207681 90.999278,65.555363 90.75,64 Z"
       id="rect1571-89"
       inkscape:connector-curvature="0"
       sodipodi:nodetypes="cssssscccsssscc" />
    <path
       style="color:#000000;font-style:normal;font-variant:normal;font-weight:normal;font-stretch:normal;font-size:medium;line-height:normal;font-family:sans-serif;font-variant-ligatures:normal;font-variant-position:normal;font-variant-caps:normal;font-variant-numeric:normal;font-variant-alternates:normal;font-feature-settings:normal;text-indent:0;text-align:start;text-decoration:none;text-decoration-line:none;text-decoration-style:solid;text-decoration-color:#000000;letter-spacing:normal;word-spacing:normal;text-transform:none;writing-mode:lr-tb;direction:ltr;text-orientation:mixed;dominant-baseline:auto;baseline-shift:baseline;text-anchor:start;white-space:normal;shape-padding:0;clip-rule:nonzero;display:inline;overflow:visible;visibility:visible;opacity:1;isolation:auto;mix-blend-mode:normal;color-interpolation:sRGB;color-interpolation-filters:linearRGB;solid-color:#000000;solid-opacity:1;vector-effect:none;fill:#000000;fill-opacity:1;fill-rule:nonzero;stroke:none;stroke-width:0.5;stroke-linecap:round;stroke-linejoin:miter;stroke-miterlimit:4;stroke-dasharray:none;stroke-dashoffset:170.07873535;stroke-opacity:1;paint-order:fill markers stroke;color-rendering:auto;image-rendering:auto;shape-rendering:auto;text-rendering:auto;enable-background:accumulate"
       d="m 90.75,32 c 0,0 -0.339071,-0.723231 -0.646484,-2.853516 -0.307414,-2.130284 -0.563469,-5.599341 -0.373047,-10.984375 0.03719,-1.051731 0.354799,-2.646899 0.679687,-4.328125 0.324888,-1.681225 0.655997,-3.442624 0.730469,-4.7578121 C 91.443924,3.719863 90.75,0 90.75,0 h 0.35 c 0.334057,0.40125256 0.829276,4.0078476 0.540625,9.1054688 -0.07776,1.3732162 -0.415126,3.1418522 -0.740234,4.8242192 -0.325109,1.682366 -0.637697,3.283456 -0.671875,4.25 -0.189592,5.36154 0.06901,8.803135 0.371093,10.896484 C 90.886148,31.061797 91.068244,31.92821 91.1,32"
       id="rect1571-3-7"
       inkscape:connector-curvature="0"
       sodipodi:nodetypes="cssssccssssc" />
    <path
       style="color:#000000;font-style:normal;font-variant:normal;font-weight:normal;font-stretch:normal;font-size:medium;line-height:normal;font-family:sans-serif;font-variant-ligatures:normal;font-variant-position:normal;font-variant-caps:normal;font-variant-numeric:normal;font-variant-alternates:normal;font-feature-settings:normal;text-indent:0;text-align:start;text-decoration:none;text-decoration-line:none;text-decoration-style:solid;text-decoration-color:#000000;letter-spacing:normal;word-spacing:normal;text-transform:none;writing-mode:lr-tb;direction:ltr;text-orientation:mixed;dominant-baseline:auto;baseline-shift:baseline;text-anchor:start;white-space:normal;shape-padding:0;clip-rule:nonzero;display:inline;overflow:visible;visibility:visible;opacity:1;isolation:auto;mix-blend-mode:normal;color-interpolation:sRGB;color-interpolation-filters:linearRGB;solid-color:#000000;solid-opacity:1;vector-effect:none;fill:#000000;fill-opacity:1;fill-rule:nonzero;stroke:none;stroke-width:0.5;stroke-linecap:round;stroke-linejoin:miter;stroke-miterlimit:4;stroke-dasharray:none;stroke-dashoffset:170.07873535;stroke-opacity:1;paint-order:fill markers stroke;color-rendering:auto;image-rendering:auto;shape-rendering:auto;text-rendering:auto;enable-background:accumulate"
       d="m 59.1,64 c -9.47e-4,0.198633 0.155072,1.447737 0.214452,2.876953 0.06502,1.564582 0.211205,3.402354 0.496094,4.40625 0.636139,2.241635 2.412031,4.859701 2.765625,7.376953 0.336911,2.39849 -0.372523,4.477593 -1.146484,6.488282 -0.773962,2.010688 -1.608761,3.957762 -1.609376,6.126953 -1.39e-4,0.695025 -0.142416,1.869073 -0.283203,2.886718 C 59.41821,95.02154 59.134084,95.790288 59.1,96 h -0.35 c 0,0 0.151238,-0.895883 0.291018,-1.90625 0.13978,-1.010367 0.279172,-2.194122 0.279296,-2.818359 6.51e-4,-2.296536 0.873374,-4.308312 1.642579,-6.306641 0.769204,-1.998329 1.437039,-3.977096 1.11914,-6.240234 -0.32738,-2.33064 -2.080427,-4.935377 -2.753906,-7.308594 C 59.01292,70.309192 58.880041,68.474613 58.814455,66.896484 58.748865,65.318355 58.75,64 58.75,64 Z"
       id="rect1571-6-3"
       inkscape:connector-curvature="0"
       sodipodi:nodetypes="ccssscsccscsssccc" />
    <path
       style="color:#000000;font-style:normal;font-variant:normal;font-weight:normal;font-stretch:normal;font-size:medium;line-height:normal;font-family:sans-serif;font-variant-ligatures:normal;font-variant-position:normal;font-variant-caps:normal;font-variant-numeric:normal;font-variant-alternates:normal;font-feature-settings:normal;text-indent:0;text-align:start;text-decoration:none;text-decoration-line:none;text-decoration-style:solid;text-decoration-color:#000000;letter-spacing:normal;word-spacing:normal;text-transform:none;writing-mode:lr-tb;direction:ltr;text-orientation:mixed;dominant-baseline:auto;baseline-shift:baseline;text-anchor:start;white-space:normal;shape-padding:0;clip-rule:nonzero;display:inline;overflow:visible;visibility:visible;opacity:1;isolation:auto;mix-blend-mode:normal;color-interpolation:sRGB;color-interpolation-filters:linearRGB;solid-color:#000000;solid-opacity:1;vector-effect:none;fill:#000000;fill-opacity:1;fill-rule:nonzero;stroke:none;stroke-width:0.5;stroke-linecap:round;stroke-linejoin:miter;stroke-miterlimit:4;stroke-dasharray:none;stroke-dashoffset:170.07873535;stroke-opacity:1;paint-order:fill markers stroke;color-rendering:auto;image-rendering:auto;shape-rendering:auto;text-rendering:auto;enable-background:accumulate"
       d="m 27.1,0 c 0.02382,0.31459418 0.368297,2.8960321 0.15581,4.2714844 C 25.138125,17.982539 27.04922,31.669004 27.1,32 h -0.35 c 0,0 -2.147446,-13.825071 0.01172,-27.8046875 C 26.965023,2.8790158 26.75,0 26.75,0"
       id="rect1571-0-6"
       inkscape:connector-curvature="0"
       sodipodi:nodetypes="ccccsc" />
    <path
       style="color:#000000;font-style:normal;font-variant:normal;font-weight:normal;font-stretch:normal;font-size:medium;line-height:normal;font-family:sans-serif;font-variant-ligatures:normal;font-variant-position:normal;font-variant-caps:normal;font-variant-numeric:normal;font-variant-alternates:normal;font-feature-settings:normal;text-indent:0;text-align:start;text-decoration:none;text-decoration-line:none;text-decoration-style:solid;text-decoration-color:#000000;letter-spacing:normal;word-spacing:normal;text-transform:none;writing-mode:lr-tb;direction:ltr;text-orientation:mixed;dominant-baseline:auto;baseline-shift:baseline;text-anchor:start;white-space:normal;shape-padding:0;clip-rule:nonzero;display:inline;overflow:visible;visibility:visible;opacity:1;isolation:auto;mix-blend-mode:normal;color-interpolation:sRGB;color-interpolation-filters:linearRGB;solid-color:#000000;solid-opacity:1;vector-effect:none;fill:#000000;fill-opacity:1;fill-rule:nonzero;stroke:none;stroke-width:0.5;stroke-linecap:round;stroke-linejoin:miter;stroke-miterlimit:4;stroke-dasharray:none;stroke-dashoffset:170.07873535;stroke-opacity:1;paint-order:fill markers stroke;color-rendering:auto;image-rendering:auto;shape-rendering:auto;text-rendering:auto;enable-background:accumulate"
       d="m 27.1,32 c 0.04185,0.447639 1.4345,13.959625 -1.158594,24.210938 -0.287278,1.1357 0.01781,3.091576 0.419922,4.728515 C 26.741207,62.485869 27.051486,63.863883 27.1,64 h -0.35 c 0,0 -0.463925,-1.275963 -0.873044,-2.941406 C 25.467838,59.393151 25.118615,57.425769 25.457034,56.087891 28.058477,45.803558 26.75,32 26.75,32"
       id="rect1571-62-1"
       inkscape:connector-curvature="0"
       sodipodi:nodetypes="cscccssc" />
    <path
       style="color:#000000;font-style:normal;font-variant:normal;font-weight:normal;font-stretch:normal;font-size:medium;line-height:normal;font-family:sans-serif;font-variant-ligatures:normal;font-variant-position:normal;font-variant-caps:normal;font-variant-numeric:normal;font-variant-alternates:normal;font-feature-settings:normal;text-indent:0;text-align:start;text-decoration:none;text-decoration-line:none;text-decoration-style:solid;text-decoration-color:#000000;letter-spacing:normal;word-spacing:normal;text-transform:none;writing-mode:lr-tb;direction:ltr;text-orientation:mixed;dominant-baseline:auto;baseline-shift:baseline;text-anchor:start;white-space:normal;shape-padding:0;clip-rule:nonzero;display:inline;overflow:visible;visibility:visible;opacity:1;isolation:auto;mix-blend-mode:normal;color-interpolation:sRGB;color-interpolation-filters:linearRGB;solid-color:#000000;solid-opacity:1;vector-effect:none;fill:#000000;fill-opacity:1;fill-rule:nonzero;stroke:none;stroke-width:0.5;stroke-linecap:round;stroke-linejoin:miter;stroke-miterlimit:4;stroke-dasharray:none;stroke-dashoffset:170.07873535;stroke-opacity:1;paint-order:fill markers stroke;color-rendering:auto;image-rendering:auto;shape-rendering:auto;text-rendering:auto;enable-background:accumulate"
       d="m 59.1,0 c 0.01663,0.23113247 0.334928,2.4276701 0.599219,4.8925781 0.279546,2.6071812 0.691255,5.5535299 1.132812,6.7363279 1.065639,2.854515 0.706046,5.888524 0.0098,8.935547 C 60.142937,23.622918 59.140236,31.617036 59.1,32 h -0.35 c 0,0 0.866443,-8.312776 1.605472,-11.546875 0.688485,-3.012913 1.021751,-5.937642 0.0098,-8.648437 C 59.867197,10.470494 59.483835,7.5629943 59.203163,4.9453125 58.922491,2.3276307 58.75,0 58.75,0"
       id="rect1571-61-2"
       inkscape:connector-curvature="0"
       sodipodi:nodetypes="csccccscsc" />
    <path
       style="color:#000000;font-style:normal;font-variant:normal;font-weight:normal;font-stretch:normal;font-size:medium;line-height:normal;font-family:sans-serif;font-variant-ligatures:normal;font-variant-position:normal;font-variant-caps:normal;font-variant-numeric:normal;font-variant-alternates:normal;font-feature-settings:normal;text-indent:0;text-align:start;text-decoration:none;text-decoration-line:none;text-decoration-style:solid;text-decoration-color:#000000;letter-spacing:normal;word-spacing:normal;text-transform:none;writing-mode:lr-tb;direction:ltr;text-orientation:mixed;dominant-baseline:auto;baseline-shift:baseline;text-anchor:start;white-space:normal;shape-padding:0;clip-rule:nonzero;display:inline;overflow:visible;visibility:visible;opacity:1;isolation:auto;mix-blend-mode:normal;color-interpolation:sRGB;color-interpolation-filters:linearRGB;solid-color:#000000;solid-opacity:1;vector-effect:none;fill:#000000;fill-opacity:1;fill-rule:nonzero;stroke:none;stroke-width:0.5;stroke-linecap:round;stroke-linejoin:miter;stroke-miterlimit:4;stroke-dasharray:none;stroke-dashoffset:170.07873535;stroke-opacity:1;paint-order:fill markers stroke;color-rendering:auto;image-rendering:auto;shape-rendering:auto;text-rendering:auto;enable-background:accumulate"
       d="m 27.1,64 c 0.199941,0.306216 1.618554,2.204654 2.689062,4.664062 1.164991,2.676473 2.126167,5.922377 1.095704,8.259766 -1.285956,2.916927 -0.911169,4.261593 -0.50586,5.734375 C 30.784215,84.130985 31.224131,85.732539 30,88.78125 29.451739,90.146701 27.284131,95.505529 27.1,96 h -0.35 c 0,0 2.199673,-5.943231 2.787109,-7.40625 1.187543,-2.957588 0.765912,-4.325492 0.359375,-5.802734 -0.406536,-1.477243 -0.793739,-3.062893 0.53125,-6.06836 0.911651,-2.067889 0.04895,-5.229628 -1.095703,-7.859375 C 28.187379,66.233534 26.75,64 26.75,64 Z"
       id="rect1571-8-9"
       inkscape:connector-curvature="0"
       sodipodi:nodetypes="cssssccsssscc" />
    <path
       style="color:#000000;font-style:normal;font-variant:normal;font-weight:normal;font-stretch:normal;font-size:medium;line-height:normal;font-family:sans-serif;font-variant-ligatures:normal;font-variant-position:normal;font-variant-caps:normal;font-variant-numeric:normal;font-variant-alternates:normal;font-feature-settings:normal;text-indent:0;text-align:start;text-decoration:none;text-decoration-line:none;text-decoration-style:solid;text-decoration-color:#000000;letter-spacing:normal;word-spacing:normal;text-transform:none;writing-mode:lr-tb;direction:ltr;text-orientation:mixed;dominant-baseline:auto;baseline-shift:baseline;text-anchor:start;white-space:normal;shape-padding:0;clip-rule:nonzero;display:inline;overflow:visible;visibility:visible;opacity:1;isolation:auto;mix-blend-mode:normal;color-interpolation:sRGB;color-interpolation-filters:linearRGB;solid-color:#000000;solid-opacity:1;vector-effect:none;fill:#000000;fill-opacity:1;fill-rule:nonzero;stroke:none;stroke-width:0.5;stroke-linecap:round;stroke-linejoin:miter;stroke-miterlimit:4;stroke-dasharray:none;stroke-dashoffset:170.07873535;stroke-opacity:1;paint-order:fill markers stroke;color-rendering:auto;image-rendering:auto;shape-rendering:auto;text-rendering:auto;enable-background:accumulate"
       d="m 58.75,64 c 0,0 -1.107187,-7.824199 -1.394534,-10.820312 -0.146364,-1.526114 -0.07863,-2.541852 -0.113281,-3.501954 -0.03465,-0.960101 -0.163784,-1.870996 -0.710938,-3.257812 -0.119914,-0.303935 -0.14722,-0.757432 -0.150391,-1.357422 -0.0032,-0.59999 0.03426,-1.32628 0.109375,-2.072266 0.150229,-1.49197 0.430325,-3.046431 0.896485,-3.892578 0.53846,-0.97738 0.900301,-2.773182 1.105469,-4.302734 C 58.697352,33.26537 58.757809,32 58.757809,32 H 59.1 c -0.01014,0.190235 0.07724,1.438062 -0.113672,2.861328 -0.208246,1.552508 -0.547891,3.363624 -1.162109,4.478516 -0.375596,0.681761 -0.690808,2.240439 -0.837891,3.701172 -0.07354,0.730366 -0.108517,1.440795 -0.105469,2.017578 0.003,0.576783 0.06155,1.041659 0.115235,1.177734 0.565019,1.432098 0.710166,2.428425 0.746094,3.423828 0.03593,0.995403 -0.03161,1.982229 0.111328,3.472656 C 58.131381,56.030056 59.057253,63.698893 59.1,64"
       id="rect1571-7-3"
       inkscape:connector-curvature="0"
       sodipodi:nodetypes="cscccssscccscccccc" />
    <path
       style="color:#000000;font-style:normal;font-variant:normal;font-weight:normal;font-stretch:normal;font-size:medium;line-height:normal;font-family:sans-serif;font-variant-ligatures:normal;font-variant-position:normal;font-variant-caps:normal;font-variant-numeric:normal;font-variant-alternates:normal;font-feature-settings:normal;text-indent:0;text-align:start;text-decoration:none;text-decoration-line:none;text-decoration-style:solid;text-decoration-color:#000000;letter-spacing:normal;word-spacing:normal;text-transform:none;writing-mode:lr-tb;direction:ltr;text-orientation:mixed;dominant-baseline:auto;baseline-shift:baseline;text-anchor:start;white-space:normal;shape-padding:0;clip-rule:nonzero;display:inline;overflow:visible;visibility:visible;opacity:1;isolation:auto;mix-blend-mode:normal;color-interpolation:sRGB;color-interpolation-filters:linearRGB;solid-color:#000000;solid-opacity:1;vector-effect:none;fill:#000000;fill-opacity:1;fill-rule:nonzero;stroke:none;stroke-width:0.5;stroke-linecap:round;stroke-linejoin:miter;stroke-miterlimit:4;stroke-dasharray:none;stroke-dashoffset:170.07873535;stroke-opacity:1;paint-order:fill markers stroke;color-rendering:auto;image-rendering:auto;shape-rendering:auto;text-rendering:auto;enable-background:accumulate"
       d="m 91.1,32 c 0.365401,2.137632 1.561267,4.374189 0.9,7.089844 -0.56049,2.301788 -0.418944,4.132625 -0.205078,5.861328 0.213866,1.728702 0.506254,3.360072 0.208984,5.205078 -0.639641,3.969943 -0.941972,5.68176 -1.261719,8.640625 C 90.561014,60.47342 90.881833,63.074677 91.1,64 h -0.35 c -0.217334,-0.871816 -0.708252,-3.366837 -0.503906,-5.257812 0.321146,-2.971813 0.624369,-4.698177 1.263672,-8.666016 0.28165,-1.748068 0.0049,-3.31748 -0.210938,-5.0625 -0.215885,-1.745021 -0.364752,-3.660761 0.214844,-6.041016 C 92.161914,36.31049 91.084445,34.363897 90.75,32"
       id="rect1571-9-1"
       inkscape:connector-curvature="0"
       sodipodi:nodetypes="cssssccssssc" />
  </g>
</svg>
