<?xml version="1.0" encoding="UTF-8" standalone="no"?>
<!-- Created with Inkscape (http://www.inkscape.org/) -->

<svg
   xmlns:dc="http://purl.org/dc/elements/1.1/"
   xmlns:cc="http://creativecommons.org/ns#"
   xmlns:rdf="http://www.w3.org/1999/02/22-rdf-syntax-ns#"
   xmlns:svg="http://www.w3.org/2000/svg"
   xmlns="http://www.w3.org/2000/svg"
   xmlns:xlink="http://www.w3.org/1999/xlink"
   xmlns:sodipodi="http://sodipodi.sourceforge.net/DTD/sodipodi-0.dtd"
   xmlns:inkscape="http://www.inkscape.org/namespaces/inkscape"
   width="96mm"
   height="96mm"
   viewBox="0 0 96 96"
   version="1.1"
   id="svg8"
   inkscape:version="0.92.2 5c3e80d, 2017-08-06"
   sodipodi:docname="8.svg">
  <defs
     id="defs2" />
  <sodipodi:namedview
     id="base"
     pagecolor="#ffffff"
     bordercolor="#666666"
     borderopacity="1.0"
     inkscape:pageopacity="0.0"
     inkscape:pageshadow="2"
     inkscape:zoom="22.627416"
     inkscape:cx="125.8441"
     inkscape:cy="327.69228"
     inkscape:document-units="mm"
     inkscape:current-layer="layer6"
     showgrid="true"
     showguides="true"
     inkscape:window-width="1678"
     inkscape:window-height="1029"
     inkscape:window-x="1"
     inkscape:window-y="516"
     inkscape:window-maximized="0"
     inkscape:snap-global="false">
    <inkscape:grid
       type="xygrid"
       id="grid882"
       units="mm"
       spacingx="31.999999"
       spacingy="31.999999" />
  </sodipodi:namedview>
  <metadata
     id="metadata5">
    <rdf:RDF>
      <cc:Work
         rdf:about="">
        <dc:format>image/svg+xml</dc:format>
        <dc:type
           rdf:resource="http://purl.org/dc/dcmitype/StillImage" />
        <dc:title></dc:title>
      </cc:Work>
    </rdf:RDF>
  </metadata>
  <g
     inkscape:groupmode="layer"
     id="layer5"
     inkscape:label="background"
     sodipodi:insensitive="true">
    <rect
       style="display:inline;opacity:1;fill:#5f8dd3;fill-opacity:1;stroke:none;stroke-width:9.41215611;stroke-linejoin:bevel;stroke-miterlimit:4;stroke-dasharray:none;stroke-dashoffset:0;stroke-opacity:1"
       id="rect4504"
       width="96"
       height="96"
       x="0"
       y="0"
       transform="matrix(0,1,1,0,0,0)" />
  </g>
  <g
     inkscape:groupmode="layer"
     id="layer6"
     inkscape:label="grass"
     style="display:inline">
    <path
       style="display:inline;opacity:1;fill:#bcd35f;fill-opacity:1;stroke:none;stroke-width:0.5;stroke-linecap:round;stroke-linejoin:miter;stroke-miterlimit:4;stroke-dasharray:none;stroke-dashoffset:170.07873535;stroke-opacity:1;paint-order:fill markers stroke"
       d="M -1.2844006e-4,-1.1287e-4 V 4.9830453 32 H 4.9830298 c 0,0 1.2959972,-7.53133 5.2627282,-17.532262 C 12.912887,9.0550341 13.525109,7.6733083 16.716681,6.8061898 27.993466,3.9911828 31.999985,4.9830453 31.999985,4.9830453 V -1.1287e-4 H 4.9830298 Z"
       id="path1932"
       inkscape:connector-curvature="0"
       sodipodi:nodetypes="cccccccccc" />
    <path
       style="display:inline;opacity:1;fill:#bcd35f;fill-opacity:1;stroke:none;stroke-width:0.5;stroke-linecap:round;stroke-linejoin:miter;stroke-miterlimit:4;stroke-dasharray:none;stroke-dashoffset:170.07873535;stroke-opacity:1;paint-order:fill markers stroke"
       d="M 0,31.999887 V 36.983045 64 h 4.9831583 c 0,0 -1.8105418,-6.046235 0.3679363,-16.341637 C 6.6002453,41.754926 15.760664,41.341665 18.965767,40.525982 30.229552,37.659404 32.000113,36.983045 32.000113,36.983045 V 31.999887 H 4.9831583 Z"
       id="path1932-5"
       inkscape:connector-curvature="0"
       sodipodi:nodetypes="ccccsscccc" />
    <path
       style="display:inline;opacity:1;fill:#bcd35f;fill-opacity:1;stroke:none;stroke-width:0.5;stroke-linecap:round;stroke-linejoin:miter;stroke-miterlimit:4;stroke-dasharray:none;stroke-dashoffset:170.07873535;stroke-opacity:1;paint-order:fill markers stroke"
       d="M 64,63.999887 V 68.983046 96 h 4.983158 c 0,0 -4.088123,-4.902368 -0.912499,-13.549029 0.317269,-0.863867 0.06455,-6.541431 0.486685,-7.422816 2.606477,-5.442172 8.967893,-3.354846 12.159465,-4.221965 3.129608,-0.781239 0.01071,-4.708853 2.090155,-5.006249 5.413333,-0.774199 13.193149,3.183105 13.193149,3.183105 V 63.999887 H 68.983158 Z"
       id="path1932-4"
       inkscape:connector-curvature="0"
       sodipodi:nodetypes="ccccsscscccc" />
    <path
       style="display:inline;opacity:1;fill:#bcd35f;fill-opacity:1;stroke:none;stroke-width:0.5;stroke-linecap:round;stroke-linejoin:miter;stroke-miterlimit:4;stroke-dasharray:none;stroke-dashoffset:170.07873535;stroke-opacity:1;paint-order:fill markers stroke"
       d="M 64,31.999887 V 36.983046 64 h 4.983158 c 0,0 -0.745484,-6.283863 0.799143,-11.444382 0.781385,-2.610563 3.03476,-2.768034 4.463585,-6.08788 2.385476,-5.542603 3.662695,-5.126073 6.867798,-5.941756 11.263785,-2.866579 14.886429,-3.542936 14.886429,-3.542936 V 31.999887 H 68.983158 Z"
       id="path1932-7"
       inkscape:connector-curvature="0"
       sodipodi:nodetypes="ccccssscccc" />
    <path
       style="display:inline;opacity:1;fill:#bcd35f;fill-opacity:1;stroke:none;stroke-width:0.5;stroke-linecap:round;stroke-linejoin:miter;stroke-miterlimit:4;stroke-dasharray:none;stroke-dashoffset:170.07873535;stroke-opacity:1;paint-order:fill markers stroke"
       d="M 32,-1.13e-4 V 4.983046 32 h 4.983158 c 0,0 1.295998,-7.53133 5.262728,-17.532262 C 44.913016,9.055034 45.525237,7.673309 48.716809,6.80619 59.993593,3.991183 64.000113,4.983046 64.000113,4.983046 V -1.13e-4 H 36.983158 Z"
       id="path1932-44"
       inkscape:connector-curvature="0"
       sodipodi:nodetypes="cccccccccc" />
    <path
       style="display:inline;opacity:1;fill:#bcd35f;fill-opacity:1;stroke:none;stroke-width:0.5;stroke-linecap:round;stroke-linejoin:miter;stroke-miterlimit:4;stroke-dasharray:none;stroke-dashoffset:170.07873535;stroke-opacity:1;paint-order:fill markers stroke"
       d="M 64,-1.13e-4 V 4.983046 32 h 4.983158 c 0,0 -3.123581,-13.982904 -1.219564,-24.411429 C 68.010862,6.2342507 72.328239,3.0497307 80.584517,1.7791064 92.072102,0.01119072 96.000113,4.983046 96.000113,4.983046 V -1.13e-4 H 68.983158 Z"
       id="path1932-3"
       inkscape:connector-curvature="0"
       sodipodi:nodetypes="ccccsscccc" />
    <path
       style="display:inline;opacity:1;fill:#bcd35f;fill-opacity:1;stroke:none;stroke-width:0.5;stroke-linecap:round;stroke-linejoin:miter;stroke-miterlimit:4;stroke-dasharray:none;stroke-dashoffset:170.07873535;stroke-opacity:1;paint-order:fill markers stroke"
       d="m 32.045,63.999653 v 4.983159 27.016954 h 4.983158 c 0,0 1.230843,-2.382778 2.769945,-7.526406 0.782921,-2.616499 -1.132569,-9.878271 2.492783,-10.005856 7.317331,-0.257514 6.503545,-3.311661 6.470923,-7.661548 -0.02153,-2.871366 5.128172,-1.158556 7.075862,-1.461666 5.936025,-0.923795 8.207442,-0.361478 8.207442,-0.361478 V 63.999653 H 37.028158 Z"
       id="path1932-0"
       inkscape:connector-curvature="0"
       sodipodi:nodetypes="ccccsssscccc" />
    <path
       style="display:inline;opacity:1;fill:#bcd35f;fill-opacity:1;stroke:none;stroke-width:0.5;stroke-linecap:round;stroke-linejoin:miter;stroke-miterlimit:4;stroke-dasharray:none;stroke-dashoffset:170.07873535;stroke-opacity:1;paint-order:fill markers stroke"
       d="m 0,63.999827 v 4.983159 27.016954 h 4.9831583 c 0,0 3.8336583,-4.423054 4.5234046,-11.3592 C 9.755563,82.136777 3.2526725,76.343039 4.2927607,74.102053 6.8330665,68.628681 15.245029,69.821166 18.436601,68.954047 c 11.276784,-2.815007 13.563512,0.02894 13.563512,0.02894 V 63.999827 H 4.9831583 Z"
       id="path1932-78"
       inkscape:connector-curvature="0"
       sodipodi:nodetypes="ccccssccccc" />
    <path
       style="display:inline;opacity:1;fill:#bcd35f;fill-opacity:1;stroke:none;stroke-width:0.5;stroke-linecap:round;stroke-linejoin:miter;stroke-miterlimit:4;stroke-dasharray:none;stroke-dashoffset:170.07873535;stroke-opacity:1;paint-order:fill markers stroke"
       d="M 32,31.999887 V 36.983046 64 h 4.983158 c 0,0 1.009426,-0.506052 5.262728,-10.388512 2.385476,-5.542603 5.382487,-8.433365 8.58759,-9.249048 11.263785,-2.866578 13.166637,-7.379394 13.166637,-7.379394 V 31.999887 H 36.983158 Z"
       id="path1932-6"
       inkscape:connector-curvature="0"
       sodipodi:nodetypes="ccccsscccc" />
    <g
       id="use4581"
       style="display:inline"
       transform="matrix(0.99998894,0,0,1.0000395,-1.4708572,29.634598)">
      <path
         sodipodi:nodetypes="ccc"
         inkscape:connector-curvature="0"
         id="path3635"
         d="M 7.726239,11.728478 C 10.298977,11.50653 11.748145,8.4506522 12.658664,5.1787364 9.4708713,5.2666865 7.8918063,7.7400044 7.726239,11.728478 Z"
         style="fill:#cdde87;fill-opacity:1;fill-rule:evenodd;stroke:none;stroke-width:0.40300986px;stroke-linecap:butt;stroke-linejoin:miter;stroke-opacity:1" />
      <path
         sodipodi:nodetypes="ccc"
         inkscape:connector-curvature="0"
         id="path3637"
         d="M 7.726239,11.728478 C 5.2196468,10.249759 4.4980827,10.501173 3.5875637,7.2292572 6.775357,7.3172073 7.957547,7.2108377 7.726239,11.728478 Z"
         style="fill:#cdde87;fill-opacity:1;fill-rule:evenodd;stroke:none;stroke-width:0.40300986px;stroke-linecap:butt;stroke-linejoin:miter;stroke-opacity:1" />
    </g>
    <use
       x="0"
       y="0"
       xlink:href="#use4581"
       id="use3641"
       transform="translate(31.750001,10.980209)"
       width="100%"
       height="100%" />
    <use
       x="0"
       y="0"
       xlink:href="#use3641"
       id="use3643"
       transform="translate(14.155209,-11.641667)"
       width="100%"
       height="100%" />
    <use
       x="0"
       y="0"
       xlink:href="#use3643"
       id="use3645"
       transform="translate(17.727084,4.2333335)"
       width="100%"
       height="100%" />
    <use
       x="0"
       y="0"
       xlink:href="#use3645"
       id="use3647"
       transform="translate(-63.764586,-35.851043)"
       width="100%"
       height="100%" />
    <use
       x="0"
       y="0"
       xlink:href="#use3647"
       id="use3649"
       transform="translate(32.940626,64.558336)"
       width="100%"
       height="100%" />
    <use
       x="0"
       y="0"
       xlink:href="#use3649"
       id="use3651"
       transform="translate(30.427085,-2.3812501)"
       width="100%"
       height="100%" />
  </g>
  <g
     inkscape:groupmode="layer"
     id="layer3"
     inkscape:label="details &amp; borders"
     style="display:inline">
    <g
       style="display:inline"
       transform="matrix(1.6534368,0,0,1.6534368,0.72688916,9.1113205)"
       id="g1910">
      <ellipse
         style="opacity:1;fill:#3771c8;fill-opacity:1;stroke:none;stroke-width:0.09944903;stroke-linecap:round;stroke-linejoin:miter;stroke-miterlimit:4;stroke-dasharray:none;stroke-dashoffset:170.07873535;stroke-opacity:1;paint-order:fill markers stroke"
         id="ellipse1900"
         cx="15.505153"
         cy="10.022491"
         rx="2.8449819"
         ry="1.9203628" />
      <path
         style="display:inline;fill:#c8beb7;stroke:#000000;stroke-width:0.1;stroke-linecap:butt;stroke-linejoin:miter;stroke-miterlimit:4;stroke-dasharray:none;stroke-opacity:1"
         d="M 13.371416,9.9513884 C 14.367113,11.374061 15.639819,11.688704 17.35439,10.235885 17.583961,7.5519296 16.976071,7.6017491 15.931899,6.5374107 14.902564,5.4211262 14.166468,6.9090308 13.513664,7.6754035 13.347127,9.0030615 13.195656,8.6237304 13.371416,9.9513884 Z"
         id="path1902"
         inkscape:connector-curvature="0"
         sodipodi:nodetypes="ccccc" />
      <path
         style="fill:#6c5d53;stroke:none;stroke-width:0.26458332px;stroke-linecap:butt;stroke-linejoin:miter;stroke-opacity:1"
         d="m 13.565408,7.7209264 c 0.120439,0.3437666 0.703975,0.9851895 1.149461,1.3289562 l 0.220755,1.9815314 -0.0665,-1.9715731 C 15.818261,8.9123556 16.436092,8.482764 17.037354,8.0526289 16.276284,8.4403355 15.48236,8.8240395 14.830271,8.8630074 14.434624,8.5972893 13.763886,8.1180903 13.565408,7.7209264 Z"
         id="path1904"
         inkscape:connector-curvature="0"
         sodipodi:nodetypes="ccccccc" />
      <path
         style="fill:#3771c8;stroke:none;stroke-width:0.26458332px;stroke-linecap:butt;stroke-linejoin:miter;stroke-opacity:1"
         d="m 12.909119,11.467019 c 1.002858,1.584739 4.051141,2.203337 5.42557,-0.140317 -0.957073,0.735843 -3.879976,1.721583 -5.42557,0.140317 z"
         id="path1906"
         inkscape:connector-curvature="0"
         sodipodi:nodetypes="ccc" />
      <path
         style="display:inline;fill:#3771c8;stroke:none;stroke-width:0.14472419px;stroke-linecap:butt;stroke-linejoin:miter;stroke-opacity:1"
         d="m 14.499373,13.108023 c 0.300505,0.536106 2.171995,0.684303 2.799769,-0.291724 -0.523509,0.402498 -2.188207,0.782483 -2.799769,0.291724 z"
         id="path1908"
         inkscape:connector-curvature="0"
         sodipodi:nodetypes="ccc" />
    </g>
    <g
       style="display:inline"
       id="use1928"
       transform="translate(-2.638781,31.759569)">
      <path
         style="display:inline;fill:#3771c8;stroke:none;stroke-width:0.26458332px;stroke-linecap:butt;stroke-linejoin:miter;stroke-opacity:1"
         d="m 16.0809,25.214399 c 0.435409,3.100781 7.960351,6.370837 8.765935,-0.454508 -3.337022,0 -5.45644,0.454508 -8.765935,0.454508 z"
         id="path1950"
         inkscape:connector-curvature="0"
         sodipodi:nodetypes="ccc" />
      <path
         style="opacity:1;fill:#5aa02c;fill-opacity:1;stroke:#2d5016;stroke-width:0.2;stroke-linecap:round;stroke-linejoin:miter;stroke-miterlimit:4;stroke-dasharray:none;stroke-dashoffset:170.07873535;stroke-opacity:1;paint-order:fill markers stroke"
         d="m 24.730982,24.503921 a 4.3148789,3.343368 0 0 1 -3.93966,3.330703 4.3148789,3.343368 0 0 1 -4.624839,-2.751434 4.3148789,3.343368 0 0 1 3.135319,-3.809228 4.3148789,3.343368 0 0 1 5.170127,2.088942 l -4.055825,1.141017 z"
         id="path1952"
         inkscape:connector-curvature="0" />
      <path
         style="fill:#5aa02c;stroke:#71c837;stroke-width:0.1;stroke-linecap:butt;stroke-linejoin:miter;stroke-miterlimit:4;stroke-dasharray:none;stroke-opacity:1"
         d="m 22.474026,21.675042 c 0.375919,1.922535 -0.605229,2.533689 -2.011203,2.80633 1.928161,-0.1079 2.914107,0.668336 2.829716,2.397075 -1.253334,-0.319817 -2.821565,-0.159696 -2.864795,-2.315223 0.185004,2.560759 -1.041468,2.360061 -1.88258,2.806331 -0.886629,-1.349885 -0.0694,-2.315697 1.870887,-2.888183 -1.598951,0.76912 -2.860238,1.057313 -4.045793,-0.830204 1.327986,-0.994208 2.818344,-0.213611 4.022407,0.760048 -1.052745,-0.737622 -2.429277,-1.417422 -1.473323,-2.958339 2.313929,0.226748 1.5299,1.77042 1.543481,2.934952 0.0058,-1.630067 0.480102,-2.73872 2.011203,-2.712787 z"
         id="path1954"
         inkscape:connector-curvature="0"
         sodipodi:nodetypes="ccccccccccc" />
      <path
         style="color:#000000;font-style:normal;font-variant:normal;font-weight:normal;font-stretch:normal;font-size:medium;line-height:normal;font-family:sans-serif;font-variant-ligatures:normal;font-variant-position:normal;font-variant-caps:normal;font-variant-numeric:normal;font-variant-alternates:normal;font-feature-settings:normal;text-indent:0;text-align:start;text-decoration:none;text-decoration-line:none;text-decoration-style:solid;text-decoration-color:#000000;letter-spacing:normal;word-spacing:normal;text-transform:none;writing-mode:lr-tb;direction:ltr;text-orientation:mixed;dominant-baseline:auto;baseline-shift:baseline;text-anchor:start;white-space:normal;shape-padding:0;clip-rule:nonzero;display:inline;overflow:visible;visibility:visible;opacity:1;isolation:auto;mix-blend-mode:normal;color-interpolation:sRGB;color-interpolation-filters:linearRGB;solid-color:#000000;solid-opacity:1;vector-effect:none;fill:#2d5016;fill-opacity:1;fill-rule:nonzero;stroke:none;stroke-width:0.2;stroke-linecap:round;stroke-linejoin:miter;stroke-miterlimit:4;stroke-dasharray:none;stroke-dashoffset:170.07873535;stroke-opacity:1;paint-order:fill markers stroke;color-rendering:auto;image-rendering:auto;shape-rendering:auto;text-rendering:auto;enable-background:accumulate"
         d="m 19.28125,21.175781 c -1.100719,0.227989 -2.001421,0.763763 -2.580078,1.466797 -0.578657,0.703034 -0.833795,1.577657 -0.632813,2.462891 0.401964,1.770467 2.461815,2.981567 4.730469,2.828125 2.268654,-0.153444 4.03125,-1.63011 4.03125,-3.429688 v -0.09961 h -0.09961 -3.591797 L 24.61328,23.427733 24.5625,23.320311 c -0.789546,-1.684985 -3.079812,-2.600508 -5.28125,-2.14453 z m 0.04102,0.195313 c 2.0715,-0.429064 4.195175,0.430326 4.982422,1.935547 l -3.916016,1.101562 0.02734,0.195313 h 4.189453 c -0.06767,1.622133 -1.676699,2.985873 -3.820313,3.130859 -2.189619,0.148097 -4.148074,-1.029126 -4.521484,-2.673828 -0.186706,-0.822351 0.0463,-1.628269 0.591797,-2.291016 0.545497,-0.662746 1.405804,-1.178677 2.466797,-1.398437 z"
         id="path1956"
         inkscape:connector-curvature="0" />
      <path
         style="display:inline;fill:#3771c8;stroke:none;stroke-width:0.26458332px;stroke-linecap:butt;stroke-linejoin:miter;stroke-opacity:1"
         d="m 17.203193,27.379329 c 1.075907,2.157755 7.203164,4.583829 7.558903,-1.52802 -1.536899,5.755188 -6.768023,2.296567 -7.558903,1.52802 z"
         id="path1958"
         inkscape:connector-curvature="0"
         sodipodi:nodetypes="ccc" />
      <path
         style="display:inline;fill:#3771c8;stroke:none;stroke-width:0.19762993px;stroke-linecap:butt;stroke-linejoin:miter;stroke-opacity:1"
         d="m 20.834203,29.801851 c 0.580002,0.514345 2.499284,1.414263 3.499433,-1.45208 -1.253226,1.929147 -2.835892,1.632749 -3.499433,1.45208 z"
         id="path1960"
         inkscape:connector-curvature="0"
         sodipodi:nodetypes="ccc" />
    </g>
    <path
       style="color:#000000;font-style:normal;font-variant:normal;font-weight:normal;font-stretch:normal;font-size:medium;line-height:normal;font-family:sans-serif;font-variant-ligatures:normal;font-variant-position:normal;font-variant-caps:normal;font-variant-numeric:normal;font-variant-alternates:normal;font-feature-settings:normal;text-indent:0;text-align:start;text-decoration:none;text-decoration-line:none;text-decoration-style:solid;text-decoration-color:#000000;letter-spacing:normal;word-spacing:normal;text-transform:none;writing-mode:lr-tb;direction:ltr;text-orientation:mixed;dominant-baseline:auto;baseline-shift:baseline;text-anchor:start;white-space:normal;shape-padding:0;clip-rule:nonzero;display:inline;overflow:visible;visibility:visible;opacity:1;isolation:auto;mix-blend-mode:normal;color-interpolation:sRGB;color-interpolation-filters:linearRGB;solid-color:#000000;solid-opacity:1;vector-effect:none;fill:#000000;fill-opacity:1;fill-rule:nonzero;stroke:none;stroke-width:0.5;stroke-linecap:round;stroke-linejoin:miter;stroke-miterlimit:4;stroke-dasharray:none;stroke-dashoffset:170.07873535;stroke-opacity:1;paint-order:fill markers stroke;color-rendering:auto;image-rendering:auto;shape-rendering:auto;text-rendering:auto;enable-background:accumulate"
       d="m 5.23034,32 c 0,0 1.2911795,-7.457907 5.246094,-17.431641 1.329658,-2.698511 2.150793,-4.390731 3.00586,-5.4824215 C 14.338917,7.9922603 15.215808,7.4726859 16.783075,7.046875 22.404118,5.6441216 26.207376,5.1908927 28.597528,5.0878906 30.988689,4.9848451 32,5.2265625 32,5.2265625 v -0.5 C 31.826759,4.6894699 30.790641,4.4944072 28.576044,4.5898438 26.144749,4.6946188 22.307959,5.1535936 16.656122,6.5644531 h -0.002 -0.0039 c -1.624305,0.4413076 -2.648337,1.0457493 -3.5625,2.2128907 -0.914164,1.1671413 -1.733218,2.8744892 -3.066407,5.5800782 l -0.0039,0.0098 -0.0039,0.0078 C 6.1195989,24.192422 4.8359824,31.697605 4.783,32 Z"
       id="path1932-8"
       inkscape:connector-curvature="0"
       sodipodi:nodetypes="ccscsccscccsccccc" />
    <path
       style="color:#000000;font-style:normal;font-variant:normal;font-weight:normal;font-stretch:normal;font-size:medium;line-height:normal;font-family:sans-serif;font-variant-ligatures:normal;font-variant-position:normal;font-variant-caps:normal;font-variant-numeric:normal;font-variant-alternates:normal;font-feature-settings:normal;text-indent:0;text-align:start;text-decoration:none;text-decoration-line:none;text-decoration-style:solid;text-decoration-color:#000000;letter-spacing:normal;word-spacing:normal;text-transform:none;writing-mode:lr-tb;direction:ltr;text-orientation:mixed;dominant-baseline:auto;baseline-shift:baseline;text-anchor:start;white-space:normal;shape-padding:0;clip-rule:nonzero;display:inline;overflow:visible;visibility:visible;opacity:1;isolation:auto;mix-blend-mode:normal;color-interpolation:sRGB;color-interpolation-filters:linearRGB;solid-color:#000000;solid-opacity:1;vector-effect:none;fill:#000000;fill-opacity:1;fill-rule:nonzero;stroke:none;stroke-width:0.5;stroke-linecap:round;stroke-linejoin:miter;stroke-miterlimit:4;stroke-dasharray:none;stroke-dashoffset:170.07873535;stroke-opacity:1;paint-order:fill markers stroke;color-rendering:auto;image-rendering:auto;shape-rendering:auto;text-rendering:auto;enable-background:accumulate"
       d="m 5.2210087,63.928201 c 0,0 -1.7955203,-5.970189 0.3730469,-16.21875 0.5991983,-2.831789 3.0972196,-4.3558 5.9082024,-5.287109 2.810984,-0.93131 5.875497,-1.234905 7.523438,-1.654297 11.266825,-2.867351 13.0625,-3.550782 13.0625,-3.550782 l -0.339844,-0.421875 c -0.04423,0.01671 -1.72549,0.658243 -12.845703,3.488282 -1.557163,0.396289 -4.673851,0.708962 -7.556641,1.664062 -2.8827896,0.9551 -5.5902817,2.586553 -6.2402339,5.658203 -2.1078878,9.961793 -0.5319129,15.713113 -0.4101563,16.144531 z"
       id="path1932-5-8"
       inkscape:connector-curvature="0"
       sodipodi:nodetypes="csssccssscc" />
    <path
       style="color:#000000;font-style:normal;font-variant:normal;font-weight:normal;font-stretch:normal;font-size:medium;line-height:normal;font-family:sans-serif;font-variant-ligatures:normal;font-variant-position:normal;font-variant-caps:normal;font-variant-numeric:normal;font-variant-alternates:normal;font-feature-settings:normal;text-indent:0;text-align:start;text-decoration:none;text-decoration-line:none;text-decoration-style:solid;text-decoration-color:#000000;letter-spacing:normal;word-spacing:normal;text-transform:none;writing-mode:lr-tb;direction:ltr;text-orientation:mixed;dominant-baseline:auto;baseline-shift:baseline;text-anchor:start;white-space:normal;shape-padding:0;clip-rule:nonzero;display:inline;overflow:visible;visibility:visible;opacity:1;isolation:auto;mix-blend-mode:normal;color-interpolation:sRGB;color-interpolation-filters:linearRGB;solid-color:#000000;solid-opacity:1;vector-effect:none;fill:#000000;fill-opacity:1;fill-rule:nonzero;stroke:none;stroke-width:0.5;stroke-linecap:round;stroke-linejoin:miter;stroke-miterlimit:4;stroke-dasharray:none;stroke-dashoffset:170.07873535;stroke-opacity:1;paint-order:fill markers stroke;color-rendering:auto;image-rendering:auto;shape-rendering:auto;text-rendering:auto;enable-background:accumulate"
       d="m 95.75,68.609375 c -0.277986,-0.138865 -1.805669,-0.916604 -4.236328,-1.744141 -2.639264,-0.898558 -5.959809,-1.710426 -8.742188,-1.3125 -0.302437,0.04325 -0.54726,0.163924 -0.710937,0.351563 -0.163677,0.187639 -0.237575,0.421978 -0.265625,0.664062 -0.0561,0.484169 0.05015,1.033779 0.113281,1.582032 0.06313,0.548252 0.08386,1.085038 -0.07031,1.498047 -0.154173,0.413008 -0.456464,0.73499 -1.181641,0.916015 h -0.002 -0.0039 c -1.506252,0.409234 -3.905651,0.117122 -6.261719,0.388672 -2.356069,0.27155 -4.713798,1.16302 -6.056641,3.966797 -0.154898,0.323416 -0.19327,0.82632 -0.234375,1.503906 -0.04111,0.677586 -0.05763,1.498921 -0.07227,2.31836 -0.01463,0.819438 -0.0274,1.636878 -0.05469,2.298828 -0.02729,0.661949 -0.0897,1.201521 -0.134765,1.324218 -1.605052,4.370272 -1.377461,7.816721 -0.740235,10.167969 0.497066,1.834083 1.120175,2.786654 1.427735,3.216797 l 0.652389,0.08984 c 0,0 -0.984726,-1.175899 -1.597656,-3.4375 -0.61293,-2.261601 -0.84401,-5.588846 0.726563,-9.865235 0.113572,-0.309236 0.138266,-0.803462 0.166015,-1.476562 0.02775,-0.6731 0.04008,-1.492438 0.05469,-2.310547 0.01461,-0.818109 0.03212,-1.635032 0.07227,-2.296875 0.04015,-0.661843 0.129378,-1.19913 0.185547,-1.316406 1.263634,-2.638395 3.389911,-3.425391 5.664063,-3.6875 2.273405,-0.262023 4.648764,0.05488 6.333984,-0.402344 h 0.002 c 0.835356,-0.210408 1.315832,-0.67174 1.521485,-1.222656 0.20622,-0.552436 0.165069,-1.161989 0.09961,-1.730469 -0.06546,-0.56848 -0.155031,-1.106482 -0.113281,-1.466797 0.02087,-0.180157 0.07048,-0.307404 0.146484,-0.394531 0.076,-0.08713 0.186875,-0.154452 0.404297,-0.185547 2.630954,-0.37627 5.907741,0.404471 8.511719,1.291016 2.603977,0.886544 4.533203,1.867187 4.533203,1.867187 z"
       id="path1932-4-4"
       inkscape:connector-curvature="0"
       sodipodi:nodetypes="cscsscccccscccscsccsscsscsccscccsscc" />
    <path
       style="color:#000000;font-style:normal;font-variant:normal;font-weight:normal;font-stretch:normal;font-size:medium;line-height:normal;font-family:sans-serif;font-variant-ligatures:normal;font-variant-position:normal;font-variant-caps:normal;font-variant-numeric:normal;font-variant-alternates:normal;font-feature-settings:normal;text-indent:0;text-align:start;text-decoration:none;text-decoration-line:none;text-decoration-style:solid;text-decoration-color:#000000;letter-spacing:normal;word-spacing:normal;text-transform:none;writing-mode:lr-tb;direction:ltr;text-orientation:mixed;dominant-baseline:auto;baseline-shift:baseline;text-anchor:start;white-space:normal;shape-padding:0;clip-rule:nonzero;display:inline;overflow:visible;visibility:visible;opacity:1;isolation:auto;mix-blend-mode:normal;color-interpolation:sRGB;color-interpolation-filters:linearRGB;solid-color:#000000;solid-opacity:1;vector-effect:none;fill:#000000;fill-opacity:1;fill-rule:nonzero;stroke:none;stroke-width:0.5;stroke-linecap:round;stroke-linejoin:miter;stroke-miterlimit:4;stroke-dasharray:none;stroke-dashoffset:170.07873535;stroke-opacity:1;paint-order:fill markers stroke;color-rendering:auto;image-rendering:auto;shape-rendering:auto;text-rendering:auto;enable-background:accumulate"
       d="m 95.75,36.785156 c -0.09942,0.01871 -3.585227,0.670086 -14.697266,3.498047 -1.585002,0.403375 -2.740918,0.502161 -3.820312,1.234375 -1.079395,0.732214 -2.016755,2.06329 -3.216797,4.851563 -0.696113,1.617405 -1.575488,2.444913 -2.414063,3.224609 -0.838574,0.779696 -1.649368,1.523421 -2.058593,2.890625 C 68.033476,57.527511 68.671075,63.313754 68.720703,63.75 l 0.509769,0.220703 c 0,0 -0.731289,-6.25781 0.791015,-11.34375 0.372158,-1.24336 1.079256,-1.884374 1.919922,-2.666015 0.840666,-0.781642 1.800492,-1.692091 2.533203,-3.394532 1.185434,-2.75433 2.082203,-3.985673 3.039063,-4.634765 0.95686,-0.649093 2.042009,-0.751756 3.662109,-1.164063 11.260476,-2.865738 14.871091,-3.539062 14.871091,-3.539062 z"
       id="path1932-7-3"
       inkscape:connector-curvature="0"
       sodipodi:nodetypes="csssscccssssscc" />
    <path
       style="color:#000000;font-style:normal;font-variant:normal;font-weight:normal;font-stretch:normal;font-size:medium;line-height:normal;font-family:sans-serif;font-variant-ligatures:normal;font-variant-position:normal;font-variant-caps:normal;font-variant-numeric:normal;font-variant-alternates:normal;font-feature-settings:normal;text-indent:0;text-align:start;text-decoration:none;text-decoration-line:none;text-decoration-style:solid;text-decoration-color:#000000;letter-spacing:normal;word-spacing:normal;text-transform:none;writing-mode:lr-tb;direction:ltr;text-orientation:mixed;dominant-baseline:auto;baseline-shift:baseline;text-anchor:start;white-space:normal;shape-padding:0;clip-rule:nonzero;display:inline;overflow:visible;visibility:visible;opacity:1;isolation:auto;mix-blend-mode:normal;color-interpolation:sRGB;color-interpolation-filters:linearRGB;solid-color:#000000;solid-opacity:1;vector-effect:none;fill:#000000;fill-opacity:1;fill-rule:nonzero;stroke:none;stroke-width:0.5;stroke-linecap:round;stroke-linejoin:miter;stroke-miterlimit:4;stroke-dasharray:none;stroke-dashoffset:170.07873535;stroke-opacity:1;paint-order:fill markers stroke;color-rendering:auto;image-rendering:auto;shape-rendering:auto;text-rendering:auto;enable-background:accumulate"
       d="M 63.75,4.7265625 C 63.576759,4.6894699 62.790768,4.4944073 60.576172,4.5898438 58.144877,4.6946186 54.308087,5.1535934 48.65625,6.5644531 h -0.002 -0.0039 c -1.624305,0.4413078 -2.648337,1.0457495 -3.5625,2.2128907 -0.914164,1.1671411 -1.733218,2.8744892 -3.066407,5.5800782 l -0.0039,0.0098 -0.0039,0.0078 c -3.893916,9.8174 -5.177457,17.072583 -5.23044,17.374978 l 0.447266,0.292969 c 0,0 1.291179,-7.500876 5.246093,-17.47461 1.329658,-2.698511 2.150794,-4.390731 3.00586,-5.4824215 0.856622,-1.0936771 1.733515,-1.6132514 3.300781,-2.0390625 5.621042,-1.4027536 9.424301,-1.8559825 11.814453,-1.9589844 2.391161,-0.1030453 3.341797,0.1386719 3.341797,0.1386719 z"
       id="path1932-44-1"
       inkscape:connector-curvature="0"
       sodipodi:nodetypes="cscccsccccccscscc" />
    <path
       style="color:#000000;font-style:normal;font-variant:normal;font-weight:normal;font-stretch:normal;font-size:medium;line-height:normal;font-family:sans-serif;font-variant-ligatures:normal;font-variant-position:normal;font-variant-caps:normal;font-variant-numeric:normal;font-variant-alternates:normal;font-feature-settings:normal;text-indent:0;text-align:start;text-decoration:none;text-decoration-line:none;text-decoration-style:solid;text-decoration-color:#000000;letter-spacing:normal;word-spacing:normal;text-transform:none;writing-mode:lr-tb;direction:ltr;text-orientation:mixed;dominant-baseline:auto;baseline-shift:baseline;text-anchor:start;white-space:normal;shape-padding:0;clip-rule:nonzero;display:inline;overflow:visible;visibility:visible;opacity:1;isolation:auto;mix-blend-mode:normal;color-interpolation:sRGB;color-interpolation-filters:linearRGB;solid-color:#000000;solid-opacity:1;vector-effect:none;fill:#000000;fill-opacity:1;fill-rule:nonzero;stroke:none;stroke-width:0.5;stroke-linecap:round;stroke-linejoin:miter;stroke-miterlimit:4;stroke-dasharray:none;stroke-dashoffset:170.07873535;stroke-opacity:1;paint-order:fill markers stroke;color-rendering:auto;image-rendering:auto;shape-rendering:auto;text-rendering:auto;enable-background:accumulate"
       d="M 95.75,4.40625 C 95.32033,3.9766609 94.493954,3.2476722 92.697266,2.4882812 90.234717,1.4474572 86.329724,0.64128145 80.546875,1.53125 76.394178,2.1703416 73.225917,3.2922038 71.054688,4.4316406 69.969073,5.001359 69.132112,5.5742597 68.542969,6.1015625 67.953825,6.6288653 67.599374,7.094966 67.517578,7.5429688 65.632977,17.865146 68.579122,31.252137 68.689453,31.75 l 0.537109,0.195312 c 0,0 -3.105046,-13.970342 -1.216796,-24.3124995 0.04184,-0.2291574 0.319269,-0.6677987 0.867187,-1.1582031 0.547918,-0.4904044 1.353484,-1.0470328 2.410156,-1.6015625 2.113345,-1.1090595 5.232357,-2.2161237 9.335938,-2.8476563 5.704736,-0.8779471 9.505553,-0.079297 11.878906,0.9238282 2.373353,1.0031247 3.302734,2.1894531 3.302735,2.1894531 z"
       id="path1932-3-4"
       inkscape:connector-curvature="0"
       sodipodi:nodetypes="cssssccccsssscc" />
    <path
       style="color:#000000;font-style:normal;font-variant:normal;font-weight:normal;font-stretch:normal;font-size:medium;line-height:normal;font-family:sans-serif;font-variant-ligatures:normal;font-variant-position:normal;font-variant-caps:normal;font-variant-numeric:normal;font-variant-alternates:normal;font-feature-settings:normal;text-indent:0;text-align:start;text-decoration:none;text-decoration-line:none;text-decoration-style:solid;text-decoration-color:#000000;letter-spacing:normal;word-spacing:normal;text-transform:none;writing-mode:lr-tb;direction:ltr;text-orientation:mixed;dominant-baseline:auto;baseline-shift:baseline;text-anchor:start;white-space:normal;shape-padding:0;clip-rule:nonzero;display:inline;overflow:visible;visibility:visible;opacity:1;isolation:auto;mix-blend-mode:normal;color-interpolation:sRGB;color-interpolation-filters:linearRGB;solid-color:#000000;solid-opacity:1;vector-effect:none;fill:#000000;fill-opacity:1;fill-rule:nonzero;stroke:none;stroke-width:0.5;stroke-linecap:round;stroke-linejoin:miter;stroke-miterlimit:4;stroke-dasharray:none;stroke-dashoffset:170.07873535;stroke-opacity:1;paint-order:fill markers stroke;color-rendering:auto;image-rendering:auto;shape-rendering:auto;text-rendering:auto;enable-background:accumulate"
       d="m 63.795,68.712657 c -0.166004,-0.03394 -0.5097,-0.123193 -1.623047,-0.144532 -1.32635,-0.02542 -3.392631,0.06547 -6.373047,0.529297 -0.870064,0.135404 -2.669786,-0.202274 -4.232422,-0.234375 -0.781318,-0.01605 -1.5158,0.04039 -2.091796,0.320313 -0.575997,0.279928 -0.968835,0.832623 -0.962891,1.625 0.01642,2.190094 0.201964,4.008931 -0.451172,5.246094 -0.326568,0.618581 -0.851476,1.114981 -1.761719,1.488281 -0.910242,0.3733 -2.205767,0.612019 -4.017578,0.675781 -0.990417,0.03485 -1.656504,0.595914 -2.02539,1.392578 -0.368887,0.796664 -0.490792,1.824647 -0.527344,2.917969 -0.03655,1.093322 0.01654,2.254222 0.0293,3.298828 0.01276,1.044606 -0.02062,1.977342 -0.199219,2.574219 -1.507095,5.03666 -2.660406,7.264383 -2.703125,7.347656 L 37.250076,96.115 c 0,0 1.243593,-2.411931 2.78711,-7.570312 0.21286,-0.711373 0.23361,-1.667756 0.220703,-2.72461 -0.01291,-1.056853 -0.06491,-2.210259 -0.0293,-3.27539 0.03561,-1.065131 0.164413,-2.040089 0.480468,-2.722656 0.316056,-0.682567 0.767585,-1.076532 1.589844,-1.105469 1.846854,-0.06499 3.195301,-0.303225 4.189453,-0.710938 0.994153,-0.407712 1.635051,-0.995916 2.015625,-1.716797 0.761149,-1.44176 0.524011,-3.324581 0.507813,-5.484374 -0.0048,-0.643307 0.237259,-0.953958 0.681641,-1.169922 0.444381,-0.215965 1.116402,-0.288781 1.863281,-0.273438 1.493758,0.03069 3.242687,0.398175 4.320312,0.230469 2.955609,-0.459967 4.991793,-0.55018 6.285157,-0.525391 1.293363,0.02479 1.822265,0.160157 1.822265,0.160156 z"
       id="path1932-0-9"
       inkscape:connector-curvature="0"
       sodipodi:nodetypes="ccssccsscccscccscscccccccsscc" />
    <path
       style="color:#000000;font-style:normal;font-variant:normal;font-weight:normal;font-stretch:normal;font-size:medium;line-height:normal;font-family:sans-serif;font-variant-ligatures:normal;font-variant-position:normal;font-variant-caps:normal;font-variant-numeric:normal;font-variant-alternates:normal;font-feature-settings:normal;text-indent:0;text-align:start;text-decoration:none;text-decoration-line:none;text-decoration-style:solid;text-decoration-color:#000000;letter-spacing:normal;word-spacing:normal;text-transform:none;writing-mode:lr-tb;direction:ltr;text-orientation:mixed;dominant-baseline:auto;baseline-shift:baseline;text-anchor:start;white-space:normal;shape-padding:0;clip-rule:nonzero;display:inline;overflow:visible;visibility:visible;opacity:1;isolation:auto;mix-blend-mode:normal;color-interpolation:sRGB;color-interpolation-filters:linearRGB;solid-color:#000000;solid-opacity:1;vector-effect:none;fill:#000000;fill-opacity:1;fill-rule:nonzero;stroke:none;stroke-width:0.5;stroke-linecap:round;stroke-linejoin:miter;stroke-miterlimit:4;stroke-dasharray:none;stroke-dashoffset:170.07873535;stroke-opacity:1;paint-order:fill markers stroke;color-rendering:auto;image-rendering:auto;shape-rendering:auto;text-rendering:auto;enable-background:accumulate"
       d="m 31.75,68.486268 c -0.07887,-0.05688 -0.04999,-0.0583 -0.160156,-0.121094 -0.417521,-0.237991 -1.082679,-0.515252 -2.097656,-0.699218 -2.029955,-0.367934 -5.453796,-0.368336 -11.115235,1.044922 l -0.0039,0.002 h -0.002 c -1.514177,0.411387 -4.440163,0.341511 -7.292969,0.841797 -2.8528062,0.500285 -5.6942853,1.602849 -7.0117188,4.441406 -0.3192193,0.687793 -0.058113,1.536787 0.4140626,2.458984 0.4721759,0.922197 1.1864455,1.940465 1.9199218,2.962891 0.7334763,1.022425 1.4862256,2.048334 2.0351563,2.96289 0.5489306,0.914557 0.8729734,1.724456 0.8222656,2.234375 C 8.585737,91.373618 4.9560666,95.62813 4.8515625,95.74994 L 5.1718752,96.164 c 0,0 3.8862473,-4.481547 4.5839838,-11.498046 C 9.829652,83.923894 9.4330616,83.07098 8.8652344,82.12494 8.2974071,81.1789 7.5377511,80.146021 6.8066406,79.126893 6.0755302,78.107766 5.3725913,77.101111 4.9257812,76.228456 4.4789712,75.3558 4.3187065,74.639671 4.5195312,74.206971 5.7424036,71.572156 8.3779175,70.53541 11.164062,70.046815 c 2.786146,-0.488595 5.660496,-0.39583 7.337891,-0.851563 l -0.0039,0.002 c 5.615344,-1.401751 8.97169,-1.389352 10.904297,-1.039063 0.966303,0.175144 1.577765,0.435299 1.941406,0.642578 z"
       id="path1932-78-2"
       inkscape:connector-curvature="0"
       sodipodi:nodetypes="ccscccsssssccccsssssccscc" />
    <path
       style="color:#000000;font-style:normal;font-variant:normal;font-weight:normal;font-stretch:normal;font-size:medium;line-height:normal;font-family:sans-serif;font-variant-ligatures:normal;font-variant-position:normal;font-variant-caps:normal;font-variant-numeric:normal;font-variant-alternates:normal;font-feature-settings:normal;text-indent:0;text-align:start;text-decoration:none;text-decoration-line:none;text-decoration-style:solid;text-decoration-color:#000000;letter-spacing:normal;word-spacing:normal;text-transform:none;writing-mode:lr-tb;direction:ltr;text-orientation:mixed;dominant-baseline:auto;baseline-shift:baseline;text-anchor:start;white-space:normal;shape-padding:0;clip-rule:nonzero;display:inline;overflow:visible;visibility:visible;opacity:1;isolation:auto;mix-blend-mode:normal;color-interpolation:sRGB;color-interpolation-filters:linearRGB;solid-color:#000000;solid-opacity:1;vector-effect:none;fill:#000000;fill-opacity:1;fill-rule:nonzero;stroke:none;stroke-width:0.5;stroke-linecap:round;stroke-linejoin:miter;stroke-miterlimit:4;stroke-dasharray:none;stroke-dashoffset:170.07873535;stroke-opacity:1;paint-order:fill markers stroke;color-rendering:auto;image-rendering:auto;shape-rendering:auto;text-rendering:auto;enable-background:accumulate"
       d="m 63.75,36.917969 c -0.0089,0.0209 -0.09571,0.233455 -0.421875,0.664062 -0.341444,0.450777 -0.916064,1.089763 -1.841797,1.820313 -1.851466,1.461099 -5.110078,3.292363 -10.714844,4.71875 -3.305819,0.841313 -6.352803,3.807173 -8.755859,9.390625 -2.124424,4.936056 -3.437104,7.52748 -4.212891,8.875 -0.387893,0.67376 -0.641832,1.037675 -0.791015,1.224609 l 0.390621,0.310549 c 0.173,-0.216778 0.437858,-0.597095 0.833984,-1.285156 0.792253,-1.376122 2.109404,-3.979378 4.238281,-8.925781 2.367895,-5.501755 5.315538,-8.31542 8.419922,-9.105469 5.65902,-1.440194 8.984485,-3.298594 10.900391,-4.810547 0.957953,-0.755977 1.564307,-1.4252 1.93164,-1.910156 0.367334,-0.484957 0.503907,-0.804688 0.503907,-0.804688"
       id="path1932-6-0"
       inkscape:connector-curvature="0"
       sodipodi:nodetypes="ccssssccsssssc" />
  </g>
</svg>
