<?xml version="1.0" encoding="UTF-8" standalone="no"?>
<!-- Created with Inkscape (http://www.inkscape.org/) -->

<svg
   xmlns:dc="http://purl.org/dc/elements/1.1/"
   xmlns:cc="http://creativecommons.org/ns#"
   xmlns:rdf="http://www.w3.org/1999/02/22-rdf-syntax-ns#"
   xmlns:svg="http://www.w3.org/2000/svg"
   xmlns="http://www.w3.org/2000/svg"
   xmlns:xlink="http://www.w3.org/1999/xlink"
   xmlns:sodipodi="http://sodipodi.sourceforge.net/DTD/sodipodi-0.dtd"
   xmlns:inkscape="http://www.inkscape.org/namespaces/inkscape"
   width="128mm"
   height="64mm"
   viewBox="0 0 128 64"
   version="1.1"
   id="svg8"
   inkscape:version="0.92.2 5c3e80d, 2017-08-06"
   sodipodi:docname="2.svg">
  <defs
     id="defs2" />
  <sodipodi:namedview
     id="base"
     pagecolor="#ffffff"
     bordercolor="#666666"
     borderopacity="1.0"
     inkscape:pageopacity="0.0"
     inkscape:pageshadow="2"
     inkscape:zoom="1"
     inkscape:cx="327.93924"
     inkscape:cy="90.086887"
     inkscape:document-units="mm"
     inkscape:current-layer="svg8"
     showgrid="true"
     inkscape:window-width="958"
     inkscape:window-height="1078"
     inkscape:window-x="1"
     inkscape:window-y="1"
     inkscape:window-maximized="0"
     inkscape:measure-start="0,0"
     inkscape:measure-end="0,0"
     inkscape:snap-global="false"
     showguides="false">
    <inkscape:grid
       type="xygrid"
       id="grid6398"
       spacingx="63.999998"
       spacingy="63.999998"
       units="mm" />
  </sodipodi:namedview>
  <metadata
     id="metadata5">
    <rdf:RDF>
      <cc:Work
         rdf:about="">
        <dc:format>image/svg+xml</dc:format>
        <dc:type
           rdf:resource="http://purl.org/dc/dcmitype/StillImage" />
        <dc:title />
      </cc:Work>
    </rdf:RDF>
  </metadata>
  <g
     id="g7189"
     transform="translate(4.3705932e-4,3.1536953e-4)">
    <g
       inkscape:label="rings"
       id="layer9">
      <use
         height="100%"
         width="100%"
         transform="translate(-8.9958337,16.404167)"
         id="use2056"
         xlink:href="#use2054"
         y="0"
         x="0" />
      <use
         height="100%"
         width="100%"
         transform="translate(2.4473958,-0.26458334)"
         id="use2078"
         xlink:href="#use2056"
         y="0"
         x="0" />
      <use
         height="100%"
         width="100%"
         transform="translate(-0.13229167,-1.7197917)"
         id="use2058"
         xlink:href="#use2056"
         y="0"
         x="0" />
      <use
         height="100%"
         width="100%"
         transform="translate(-4e-8,7.3421873)"
         id="use2148"
         xlink:href="#use2146"
         y="0"
         x="0" />
      <use
         height="100%"
         width="100%"
         transform="translate(-11.377084,6.5484377)"
         id="use2190"
         xlink:href="#use2188"
         y="0"
         x="0" />
      <use
         height="100%"
         width="100%"
         transform="translate(-8.1359375,14.155208)"
         id="use2126"
         xlink:href="#use2124"
         y="0"
         x="0" />
      <use
         height="100%"
         width="100%"
         transform="translate(5.0270833,0.06614583)"
         id="use2104"
         xlink:href="#use2078"
         y="0"
         x="0" />
      <use
         height="100%"
         width="100%"
         transform="translate(0.99218747,-1.2567708)"
         id="use2080"
         xlink:href="#use2078"
         y="0"
         x="0" />
      <use
         height="100%"
         width="100%"
         transform="translate(0.1984375,-1.6536458)"
         id="use2060"
         xlink:href="#use2058"
         y="0"
         x="0" />
      <use
         height="100%"
         width="100%"
         transform="translate(1.5875001,-0.79374993)"
         id="use2130"
         xlink:href="#use2126"
         y="0"
         x="0" />
      <use
         height="100%"
         width="100%"
         transform="translate(1.1244792,-1.1244791)"
         id="use2106"
         xlink:href="#use2104"
         y="0"
         x="0" />
      <use
         height="100%"
         width="100%"
         transform="translate(0.59531247,-1.7859375)"
         id="use2082"
         xlink:href="#use2080"
         y="0"
         x="0" />
      <use
         height="100%"
         width="100%"
         transform="translate(0.33072917,-1.9182292)"
         id="use2062"
         xlink:href="#use2060"
         y="0"
         x="0" />
      <use
         height="100%"
         width="100%"
         transform="translate(-0.66145833,1.3890625)"
         id="use2152"
         xlink:href="#use2150"
         y="0"
         x="0" />
      <use
         height="100%"
         width="100%"
         transform="translate(0.52916673,-1.5213542)"
         id="use2132"
         xlink:href="#use2130"
         y="0"
         x="0" />
      <use
         height="100%"
         width="100%"
         transform="translate(0.39687493,-1.4552083)"
         id="use2108"
         xlink:href="#use2106"
         y="0"
         x="0" />
      <use
         height="100%"
         width="100%"
         transform="translate(0.8598958,-1.9843751)"
         id="use2084"
         xlink:href="#use2082"
         y="0"
         x="0" />
      <use
         height="100%"
         width="100%"
         transform="translate(0.46302083,-1.7859375)"
         id="use2064"
         xlink:href="#use2062"
         y="0"
         x="0" />
      <use
         height="100%"
         width="100%"
         transform="translate(5.4901045,-0.66145834)"
         id="use2202"
         xlink:href="#use2190"
         y="0"
         x="0" />
      <use
         height="100%"
         width="100%"
         transform="translate(10.18646,0.39687503)"
         id="use2194"
         xlink:href="#use2192"
         y="0"
         x="0" />
      <use
         height="100%"
         width="100%"
         transform="translate(0.33072914,-1.1906249)"
         id="use2192"
         xlink:href="#use2190"
         y="0"
         x="0" />
      <use
         height="100%"
         width="100%"
         transform="translate(1.4552083,-2.5796875)"
         id="use2150"
         xlink:href="#use2148"
         y="0"
         x="0" />
      <use
         height="100%"
         width="100%"
         transform="translate(0.85989587,-0.72760417)"
         id="use2134"
         xlink:href="#use2132"
         y="0"
         x="0" />
      <use
         height="100%"
         width="100%"
         transform="translate(0.46302083,-0.5953125)"
         id="use5583"
         xlink:href="#use2202"
         y="0"
         x="0" />
      <use
         height="100%"
         width="100%"
         transform="translate(-0.99218757,2.9765624)"
         id="use2178"
         xlink:href="#use2176"
         y="0"
         x="0" />
      <use
         height="100%"
         width="100%"
         transform="translate(-9.3265625,4.0348958)"
         id="use2162"
         xlink:href="#use2160"
         y="0"
         x="0" />
      <use
         height="100%"
         width="100%"
         transform="translate(0.79374997,-1.5213542)"
         id="use2110"
         xlink:href="#use2108"
         y="0"
         x="0" />
      <use
         height="100%"
         width="100%"
         transform="translate(1.1244791,-1.1906249)"
         id="use2136"
         xlink:href="#use2134"
         y="0"
         x="0" />
      <use
         height="100%"
         width="100%"
         transform="translate(1.2567709,-1.5213541)"
         id="use2086"
         xlink:href="#use2084"
         y="0"
         x="0" />
      <use
         height="100%"
         width="100%"
         transform="translate(0.46302083,-1.5875)"
         id="use2066"
         xlink:href="#use2064"
         y="0"
         x="0" />
      <use
         height="100%"
         width="100%"
         transform="translate(0.92604163,-1.5213542)"
         id="use2112"
         xlink:href="#use2110"
         y="0"
         x="0" />
      <use
         height="100%"
         width="100%"
         transform="translate(0.79375003,-1.3229166)"
         id="use2088"
         xlink:href="#use2086"
         y="0"
         x="0" />
      <use
         height="100%"
         width="100%"
         transform="translate(0.5953125,-1.7197916)"
         id="use2068"
         xlink:href="#use2066"
         y="0"
         x="0" />
      <use
         height="100%"
         width="100%"
         transform="translate(-0.1984375,1.9182292)"
         id="use2200"
         xlink:href="#use2198"
         y="0"
         x="0" />
      <use
         height="100%"
         width="100%"
         transform="translate(0.13229173,1.6536459)"
         id="use5611"
         xlink:href="#use5601"
         y="0"
         x="0" />
      <use
         height="100%"
         width="100%"
         transform="translate(4.1010417)"
         id="use5591"
         xlink:href="#use2200"
         y="0"
         x="0" />
      <use
         height="100%"
         width="100%"
         transform="translate(5.0270835,-1.5875)"
         id="use2204"
         xlink:href="#use2202"
         y="0"
         x="0" />
      <use
         height="100%"
         width="100%"
         transform="translate(0.5953125,-1.7197917)"
         id="use5585"
         xlink:href="#use5583"
         y="0"
         x="0" />
      <use
         height="100%"
         width="100%"
         transform="translate(3.2411462,1.984375)"
         id="use2184"
         xlink:href="#use2182"
         y="0"
         x="0" />
      <use
         height="100%"
         width="100%"
         transform="translate(0.52916663,-1.2567709)"
         id="use2164"
         xlink:href="#use2162"
         y="0"
         x="0" />
      <use
         height="100%"
         width="100%"
         transform="translate(13.03073,3.96875)"
         id="use2198"
         xlink:href="#use2196"
         y="0"
         x="0" />
      <use
         height="100%"
         width="100%"
         transform="translate(1.0583333,-1.1244792)"
         id="use2206"
         xlink:href="#use2204"
         y="0"
         x="0" />
      <use
         height="100%"
         width="100%"
         transform="translate(5.953125,8.7973956)"
         id="use5601"
         xlink:href="#use5599"
         y="0"
         x="0" />
      <use
         height="100%"
         width="100%"
         transform="translate(0,-2.2489583)"
         id="use5593"
         xlink:href="#use5591"
         y="0"
         x="0" />
      <use
         height="100%"
         width="100%"
         transform="translate(3.571875,0.13229163)"
         id="use2210"
         xlink:href="#use2208"
         y="0"
         x="0" />
      <use
         height="100%"
         width="100%"
         transform="translate(0.396875,-1.3229167)"
         id="use5587"
         xlink:href="#use5585"
         y="0"
         x="0" />
      <use
         height="100%"
         width="100%"
         transform="translate(0.3968745,-1.4552083)"
         id="use2208"
         xlink:href="#use2206"
         y="0"
         x="0" />
      <use
         height="100%"
         width="100%"
         transform="translate(-12.567708,3.0427084)"
         id="use2176"
         xlink:href="#use2174"
         y="0"
         x="0" />
      <use
         height="100%"
         width="100%"
         transform="translate(0.72760423,-1.6536458)"
         id="use2138"
         xlink:href="#use2136"
         y="0"
         x="0" />
      <use
         height="100%"
         width="100%"
         transform="translate(-1.0583337,0.85989574)"
         id="use2182"
         xlink:href="#use2180"
         y="0"
         x="0" />
      <use
         height="100%"
         width="100%"
         transform="translate(1.3229166,-1.4552083)"
         id="use2114"
         xlink:href="#use2112"
         y="0"
         x="0" />
      <use
         height="100%"
         width="100%"
         transform="translate(0.9921875,-1.3890625)"
         id="use2090"
         xlink:href="#use2088"
         y="0"
         x="0" />
      <use
         height="100%"
         width="100%"
         transform="translate(0.92604167,-1.3890625)"
         id="use2070"
         xlink:href="#use2068"
         y="0"
         x="0" />
      <use
         height="100%"
         width="100%"
         transform="translate(-5.7546875,4.0348959)"
         id="use2146"
         xlink:href="#use2144"
         y="0"
         x="0" />
      <use
         height="100%"
         width="100%"
         transform="translate(1.1906251,-1.0583334)"
         id="use2116"
         xlink:href="#use2114"
         y="0"
         x="0" />
      <use
         height="100%"
         width="100%"
         transform="translate(1.1244792,-1.2567708)"
         id="use2092"
         xlink:href="#use2090"
         y="0"
         x="0" />
      <use
         height="100%"
         width="100%"
         transform="translate(1.0583333,-1.4552084)"
         id="use2072"
         xlink:href="#use2070"
         y="0"
         x="0" />
      <use
         height="100%"
         width="100%"
         transform="translate(0.396875,-1.5875)"
         id="use5589"
         xlink:href="#use5587"
         y="0"
         x="0" />
      <use
         height="100%"
         width="100%"
         transform="translate(-1.7197916,-4.2333334)"
         id="use2180"
         xlink:href="#use2178"
         y="0"
         x="0" />
      <use
         height="100%"
         width="100%"
         transform="translate(-7.8052087,-5.7546876)"
         id="use2196"
         xlink:href="#use2194"
         y="0"
         x="0" />
      <use
         height="100%"
         width="100%"
         transform="translate(-1.1244792,1.1244792)"
         id="use2158"
         xlink:href="#use2156"
         y="0"
         x="0" />
      <use
         height="100%"
         width="100%"
         transform="translate(1.1244791,-0.99218753)"
         id="use2118"
         xlink:href="#use2116"
         y="0"
         x="0" />
      <use
         height="100%"
         width="100%"
         transform="translate(0.72760413,-1.3890625)"
         id="use2094"
         xlink:href="#use2092"
         y="0"
         x="0" />
      <use
         height="100%"
         width="100%"
         transform="translate(1.4552083,-1.4552083)"
         id="use2074"
         xlink:href="#use2072"
         y="0"
         x="0" />
      <use
         height="100%"
         width="100%"
         transform="translate(3.4395833,-3.1088541)"
         id="use2166"
         xlink:href="#use2164"
         y="0"
         x="0" />
      <use
         height="100%"
         width="100%"
         transform="translate(-1.3890625,0.9921874)"
         id="use2156"
         xlink:href="#use2154"
         y="0"
         x="0" />
      <use
         height="100%"
         width="100%"
         transform="translate(1.0583334,-0.99218753)"
         id="use2120"
         xlink:href="#use2118"
         y="0"
         x="0" />
      <use
         height="100%"
         width="100%"
         transform="translate(1.2567708,-0.79374997)"
         id="use2168"
         xlink:href="#use2166"
         y="0"
         x="0" />
      <use
         height="100%"
         width="100%"
         transform="translate(2.8442709,-9.5911458)"
         id="use2154"
         xlink:href="#use2152"
         y="0"
         x="0" />
      <use
         height="100%"
         width="100%"
         transform="translate(1.1244792,-1.1244792)"
         id="use2096"
         xlink:href="#use2094"
         y="0"
         x="0" />
      <use
         height="100%"
         width="100%"
         transform="translate(1.8520834,-1.1244792)"
         id="use2076"
         xlink:href="#use2074"
         y="0"
         x="0" />
      <use
         height="100%"
         width="100%"
         transform="translate(-0.85989583,0.99218753)"
         id="use2142"
         xlink:href="#use2140"
         y="0"
         x="0" />
      <use
         height="100%"
         width="100%"
         transform="translate(1.7859375,-0.85989583)"
         id="use2098"
         xlink:href="#use2096"
         y="0"
         x="0" />
      <use
         height="100%"
         width="100%"
         transform="translate(-6.0192708,0.46302083)"
         id="use2054"
         xlink:href="#path2052"
         y="0"
         x="0" />
      <use
         height="100%"
         width="100%"
         transform="translate(0.99218747,-6.746875)"
         id="use2140"
         xlink:href="#use2138"
         y="0"
         x="0" />
      <use
         height="100%"
         width="100%"
         transform="translate(-0.66145837,-4.1010417)"
         id="use2122"
         xlink:href="#use2120"
         y="0"
         x="0" />
      <use
         height="100%"
         width="100%"
         transform="translate(-1.3890625,-2.778125)"
         id="use2100"
         xlink:href="#use2098"
         y="0"
         x="0" />
      <ellipse
         ry="2.4143229"
         rx="3.7041667"
         cy="46.702862"
         cx="18.653126"
         id="path2052"
         style="opacity:1;fill:#999999;fill-opacity:1;stroke:#4d4d4d;stroke-width:0.2;stroke-linejoin:bevel;stroke-miterlimit:4;stroke-dasharray:none;stroke-dashoffset:0;stroke-opacity:1" />
      <use
         height="100%"
         width="100%"
         transform="translate(5.7546875,1.7197917)"
         id="use2102"
         xlink:href="#use2100"
         y="0"
         x="0" />
      <use
         height="100%"
         width="100%"
         transform="translate(7.14375,0.4630208)"
         id="use2144"
         xlink:href="#use2142"
         y="0"
         x="0" />
      <use
         height="100%"
         width="100%"
         transform="translate(5.0270833,0.6614584)"
         id="use2124"
         xlink:href="#use2122"
         y="0"
         x="0" />
      <use
         height="100%"
         width="100%"
         transform="translate(-0.52916667,-2.1166666)"
         id="use5603"
         xlink:href="#use5601"
         y="0"
         x="0" />
      <use
         height="100%"
         width="100%"
         transform="translate(0.1984375,-2.6458334)"
         id="use5595"
         xlink:href="#use5593"
         y="0"
         x="0" />
      <use
         height="100%"
         width="100%"
         transform="translate(-0.39687503,-2.0505208)"
         id="use2212"
         xlink:href="#use2210"
         y="0"
         x="0" />
      <use
         height="100%"
         width="100%"
         transform="translate(9.9880208,-2.778125)"
         id="use2188"
         xlink:href="#use2184"
         y="0"
         x="0" />
      <use
         height="100%"
         width="100%"
         transform="translate(-0.52916666,-2.0505209)"
         id="use5613"
         xlink:href="#use5605"
         y="0"
         x="0" />
      <use
         height="100%"
         width="100%"
         transform="translate(-0.85989583,-2.0505208)"
         id="use5605"
         xlink:href="#use5603"
         y="0"
         x="0" />
      <use
         height="100%"
         width="100%"
         transform="translate(0.19843751,-1.0583334)"
         id="use5615"
         xlink:href="#use5607"
         y="0"
         x="0" />
      <use
         height="100%"
         width="100%"
         transform="translate(-0.66145833,-2.9765625)"
         id="use5597"
         xlink:href="#use5595"
         y="0"
         x="0" />
      <use
         height="100%"
         width="100%"
         transform="translate(1.0583334,1.7859375)"
         id="use2174"
         xlink:href="#use2172"
         y="0"
         x="0" />
      <use
         height="100%"
         width="100%"
         transform="translate(9.0619792,0.52916663)"
         id="use2170"
         xlink:href="#use2168"
         y="0"
         x="0" />
      <use
         height="100%"
         width="100%"
         transform="translate(10.120313,0.79374997)"
         id="use2160"
         xlink:href="#use2158"
         y="0"
         x="0" />
      <use
         height="100%"
         width="100%"
         transform="translate(-1.9182292,-3.175)"
         id="use5607"
         xlink:href="#use5605"
         y="0"
         x="0" />
      <use
         height="100%"
         width="100%"
         transform="translate(-1.190625,-2.5135417)"
         id="use5609"
         xlink:href="#use5607"
         y="0"
         x="0" />
      <use
         height="100%"
         width="100%"
         transform="translate(-1.0583333,-2.5135417)"
         id="use5599"
         xlink:href="#use5597"
         y="0"
         x="0" />
      <use
         height="100%"
         width="100%"
         transform="translate(2.38125,-2.0505208)"
         id="use2172"
         xlink:href="#use2170"
         y="0"
         x="0" />
    </g>
    <g
       inkscape:label="armor colar"
       id="layer12">
      <path
         sodipodi:nodetypes="ccccccc"
         inkscape:connector-curvature="0"
         id="path1148"
         d="m 20.571354,44.156249 c -2.285759,-0.368841 -5.894434,-0.349193 -8.841651,0.78545 13.703276,11.771519 21.36453,18.039697 35.413137,4.434525 -1.52836,-0.926176 -4.792495,-2.026817 -6.99232,-1.912723 -2.501826,2.109326 -5.479989,2.826107 -6.946252,3.067267 -3.096557,-0.316556 -9.806481,-4.135183 -12.632914,-6.374558 z"
         style="fill:#333333;fill-opacity:1;stroke:#000000;stroke-width:0.26458332px;stroke-linecap:butt;stroke-linejoin:miter;stroke-opacity:1" />
      <path
         sodipodi:nodetypes="ccc"
         inkscape:connector-curvature="0"
         id="path2214"
         d="m 23.084896,50.836979 c 8.054497,9.782345 20.132279,1.947183 20.769792,-2.116667 -3.06749,5.094725 -12.648775,7.61299 -20.769792,2.116667 z"
         style="fill:#4d4d4d;fill-opacity:1;fill-rule:evenodd;stroke:#4d4d4d;stroke-width:0.26499999;stroke-linecap:butt;stroke-linejoin:miter;stroke-miterlimit:4;stroke-dasharray:none;stroke-opacity:1" />
      <path
         sodipodi:nodetypes="ccc"
         inkscape:connector-curvature="0"
         id="path2214-3"
         d="m 30.015903,51.028597 c 1.836788,1.712553 7.630715,1.484164 8.334374,-0.727604 -1.759764,1.086942 -3.907014,2.383965 -8.334374,0.727604 z"
         style="fill:#4d4d4d;fill-opacity:1;fill-rule:evenodd;stroke:#4d4d4d;stroke-width:0.26499999;stroke-linecap:butt;stroke-linejoin:miter;stroke-miterlimit:4;stroke-dasharray:none;stroke-opacity:1" />
    </g>
  </g>
  <g
     id="g7327"
     transform="translate(64.000244,-0.01003723)">
    <g
       inkscape:label="armor"
       id="layer13">
      <g
         transform="translate(9.8128021,5.7390911)"
         inkscape:label="eye-mask"
         id="layer8-6" />
      <use
         x="0"
         y="0"
         xlink:href="#use2054-5"
         id="use2056-9"
         transform="translate(-14.425299,4.816018)"
         width="100%"
         height="100%" />
      <use
         x="0"
         y="0"
         xlink:href="#use2056-9"
         id="use2078-2"
         transform="translate(3.0834026,-0.42897416)"
         width="100%"
         height="100%" />
      <use
         x="0"
         y="0"
         xlink:href="#use2056-9"
         id="use2058-0"
         transform="translate(-0.13229192,-1.7197918)"
         width="100%"
         height="100%" />
      <use
         x="0"
         y="0"
         xlink:href="#use2078-2"
         id="use2104-2"
         transform="translate(3.9980949,0.49041918)"
         width="100%"
         height="100%" />
      <use
         x="0"
         y="0"
         xlink:href="#use2078-2"
         id="use2080-3"
         transform="translate(0.59531243,-2.0505208)"
         width="100%"
         height="100%" />
      <use
         x="0"
         y="0"
         xlink:href="#use2058-0"
         id="use2060-7"
         transform="translate(0.19843708,-1.6536458)"
         width="100%"
         height="100%" />
      <use
         x="0"
         y="0"
         xlink:href="#use2124-7"
         id="use2126-5"
         transform="translate(-4.1237398,5.902556)"
         width="100%"
         height="100%" />
      <use
         x="0"
         y="0"
         xlink:href="#use2104-2"
         id="use2106-9"
         transform="translate(1.0583331,-2.1166672)"
         width="100%"
         height="100%" />
      <use
         x="0"
         y="0"
         xlink:href="#use2080-3"
         id="use2082-2"
         transform="translate(0.59531243,-1.9182288)"
         width="100%"
         height="100%" />
      <use
         x="0"
         y="0"
         xlink:href="#use2060-7"
         id="use2062-2"
         transform="translate(0.33072908,-1.9182288)"
         width="100%"
         height="100%" />
      <ellipse
         style="opacity:1;fill:#999999;fill-opacity:1;stroke:#4d4d4d;stroke-width:0.2;stroke-linejoin:bevel;stroke-miterlimit:4;stroke-dasharray:none;stroke-dashoffset:0;stroke-opacity:1"
         id="path2052-8"
         cx="27.258219"
         cy="63.276413"
         rx="3.7041667"
         ry="2.4143229" />
      <use
         x="0"
         y="0"
         xlink:href="#use2126-5"
         id="use2130-9"
         transform="translate(1.7244928,-1.3957108)"
         width="100%"
         height="100%" />
      <use
         x="0"
         y="0"
         xlink:href="#use2106-9"
         id="use2108-7"
         transform="translate(0.92604212,-1.6536462)"
         width="100%"
         height="100%" />
      <use
         x="0"
         y="0"
         xlink:href="#use2082-2"
         id="use2084-3"
         transform="translate(0.99218843,-1.7197918)"
         width="100%"
         height="100%" />
      <use
         x="0"
         y="0"
         xlink:href="#use2062-2"
         id="use2064-6"
         transform="translate(0.46302108,-1.7859368)"
         width="100%"
         height="100%" />
      <use
         x="0"
         y="0"
         xlink:href="#use2160-1"
         id="use2162-1"
         transform="translate(16.628194,2.4958786)"
         width="100%"
         height="100%" />
      <use
         x="0"
         y="0"
         xlink:href="#use2114-4"
         id="use2116-2"
         transform="translate(-0.63016606,1.4947627)"
         width="100%"
         height="100%" />
      <use
         x="0"
         y="0"
         xlink:href="#use2098-7"
         id="use2100-9"
         transform="translate(-0.44777798,1.9256833)"
         width="100%"
         height="100%" />
      <use
         x="0"
         y="0"
         xlink:href="#use2130-9"
         id="use2132-3"
         transform="translate(1.0356354,-1.7906389)"
         width="100%"
         height="100%" />
      <use
         x="0"
         y="0"
         xlink:href="#use2108-7"
         id="use2110-1"
         transform="translate(0.92604212,-1.7859372)"
         width="100%"
         height="100%" />
      <use
         x="0"
         y="0"
         xlink:href="#use2084-3"
         id="use2086-9"
         transform="translate(0.33072943,-1.6536458)"
         width="100%"
         height="100%" />
      <use
         x="0"
         y="0"
         xlink:href="#use2064-6"
         id="use2066-4"
         transform="translate(0.66145808,-1.5874998)"
         width="100%"
         height="100%" />
      <use
         x="0"
         y="0"
         xlink:href="#use2096-3"
         id="use2098-7"
         transform="translate(7.827572,11.147826)"
         width="100%"
         height="100%" />
      <use
         x="0"
         y="0"
         xlink:href="#use2142-5"
         id="use2144-8"
         transform="translate(-0.73035799,3.1331657)"
         width="100%"
         height="100%" />
      <use
         x="0"
         y="0"
         xlink:href="#use2112-0"
         id="use2114-4"
         transform="translate(12.315753,6.8314903)"
         width="100%"
         height="100%" />
      <use
         x="0"
         y="0"
         xlink:href="#path2052-8"
         id="use2054-5"
         transform="translate(-1.4317049,-5.3480771)"
         width="100%"
         height="100%" />
      <use
         x="0"
         y="0"
         xlink:href="#use2110-1"
         id="use2112-0"
         transform="translate(0.79375012,-1.7859372)"
         width="100%"
         height="100%" />
      <use
         x="0"
         y="0"
         xlink:href="#use2086-9"
         id="use2088-3"
         transform="translate(0.66145843,-1.8520828)"
         width="100%"
         height="100%" />
      <use
         x="0"
         y="0"
         xlink:href="#use2066-4"
         id="use2068-6"
         transform="translate(0.99218792,-1.4779058)"
         width="100%"
         height="100%" />
      <use
         x="0"
         y="0"
         xlink:href="#use2120-3"
         id="use2122-1"
         transform="translate(-0.95424663,1.4626637)"
         width="100%"
         height="100%" />
      <use
         x="0"
         y="0"
         xlink:href="#use2136-0"
         id="use2138-0"
         transform="translate(-0.78515479,1.9671847)"
         width="100%"
         height="100%" />
      <use
         x="0"
         y="0"
         xlink:href="#use2152-6"
         id="use2154-6"
         transform="translate(-0.3060848,1.5930078)"
         width="100%"
         height="100%" />
      <ellipse
         ry="2.4143229"
         rx="3.7041667"
         cy="61.251205"
         cx="51.963184"
         id="use2168-3"
         style="opacity:1;fill:#999999;fill-opacity:1;stroke:#4d4d4d;stroke-width:0.2;stroke-linejoin:bevel;stroke-miterlimit:4;stroke-dasharray:none;stroke-dashoffset:0;stroke-opacity:1" />
      <use
         x="0"
         y="0"
         xlink:href="#use2156-8"
         id="use2158-2"
         transform="translate(-5.3962264,4.6204718)"
         width="100%"
         height="100%" />
      <use
         x="0"
         y="0"
         xlink:href="#use2134-5"
         id="use2136-0"
         transform="translate(0.20038519,2.2251198)"
         width="100%"
         height="100%" />
      <use
         x="0"
         y="0"
         xlink:href="#use2150-7"
         id="use2152-6"
         transform="translate(0.01799719,2.6493932)"
         width="100%"
         height="100%" />
      <use
         x="0"
         y="0"
         xlink:href="#use2158-2"
         id="use2160-1"
         transform="translate(-4.0666613,-1.9550293)"
         width="100%"
         height="100%" />
      <use
         x="0"
         y="0"
         xlink:href="#use2140-7"
         id="use2142-5"
         transform="translate(-0.91079869,1.8642388)"
         width="100%"
         height="100%" />
      <use
         x="0"
         y="0"
         xlink:href="#use2132-3"
         id="use2134-5"
         transform="translate(19.838047,-0.06339181)"
         width="100%"
         height="100%" />
      <use
         x="0"
         y="0"
         xlink:href="#use2172-6"
         id="use2174-4"
         transform="translate(0.51231039,4.9700055)"
         width="100%"
         height="100%" />
      <use
         x="0"
         y="0"
         xlink:href="#use2148-9"
         id="use2150-7"
         transform="translate(0.07279384,2.621995)"
         width="100%"
         height="100%" />
      <ellipse
         ry="2.4143229"
         rx="3.7041667"
         cy="56.435856"
         cx="51.759563"
         id="use2200-6"
         style="opacity:1;fill:#999999;fill-opacity:1;stroke:#4d4d4d;stroke-width:0.2;stroke-linejoin:bevel;stroke-miterlimit:4;stroke-dasharray:none;stroke-dashoffset:0;stroke-opacity:1" />
      <ellipse
         ry="2.4143229"
         rx="3.7041667"
         cy="56.970531"
         cx="50.483185"
         id="use2212-5"
         style="opacity:1;fill:#999999;fill-opacity:1;stroke:#4d4d4d;stroke-width:0.2;stroke-linejoin:bevel;stroke-miterlimit:4;stroke-dasharray:none;stroke-dashoffset:0;stroke-opacity:1" />
      <ellipse
         ry="2.4143229"
         rx="3.7041667"
         cy="54.038559"
         cx="51.347454"
         id="use2172-6"
         style="opacity:1;fill:#999999;fill-opacity:1;stroke:#4d4d4d;stroke-width:0.2;stroke-linejoin:bevel;stroke-miterlimit:4;stroke-dasharray:none;stroke-dashoffset:0;stroke-opacity:1" />
      <use
         x="0"
         y="0"
         xlink:href="#use2146-6"
         id="use2148-9"
         transform="translate(14.069256,-2.3758811)"
         width="100%"
         height="100%" />
      <use
         x="0"
         y="0"
         xlink:href="#use2118-0"
         id="use2120-3"
         transform="translate(1.658347,1.8368394)"
         width="100%"
         height="100%" />
      <use
         x="0"
         y="0"
         xlink:href="#use2122-1"
         id="use2124-7"
         transform="translate(-4.6592196,-2.5021926)"
         width="100%"
         height="100%" />
      <use
         x="0"
         y="0"
         xlink:href="#use2090-5"
         id="use2092-4"
         transform="translate(4.7840573,1.6979009)"
         width="100%"
         height="100%" />
      <use
         x="0"
         y="0"
         xlink:href="#use2088-3"
         id="use2090-5"
         transform="translate(0.50841589,-1.3730132)"
         width="100%"
         height="100%" />
      <use
         x="0"
         y="0"
         xlink:href="#use2068-6"
         id="use2070-2"
         transform="translate(0.62935909,-1.7471905)"
         width="100%"
         height="100%" />
      <use
         x="0"
         y="0"
         xlink:href="#use2070-2"
         id="use2072-5"
         transform="translate(0.89394206,-1.4164615)"
         width="100%"
         height="100%" />
      <use
         x="0"
         y="0"
         xlink:href="#use2092-4"
         id="use2094-4"
         transform="translate(-3.3609486,-2.7695292)"
         width="100%"
         height="100%" />
      <use
         x="0"
         y="0"
         xlink:href="#use2100-9"
         id="use2102-7"
         transform="translate(-2.9801223,-7.595088)"
         width="100%"
         height="100%" />
      <use
         x="0"
         y="0"
         xlink:href="#use2074-4"
         id="use2076-4"
         transform="translate(6.4357549,4.2188963)"
         width="100%"
         height="100%" />
      <use
         x="0"
         y="0"
         xlink:href="#use2072-5"
         id="use2074-4"
         transform="translate(1.4779058,-1.3616639)"
         width="100%"
         height="100%" />
      <use
         x="0"
         y="0"
         xlink:href="#use2094-4"
         id="use2096-3"
         transform="translate(2.5115951,-1.3276176)"
         width="100%"
         height="100%" />
      <use
         x="0"
         y="0"
         xlink:href="#use2116-2"
         id="use2118-0"
         transform="translate(-3.5092893,-7.7434287)"
         width="100%"
         height="100%" />
      <use
         x="0"
         y="0"
         xlink:href="#use2138-0"
         id="use2140-7"
         transform="translate(-3.7672244,-4.843555)"
         width="100%"
         height="100%" />
      <use
         x="0"
         y="0"
         xlink:href="#use2154-6"
         id="use2156-8"
         transform="translate(-4.5883734,-4.9163486)"
         width="100%"
         height="100%" />
      <use
         x="0"
         y="0"
         xlink:href="#use2144-8"
         id="use2146-6"
         transform="translate(-3.1719113,-5.3895774)"
         width="100%"
         height="100%" />
    </g>
    <g
       inkscape:label="scarf"
       id="layer10">
      <path
         style="fill:#333333;fill-opacity:1;stroke:#000000;stroke-width:0.26458332px;stroke-linecap:butt;stroke-linejoin:miter;stroke-opacity:1"
         d="m 16.625731,41.983805 c -2.630715,2.351546 -2.109859,3.14293 -2.667725,4.714312 13.703276,11.771519 26.322379,19.162229 40.370986,5.557057 -0.03165,-1.487442 -0.208822,-3.617071 -1.286115,-4.906142 -2.501826,2.109326 -10.698975,4.682071 -12.839545,4.657521 -3.112491,-0.0357 -20.751168,-7.783412 -23.577601,-10.022787 z"
         id="path1148-2"
         inkscape:connector-curvature="0"
         sodipodi:nodetypes="ccccscc" />
      <path
         style="fill:#4d4d4d;fill-opacity:1;fill-rule:evenodd;stroke:#4d4d4d;stroke-width:0.26499999;stroke-linecap:butt;stroke-linejoin:miter;stroke-miterlimit:4;stroke-dasharray:none;stroke-opacity:1"
         d="m 25.516063,51.414449 c 8.054497,9.782345 23.59342,4.940602 24.230933,0.876752 -3.06749,5.094725 -16.109916,4.619571 -24.230933,-0.876752 z"
         id="path2214-8"
         inkscape:connector-curvature="0"
         sodipodi:nodetypes="ccc" />
      <path
         style="fill:#4d4d4d;fill-opacity:1;fill-rule:evenodd;stroke:#4d4d4d;stroke-width:0.26499999;stroke-linecap:butt;stroke-linejoin:miter;stroke-miterlimit:4;stroke-dasharray:none;stroke-opacity:1"
         d="m 33.195425,51.512524 c 1.836788,2.74154 11.185401,3.448594 11.88906,1.236826 -1.759764,1.086942 -7.835877,1.074345 -11.88906,-1.236826 z"
         id="path2214-3-8"
         inkscape:connector-curvature="0"
         sodipodi:nodetypes="ccc" />
    </g>
  </g>
</svg>
