<?xml version="1.0" encoding="UTF-8" standalone="no"?>
<svg
   xmlns:dc="http://purl.org/dc/elements/1.1/"
   xmlns:cc="http://creativecommons.org/ns#"
   xmlns:rdf="http://www.w3.org/1999/02/22-rdf-syntax-ns#"
   xmlns:svg="http://www.w3.org/2000/svg"
   xmlns="http://www.w3.org/2000/svg"
   xmlns:xlink="http://www.w3.org/1999/xlink"
   xmlns:sodipodi="http://sodipodi.sourceforge.net/DTD/sodipodi-0.dtd"
   xmlns:inkscape="http://www.inkscape.org/namespaces/inkscape"
   height="128mm"
   id="svg8"
   version="1.1"
   viewBox="0 0 128 128"
   width="128mm"
   sodipodi:docname="0.svg"
   inkscape:version="0.92.2 5c3e80d, 2017-08-06">
  <defs
     id="rmid-defs2" />
  <sodipodi:namedview
     bordercolor="#666666"
     borderopacity="1.0"
     id="rmid-base"
     pagecolor="#ffffff"
     showgrid="true"
     showguides="false"
     inkscape:current-layer="rmid-details"
     inkscape:cx="115.74574"
     inkscape:cy="184.10415"
     inkscape:document-units="mm"
     inkscape:pageopacity="0.0"
     inkscape:pageshadow="2"
     inkscape:snap-global="false"
     inkscape:window-height="1059"
     inkscape:window-maximized="0"
     inkscape:window-width="1918"
     inkscape:window-x="1"
     inkscape:window-y="20"
     inkscape:zoom="1.2">
    <inkscape:grid
       id="rmid-grid882"
       spacingx="31.999999"
       spacingy="31.999999"
       type="xygrid"
       units="mm" />
  </sodipodi:namedview>
  <metadata
     id="rmid-metadata5">
    <rdf:RDF>
      <cc:Work
         rdf:about="">
        <dc:format>image/svg+xml</dc:format>
        <dc:type
           rdf:resource="http://purl.org/dc/dcmitype/StillImage" />
        <dc:title />
      </cc:Work>
    </rdf:RDF>
  </metadata>
  <g
     id="rmid-details"
     style="display:inline"
     inkscape:groupmode="layer"
     inkscape:label="rmid-details"
     sodipodi:insensitive="true">
    <use
       height="100%"
       id="rmid-use5814"
       transform="translate(-32.111603,2.9128416)"
       width="100%"
       x="0"
       y="0"
       xlink:href="#rmid-g4770" />
    <g
       id="rmid-g4770"
       style="display:inline"
       transform="translate(-2.0138701,42.096727)">
      <path
         d="m 43.485313,-35.750981 c -1.080827,-2.417219 -6.626129,-1.924553 -7.613836,0.172224 -0.320129,0.336383 5.821847,3.260637 7.613836,-0.172224 z"
         id="rmid-rmid-path4674-2"
         style="fill:#454837;stroke:none;stroke-width:0.38969928px;stroke-linecap:butt;stroke-linejoin:miter;stroke-opacity:1"
         sodipodi:nodetypes="ccc"
         inkscape:connector-curvature="0" />
      <path
         d="m 38.041504,-39.849914 c -0.344109,1.026149 -0.851263,1.834906 -0.137788,4.271164 1.376363,0.937912 2.249413,0.617545 2.893369,-0.275559 0.237474,-1.657275 -0.20541,-2.974369 -0.688896,-4.271164 z"
         id="rmid-rmid-path4672-9"
         style="fill:#806600;stroke:none;stroke-width:0.38969928px;stroke-linecap:butt;stroke-linejoin:miter;stroke-opacity:1"
         sodipodi:nodetypes="ccccc"
         inkscape:connector-curvature="0" />
      <path
         d="m 35.716005,-38.233289 c 2.696517,-3.451103 4.075106,-4.934811 7.040778,-0.595525 0.204119,2.145328 -5.117611,1.501731 -7.040778,0.595525 z"
         id="rmid-rmid-path4670-1"
         style="fill:#aa8800;fill-opacity:1;stroke:#000000;stroke-width:0.1;stroke-linecap:butt;stroke-linejoin:miter;stroke-miterlimit:4;stroke-dasharray:none;stroke-opacity:1"
         sodipodi:nodetypes="ccc"
         inkscape:connector-curvature="0" />
    </g>
    <use
       height="100%"
       id="rmid-use5832"
       transform="translate(13.449653,-0.11024306)"
       width="100%"
       x="0"
       y="0"
       xlink:href="#rmid-g4726" />
    <use
       height="100%"
       id="rmid-use5828"
       transform="translate(36.049479,-10.914063)"
       width="100%"
       x="0"
       y="0"
       xlink:href="#rmid-use5818" />
    <use
       height="100%"
       id="rmid-use5830"
       transform="translate(58.869792,-9.4809027)"
       width="100%"
       x="0"
       y="0"
       xlink:href="#rmid-g4721" />
    <use
       height="100%"
       id="rmid-use5826"
       transform="translate(41.010417,-1.1024306)"
       width="100%"
       x="0"
       y="0"
       xlink:href="#rmid-use5816" />
    <use
       height="100%"
       id="rmid-use2467"
       transform="translate(-72.055789,39.395331)"
       width="100%"
       x="0"
       y="0"
       xlink:href="#rmid-use2465" />
    <use
       height="100%"
       id="rmid-use916"
       transform="translate(-69.563369,27.450521)"
       width="100%"
       x="0"
       y="0"
       xlink:href="#rmid-use886" />
    <use
       height="100%"
       id="rmid-use926"
       transform="translate(19.513021,-0.11024306)"
       width="100%"
       x="0"
       y="0"
       xlink:href="#rmid-use910" />
    <g
       id="rmid-g5465-3"
       transform="translate(18.029089,19.39164)">
      <path
         d="M 7.726,11.73 C 10.3,11.51 11.75,8.451 12.66,5.179 9.471,5.267 7.892,7.74 7.726,11.73 Z"
         id="rmid-path4744-67"
         style="fill:#cdde87;fill-rule:evenodd;stroke-width:0.403px"
         sodipodi:nodetypes="ccc"
         inkscape:connector-curvature="0" />
      <path
         d="M 7.726,11.73 C 5.22,10.25 4.498,10.5 3.588,7.229 6.775,7.317 7.958,7.211 7.726,11.73 Z"
         id="rmid-path4744-6-5"
         style="fill:#cdde87;fill-rule:evenodd;stroke-width:0.403px"
         sodipodi:nodetypes="ccc"
         inkscape:connector-curvature="0" />
    </g>
    <use
       height="100%"
       id="rmid-use2461"
       transform="translate(22.072196,-22.664022)"
       width="100%"
       x="0"
       y="0"
       xlink:href="#rmid-g5465-3" />
    <use
       height="100%"
       id="rmid-use2463"
       transform="translate(54.090911,-0.54124455)"
       width="100%"
       x="0"
       y="0"
       xlink:href="#rmid-g5465-3" />
    <use
       height="100%"
       id="rmid-use2465"
       transform="translate(84.450391,-23.279161)"
       width="100%"
       x="0"
       y="0"
       xlink:href="#rmid-g5465-3" />
    <use
       height="100%"
       id="rmid-use2469"
       transform="translate(46.292839,-2.3523794)"
       width="100%"
       x="0"
       y="0"
       xlink:href="#rmid-use2467" />
    <use
       height="100%"
       id="rmid-use932"
       transform="translate(32.190973,5.6223958)"
       width="100%"
       x="0"
       y="0"
       xlink:href="#rmid-use910" />
    <use
       height="100%"
       id="rmid-use2473"
       transform="translate(51.252469,-16.595021)"
       width="100%"
       x="0"
       y="0"
       xlink:href="#rmid-use2471" />
    <use
       height="100%"
       id="rmid-use5810"
       transform="translate(8.9118117,-21.058988)"
       width="100%"
       x="0"
       y="0"
       xlink:href="#rmid-rmid-g4721-3" />
    <g
       id="rmid-g4726"
       style="display:inline"
       transform="matrix(1.5625102,0,0,1.5625102,47.506845,67.886662)">
      <path
         d="m 9.9909907,-37.153412 c -1.2623362,-2.250062 -5.101187,-1.785086 -6.0406876,0.172223 0.3413295,0.851202 2.9186053,2.780689 6.0406876,-0.172223 z"
         id="rmid-rmid-path4674-5"
         style="display:inline;fill:#454837;stroke:none;stroke-width:0.38969928px;stroke-linecap:butt;stroke-linejoin:miter;stroke-opacity:1"
         sodipodi:nodetypes="ccc"
         inkscape:connector-curvature="0" />
      <path
         d="m 5.3409313,-41.252345 c -0.342164,1.026149 1.485821,1.834905 -0.1377878,4.271164 1.376363,0.937912 2.2494133,0.617544 2.8933697,-0.27556 0.2374738,-1.657275 -0.205411,-2.974369 -0.6888964,-4.271164 z"
         id="rmid-rmid-path4672-3"
         style="display:inline;fill:#552200;stroke:none;stroke-width:0.38969928px;stroke-linecap:butt;stroke-linejoin:miter;stroke-opacity:1"
         sodipodi:nodetypes="ccccc"
         inkscape:connector-curvature="0" />
      <path
         d="m 3.6758794,-39.692114 c -2.298e-4,-2.95874 2.620153,-5.049217 5.4204345,-1.931781 -0.8510705,1.040393 -4.2240781,5.163777 -5.4204345,1.931781 z"
         id="rmid-rmid-path4670-5"
         style="display:inline;fill:#aa4400;fill-opacity:1;stroke:#000000;stroke-width:0.1;stroke-linecap:butt;stroke-linejoin:miter;stroke-miterlimit:4;stroke-dasharray:none;stroke-opacity:1"
         sodipodi:nodetypes="ccc"
         inkscape:connector-curvature="0" />
    </g>
    <use
       height="100%"
       id="rmid-use5812"
       transform="translate(22.303016,-6.5259098)"
       width="100%"
       x="0"
       y="0"
       xlink:href="#rmid-g4721" />
    <use
       height="100%"
       id="rmid-use5781"
       transform="translate(-10.314026,5.3603223)"
       width="100%"
       x="0"
       y="0"
       xlink:href="#rmid-g4770" />
    <use
       height="100%"
       id="rmid-use5808"
       transform="translate(-48.045447,9.5024723)"
       width="100%"
       x="0"
       y="0"
       xlink:href="#rmid-g4726" />
    <g
       id="rmid-g4721"
       style="display:inline"
       transform="matrix(1.5625102,0,0,1.5625102,-9.7702979,105.03701)">
      <path
         d="m 23.715824,-52.392332 c -2.13916,-2.152636 -4.906337,-1.395386 -6.820086,0.172224 0.341329,0.0718 3.308305,3.657512 6.820086,-0.172224 z"
         id="rmid-path4674"
         style="fill:#454837;stroke:none;stroke-width:0.38969928px;stroke-linecap:butt;stroke-linejoin:miter;stroke-opacity:1"
         sodipodi:nodetypes="ccc"
         inkscape:connector-curvature="0" />
      <path
         d="m 19.065765,-56.491265 c -0.344109,1.026149 -0.851263,1.834906 -0.137788,4.271164 1.376363,0.937912 2.249413,0.617545 2.893369,-0.275559 0.237474,-1.657275 -0.20541,-2.974369 -0.688896,-4.271164 z"
         id="rmid-path4672"
         style="fill:#6c5353;stroke:none;stroke-width:0.38969928px;stroke-linecap:butt;stroke-linejoin:miter;stroke-opacity:1"
         sodipodi:nodetypes="ccccc"
         inkscape:connector-curvature="0" />
      <path
         d="m 15.549641,-56.197557 c 2.696517,-3.451103 6.059481,-5.199394 9.025153,-0.860108 0.204119,2.145328 -7.101986,1.766314 -9.025153,0.860108 z"
         id="rmid-path4670"
         style="fill:#ac9393;fill-opacity:1;stroke:#000000;stroke-width:0.09599937;stroke-linecap:butt;stroke-linejoin:miter;stroke-miterlimit:4;stroke-dasharray:none;stroke-opacity:1"
         sodipodi:nodetypes="ccc"
         inkscape:connector-curvature="0" />
    </g>
    <g
       id="rmid-rmid-g4721-3"
       style="display:inline"
       transform="matrix(1.0422678,0,0,0.98849778,-12.756429,81.093821)">
      <path
         d="m 23.715824,-52.671147 c -1.982336,-2.666106 -6.647205,-0.909062 -6.820086,0.395276 -0.130657,0.985771 5.447711,3.013773 6.820086,-0.395276 z"
         id="rmid-rmid-path4674-6"
         style="fill:#454837;stroke:none;stroke-width:0.38969928px;stroke-linecap:butt;stroke-linejoin:miter;stroke-opacity:1"
         sodipodi:nodetypes="csc"
         inkscape:connector-curvature="0" />
      <path
         d="m 19.065765,-56.491265 c -0.344109,1.026149 -0.851263,1.834906 -0.137788,4.271164 1.376363,0.937912 2.249413,0.617545 2.893369,-0.275559 0.237474,-1.657275 -0.20541,-2.974369 -0.688896,-4.271164 z"
         id="rmid-rmid-path4672-7"
         style="fill:#502d16;stroke:none;stroke-width:0.38969928px;stroke-linecap:butt;stroke-linejoin:miter;stroke-opacity:1"
         sodipodi:nodetypes="ccccc"
         inkscape:connector-curvature="0" />
      <path
         d="m 16.368659,-56.341485 c 0.482093,-3.99943 5.240463,-5.055466 8.206135,-0.71618 0.204119,2.807184 -8.688227,4.71561 -8.206135,0.71618 z"
         id="rmid-rmid-rmid-path4670-53"
         style="fill:#552200;fill-opacity:1;stroke:#000000;stroke-width:0.14777935;stroke-linecap:butt;stroke-linejoin:miter;stroke-miterlimit:4;stroke-dasharray:none;stroke-opacity:1"
         sodipodi:nodetypes="zcz"
         inkscape:connector-curvature="0" />
    </g>
    <use
       height="100%"
       id="rmid-use5816"
       transform="translate(29.324652,-4.7404515)"
       width="100%"
       x="0"
       y="0"
       xlink:href="#rmid-rmid-g4721-3" />
    <use
       height="100%"
       id="rmid-use5818"
       transform="translate(28.001735,6.5043402)"
       width="100%"
       x="0"
       y="0"
       xlink:href="#rmid-use5781" />
    <use
       height="100%"
       id="rmid-use5820"
       transform="translate(39.30165,20.284722)"
       width="100%"
       x="0"
       y="0"
       xlink:href="#rmid-use5810" />
    <use
       height="100%"
       id="rmid-use5822"
       transform="translate(8.3233506,-18.079861)"
       width="100%"
       x="0"
       y="0"
       xlink:href="#rmid-use2467" />
    <use
       height="100%"
       id="rmid-use5824"
       transform="translate(32.521702,19.513021)"
       width="100%"
       x="0"
       y="0"
       xlink:href="#rmid-g4726" />
    <use
       height="100%"
       id="rmid-use5834"
       transform="translate(-41.45139,11.244792)"
       width="100%"
       x="0"
       y="0"
       xlink:href="#rmid-use2465" />
    <use
       height="100%"
       id="rmid-use5836"
       transform="translate(-21.276909,21.717882)"
       width="100%"
       x="0"
       y="0"
       xlink:href="#rmid-use5828" />
    <use
       height="100%"
       id="rmid-use882"
       transform="translate(43.65625,-20.835937)"
       width="100%"
       x="0"
       y="0"
       xlink:href="#rmid-use5820" />
    <use
       height="100%"
       id="rmid-use884"
       transform="translate(102.63629,5.5121527)"
       width="100%"
       x="0"
       y="0"
       xlink:href="#rmid-use5814" />
    <use
       height="100%"
       id="rmid-use888"
       transform="translate(42.774304,-13.559896)"
       width="100%"
       x="0"
       y="0"
       xlink:href="#rmid-use5826" />
    <use
       height="100%"
       id="rmid-use890"
       transform="translate(38.915798,11.355035)"
       width="100%"
       x="0"
       y="0"
       xlink:href="#rmid-use5830" />
    <use
       height="100%"
       id="rmid-use892"
       transform="translate(-7.717014,7.3862848)"
       width="100%"
       x="0"
       y="0"
       xlink:href="#rmid-use884" />
    <use
       height="100%"
       id="rmid-use886"
       transform="translate(17.087674,-1.874132)"
       width="100%"
       x="0"
       y="0"
       xlink:href="#rmid-use5824" />
    <use
       height="100%"
       id="rmid-use894"
       transform="translate(-33.293402,15.213541)"
       width="100%"
       x="0"
       y="0"
       xlink:href="#rmid-use5816" />
    <use
       height="100%"
       id="rmid-use900"
       transform="translate(-23.261284,-7.8272569)"
       width="100%"
       x="0"
       y="0"
       xlink:href="#rmid-use2467" />
    <use
       height="100%"
       id="rmid-use896"
       transform="translate(3.3072917,27.891494)"
       width="100%"
       x="0"
       y="0"
       xlink:href="#rmid-use5808" />
    <use
       height="100%"
       id="rmid-use898"
       transform="translate(3.1970485,20.615451)"
       width="100%"
       x="0"
       y="0"
       xlink:href="#rmid-g4721" />
    <use
       height="100%"
       id="rmid-use902"
       transform="translate(-45.42014,22.37934)"
       width="100%"
       x="0"
       y="0"
       xlink:href="#rmid-use5836" />
    <use
       height="100%"
       id="rmid-use904"
       transform="translate(-65.153646,22.820313)"
       width="100%"
       x="0"
       y="0"
       xlink:href="#rmid-use5836" />
    <use
       height="100%"
       id="rmid-use906"
       transform="translate(-66.035589,36.380208)"
       width="100%"
       x="0"
       y="0"
       xlink:href="#rmid-use5826" />
    <use
       height="100%"
       id="rmid-use908"
       transform="translate(-59.53125,17.087674)"
       width="100%"
       x="0"
       y="0"
       xlink:href="#rmid-use2469" />
    <use
       height="100%"
       id="rmid-use910"
       transform="translate(4.4097223,20.064236)"
       width="100%"
       x="0"
       y="0"
       xlink:href="#rmid-use5818" />
    <use
       height="100%"
       id="rmid-use912"
       transform="translate(-23.040799,-0.22048611)"
       width="100%"
       x="0"
       y="0"
       xlink:href="#rmid-use910" />
    <use
       height="100%"
       id="rmid-use918"
       transform="translate(-42.553819,43.65625)"
       width="100%"
       x="0"
       y="0"
       xlink:href="#rmid-use882" />
    <use
       height="100%"
       id="rmid-use914"
       transform="translate(-31.309027,46.853298)"
       width="100%"
       x="0"
       y="0"
       xlink:href="#rmid-use5830" />
    <use
       height="100%"
       id="rmid-use920"
       transform="translate(-35.277777,-4.5199657)"
       width="100%"
       x="0"
       y="0"
       xlink:href="#rmid-use2469" />
    <use
       height="100%"
       id="rmid-use922"
       transform="translate(-30.868056,23.371528)"
       width="100%"
       x="0"
       y="0"
       xlink:href="#rmid-use5826" />
    <use
       height="100%"
       id="rmid-use924"
       transform="translate(22.599826,-16.867188)"
       width="100%"
       x="0"
       y="0"
       xlink:href="#rmid-use914" />
    <use
       height="100%"
       id="rmid-use928"
       transform="translate(23.8125,-1.5434028)"
       width="100%"
       x="0"
       y="0"
       xlink:href="#rmid-use918" />
    <use
       height="100%"
       id="rmid-use930"
       transform="translate(31.639756,-2.6458333)"
       width="100%"
       x="0"
       y="0"
       xlink:href="#rmid-use916" />
    <use
       height="100%"
       id="rmid-use934"
       transform="translate(-0.44097223,26.678819)"
       width="100%"
       x="0"
       y="0"
       xlink:href="#rmid-use5824" />
    <use
       height="100%"
       id="rmid-use936"
       transform="translate(20.247844,-16.487548)"
       width="100%"
       x="0"
       y="0"
       xlink:href="#rmid-use2473" />
    <use
       height="100%"
       id="rmid-use938"
       transform="translate(-28.442708,39.6875)"
       width="100%"
       x="0"
       y="0"
       xlink:href="#rmid-use892" />
    <use
       height="100%"
       id="rmid-use942"
       transform="translate(10.914062,-14.221354)"
       width="100%"
       x="0"
       y="0"
       xlink:href="#rmid-use934" />
    <use
       height="100%"
       id="rmid-use946"
       transform="translate(31.529515,-8.7092012)"
       width="100%"
       x="0"
       y="0"
       xlink:href="#rmid-use928" />
    <use
       height="100%"
       id="rmid-use940"
       transform="translate(-12.236979,27.560765)"
       width="100%"
       x="0"
       y="0"
       xlink:href="#rmid-use890" />
    <use
       height="100%"
       id="rmid-use944"
       transform="translate(-6.8350694,44.758681)"
       width="100%"
       x="0"
       y="0"
       xlink:href="#rmid-use884" />
    <use
       height="100%"
       id="rmid-use948"
       transform="translate(42.333333,9.4809027)"
       width="100%"
       x="0"
       y="0"
       xlink:href="#rmid-use2463" />
    <use
       height="100%"
       id="rmid-use950"
       transform="translate(21.828125,25.355903)"
       width="100%"
       x="0"
       y="0"
       xlink:href="#rmid-use892" />
    <use
       height="100%"
       id="rmid-use952"
       transform="translate(40.018229,10.583333)"
       width="100%"
       x="0"
       y="0"
       xlink:href="#rmid-use928" />
    <use
       height="100%"
       id="rmid-use954"
       transform="translate(-10.252604,17.528646)"
       width="100%"
       x="0"
       y="0"
       xlink:href="#rmid-use948" />
    <use
       height="100%"
       id="rmid-use1642"
       transform="translate(-20.969522,11.303274)"
       width="100%"
       x="0"
       y="0"
       xlink:href="#rmid-use952" />
    <use
       height="100%"
       id="rmid-use1648"
       transform="translate(29.310558,17.851377)"
       width="100%"
       x="0"
       y="0"
       xlink:href="#rmid-use934" />
    <use
       height="100%"
       id="rmid-use1644"
       transform="translate(2.3386084,25.646738)"
       width="100%"
       x="0"
       y="0"
       xlink:href="#rmid-use940" />
    <use
       height="100%"
       id="rmid-use2477"
       transform="translate(35.879986,-12.219072)"
       width="100%"
       x="0"
       y="0"
       xlink:href="#rmid-use2475" />
    <use
       height="100%"
       id="rmid-use1646"
       transform="translate(1.013397,30.401909)"
       width="100%"
       x="0"
       y="0"
       xlink:href="#rmid-use944" />
    <use
       height="100%"
       id="rmid-use1650"
       transform="translate(29.77828,38.353177)"
       width="100%"
       x="0"
       y="0"
       xlink:href="#rmid-use932" />
    <use
       height="100%"
       id="rmid-use1652"
       transform="translate(-8.0292221,29.544419)"
       width="100%"
       x="0"
       y="0"
       xlink:href="#rmid-use952" />
    <use
       height="100%"
       id="rmid-use1662"
       transform="translate(-1.1693042,23.464038)"
       width="100%"
       x="0"
       y="0"
       xlink:href="#rmid-use928" />
    <use
       height="100%"
       id="rmid-use1658"
       transform="translate(-2.1827011,28.531022)"
       width="100%"
       x="0"
       y="0"
       xlink:href="#rmid-use934" />
    <use
       height="100%"
       id="rmid-use1654"
       transform="translate(-31.883027,40.068157)"
       width="100%"
       x="0"
       y="0"
       xlink:href="#rmid-use940" />
    <use
       height="100%"
       id="rmid-use2475"
       transform="translate(9.7598228,19.811583)"
       width="100%"
       x="0"
       y="0"
       xlink:href="#rmid-use2473" />
    <use
       height="100%"
       id="rmid-use1656"
       transform="translate(-10.13397,3.9756342)"
       width="100%"
       x="0"
       y="0"
       xlink:href="#rmid-use1646" />
    <use
       height="100%"
       id="rmid-use1660"
       transform="translate(-2.1047475,13.17416)"
       width="100%"
       x="0"
       y="0"
       xlink:href="#rmid-use938" />
    <use
       height="100%"
       id="rmid-use1664"
       transform="translate(10.835552,13.797789)"
       width="100%"
       x="0"
       y="0"
       xlink:href="#rmid-use936" />
    <use
       height="100%"
       id="rmid-use1666"
       transform="translate(-21.203383,19.566357)"
       width="100%"
       x="0"
       y="0"
       xlink:href="#rmid-use1650" />
    <use
       height="100%"
       id="rmid-use1668"
       transform="translate(-3.0401909,19.254542)"
       width="100%"
       x="0"
       y="0"
       xlink:href="#rmid-use1652" />
    <use
       height="100%"
       id="rmid-use1672"
       transform="translate(3.1181445,31.72712)"
       width="100%"
       x="0"
       y="0"
       xlink:href="#rmid-use1648" />
    <use
       height="100%"
       id="rmid-use1670"
       transform="translate(10.36783,38.275223)"
       width="100%"
       x="0"
       y="0"
       xlink:href="#rmid-use1644" />
    <use
       height="100%"
       id="rmid-use1674"
       transform="translate(-18.708867,15.74663)"
       width="100%"
       x="0"
       y="0"
       xlink:href="#rmid-use1672" />
    <use
       height="100%"
       id="rmid-use1676"
       transform="translate(16.058444,35.936615)"
       width="100%"
       x="0"
       y="0"
       xlink:href="#rmid-use1646" />
    <use
       height="100%"
       id="rmid-use1682"
       transform="translate(-34.299589,-1.1693042)"
       width="100%"
       x="0"
       y="0"
       xlink:href="#rmid-use1662" />
    <use
       height="100%"
       id="rmid-use1678"
       transform="translate(-21.515197,-14.343465)"
       width="100%"
       x="0"
       y="0"
       xlink:href="#rmid-use1654" />
    <use
       height="100%"
       id="rmid-use1680"
       transform="translate(-30.63577,1.4811187)"
       width="100%"
       x="0"
       y="0"
       xlink:href="#rmid-use1660" />
    <use
       height="100%"
       id="rmid-use1686"
       transform="translate(-35.157079,12.628485)"
       width="100%"
       x="0"
       y="0"
       xlink:href="#rmid-use1662" />
    <use
       height="100%"
       id="rmid-use1684"
       transform="translate(-49.578497,6.0803817)"
       width="100%"
       x="0"
       y="0"
       xlink:href="#rmid-use1658" />
    <use
       height="100%"
       id="rmid-use1688"
       transform="translate(-33.598007,-6.4701498)"
       width="100%"
       x="0"
       y="0"
       xlink:href="#rmid-use1656" />
    <use
       height="100%"
       id="rmid-use1690"
       transform="translate(-28.297161,44.277652)"
       width="100%"
       x="0"
       y="0"
       xlink:href="#rmid-use928" />
    <use
       height="100%"
       id="rmid-use1704"
       transform="translate(-12.550532,-17.539563)"
       width="100%"
       x="0"
       y="0"
       xlink:href="#rmid-use1694" />
    <use
       height="100%"
       id="rmid-use1700"
       transform="translate(-12.784392,-16.526166)"
       width="100%"
       x="0"
       y="0"
       xlink:href="#rmid-use1698" />
    <use
       height="100%"
       id="rmid-use1692"
       transform="translate(-65.481034,-7.1717323)"
       width="100%"
       x="0"
       y="0"
       xlink:href="#rmid-use1654" />
    <use
       height="100%"
       id="rmid-use2471"
       transform="translate(-77.106529,47.76257)"
       width="100%"
       x="0"
       y="0"
       xlink:href="#rmid-use2469" />
    <use
       height="100%"
       id="rmid-use1696"
       transform="translate(-21.749058,0.62362893)"
       width="100%"
       x="0"
       y="0"
       xlink:href="#rmid-use1686" />
    <use
       height="100%"
       id="rmid-use1694"
       transform="translate(-19.332496,1.3252114)"
       width="100%"
       x="0"
       y="0"
       xlink:href="#rmid-use1684" />
    <use
       height="100%"
       id="rmid-use1698"
       transform="translate(-11.459181,17.305702)"
       width="100%"
       x="0"
       y="0"
       xlink:href="#rmid-use1680" />
    <use
       height="100%"
       id="rmid-use1702"
       transform="translate(14.88914,-9.8221551)"
       width="100%"
       x="0"
       y="0"
       xlink:href="#rmid-use1692" />
    <use
       height="100%"
       id="rmid-use1718"
       transform="translate(-2.1047475,-14.265511)"
       width="100%"
       x="0"
       y="0"
       xlink:href="#rmid-use1716" />
    <use
       height="100%"
       id="rmid-use1706"
       transform="translate(1.7929331,16.604119)"
       width="100%"
       x="0"
       y="0"
       xlink:href="#rmid-use1654" />
    <use
       height="100%"
       id="rmid-use1712"
       transform="translate(-12.9403,-7.8733148)"
       width="100%"
       x="0"
       y="0"
       xlink:href="#rmid-use1674" />
    <use
       height="100%"
       id="rmid-use1708"
       transform="translate(6.3921962,25.646739)"
       width="100%"
       x="0"
       y="0"
       xlink:href="#rmid-use1654" />
    <use
       height="100%"
       id="rmid-use1710"
       transform="translate(-0.77953612,8.5748973)"
       width="100%"
       x="0"
       y="0"
       xlink:href="#rmid-use1656" />
    <use
       height="100%"
       id="rmid-use1714"
       transform="translate(-20.112032,15.74663)"
       width="100%"
       x="0"
       y="0"
       xlink:href="#rmid-use1668" />
    <use
       height="100%"
       id="rmid-use1716"
       transform="translate(-18.864774,-5.4567529)"
       width="100%"
       x="0"
       y="0"
       xlink:href="#rmid-use1714" />
    <use
       height="100%"
       id="rmid-use1736"
       transform="translate(-30.791677,7.7174076)"
       width="100%"
       x="0"
       y="0"
       xlink:href="#rmid-use2475" />
    <use
       height="100%"
       id="rmid-use1722"
       transform="translate(-0.70158254,19.410449)"
       width="100%"
       x="0"
       y="0"
       xlink:href="#rmid-use1686" />
    <use
       height="100%"
       id="rmid-use1732"
       transform="translate(-2.026794,-7.7953612)"
       width="100%"
       x="0"
       y="0"
       xlink:href="#rmid-use1724" />
    <use
       height="100%"
       id="rmid-use1724"
       transform="translate(0.62362891,22.372687)"
       width="100%"
       x="0"
       y="0"
       xlink:href="#rmid-use1688" />
    <use
       height="100%"
       id="rmid-use1720"
       transform="translate(-24.867202,17.617516)"
       width="100%"
       x="0"
       y="0"
       xlink:href="#rmid-use1654" />
    <use
       height="100%"
       id="rmid-use1738"
       transform="translate(0.85748973,10.13397)"
       width="100%"
       x="0"
       y="0"
       xlink:href="#rmid-use1736" />
    <use
       height="100%"
       id="rmid-use1726"
       transform="translate(5.6126604,26.11446)"
       width="100%"
       x="0"
       y="0"
       xlink:href="#rmid-use1684" />
    <use
       height="100%"
       id="rmid-use1728"
       transform="translate(-1.7929332,29.77828)"
       width="100%"
       x="0"
       y="0"
       xlink:href="#rmid-use1688" />
    <use
       height="100%"
       id="rmid-use1730"
       transform="translate(-6.7040107,39.28862)"
       width="100%"
       x="0"
       y="0"
       xlink:href="#rmid-use1686" />
    <use
       height="100%"
       id="rmid-use1734"
       transform="translate(13.797789,34.221636)"
       width="100%"
       x="0"
       y="0"
       xlink:href="#rmid-use1684" />
    <use
       height="100%"
       id="rmid-use1742"
       transform="translate(-39.678389,-1.5590722)"
       width="100%"
       x="0"
       y="0"
       xlink:href="#rmid-use1722" />
    <use
       height="100%"
       id="rmid-use1744"
       transform="translate(-13.096207,8.3410365)"
       width="100%"
       x="0"
       y="0"
       xlink:href="#rmid-use1698" />
    <use
       height="100%"
       id="rmid-use1740"
       transform="translate(-37.33978,2.416562)"
       width="100%"
       x="0"
       y="0"
       xlink:href="#rmid-use1720" />
    <use
       height="100%"
       id="rmid-use1746"
       transform="translate(-13.563929,25.179017)"
       width="100%"
       x="0"
       y="0"
       xlink:href="#rmid-use1694" />
    <use
       height="100%"
       id="rmid-use1748"
       transform="translate(22.216779,0.23386084)"
       width="100%"
       x="0"
       y="0"
       xlink:href="#rmid-use1742" />
    <use
       height="100%"
       id="rmid-use1750"
       transform="translate(9.5882943,34.689358)"
       width="100%"
       x="0"
       y="0"
       xlink:href="#rmid-use1700" />
    <use
       height="100%"
       id="rmid-use1752"
       transform="translate(6.3921962,10.991459)"
       width="100%"
       x="0"
       y="0"
       xlink:href="#rmid-use1740" />
  </g>
</svg>
