<?xml version="1.0" encoding="UTF-8" standalone="no"?>
<svg
   xmlns:dc="http://purl.org/dc/elements/1.1/"
   xmlns:cc="http://creativecommons.org/ns#"
   xmlns:rdf="http://www.w3.org/1999/02/22-rdf-syntax-ns#"
   xmlns:svg="http://www.w3.org/2000/svg"
   xmlns="http://www.w3.org/2000/svg"
   xmlns:xlink="http://www.w3.org/1999/xlink"
   xmlns:sodipodi="http://sodipodi.sourceforge.net/DTD/sodipodi-0.dtd"
   xmlns:inkscape="http://www.inkscape.org/namespaces/inkscape"
   height="128mm"
   id="svg8"
   version="1.1"
   viewBox="0 0 128 128"
   width="128mm"
   sodipodi:docname="background.svg"
   inkscape:version="0.92.2 5c3e80d, 2017-08-06">
  <sodipodi:namedview
     bordercolor="#666666"
     borderopacity="1.0"
     id="rmid-base"
     pagecolor="#ffffff"
     showgrid="true"
     showguides="false"
     inkscape:current-layer="rmid-background"
     inkscape:cx="-77.704674"
     inkscape:cy="370.98289"
     inkscape:document-units="mm"
     inkscape:pageopacity="0.0"
     inkscape:pageshadow="2"
     inkscape:snap-global="false"
     inkscape:window-height="1059"
     inkscape:window-maximized="0"
     inkscape:window-width="1918"
     inkscape:window-x="1"
     inkscape:window-y="20"
     inkscape:zoom="0.5">
    <inkscape:grid
       id="rmid-grid882"
       spacingx="31.999999"
       spacingy="31.999999"
       type="xygrid"
       units="mm" />
  </sodipodi:namedview>
  <defs
     id="rmid-defs2" />
  <metadata
     id="rmid-metadata5">
    <rdf:RDF>
      <cc:Work
         rdf:about="">
        <dc:format>image/svg+xml</dc:format>
        <dc:type
           rdf:resource="http://purl.org/dc/dcmitype/StillImage" />
        <dc:title></dc:title>
      </cc:Work>
    </rdf:RDF>
  </metadata>
  <g
     id="rmid-background"
     inkscape:groupmode="layer"
     inkscape:label="rmid-background"
     sodipodi:insensitive="true">
    <g
       id="1_rmid-base">
      <rect
         height="32"
         id="1_rmid-base_bg"
         style="fill:#6c5353;stroke-width:1.17390001;stroke-linejoin:bevel"
         width="32"
         x="0"
         y="0" />
      <path
         d="M 0,0 C 0,0 1,0 1,0 1,0 0,1 0,1 0,1 0,0 0,0"
         id="1_rmid-base_p0"
         style="fill:#916f6f;stroke-width:0.099"
         inkscape:connector-curvature="0" />
      <path
         d="m 32,32 h -1 c 0.21,-0.43 0.56,-0.76 1,-1 v 1"
         id="1_rmid-base_p1"
         style="fill:#916f6f;stroke-width:0.099"
         sodipodi:nodetypes="cccc"
         inkscape:connector-curvature="0" />
      <path
         d="m 31,0 c 0,0 1,0 1,0 0,0 0,1 0,1 0,0 -2.63,1.88 -3.85,3.1 -1.22,1.2 -0.85,3.5 -2.43,5.1 -1.58,1.6 -5.15,2.5 -6.95,4.3 -1.8,1.8 -2.5,5.2 -4.28,7 C 12.7,22.3 9.458,22.2 7.835,23.9 6.212,25.5 6.049,28.3 4.793,29.5 3.537,30.8 1,32 1,32 c 0,0 -1,0 -1,0 0,0 0,-1 0,-1 0,0 2.529,-1.3 3.779,-2.6 1.251,-1.2 1.414,-3.8 3.023,-5.4 1.61,-1.6 5.008,-2.6 6.778,-4.4 1.77,-1.7 2.26,-4.7 4.07,-6.5 1.82,-1.8 5.19,-2.4 6.76,-4 1.57,-1.6 0.92,-4 2.14,-5.19 C 27.76,1.69 31,0 31,0 c 0,0 0,0 0,0"
         id="1_rmid-base_p2"
         style="fill:#916f6f;stroke-width:0.099"
         inkscape:connector-curvature="0" />
      <path
         d="M 7,0 C 7,0 9,0 9,0 9,0 6.568,1.54 5.499,2.61 4.431,3.68 4.117,5.9 3.118,6.9 2.119,7.9 0,9 0,9 0,9 0,7 0,7 0,7 1.357,6.5 2.184,5.6 3.011,4.8 3.653,2.69 4.533,1.81 5.412,0.93 7,0 7,0 7,0 7,0 7,0"
         id="1_rmid-base_p3"
         style="fill:#916f6f;stroke-width:0.099"
         inkscape:connector-curvature="0" />
      <path
         d="m 23,0 c 0,0 2,0 2,0 0,0 -3.28,2.05 -4.8,3.58 C 18.67,5.1 18.43,8.2 16.66,9.9 14.88,11.7 11.56,12.6 9.713,14.4 7.866,16.3 6.258,20.2 5.413,21 4.568,21.9 0,25 0,25 0,25 0,23 0,23 0,23 2.812,21.3 4.364,19.8 5.915,18.2 7.042,14.8 8.845,13 10.65,11.2 13.64,10.7 15.38,9 17.11,7.3 17.89,4.1 19.26,2.71 19.26,2.71 23,0 23,0"
         id="1_rmid-base_p4"
         style="fill:#916f6f;stroke-width:0.099"
         inkscape:connector-curvature="0" />
      <path
         d="m 15,0 c 0,0 2,0 2,0 0,0 -2.24,3.67 -3.63,5.1 C 11.98,6.4 10.42,6.5 8.772,7.9 7.121,9.3 5.707,12.4 4.241,13.9 2.775,15.3 0,17 0,17 0,17 0,15 0,15 0,15 1.701,13.9 2.976,12.6 4.252,11.3 6.027,8 7.623,6.6 9.219,5.2 10.98,5.2 12.2,3.99 13.43,2.75 15,0 15,0 c 0,0 0,0 0,0"
         id="1_rmid-base_p5"
         style="fill:#916f6f;stroke-width:0.099"
         inkscape:connector-curvature="0" />
      <path
         d="m 25,32 c 0,0 -2,0 -2,0 0,0 2.87,-1.9 3.98,-3 1.12,-1.1 0.69,-2.9 1.69,-3.9 C 29.66,24.1 32,23 32,23 c 0,0 0,2 0,2 0,0 -1.06,0.5 -1.91,1.4 -0.86,0.8 -1,2.9 -1.92,3.8 C 27.24,31.2 25,32 25,32 c 0,0 0,0 0,0"
         id="1_rmid-base_p6"
         style="fill:#916f6f;stroke-width:0.099"
         inkscape:connector-curvature="0" />
      <path
         d="m 9,32 c 0,0 -2,0 -2,0 0,0 2.599,-1.6 4.1,-3.1 1.5,-1.5 2.96,-4.9 4.72,-6.7 1.77,-1.7 4.11,-2.3 5.83,-4 1.72,-1.7 2.33,-4.8 4.16,-6.6 C 27.64,9.7 32,7 32,7 c 0,0 0,2 0,2 0,0 -3.44,2.3 -5.12,4 -1.68,1.7 -2.31,4.7 -4,6.4 -1.69,1.7 -4.52,2.2 -6.24,3.9 C 14.91,25.1 13.7,28.7 12.36,30 11.01,31.4 9,32 9,32 c 0,0 0,0 0,0"
         id="1_rmid-base_p7"
         style="fill:#916f6f;stroke-width:0.099"
         inkscape:connector-curvature="0" />
      <path
         d="m 17,32 c 0,0 -2,0 -2,0 0,0 1.41,-3 2.84,-4.4 1.42,-1.4 4.32,-1.5 6.26,-3.5 1.95,-1.9 3.27,-5.5 4.68,-7 C 30.19,15.7 32,15 32,15 c 0,0 0,2 0,2 0,0 -1.37,0.2 -2.64,1.5 -1.27,1.2 -2.71,5 -4.49,6.8 -1.78,1.7 -4.68,2.1 -5.92,3.3 C 17.72,29.8 17,32 17,32 c 0,0 0,0 0,0"
         id="1_rmid-base_p8"
         style="fill:#916f6f;stroke-width:0.099"
         inkscape:connector-curvature="0" />
    </g>
    <use
       height="100%"
       id="rmid-1i_00"
       width="100%"
       x="32"
       y="0"
       xlink:href="#1_rmid-base" />
    <use
       height="100%"
       id="rmid-1i_01"
       width="100%"
       x="64"
       y="0"
       xlink:href="#1_rmid-base" />
    <use
       height="100%"
       id="rmid-1i_02"
       width="100%"
       x="96"
       y="0"
       xlink:href="#1_rmid-base" />
    <use
       height="100%"
       id="rmid-1i_10"
       width="100%"
       x="0"
       y="32"
       xlink:href="#1_rmid-base" />
    <use
       height="100%"
       id="rmid-1i_11"
       width="100%"
       x="32"
       y="32"
       xlink:href="#1_rmid-base" />
    <use
       height="100%"
       id="rmid-1i_12"
       width="100%"
       x="64"
       y="32"
       xlink:href="#1_rmid-base" />
    <use
       height="100%"
       id="rmid-1i_13"
       width="100%"
       x="96"
       y="32"
       xlink:href="#1_rmid-base" />
    <use
       height="100%"
       id="rmid-1i_20"
       width="100%"
       x="0"
       y="64"
       xlink:href="#1_rmid-base" />
    <use
       height="100%"
       id="rmid-1i_21"
       width="100%"
       x="32"
       y="64"
       xlink:href="#1_rmid-base" />
    <use
       height="100%"
       id="rmid-1i_22"
       width="100%"
       x="64"
       y="64"
       xlink:href="#1_rmid-base" />
    <use
       height="100%"
       id="rmid-1i_23"
       width="100%"
       x="96"
       y="64"
       xlink:href="#1_rmid-base" />
    <use
       height="100%"
       id="rmid-1i_30"
       width="100%"
       x="0"
       y="96"
       xlink:href="#1_rmid-base" />
    <use
       height="100%"
       id="rmid-1i_31"
       width="100%"
       x="32"
       y="96"
       xlink:href="#1_rmid-base" />
    <use
       height="100%"
       id="rmid-1i_32"
       width="100%"
       x="64"
       y="96"
       xlink:href="#1_rmid-base" />
    <use
       height="100%"
       id="rmid-1i_33"
       width="100%"
       x="96"
       y="96"
       xlink:href="#1_rmid-base" />
  </g>
</svg>
