<?xml version="1.0" encoding="UTF-8" standalone="no"?>
<!-- Created with Inkscape (http://www.inkscape.org/) -->

<svg
   xmlns:dc="http://purl.org/dc/elements/1.1/"
   xmlns:cc="http://creativecommons.org/ns#"
   xmlns:rdf="http://www.w3.org/1999/02/22-rdf-syntax-ns#"
   xmlns:svg="http://www.w3.org/2000/svg"
   xmlns="http://www.w3.org/2000/svg"
   xmlns:xlink="http://www.w3.org/1999/xlink"
   xmlns:sodipodi="http://sodipodi.sourceforge.net/DTD/sodipodi-0.dtd"
   xmlns:inkscape="http://www.inkscape.org/namespaces/inkscape"
   width="96mm"
   height="32mm"
   viewBox="0 0 96 32"
   version="1.1"
   id="svg8"
   inkscape:version="0.92.2 5c3e80d, 2017-08-06"
   sodipodi:docname="arrows.svg">
  <defs
     id="defs2">
    <marker
       style="overflow:visible"
       id="DistanceStart"
       refX="0.0"
       refY="0.0"
       orient="auto"
       inkscape:stockid="DistanceStart"
       inkscape:isstock="true">
      <g
         id="g2300"
         style="stroke:#000000;stroke-opacity:1;fill:#000000;fill-opacity:1">
        <path
           style="fill:#000000;stroke:#000000;stroke-width:1.15;stroke-linecap:square;stroke-opacity:1;fill-opacity:1"
           d="M 0,0 L 2,0"
           id="path2306" />
        <path
           style="fill:#000000;fill-rule:evenodd;stroke:#000000;stroke-opacity:1;fill-opacity:1"
           d="M 0,0 L 13,4 L 9,0 13,-4 L 0,0 z "
           id="path2302" />
        <path
           style="fill:#000000;stroke:#000000;stroke-width:1;stroke-linecap:square;stroke-opacity:1;fill-opacity:1"
           d="M 0,-4 L 0,40"
           id="path2304" />
      </g>
    </marker>
    <marker
       inkscape:stockid="Arrow1Lend"
       orient="auto"
       refY="0.0"
       refX="0.0"
       id="Arrow1Lend"
       style="overflow:visible;"
       inkscape:isstock="true">
      <path
         id="path4539"
         d="M 0.0,0.0 L 5.0,-5.0 L -12.5,0.0 L 5.0,5.0 L 0.0,0.0 z "
         style="fill-rule:evenodd;stroke:#000000;stroke-width:1pt;stroke-opacity:1;fill:#000000;fill-opacity:1"
         transform="scale(0.8) rotate(180) translate(12.5,0)" />
    </marker>
  </defs>
  <sodipodi:namedview
     id="base"
     pagecolor="#ffffff"
     bordercolor="#666666"
     borderopacity="1.0"
     inkscape:pageopacity="0.0"
     inkscape:pageshadow="2"
     inkscape:zoom="3"
     inkscape:cx="169.05347"
     inkscape:cy="53.536873"
     inkscape:document-units="mm"
     inkscape:current-layer="layer1"
     showgrid="true"
     inkscape:snap-global="false"
     showguides="false"
     inkscape:window-width="1918"
     inkscape:window-height="1059"
     inkscape:window-x="1"
     inkscape:window-y="20"
     inkscape:window-maximized="0"
     inkscape:snap-bbox="true">
    <inkscape:grid
       type="xygrid"
       id="grid3688"
       units="mm"
       spacingx="31.999999"
       spacingy="31.999999" />
  </sodipodi:namedview>
  <metadata
     id="metadata5">
    <rdf:RDF>
      <cc:Work
         rdf:about="">
        <dc:format>image/svg+xml</dc:format>
        <dc:type
           rdf:resource="http://purl.org/dc/dcmitype/StillImage" />
        <dc:title />
      </cc:Work>
    </rdf:RDF>
  </metadata>
  <g
     inkscape:label="background"
     inkscape:groupmode="layer"
     id="layer1"
     transform="translate(0,-265)">
    <rect
       style="fill:#917c6f;stroke-width:0.27229193"
       id="rect3690"
       width="56"
       height="16"
       x="3.1789146e-08"
       y="273" />
    <rect
       style="fill:#917c6f;stroke-width:0.10355791"
       id="rect3690-1"
       width="16"
       height="8.1000004"
       x="40"
       y="265" />
    <rect
       style="fill:#917c6f;stroke-width:0.05145834"
       id="rect3690-5"
       width="2"
       height="16"
       x="64"
       y="273" />
    <path
       sodipodi:type="star"
       style="fill:#917c6f;stroke-width:0.26458332"
       id="path3810"
       sodipodi:sides="3"
       sodipodi:cx="83.988899"
       sodipodi:cy="280.48288"
       sodipodi:r1="16.177805"
       sodipodi:r2="8.0889015"
       sodipodi:arg1="-2.0943951"
       sodipodi:arg2="-1.0471976"
       inkscape:flatsided="false"
       inkscape:rounded="0"
       inkscape:randomized="0"
       d="m 75.899997,266.47249 12.133353,7.0052 12.13335,7.00519 -12.13335,7.00519 -12.133353,7.0052 10e-7,-14.01039 z"
       inkscape:transform-center-x="-2.3333332"
       transform="matrix(0.57692211,0,0,0.9278828,22.111614,20.74476)" />
  </g>
  <g
     inkscape:groupmode="layer"
     id="layer2"
     inkscape:label="stripes">
    <rect
       style="fill:#ffeeaa;stroke-width:0.26114005"
       id="rect3695"
       width="32"
       height="2.5"
       x="0"
       y="19.5" />
    <use
       x="0"
       y="0"
       xlink:href="#rect3695"
       id="use3712"
       transform="translate(0,-9.5)"
       width="100%"
       height="100%" />
    <use
       x="0"
       y="0"
       xlink:href="#rect3695"
       id="use3759"
       transform="translate(22)"
       width="100%"
       height="100%" />
    <use
       x="0"
       y="0"
       xlink:href="#use3759"
       id="use3761"
       transform="translate(-9.5,-9.5)"
       width="100%"
       height="100%" />
    <use
       x="0"
       y="0"
       xlink:href="#use3759"
       id="use3761-1"
       transform="matrix(0.078125,0,0,4.04,40.28125,-78.78)"
       width="100%"
       height="100%" />
    <use
       x="0"
       y="0"
       xlink:href="#use3759"
       id="use3761-1-7"
       transform="matrix(0.078125,0,0,7.84,49.78125,-152.88)"
       width="100%"
       height="100%" />
    <path
       style="fill:#ffeeaa;fill-opacity:1;stroke:none;stroke-width:0.26458332px;stroke-linecap:butt;stroke-linejoin:miter;stroke-opacity:1"
       d="m 64,19.5 c 2.927361,-2.927361 1.00115,-8.428511 5,-9.5 3.318077,0.889076 5.252082,3.252082 8,6 -2.744825,2.744825 -4.671289,5.108075 -8,6 -3.99885,-1.071489 -2.072639,-6.572639 -5,-9.5 V 10 c 3.99885,1.071489 2.087078,6.587078 5,9.5 2.314803,0 3.842296,-1.494798 5,-3.5 -1.155443,-2.001287 -2.763488,-4.099272 -5,-3.5 -2.916532,2.916532 -1.00115,8.428511 -5,9.5 z"
       id="path4515"
       inkscape:connector-curvature="0"
       sodipodi:nodetypes="ccccccccccc" />
    <path
       style="fill:#917c6f;fill-opacity:1;stroke:none;stroke-width:0.364494px;stroke-linecap:butt;stroke-linejoin:miter;stroke-opacity:1"
       d="m 66.479408,12.453395 0.833857,3.592155 0.474608,-1.065229 -0.834423,-3.600509 z"
       id="path4832"
       inkscape:connector-curvature="0"
       sodipodi:nodetypes="ccccc" />
    <use
       x="0"
       y="0"
       xlink:href="#path4832"
       id="use4834"
       transform="translate(-1.25474,4.6243127)"
       width="100%"
       height="100%" />
  </g>
</svg>
