<?xml version="1.0" encoding="UTF-8" standalone="no"?>
<!-- Created with Inkscape (http://www.inkscape.org/) -->

<svg
   xmlns:dc="http://purl.org/dc/elements/1.1/"
   xmlns:cc="http://creativecommons.org/ns#"
   xmlns:rdf="http://www.w3.org/1999/02/22-rdf-syntax-ns#"
   xmlns:svg="http://www.w3.org/2000/svg"
   xmlns="http://www.w3.org/2000/svg"
   xmlns:xlink="http://www.w3.org/1999/xlink"
   xmlns:sodipodi="http://sodipodi.sourceforge.net/DTD/sodipodi-0.dtd"
   xmlns:inkscape="http://www.inkscape.org/namespaces/inkscape"
   width="96mm"
   height="32mm"
   viewBox="0 0 96 32"
   version="1.1"
   id="svg8"
   inkscape:version="0.92.1 r15371"
   sodipodi:docname="arrows_celtic.svg">
  <defs
     id="defs2">
    <marker
       style="overflow:visible"
       id="DistanceStart"
       refX="0.0"
       refY="0.0"
       orient="auto"
       inkscape:stockid="DistanceStart"
       inkscape:isstock="true">
      <g
         id="g2300"
         style="stroke:#000000;stroke-opacity:1;fill:#000000;fill-opacity:1">
        <path
           style="fill:#000000;stroke:#000000;stroke-width:1.15;stroke-linecap:square;stroke-opacity:1;fill-opacity:1"
           d="M 0,0 L 2,0"
           id="path2306" />
        <path
           style="fill:#000000;fill-rule:evenodd;stroke:#000000;stroke-opacity:1;fill-opacity:1"
           d="M 0,0 L 13,4 L 9,0 13,-4 L 0,0 z "
           id="path2302" />
        <path
           style="fill:#000000;stroke:#000000;stroke-width:1;stroke-linecap:square;stroke-opacity:1;fill-opacity:1"
           d="M 0,-4 L 0,40"
           id="path2304" />
      </g>
    </marker>
    <marker
       inkscape:stockid="Arrow1Lend"
       orient="auto"
       refY="0.0"
       refX="0.0"
       id="Arrow1Lend"
       style="overflow:visible;"
       inkscape:isstock="true">
      <path
         id="path4539"
         d="M 0.0,0.0 L 5.0,-5.0 L -12.5,0.0 L 5.0,5.0 L 0.0,0.0 z "
         style="fill-rule:evenodd;stroke:#000000;stroke-width:1pt;stroke-opacity:1;fill:#000000;fill-opacity:1"
         transform="scale(0.8) rotate(180) translate(12.5,0)" />
    </marker>
  </defs>
  <sodipodi:namedview
     id="base"
     pagecolor="#ffffff"
     bordercolor="#666666"
     borderopacity="1.0"
     inkscape:pageopacity="0.0"
     inkscape:pageshadow="2"
     inkscape:zoom="4.9303125"
     inkscape:cx="264.85531"
     inkscape:cy="56.251765"
     inkscape:document-units="mm"
     inkscape:current-layer="layer1"
     showgrid="true"
     inkscape:snap-global="false"
     showguides="false"
     inkscape:window-width="2560"
     inkscape:window-height="1377"
     inkscape:window-x="-8"
     inkscape:window-y="-8"
     inkscape:window-maximized="1"
     inkscape:snap-bbox="true">
    <inkscape:grid
       type="xygrid"
       id="grid3688"
       units="mm"
       spacingx="31.999999"
       spacingy="31.999999" />
  </sodipodi:namedview>
  <metadata
     id="metadata5">
    <rdf:RDF>
      <cc:Work
         rdf:about="">
        <dc:format>image/svg+xml</dc:format>
        <dc:type
           rdf:resource="http://purl.org/dc/dcmitype/StillImage" />
        <dc:title></dc:title>
      </cc:Work>
    </rdf:RDF>
  </metadata>
  <g
     inkscape:label="background"
     inkscape:groupmode="layer"
     id="layer1"
     transform="translate(0,-265)">
    <rect
       style="fill:#2ca089;stroke-width:0.27229193"
       id="rect3690"
       width="56"
       height="16"
       x="3.1789146e-008"
       y="273" />
    <rect
       style="fill:#2ca089;stroke-width:0.10355791"
       id="rect3690-1"
       width="16"
       height="8.1000004"
       x="40"
       y="265" />
    <rect
       style="fill:#2ca089;stroke-width:0.05145834"
       id="rect3690-5"
       width="2"
       height="16"
       x="64"
       y="273" />
    <path
       sodipodi:type="star"
       style="fill:#2ca089;stroke-width:0.26458332"
       id="path3810"
       sodipodi:sides="3"
       sodipodi:cx="83.988899"
       sodipodi:cy="280.48288"
       sodipodi:r1="16.177805"
       sodipodi:r2="8.0889015"
       sodipodi:arg1="-2.0943951"
       sodipodi:arg2="-1.0471976"
       inkscape:flatsided="false"
       inkscape:rounded="0"
       inkscape:randomized="0"
       d="m 75.899997,266.47249 12.133353,7.0052 12.13335,7.00519 -12.13335,7.00519 -12.133353,7.0052 10e-7,-14.01039 z"
       inkscape:transform-center-x="-3.3333327"
       transform="matrix(0.82417444,0,0,0.9278828,3.3451627,20.74476)" />
  </g>
  <g
     inkscape:groupmode="layer"
     id="layer2"
     inkscape:label="stripes">
    <rect
       style="fill:#87decd;stroke-width:0.26114005"
       id="rect3695"
       width="32"
       height="2.5"
       x="0"
       y="19.5" />
    <use
       x="0"
       y="0"
       xlink:href="#rect3695"
       id="use3712"
       transform="translate(0,-9.5)"
       width="100%"
       height="100%" />
    <use
       x="0"
       y="0"
       xlink:href="#rect3695"
       id="use3759"
       transform="translate(22)"
       width="100%"
       height="100%" />
    <use
       x="0"
       y="0"
       xlink:href="#use3759"
       id="use3761"
       transform="translate(-9.5,-9.5)"
       width="100%"
       height="100%" />
    <use
       x="0"
       y="0"
       xlink:href="#use3759"
       id="use3761-1"
       transform="matrix(0.078125,0,0,4.04,40.28125,-78.78)"
       width="100%"
       height="100%" />
    <use
       x="0"
       y="0"
       xlink:href="#use3759"
       id="use3761-1-7"
       transform="matrix(0.078125,0,0,7.84,49.78125,-152.88)"
       width="100%"
       height="100%" />
    <path
       style="fill:#87decd;fill-opacity:1;stroke:none;stroke-width:0.26458332px;stroke-linecap:butt;stroke-linejoin:miter;stroke-opacity:1"
       d="m 64,19.5 c 3.99885,-1.071489 4.414729,-7.430043 8,-9.5 3.754845,1.006108 6.245155,4.993892 10,6 -3.754845,1.006108 -6.245155,4.993892 -10,6 -3.585271,-2.069957 -4.00115,-8.428511 -8,-9.5 V 10 c 3.99885,1.071489 4.414729,7.430043 8,9.5 2.236512,0.599272 4.763488,-2.900728 7,-3.5 -2.236512,-0.599272 -4.763488,-4.099272 -7,-3.5 -3.585271,2.069957 -4.00115,8.428511 -8,9.5 z"
       id="path4515" />
    <path
       style="fill:#2ca089;fill-opacity:1;stroke:none;stroke-width:0.26458332px;stroke-linecap:butt;stroke-linejoin:miter;stroke-opacity:1"
       d="m 68.329288,14.70779 0.707979,1.315712 0.325792,-0.432305 -0.7581,-1.378364 z"
       id="path4832"
       inkscape:connector-curvature="0"
       sodipodi:nodetypes="ccccc" />
    <use
       x="0"
       y="0"
       xlink:href="#path4832"
       id="use4834"
       transform="translate(-0.94605928,1.7668127)"
       width="100%"
       height="100%" />
  </g>
</svg>
