<?xml version="1.0" encoding="UTF-8" standalone="no"?>
<!-- Created with Inkscape (http://www.inkscape.org/) -->

<svg
   xmlns:dc="http://purl.org/dc/elements/1.1/"
   xmlns:cc="http://creativecommons.org/ns#"
   xmlns:rdf="http://www.w3.org/1999/02/22-rdf-syntax-ns#"
   xmlns:svg="http://www.w3.org/2000/svg"
   xmlns="http://www.w3.org/2000/svg"
   xmlns:xlink="http://www.w3.org/1999/xlink"
   xmlns:sodipodi="http://sodipodi.sourceforge.net/DTD/sodipodi-0.dtd"
   xmlns:inkscape="http://www.inkscape.org/namespaces/inkscape"
   width="32mm"
   height="32mm"
   viewBox="0 0 32 32"
   version="1.1"
   id="svg8"
   inkscape:version="0.92.2 5c3e80d, 2017-08-06"
   sodipodi:docname="pawprintsi3.svg">
  <defs
     id="defs2" />
  <sodipodi:namedview
     id="base"
     pagecolor="#ffffff"
     bordercolor="#666666"
     borderopacity="1.0"
     inkscape:pageopacity="0.0"
     inkscape:pageshadow="2"
     inkscape:zoom="3.959798"
     inkscape:cx="49.980559"
     inkscape:cy="34.26108"
     inkscape:document-units="mm"
     inkscape:current-layer="layer2"
     showgrid="false"
     inkscape:window-width="1678"
     inkscape:window-height="1029"
     inkscape:window-x="1"
     inkscape:window-y="516"
     inkscape:window-maximized="0"
     inkscape:pagecheckerboard="true" />
  <metadata
     id="metadata5">
    <rdf:RDF>
      <cc:Work
         rdf:about="">
        <dc:format>image/svg+xml</dc:format>
        <dc:type
           rdf:resource="http://purl.org/dc/dcmitype/StillImage" />
        <dc:title></dc:title>
      </cc:Work>
    </rdf:RDF>
  </metadata>
  <g
     inkscape:groupmode="layer"
     id="layer2"
     inkscape:label="Layer 2"
     style="display:none">
    <path
       style="opacity:1;fill:#ffffff;fill-opacity:1;stroke:none;stroke-width:1.40220475;stroke-linecap:butt;stroke-linejoin:round;stroke-miterlimit:4;stroke-dasharray:none;stroke-opacity:1;paint-order:normal"
       d="M 0,0 V 120.94531 H 120.94531 V 0 Z m 41.615234,21.849609 a 9.7560725,13.658504 29.812375 0 1 3.529297,0.951172 9.7560725,13.658504 29.812375 0 1 1.673828,16.701172 A 9.7560725,13.658504 29.812375 0 1 31.5625,46.503906 9.7560725,13.658504 29.812375 0 1 29.888672,29.802734 9.7560725,13.658504 29.812375 0 1 41.615234,21.849609 Z m 27.908204,0.791016 a 9.7560727,13.658504 37.424364 0 1 4.417968,1.509766 9.7560727,13.658504 37.424364 0 1 -0.552734,16.77539 9.7560727,13.658504 37.424364 0 1 -16.048828,4.917969 9.7560727,13.658504 37.424364 0 1 0.552734,-16.775391 9.7560727,13.658504 37.424364 0 1 11.63086,-6.427734 z m 20.341796,19.755859 a 9.7560728,13.658504 52.866395 0 1 7.179688,3.087891 9.7560728,13.658504 52.866395 0 1 -4.998047,16.023437 9.7560728,13.658504 52.866395 0 1 -16.779297,0.466797 9.7560728,13.658504 52.866395 0 1 5,-16.023437 9.7560728,13.658504 52.866395 0 1 9.597656,-3.554688 z m -36.126953,8.597657 c 3.388294,0.06807 6.886044,1.574045 11.6875,6.615234 11.818462,12.409576 2.302984,18.878822 2.28711,30.126953 -0.01599,11.248135 -24.884546,15.716462 -26.376953,6.09375 C 39.593545,82.594601 38.70942,82.43587 26.333984,78.785156 13.958269,75.134329 22.070609,52.485868 35.875,53.351562 c 8.196383,0.513983 12.911159,-2.456913 17.863281,-2.357421 z m 37.564453,21.945312 a 9.7560729,13.658504 65.375425 0 1 8.761716,4.841797 9.7560729,13.658504 65.375425 0 1 -8.351559,14.560547 9.7560729,13.658504 65.375425 0 1 -16.482422,-3.177735 9.7560729,13.658504 65.375425 0 1 8.351562,-14.560546 9.7560729,13.658504 65.375425 0 1 7.720703,-1.664063 z"
       transform="scale(0.26458333)"
       id="rect950"
       inkscape:connector-curvature="0" />
  </g>
  <g
     inkscape:label="Layer 1"
     inkscape:groupmode="layer"
     id="layer1"
     transform="translate(0,-265)"
     style="display:inline"
     sodipodi:insensitive="true">
    <g
       id="g947"
       transform="matrix(1.100568,1.1037005,-1.1037005,1.100568,323.12892,-47.049468)">
      <ellipse
         transform="rotate(-15.269049)"
         ry="2.3185458"
         rx="1.656104"
         cy="278.6438"
         cx="-71.76931"
         id="path815"
         style="opacity:1;fill:#000000;fill-opacity:1;stroke:none;stroke-width:0.37077442;stroke-linecap:butt;stroke-linejoin:round;stroke-miterlimit:4;stroke-dasharray:none;stroke-opacity:1;paint-order:normal" />
      <use
         transform="rotate(7.6119885,30.142915,310.98335)"
         height="100%"
         width="100%"
         id="use817"
         xlink:href="#path815"
         y="0"
         x="0"
         style="fill:#000000;stroke:none;stroke-width:0.2;stroke-miterlimit:4;stroke-dasharray:none;stroke-opacity:1" />
      <use
         transform="rotate(15.442031,10.627428,301.73172)"
         height="100%"
         width="100%"
         id="use819"
         xlink:href="#use817"
         y="0"
         x="0"
         style="fill:#000000;stroke:none;stroke-width:0.2;stroke-miterlimit:4;stroke-dasharray:none;stroke-opacity:1" />
      <use
         transform="rotate(12.50903,-1.4011846,303.06723)"
         height="100%"
         width="100%"
         id="use821"
         xlink:href="#use819"
         y="0"
         x="0"
         style="fill:#000000;stroke:none;stroke-width:0.2;stroke-miterlimit:4;stroke-dasharray:none;stroke-opacity:1" />
      <path
         sodipodi:nodetypes="zzszzz"
         inkscape:connector-curvature="0"
         id="path823"
         d="m 6.0960684,290.24753 c -1.7586733,1.55556 -0.00849,5.24544 1.9137203,4.19544 1.9221629,-1.04998 2.0472473,-1.13722 3.6066263,4e-5 1.335557,0.974 3.77909,-2.55093 2.428952,-3.90107 -1.350138,-1.35014 -0.987055,-3.26954 -3.895296,-3.33636 -2.9082424,-0.0667 -2.2953294,1.48638 -4.0540026,3.04195 z"
         style="fill:#000000;stroke:none;stroke-width:0.37077442;stroke-linecap:butt;stroke-linejoin:miter;stroke-miterlimit:4;stroke-dasharray:none;stroke-opacity:1" />
    </g>
  </g>
</svg>
