<?xml version="1.0" encoding="UTF-8" standalone="no"?>
<!-- Created with Inkscape (http://www.inkscape.org/) -->

<svg
   xmlns:dc="http://purl.org/dc/elements/1.1/"
   xmlns:cc="http://creativecommons.org/ns#"
   xmlns:rdf="http://www.w3.org/1999/02/22-rdf-syntax-ns#"
   xmlns:svg="http://www.w3.org/2000/svg"
   xmlns="http://www.w3.org/2000/svg"
   xmlns:xlink="http://www.w3.org/1999/xlink"
   xmlns:sodipodi="http://sodipodi.sourceforge.net/DTD/sodipodi-0.dtd"
   xmlns:inkscape="http://www.inkscape.org/namespaces/inkscape"
   width="56.263699mm"
   height="41.731739mm"
   viewBox="0 0 56.263697 41.73174"
   version="1.1"
   id="svg8"
   inkscape:version="0.92.2 5c3e80d, 2017-08-06"
   sodipodi:docname="to-logo.svg">
  <defs
     id="defs2" />
  <sodipodi:namedview
     id="base"
     pagecolor="#ffffff"
     bordercolor="#666666"
     borderopacity="1.0"
     inkscape:pageopacity="0.0"
     inkscape:pageshadow="2"
     inkscape:zoom="4"
     inkscape:cx="145.83061"
     inkscape:cy="92.841033"
     inkscape:document-units="mm"
     inkscape:current-layer="layer1"
     showgrid="false"
     inkscape:snap-global="false"
     showguides="true"
     inkscape:window-width="1918"
     inkscape:window-height="1059"
     inkscape:window-x="1"
     inkscape:window-y="20"
     inkscape:window-maximized="0"
     fit-margin-top="0"
     fit-margin-left="0"
     fit-margin-right="0"
     fit-margin-bottom="0" />
  <metadata
     id="metadata5">
    <rdf:RDF>
      <cc:Work
         rdf:about="">
        <dc:format>image/svg+xml</dc:format>
        <dc:type
           rdf:resource="http://purl.org/dc/dcmitype/StillImage" />
        <dc:title />
      </cc:Work>
    </rdf:RDF>
  </metadata>
  <g
     inkscape:label="Layer 1"
     inkscape:groupmode="layer"
     id="layer1"
     transform="translate(-1.3612526,-49.782467)">
    <g
       aria-label="nline"
       style="font-style:normal;font-variant:normal;font-weight:normal;font-stretch:normal;font-size:10.58333302px;line-height:125%;font-family:Bubble_Runes;-inkscape-font-specification:Bubble_Runes;letter-spacing:0px;word-spacing:0px;fill:#e9ddaf;fill-opacity:1;stroke:#a0892c;stroke-width:0.26499999;stroke-linecap:butt;stroke-linejoin:round;stroke-miterlimit:4;stroke-dasharray:none;stroke-opacity:1;paint-order:markers stroke fill"
       id="text1280"
       transform="translate(0,-1.5875)">
      <path
         d="m 32.889675,81.781917 h -1.839681 l 0.02067,-0.482313 q 0.564995,-1.040419 0.564995,-2.204861 0,-1.515842 -1.378038,-1.515842 -0.310058,0 -0.72347,0.254937 -0.35829,0.220486 -0.35829,0.37896 v 2.604492 q 0,0.206706 0.130914,0.372071 l 0.392741,0.261827 0.06201,0.330729 H 27.63246 l 0.323839,-0.310058 q 0.144694,-0.165365 0.144694,-0.378961 v -3.369303 q 0,-0.248047 -0.461643,-0.695909 h 1.536512 v 0.37896 q 0.757921,-0.468533 1.743219,-0.468533 1.061089,0 1.736328,1.109321 0.172254,0.461643 0.172254,1.061089 0,0.475423 -0.502983,1.570964 l -0.02067,0.124023 q 0.0069,0.172255 0.454753,0.592556 z"
         style="font-style:normal;font-variant:normal;font-weight:normal;font-stretch:normal;font-size:14.11111069px;font-family:'Dumbledor 3';-inkscape-font-specification:'Dumbledor 3, ';fill:#e9ddaf;fill-opacity:1;stroke:#a0892c;stroke-width:0.26499999;stroke-linejoin:round;stroke-miterlimit:4;stroke-dasharray:none;stroke-opacity:1;paint-order:markers stroke fill"
         id="path4582"
         inkscape:connector-curvature="0" />
      <path
         d="m 36.066053,81.699235 h -2.067057 q 0.282498,-0.37207 0.35829,-0.613227 l 0.04134,-0.564996 V 75.02264 q 0,-0.509874 -0.502984,-0.509874 -0.179145,0 -0.502984,0.07579 0.316949,-0.502984 1.012858,-0.764811 0.330729,-0.124024 1.254015,-0.316949 v 7.014214 q 0,0.482314 0.04823,0.640788 0.05512,0.186035 0.35829,0.537435 z"
         style="font-style:normal;font-variant:normal;font-weight:normal;font-stretch:normal;font-size:14.11111069px;font-family:'Dumbledor 3';-inkscape-font-specification:'Dumbledor 3, ';fill:#e9ddaf;fill-opacity:1;stroke:#a0892c;stroke-width:0.26499999;stroke-linejoin:round;stroke-miterlimit:4;stroke-dasharray:none;stroke-opacity:1;paint-order:markers stroke fill"
         id="path4584"
         inkscape:connector-curvature="0" />
      <path
         d="m 38.560302,75.525624 q 0,0.482313 -0.695909,0.551215 -0.654568,0 -0.72347,-0.537435 0,-0.516764 0.7028,-0.544325 0.633897,-0.02756 0.716579,0.530545 z m 0.06201,1.426269 v 4.051433 q 0,0.165364 0.04134,0.254937 0.02067,0.08268 0.392741,0.434082 h -1.956814 l 0.316949,-0.310059 q 0.130913,-0.165364 0.130913,-0.37896 v -2.962782 q 0,-0.206706 -0.303168,-0.620118 -0.282498,-0.38585 -0.454753,-0.475423 z"
         style="font-style:normal;font-variant:normal;font-weight:normal;font-stretch:normal;font-size:14.11111069px;font-family:'Dumbledor 3';-inkscape-font-specification:'Dumbledor 3, ';fill:#e9ddaf;fill-opacity:1;stroke:#a0892c;stroke-width:0.26499999;stroke-linejoin:round;stroke-miterlimit:4;stroke-dasharray:none;stroke-opacity:1;paint-order:markers stroke fill"
         id="path4586"
         inkscape:connector-curvature="0" />
      <path
         d="m 44.795925,81.781917 h -1.839681 l 0.02067,-0.482313 q 0.564995,-1.040419 0.564995,-2.204861 0,-1.515842 -1.378038,-1.515842 -0.310058,0 -0.72347,0.254937 -0.35829,0.220486 -0.35829,0.37896 v 2.604492 q 0,0.206706 0.130914,0.372071 l 0.392741,0.261827 0.06201,0.330729 H 39.53871 l 0.323839,-0.310058 q 0.144694,-0.165365 0.144694,-0.378961 v -3.369303 q 0,-0.248047 -0.461643,-0.695909 h 1.536512 v 0.37896 q 0.757921,-0.468533 1.743219,-0.468533 1.061089,0 1.736328,1.109321 0.172254,0.461643 0.172254,1.061089 0,0.475423 -0.502983,1.570964 l -0.02067,0.124023 q 0.0069,0.172255 0.454753,0.592556 z"
         style="font-style:normal;font-variant:normal;font-weight:normal;font-stretch:normal;font-size:14.11111069px;font-family:'Dumbledor 3';-inkscape-font-specification:'Dumbledor 3, ';fill:#e9ddaf;fill-opacity:1;stroke:#a0892c;stroke-width:0.26499999;stroke-linejoin:round;stroke-miterlimit:4;stroke-dasharray:none;stroke-opacity:1;paint-order:markers stroke fill"
         id="path4588"
         inkscape:connector-curvature="0" />
      <path
         d="m 50.376979,79.818213 c -0.473127,1.332103 -1.31373,1.998155 -2.52181,1.998155 -0.702799,0 -1.304543,-0.241157 -1.80523,-0.72347 -0.500687,-0.482313 -0.751031,-1.072573 -0.751031,-1.770779 0,-0.767108 0.22508,-1.375742 0.675239,-1.825901 0.450159,-0.450159 1.058793,-0.675238 1.8259,-0.675238 0.58337,0 1.049606,0.149287 1.398709,0.447862 0.307762,0.266421 0.567293,0.689019 0.778592,1.267795 l -3.513998,0.627008 0.02757,0.03445 c 0,0.546621 0.156178,1.005967 0.468533,1.378038 0.330729,0.399631 0.762515,0.599446 1.295356,0.599446 0.431785,0 0.845197,-0.130914 1.240234,-0.392741 0.376664,-0.248047 0.670646,-0.569589 0.881945,-0.964626 z m -1.598524,-1.688097 c -0.05512,-0.248047 -0.197517,-0.445565 -0.427192,-0.592556 -0.22508,-0.151585 -0.46394,-0.2113 -0.71658,-0.179145 -0.385851,0.05053 -0.675239,0.229672 -0.868164,0.537435 -0.101056,0.234266 -0.202112,0.466236 -0.303169,0.695909 z"
         style="font-style:normal;font-variant:normal;font-weight:normal;font-stretch:normal;font-size:14.11111069px;font-family:'Dumbledor 3';-inkscape-font-specification:'Dumbledor 3, ';fill:#e9ddaf;fill-opacity:1;stroke:#a0892c;stroke-width:0.26499999;stroke-linejoin:round;stroke-miterlimit:4;stroke-dasharray:none;stroke-opacity:1;paint-order:markers stroke fill"
         id="path4590"
         inkscape:connector-curvature="0"
         sodipodi:nodetypes="cssssscccccsccccccccc" />
    </g>
    <g
       id="g1276"
       transform="rotate(-24.218537,1.3511771,117.1828)">
      <path
         inkscape:connector-curvature="0"
         id="path922"
         d="m 41.030154,88.728723 a 8.233679,8.2336796 0 0 1 -8.233679,8.233679 8.233679,8.2336796 0 0 1 -8.233679,-8.233679 8.233679,8.2336796 0 0 1 8.233679,-8.23368 8.233679,8.2336796 0 0 1 8.233679,8.23368 z"
         style="opacity:1;vector-effect:none;fill:#e9ddaf;fill-opacity:1;stroke:#a0892c;stroke-width:0.25600001;stroke-linecap:butt;stroke-linejoin:miter;stroke-miterlimit:4;stroke-dasharray:none;stroke-dashoffset:0;stroke-opacity:1;paint-order:normal" />
      <path
         inkscape:connector-curvature="0"
         id="path922-6"
         d="m 40.059691,88.728723 a 7.2632165,7.2632172 0 0 1 -7.263216,7.263214 7.2632165,7.2632172 0 0 1 -7.263216,-7.263214 7.2632165,7.2632172 0 0 1 7.263216,-7.263217 7.2632165,7.2632172 0 0 1 7.263216,7.263217 z"
         style="opacity:1;vector-effect:none;fill:#e9ddaf;fill-opacity:1;stroke:#a0892c;stroke-width:0.1;stroke-linecap:butt;stroke-linejoin:miter;stroke-miterlimit:4;stroke-dasharray:none;stroke-dashoffset:0;stroke-opacity:1;paint-order:normal" />
      <path
         sodipodi:nodetypes="cc"
         inkscape:connector-curvature="0"
         id="path945"
         d="m 27.01118,84.308161 v 8.779734"
         style="fill:none;fill-rule:evenodd;stroke:#a0892c;stroke-width:0.1;stroke-linecap:butt;stroke-linejoin:miter;stroke-miterlimit:4;stroke-dasharray:none;stroke-opacity:1" />
      <use
         style="stroke-width:0.10036709;stroke-miterlimit:4;stroke-dasharray:none"
         height="100%"
         width="100%"
         transform="matrix(1,0,0,0.99269847,11.585424,0.67982844)"
         id="use947"
         xlink:href="#path945"
         y="0"
         x="0" />
      <path
         sodipodi:nodetypes="cc"
         inkscape:connector-curvature="0"
         id="path945-7"
         d="m 28.778606,82.687782 v 3.854842"
         style="fill:none;fill-rule:evenodd;stroke:#a0892c;stroke-width:0.1;stroke-linecap:butt;stroke-linejoin:miter;stroke-miterlimit:4;stroke-dasharray:none;stroke-opacity:1" />
      <use
         style="stroke-width:0.1;stroke-miterlimit:4;stroke-dasharray:none"
         height="100%"
         width="100%"
         transform="translate(8.0491305)"
         id="use964"
         xlink:href="#path945-7"
         y="0"
         x="0" />
      <path
         sodipodi:nodetypes="cc"
         inkscape:connector-curvature="0"
         id="path945-7-3"
         d="m 30.8051,81.757064 v 13.949"
         style="fill:none;fill-rule:evenodd;stroke:#a0892c;stroke-width:0.10072506;stroke-linecap:butt;stroke-linejoin:miter;stroke-miterlimit:4;stroke-dasharray:none;stroke-opacity:1" />
      <use
         style="stroke-width:0.1;stroke-miterlimit:4;stroke-dasharray:none"
         height="100%"
         width="100%"
         transform="translate(3.959904)"
         id="use4555"
         xlink:href="#path945-7-3"
         y="0"
         x="0" />
      <use
         style="stroke-width:0.46230963;stroke-miterlimit:4;stroke-dasharray:none"
         height="100%"
         width="100%"
         transform="matrix(0.99899124,0,0,0.04683521,2.0224502,91.492406)"
         id="use4555-6"
         xlink:href="#path945-7-3"
         y="0"
         x="0" />
      <path
         inkscape:connector-curvature="0"
         id="path922-3"
         d="m 34.691227,88.667785 a 1.894752,1.8947521 0 0 1 -1.894752,1.894751 1.894752,1.8947521 0 0 1 -1.894752,-1.894751 1.894752,1.8947521 0 0 1 1.894752,-1.894753 1.894752,1.8947521 0 0 1 1.894752,1.894753 z"
         style="opacity:1;vector-effect:none;fill:#e9ddaf;fill-opacity:1;stroke:#a0892c;stroke-width:0.1;stroke-linecap:butt;stroke-linejoin:miter;stroke-miterlimit:4;stroke-dasharray:none;stroke-dashoffset:0;stroke-opacity:1;paint-order:normal" />
      <path
         style="opacity:1;vector-effect:none;fill:#e9ddaf;fill-opacity:1;stroke:#a0892c;stroke-width:0.1;stroke-linecap:butt;stroke-linejoin:miter;stroke-miterlimit:4;stroke-dasharray:none;stroke-dashoffset:0;stroke-opacity:1;paint-order:normal"
         d="m 40.809495,88.539155 a 0.31658669,0.31658667 0 0 1 -0.316586,0.316587 0.31658669,0.31658667 0 0 1 -0.316587,-0.316587 0.31658669,0.31658667 0 0 1 0.316587,-0.316585 0.31658669,0.31658667 0 0 1 0.316586,0.316585 z"
         id="use4597"
         inkscape:connector-curvature="0" />
      <path
         style="opacity:1;vector-effect:none;fill:#e9ddaf;fill-opacity:1;stroke:#a0892c;stroke-width:0.1;stroke-linecap:butt;stroke-linejoin:miter;stroke-miterlimit:4;stroke-dasharray:none;stroke-dashoffset:0;stroke-opacity:1;paint-order:normal"
         d="m 33.113062,81.042705 a 0.31658669,0.31658667 0 0 1 -0.316586,0.316587 0.31658669,0.31658667 0 0 1 -0.316587,-0.316587 0.31658669,0.31658667 0 0 1 0.316587,-0.316585 0.31658669,0.31658667 0 0 1 0.316586,0.316585 z"
         id="use4599"
         inkscape:connector-curvature="0" />
      <use
         style="stroke-width:0.1;stroke-miterlimit:4;stroke-dasharray:none"
         height="100%"
         width="100%"
         transform="translate(-5.388424e-7,15.397873)"
         id="use4601"
         xlink:href="#use4599"
         y="0"
         x="0" />
      <use
         style="stroke-width:0.1;stroke-miterlimit:4;stroke-dasharray:none"
         height="100%"
         width="100%"
         transform="translate(-5.6471368,-2.5235714)"
         id="use4603"
         xlink:href="#use4601"
         y="0"
         x="0" />
      <use
         style="stroke-width:0.1;stroke-miterlimit:4;stroke-dasharray:none"
         height="100%"
         width="100%"
         transform="translate(1.050902e-7,-10.369891)"
         id="use4605"
         xlink:href="#use4603"
         y="0"
         x="0" />
      <use
         style="stroke-width:0.1;stroke-miterlimit:4;stroke-dasharray:none"
         height="100%"
         width="100%"
         transform="translate(11.333214)"
         id="use4607"
         xlink:href="#use4605"
         y="0"
         x="0" />
      <use
         style="stroke-width:0.1;stroke-miterlimit:4;stroke-dasharray:none"
         height="100%"
         width="100%"
         transform="translate(1.050902e-7,10.367315)"
         id="use4609"
         xlink:href="#use4607"
         y="0"
         x="0" />
      <path
         inkscape:connector-curvature="0"
         id="path922-3-5"
         d="m 33.746235,88.667785 a 0.94976008,0.94976008 0 0 1 -0.94976,0.94976 0.94976008,0.94976008 0 0 1 -0.94976,-0.94976 0.94976008,0.94976008 0 0 1 0.94976,-0.94976 0.94976008,0.94976008 0 0 1 0.94976,0.94976 z"
         style="opacity:1;vector-effect:none;fill:#e9ddaf;fill-opacity:1;stroke:#a0892c;stroke-width:0.1;stroke-linecap:butt;stroke-linejoin:miter;stroke-miterlimit:4;stroke-dasharray:none;stroke-dashoffset:0;stroke-opacity:1;paint-order:normal" />
      <use
         style="stroke-width:0.1;stroke-miterlimit:4;stroke-dasharray:none"
         height="100%"
         width="100%"
         transform="translate(1.050902e-7,8.2421774)"
         id="use5318"
         xlink:href="#use964"
         y="0"
         x="0" />
      <path
         id="path4515"
         d="m 36.434524,85.962286 c -0.820617,0.473782 -1.696857,1.726833 -1.696857,2.577809 0,0.868427 0.81873,2.285098 1.696857,2.57781 1.298298,-0.118026 2.855707,-1.57097 3.437005,-2.57781 -0.599793,-1.038876 -2.189153,-2.243449 -3.437005,-2.577809 z m -0.131431,0.844764 c 0.835395,0.223847 1.899411,1.030225 2.300955,1.725717 -0.389162,0.674049 -1.431782,1.646703 -2.300955,1.72572 -0.587881,-0.195962 -1.135827,-1.144333 -1.135827,-1.72572 0,-0.569707 0.586449,-1.408532 1.135827,-1.725717 z"
         style="fill:#e9ddaf;fill-opacity:1;stroke:#a0892c;stroke-width:0.1;stroke-linecap:butt;stroke-linejoin:miter;stroke-miterlimit:4;stroke-dasharray:none;stroke-opacity:1"
         inkscape:connector-curvature="0" />
      <use
         style="stroke-width:0.1;stroke-miterlimit:4;stroke-dasharray:none"
         height="100%"
         width="100%"
         transform="matrix(-1,0,0,1,65.606848,-1.87765e-7)"
         id="use5298"
         xlink:href="#path4515"
         y="0"
         x="0" />
      <use
         style="stroke-width:0.1;stroke-miterlimit:4;stroke-dasharray:none"
         height="100%"
         width="100%"
         transform="rotate(90,32.729108,88.606519)"
         id="use5300"
         xlink:href="#path4515"
         y="0"
         x="0" />
      <use
         style="stroke-width:0.1;stroke-miterlimit:4;stroke-dasharray:none"
         height="100%"
         width="100%"
         transform="matrix(1,0,0,-1,7.490228e-7,177.36166)"
         id="use5302"
         xlink:href="#use5300"
         y="0"
         x="0" />
      <use
         style="stroke-width:0.1;stroke-miterlimit:4;stroke-dasharray:none"
         height="100%"
         width="100%"
         transform="translate(1.050902e-7,-13.887725)"
         id="use5320"
         xlink:href="#use4555-6"
         y="0"
         x="0" />
      <use
         style="stroke-width:0.1;stroke-miterlimit:4;stroke-dasharray:none"
         transform="translate(-1.182775e-6)"
         height="100%"
         width="100%"
         id="use5304"
         xlink:href="#use5302"
         y="0"
         x="0" />
      <use
         style="stroke-width:0.1;stroke-miterlimit:4;stroke-dasharray:none"
         height="100%"
         width="100%"
         transform="translate(1.050902e-7,8.2421774)"
         id="use5316"
         xlink:href="#path945-7"
         y="0"
         x="0" />
      <use
         style="stroke-width:0.1;stroke-miterlimit:4;stroke-dasharray:none"
         height="100%"
         width="100%"
         id="use5312"
         xlink:href="#use5298"
         y="0"
         x="0" />
      <path
         style="opacity:1;vector-effect:none;fill:#e9ddaf;fill-opacity:1;stroke:#a0892c;stroke-width:0.1;stroke-linecap:butt;stroke-linejoin:miter;stroke-miterlimit:4;stroke-dasharray:none;stroke-dashoffset:0;stroke-opacity:1;paint-order:normal"
         d="m 33.113061,88.667782 a 0.31658669,0.31658667 0 0 1 -0.316586,0.316587 0.31658669,0.31658667 0 0 1 -0.316587,-0.316587 0.31658669,0.31658667 0 0 1 0.316587,-0.316585 0.31658669,0.31658667 0 0 1 0.316586,0.316585 z"
         id="use5330"
         inkscape:connector-curvature="0" />
      <use
         height="100%"
         width="100%"
         transform="translate(-15.345802)"
         id="use1241"
         xlink:href="#use4597"
         y="0"
         x="0" />
    </g>
    <g
       id="g1233"
       transform="rotate(-24.280081,8.7405048,72.082031)">
      <path
         sodipodi:nodetypes="ccccccccccccccc"
         inkscape:connector-curvature="0"
         d="m 14.941474,95.973698 c 2.901608,-9.932612 -0.862292,-11.1679 2.527718,-32.017581 1.82978,-1.274198 6.131411,0.927218 7.867571,1.339244 -2.13238,-1.192552 -4.529284,-2.329765 -4.943326,-3.884083 -1.213158,-0.08678 -2.862826,-0.09445 -4.272325,0.182802 0.342792,-3.588842 0.463403,-5.52647 0,-8.065838 2.306943,-1.653285 -0.147934,-2.741914 -1.179638,-2.690083 h -0.10217 c -1.031703,-0.05183 -3.486028,1.036798 -1.179085,2.690083 -0.463403,2.539368 -0.342792,4.476996 0,8.065838 -1.409497,-0.277254 -3.059719,-0.26958 -4.2728775,-0.182802 -0.4140401,1.554318 -2.810946,2.691531 -4.943327,3.884083 1.7361619,-0.412026 6.0377925,-2.613442 7.8675715,-1.339244 3.390009,20.849678 -0.373888,22.084969 2.527718,32.017581 z"
         style="fill:#e9ddaf;fill-opacity:1;fill-rule:evenodd;stroke:#a0892c;stroke-width:0.26499999;stroke-linecap:butt;stroke-linejoin:miter;stroke-miterlimit:88.80000305;stroke-dasharray:none;stroke-opacity:1;paint-order:normal"
         id="path4526" />
      <path
         sodipodi:nodetypes="cc"
         inkscape:connector-curvature="0"
         id="path4547"
         d="m 13.564488,61.694507 c 1.117526,0.167193 1.939428,0.06806 2.757534,-0.0345"
         style="fill:#e9ddaf;fill-opacity:0;fill-rule:evenodd;stroke:#a0892c;stroke-width:0.1;stroke-linecap:butt;stroke-linejoin:miter;stroke-miterlimit:4;stroke-dasharray:none;stroke-opacity:1" />
      <use
         height="100%"
         width="100%"
         transform="translate(-0.05343553,-0.56527887)"
         id="use4564"
         xlink:href="#path4547"
         y="0"
         x="0"
         style="fill:#e9ddaf" />
      <use
         height="100%"
         width="100%"
         transform="translate(-8.774151e-8,-0.56551993)"
         id="use4566"
         xlink:href="#use4564"
         y="0"
         x="0"
         style="fill:#e9ddaf" />
      <use
         height="100%"
         width="100%"
         transform="translate(-8.774151e-8,-0.56551993)"
         id="use4568"
         xlink:href="#use4566"
         y="0"
         x="0"
         style="fill:#e9ddaf" />
      <use
         height="100%"
         width="100%"
         transform="translate(-8.774151e-8,-0.56551993)"
         id="use4570"
         xlink:href="#use4568"
         y="0"
         x="0"
         style="fill:#e9ddaf" />
      <use
         height="100%"
         width="100%"
         transform="translate(-8.774151e-8,-0.56551993)"
         id="use4572"
         xlink:href="#use4570"
         y="0"
         x="0"
         style="fill:#e9ddaf" />
      <use
         height="100%"
         width="100%"
         transform="translate(-8.774151e-8,-0.56551993)"
         id="use4574"
         xlink:href="#use4572"
         y="0"
         x="0"
         style="fill:#e9ddaf" />
      <use
         height="100%"
         width="100%"
         transform="translate(-8.774151e-8,-0.56551993)"
         id="use4576"
         xlink:href="#use4574"
         y="0"
         x="0"
         style="fill:#e9ddaf" />
      <use
         height="100%"
         width="100%"
         transform="translate(-8.774151e-8,-0.56551993)"
         id="use4578"
         xlink:href="#use4576"
         y="0"
         x="0"
         style="fill:#e9ddaf" />
      <use
         height="100%"
         width="100%"
         transform="translate(-8.774151e-8,-0.56551993)"
         id="use4580"
         xlink:href="#use4578"
         y="0"
         x="0"
         style="fill:#e9ddaf" />
      <use
         height="100%"
         width="100%"
         transform="translate(-8.774151e-8,-0.56551993)"
         id="use4582"
         xlink:href="#use4580"
         y="0"
         x="0"
         style="fill:#e9ddaf" />
      <use
         height="100%"
         width="100%"
         transform="translate(-8.774151e-8,-0.56551993)"
         id="use4584"
         xlink:href="#use4582"
         y="0"
         x="0"
         style="fill:#e9ddaf" />
      <use
         height="100%"
         width="100%"
         transform="translate(-8.774151e-8,-0.56551993)"
         id="use4586"
         xlink:href="#use4584"
         y="0"
         x="0"
         style="fill:#e9ddaf" />
      <use
         height="100%"
         width="100%"
         transform="translate(-8.774151e-8,-0.56551993)"
         id="use4588"
         xlink:href="#use4586"
         y="0"
         x="0"
         style="fill:#e9ddaf" />
      <use
         height="100%"
         width="100%"
         transform="translate(-8.774151e-8,-0.45851235)"
         id="use4590"
         xlink:href="#use4588"
         y="0"
         x="0"
         style="fill:#e9ddaf" />
      <use
         transform="translate(-8.774151e-8,-0.45847267)"
         height="100%"
         width="100%"
         id="use4592"
         xlink:href="#use4590"
         y="0"
         x="0"
         style="fill:#e9ddaf" />
      <path
         sodipodi:nodetypes="cc"
         inkscape:connector-curvature="0"
         id="path4547-3"
         d="m 12.363283,63.939747 c 1.185017,0.987384 4.27777,0.683484 5.046121,-0.0627"
         style="fill:#e9ddaf;fill-opacity:0;fill-rule:evenodd;stroke:#a0892c;stroke-width:0.1;stroke-linecap:butt;stroke-linejoin:miter;stroke-miterlimit:4;stroke-dasharray:none;stroke-opacity:1" />
      <path
         sodipodi:nodetypes="cc"
         inkscape:connector-curvature="0"
         id="path4609"
         d="m 14.839307,64.578465 0.05253,31.312373"
         style="fill:#e9ddaf;fill-rule:evenodd;stroke:#a0892c;stroke-width:0.05;stroke-linecap:butt;stroke-linejoin:miter;stroke-miterlimit:4;stroke-dasharray:none;stroke-opacity:1" />
    </g>
    <g
       aria-label="acticians"
       style="font-style:normal;font-variant:normal;font-weight:normal;font-stretch:normal;font-size:10.58333302px;line-height:125%;font-family:Bubble_Runes;-inkscape-font-specification:Bubble_Runes;letter-spacing:0px;word-spacing:0px;fill:#e9ddaf;fill-opacity:1;stroke:#a0892c;stroke-width:0.26499999;stroke-linecap:butt;stroke-linejoin:round;stroke-miterlimit:4;stroke-dasharray:none;stroke-opacity:1;paint-order:markers stroke fill"
       id="text1280-3">
      <path
         d="m 21.4223,68.175719 h -1.405599 q -0.172254,0 -0.289388,-0.199815 -0.09646,-0.165365 -0.07579,-0.234267 0.0069,-0.03445 0.03445,-0.110243 -0.813042,0.606337 -1.474501,0.606337 -0.764811,0 -1.247124,-0.344509 -0.551215,-0.385851 -0.551215,-1.123102 0,-1.364257 1.226454,-1.694986 1.09554,-0.296279 1.405599,-0.434082 0.447862,-0.199816 0.647678,-0.571886 -0.571886,-0.33762 -1.316027,-0.33762 -0.620117,0 -1.577854,0.254937 0.847494,-0.785481 2.16352,-0.785481 0.647678,0 1.343587,0.234266 0.461643,0.220486 0.461643,0.744141 V 67.4867 q 0,0.03445 0.0689,0.124024 0.165365,0.454752 0.585667,0.564995 z m -1.729437,-1.295355 v -2.177301 q -0.323839,0.33762 -0.744141,0.482314 -0.847494,0.296278 -0.950846,0.36518 -0.392741,0.268717 -0.392741,0.902615 0,0.930175 0.902615,0.930175 0.558105,0 1.185113,-0.502983 z"
         style="font-style:normal;font-variant:normal;font-weight:normal;font-stretch:normal;font-size:14.11111069px;font-family:'Dumbledor 3';-inkscape-font-specification:'Dumbledor 3, ';fill:#e9ddaf;fill-opacity:1;stroke:#a0892c;stroke-width:0.26499999;stroke-linejoin:round;stroke-miterlimit:4;stroke-dasharray:none;stroke-opacity:1;paint-order:markers stroke fill"
         id="path4563"
         inkscape:connector-curvature="0" />
      <path
         d="m 26.183422,66.76323 q -0.571886,1.543403 -2.046387,1.543403 -1.260904,0 -1.956814,-0.72347 -0.695909,-0.72347 -0.695909,-1.984375 0,-1.026638 0.854384,-1.688097 0.771701,-0.599446 1.839681,-0.599446 0.427191,0 1.10932,0.261827 0.785482,0.303168 0.785482,0.647678 0,0.110243 -0.440972,0.406521 -0.37207,0.248047 -0.564996,0.337619 0.0689,-0.172254 0.0689,-0.323838 0,-0.365181 -0.3514,-0.592557 -0.303168,-0.199815 -0.689019,-0.199815 -0.695909,0 -1.08865,0.633897 -0.330729,0.537435 -0.330729,1.274685 0,0.799263 0.496094,1.343588 0.509874,0.564995 1.302246,0.564995 0.310058,0 0.778591,-0.206705 0.571886,-0.254938 0.930176,-0.69591 z"
         style="font-style:normal;font-variant:normal;font-weight:normal;font-stretch:normal;font-size:14.11111069px;font-family:'Dumbledor 3';-inkscape-font-specification:'Dumbledor 3, ';fill:#e9ddaf;fill-opacity:1;stroke:#a0892c;stroke-width:0.26499999;stroke-linejoin:round;stroke-miterlimit:4;stroke-dasharray:none;stroke-opacity:1;paint-order:markers stroke fill"
         id="path4565"
         inkscape:connector-curvature="0" />
      <path
         d="m 30.923873,68.18261 q -0.310058,0.02067 -0.585666,0.02067 -1.329807,0 -1.887912,-0.413411 -0.654568,-0.482314 -0.654568,-1.756999 h 0.0069 l 0.0069,-2.067057 h -1.143772 l 0.206706,-0.489204 q 0.137804,-0.103353 0.137804,-0.275607 0,-0.04134 -0.0069,-0.124024 -0.0069,-0.08957 -0.0069,-0.130913 0,-0.137804 0.05512,-0.248047 0.268717,0.502984 0.757921,0.578776 l 0.0069,-1.260905 q 0,-0.427192 -0.289388,-0.571886 -0.186035,-0.05512 -0.268717,-0.110243 -0.130914,-0.05512 -0.427192,-0.406521 h 2.060167 v 2.397786 h 2.018826 l -0.3514,0.640788 h -1.667426 v 2.18419 q 0,0.840604 0.275607,1.129992 0.34451,0.36518 0.420302,0.413411 0.37207,0.241157 1.336697,0.489204 z"
         style="font-style:normal;font-variant:normal;font-weight:normal;font-stretch:normal;font-size:14.11111069px;font-family:'Dumbledor 3';-inkscape-font-specification:'Dumbledor 3, ';fill:#e9ddaf;fill-opacity:1;stroke:#a0892c;stroke-width:0.26499999;stroke-linejoin:round;stroke-miterlimit:4;stroke-dasharray:none;stroke-opacity:1;paint-order:markers stroke fill"
         id="path4567"
         inkscape:connector-curvature="0" />
      <path
         d="m 33.156295,62.015889 q 0,0.482313 -0.695909,0.551215 -0.654568,0 -0.72347,-0.537435 0,-0.516764 0.7028,-0.544325 0.633897,-0.02756 0.716579,0.530545 z m 0.06201,1.426269 v 4.051432 q 0,0.165365 0.04134,0.254938 0.02067,0.08268 0.392741,0.434082 h -1.956814 l 0.316949,-0.310059 q 0.130913,-0.165365 0.130913,-0.378961 v -2.962782 q 0,-0.206705 -0.303168,-0.620117 -0.282498,-0.38585 -0.454753,-0.475423 z"
         style="font-style:normal;font-variant:normal;font-weight:normal;font-stretch:normal;font-size:14.11111069px;font-family:'Dumbledor 3';-inkscape-font-specification:'Dumbledor 3, ';fill:#e9ddaf;fill-opacity:1;stroke:#a0892c;stroke-width:0.26499999;stroke-linejoin:round;stroke-miterlimit:4;stroke-dasharray:none;stroke-opacity:1;paint-order:markers stroke fill"
         id="path4569"
         inkscape:connector-curvature="0" />
      <path
         d="m 38.833813,66.76323 q -0.571886,1.543403 -2.046387,1.543403 -1.260905,0 -1.956814,-0.72347 -0.695909,-0.72347 -0.695909,-1.984375 0,-1.026638 0.854383,-1.688097 0.771702,-0.599446 1.839681,-0.599446 0.427192,0 1.109321,0.261827 0.785482,0.303168 0.785482,0.647678 0,0.110243 -0.440972,0.406521 -0.372071,0.248047 -0.564996,0.337619 0.0689,-0.172254 0.0689,-0.323838 0,-0.365181 -0.3514,-0.592557 -0.303168,-0.199815 -0.689019,-0.199815 -0.695909,0 -1.08865,0.633897 -0.330729,0.537435 -0.330729,1.274685 0,0.799263 0.496093,1.343588 0.509875,0.564995 1.302246,0.564995 0.310059,0 0.778592,-0.206705 0.571886,-0.254938 0.930176,-0.69591 z"
         style="font-style:normal;font-variant:normal;font-weight:normal;font-stretch:normal;font-size:14.11111069px;font-family:'Dumbledor 3';-inkscape-font-specification:'Dumbledor 3, ';fill:#e9ddaf;fill-opacity:1;stroke:#a0892c;stroke-width:0.26499999;stroke-linejoin:round;stroke-miterlimit:4;stroke-dasharray:none;stroke-opacity:1;paint-order:markers stroke fill"
         id="path4571"
         inkscape:connector-curvature="0" />
      <path
         d="m 41.314281,62.015889 q 0,0.482313 -0.695909,0.551215 -0.654568,0 -0.72347,-0.537435 0,-0.516764 0.702799,-0.544325 0.633898,-0.02756 0.71658,0.530545 z m 0.06201,1.426269 v 4.051432 q 0,0.165365 0.04134,0.254938 0.02067,0.08268 0.392741,0.434082 h -1.956814 l 0.316949,-0.310059 Q 40.30142,67.707186 40.30142,67.49359 v -2.962782 q 0,-0.206705 -0.303168,-0.620117 -0.282498,-0.38585 -0.454753,-0.475423 z"
         style="font-style:normal;font-variant:normal;font-weight:normal;font-stretch:normal;font-size:14.11111069px;font-family:'Dumbledor 3';-inkscape-font-specification:'Dumbledor 3, ';fill:#e9ddaf;fill-opacity:1;stroke:#a0892c;stroke-width:0.26499999;stroke-linejoin:round;stroke-miterlimit:4;stroke-dasharray:none;stroke-opacity:1;paint-order:markers stroke fill"
         id="path4573"
         inkscape:connector-curvature="0" />
      <path
         d="m 47.301857,68.175719 h -1.405599 q -0.172255,0 -0.289388,-0.199815 -0.09646,-0.165365 -0.07579,-0.234267 0.0069,-0.03445 0.03445,-0.110243 -0.813043,0.606337 -1.474501,0.606337 -0.764811,0 -1.247124,-0.344509 -0.551216,-0.385851 -0.551216,-1.123102 0,-1.364257 1.226454,-1.694986 1.095541,-0.296279 1.405599,-0.434082 0.447863,-0.199816 0.647678,-0.571886 -0.571886,-0.33762 -1.316026,-0.33762 -0.620117,0 -1.577854,0.254937 0.847494,-0.785481 2.16352,-0.785481 0.647678,0 1.343587,0.234266 0.461643,0.220486 0.461643,0.744141 V 67.4867 q 0,0.03445 0.0689,0.124024 0.165364,0.454752 0.585666,0.564995 z m -1.729438,-1.295355 v -2.177301 q -0.323839,0.33762 -0.74414,0.482314 -0.847494,0.296278 -0.950847,0.36518 -0.392741,0.268717 -0.392741,0.902615 0,0.930175 0.902615,0.930175 0.558106,0 1.185113,-0.502983 z"
         style="font-style:normal;font-variant:normal;font-weight:normal;font-stretch:normal;font-size:14.11111069px;font-family:'Dumbledor 3';-inkscape-font-specification:'Dumbledor 3, ';fill:#e9ddaf;fill-opacity:1;stroke:#a0892c;stroke-width:0.26499999;stroke-linejoin:round;stroke-miterlimit:4;stroke-dasharray:none;stroke-opacity:1;paint-order:markers stroke fill"
         id="path4575"
         inkscape:connector-curvature="0" />
      <path
         d="m 52.621084,68.272182 h -1.839681 l 0.02067,-0.482313 q 0.564996,-1.040419 0.564996,-2.204861 0,-1.515842 -1.378039,-1.515842 -0.310058,0 -0.72347,0.254937 -0.35829,0.220486 -0.35829,0.37896 v 2.604492 q 0,0.206706 0.130914,0.372071 l 0.392741,0.261827 0.06201,0.330729 h -2.129069 l 0.323839,-0.310059 q 0.144694,-0.165364 0.144694,-0.37896 V 64.21386 q 0,-0.248047 -0.461643,-0.69591 h 1.536512 v 0.378961 q 0.757921,-0.468533 1.743219,-0.468533 1.061089,0 1.736328,1.109321 0.172255,0.461642 0.172255,1.061089 0,0.475423 -0.502984,1.570964 l -0.02067,0.124023 q 0.0069,0.172255 0.454753,0.592556 z"
         style="font-style:normal;font-variant:normal;font-weight:normal;font-stretch:normal;font-size:14.11111069px;font-family:'Dumbledor 3';-inkscape-font-specification:'Dumbledor 3, ';fill:#e9ddaf;fill-opacity:1;stroke:#a0892c;stroke-width:0.26499999;stroke-linejoin:round;stroke-miterlimit:4;stroke-dasharray:none;stroke-opacity:1;paint-order:markers stroke fill"
         id="path4577"
         inkscape:connector-curvature="0" />
      <path
         d="m 57.49245,66.797681 q 0,0.7028 -0.74414,1.123101 -0.633898,0.35829 -1.41938,0.35829 -0.950846,0 -1.522732,-0.37207 -0.682129,-0.440972 -0.682129,-1.343587 0.282498,-0.05512 0.372071,-0.09646 0.275607,-0.08957 0.668348,-0.234266 -0.05512,0.151584 -0.05512,0.303168 0,0.516764 0.530545,0.971517 0.268718,0.234266 0.689019,0.234266 0.434082,0 0.73036,-0.186035 0.35829,-0.220486 0.35829,-0.627007 0,-0.461643 -0.888834,-0.737251 -0.192926,-0.06201 -1.267795,-0.37207 -0.751031,-0.36518 -0.751031,-1.109321 0,-0.695909 0.661458,-1.08176 0.537435,-0.316948 1.295356,-0.316948 1.660536,0 1.874132,1.316026 -0.564996,0.124024 -0.923286,0.378961 -0.06201,-1.157552 -1.005967,-1.157552 -0.826823,0 -0.826823,0.916395 0,0.461643 1.322916,0.751031 1.584744,0.351399 1.584744,1.281575 z"
         style="font-style:normal;font-variant:normal;font-weight:normal;font-stretch:normal;font-size:14.11111069px;font-family:'Dumbledor 3';-inkscape-font-specification:'Dumbledor 3, ';fill:#e9ddaf;fill-opacity:1;stroke:#a0892c;stroke-width:0.26499999;stroke-linejoin:round;stroke-miterlimit:4;stroke-dasharray:none;stroke-opacity:1;paint-order:markers stroke fill"
         id="path4579"
         inkscape:connector-curvature="0" />
    </g>
  </g>
</svg>
