<?xml version="1.0" encoding="UTF-8" standalone="no"?>
<!-- Created with Inkscape (http://www.inkscape.org/) -->

<svg
    xmlns:dc="http://purl.org/dc/elements/1.1/"
    xmlns:cc="http://creativecommons.org/ns#"
    xmlns:rdf="http://www.w3.org/1999/02/22-rdf-syntax-ns#"
    xmlns:svg="http://www.w3.org/2000/svg"
    xmlns="http://www.w3.org/2000/svg"
    xmlns:sodipodi="http://sodipodi.sourceforge.net/DTD/sodipodi-0.dtd"
    xmlns:inkscape="http://www.inkscape.org/namespaces/inkscape"
    width="16mm"
    height="16mm"
    viewBox="0 0 16 16"
    version="1.1"
    id="svg8"
    inkscape:version="0.92.2 2405546, 2018-03-11"
    sodipodi:docname="constitution.svg">
   <defs
       id="defs2" />
   <sodipodi:namedview
       id="base"
       pagecolor="#ffffff"
       bordercolor="#666666"
       borderopacity="1.0"
       inkscape:pageopacity="0.0"
       inkscape:pageshadow="2"
       inkscape:zoom="5.65685"
       inkscape:cx="9.84385"
       inkscape:cy="23.4269"
       inkscape:document-units="mm"
       inkscape:current-layer="layer1"
       showgrid="false"
       inkscape:snap-global="false"
       inkscape:snap-bbox="true"
       inkscape:bbox-nodes="false"
       inkscape:window-width="1678"
       inkscape:window-height="1029"
       inkscape:window-x="1"
       inkscape:window-y="516"
       inkscape:window-maximized="0"
       inkscape:pagecheckerboard="true" />
   <metadata
       id="metadata5">
      <rdf:RDF>
         <cc:Work
             rdf:about="">
            <dc:format>image/svg+xml</dc:format>
            <dc:type
                rdf:resource="http://purl.org/dc/dcmitype/StillImage" />
            <dc:title></dc:title>
         </cc:Work>
      </rdf:RDF>
   </metadata>
   <g
       inkscape:label="Layer 1"
       inkscape:groupmode="layer"
       id="layer1"
       transform="translate(0,-281)">
      <g
          id="g991"
          transform="translate(-0.583392,0.535332)">
         <path
             sodipodi:nodetypes="csscc"
             inkscape:connector-curvature="0"
             id="path967"
             d="M 6.50847,288.72 4.26666,284.2 C 3.86853,283.397 1.97312,285.161 2.38644,285.791 L 5.3514,290.311 Z"
             style="fill:#e9ddaf;stroke:#483e37;stroke-width:0.5" />
         <path
             sodipodi:nodetypes="sssssssss"
             id="path916-9"
             d="M 4.00465,291.445 C 4.95946,295.104 9.15118,296.002 13.3146,294.86 15.9508,294.137 13.9596,290.816 12.1638,288.038 12.0896,287.924 12.1912,287.457 12.1765,287.323 12.0687,286.345 10.9203,286.129 10.59,285.518 10.4316,285.225 10.5145,284.39 10.1837,284.048 9.82702,283.679 8.84485,283.762 8.84234,284.217 8.8332,285.876 8.45976,284.924 8.01705,284.92 4.17942,284.885 3.04055,287.751 4.00465,291.445 Z"
             style="fill:#e9ddaf;stroke:#483e37;stroke-linecap:square;paint-order:markers stroke fill"
             inkscape:connector-curvature="0" />
         <path
             sodipodi:nodetypes="cssscsscsssscssssc"
             id="path916-9-9"
             d="M 8.38818,286.543 C 7.90014,285.224 8.33566,285.636 7.8144,284.694 7.60086,284.309 9.0286,282.457 11.5943,283.786 12.0207,284.007 12.028,283.47 11.8197,283.066 11.7244,282.881 11.3633,282.693 10.9996,282.589 10.8567,282.548 10.9562,281.718 10.7884,281.688 10.5933,281.653 10.3845,281.624 10.1691,281.603 10.0634,281.592 9.83924,282.378 9.73126,282.37 9.11759,282.325 8.7847,282.351 8.2816,282.383 8.15188,282.391 7.78966,281.678 7.66368,281.692 7.21842,281.744 7.08425,281.74 6.75245,281.868 6.54236,281.948 7.09052,282.651 6.96032,282.761 6.87374,282.834 6.69084,283.146 6.43894,283.349 6.0382,283.344 5.616,283.198 5.52674,283.43 5.32917,283.943 5.44939,283.632 5.30493,283.949 5.14581,284.298 6.32265,284.405 6.26088,284.639 6.20692,284.844 6.19073,285.675 6.45748,286.158 6.79759,286.774 6.78429,286.619 7.271,287.203"
             style="fill:#e9ddaf;stroke:#483e37;stroke-linejoin:round;paint-order:markers stroke fill"
             inkscape:connector-curvature="0" />
         <path
             sodipodi:nodetypes="ccccccccccccc"
             inkscape:connector-curvature="0"
             id="path969"
             d="M 4.98141,289.767 C 5.3718,292.482 6.95787,293.339 7.54384,293.747 8.00931,293.978 8.8349,294.222 9.29026,294.352 8.69642,294.12 8.01848,293.914 7.56198,293.617 7.23382,293.332 7.39794,293.302 7.59552,293.167 7.77342,292.974 7.84789,292.898 7.90458,292.734 7.88263,292.718 7.55382,293.299 7.14909,293.169 6.28523,292.542 5.49933,291.65 5.22054,290.056 5.20622,290.145 6.22539,290.511 6.42875,290.522 6.56665,290.512 6.71984,290.418 6.71084,290.336 6.5033,290.578 5.32118,290.007 5.20457,289.852 4.95338,289.423 4.9703,288.908 4.98678,288.78 4.91112,288.88 4.82129,288.878 4.98141,289.767 Z"
             style="fill:#483e37;stroke-width:0.264583px" />
         <path
             sodipodi:nodetypes="ccccccccccccc"
             inkscape:connector-curvature="0"
             id="path969-2"
             d="M 9.29248,288.513 C 10.465,289.444 11.2614,290.253 11.7036,291.12 11.8827,291.288 11.0548,292.745 11.0424,292.835 10.9242,293.052 11.0029,293.24 10.9851,293.442 10.9631,292.787 11.8974,291.451 11.8599,291.322 12.3956,291.985 12.7651,292.866 12.6472,293.718 L 12.7559,293.363 C 12.9384,292.495 12.0708,291.268 11.0529,289.988 11.0386,290.077 11.2462,289.443 11.3326,289.302 11.4199,289.063 11.3661,289.012 11.3699,288.884 11.3875,289.048 11.0217,289.904 10.9869,289.938 10.9903,289.836 9.85595,288.881 9.74662,288.745 9.53439,288.558 9.43438,288.573 9.29248,288.513 Z"
             style="fill:#483e37;stroke-width:0.264583px" />
      </g>
   </g>
</svg>
