<?xml version="1.0" encoding="UTF-8" standalone="no"?>
<!-- Created with Inkscape (http://www.inkscape.org/) -->

<svg
    xmlns:dc="http://purl.org/dc/elements/1.1/"
    xmlns:cc="http://creativecommons.org/ns#"
    xmlns:rdf="http://www.w3.org/1999/02/22-rdf-syntax-ns#"
    xmlns:svg="http://www.w3.org/2000/svg"
    xmlns="http://www.w3.org/2000/svg"
    xmlns:sodipodi="http://sodipodi.sourceforge.net/DTD/sodipodi-0.dtd"
    xmlns:inkscape="http://www.inkscape.org/namespaces/inkscape"
    width="32mm"
    height="32mm"
    viewBox="0 0 32 32"
    version="1.1"
    id="svg8"
    inkscape:version="0.92.4 5da689c313, 2019-01-14"
    sodipodi:docname="fire.svg">
   <defs
       id="defs2" />
   <sodipodi:namedview
       id="base"
       pagecolor="#ffffff"
       bordercolor="#666666"
       borderopacity="1.0"
       inkscape:pageopacity="0.0"
       inkscape:pageshadow="2"
       inkscape:zoom="3.9598"
       inkscape:cx="44.2808"
       inkscape:cy="53.7977"
       inkscape:document-units="mm"
       inkscape:current-layer="layer1"
       showgrid="false"
       inkscape:window-width="1678"
       inkscape:window-height="1029"
       inkscape:window-x="1"
       inkscape:window-y="516"
       inkscape:window-maximized="0" />
   <metadata
       id="metadata5">
      <rdf:RDF>
         <cc:Work
             rdf:about="">
            <dc:format>image/svg+xml</dc:format>
            <dc:type
                rdf:resource="http://purl.org/dc/dcmitype/StillImage" />
            <dc:title></dc:title>
         </cc:Work>
      </rdf:RDF>
   </metadata>
   <g
       inkscape:label="Layer 1"
       inkscape:groupmode="layer"
       id="layer1"
       transform="translate(0,-265)"
       sodipodi:insensitive="true">
      <g
          id="g882"
          transform="matrix(2.77777,0,0,2.77777,-30.2304,-496.151)">
         <path
             sodipodi:nodetypes="ccccc"
             inkscape:connector-curvature="0"
             id="path815"
             d="M 12.7568,279.235 C 13.0179,279.889 14.4262,284.192 14.9635,276.4 15.5764,277.711 16.6067,281.886 17.6681,274.375 19.0146,276.493 18.9044,282.415 20.5289,279.613 23.2033,288.017 10.0836,286.08 12.7568,279.235 Z"
             style="fill:#ff6600;stroke-width:0.499999;stroke-linecap:square;stroke-linejoin:round;paint-order:stroke markers fill" />
         <path
             sodipodi:nodetypes="ccccc"
             inkscape:connector-curvature="0"
             id="path815-1"
             d="M 12.9153,280.787 C 13.0381,281.089 14.4996,283.295 15.2164,278.445 15.6624,279.236 16.7082,281.399 17.8498,276.41 18.7952,278.789 18.8985,282.466 20.3124,281.023 22.0321,286.618 11.9413,286.14 12.9153,280.787 Z"
             style="fill:#ff7f2a;stroke-width:0.438823;stroke-linecap:square;stroke-linejoin:round;paint-order:stroke markers fill" />
         <path
             sodipodi:nodetypes="ccccc"
             inkscape:connector-curvature="0"
             id="path815-1-9"
             d="M 13.1772,281.873 C 13.2529,282.059 14.9642,282.794 15.4203,280.614 16.1947,281.401 16.9289,281.305 17.819,279.92 18.5861,281.337 19.3034,282.593 20.0947,282.065 19.7734,286.013 13.5959,284.965 13.1772,281.873 Z"
             style="fill:#ffd42a;stroke-width:0.270814;stroke-linecap:square;stroke-linejoin:round;paint-order:stroke markers fill" />
         <path
             sodipodi:nodetypes="sss"
             inkscape:connector-curvature="0"
             id="path815-9"
             d="M 15.2519,284.047 C 12.8701,283.059 21.1794,282.932 18.6306,284.064 17.502,284.565 16.2206,284.448 15.2519,284.047 Z"
             style="fill:#ffeeaa;stroke-width:0.499999;stroke-linecap:square;stroke-linejoin:round;paint-order:stroke markers fill" />
      </g>
   </g>
</svg>
