<?xml version="1.0" encoding="UTF-8" standalone="no"?>
<!-- Created with Inkscape (http://www.inkscape.org/) -->

<svg
   xmlns:dc="http://purl.org/dc/elements/1.1/"
   xmlns:cc="http://creativecommons.org/ns#"
   xmlns:rdf="http://www.w3.org/1999/02/22-rdf-syntax-ns#"
   xmlns:svg="http://www.w3.org/2000/svg"
   xmlns="http://www.w3.org/2000/svg"
   xmlns:sodipodi="http://sodipodi.sourceforge.net/DTD/sodipodi-0.dtd"
   xmlns:inkscape="http://www.inkscape.org/namespaces/inkscape"
   width="32mm"
   height="32mm"
   viewBox="0 0 32 32"
   version="1.1"
   id="svg8"
   inkscape:version="0.92.4 5da689c313, 2019-01-14"
   sodipodi:docname="lightning.svg">
  <defs
     id="defs2" />
  <sodipodi:namedview
     id="base"
     pagecolor="#ffffff"
     bordercolor="#666666"
     borderopacity="1.0"
     inkscape:pageopacity="0.0"
     inkscape:pageshadow="2"
     inkscape:zoom="2.8000014"
     inkscape:cx="179.43788"
     inkscape:cy="18.542271"
     inkscape:document-units="mm"
     inkscape:current-layer="layer1"
     showgrid="false"
     inkscape:window-width="1918"
     inkscape:window-height="1059"
     inkscape:window-x="1"
     inkscape:window-y="20"
     inkscape:window-maximized="0"
     inkscape:snap-global="false" />
  <metadata
     id="metadata5">
    <rdf:RDF>
      <cc:Work
         rdf:about="">
        <dc:format>image/svg+xml</dc:format>
        <dc:type
           rdf:resource="http://purl.org/dc/dcmitype/StillImage" />
        <dc:title></dc:title>
      </cc:Work>
    </rdf:RDF>
  </metadata>
  <g
     inkscape:label="Layer 1"
     inkscape:groupmode="layer"
     id="layer1"
     transform="translate(0,-265)">
    <g
       id="g1800"
       transform="matrix(1.111228,0,0,1.111228,-2.6693046,-31.514607)">
      <path
         sodipodi:nodetypes="czczczczczc"
         inkscape:connector-curvature="0"
         id="path1743"
         d="m 3.968748,273.75448 c -0.2495115,-1.53626 -1.0141731,-5.11765 0.1889878,-5.85863 1.2031609,-0.74098 4.4655288,1.32357 6.5200862,1.22842 2.054557,-0.0952 5.128226,-0.80114 7.654014,-0.85044 2.525788,-0.0493 3.991131,0.5451 5.953121,0.56696 1.96199,0.0219 4.415746,-0.39932 5.386158,0.66146 0.970412,1.06078 0.357554,3.55462 -0.37798,5.00818 -0.735534,1.45356 -2.924255,2.67557 -5.19717,3.59076 -2.272915,0.91519 -4.606766,0.21774 -7.559519,0.0945 -2.952753,-0.12324 -9.9834618,2.12417 -12.0952323,1.13394 -2.1117705,-0.99024 -0.2229542,-4.03889 -0.4724657,-5.57515 z"
         style="fill:#b7bec8;fill-rule:evenodd;stroke:none;stroke-width:0.26458332px;stroke-linecap:butt;stroke-linejoin:miter;stroke-opacity:1" />
      <path
         sodipodi:nodetypes="cccc"
         inkscape:connector-curvature="0"
         id="path1745"
         d="m 4.913688,275.92783 c -0.2583957,-3.6441 -1.6416434,-7.4346 -0.188988,-7.46502 2.0744086,1.54197 5.364488,1.45562 12.000738,1.32291 -4.02908,1.76567 -11.4625732,0.75776 -11.81175,6.14211 z"
         style="fill:#dbdee3;fill-rule:evenodd;stroke:none;stroke-width:0.26458332px;stroke-linecap:butt;stroke-linejoin:miter;stroke-opacity:1" />
      <path
         sodipodi:nodetypes="cccc"
         inkscape:connector-curvature="0"
         id="path1745-0"
         d="m 26.927087,275.31363 c -0.258396,-3.6441 -5.79938,-5.35574 -4.346724,-5.38616 4.72024,-0.63139 2.529668,-0.81223 6.142109,-0.0945 1.735055,3.08859 -0.595763,3.49809 -1.795385,5.48066 z"
         style="fill:#939dac;fill-rule:evenodd;stroke:none;stroke-width:0.26458332px;stroke-linecap:butt;stroke-linejoin:miter;stroke-opacity:1" />
      <path
         sodipodi:nodetypes="cccccccccccccccccccccccc"
         inkscape:connector-curvature="0"
         id="path1792"
         d="m 9.5438938,277.25075 3.7797602,-0.28348 4.7247,5.57515 -2.645832,2.45685 2.498509,4.18594 1.977423,-2.36506 -1.849902,3.09695 2.571139,4.81504 -6.688087,-10.34655 1.681224,-1.43299 -0.900427,-0.86178 -2.989343,1.60152 1.267969,2.03711 -2.930916,2.19369 0.878028,5.23613 -1.5210932,-4.94319 -4.4723459,3.2096 6.3734591,-6.00977 -2.321229,-2.11754 2.28089,-1.07202 -3.2877396,-1.1828 3.8156036,0.90258 1.821452,-0.63213 z"
         style="fill:#ffeeaa;fill-rule:evenodd;stroke:none;stroke-width:0.26458332px;stroke-linecap:butt;stroke-linejoin:miter;stroke-opacity:1" />
      <path
         sodipodi:nodetypes="ccc"
         inkscape:connector-curvature="0"
         id="path1745-9"
         d="m 7.7448047,277.20351 c 2.4523843,-0.5369 4.1360663,-1.09572 7.3705313,-0.47248 -3.556213,1.5803 -6.5142513,2.15012 -7.3705313,0.47248 z"
         style="fill:#dbdee3;fill-rule:evenodd;stroke:none;stroke-width:0.26458332px;stroke-linecap:butt;stroke-linejoin:miter;stroke-opacity:1" />
      <path
         sodipodi:nodetypes="ccc"
         inkscape:connector-curvature="0"
         id="path1745-9-3"
         d="m 17.166791,271.02911 c 1.344901,-2.27853 2.410854,-1.77424 5.843873,4.51632 -7.68207,-0.69168 -0.923763,-1.36844 -5.843873,-4.51632 z"
         style="fill:#dbdee3;fill-rule:evenodd;stroke:none;stroke-width:0.26458332px;stroke-linecap:butt;stroke-linejoin:miter;stroke-opacity:1" />
    </g>
  </g>
</svg>
