<?xml version="1.0" encoding="UTF-8" standalone="no"?>
<!-- Created with Inkscape (http://www.inkscape.org/) -->

<svg
    xmlns:dc="http://purl.org/dc/elements/1.1/"
    xmlns:cc="http://creativecommons.org/ns#"
    xmlns:rdf="http://www.w3.org/1999/02/22-rdf-syntax-ns#"
    xmlns:svg="http://www.w3.org/2000/svg"
    xmlns="http://www.w3.org/2000/svg"
    xmlns:sodipodi="http://sodipodi.sourceforge.net/DTD/sodipodi-0.dtd"
    xmlns:inkscape="http://www.inkscape.org/namespaces/inkscape"
    width="16mm"
    height="16mm"
    viewBox="0 0 16 16"
    version="1.1"
    id="svg8"
    inkscape:version="0.92.2 2405546, 2018-03-11"
    sodipodi:docname="mmovpts.svg">
   <defs
       id="defs2" />
   <sodipodi:namedview
       id="base"
       pagecolor="#ffffff"
       bordercolor="#666666"
       borderopacity="1.0"
       inkscape:pageopacity="0.0"
       inkscape:pageshadow="2"
       inkscape:zoom="5.65686"
       inkscape:cx="24.9491"
       inkscape:cy="41.2986"
       inkscape:document-units="mm"
       inkscape:current-layer="layer1"
       showgrid="false"
       inkscape:snap-global="false"
       inkscape:snap-bbox="true"
       inkscape:bbox-nodes="false"
       inkscape:window-width="1678"
       inkscape:window-height="1029"
       inkscape:window-x="1"
       inkscape:window-y="516"
       inkscape:window-maximized="0"
       inkscape:pagecheckerboard="true" />
   <metadata
       id="metadata5">
      <rdf:RDF>
         <cc:Work
             rdf:about="">
            <dc:format>image/svg+xml</dc:format>
            <dc:type
                rdf:resource="http://purl.org/dc/dcmitype/StillImage" />
            <dc:title></dc:title>
         </cc:Work>
      </rdf:RDF>
   </metadata>
   <g
       inkscape:label="Layer 1"
       inkscape:groupmode="layer"
       id="layer1"
       transform="translate(0,-281)">
      <rect
          style="fill:#6f7c91;stroke:#483e37;stroke-width:1.460989;stroke-linejoin:round;paint-order:markers stroke fill"
          id="rect1053"
          width="12.8239"
          height="14.3045"
          x="1.58805"
          y="281.848"
          rx="2.92198"
          ry="0.973994" />
      <g
          aria-label="MP"
          style="font-size:7.577653px;font-family:Georgia;-inkscape-font-specification:Georgia;letter-spacing:0px;word-spacing:0px;fill:#e9ddaf;stroke:#483e37;stroke-width:0.189441"
          id="text1057"
          transform="translate(0)">
         <path
             d="M 8.88801,291.625 H 6.56809 V 291.362 Q 6.69389,291.359 6.88999,291.336 7.08979,291.314 7.16379,291.273 7.2785,291.203 7.3303,291.114 7.3858,291.022 7.3858,290.885 V 287.067 H 7.3303 L 5.53948,291.54 H 5.35448 L 3.64877,286.974 H 3.60067 V 290.108 Q 3.60067,290.563 3.65617,290.8 3.71537,291.037 3.83377,291.14 3.91517,291.218 4.17047,291.288 4.42578,291.359 4.50348,291.362 V 291.625 H 2.38336 V 291.362 Q 2.54986,291.347 2.73116,291.307 2.91616,291.266 3.01607,291.185 3.14557,291.081 3.19367,290.866 3.24177,290.652 3.24177,290.149 V 287.462 Q 3.24177,287.229 3.18627,287.081 3.13077,286.933 3.02717,286.841 2.91246,286.741 2.74596,286.693 2.57946,286.645 2.41666,286.637 V 286.375 H 4.20747 L 5.70968,290.311 6.99359,287.018 Q 7.06389,286.837 7.11199,286.641 7.16379,286.441 7.16749,286.375 H 8.88061 V 286.637 Q 8.77701,286.641 8.6142,286.671 8.4551,286.7 8.3811,286.726 8.2553,286.771 8.2109,286.874 8.1665,286.978 8.1665,287.1 V 290.885 Q 8.1665,291.014 8.2109,291.103 8.2553,291.192 8.3811,291.259 8.4477,291.296 8.6179,291.329 8.78811,291.359 8.88801,291.362 Z"
             style="-inkscape-font-specification:Georgia"
             id="path2077"
             inkscape:connector-curvature="0" />
         <path
             d="M 13.6166,287.67 Q 13.6166,288.08 13.4538,288.399 13.2947,288.713 13.0098,288.92 12.7286,289.127 12.3919,289.224 12.0552,289.32 11.6778,289.32 H 11.0895 V 290.911 Q 11.0895,291.04 11.1302,291.14 11.1746,291.236 11.3078,291.288 11.3744,291.314 11.5409,291.336 11.7111,291.359 11.8517,291.362 V 291.625 H 9.59841 V 291.362 Q 9.68721,291.355 9.85371,291.336 10.0239,291.318 10.0905,291.288 10.2015,291.24 10.2496,291.148 10.3014,291.055 10.3014,290.911 V 287.122 Q 10.3014,286.993 10.2644,286.889 10.2274,286.785 10.0905,286.734 9.94991,286.685 9.80931,286.667 9.67241,286.645 9.57251,286.637 V 286.375 H 11.9701 Q 12.7027,286.375 13.1578,286.73 13.6166,287.081 13.6166,287.67 Z M 12.4918,288.565 Q 12.6176,288.387 12.6583,288.199 12.699,288.006 12.699,287.855 12.699,287.644 12.6472,287.425 12.5991,287.207 12.477,287.044 12.3475,286.87 12.1366,286.774 11.9257,286.678 11.6112,286.678 H 11.0895 V 288.998 H 11.4669 Q 11.8665,288.998 12.1144,288.876 12.366,288.75 12.4918,288.565 Z"
             style="-inkscape-font-specification:Georgia"
             id="path2079"
             inkscape:connector-curvature="0" />
      </g>
   </g>
</svg>
