<?xml version="1.0" encoding="UTF-8" standalone="no"?>
<!-- Created with Inkscape (http://www.inkscape.org/) -->

<svg
   xmlns:dc="http://purl.org/dc/elements/1.1/"
   xmlns:cc="http://creativecommons.org/ns#"
   xmlns:rdf="http://www.w3.org/1999/02/22-rdf-syntax-ns#"
   xmlns:svg="http://www.w3.org/2000/svg"
   xmlns="http://www.w3.org/2000/svg"
   xmlns:sodipodi="http://sodipodi.sourceforge.net/DTD/sodipodi-0.dtd"
   xmlns:inkscape="http://www.inkscape.org/namespaces/inkscape"
   width="16mm"
   height="16mm"
   viewBox="0 0 16 16"
   version="1.1"
   id="svg8"
   inkscape:version="0.92.2 2405546, 2018-03-11"
   sodipodi:docname="dexterity.svg">
  <defs
     id="defs2" />
  <sodipodi:namedview
     id="base"
     pagecolor="#ffffff"
     bordercolor="#666666"
     borderopacity="1.0"
     inkscape:pageopacity="0.0"
     inkscape:pageshadow="2"
     inkscape:zoom="3.3941125"
     inkscape:cx="5.8950936"
     inkscape:cy="-30.944313"
     inkscape:document-units="mm"
     inkscape:current-layer="g1929"
     showgrid="false"
     inkscape:snap-global="false"
     inkscape:snap-bbox="true"
     inkscape:bbox-nodes="false"
     inkscape:window-width="1918"
     inkscape:window-height="1059"
     inkscape:window-x="1"
     inkscape:window-y="20"
     inkscape:window-maximized="0"
     inkscape:pagecheckerboard="true" />
  <metadata
     id="metadata5">
    <rdf:RDF>
      <cc:Work
         rdf:about="">
        <dc:format>image/svg+xml</dc:format>
        <dc:type
           rdf:resource="http://purl.org/dc/dcmitype/StillImage" />
        <dc:title></dc:title>
      </cc:Work>
    </rdf:RDF>
  </metadata>
  <g
     inkscape:label="Layer 1"
     inkscape:groupmode="layer"
     id="layer1"
     transform="translate(0,-281)">
    <g
       id="g1929"
       transform="translate(0.68063443,-0.17502609)">
      <path
         sodipodi:nodetypes="cccccccc"
         inkscape:connector-curvature="0"
         id="rect1822"
         d="m 10.237544,284.02164 c -1.631299,-0.69004 -3.4578971,1.09661 -4.0504899,-1.13091 -1.2864627,0.80252 -2.5052188,4.09301 -4.4651454,7.53763 l 1.5702094,1.16672 c 0.4373644,-0.27692 0.4374558,-1.09903 1.6258093,1.19992 4.2215233,3.85882 7.9214946,4.2929 8.7289956,3.76867 1.94969,-3.71964 -1.373576,-3.3555 -3.073666,-5.67743 -0.893102,-1.21978 -1.3382595,-3.18082 -0.335713,-6.8646 z"
         style="opacity:1;vector-effect:none;fill:#e9ddaf;fill-opacity:1;stroke:#483e37;stroke-width:0.5;stroke-linecap:square;stroke-linejoin:round;stroke-miterlimit:4;stroke-dasharray:none;stroke-dashoffset:0;stroke-opacity:1;paint-order:markers stroke fill" />
      <path
         sodipodi:nodetypes="cccccccc"
         inkscape:connector-curvature="0"
         id="rect1822-9"
         d="m 2.4512704,289.00006 c -0.248771,0.43842 -0.5634072,0.94049 -0.810298,1.37441 l 1.6511458,1.34094 c 0.4373645,-0.27692 0.3808005,-1.1632 1.569154,1.13575 4.2215233,3.85881 8.0671798,4.30092 8.8746808,3.77669 0.232484,-0.44354 0.300965,-0.66855 0.395193,-1.00743 -0.46534,0.16692 -1.560449,0.80407 -5.7144298,-1.40296 -2.6371526,-1.63676 -2.8034061,-3.97668 -5.9654458,-5.2174 z"
         style="opacity:1;vector-effect:none;fill:#483e37;fill-opacity:1;stroke:none;stroke-width:0.58474833;stroke-linecap:square;stroke-linejoin:round;stroke-miterlimit:4;stroke-dasharray:none;stroke-dashoffset:0;stroke-opacity:1;paint-order:markers stroke fill" />
      <path
         sodipodi:nodetypes="ccccccc"
         inkscape:connector-curvature="0"
         id="path1915"
         d="m 10.319816,283.8777 -1.7482254,-0.12836 c 0.1584001,2.06993 -0.9907121,4.35878 0.2589965,7.1241 0.976739,0.76835 2.2202919,0.98153 2.1367209,0.16045 -0.471938,-0.22739 -0.649888,-0.89599 -1.0036123,-1.41198 -0.5660392,-2.26781 0.061223,-4.24445 0.3561173,-5.74421 z"
         style="fill:#483e37;fill-opacity:1;fill-rule:evenodd;stroke:none;stroke-width:0.30942929px;stroke-linecap:butt;stroke-linejoin:miter;stroke-opacity:1" />
      <path
         sodipodi:nodetypes="cccc"
         inkscape:connector-curvature="0"
         id="path1915-1"
         d="m 4.5602514,284.92974 -1.0272381,1.82325 c -0.7469511,1.12748 -0.872344,0.006 1.1727576,2.14796 2.3031926,-1.96055 1.0903526,-2.03851 -0.1455195,-3.97121 z"
         style="fill:#483e37;fill-opacity:1;fill-rule:evenodd;stroke:none;stroke-width:0.30942929px;stroke-linecap:butt;stroke-linejoin:miter;stroke-opacity:1" />
    </g>
  </g>
</svg>
