<?xml version="1.0" encoding="UTF-8" standalone="no"?>
<!-- Created with Inkscape (http://www.inkscape.org/) -->

<svg
    xmlns:dc="http://purl.org/dc/elements/1.1/"
    xmlns:cc="http://creativecommons.org/ns#"
    xmlns:rdf="http://www.w3.org/1999/02/22-rdf-syntax-ns#"
    xmlns:svg="http://www.w3.org/2000/svg"
    xmlns="http://www.w3.org/2000/svg"
    xmlns:sodipodi="http://sodipodi.sourceforge.net/DTD/sodipodi-0.dtd"
    xmlns:inkscape="http://www.inkscape.org/namespaces/inkscape"
    width="16mm"
    height="16mm"
    viewBox="0 0 16 16"
    version="1.1"
    id="svg8"
    inkscape:version="0.92.2 2405546, 2018-03-11"
    sodipodi:docname="strength.svg">
   <defs
       id="defs2" />
   <sodipodi:namedview
       id="base"
       pagecolor="#ffffff"
       bordercolor="#666666"
       borderopacity="1.0"
       inkscape:pageopacity="0.0"
       inkscape:pageshadow="2"
       inkscape:zoom="4.00001"
       inkscape:cx="81.1505"
       inkscape:cy="56.7421"
       inkscape:document-units="mm"
       inkscape:current-layer="layer1"
       showgrid="false"
       inkscape:snap-global="false"
       inkscape:snap-bbox="true"
       inkscape:bbox-nodes="false"
       inkscape:window-width="1678"
       inkscape:window-height="1029"
       inkscape:window-x="1"
       inkscape:window-y="516"
       inkscape:window-maximized="0"
       inkscape:pagecheckerboard="true" />
   <metadata
       id="metadata5">
      <rdf:RDF>
         <cc:Work
             rdf:about="">
            <dc:format>image/svg+xml</dc:format>
            <dc:type
                rdf:resource="http://purl.org/dc/dcmitype/StillImage" />
            <dc:title />
         </cc:Work>
      </rdf:RDF>
   </metadata>
   <g
       inkscape:label="Layer 1"
       inkscape:groupmode="layer"
       id="layer1"
       transform="translate(0,-281)">
      <g
          id="g872"
          transform="translate(-0.959859,0.954299)"
          style="stroke-width:0.5">
         <path
             sodipodi:nodetypes="ccccc"
             id="path916-9"
             d="M 8.11268,282.747 C 5.97332,285.653 4.23698,289.219 2.18639,291.88 1.46017,292.93 6.86488,298.055 9.64428,292.914 11.2273,291.742 11.9704,293.052 13.6699,289.312 Z"
             style="fill:#e9ddaf;stroke:#483e37;stroke-linecap:square;paint-order:markers stroke fill"
             inkscape:connector-curvature="0" />
         <path
             sodipodi:nodetypes="ssccs"
             inkscape:connector-curvature="0"
             id="path916"
             d="M 14.6537,286.111 C 15.1018,285.834 15.9302,286.965 15.7802,287.419 15.6397,287.845 13.7414,288.958 13.0205,289.458 11.6903,289.414 11.8794,288.955 11.8286,288.411 13.9522,286.653 14.3651,286.289 14.6537,286.111 Z"
             style="fill:#e9ddaf;stroke:#483e37;stroke-linecap:square;paint-order:markers stroke fill" />
         <path
             sodipodi:nodetypes="ssccs"
             inkscape:connector-curvature="0"
             id="path916-2"
             d="M 13.2426,283.706 C 13.7511,283.267 15.0075,284.98 14.7338,285.494 14.528,285.88 12.0274,287.98 11.3994,288.381 10.2318,288.221 10.4957,287.892 10.3886,287.35 11.1035,286.577 12.7458,284.134 13.2426,283.706 Z"
             style="fill:#e9ddaf;stroke:#483e37;stroke-linecap:square;paint-order:markers stroke fill" />
         <path
             sodipodi:nodetypes="scccs"
             inkscape:connector-curvature="0"
             id="path916-7"
             d="M 9.22976,281.043 C 9.57684,280.711 10.8507,280.993 10.9629,281.918 9.64996,283.831 8.64991,285.821 8.06637,286.653 7.33199,286.426 6.90093,286.034 6.45581,285.709 7.52137,283.36 8.39243,281.844 9.22976,281.043 Z"
             style="fill:#e9ddaf;stroke:#483e37;stroke-linecap:square;paint-order:markers stroke fill" />
         <path
             sodipodi:nodetypes="ssccs"
             inkscape:connector-curvature="0"
             id="path916-3"
             d="M 11.6779,281.702 C 12.5186,281.586 13.4677,282.736 13.3404,283.022 13.1455,283.461 10.4066,287.052 9.52421,287.421 9.06267,286.955 8.2855,286.429 8.2855,286.429 8.2855,286.429 11.033,281.791 11.6779,281.702 Z"
             style="fill:#e9ddaf;stroke:#483e37;stroke-linecap:square;paint-order:markers stroke fill" />
         <path
             sodipodi:nodetypes="ccssssc"
             inkscape:connector-curvature="0"
             id="path916-7-9"
             d="M 5.35975,287.014 C 5.2672,285.23 5.92987,284.166 7.32395,283.843 8.91176,284.001 10.4948,285.326 10.7978,286.212 11.0602,286.98 11.0398,287.848 10.0228,287.928 8.35054,288.059 8.11536,285.327 7.46682,287.367 7.38804,287.615 7.92099,287.972 8.21031,288.595 8.68808,289.625 8.66098,290.382 8.23914,290.335"
             style="fill:#e9ddaf;stroke:#483e37;stroke-linejoin:round;paint-order:markers stroke fill" />
      </g>
   </g>
</svg>
