<?xml version="1.0" encoding="UTF-8" standalone="no"?>
<!-- Created with Inkscape (http://www.inkscape.org/) -->

<svg
   xmlns:dc="http://purl.org/dc/elements/1.1/"
   xmlns:cc="http://creativecommons.org/ns#"
   xmlns:rdf="http://www.w3.org/1999/02/22-rdf-syntax-ns#"
   xmlns:svg="http://www.w3.org/2000/svg"
   xmlns="http://www.w3.org/2000/svg"
   xmlns:sodipodi="http://sodipodi.sourceforge.net/DTD/sodipodi-0.dtd"
   xmlns:inkscape="http://www.inkscape.org/namespaces/inkscape"
   width="32mm"
   height="32mm"
   viewBox="0 0 32 32"
   version="1.1"
   id="svg8"
   inkscape:version="0.92.4 5da689c313, 2019-01-14"
   sodipodi:docname="swapwp.svg">
  <defs
     id="defs2">
    <marker
       inkscape:stockid="Arrow1Mend"
       orient="auto"
       refY="0.0"
       refX="0.0"
       id="Arrow1Mend"
       style="overflow:visible;"
       inkscape:isstock="true">
      <path
         id="path858"
         d="M 0.0,0.0 L 5.0,-5.0 L -12.5,0.0 L 5.0,5.0 L 0.0,0.0 z "
         style="fill-rule:evenodd;stroke:#000000;stroke-width:1pt;stroke-opacity:1;fill:#000000;fill-opacity:1"
         transform="scale(0.4) rotate(180) translate(10,0)" />
    </marker>
    <marker
       inkscape:stockid="Arrow2Mend"
       orient="auto"
       refY="0.0"
       refX="0.0"
       id="Arrow2Mend"
       style="overflow:visible;"
       inkscape:isstock="true">
      <path
         id="path876"
         style="fill-rule:evenodd;stroke-width:0.625;stroke-linejoin:round;stroke:#000000;stroke-opacity:1;fill:#000000;fill-opacity:1"
         d="M 8.7185878,4.0337352 L -2.2072895,0.016013256 L 8.7185884,-4.0017078 C 6.9730900,-1.6296469 6.9831476,1.6157441 8.7185878,4.0337352 z "
         transform="scale(0.6) rotate(180) translate(0,0)" />
    </marker>
  </defs>
  <sodipodi:namedview
     id="base"
     pagecolor="#ffffff"
     bordercolor="#666666"
     borderopacity="1.0"
     inkscape:pageopacity="0.0"
     inkscape:pageshadow="2"
     inkscape:zoom="5.6568542"
     inkscape:cx="44.5411"
     inkscape:cy="53.777319"
     inkscape:document-units="mm"
     inkscape:current-layer="g829"
     showgrid="false"
     inkscape:window-width="1908"
     inkscape:window-height="1078"
     inkscape:window-x="11"
     inkscape:window-y="1"
     inkscape:window-maximized="0"
     inkscape:pagecheckerboard="true"
     inkscape:snap-global="false" />
  <metadata
     id="metadata5">
    <rdf:RDF>
      <cc:Work
         rdf:about="">
        <dc:format>image/svg+xml</dc:format>
        <dc:type
           rdf:resource="http://purl.org/dc/dcmitype/StillImage" />
        <dc:title></dc:title>
      </cc:Work>
    </rdf:RDF>
  </metadata>
  <g
     inkscape:groupmode="layer"
     id="layer2"
     inkscape:label="Layer 2"
     style="display:inline" />
  <g
     inkscape:label="Layer 1"
     inkscape:groupmode="layer"
     id="layer1"
     transform="translate(0,-265)"
     style="display:inline">
    <g
       id="g829"
       transform="rotate(45,13.546346,299.58838)"
       style="stroke:#483e37;stroke-opacity:1;fill:#e9ddaf;fill-opacity:1;stroke-width:0.5;stroke-miterlimit:4;stroke-dasharray:none;paint-order:stroke fill markers">
      <g
         id="g2286"
         transform="translate(-0.00326371,-0.17138667)">
        <path
           inkscape:connector-curvature="0"
           id="path823"
           d="m -11.466274,283.34273 c 2.7078673,3.56298 4.1655548,7.15662 8.1235046,10.68906 0.5880662,0.93343 -0.4765467,1.85191 -1.3017122,2.97366 1.15681,-0.52238 2.554403,-0.0823 3.4396019,-1.6911 0.52650766,0.93561 1.52574616,2.0288 3.4204736,3.42048 0.196669,0.83142 1.2825695,-0.42766 1.2825695,-0.42766 0,0 1.2590848,-1.08591 0.4276633,-1.28257 -1.3916788,-1.89473 -2.4848683,-2.89397 -3.42047359,-3.42048 1.60883789,-0.8852 1.16871709,-2.28279 1.69109689,-3.4396 -1.1217547,0.82517 -2.04023684,1.88978 -2.97366664,1.30171 -3.53243206,-3.95795 -7.12607506,-5.41563 -10.68905736,-8.1235 z"
           style="fill:#e9ddaf;fill-opacity:1;stroke:#483e37;stroke-width:0.5;stroke-linecap:square;stroke-linejoin:round;stroke-miterlimit:4;stroke-dasharray:none;stroke-opacity:1;paint-order:stroke fill markers" />
        <path
           inkscape:connector-curvature="0"
           id="path823-3"
           d="m 15.57289,286.24423 c -3.56298,-2.70787 -7.1566208,-4.16556 -10.6890608,-8.12351 -0.93343,-0.58806 -1.85191,0.47655 -2.97366,1.30171 0.52238,-1.15681 0.0823,-2.5544 1.6911,-3.4396 -0.93561,-0.5265 -2.0288,-1.52574 -3.42047994,-3.42047 -0.8314201,-0.19667 0.42766,-1.28257 0.42766,-1.28257 0,0 1.08590994,-1.25909 1.28256994,-0.42766 1.89473,1.39168 2.89397,2.48486 3.42048,3.42047 0.8852,-1.60884 2.28279,-1.16872 3.4396,-1.6911 -0.82517,1.12176 -1.88978,2.04024 -1.30171,2.97367 3.9579508,3.53243 5.4156308,7.12607 8.1235008,10.68906 z"
           style="display:inline;fill:#e9ddaf;fill-opacity:1;stroke:#483e37;stroke-width:0.5;stroke-linecap:square;stroke-linejoin:round;stroke-miterlimit:4;stroke-dasharray:none;stroke-opacity:1;paint-order:stroke fill markers" />
        <path
           inkscape:connector-curvature="0"
           id="path1902"
           d="m -4.1855598,274.95159 c 0.3639264,0.30289 0.6246242,0.69257 0.7688174,1.11815 -1.2263949,0.45705 -2.3695102,1.02822 -3.3149774,1.79853 -1.5821735,1.28906 -2.5906716,3.15456 -2.4533463,5.81802 l 0.5996338,-0.0311 c -0.1290289,-2.50253 0.7688826,-4.12988 2.2322748,-5.32216 0.851985,-0.69414 1.9074371,-1.2283 3.0580958,-1.66516 0.028162,0.36178 -0.022826,0.73187 -0.1633372,1.08343 l 2.71388214,-1.88294 c 0.012725,-0.003 0.025272,-0.007 0.038002,-0.0102 l -0.00329,-0.0135 0.69500518,-0.48234 -0.84372608,-0.0829 -3.654e-4,-0.001 c -7.446e-4,2e-4 -0.00145,5.4e-4 -0.00219,7.4e-4 z"
           style="color:#000000;font-style:normal;font-variant:normal;font-weight:normal;font-stretch:normal;font-size:medium;line-height:normal;font-family:sans-serif;font-variant-ligatures:normal;font-variant-position:normal;font-variant-caps:normal;font-variant-numeric:normal;font-variant-alternates:normal;font-feature-settings:normal;text-indent:0;text-align:start;text-decoration:none;text-decoration-line:none;text-decoration-style:solid;text-decoration-color:#000000;letter-spacing:normal;word-spacing:normal;text-transform:none;writing-mode:lr-tb;direction:ltr;text-orientation:mixed;dominant-baseline:auto;baseline-shift:baseline;text-anchor:start;white-space:normal;shape-padding:0;clip-rule:nonzero;display:inline;overflow:visible;visibility:visible;opacity:1;isolation:auto;mix-blend-mode:normal;color-interpolation:sRGB;color-interpolation-filters:linearRGB;solid-color:#000000;solid-opacity:1;vector-effect:none;fill:#e9ddaf;fill-opacity:1;fill-rule:evenodd;stroke:#483e37;stroke-width:0.49999997;stroke-linecap:butt;stroke-linejoin:miter;stroke-miterlimit:4;stroke-dasharray:none;stroke-dashoffset:0;stroke-opacity:1;paint-order:stroke fill markers;color-rendering:auto;image-rendering:auto;shape-rendering:auto;text-rendering:auto;enable-background:accumulate" />
        <path
           id="path1902-6"
           d="m 8.4087245,294.86821 c -0.3639293,-0.30289 -0.6246303,-0.69257 -0.7688198,-1.11815 1.2263901,-0.45705 2.3695103,-1.02822 3.3149793,-1.79853 1.582169,-1.28906 2.590668,-3.15456 2.453338,-5.81802 l -0.599629,0.0311 c 0.12903,2.50253 -0.76888,4.12988 -2.232279,5.32216 -0.8519793,0.69414 -1.9074292,1.2283 -3.0580894,1.66516 -0.0282,-0.36178 0.0228,-0.73187 0.1633401,-1.08343 l -2.7138902,1.88294 c -0.0127,0.003 -0.0253,0.007 -0.038,0.0102 l 0.003,0.0135 -0.6949986,0.48234 0.843719,0.083 3.6e-4,10e-4 c 7.5e-4,-1.8e-4 0.001,-5.4e-4 0.002,-7.3e-4 z"
           style="color:#000000;font-style:normal;font-variant:normal;font-weight:normal;font-stretch:normal;font-size:medium;line-height:normal;font-family:sans-serif;font-variant-ligatures:normal;font-variant-position:normal;font-variant-caps:normal;font-variant-numeric:normal;font-variant-alternates:normal;font-feature-settings:normal;text-indent:0;text-align:start;text-decoration:none;text-decoration-line:none;text-decoration-style:solid;text-decoration-color:#000000;letter-spacing:normal;word-spacing:normal;text-transform:none;writing-mode:lr-tb;direction:ltr;text-orientation:mixed;dominant-baseline:auto;baseline-shift:baseline;text-anchor:start;white-space:normal;shape-padding:0;clip-rule:nonzero;display:inline;overflow:visible;visibility:visible;opacity:1;isolation:auto;mix-blend-mode:normal;color-interpolation:sRGB;color-interpolation-filters:linearRGB;solid-color:#000000;solid-opacity:1;vector-effect:none;fill:#e9ddaf;fill-opacity:1;fill-rule:evenodd;stroke:#483e37;stroke-width:0.49999997;stroke-linecap:butt;stroke-linejoin:miter;stroke-miterlimit:4;stroke-dasharray:none;stroke-dashoffset:0;stroke-opacity:1;paint-order:stroke fill markers;color-rendering:auto;image-rendering:auto;shape-rendering:auto;text-rendering:auto;enable-background:accumulate"
           inkscape:connector-curvature="0" />
      </g>
    </g>
  </g>
</svg>
