<?xml version="1.0" encoding="UTF-8" standalone="no"?>
<!-- Created with Inkscape (http://www.inkscape.org/) -->

<svg
   xmlns:dc="http://purl.org/dc/elements/1.1/"
   xmlns:cc="http://creativecommons.org/ns#"
   xmlns:rdf="http://www.w3.org/1999/02/22-rdf-syntax-ns#"
   xmlns:svg="http://www.w3.org/2000/svg"
   xmlns="http://www.w3.org/2000/svg"
   xmlns:sodipodi="http://sodipodi.sourceforge.net/DTD/sodipodi-0.dtd"
   xmlns:inkscape="http://www.inkscape.org/namespaces/inkscape"
   width="64mm"
   height="64mm"
   viewBox="0 0 64 64"
   version="1.1"
   id="svg8"
   inkscape:version="0.92.2 5c3e80d, 2017-08-06"
   sodipodi:docname="crow.svg">
  <defs
     id="defs2" />
  <sodipodi:namedview
     id="base"
     pagecolor="#ffffff"
     bordercolor="#666666"
     borderopacity="1.0"
     inkscape:pageopacity="0.0"
     inkscape:pageshadow="2"
     inkscape:zoom="4"
     inkscape:cx="90.025872"
     inkscape:cy="65.117843"
     inkscape:document-units="mm"
     inkscape:current-layer="layer1"
     showgrid="false"
     inkscape:window-width="1918"
     inkscape:window-height="1059"
     inkscape:window-x="1"
     inkscape:window-y="20"
     inkscape:window-maximized="0"
     inkscape:measure-start="0,0"
     inkscape:measure-end="0,0" />
  <metadata
     id="metadata5">
    <rdf:RDF>
      <cc:Work
         rdf:about="">
        <dc:format>image/svg+xml</dc:format>
        <dc:type
           rdf:resource="http://purl.org/dc/dcmitype/StillImage" />
        <dc:title></dc:title>
      </cc:Work>
    </rdf:RDF>
  </metadata>
  <g
     inkscape:label="head"
     inkscape:groupmode="layer"
     id="layer1"
     transform="translate(0,-233)"
     style="display:inline;opacity:1">
    <path
       style="fill:#1a1a1a;fill-opacity:1;stroke:#000000;stroke-width:0.2;stroke-linecap:butt;stroke-linejoin:miter;stroke-miterlimit:10;stroke-dasharray:none;stroke-opacity:1"
       d="M 12.958382,259.42734 C 9.6952359,277.5525 0.1,282.75253 0.1,290.91106 V 296.9 H 54 c 0.17354,-16.24022 -5.208495,-20.63999 -5.70579,-38.05662 -0.383909,-1.1561 0.511367,-2.78565 0.870526,-4.35034 0.308488,-1.34393 0.06533,-2.72674 0.06533,-2.72674 -20.691145,-20.9331 -35.213426,1.78291 -36.271688,7.66104 z"
       id="path4485"
       inkscape:connector-curvature="0"
       sodipodi:nodetypes="sscccsss" />
  </g>
  <g
     inkscape:groupmode="layer"
     id="layer9"
     inkscape:label="mask"
     style="display:inline">
    <path
       style="fill:#101010;fill-opacity:1;fill-rule:evenodd;stroke:none;stroke-width:0.26458332px;stroke-linecap:butt;stroke-linejoin:miter;stroke-opacity:1"
       d="m 33.863049,37.526952 c 1.551494,-0.998514 2.554711,-2.39573 11.817309,-0.873998 L 47.92214,25.657345 c 3.300264,-4.360123 -0.498884,-3.563571 -2.927317,-5.249005 -7.70296,-2.111558 -14.719508,3.384301 -18.846549,2.93287 l -0.826822,4.340821 c 0.240926,-0.687014 -3.082643,1.57625 -2.496635,2.174287 2.228778,4.392231 5.605993,0.672139 11.038232,7.670634 z"
       id="path4754"
       inkscape:connector-curvature="0"
       sodipodi:nodetypes="cccccccc" />
  </g>
  <g
     inkscape:groupmode="layer"
     id="layer6"
     inkscape:label="beak"
     style="display:inline;opacity:1">
    <path
       style="opacity:1;fill:#000000;fill-opacity:1;fill-rule:evenodd;stroke:none;stroke-width:0.26458332px;stroke-linecap:butt;stroke-linejoin:miter;stroke-opacity:1"
       d="m 35.966796,35.391926 c 4.691111,0.247452 14.572609,2.2578 15.378907,1.074869 l 2.397786,1.984376 c 1.06663,-3.276366 -5.039066,-14.857635 -9.343099,-14.965494 1.146931,6.099936 -3.897093,5.550327 -8.516276,5.45703 -0.559172,0.263382 -1.141783,0.409573 -1.488281,1.736328 1.456316,2.170221 3.888888,3.231428 1.570963,4.712891 z"
       id="path4729"
       inkscape:connector-curvature="0"
       sodipodi:nodetypes="ccccccc" />
    <path
       style="fill:none;fill-rule:evenodd;stroke:#666666;stroke-width:0.15000001;stroke-linecap:butt;stroke-linejoin:miter;stroke-miterlimit:4;stroke-dasharray:none;stroke-opacity:1"
       d="M 51.345702,36.466795 C 49.103376,33.212352 44.54368,30.859108 34.395833,30.679035"
       id="path4735"
       inkscape:connector-curvature="0"
       sodipodi:nodetypes="cc" />
  </g>
  <g
     inkscape:groupmode="layer"
     id="layer8"
     inkscape:label="eyes"
     style="display:inline">
    <path
       style="fill:#000000;fill-rule:evenodd;stroke:#333333;stroke-width:0.37795275;stroke-linecap:butt;stroke-linejoin:miter;stroke-miterlimit:4;stroke-dasharray:none;stroke-opacity:1"
       d="m 98.828125,88.21875 c -2.007923,1.257672 -10.488003,1.310333 -3.125,16.40625 2.52604,1.91621 5.052085,2.48315 7.578125,2.10938 2.18434,-1.19093 2.3614,-0.30079 6.95313,-3.82813 0.6949,-4.709771 -1.22396,-6.09375 -1.79688,-9.21875 -3.32369,-2.973608 -6.49365,-5.198778 -9.609375,-5.46875 z"
       transform="scale(0.26458333)"
       id="path4743"
       inkscape:connector-curvature="0"
       sodipodi:nodetypes="cccccc" />
    <ellipse
       style="opacity:1;fill:#333333;fill-opacity:1;stroke:none;stroke-width:0.2;stroke-linejoin:bevel;stroke-miterlimit:4;stroke-dasharray:none;stroke-dashoffset:0;stroke-opacity:1"
       id="path4745"
       ry="0.42374673"
       rx="0.22737631"
       cy="24.984293"
       cx="27.078449" />
    <path
       style="fill:#000000;fill-rule:evenodd;stroke:none;stroke-width:0.26499999;stroke-linecap:butt;stroke-linejoin:miter;stroke-miterlimit:4;stroke-dasharray:none;stroke-opacity:1"
       d="m 49.096744,21.865104 c 0.700097,1.717459 -0.05895,2.78775 -0.876432,3.63802 -0.265303,-0.690067 0.508883,-2.354655 0.876432,-3.63802 z"
       id="path4751"
       inkscape:connector-curvature="0"
       sodipodi:nodetypes="ccc" />
  </g>
</svg>
