<?xml version="1.0" encoding="UTF-8" standalone="no"?>
<!-- Created with Inkscape (http://www.inkscape.org/) -->

<svg
   xmlns:dc="http://purl.org/dc/elements/1.1/"
   xmlns:cc="http://creativecommons.org/ns#"
   xmlns:rdf="http://www.w3.org/1999/02/22-rdf-syntax-ns#"
   xmlns:svg="http://www.w3.org/2000/svg"
   xmlns="http://www.w3.org/2000/svg"
   xmlns:xlink="http://www.w3.org/1999/xlink"
   xmlns:sodipodi="http://sodipodi.sourceforge.net/DTD/sodipodi-0.dtd"
   xmlns:inkscape="http://www.inkscape.org/namespaces/inkscape"
   width="64mm"
   height="64mm"
   viewBox="0 0 64 64"
   version="1.1"
   id="svg8"
   inkscape:version="0.92.2 5c3e80d, 2017-08-06"
   sodipodi:docname="grey_cat_w_leather_armor.svg">
  <defs
     id="defs2" />
  <sodipodi:namedview
     id="base"
     pagecolor="#ffffff"
     bordercolor="#666666"
     borderopacity="1.0"
     inkscape:pageopacity="0.0"
     inkscape:pageshadow="2"
     inkscape:zoom="1"
     inkscape:cx="139.29032"
     inkscape:cy="90.086887"
     inkscape:document-units="mm"
     inkscape:current-layer="layer12"
     showgrid="false"
     inkscape:window-width="1678"
     inkscape:window-height="1029"
     inkscape:window-x="1051"
     inkscape:window-y="500"
     inkscape:window-maximized="0"
     inkscape:measure-start="0,0"
     inkscape:measure-end="0,0"
     inkscape:snap-global="false"
     showguides="false" />
  <metadata
     id="metadata5">
    <rdf:RDF>
      <cc:Work
         rdf:about="">
        <dc:format>image/svg+xml</dc:format>
        <dc:type
           rdf:resource="http://purl.org/dc/dcmitype/StillImage" />
        <dc:title></dc:title>
      </cc:Work>
    </rdf:RDF>
  </metadata>
  <g
     inkscape:groupmode="layer"
     id="layer5"
     inkscape:label="body"
     style="display:inline"
     sodipodi:insensitive="true">
    <path
       style="fill:#b3b3b3;fill-opacity:1;stroke:none;stroke-width:0.26499999;stroke-miterlimit:4;stroke-dasharray:none;stroke-opacity:1"
       d="M 54,64 H 0 C -0.24647645,46.674733 12.283476,43.221004 20.890937,44.356909 23.608238,20.150137 38.034092,40.503853 40.050086,47.377529 46.517059,47.819936 53.163822,51.094166 54,64 Z"
       id="path906"
       inkscape:connector-curvature="0"
       sodipodi:nodetypes="ccccc" />
  </g>
  <g
     inkscape:label="head"
     inkscape:groupmode="layer"
     id="layer1"
     transform="translate(0,-233)"
     style="display:inline;opacity:1"
     sodipodi:insensitive="true">
    <path
       style="fill:#b3b3b3;fill-opacity:1;stroke:#000000;stroke-width:0.75590551;stroke-linecap:butt;stroke-linejoin:miter;stroke-miterlimit:10;stroke-dasharray:none;stroke-opacity:1"
       d="m 180.81445,11.140625 c -13.01171,1.339768 -22.14605,18.042797 -52.4414,36.408203 -8.67301,-2.140697 -18.84943,-3.091437 -30.789066,-2.427734 -0.698354,0.08594 -1.37627,0.200619 -2.05664,0.3125 C 89.707881,32.876312 88.816967,16.174085 69.25,16.140625 46.539992,35.693989 46.01716,61.568504 57.976562,87.820312 53.525685,124.66 79.447014,172.67387 137.70898,178.83984 c 26.27907,-0.33688 37.00505,-34.82606 38.25782,-74.60156 -0.82228,-7.497595 -2.81083,-16.092439 -6.77539,-24.373046 -0.57339,-16.836668 19.87557,-53.008293 11.62304,-68.724609 z"
       transform="matrix(0.26458333,0,0,0.26458333,0,233)"
       id="path4485"
       inkscape:connector-curvature="0" />
  </g>
  <g
     inkscape:groupmode="layer"
     id="layer8"
     inkscape:label="eye-mask"
     sodipodi:insensitive="true" />
  <g
     inkscape:groupmode="layer"
     id="layer6"
     inkscape:label="mouth-spot"
     sodipodi:insensitive="true">
    <path
       style="display:inline;opacity:0.46000001;fill:#e6e6e6;fill-opacity:1;stroke:none;stroke-width:0.2;stroke-linecap:butt;stroke-linejoin:miter;stroke-miterlimit:4;stroke-dasharray:none;stroke-opacity:1"
       d="m 38.470927,46.887045 c 3.222434,-1.42838 8.95512,-7.208961 4.693027,-10.589064 0.472375,-5.034671 3.120277,-7.287049 1.933831,-10.605012 -12.750946,-9.476244 -17.402941,-1.094089 -19.901386,2.058189 -0.480303,3.410462 9.411233,6.181581 12.07866,9.844021 -17.378735,10.190092 -0.07949,9.535563 1.195868,9.291866 z"
       id="path4625-9"
       inkscape:connector-curvature="0"
       sodipodi:nodetypes="cccccc" />
  </g>
  <g
     inkscape:groupmode="layer"
     id="layer2"
     inkscape:label="face-back"
     style="display:inline;opacity:1"
     sodipodi:insensitive="true">
    <path
       style="fill:#aaeeff;fill-opacity:1;stroke:#000000;stroke-width:0.2;stroke-linecap:butt;stroke-linejoin:miter;stroke-miterlimit:10;stroke-dasharray:none;stroke-opacity:1"
       d="m 32.808332,29.86875 c -2.95333,3.10761 -5.61264,0.974796 -6.81302,-2.315105 3.867401,-2.088414 7.043897,-1.516374 6.81302,2.315105 z"
       id="path4505"
       inkscape:connector-curvature="0"
       sodipodi:nodetypes="ccc" />
    <path
       style="fill:#aaeeff;fill-opacity:1;stroke:#000000;stroke-width:0.2;stroke-linecap:butt;stroke-linejoin:miter;stroke-miterlimit:10;stroke-dasharray:none;stroke-opacity:1"
       d="m 41.5329,30.727704 c 0,0 -1.051787,-4.343861 3.298874,-4.408782 0.924907,5.464456 -3.298874,4.408782 -3.298874,4.408782 z"
       id="path4505-6"
       inkscape:connector-curvature="0"
       sodipodi:nodetypes="scs" />
  </g>
  <g
     inkscape:groupmode="layer"
     id="layer3"
     inkscape:label="face-front"
     style="display:inline;opacity:1"
     sodipodi:insensitive="true">
    <path
       style="fill:#000000;fill-opacity:1;stroke:none;stroke-width:0.2;stroke-linecap:butt;stroke-linejoin:miter;stroke-miterlimit:10;stroke-dasharray:none;stroke-opacity:1"
       d="m 29.78268,29.78899 c -0.964492,-1.084197 -0.645481,-1.95767 -9.47e-4,-2.846842 1.034627,0.891529 1.051951,1.728288 9.47e-4,2.846842 z"
       id="path4505-0"
       inkscape:connector-curvature="0"
       sodipodi:nodetypes="ccc" />
    <path
       style="fill:#000000;fill-opacity:1;stroke:none;stroke-width:0.2;stroke-linecap:butt;stroke-linejoin:miter;stroke-miterlimit:10;stroke-dasharray:none;stroke-opacity:1"
       d="m 42.729176,29.490407 c -0.705996,-0.343337 -0.946181,-1.170955 -0.304217,-2.383011 1.134997,0.614773 0.976877,1.723961 0.304217,2.383011 z"
       id="path4505-0-9"
       inkscape:connector-curvature="0"
       sodipodi:nodetypes="ccc" />
    <path
       style="fill:#916f6f;stroke:#000000;stroke-width:0.2;stroke-linecap:butt;stroke-linejoin:miter;stroke-miterlimit:4;stroke-dasharray:none;stroke-opacity:1"
       d="m 40.472346,39.545629 c 1.050993,-0.529536 1.103252,-1.982823 1.103252,-1.982823 0.394535,-0.222456 1.062812,-0.430003 1.155097,-0.831289 0.214218,-0.931492 -0.689781,-0.713531 -1.808662,-0.164656 -1.382652,-0.668533 -3.16529,0.370806 -2.714042,0.850547 0.558375,0.593633 1.485932,-0.859441 1.80056,0.126724 -0.18947,0.437201 -1.265926,1.833793 0.463795,2.001497 z"
       id="path4569"
       inkscape:connector-curvature="0"
       sodipodi:nodetypes="ccscscc" />
    <path
       style="fill:none;stroke:#000000;stroke-width:0.26499999;stroke-linecap:round;stroke-linejoin:miter;stroke-miterlimit:4;stroke-dasharray:none;stroke-opacity:1"
       d="m 35.18068,41.950009 c 4.46134,0.659673 4.628585,-0.559737 4.961343,-2.058231 -0.03896,2.200983 1.646261,2.021203 3.080583,1.29965"
       id="path4573"
       inkscape:connector-curvature="0"
       sodipodi:nodetypes="ccc" />
    <path
       style="fill:none;stroke:#000000;stroke-width:0.26458332px;stroke-linecap:butt;stroke-linejoin:miter;stroke-opacity:1"
       d="M 34.657575,38.008341 28.995493,37.558549"
       id="path4585"
       inkscape:connector-curvature="0"
       sodipodi:nodetypes="cc" />
    <path
       style="fill:none;stroke:#000000;stroke-width:0.26458332px;stroke-linecap:butt;stroke-linejoin:miter;stroke-opacity:1"
       d="m 34.407196,39.40974 -6.19125,1.640416"
       id="path4587"
       inkscape:connector-curvature="0"
       sodipodi:nodetypes="cc" />
    <path
       style="fill:none;stroke:#000000;stroke-width:0.25245246px;stroke-linecap:butt;stroke-linejoin:miter;stroke-opacity:1"
       d="m 29.526097,43.693603 5.154714,-2.850616"
       id="path4589"
       inkscape:connector-curvature="0"
       sodipodi:nodetypes="cc" />
    <path
       style="fill:none;stroke:#000000;stroke-width:0.21287958px;stroke-linecap:butt;stroke-linejoin:miter;stroke-opacity:1"
       d="m 43.876062,37.596099 3.968852,-1.288445"
       id="path4591"
       inkscape:connector-curvature="0"
       sodipodi:nodetypes="cc" />
    <path
       style="fill:none;stroke:#000000;stroke-width:0.17377084px;stroke-linecap:butt;stroke-linejoin:miter;stroke-opacity:1"
       d="m 44.15876,38.80944 4.236814,0.633773"
       id="path4593"
       inkscape:connector-curvature="0"
       sodipodi:nodetypes="cc" />
    <path
       style="fill:none;stroke:#000000;stroke-width:0.22698356px;stroke-linecap:butt;stroke-linejoin:miter;stroke-opacity:1"
       d="m 44.084083,40.241318 3.239855,0.979111"
       id="path4595"
       inkscape:connector-curvature="0"
       sodipodi:nodetypes="cc" />
    <path
       style="opacity:1;fill:#e6e6e6;fill-opacity:1;stroke:#000000;stroke-width:0.2;stroke-linecap:butt;stroke-linejoin:miter;stroke-miterlimit:4;stroke-dasharray:none;stroke-opacity:1"
       d="m 16.470312,21.534376 c 3.582899,-9.017882 5.842882,-4.211285 8.764323,-6.316927 C 24.981076,9.1210082 21.122569,4.2813382 18.851562,5.1302099 11.950347,8.6028659 13.019704,19.847657 16.470312,21.534376 Z"
       id="path4625"
       inkscape:connector-curvature="0"
       sodipodi:nodetypes="cccc" />
    <path
       style="opacity:1;fill:#e6e6e6;fill-opacity:1;stroke:#000000;stroke-width:0.2;stroke-linecap:butt;stroke-linejoin:miter;stroke-miterlimit:4;stroke-dasharray:none;stroke-opacity:1"
       d="m 38.641356,13.9777 c 2.12007,-0.234757 3.969075,2.645184 5.269943,5.136677 C 45.079876,14.076269 49.582168,3.1899304 47.311161,4.0388021 45.370884,3.5096351 38.927988,9.44671 38.641356,13.9777 Z"
       id="path4625-6"
       inkscape:connector-curvature="0"
       sodipodi:nodetypes="cccc" />
  </g>
  <g
     inkscape:groupmode="layer"
     id="layer4"
     inkscape:label="strips"
     style="display:inline"
     sodipodi:insensitive="true">
    <path
       style="fill:#808080;fill-opacity:1;stroke:none;stroke-width:0.26458332px;stroke-linecap:butt;stroke-linejoin:miter;stroke-opacity:1"
       d="m 28.949507,14.035016 c -1.155727,2.779078 -3.01325,4.750577 0.188864,10.758562 0.12383,-2.578399 1.694044,-10.335557 -0.188864,-10.758562 z"
       id="path1948"
       inkscape:connector-curvature="0"
       sodipodi:nodetypes="ccc" />
    <path
       style="fill:#808080;fill-opacity:1;stroke:none;stroke-width:0.26458332px;stroke-linecap:butt;stroke-linejoin:miter;stroke-opacity:1"
       d="m 31.037252,17.013063 c -1.47781,2.674132 2.139537,5.035879 2.71467,5.859959 -0.148016,-2.53086 -2.599121,-3.853721 -2.71467,-5.859959 z"
       id="path1948-3"
       inkscape:connector-curvature="0"
       sodipodi:nodetypes="ccc" />
    <path
       style="display:inline;fill:#808080;fill-opacity:1;stroke:none;stroke-width:0.26458332px;stroke-linecap:butt;stroke-linejoin:miter;stroke-opacity:1"
       d="m 36.109902,14.682246 c 2.003148,2.246414 5.649816,3.938698 5.327051,10.474673 -0.962504,-2.395217 -6.967128,-9.457606 -5.327051,-10.474673 z"
       id="path1948-2"
       inkscape:connector-curvature="0"
       sodipodi:nodetypes="ccc" />
    <path
       style="display:inline;fill:#808080;fill-opacity:1;stroke:none;stroke-width:0.26458332px;stroke-linecap:butt;stroke-linejoin:miter;stroke-opacity:1"
       d="m 35.714605,17.442156 c 1.848537,1.511156 0.420162,4.585374 0.215642,5.315465 -0.690101,-2.439451 0.333094,-3.382273 -0.215642,-5.315465 z"
       id="path1948-3-9"
       inkscape:connector-curvature="0"
       sodipodi:nodetypes="ccc" />
    <path
       style="display:inline;fill:#808080;fill-opacity:1;stroke:none;stroke-width:0.26458332px;stroke-linecap:butt;stroke-linejoin:miter;stroke-opacity:1"
       d="m 16.089476,27.472084 c 4.341757,0.469072 8.362602,-5.789913 9.910724,-0.937736 -0.962505,-2.395217 -6.686496,3.357968 -9.910724,0.937736 z"
       id="path1948-2-1"
       inkscape:connector-curvature="0"
       sodipodi:nodetypes="ccc" />
    <path
       style="display:inline;fill:#808080;fill-opacity:1;stroke:none;stroke-width:0.26458332px;stroke-linecap:butt;stroke-linejoin:miter;stroke-opacity:1"
       d="m 19.833887,36.654652 c 3.406314,-5.237132 9.204501,-2.515861 12.342877,-2.715078 -1.336683,1.253012 -6.592952,0.551638 -12.342877,2.715078 z"
       id="path1948-2-1-2"
       inkscape:connector-curvature="0"
       sodipodi:nodetypes="ccc" />
    <path
       style="display:inline;fill:#808080;fill-opacity:1;stroke:none;stroke-width:0.26458332px;stroke-linecap:butt;stroke-linejoin:miter;stroke-opacity:1"
       d="m 46.021326,32.134507 c -1.161249,-0.840548 -1.440321,-1.019152 -3.175532,0.278341 1.897949,0.411113 2.383457,0.458094 3.175532,-0.278341 z"
       id="path1948-2-1-2-7"
       inkscape:connector-curvature="0"
       sodipodi:nodetypes="ccc" />
    <path
       style="display:inline;fill:#808080;fill-opacity:1;stroke:none;stroke-width:0.26458332px;stroke-linecap:butt;stroke-linejoin:miter;stroke-opacity:1"
       d="m 46.021325,24.662386 c -1.161249,-0.840548 -1.62741,-0.832063 -2.427177,0.839607 1.71086,-0.711419 1.635102,-0.103172 2.427177,-0.839607 z"
       id="path1948-2-1-2-7-0"
       inkscape:connector-curvature="0"
       sodipodi:nodetypes="ccc" />
    <path
       style="display:inline;fill:#808080;fill-opacity:1;stroke:none;stroke-width:0.26458332px;stroke-linecap:butt;stroke-linejoin:miter;stroke-opacity:1"
       d="m 37.233133,28.018556 c 2.190238,1.498059 1.908043,3.845153 3.081988,7.574798 -2.833392,-1.740406 -5.283331,-5.061021 -3.081988,-7.574798 z"
       id="path1948-2-1-2-3"
       inkscape:connector-curvature="0"
       sodipodi:nodetypes="ccc" />
  </g>
  <g
     inkscape:groupmode="layer"
     id="layer7"
     inkscape:label="armor"
     sodipodi:insensitive="true">
    <path
       style="display:inline;fill:#917c6f;fill-opacity:1;stroke:#000000;stroke-width:0.26499999;stroke-miterlimit:4;stroke-dasharray:none;stroke-opacity:1"
       d="M 54.003583,64 H 0.0035813 C -1.2362622,50.959739 8.7585042,42.530933 20.633451,44.466626 27.672328,49.839465 33.688615,54.489079 40.309878,47.395725 47.387205,48.07602 53.75915,52.653499 54.003583,64 Z"
       id="path906-3"
       inkscape:connector-curvature="0"
       sodipodi:nodetypes="ccccc" />
  </g>
  <g
     inkscape:groupmode="layer"
     id="layer12"
     inkscape:label="armor colar">
    <path
       style="fill:#6c5d53;fill-opacity:1;stroke:#000000;stroke-width:0.26458332px;stroke-linecap:butt;stroke-linejoin:miter;stroke-opacity:1"
       d="m 20.571354,44.156249 -1.719792,4.7625 14.61823,7.143751 7.540623,-4.167188 -0.859895,-4.431772 c -2.501826,2.109326 -5.479989,2.826107 -6.946252,3.067267 -3.096557,-0.316556 -9.806481,-4.135183 -12.632914,-6.374558 z"
       id="path1148"
       inkscape:connector-curvature="0"
       sodipodi:nodetypes="ccccccc" />
  </g>
  <g
     inkscape:groupmode="layer"
     id="layer10"
     inkscape:label="armor strips"
     sodipodi:insensitive="true">
    <path
       style="fill:#483e37;stroke:#000000;stroke-width:0.26458332px;stroke-linecap:butt;stroke-linejoin:miter;stroke-opacity:1"
       d="m 19.51302,54.805728 -0.330728,4.894791 c 7.477576,-1.181458 15.081533,-1.688882 23.084895,-0.06615 l 0.264579,-4.497916 C 34.858851,56.07047 27.185936,55.809542 19.51302,54.805728 Z"
       id="path1102"
       inkscape:connector-curvature="0"
       sodipodi:nodetypes="ccccc" />
    <path
       style="fill:#483e37;stroke:#000000;stroke-width:0.26458332px;stroke-linecap:butt;stroke-linejoin:miter;stroke-opacity:1"
       d="M 30.462763,64.021012 37.046432,64 c 2.739116,-1.65976 5.279222,-3.784395 7.902355,-5.214019 l -2.6101,-4.087791 c -5.296545,5.629619 -5.338806,5.181883 -11.875924,9.322822 z"
       id="path1102-5"
       inkscape:connector-curvature="0"
       sodipodi:nodetypes="ccccc" />
  </g>
  <g
     inkscape:groupmode="layer"
     id="layer9"
     inkscape:label="armor patches"
     sodipodi:insensitive="true">
    <path
       style="display:inline;fill:#ac9d93;fill-opacity:1;stroke:#000000;stroke-width:0.26499999;stroke-miterlimit:4;stroke-dasharray:none;stroke-opacity:1"
       d="M 19.113122,60.27858 C 12.490204,62.744346 5.8672864,62.707254 -0.75563137,59.881705 -1.9954744,46.841444 8.5946041,41.058471 20.469551,42.994164 c 2.96433,10.761299 0.154965,15.37249 -1.356429,17.284416 z"
       id="path906-3-6"
       inkscape:connector-curvature="0"
       sodipodi:nodetypes="cccc" />
    <path
       style="display:inline;fill:#ac9d93;fill-opacity:1;stroke:#000000;stroke-width:0.26499999;stroke-miterlimit:4;stroke-dasharray:none;stroke-opacity:1"
       d="M 53.965375,60.685935 C 48.202353,61.43191 48.855477,61.593255 41.90183,59.82604 40.661987,46.785779 39.478107,48.014264 40.835867,47.237978 51.20853,46.35761 55.476769,58.77401 53.965375,60.685935 Z"
       id="path906-3-6-7"
       inkscape:connector-curvature="0"
       sodipodi:nodetypes="cccc" />
    <path
       style="color:#000000;font-style:normal;font-variant:normal;font-weight:normal;font-stretch:normal;font-size:medium;line-height:normal;font-family:sans-serif;font-variant-ligatures:normal;font-variant-position:normal;font-variant-caps:normal;font-variant-numeric:normal;font-variant-alternates:normal;font-feature-settings:normal;text-indent:0;text-align:start;text-decoration:none;text-decoration-line:none;text-decoration-style:solid;text-decoration-color:#000000;letter-spacing:normal;word-spacing:normal;text-transform:none;writing-mode:lr-tb;direction:ltr;text-orientation:mixed;dominant-baseline:auto;baseline-shift:baseline;text-anchor:start;white-space:normal;shape-padding:0;clip-rule:nonzero;display:inline;overflow:visible;visibility:visible;opacity:1;isolation:auto;mix-blend-mode:normal;color-interpolation:sRGB;color-interpolation-filters:linearRGB;solid-color:#000000;solid-opacity:1;vector-effect:none;fill:#666666;fill-opacity:1;fill-rule:nonzero;stroke:#000000;stroke-width:0.75590551;stroke-linecap:butt;stroke-linejoin:round;stroke-miterlimit:4;stroke-dasharray:none;stroke-dashoffset:0;stroke-opacity:1;paint-order:normal;color-rendering:auto;image-rendering:auto;shape-rendering:auto;text-rendering:auto;enable-background:accumulate"
       d="m 86.923828,206.88086 a 1.8899528,1.8899528 0 0 0 -1.830078,1.75586 l -0.916016,12.9668 a 1.8899528,1.8899528 0 0 0 1.75,2.01953 l 17.960936,1.26953 a 1.8899528,1.8899528 0 0 0 2.01758,-1.75196 l 0.91797,-12.96679 a 1.8899528,1.8899528 0 0 0 -1.75195,-2.01953 l -17.960942,-1.26953 a 1.8899528,1.8899528 0 0 0 -0.1875,-0.004 z m 1.806641,3.9082 14.189451,1.00391 -0.65039,9.19531 -14.189452,-1.00195 0.296875,-4.18945 4.113281,0.85742 0.408204,-1.95899 -4.378907,-0.91211 z"
       transform="scale(0.26458333)"
       id="rect1108"
       inkscape:connector-curvature="0" />
  </g>
  <g
     inkscape:groupmode="layer"
     id="layer11"
     inkscape:label="armor nails"
     sodipodi:insensitive="true">
    <ellipse
       style="opacity:1;fill:#666666;fill-opacity:1;stroke:#000000;stroke-width:0.2;stroke-linecap:butt;stroke-linejoin:round;stroke-miterlimit:4;stroke-dasharray:none;stroke-opacity:1;paint-order:normal"
       id="path1118"
       cx="19.51302"
       cy="55.83099"
       rx="0.85989583"
       ry="0.89296871" />
    <use
       x="0"
       y="0"
       xlink:href="#path1118"
       id="use1122"
       width="100%"
       height="100%"
       transform="translate(-1.4552083,2.778125)" />
    <use
       x="0"
       y="0"
       xlink:href="#use1122"
       id="use1124"
       width="100%"
       height="100%"
       transform="matrix(0.86218123,0,0,0.86218123,27.227247,5.3608992)" />
    <use
       x="0"
       y="0"
       xlink:href="#use1124"
       id="use1126"
       width="100%"
       height="100%"
       transform="translate(0.33072917,2.6458333)" />
    <use
       x="0"
       y="0"
       xlink:href="#path1118"
       id="use1128"
       width="100%"
       height="100%" />
  </g>
</svg>
