<?xml version="1.0" encoding="UTF-8" standalone="no"?>
<!-- Created with Inkscape (http://www.inkscape.org/) -->

<svg
   xmlns:dc="http://purl.org/dc/elements/1.1/"
   xmlns:cc="http://creativecommons.org/ns#"
   xmlns:rdf="http://www.w3.org/1999/02/22-rdf-syntax-ns#"
   xmlns:svg="http://www.w3.org/2000/svg"
   xmlns="http://www.w3.org/2000/svg"
   xmlns:sodipodi="http://sodipodi.sourceforge.net/DTD/sodipodi-0.dtd"
   xmlns:inkscape="http://www.inkscape.org/namespaces/inkscape"
   width="128mm"
   height="128mm"
   viewBox="0 0 128 128"
   version="1.1"
   id="svg8"
   inkscape:version="0.92.2 5c3e80d, 2017-08-06"
   sodipodi:docname="background.svg">
  <sodipodi:namedview
     id="base"
     pagecolor="#ffffff"
     bordercolor="#666666"
     borderopacity="1.0"
     inkscape:pageopacity="0.0"
     inkscape:pageshadow="2"
     inkscape:zoom="0.70710678"
     inkscape:cx="-421.8392"
     inkscape:cy="-50.294428"
     inkscape:document-units="mm"
     inkscape:current-layer="layer1"
     showgrid="true"
     showguides="false"
     inkscape:window-width="1678"
     inkscape:window-height="1029"
     inkscape:window-x="1"
     inkscape:window-y="516"
     inkscape:window-maximized="0"
     inkscape:snap-global="false">
    <inkscape:grid
       spacingy="31.999999"
       spacingx="31.999999"
       units="mm"
       id="grid882"
       type="xygrid" />
  </sodipodi:namedview>
  <defs
     id="defs2" />
  <metadata
     id="metadata5">
    <rdf:RDF>
      <cc:Work
         rdf:about="">
        <dc:format>image/svg+xml</dc:format>
        <dc:type
           rdf:resource="http://purl.org/dc/dcmitype/StillImage" />
        <dc:title />
      </cc:Work>
    </rdf:RDF>
  </metadata>
  <g
     id="layer1"
     inkscape:groupmode="layer"
     inkscape:label="background">
    <g
       id="g888">
      <rect
         style="stroke-linejoin:bevel;stroke-width:1.17393842;fill:#6c5353"
         id="rect4504"
         width="32"
         height="32"
         x="0"
         y="96" />
      <path
         style="stroke-width:0.09900108;fill:#916f6f"
         d="M0.0 96.0C0.0 96.0 1.0 96.0 1.0 96.0C1.0 96.0 0.0 97.0 0.0 97.0C0.0 97.0 0.0 96.0 0.0 96.0"
         id="path1513" />
      <path
         style="stroke-width:0.09900108;fill:#2b1100"
         d="M32.0 128.0C32.0 128.0 31.0 128.0 31.0 128.0C31.0 128.0 32.0 127.0 32.0 127.0C32.0 127.0 32.0 128.0 32.0 128.0"
         id="path1513-3" />
      <path
         style="stroke-width:0.09900108;fill:#916f6f"
         d="M31.0 96.0C31.0 96.0 32.0 96.0 32.0 96.0C32.0 96.0 32.0 97.0 32.0 97.0C32.0 97.0 29.367792 98.88385 28.149932 100.10171C26.932072 101.31957 27.301058 103.6166 25.721826 105.19583C24.142594 106.77506 20.57056 107.72786 18.768086 109.53033C16.965612 111.33281 16.269214 114.74199 14.486033 116.52517C12.702852 118.30835 9.4584652 118.23191 7.8351362 119.85524C6.2118072 121.47857 6.048951 124.26067 4.7928312 125.51679C3.5367114 126.77291 1.0 128.0 1.0 128.0C1.0 128.0 0.0 128.0 0.0 128.0C0.0 128.0 0.0 127.0 0.0 127.0C0.0 127.0 2.5285243 125.68755 3.7791319 124.43694C5.0297395 123.18634 5.1925147 120.59141 6.8020633 118.98186C8.4116119 117.37231 11.807339 116.40874 13.57674 114.63934C15.346141 112.86994 15.838832 109.94509 17.65233 108.13159C19.465829 106.3181 22.84275 105.65396 24.410957 104.08575C25.979165 102.51754 25.331977 100.12454 26.547081 98.90944C27.762185 97.69433 31.0 96.0 31.0 96.0C31.0 96.0 31.0 96.0 31.0 96.0"
         id="path1532" />
      <path
         style="stroke-width:0.09900108;fill:#916f6f"
         d="M7.0 96.0C7.0 96.0 9.0 96.0 9.0 96.0C9.0 96.0 6.5679687 97.53906 5.4994791 98.60755C4.4309895 99.67604 4.1174913 101.90777 3.1182291 102.90703C2.118967 103.90629 0.0 105.0 0.0 105.0C0.0 105.0 0.0 103.0 0.0 103.0C0.0 103.0 1.3572916 102.46953 2.184375 101.64245C3.0114583 100.81536 3.6527777 98.68576 4.532552 97.80599C5.4123264 96.92622 7.0 96.0 7.0 96.0C7.0 96.0 7.0 96.0 7.0 96.0"
         id="path1532-6" />
      <path
         style="stroke-width:0.09900108;fill:#916f6f"
         d="M23.0 96.0C23.0 96.0 25.0 96.0 25.0 96.0C25.0 96.0 21.724892 98.05141 20.196745 99.57955C18.668599 101.1077 18.432856 104.15465 16.657943 105.92956C14.88303 107.70447 11.559201 108.5809 9.7126301 110.42747C7.866059 112.27404 6.2583658 116.16377 5.413151 117.00899C4.5679361 117.8542 0.0 121.0 0.0 121.0C0.0 121.0 0.0 119.0 0.0 119.0C0.0 119.0 2.8122179 117.34534 4.3635416 115.79401C5.9148654 114.24269 7.0424479 110.76693 8.8449219 108.96446C10.647396 107.16198 13.640494 106.74857 15.376822 105.01224C17.11315 103.27591 17.893142 100.0816 19.26289 98.71185C19.26289 98.71185 23.0 96.0 23.0 96.0"
         id="path1532-6-7" />
      <path
         style="stroke-width:0.09900108;fill:#916f6f"
         d="M15.0 96.0C15.0 96.0 17.0 96.0 17.0 96.0C17.0 96.0 14.757017 99.67374 13.36901 101.05313C11.981004 102.43251 10.423208 102.51591 8.771875 103.8974C7.1205424 105.27889 5.7071244 108.39827 4.2408854 109.85052C2.7746464 111.30277 0.0 113.0 0.0 113.0C0.0 113.0 0.0 111.0 0.0 111.0C0.0 111.0 1.700899 109.89014 2.9763021 108.61901C4.2517051 107.34788 6.0270954 103.95862 7.6230468 102.5832C9.2189982 101.20779 10.978106 101.22165 12.203646 99.98698C13.429185 98.75231 15.0 96.0 15.0 96.0C15.0 96.0 15.0 96.0 15.0 96.0"
         id="path1532-6-7-5" />
      <path
         style="stroke-width:0.09900108;fill:#916f6f"
         d="M25.0 128.0C25.0 128.0 23.0 128.0 23.0 128.0C23.0 128.0 25.865858 126.11636 26.981587 125.00063C28.097316 123.8849 27.673076 122.11085 28.665385 121.11854C29.657695 120.12623 32.0 119.0 32.0 119.0C32.0 119.0 32.0 121.0 32.0 121.0C32.0 121.0 30.943159 121.49558 30.086335 122.3524C29.229511 123.20922 29.094352 125.30881 28.168676 126.23449C27.243 127.16017 25.0 128.0 25.0 128.0C25.0 128.0 25.0 128.0 25.0 128.0"
         id="path1532-6-3" />
      <path
         style="stroke-width:0.09900108;fill:#916f6f"
         d="M8.9999995 128.0C8.9999995 128.0 6.9999995 128.0 6.9999995 128.0C6.9999995 128.0 9.5985511 126.43044 11.100477 124.92851C12.602403 123.42658 14.058817 120.00574 15.824466 118.24009C17.590115 116.47444 19.928724 115.91318 21.647601 114.1943C23.366478 112.47542 23.983584 109.37939 25.810324 107.55265C27.637063 105.72591 32.0 103.0 32.0 103.0C32.0 103.0 32.0 105.0 32.0 105.0C32.0 105.0 28.556146 107.32132 26.880482 108.99699C25.204818 110.67265 24.573055 113.68979 22.881462 115.38139C21.189868 117.07298 18.360152 117.61086 16.637377 119.33363C14.914602 121.05641 13.700778 124.70239 12.357724 126.04544C11.014669 127.3885 8.9999995 128.0 8.9999995 128.0C8.9999995 128.0 8.9999995 128.0 8.9999995 128.0"
         id="path1532-6-7-56" />
      <path
         style="stroke-width:0.09900108;fill:#916f6f"
         d="M17.0 128.0C17.0 128.0 15.0 128.0 15.0 128.0C15.0 128.0 16.41284 125.04368 17.836649 123.61987C19.260458 122.19606 22.163074 122.053 24.104119 120.11196C26.045164 118.17091 27.371812 114.55243 28.781336 113.1429C30.190861 111.73338 32.0 111.0 32.0 111.0C32.0 111.0 32.0 113.0 32.0 113.0C32.0 113.0 30.62663 113.20407 29.360387 114.47031C28.094143 115.73655 26.651499 119.47103 24.870259 121.25227C23.089018 123.03351 20.187335 123.36273 18.953579 124.59648C17.719823 125.83024 17.0 128.0 17.0 128.0C17.0 128.0 17.0 128.0 17.0 128.0"
         id="path1532-6-7-5-2" />
    </g>
  </g>
</svg>
