<?xml version="1.0" encoding="UTF-8" standalone="no"?>
<svg
    xmlns:dc="http://purl.org/dc/elements/1.1/"
    xmlns:cc="http://creativecommons.org/ns#"
    xmlns:rdf="http://www.w3.org/1999/02/22-rdf-syntax-ns#"
    xmlns:svg="http://www.w3.org/2000/svg"
    xmlns="http://www.w3.org/2000/svg"
    xmlns:xlink="http://www.w3.org/1999/xlink"
    xmlns:sodipodi="http://sodipodi.sourceforge.net/DTD/sodipodi-0.dtd"
    xmlns:inkscape="http://www.inkscape.org/namespaces/inkscape"
    height="128mm"
    id="svg8"
    version="1.1"
    viewBox="0 0 128 128"
    width="128mm"
    sodipodi:docname="background.svg"
    inkscape:version="0.92.2 2405546, 2018-03-11">
   <defs
       id="rmid-defs2" />
   <sodipodi:namedview
       bordercolor="#666666"
       borderopacity="1.0"
       id="rmid-base"
       pagecolor="#ffffff"
       showgrid="true"
       showguides="false"
       inkscape:current-layer="rmid-background"
       inkscape:cx="148.554"
       inkscape:cy="184.104"
       inkscape:document-units="mm"
       inkscape:pageopacity="0.0"
       inkscape:pageshadow="2"
       inkscape:snap-global="false"
       inkscape:window-height="1029"
       inkscape:window-maximized="0"
       inkscape:window-width="1678"
       inkscape:window-x="1"
       inkscape:window-y="516"
       inkscape:zoom="1.2">
      <inkscape:grid
          id="rmid-grid882"
          spacingx="31.999999"
          spacingy="31.999999"
          type="xygrid"
          units="mm" />
   </sodipodi:namedview>
   <metadata
       id="rmid-metadata5">
      <rdf:RDF>
         <cc:Work
             rdf:about="">
            <dc:format>image/svg+xml</dc:format>
            <dc:type
                rdf:resource="http://purl.org/dc/dcmitype/StillImage" />
            <dc:title></dc:title>
         </cc:Work>
      </rdf:RDF>
   </metadata>
   <g
       id="rmid-background"
       inkscape:groupmode="layer"
       inkscape:label="rmid-background"
       sodipodi:insensitive="true">
      <g
          id="0_rmid-base"
          style="fill:#7fa7a9">
         <rect
             height="32"
             id="rmid-0_greenbg"
             style="stroke-width:3.1368;stroke-linejoin:bevel"
             width="32"
             x="0"
             y="0" />
      </g>
      <use
          height="100%"
          id="rmid-0b00"
          width="100%"
          x="32"
          y="0"
          xlink:href="#0_rmid-base" />
      <use
          height="100%"
          id="rmid-0b01"
          width="100%"
          x="64"
          y="0"
          xlink:href="#0_rmid-base" />
      <use
          height="100%"
          id="rmid-0b02"
          width="100%"
          x="96"
          y="0"
          xlink:href="#0_rmid-base" />
      <use
          height="100%"
          id="rmid-0b10"
          width="100%"
          x="0"
          y="32"
          xlink:href="#0_rmid-base" />
      <use
          height="100%"
          id="rmid-0b11"
          width="100%"
          x="32"
          y="32"
          xlink:href="#0_rmid-base" />
      <use
          height="100%"
          id="rmid-0b12"
          width="100%"
          x="64"
          y="32"
          xlink:href="#0_rmid-base" />
      <use
          height="100%"
          id="rmid-0b13"
          width="100%"
          x="96"
          y="32"
          xlink:href="#0_rmid-base" />
      <use
          height="100%"
          id="rmid-0b20"
          width="100%"
          x="0"
          y="64"
          xlink:href="#0_rmid-base" />
      <use
          height="100%"
          id="rmid-0b21"
          width="100%"
          x="32"
          y="64"
          xlink:href="#0_rmid-base" />
      <use
          height="100%"
          id="rmid-0b22"
          width="100%"
          x="64"
          y="64"
          xlink:href="#0_rmid-base" />
      <use
          height="100%"
          id="rmid-0b23"
          width="100%"
          x="96"
          y="64"
          xlink:href="#0_rmid-base" />
      <use
          height="100%"
          id="rmid-0b30"
          width="100%"
          x="0"
          y="96"
          xlink:href="#0_rmid-base" />
      <use
          height="100%"
          id="rmid-0b31"
          width="100%"
          x="32"
          y="96"
          xlink:href="#0_rmid-base" />
      <use
          height="100%"
          id="rmid-0b32"
          width="100%"
          x="64"
          y="96"
          xlink:href="#0_rmid-base" />
      <use
          height="100%"
          id="rmid-0b33"
          width="100%"
          x="96"
          y="96"
          xlink:href="#0_rmid-base" />
      <g
          id="g2104"
          style="paint-order:markers stroke fill"
          transform="translate(5.76857,2.02674)">
         <path
             sodipodi:nodetypes="ccccc"
             inkscape:connector-curvature="0"
             id="path2085"
             d="M 7.27603,27.2378 C 7.49461,24.3652 7.93912,21.299 6.17359,20.1271 9.67002,19.189 10.8014,17.2771 11.8511,15.3316 11.5488,18.276 12.2611,19.8252 13.1189,21.1744 10.4402,22.1986 8.34084,24.0128 7.27603,27.2378 Z"
             style="fill:#6f918a;stroke:#000000;stroke-width:0.15" />
         <path
             sodipodi:nodetypes="ccccc"
             inkscape:connector-curvature="0"
             id="path2085-6"
             d="M 8.01119,24.2143 C 8.25437,22.619 8.63184,20.925 7.6949,20.1959 9.68757,19.8192 10.4001,18.7989 11.0684,17.7563 10.7755,19.3883 11.1081,20.2838 11.5304,21.0735 9.99093,21.5328 8.74187,22.4578 8.01119,24.2143 Z"
             style="fill:#b7c8c4;stroke-width:0.084028" />
      </g>
      <path
          style="fill:#ffeeaa;stroke:#000000;stroke-width:0.15;paint-order:markers stroke fill"
          d="M 6.09704,9.66004 C 6.01987,8.29503 6.13308,6.77423 4.4985,6.68353 5.64738,6.66964 6.45474,6.10933 6.86874,4.91963 6.74974,6.13303 7.02734,6.90004 8.08144,6.79373 6.80014,7.04082 6.35974,8.24893 6.09704,9.66004 Z"
          id="path2085-0"
          inkscape:connector-curvature="0"
          sodipodi:nodetypes="ccccc" />
      <path
          style="fill:#e9afaf;stroke:#000000;stroke-width:0.15;paint-order:markers stroke fill"
          d="M 26.2225,16.5532 C 25.3207,15.5255 24.8038,15.7462 23.4603,16.6816 24.3568,15.963 25.1437,15.1895 24.7369,13.9973 25.3907,15.0264 26.8535,14.4673 27.6184,13.7342 26.7613,14.7182 25.5601,15.2797 26.2225,16.5532 Z"
          id="path2085-0-3"
          inkscape:connector-curvature="0"
          sodipodi:nodetypes="ccccc" />
      <g
          id="g2228">
         <path
             sodipodi:nodetypes="ccccc"
             inkscape:connector-curvature="0"
             id="path2085-0-3-2"
             d="M 38.4078,16.3868 C 37.506,15.3592 38.0025,13.7868 36.6591,14.7223 37.5555,14.0036 39.2779,14.3995 38.8711,13.2073 39.5249,14.2364 39.4287,15.938 40.1935,15.2049 39.3364,16.1889 37.7454,15.1134 38.4078,16.3868 Z"
             style="fill:#6f918a;stroke:#000000;stroke-width:0.15;paint-order:markers stroke fill" />
         <path
             inkscape:transform-center-y="-0.330729"
             inkscape:transform-center-x="-1.04731"
             sodipodi:nodetypes="ccccc"
             inkscape:connector-curvature="0"
             id="path2085-0-3-2-0"
             d="M 38.3313,15.7427 C 37.9471,15.0975 38.3726,14.2981 37.5534,14.6688 38.1094,14.3704 39,14.7566 38.8996,14.072 39.1497,14.6932 38.9275,15.6025 39.4139,15.2832 38.8525,15.7288 38.101,14.9887 38.3313,15.7427 Z"
             style="fill:#b7c8c4;stroke-width:0.082387;paint-order:markers stroke fill" />
      </g>
      <use
          x="0"
          y="0"
          xlink:href="#path2085-0-3"
          id="use2175"
          transform="translate(32.117,-9.90011)"
          width="100%"
          height="100%" />
      <use
          x="0"
          y="0"
          xlink:href="#path2085-0"
          id="use2177"
          transform="translate(46.1486,19.6443)"
          width="100%"
          height="100%" />
      <g
          id="g2244">
         <path
             sodipodi:nodetypes="ccc"
             inkscape:connector-curvature="0"
             id="path2085-0-3-1"
             d="M 73.291,15.0123 C 74.4198,11.7469 82.4866,9.7912 84.4258,8.01135 82.7285,11.345 75.4603,13.5133 73.291,15.0123 Z"
             style="fill:#6f918a;stroke:#000000;stroke-width:0.15;paint-order:markers stroke fill" />
         <path
             sodipodi:nodetypes="ccc"
             inkscape:connector-curvature="0"
             id="path2085-0-3-1-5"
             d="M 75.3804,13.344 C 76.058,11.6249 80.8382,10.619 81.9911,9.68622 80.9769,11.4397 76.6687,12.5602 75.3804,13.344 Z"
             style="fill:#b7c8c4;stroke-width:0.083824;paint-order:markers stroke fill" />
      </g>
      <use
          x="0"
          y="0"
          xlink:href="#path2085-0"
          id="use2224"
          transform="translate(82.4749,19.0207)"
          width="100%"
          height="100%" />
      <use
          x="0"
          y="0"
          xlink:href="#g2228"
          id="use2230"
          transform="translate(31.805,12.7844)"
          width="100%"
          height="100%" />
      <use
          x="0"
          y="0"
          xlink:href="#g2228"
          id="use2232"
          transform="translate(9.67206,24.329)"
          width="100%"
          height="100%" />
      <use
          x="0"
          y="0"
          xlink:href="#use2232"
          id="use2234"
          transform="translate(40.3783,32.5562)"
          width="100%"
          height="100%" />
      <use
          x="0"
          y="0"
          xlink:href="#use2234"
          id="use2236"
          transform="translate(-16.5365,46.3021)"
          width="100%"
          height="100%" />
      <g
          style="paint-order:markers stroke fill"
          id="use2238"
          transform="translate(65.2389,22.2487)">
         <path
             style="fill:#decd87;stroke:#000000;stroke-width:0.15"
             d="M 7.27603,27.2378 C 7.49461,24.3652 7.93912,21.299 6.17359,20.1271 9.67002,19.189 10.8014,17.2771 11.8511,15.3316 11.5488,18.276 12.2611,19.8252 13.1189,21.1744 10.4402,22.1986 8.34084,24.0128 7.27603,27.2378 Z"
             id="path2271"
             inkscape:connector-curvature="0"
             sodipodi:nodetypes="ccccc" />
         <path
             style="fill:#e9ddaf;stroke-width:0.084028"
             d="M 8.01119,24.2143 C 8.25437,22.619 8.63184,20.925 7.6949,20.1959 9.68757,19.8192 10.4001,18.7989 11.0684,17.7563 10.7755,19.3883 11.1081,20.2838 11.5304,21.0735 9.99093,21.5328 8.74187,22.4578 8.01119,24.2143 Z"
             id="path2273"
             inkscape:connector-curvature="0"
             sodipodi:nodetypes="ccccc" />
      </g>
      <use
          x="0"
          y="0"
          xlink:href="#use2175"
          id="use2240"
          transform="translate(-16.5965,51.3133)"
          width="100%"
          height="100%" />
      <g
          id="use2246"
          style="fill:#e9afaf"
          transform="translate(-68.3066,30.6651)">
         <path
             style="fill:#de8787;stroke:#000000;stroke-width:0.15;paint-order:markers stroke fill"
             d="M 73.291,15.0123 C 74.4198,11.7469 82.4866,9.7912 84.4258,8.01135 82.7285,11.345 75.4603,13.5133 73.291,15.0123 Z"
             id="path2277"
             inkscape:connector-curvature="0"
             sodipodi:nodetypes="ccc" />
         <path
             style="fill:#f4d7d7;stroke-width:0.083824;paint-order:markers stroke fill"
             d="M 75.3804,13.344 C 76.058,11.6249 80.8382,10.619 81.9911,9.68622 80.9769,11.4397 76.6687,12.5602 75.3804,13.344 Z"
             id="path2279"
             inkscape:connector-curvature="0"
             sodipodi:nodetypes="ccc" />
      </g>
      <path
          sodipodi:nodetypes="ccccc"
          inkscape:connector-curvature="0"
          id="use2248"
          d="M 41.7421,74.483 C 41.6648,73.118 41.7781,71.5972 40.1435,71.5065 41.2923,71.4927 42.0998,70.9323 42.5136,69.7425 42.3945,70.9559 42.6724,71.7229 43.7265,71.6168 42.4451,71.8639 42.0045,73.072 41.7421,74.483 Z"
          style="fill:#b7c8be;stroke:#000000;stroke-width:0.15;paint-order:markers stroke fill" />
      <use
          x="0"
          y="0"
          xlink:href="#path2085-0-3"
          id="use2293"
          transform="translate(65.4809,1.71499)"
          width="100%"
          height="100%" />
      <use
          x="0"
          y="0"
          xlink:href="#use2246"
          id="use2295"
          transform="translate(75.9267,14.4994)"
          width="100%"
          height="100%" />
      <use
          x="0"
          y="0"
          xlink:href="#path2085-0"
          id="use2297"
          transform="translate(49.8904,47.24)"
          width="100%"
          height="100%" />
      <use
          x="0"
          y="0"
          xlink:href="#g2244"
          id="use2299"
          transform="translate(-23.8538,59.4008)"
          width="100%"
          height="100%" />
      <use
          x="0"
          y="0"
          xlink:href="#use2234"
          id="use2301"
          transform="translate(-48.6431,17.9293)"
          width="100%"
          height="100%" />
      <use
          x="0"
          y="0"
          xlink:href="#use2240"
          id="use2303"
          transform="translate(15.4348,24.3216)"
          width="100%"
          height="100%" />
      <use
          x="0"
          y="0"
          xlink:href="#use2297"
          id="use2305"
          transform="translate(-9.35445,26.0366)"
          width="100%"
          height="100%" />
      <use
          x="0"
          y="0"
          xlink:href="#g2104"
          id="use2307"
          transform="translate(4.36539,27.7516)"
          width="100%"
          height="100%" />
      <use
          x="0"
          y="0"
          xlink:href="#g2228"
          id="use2309"
          transform="translate(-30.2461,41.1594)"
          width="100%"
          height="100%" />
      <use
          x="0"
          y="0"
          xlink:href="#use2309"
          id="use2311"
          transform="translate(19.0207,-20.112)"
          width="100%"
          height="100%" />
      <use
          x="0"
          y="0"
          xlink:href="#use2177"
          id="use2313"
          transform="translate(-25.1011,30.7136)"
          width="100%"
          height="100%" />
      <use
          x="0"
          y="0"
          xlink:href="#path2085-0-3"
          id="use2315"
          transform="translate(12.4726,19.9561)"
          width="100%"
          height="100%" />
      <use
          x="0"
          y="0"
          xlink:href="#use2315"
          id="use2317"
          transform="translate(-30.09,33.9878)"
          width="100%"
          height="100%" />
      <use
          x="0"
          y="0"
          xlink:href="#use2317"
          id="use2319"
          transform="translate(13.2521,35.2351)"
          width="100%"
          height="100%" />
      <use
          x="0"
          y="0"
          xlink:href="#use2319"
          id="use2321"
          transform="translate(38.1974,10.2899)"
          width="100%"
          height="100%" />
      <use
          x="0"
          y="0"
          xlink:href="#use2236"
          id="use2323"
          transform="translate(-47.5517,-7.01581)"
          width="100%"
          height="100%" />
      <use
          x="0"
          y="0"
          xlink:href="#use2238"
          id="use2325"
          transform="translate(-50.514,35.7029)"
          width="100%"
          height="100%" />
      <use
          x="0"
          y="0"
          xlink:href="#use2175"
          id="use2327"
          transform="translate(47.3959,6.3922)"
          width="100%"
          height="100%" />
      <use
          x="0"
          y="0"
          xlink:href="#path2085-0"
          id="use2329"
          transform="translate(111.785,0.935445)"
          width="100%"
          height="100%" />
      <use
          x="0"
          y="0"
          xlink:href="#g2244"
          id="use2331"
          transform="translate(41.3155,15.123)"
          width="100%"
          height="100%" />
      <use
          x="0"
          y="0"
          xlink:href="#use2309"
          id="use2333"
          transform="translate(4.20949,25.7247)"
          width="100%"
          height="100%" />
      <use
          x="0"
          y="0"
          xlink:href="#use2305"
          id="use2335"
          transform="translate(35.079,-40.3799)"
          width="100%"
          height="100%" />
      <use
          x="0"
          y="0"
          xlink:href="#use2335"
          id="use2337"
          transform="translate(-9.51035,-3.11814)"
          width="100%"
          height="100%" />
      <use
          x="0"
          y="0"
          xlink:href="#use2303"
          id="use2339"
          transform="translate(13.408,-22.6065)"
          width="100%"
          height="100%" />
      <use
          x="0"
          y="0"
          xlink:href="#path2085-0"
          id="use2341"
          transform="translate(30.7136,38.0415)"
          width="100%"
          height="100%" />
      <use
          x="0"
          y="0"
          xlink:href="#use2246"
          id="use2343"
          transform="rotate(71.2586,-35.9888,78.207)"
          width="100%"
          height="100%" />
      <use
          x="0"
          y="0"
          xlink:href="#use2236"
          id="use2345"
          transform="translate(-47.0839,4.67722)"
          width="100%"
          height="100%" />
      <use
          x="0"
          y="0"
          xlink:href="#use2299"
          id="use2347"
          transform="rotate(121.877,59.6441,77.6654)"
          width="100%"
          height="100%" />
      <use
          x="0"
          y="0"
          xlink:href="#use2325"
          id="use2349"
          transform="rotate(-55.9279,65.5114,22.3064)"
          width="100%"
          height="100%" />
      <use
          x="0"
          y="0"
          xlink:href="#use2297"
          id="use2351"
          transform="rotate(21.037,-11.6934,124.023)"
          width="100%"
          height="100%"
          inkscape:transform-center-x="-0.0055001"
          inkscape:transform-center-y="0.62821" />
      <use
          x="0"
          y="0"
          xlink:href="#use2248"
          id="use2353"
          transform="rotate(126.867,60.61,80.5658)"
          width="100%"
          height="100%" />
      <use
          x="0"
          y="0"
          xlink:href="#use2232"
          id="use2355"
          transform="rotate(64.2234,-5.06058,63.6655)"
          width="100%"
          height="100%" />
      <use
          x="0"
          y="0"
          xlink:href="#use2299"
          id="use2357"
          transform="rotate(-70.4467,77.4817,91.3454)"
          width="100%"
          height="100%" />
      <use
          x="0"
          y="0"
          xlink:href="#use2343"
          id="use2359"
          transform="rotate(-50.7156,48.7446,72.651)"
          width="100%"
          height="100%" />
      <use
          x="0"
          y="0"
          xlink:href="#use2325"
          id="use2361"
          transform="translate(15.2789,40.6919)"
          width="100%"
          height="100%" />
      <use
          x="0"
          y="0"
          xlink:href="#use2297"
          id="use2363"
          transform="translate(45.525,-5.14498)"
          width="100%"
          height="100%" />
      <use
          x="0"
          y="0"
          xlink:href="#use2240"
          id="use2365"
          transform="translate(79.2009,-7.63941)"
          width="100%"
          height="100%" />
      <use
          x="0"
          y="0"
          xlink:href="#use2309"
          id="use2367"
          transform="translate(112.253,-16.2144)"
          width="100%"
          height="100%" />
      <use
          x="0"
          y="0"
          xlink:href="#use2367"
          id="use2369"
          transform="translate(-9.35445,4.20949)"
          width="100%"
          height="100%" />
      <use
          x="0"
          y="0"
          xlink:href="#use2369"
          id="use2371"
          transform="translate(-2.80633,-7.63941)"
          width="100%"
          height="100%" />
      <use
          x="0"
          y="0"
          xlink:href="#use2371"
          id="use2373"
          transform="translate(14.3435,21.6711)"
          width="100%"
          height="100%" />
      <use
          x="0"
          y="0"
          xlink:href="#use2248"
          id="use2375"
          transform="translate(70.3141,-16.6821)"
          width="100%"
          height="100%" />
      <use
          x="0"
          y="0"
          xlink:href="#use2319"
          id="use2377"
          transform="translate(66.5723,3.74176)"
          width="100%"
          height="100%" />
      <use
          x="0"
          y="0"
          xlink:href="#use2315"
          id="use2379"
          transform="translate(34.7673,74.2119)"
          width="100%"
          height="100%" />
      <use
          x="0"
          y="0"
          xlink:href="#use2353"
          id="use2381"
          transform="translate(5.14493,47.8634)"
          width="100%"
          height="100%" />
      <use
          x="0"
          y="0"
          xlink:href="#use2353"
          id="use2383"
          transform="translate(31.3375,5.45674)"
          width="100%"
          height="100%" />
      <use
          x="0"
          y="0"
          xlink:href="#use2305"
          id="use2385"
          transform="translate(57.5297,11.3812)"
          width="100%"
          height="100%" />
      <use
          x="0"
          y="0"
          xlink:href="#use2303"
          id="use2387"
          transform="translate(61.1156,5.92447)"
          width="100%"
          height="100%" />
      <use
          x="0"
          y="0"
          xlink:href="#use2299"
          id="use2389"
          transform="translate(63.922)"
          width="100%"
          height="100%" />
      <use
          x="0"
          y="0"
          xlink:href="#use2349"
          id="use2391"
          transform="translate(18.8648,18.8648)"
          width="100%"
          height="100%" />
      <use
          x="0"
          y="0"
          xlink:href="#use2357"
          id="use2393"
          transform="translate(52.0729,12.6285)"
          width="100%"
          height="100%" />
      <use
          x="0"
          y="0"
          xlink:href="#use2335"
          id="use2395"
          transform="translate(40.0682,77.7978)"
          width="100%"
          height="100%" />
      <use
          x="0"
          y="0"
          xlink:href="#use2387"
          id="use2397"
          transform="translate(1.40318,22.6065)"
          width="100%"
          height="100%" />
      <use
          x="0"
          y="0"
          xlink:href="#use2236"
          id="use2399"
          transform="translate(39.7563,1.09136)"
          width="100%"
          height="100%" />
   </g>
</svg>
