<?xml version="1.0" encoding="UTF-8" standalone="no"?>
<svg
   xmlns:dc="http://purl.org/dc/elements/1.1/"
   xmlns:cc="http://creativecommons.org/ns#"
   xmlns:rdf="http://www.w3.org/1999/02/22-rdf-syntax-ns#"
   xmlns:svg="http://www.w3.org/2000/svg"
   xmlns="http://www.w3.org/2000/svg"
   xmlns:xlink="http://www.w3.org/1999/xlink"
   xmlns:sodipodi="http://sodipodi.sourceforge.net/DTD/sodipodi-0.dtd"
   xmlns:inkscape="http://www.inkscape.org/namespaces/inkscape"
   height="128mm"
   id="base_svg"
   version="1.1"
   viewBox="0 0 128 128"
   width="128mm"
   sodipodi:docname="0.svg"
   inkscape:version="0.92.2 5c3e80d, 2017-08-06">
  <defs
     id="rtid-defs921">
    <mask
       id="rtid-mask1629"
       maskUnits="userSpaceOnUse">
      <g
         id="rtid-g1663">
        <path
           d="M 0,95.9997 V 128 H 32 V 95.9997 Z M 8.00001,104 C 9.92448,101.975 12.251,102.228 15.1196,102.13 18.3483,102.02 22.119,101.809 24.0001,104 25.3981,105.627 27.5677,107.055 27.8931,109.403 28.3948,113.023 26.2872,117.713 24.0001,120 22.3524,121.647 19.4034,124.211 17.1553,122.783 10.9105,118.817 10.1237,122.124 8.00001,120 6.07303,118.073 3.08152,112.757 3.08483,109.698 3.088,106.77 5.99955,106.104 8.00001,104 Z"
           id="rtid-path1631"
           style="fill:#ffffff;stroke-width:0.521799"
           sodipodi:nodetypes="cccccsssssssss"
           inkscape:connector-curvature="0" />
        <path
           d="M 32,95.9997 V 128 H 64 V 95.9997 Z M 40,104 C 41.9687,102.031 44.8078,98.7178 47.9973,98.8046 50.9176,98.884 54.1975,102.197 56.0001,104 57.8023,105.802 56.9131,108.607 56.9928,111.527 57.0799,114.717 59.2571,118.573 57.288,120.542 56.0572,121.773 51.8191,120.23 49.9158,120.657 45.9873,121.539 40.778,120.506 38.2376,117.966 34.4664,114.195 36.2288,107.771 40,104 Z"
           id="rtid-path1633"
           style="fill:#ffffff;stroke-width:0.521799"
           sodipodi:nodetypes="cccccssssssss"
           inkscape:connector-curvature="0" />
        <path
           d="M 64,95.9997 V 128 H 96 V 95.9997 Z M 72,104 C 73.6339,102.366 72.7579,100.152 75.3888,99.9341 77.7192,99.7408 83.7971,99.0666 86.7856,100.365 88.2108,100.985 90.5637,100.802 91.2538,101.492 92.6756,102.914 92.2734,105.612 92.6232,107.863 92.8705,109.455 90.5241,110.392 89.8237,112.368 88.8871,115.01 93.1403,120.961 91.7961,122.305 88.0249,126.076 74.0772,125.533 70.3054,121.762 67.4518,118.909 66.3042,111.889 68.2411,107.238 68.8641,105.743 71.0823,104.918 72,104 Z"
           id="rtid-path1635"
           style="fill:#ffffff;stroke-width:0.521799"
           sodipodi:nodetypes="cccccssssssssss"
           inkscape:connector-curvature="0" />
        <path
           d="M 96,95.9997 V 128 H 128 V 95.9997 Z M 101.56,101.492 C 100.851,99.9484 102.243,98.2545 105.761,97.7867 108.481,97.4248 111.835,101.102 115.371,101.688 118.434,102.195 122.676,101.283 123.71,102.316 125.532,104.139 126.727,110.58 123.974,113.914 120.658,117.929 124.716,124.229 122.576,123.932 120.585,123.656 122.723,122.399 116.461,121.027 115.147,120.739 112.561,121.33 110.605,120.226 109.103,119.379 107.995,116.548 106.626,116.492 103.001,116.343 100.923,120.99 100.408,120.475 97.9818,118.049 99.0312,112.928 100.067,108.238 100.641,105.638 102.354,103.221 101.56,101.492 Z"
           id="rtid-path1637"
           style="fill:#ffffff;stroke-width:0.521799"
           sodipodi:nodetypes="cccccssssssssssss"
           inkscape:connector-curvature="0" />
        <path
           d="M 0,63.9997 V 96 H 32 V 63.9997 Z M 4.61073,67.255 C 6.46796,65.3978 12.5799,68.3868 15.5909,68.3588 18.6938,68.33 22.2217,68.0524 24.1357,69.9664 25.9657,71.7964 24.7385,75.2722 24.7925,78.2382 24.8498,81.3845 29.3306,87.8212 27.3894,89.7624 25.0747,92.0771 22.8426,87.4356 17.9438,89.7743 15.6708,90.8594 11.803,94.3165 9.14142,92.873 7.67037,92.0752 4.58694,91.0943 4.06845,90.5758 0.297193,86.8046 0.839482,71.0263 4.61073,67.255 Z"
           id="rtid-path1639"
           style="fill:#ffffff;stroke-width:0.521799"
           sodipodi:nodetypes="cccccsssssssss"
           inkscape:connector-curvature="0" />
        <path
           d="M 32,63.9997 V 96 H 64.0001 V 63.9997 Z M 40,72 C 43.7712,68.2288 52.2289,68.2288 56.0001,72 59.7713,75.7712 59.7713,84.2288 56.0001,88 52.2289,91.7712 43.7712,91.7712 40,88 36.2288,84.2288 36.2288,75.7712 40,72 Z"
           id="rtid-path1641"
           style="fill:#ffffff;stroke-width:0.521799"
           sodipodi:nodetypes="ccccczzzzz"
           inkscape:connector-curvature="0" />
        <path
           d="M 64.0001,63.9997 V 96 H 96.0001 V 63.9997 Z M 74.2369,74.6436 C 75.835,73.3932 75.2769,69.1339 77.5523,68.7909 79.5888,68.4839 87.0546,68.221 89.6633,69.6555 91.8008,70.8309 89.1849,73.5914 90.2371,74.6436 91.2599,75.6664 93.4289,77.1695 93.8969,78.6948 94.5369,80.7808 92.1881,82.7199 91.4283,84.8831 90.6953,86.9702 91.5867,89.294 90.2371,90.6436 89.1267,91.754 85.9153,89.3515 84.2316,89.808 83.1491,90.1015 81.9011,91.2132 80.9066,90.9789 79.8039,90.7192 78.9663,89.1002 78.0044,89.2593 76.6003,89.4917 75.3993,91.792 74.2369,90.6436 70.2523,86.707 72.5201,85.4264 73.0356,81.7576 73.3628,79.429 70.7115,77.402 74.2369,74.6436 Z"
           id="rtid-path1643"
           style="fill:#ffffff;stroke-width:0.521799"
           sodipodi:nodetypes="cccccsssssssssssss"
           inkscape:connector-curvature="0" />
        <path
           d="M 96.0001,63.9997 V 96 H 128 V 63.9997 Z M 103.473,71.4248 C 106.821,68.0765 113.254,65.8834 116.499,68.2776 116.909,68.5799 122.549,67.9823 122.972,68.4052 125.625,71.0584 127.289,78.338 125.337,83.4216 124.514,85.5636 121.118,86.882 120,88 117.889,90.1107 115.537,87.2576 113.015,86.9436 111.03,86.6966 109.159,89.6287 105.726,86.8496 101.282,83.2524 101.001,82.2713 101.372,79.4155 101.653,77.2601 101.851,73.0468 103.473,71.4248 Z"
           id="rtid-path1645"
           style="fill:#ffffff;stroke-width:0.521799"
           sodipodi:nodetypes="cccccsssssssss"
           inkscape:connector-curvature="0" />
        <path
           d="M 0,31.9997 V 64 H 32 V 31.9997 Z M 8.00002,40 C 9.60212,31.4838 16.704,36.4999 24.0001,40 31.2962,43.5001 29.8049,55.8892 26.0337,59.6604 23.8251,61.869 20.8811,63.6088 17.7259,62.2288 15.4933,61.2523 12.952,57.6983 11.3893,56.1356 9.72424,54.4705 4.35377,57.8066 3.70664,55.7164 2.88808,53.0725 7.10527,44.7562 8.00002,40 Z"
           id="rtid-path1647"
           style="fill:#ffffff;stroke-width:0.521799"
           sodipodi:nodetypes="cccccszsssss"
           inkscape:connector-curvature="0" />
        <path
           d="M 32,31.9997 V 64 H 64.0001 V 31.9997 Z M 40.5752,35.9737 C 44.3464,32.2025 52.8041,32.2024 56.5753,35.9737 57.9097,37.3081 61.3612,38.0784 61.5519,40.1708 61.7226,42.0433 58.671,45.2036 59.075,47.0541 59.7091,49.9583 58.0333,51.2388 58.3891,53.0139 59.1684,56.9009 61.6465,60.1317 60.7933,60.9849 58.9398,62.8384 49.1298,59.4305 43.8642,59.1323 38.416,58.8238 37.5081,61.5605 35.5903,59.6428 33.7042,57.7567 38.0345,55.4643 39.2815,50.4886 40.5279,45.5154 38.69,37.8589 40.5752,35.9737 Z"
           id="rtid-path1649"
           style="fill:#ffffff;stroke-width:0.521799"
           sodipodi:nodetypes="cccccssssssssss"
           inkscape:connector-curvature="0" />
        <path
           d="M 64.0001,31.9997 V 64 H 96.0001 V 31.9997 Z M 70.8496,42.6842 C 72.0665,41.4673 75.1134,35.083 76.9913,34.6514 80.9332,33.7455 85.4458,37.4456 88.0002,40 89.4598,41.4596 93.2304,44.7715 93.5602,47.0916 94.0825,50.7662 93.9547,55.7973 91.643,58.109 89.7862,59.9658 83.5341,61.4836 80.5239,61.512 77.4202,61.5413 71.8055,59.4483 69.891,57.5338 66.1197,53.7625 67.0783,46.4555 70.8496,42.6842 Z"
           id="rtid-path1651"
           style="fill:#ffffff;stroke-width:0.521799"
           sodipodi:nodetypes="cccccssssssss"
           inkscape:connector-curvature="0" />
        <path
           d="M 96.0001,31.9997 V 64 H 128 V 31.9997 Z M 104,40 C 105.763,38.2371 108.933,41.5162 111.787,41.4015 115.038,41.2709 117.992,37.9918 120,40 121.197,41.1971 123.014,40.4915 124.032,42.7553 126.219,47.6228 126.792,56.4935 124.218,59.0676 120.447,62.8389 103.362,63.6058 99.5903,59.8345 95.819,56.0633 100.229,43.7712 104,40 Z"
           id="rtid-path1653"
           style="fill:#ffffff;stroke-width:0.521799"
           sodipodi:nodetypes="cccccssssszs"
           inkscape:connector-curvature="0" />
        <path
           d="M 0,-3e-4 V 32 H 32 V -3e-4 Z M 12.7932,3.01512 C 15.2782,0.530126 21.7909,2.43716 25.3231,5.49843 27.1515,7.08301 26.3566,9.39789 27.6429,10.6842 29.2525,12.2938 29.0247,15.7157 29.2604,18.3039 29.5768,21.7799 29.8046,24.5225 27.6429,26.6842 26.2582,28.0689 24.1644,29.9966 22.0574,29.313 14.3912,26.8258 14.0293,29.0708 11.6428,26.6842 9.21818,24.2595 2.60061,20.8564 3.2937,17.0484 3.47664,16.0433 6.66936,18.3045 8.70571,15.3771 10.954,12.145 12.0866,3.72172 12.7932,3.01512 Z"
           id="rtid-path1655"
           style="fill:#ffffff;stroke-width:0.521799"
           sodipodi:nodetypes="cccccssssssssss"
           inkscape:connector-curvature="0" />
        <path
           d="M 32,-3e-4 V 32 H 64.0001 V -3e-4 Z M 36.3572,3.97373 C 38.1059,2.22503 44.3133,2.43755 47.1428,2.31057 50.4154,2.16371 53.9776,5.97746 56.0001,8 59.7713,11.7712 62.839,22.7212 59.0677,26.4925 55.2965,30.2637 47.4141,30.072 43.6428,26.3007 42.2938,24.9517 36.7433,21.721 35.7606,18.9399 33.9961,13.9463 33.9349,6.39598 36.3572,3.97373 Z"
           id="rtid-path1657"
           style="fill:#ffffff;stroke-width:0.521799"
           sodipodi:nodetypes="cccccssszsss"
           inkscape:connector-curvature="0" />
        <path
           d="M 64.0001,-3e-4 V 32 H 96.0001 V -3e-4 Z M 72,8 C 73.5857,6.41429 76.7669,3.00288 79.3129,2.75066 82.8221,2.40304 89.8409,2.93854 92.0265,5.12409 95.7977,8.89535 95.606,22.3377 91.8347,26.109 89.9931,27.9506 87.2522,28.3915 83.7055,28.9023 79.9893,29.4376 73.9296,25.9296 72,24 68.2287,20.2287 68.2287,11.7713 72,8 Z"
           id="rtid-path1659"
           style="fill:#ffffff;stroke-width:0.521799"
           sodipodi:nodetypes="cccccsssssss"
           inkscape:connector-curvature="0" />
        <path
           d="M 96.0001,-3e-4 V 32 H 128 V -3e-4 Z M 105.534,9.34209 C 107.535,7.34087 108.556,1.99177 111.796,2.11459 114.661,2.22321 117.847,7.18874 119.617,8.95864 121.627,10.9683 125.824,12.5834 125.692,15.8364 125.576,18.6876 119.653,20.8961 117.891,22.6579 115.839,24.7104 114.315,30.6307 110.997,30.4491 108.219,30.297 106.869,23.9934 105.15,22.2745 102.994,20.1187 97.0864,19.1156 97.3953,15.6478 97.6268,13.0493 103.919,10.9575 105.534,9.34209 Z"
           id="rtid-path1661"
           style="fill:#ffffff;stroke-width:0.521799"
           sodipodi:nodetypes="cccccsssssssss"
           inkscape:connector-curvature="0" />
      </g>
    </mask>
  </defs>
  <sodipodi:namedview
     bordercolor="#666666"
     borderopacity="1"
     gridtolerance="10"
     guidetolerance="10"
     id="rtid-namedview3444"
     objecttolerance="10"
     pagecolor="#ffffff"
     showgrid="false"
     inkscape:current-layer="rtid-layer3"
     inkscape:cx="220.713"
     inkscape:cy="265.022"
     inkscape:document-units="mm"
     inkscape:pageopacity="0"
     inkscape:pageshadow="2"
     inkscape:window-height="1059"
     inkscape:window-maximized="0"
     inkscape:window-width="1918"
     inkscape:window-x="1"
     inkscape:window-y="20"
     inkscape:zoom="1.38" />
  <metadata
     id="rtid-metadata1919">
    <rdf:RDF>
      <cc:Work
         rdf:about="">
        <dc:format>image/svg+xml</dc:format>
        <dc:type
           rdf:resource="http://purl.org/dc/dcmitype/StillImage" />
        <dc:title />
      </cc:Work>
    </rdf:RDF>
  </metadata>
  <g
     id="rtid-models_layer"
     style="display:none"
     inkscape:groupmode="layer"
     inkscape:label="Models">
    <g
       id="rtid-bg_b_model">
      <rect
         height="128"
         id="rtid-rtid-rect2648-6"
         style="fill:#800000;stroke-width:2;stroke-linecap:round;stroke-linejoin:round;paint-order:markers fill stroke"
         width="128"
         x="0"
         y="0" />
      <text
         id="rtid-rtid-text2652-2"
         style="font-size:10.58329964px;line-height:1.25;font-family:sans-serif;letter-spacing:0px;word-spacing:0px;fill:#000000;stroke-width:0.26460001"
         x="12.47"
         y="19.639999"
         xml:space="preserve"><tspan
           id="rtid-rtid-tspan2650-6"
           x="12.47"
           y="19.639999"
           sodipodi:role="line">B</tspan></text>
    </g>
  </g>
  <g
     id="rtid-bg_b_layer"
     style="display:inline"
     inkscape:groupmode="layer"
     inkscape:label="Background B"
     sodipodi:insensitive="true">
    <use
       height="100%"
       id="rtid-bgb30"
       mask="url(#rtid-mask1629)"
       width="100%"
       x="0"
       y="0"
       xlink:href="#rtid-bg_b_model" />
  </g>
  <g
     id="rtid-layer3"
     style="display:inline"
     sodipodi:insensitive="true"
     inkscape:groupmode="layer"
     inkscape:label="borders">
    <path
       d="m 15.1113,101.881 c -1.4246,0.049 -2.7312,0.007 -3.9472,0.215 -1.21609,0.208 -2.34527,0.679 -3.34574,1.732 -0.96757,1.018 -2.1809,1.702 -3.18359,2.518 -1.00269,0.815 -1.79911,1.804 -1.80079,3.351 -0.00174,1.611 0.76378,3.718 1.76172,5.69 0.99794,1.971 2.22754,3.792 3.22657,4.791 0.55931,0.559 1.07965,0.787 1.59961,0.843 0.51995,0.056 1.01882,-0.038 1.62302,-0.07 1.2084,-0.064 2.8847,0.08 5.9766,2.043 1.223,0.777 2.637,0.459 3.9004,-0.23 1.2634,-0.69 2.4251,-1.756 3.2558,-2.586 2.3537,-2.354 4.4817,-7.065 3.9629,-10.809 -0.3442,-2.484 -2.5893,-3.946 -3.9511,-5.531 -0.997,-1.161 -2.4786,-1.671 -4.0918,-1.883 -1.6133,-0.211 -3.3741,-0.129 -4.9864,-0.074 z m 0.0176,0.498 c 1.6165,-0.055 3.3547,-0.133 4.9043,0.07 1.5496,0.203 2.8932,0.683 3.7773,1.713 1.4342,1.669 3.5275,3.064 3.834,5.276 0.4846,3.496 -1.5997,8.164 -3.8203,10.384 -0.817,0.817 -1.9555,1.857 -3.1406,2.504 -1.1851,0.647 -2.3694,0.897 -3.3945,0.246 -3.153,-2.002 -4.9924,-2.188 -6.2696,-2.121 -0.6385,0.034 -1.12488,0.12 -1.54489,0.074 -0.42001,-0.045 -0.79435,-0.2 -1.29688,-0.703 -0.92795,-0.928 -2.15798,-2.729 -3.13671,-4.662 -0.97874,-1.933 -1.7086,-4.013 -1.70704,-5.461 0.0015,-1.381 0.6632,-2.189 1.61719,-2.965 0.95399,-0.775 2.19758,-1.476 3.23047,-2.562 0.924,-0.972 1.92096,-1.388 3.06636,-1.584 1.1455,-0.196 2.437,-0.16 3.8809,-0.209 z"
       id="rtid-path1003-61"
       style="color:#000000;fill:#000000;stroke-width:0.5"
       sodipodi:nodetypes="ccccccccsccccccccscccsccccccccsc"
       inkscape:connector-curvature="0" />
    <path
       d="m 48.0039,98.5547 c -1.6832,-0.0458 -3.2401,0.7996 -4.6172,1.8813 -1.3771,1.081 -2.5872,2.409 -3.5644,3.386 -1.9221,1.922 -3.3266,4.51 -3.7774,7.117 -0.4508,2.608 0.0661,5.254 2.0156,7.204 2.6373,2.636 7.8949,3.659 11.9102,2.757 0.8502,-0.19 2.3921,0.069 3.8535,0.248 0.7307,0.09 1.445,0.158 2.0742,0.122 0.6293,-0.037 1.1896,-0.174 1.5664,-0.551 0.5375,-0.538 0.7936,-1.213 0.8692,-1.942 0.0756,-0.728 -0.0211,-1.516 -0.1778,-2.332 -0.3133,-1.631 -0.8719,-3.385 -0.914,-4.925 -0.0391,-1.433 0.1636,-2.859 0.1504,-4.178 -0.0132,-1.319 -0.2544,-2.557 -1.2149,-3.518 -0.9007,-0.901 -2.1797,-2.189 -3.6093,-3.267 -1.4297,-1.0785 -3.0125,-1.9601 -4.5645,-2.0023 z m -0.0137,0.5 c 1.3683,0.0372 2.8863,0.8514 4.2774,1.9003 1.391,1.049 2.6548,2.319 3.5566,3.221 v 0.002 c 0.8407,0.84 1.0557,1.906 1.0684,3.17 0.0126,1.263 -0.191,2.698 -0.1504,4.185 0.045,1.649 0.6191,3.42 0.9238,5.006 0.1524,0.793 0.2372,1.538 0.1699,2.186 -0.0672,0.647 -0.2774,1.193 -0.7246,1.64 -0.2385,0.239 -0.6711,0.371 -1.2422,0.405 -0.571,0.033 -1.2638,-0.029 -1.9843,-0.118 -1.4412,-0.177 -2.9704,-0.476 -4.0235,-0.24 -3.8417,0.863 -9.0037,-0.18 -11.4472,-2.623 -1.8217,-1.821 -2.3074,-4.274 -1.877,-6.764 0.4304,-2.489 1.7915,-4.998 3.6406,-6.847 0.9915,-0.992 2.1856,-2.304 3.5176,-3.35 1.332,-1.0457 2.7887,-1.8143 4.2949,-1.7733 z"
       id="rtid-path1003-6-8"
       style="color:#000000;fill:#000000;stroke-width:0.5"
       sodipodi:nodetypes="ccccccccccccscccccccccccccccccscc"
       inkscape:connector-curvature="0" />
    <path
       d="m 80.8379,99.3398 c -2.1987,0.0307 -4.3115,0.2496 -5.4707,0.3457 -0.6924,0.0577 -1.1906,0.2533 -1.5488,0.5545 -0.3586,0.302 -0.5668,0.695 -0.7305,1.104 -0.3274,0.818 -0.5044,1.717 -1.2656,2.478 v 0.002 c -0.4142,0.414 -1.1938,0.855 -1.9532,1.371 -0.7594,0.517 -1.5136,1.118 -1.8593,1.948 -0.9924,2.382 -1.1865,5.337 -0.7793,8.068 0.4071,2.731 1.411,5.241 2.8984,6.728 1.9906,1.991 6.4488,3.035 10.9141,3.172 4.4652,0.137 8.9308,-0.63 10.9297,-2.629 0.2239,-0.223 0.3199,-0.534 0.3359,-0.869 0.016,-0.335 -0.0417,-0.709 -0.1426,-1.117 -0.2018,-0.815 -0.5818,-1.771 -0.9707,-2.764 -0.3889,-0.992 -0.7868,-2.02 -1.0273,-2.949 -0.2405,-0.929 -0.3138,-1.755 -0.1094,-2.332 0.325,-0.917 1.0514,-1.621 1.7012,-2.308 0.3248,-0.344 0.6306,-0.683 0.8457,-1.059 0.2151,-0.376 0.3372,-0.799 0.2656,-1.26 -0.1703,-1.096 -0.1581,-2.33 -0.2813,-3.484 -0.1231,-1.155 -0.385,-2.25 -1.1601,-3.026 -0.4533,-0.453 -1.2429,-0.541 -2.0996,-0.66 -0.8567,-0.118 -1.7871,-0.231 -2.4453,-0.517 v -0.002 c -1.5656,-0.6804 -3.8483,-0.8258 -6.0469,-0.7952 z m 0.0059,0.5 c 2.17,-0.0302 4.4188,0.1357 5.8417,0.7542 0.767,0.333 1.7277,0.439 2.5762,0.556 0.8486,0.118 1.5777,0.281 1.8145,0.518 0.6466,0.647 0.8969,1.612 1.0156,2.725 0.1187,1.112 0.1057,2.355 0.2852,3.509 0.052,0.335 -0.0279,0.624 -0.2051,0.934 -0.1772,0.309 -0.457,0.626 -0.7754,0.963 -0.6368,0.673 -1.4332,1.427 -1.8086,2.486 -0.2639,0.745 -0.1559,1.651 0.0957,2.623 0.2515,0.972 0.6576,2.013 1.0469,3.006 0.3892,0.993 0.7608,1.942 0.9492,2.703 0.0942,0.381 0.1412,0.713 0.1289,0.971 -0.0123,0.258 -0.0774,0.429 -0.1895,0.541 -1.7723,1.772 -6.1661,2.617 -10.5605,2.482 -4.3944,-0.134 -8.795,-1.244 -10.5762,-3.025 -1.3661,-1.366 -2.3619,-3.794 -2.7578,-6.449 -0.3958,-2.655 -0.1965,-5.535 0.7481,-7.803 0.2772,-0.665 0.9428,-1.225 1.6777,-1.725 0.7349,-0.499 1.5238,-0.929 2.0273,-1.433 0.8716,-0.873 1.0744,-1.895 1.375,-2.647 0.1504,-0.376 0.3198,-0.68 0.5879,-0.906 0.2682,-0.226 0.6477,-0.388 1.2696,-0.439 1.1712,-0.098 3.2635,-0.3139 5.4336,-0.3442 z"
       id="rtid-path1003-7-79"
       style="color:#000000;fill:#000000;stroke-width:0.5"
       sodipodi:nodetypes="cccsccccccscsccsccscccccccccccccccccccsccccccccccc"
       inkscape:connector-curvature="0" />
    <path
       d="m 105.729,97.5391 c -1.794,0.2385 -3.07,0.7874 -3.827,1.5175 -0.756,0.7302 -0.965,1.6794 -0.57,2.5394 0.35,0.762 0.153,1.73 -0.242,2.859 -0.395,1.129 -0.973,2.393 -1.2677,3.729 -0.5182,2.346 -1.043,4.809 -1.1328,7.011 -0.0899,2.202 0.2529,4.169 1.5405,5.457 0.081,0.081 0.218,0.123 0.325,0.11 0.106,-0.014 0.186,-0.058 0.261,-0.11 0.15,-0.102 0.291,-0.25 0.457,-0.435 0.333,-0.371 0.749,-0.893 1.258,-1.422 1.018,-1.059 2.38,-2.123 4.084,-2.053 0.258,0.011 0.535,0.158 0.832,0.424 0.298,0.266 0.605,0.642 0.92,1.049 0.631,0.814 1.284,1.759 2.115,2.228 1.036,0.585 2.215,0.712 3.286,0.739 1.071,0.026 2.052,-0.04 2.64,0.089 3.11,0.682 4.081,1.32 4.531,1.791 0.226,0.236 0.332,0.454 0.545,0.668 0.214,0.215 0.528,0.376 1.057,0.45 0.322,0.044 0.627,-0.059 0.781,-0.291 0.154,-0.233 0.173,-0.516 0.158,-0.844 -0.029,-0.656 -0.235,-1.534 -0.4,-2.545 -0.329,-2.021 -0.499,-4.508 1.086,-6.428 1.438,-1.741 1.826,-4.247 1.641,-6.545 -0.186,-2.298 -0.925,-4.392 -1.92,-5.388 -0.332,-0.332 -0.843,-0.463 -1.457,-0.534 -0.615,-0.07 -1.346,-0.068 -2.135,-0.05 -1.579,0.035 -3.394,0.133 -4.883,-0.114 -1.697,-0.281 -3.401,-1.325 -5.025,-2.275 -1.625,-0.9496 -3.175,-1.8243 -4.658,-1.6269 z m 0.066,0.4961 c 1.237,-0.1646 2.723,0.6174 4.34,1.5625 1.616,0.9453 3.356,2.0333 5.195,2.3383 1.574,0.26 3.41,0.154 4.977,0.119 0.783,-0.018 1.498,-0.018 2.066,0.047 0.568,0.065 0.975,0.205 1.16,0.39 0.826,0.827 1.597,2.864 1.776,5.076 0.178,2.212 -0.213,4.594 -1.528,6.186 -1.731,2.096 -1.529,4.768 -1.193,6.826 0.168,1.029 0.367,1.921 0.392,2.488 0.013,0.284 -0.027,0.475 -0.074,0.545 -0.047,0.071 -0.081,0.1 -0.295,0.071 h -0.002 c -0.466,-0.065 -0.63,-0.164 -0.771,-0.305 -0.141,-0.142 -0.265,-0.376 -0.537,-0.66 -0.544,-0.569 -1.635,-1.245 -4.787,-1.936 -0.726,-0.159 -1.695,-0.076 -2.735,-0.101 -1.039,-0.026 -2.13,-0.155 -3.05,-0.674 -0.671,-0.378 -1.325,-1.271 -1.965,-2.098 -0.321,-0.413 -0.64,-0.81 -0.983,-1.117 -0.342,-0.307 -0.717,-0.533 -1.144,-0.551 -1.921,-0.079 -3.411,1.107 -4.467,2.205 -0.528,0.55 -0.955,1.085 -1.27,1.436 -0.152,0.169 -0.276,0.29 -0.353,0.346 -1.0947,-1.141 -1.4434,-2.911 -1.3575,-5.014 0.0872,-2.138 0.6034,-4.58 1.1215,-6.924 0.279,-1.265 0.845,-2.508 1.251,-3.67 0.407,-1.162 0.669,-2.268 0.225,-3.234 -0.314,-0.684 -0.181,-1.351 0.461,-1.971 0.642,-0.6196 1.823,-1.1516 3.547,-1.3808 z"
       id="rtid-path1003-6-5-2"
       style="color:#000000;fill:#000000;stroke-width:0.5"
       sodipodi:nodetypes="cccscccccccccccccccccccccccccccccccscccsccccccccccccccccccccc"
       inkscape:connector-curvature="0" />
    <path
       d="m 6.69141,66.3984 c -0.91464,-0.0193 -1.72132,0.1432 -2.25782,0.6797 -1.00232,1.0024 -1.74342,2.7288 -2.27148,4.8203 -0.52806,2.0915 -0.83216,4.5501 -0.90039,7.0098 -0.06823,2.4598 0.09975,4.9203 0.52539,7.0137 0.42564,2.0934 1.0989,3.8235 2.10547,4.8301 0.18936,0.1893 0.48193,0.3345 0.875,0.5156 0.39307,0.181 0.8761,0.3787 1.38672,0.584 1.02124,0.4104 2.15826,0.8557 2.86718,1.2402 1.44892,0.7858 3.17232,0.2348 4.78122,-0.5977 1.609,-0.8325 3.155,-1.9723 4.2481,-2.4941 2.378,-1.1353 4.0445,-0.5817 5.4922,-0.0078 0.7238,0.287 1.3847,0.5881 2.0527,0.668 0.668,0.0798 1.3483,-0.0983 1.9707,-0.7207 0.5682,-0.5682 0.644,-1.4332 0.4902,-2.3946 -0.1537,-0.9614 -0.5397,-2.0553 -0.9843,-3.1836 -0.8892,-2.2565 -2.0028,-4.6693 -2.0293,-6.1269 -0.0264,-1.4468 0.2634,-3.0541 0.3359,-4.5469 0.0725,-1.4928 -0.0757,-2.9077 -1.0664,-3.8984 C 23.2969,68.7735 21.8731,68.3549 20.3359,68.1855 18.7987,68.0162 17.1328,68.095 15.5879,68.1094 14.1667,68.1226 11.877,67.3919 9.72656,66.877 8.65134,66.6195 7.60604,66.4178 6.69141,66.3984 Z m -0.00977,0.5 c 0.84779,0.0179 1.86644,0.2107 2.92774,0.4649 2.12262,0.5082 4.39462,1.2609 5.98442,1.2461 1.558,-0.0145 3.2065,-0.0909 4.6874,0.0722 1.481,0.1632 2.7794,0.5626 3.6778,1.461 0.8393,0.8393 0.992,2.0773 0.9219,3.5215 -0.0702,1.4441 -0.3656,3.0588 -0.3379,4.5781 0.0307,1.6887 1.1842,4.067 2.0644,6.3008 0.4401,1.1168 0.8148,2.1922 0.9571,3.082 0.1422,0.8898 0.0508,1.5585 -0.3516,1.9609 -0.5349,0.535 -1.0021,0.6445 -1.5567,0.5782 -0.5545,-0.0664 -1.1918,-0.345 -1.9277,-0.6368 -1.4717,-0.5834 -3.3718,-1.1819 -5.8926,0.0215 -1.1799,0.5633 -2.7031,1.6955 -4.2617,2.502 C 12.0156,92.8572 10.4724,93.31 9.25977,92.6523 8.49764,92.239 7.35966,91.7978 6.3418,91.3887 5.83287,91.1841 5.35539,90.9881 4.97852,90.8145 4.60164,90.6408 4.31598,90.4683 4.24609,90.3984 3.36703,89.5194 2.69284,87.8658 2.27734,85.8223 1.86185,83.7787 1.69438,81.3495 1.76172,78.9219 1.82906,76.4942 2.13005,74.0669 2.64648,72.0215 3.16292,69.976 3.90381,68.315 4.78711,67.4316 5.17923,67.0395 5.83385,66.8805 6.68164,66.8984 Z"
       id="rtid-path1003-3-0"
       style="color:#000000;fill:#000000;stroke-width:0.5"
       sodipodi:nodetypes="ccscsccccccccscccssccccscccscccccccccccccccccs"
       inkscape:connector-curvature="0" />
    <path
       d="m 48,68.9219 c -3.1086,0 -6.2261,0.9487 -8.1777,2.9004 -1.9517,1.9516 -2.9004,5.0691 -2.9004,8.1777 0,3.1086 0.9487,6.2261 2.9004,8.1777 1.9516,1.9517 5.0691,2.9004 8.1777,2.9004 3.1086,0 6.2261,-0.9487 8.1777,-2.9004 1.9517,-1.9516 2.9004,-5.0691 2.9004,-8.1777 0,-3.1086 -0.9487,-6.2261 -2.9004,-8.1777 C 54.2261,69.8706 51.1086,68.9219 48,68.9219 Z m 0,0.5 c 3.0058,0 6.0047,0.9363 7.8242,2.7558 1.8195,1.8196 2.7539,4.8165 2.7539,7.8223 0,3.0058 -0.9344,6.0027 -2.7539,7.8223 -1.8195,1.8195 -4.8184,2.7558 -7.8242,2.7558 -3.0058,0 -6.0027,-0.9363 -7.8223,-2.7558 C 38.3582,86.0027 37.4219,83.0058 37.4219,80 c 0,-3.0058 0.9363,-6.0027 2.7558,-7.8223 1.8196,-1.8195 4.8165,-2.7558 7.8223,-2.7558 z"
       id="rtid-path1003-6-56-2"
       style="color:#000000;fill:#000000;stroke-width:0.5"
       sodipodi:nodetypes="scscscscsscscscscs"
       inkscape:connector-curvature="0" />
    <path
       d="m 83.4004,68.3203 c -2.4618,-0.0757 -4.8324,0.064 -5.8848,0.2227 -0.6457,0.0973 -1.11,0.4908 -1.4277,0.998 -0.3178,0.5072 -0.5133,1.1307 -0.6875,1.7695 -0.3484,1.2777 -0.6389,2.6052 -1.3184,3.1368 -0.905,0.7081 -1.4324,1.3849 -1.705,2.0488 -0.2727,0.6639 -0.2827,1.3043 -0.1875,1.9043 0.1903,1.2 0.7469,2.26 0.5976,3.3223 -0.2513,1.7883 -0.9469,3.0077 -1.0879,4.3515 -0.141,1.3439 0.3425,2.7536 2.3613,4.7481 0.3356,0.3315 0.7396,0.4381 1.1055,0.3672 0.3659,-0.071 0.6927,-0.2815 1.0137,-0.5196 0.6419,-0.476 1.2829,-1.0677 1.8652,-1.164 0.1674,-0.0277 0.3376,0.0183 0.5391,0.1347 0.2015,0.1164 0.4213,0.3016 0.6523,0.5078 0.4621,0.4125 0.9629,0.9211 1.6133,1.0743 0.6059,0.1427 1.2146,-0.1166 1.7988,-0.4082 0.5843,-0.2917 1.1607,-0.6334 1.6485,-0.7657 0.6962,-0.1887 1.9113,0.2511 3.0703,0.6582 0.5795,0.2036 1.1473,0.3923 1.668,0.459 0.5206,0.0667 1.0268,0.0064 1.3789,-0.3457 0.745,-0.745 0.8624,-1.7477 0.9004,-2.7715 0.0379,-1.0238 0.0032,-2.0957 0.3496,-3.082 0.3609,-1.0276 1.1256,-2.0465 1.7382,-3.0801 0.6127,-1.0336 1.0859,-2.1199 0.7344,-3.2656 -0.259,-0.8442 -0.9496,-1.6173 -1.6894,-2.3223 -0.7398,-0.7049 -1.541,-1.3398 -2.0332,-1.832 -0.1878,-0.1878 -0.2209,-0.4525 -0.1621,-0.8438 0.0587,-0.3912 0.2171,-0.8681 0.3476,-1.3632 0.1305,-0.4952 0.2364,-1.0141 0.1543,-1.5176 -0.082,-0.5036 -0.3813,-0.9825 -0.9707,-1.3067 -1.3982,-0.7688 -3.9211,-1.0395 -6.3828,-1.1152 z m -0.0156,0.5 c 2.4324,0.0748 4.9477,0.3891 6.1582,1.0547 0.4793,0.2636 0.6552,0.5698 0.7168,0.9473 0.0615,0.3775 -0.0198,0.8371 -0.1446,1.3105 -0.1247,0.4734 -0.2884,0.957 -0.3574,1.416 -0.069,0.459 -0.0356,0.9332 0.3027,1.2715 0.5306,0.5306 1.3256,1.1582 2.043,1.8418 0.7174,0.6836 1.3457,1.4244 1.5547,2.1055 0.2885,0.9402 -0.0938,1.867 -0.6855,2.8652 -0.5917,0.9983 -1.3805,2.0324 -1.7793,3.168 -0.3867,1.1008 -0.342,2.2332 -0.3789,3.2304 -0.037,0.9973 -0.1493,1.831 -0.754,2.4356 -0.2031,0.2031 -0.5145,0.2603 -0.9609,0.2031 -0.4464,-0.0572 -0.9957,-0.2344 -1.5684,-0.4355 -1.1452,-0.4024 -2.3777,-0.9357 -3.3652,-0.668 -0.5948,0.1613 -1.1832,0.5218 -1.7422,0.8008 -0.559,0.279 -1.0703,0.4607 -1.459,0.3691 -0.4522,-0.1065 -0.9235,-0.5387 -1.3964,-0.9609 -0.2365,-0.2111 -0.4738,-0.4178 -0.7344,-0.5684 -0.2606,-0.1505 -0.5575,-0.2471 -0.8711,-0.1953 -0.8218,0.136 -1.4819,0.8108 -2.082,1.2559 -0.3001,0.2225 -0.5805,0.387 -0.8106,0.4316 -0.23,0.0446 -0.4126,0.0083 -0.6582,-0.2344 -1.9658,-1.9421 -2.3405,-3.14 -2.2148,-4.3378 0.1256,-1.1978 0.8217,-2.4536 1.0859,-4.334 0.1779,-1.2664 -0.4275,-2.3855 -0.5996,-3.4707 -0.0861,-0.5427 -0.0757,-1.072 0.1562,-1.6368 0.232,-0.5647 0.6932,-1.1746 1.5508,-1.8457 0.9187,-0.7188 1.1493,-2.1461 1.4903,-3.3964 0.1704,-0.6252 0.3633,-1.2098 0.6308,-1.6368 0.2675,-0.4269 0.5862,-0.6934 1.0781,-0.7675 0.9842,-0.1484 3.3625,-0.2935 5.795,-0.2188 z"
       id="rtid-path1003-7-2-3"
       style="color:#000000;fill:#000000;stroke-width:0.5"
       sodipodi:nodetypes="cccccccccccccsccccccscccscscccccccccssscccccsccscccccccccccccccc"
       inkscape:connector-curvature="0" />
    <path
       d="m 113.588,67.0371 c -1.148,-0.0817 -2.391,0.0801 -3.629,0.4199 -2.476,0.6796 -4.951,2.0796 -6.662,3.791 -0.884,0.884 -1.332,2.3816 -1.623,3.9258 -0.291,1.5442 -0.41,3.1446 -0.549,4.209 -0.187,1.4395 -0.213,2.4813 0.398,3.5918 0.612,1.1106 1.817,2.2644 4.045,4.0684 1.768,1.4305 3.228,1.4104 4.42,1.041 1.193,-0.3694 2.134,-0.9999 2.996,-0.8926 1.179,0.1467 2.382,0.918 3.58,1.4199 0.6,0.251 1.204,0.4352 1.819,0.4082 0.614,-0.0269 1.231,-0.2778 1.795,-0.8418 0.504,-0.5042 1.637,-1.1289 2.742,-1.875 1.105,-0.746 2.204,-1.6285 2.65,-2.791 0.999,-2.6013 1.067,-5.7317 0.557,-8.5547 -0.51,-2.8229 -1.59,-5.3395 -2.979,-6.7285 -0.161,-0.1615 -0.315,-0.1587 -0.527,-0.1855 -0.212,-0.0269 -0.475,-0.0388 -0.777,-0.043 -0.605,-0.0083 -1.365,0.0175 -2.123,0.0469 -0.758,0.0294 -1.514,0.0615 -2.1,0.0683 -0.293,0.0034 -0.545,9e-4 -0.726,-0.0117 -0.091,-0.0063 -0.165,-0.0161 -0.213,-0.0254 -0.048,-0.0092 -0.073,-0.0295 -0.036,-0.0019 -0.857,-0.6328 -1.91,-0.9574 -3.058,-1.0391 z m -0.045,0.502 c 1.075,0.0758 2.042,0.3751 2.807,0.9394 h 0.002 c 0.088,0.0654 0.156,0.0764 0.236,0.0918 0.08,0.0154 0.168,0.0241 0.271,0.0313 0.207,0.0142 0.468,0.0171 0.768,0.0136 0.6,-0.007 1.357,-0.039 2.113,-0.0683 0.756,-0.0294 1.511,-0.0549 2.096,-0.0469 0.292,0.004 0.544,0.0164 0.723,0.0391 0.179,0.0226 0.292,0.0987 0.236,0.0429 1.264,1.2643 2.343,3.7138 2.84,6.4649 0.497,2.751 0.422,5.8028 -0.531,8.2851 -0.377,0.9796 -1.387,1.8266 -2.465,2.5547 -1.079,0.7281 -2.203,1.3218 -2.817,1.9356 -0.491,0.4913 -0.962,0.6753 -1.461,0.6972 -0.499,0.0219 -1.035,-0.1314 -1.603,-0.3691 -1.136,-0.4755 -2.369,-1.2878 -3.713,-1.4551 -1.122,-0.1396 -2.107,0.572 -3.205,0.9121 -1.098,0.3401 -2.291,0.3974 -3.957,-0.9512 -2.216,-1.7932 -3.373,-2.9286 -3.92,-3.9218 -0.547,-0.9933 -0.528,-1.8709 -0.344,-3.2871 0.142,-1.091 0.263,-2.6749 0.547,-4.1817 0.284,-1.5068 0.746,-2.926 1.484,-3.664 1.637,-1.6369 4.051,-3.0067 6.44,-3.6621 1.194,-0.3278 2.378,-0.4763 3.453,-0.4004 z"
       id="rtid-path1003-6-5-9-7"
       style="color:#000000;fill:#000000;stroke-width:0.5"
       sodipodi:nodetypes="sscsccccccccccccccsscccscccscsccccccccsccscccsccc"
       inkscape:connector-curvature="0" />
    <path
       d="m 11.8145,35.0859 c -0.6568,0.0643 -1.2629,0.2598 -1.8028,0.6211 -1.07981,0.7227 -1.85024,2.0797 -2.25779,4.2461 -0.43908,2.334 -1.71349,5.6036 -2.7793,8.6133 -0.5329,1.5049 -1.0123,2.947 -1.31055,4.1895 -0.29824,1.2424 -0.42884,2.2808 -0.19531,3.0351 0.09812,0.3169 0.30487,0.5561 0.56836,0.6953 0.26349,0.1393 0.57208,0.1895 0.90625,0.1934 0.66833,0.0077 1.46035,-0.1671 2.27734,-0.3496 0.817,-0.1826 1.65516,-0.376 2.3711,-0.4199 0.7159,-0.044 1.2819,0.0631 1.6211,0.4023 0.7622,0.7623 1.7927,2.0455 2.9101,3.2598 1.1174,1.2142 2.3156,2.3658 3.502,2.8847 1.6391,0.7169 3.2451,0.6232 4.6992,0.0664 1.4542,-0.5567 2.7664,-1.5651 3.8867,-2.6855 1.9708,-1.9707 3.2758,-6.0496 3.2071,-10.1133 C 29.3492,45.6609 27.8652,41.5781 24.1074,39.7754 20.4728,38.0318 16.8783,35.8928 13.918,35.25 13.1779,35.0893 12.4712,35.0217 11.8145,35.0859 Z m 0.0566,0.4961 c 0.5885,-0.0565 1.2376,0.0035 1.9414,0.1563 2.8152,0.6112 6.4186,2.7298 10.0801,4.4863 3.5383,1.6974 4.9586,5.5592 5.0254,9.5078 0.0668,3.9487 -1.2601,7.9515 -3.0606,9.752 -1.0882,1.0882 -2.3541,2.052 -3.7129,2.5722 C 20.7857,62.5769 19.3423,62.6631 17.8262,62 16.78,61.5424 15.5923,60.43 14.4902,59.2324 13.3882,58.0348 12.3668,56.7594 11.5664,55.959 11.0731,55.4657 10.342,55.3642 9.5625,55.4121 8.78295,55.46 7.92598,55.6598 7.11133,55.8418 6.29668,56.0238 5.52189,56.1863 4.94922,56.1797 4.66288,56.1764 4.43206,56.1298 4.27148,56.0449 4.11091,55.96 4.00898,55.8482 3.94531,55.6426 3.76956,55.0749 3.86017,54.0821 4.15039,52.873 4.44061,51.664 4.91635,50.2336 5.44727,48.7344 6.5091,45.7359 7.79042,42.4691 8.24609,40.0469 8.63959,37.9552 9.3587,36.7457 10.2891,36.123 c 0.4651,-0.3113 0.9935,-0.4844 1.582,-0.541 z"
       id="rtid-path1003-1-5"
       style="color:#000000;fill:#000000;stroke-width:0.5"
       sodipodi:nodetypes="ccscccccccccscccscccsssscccscssccccccc"
       inkscape:connector-curvature="0" />
    <path
       d="m 48.5762,32.8945 c -3.1087,0 -6.2261,0.9507 -8.1778,2.9024 -0.5455,0.5455 -0.7798,1.4298 -0.8945,2.5136 -0.1147,1.0839 -0.0985,2.3818 -0.0644,3.7696 0.0681,2.7756 0.2084,5.9185 -0.4004,8.3476 -0.6091,2.4305 -1.9743,4.2138 -2.9825,5.6524 -0.504,0.7193 -0.9241,1.349 -1.1015,1.9668 -0.1774,0.6177 -0.0643,1.2502 0.459,1.7734 0.5074,0.5074 0.9971,0.7373 1.5019,0.7578 0.5048,0.0206 0.9937,-0.1476 1.5703,-0.3515 1.1532,-0.4079 2.6817,-0.9956 5.3633,-0.8438 2.5879,0.1466 6.3598,1.0693 9.7109,1.7285 1.6756,0.3297 3.2466,0.5935 4.5333,0.6582 1.2866,0.0647 2.3085,-0.039 2.8769,-0.6074 0.1559,-0.1559 0.2308,-0.3688 0.2461,-0.5879 0.0153,-0.2191 -0.0217,-0.4537 -0.0879,-0.7109 -0.1324,-0.5144 -0.3913,-1.1243 -0.6973,-1.8262 -0.6118,-1.4038 -1.4146,-3.1657 -1.7968,-5.0723 -0.1608,-0.802 0.14,-1.5118 0.4394,-2.4296 0.2994,-0.9179 0.5726,-2.0308 0.2442,-3.5352 -0.1677,-0.7681 0.4372,-2.0048 1.1269,-3.2578 0.6897,-1.253 1.4542,-2.5107 1.3555,-3.5938 C 61.747,39.5588 61.4602,39.0614 61.0625,38.6465 60.6648,38.2315 60.155,37.8881 59.6191,37.5723 58.5475,36.9407 57.36,36.4049 56.752,35.7969 54.8003,33.8451 51.6848,32.8945 48.5762,32.8945 Z m 0,0.5 c 3.0058,0 6.0027,0.9363 7.8222,2.7559 0.7264,0.7264 1.9314,1.2433 2.9668,1.8535 0.5177,0.3051 0.9912,0.6286 1.336,0.9883 0.3447,0.3597 0.5599,0.7446 0.6015,1.2012 0.072,0.7894 -0.6025,2.0487 -1.2949,3.3066 -0.6924,1.2579 -1.414,2.525 -1.1777,3.6074 0.3056,1.3998 0.0606,2.3812 -0.2305,3.2735 -0.291,0.8922 -0.6501,1.7085 -0.4551,2.6816 0.3971,1.9805 1.2214,3.7772 1.8301,5.1738 0.3044,0.6984 0.5533,1.2991 0.6699,1.752 0.0583,0.2264 0.0818,0.4147 0.0723,0.5508 -0.0095,0.136 -0.0422,0.2121 -0.0996,0.2695 -0.3583,0.3583 -1.2595,0.5232 -2.4981,0.4609 -1.2385,-0.0623 -2.796,-0.3205 -4.4629,-0.6484 -3.3336,-0.6559 -7.0996,-1.5866 -9.7773,-1.7383 -2.7665,-0.1566 -4.4163,0.4691 -5.5586,0.8731 -0.5711,0.2019 -1.0097,0.3375 -1.3848,0.3222 -0.3751,-0.0153 -0.7165,-0.1599 -1.1679,-0.6113 -0.4198,-0.4198 -0.4751,-0.7832 -0.3321,-1.2813 0.1431,-0.498 0.5307,-1.1068 1.0293,-1.8183 0.9973,-1.4231 2.4207,-3.2731 3.0586,-5.8184 0.6376,-2.544 0.484,-5.7152 0.4161,-8.4824 -0.034,-1.3836 -0.0474,-2.6658 0.0625,-3.7031 0.1098,-1.0374 0.3528,-1.8158 0.75,-2.2129 1.8195,-1.8195 4.8183,-2.7559 7.8242,-2.7559 z"
       id="rtid-path1003-6-2-9"
       style="color:#000000;fill:#000000;stroke-width:0.5"
       sodipodi:nodetypes="sscccccccccccsssccccsccccsscsccsccccccsccccssccccccs"
       inkscape:connector-curvature="0" />
    <path
       d="m 76.9355,34.4082 c -0.5862,0.1347 -1.135,0.6559 -1.7167,1.3496 -0.5818,0.6937 -1.181,1.5754 -1.7579,2.4805 -0.5768,0.9051 -1.1312,1.8324 -1.6152,2.6055 -0.484,0.773 -0.91,1.4002 -1.1738,1.664 -1.9353,1.9353 -3.1344,4.7544 -3.3789,7.5801 -0.2445,2.8257 0.4716,5.6728 2.4218,7.623 1.0115,1.0115 2.9079,2.009 4.959,2.7754 2.0511,0.7665 4.2421,1.2906 5.8516,1.2754 1.5455,-0.0146 3.8688,-0.4051 6.0586,-1.0254 2.1898,-0.6203 4.2328,-1.4476 5.2363,-2.4511 1.2184,-1.2184 1.8323,-3.1061 2.0918,-5.1426 0.2595,-2.0366 0.1603,-4.2301 -0.1035,-6.086 -0.1813,-1.275 -1.2404,-2.687 -2.418,-4 -1.1776,-1.313 -2.4923,-2.5138 -3.2129,-3.2343 -1.2865,-1.2866 -3.0654,-2.8615 -5.0351,-4.0098 -1.9698,-1.1483 -4.1434,-1.8786 -6.2071,-1.4043 z m 0.1114,0.4863 c 1.8782,-0.4316 3.9331,0.2358 5.8437,1.3496 1.9107,1.1139 3.6658,2.6658 4.9336,3.9336 0.7391,0.7391 2.0383,1.9251 3.1934,3.2129 1.155,1.2879 2.1463,2.6913 2.2949,3.7364 0.2585,1.8187 0.3553,3.9775 0.1035,5.9531 -0.2517,1.9756 -0.8558,3.7582 -1.9492,4.8515 -0.8533,0.8533 -2.8666,1.7144 -5.0195,2.3243 -2.153,0.6098 -4.4611,0.992 -5.9258,1.0058 -1.4943,0.0141 -3.6611,-0.4927 -5.6719,-1.2441 -2.0108,-0.7514 -3.8782,-1.7571 -4.7812,-2.6602 -1.8211,-1.8211 -2.5122,-4.5131 -2.2774,-7.2265 0.2348,-2.7135 1.4003,-5.4335 3.2363,-7.2696 0.3447,-0.3446 0.754,-0.9721 1.2422,-1.7519 0.4883,-0.7798 1.0416,-1.7045 1.6133,-2.6016 0.5717,-0.897 1.163,-1.7669 1.7188,-2.4297 0.5557,-0.6627 1.0925,-1.1025 1.4453,-1.1836 z"
       id="rtid-path1003-7-7-2"
       style="color:#000000;fill:#000000;stroke-width:0.5"
       sodipodi:nodetypes="ccccsssccssccscccscsccccccsccccccs"
       inkscape:connector-curvature="0" />
    <path
       d="m 118.316,39.1035 c -0.663,0.0294 -1.345,0.268 -2.052,0.5645 -1.415,0.593 -2.942,1.4223 -4.487,1.4843 -1.327,0.0534 -2.811,-0.7077 -4.195,-1.2988 -0.692,-0.2955 -1.359,-0.5488 -1.998,-0.6113 -0.639,-0.0626 -1.267,0.0855 -1.762,0.5801 -1.947,1.9471 -3.9833,5.9783 -5.0954,10.0293 -0.5561,2.0254 -0.8776,4.0538 -0.8184,5.832 0.0592,1.7782 0.4978,3.3201 1.5059,4.3281 1.0129,1.0126 2.8259,1.6664 5.0409,2.0703 2.215,0.404 4.837,0.5437 7.459,0.4473 2.622,-0.0964 5.242,-0.4298 7.455,-0.9785 2.213,-0.5488 4.019,-1.3001 5.026,-2.3067 1.395,-1.3951 1.861,-4.3015 1.765,-7.4804 -0.096,-3.1789 -0.787,-6.6333 -1.9,-9.1114 -0.536,-1.1915 -1.336,-1.6444 -2.094,-1.9101 -0.758,-0.2657 -1.452,-0.3835 -1.988,-0.9199 -0.548,-0.5478 -1.198,-0.7482 -1.862,-0.7188 z m 0.022,0.5 c 0.556,-0.0247 1.028,0.1179 1.484,0.5742 0.661,0.6607 1.474,0.7885 2.178,1.0352 0.704,0.2467 1.322,0.5722 1.805,1.6445 1.073,2.3894 1.761,5.805 1.855,8.9219 0.094,3.1169 -0.44,5.9324 -1.619,7.1113 -0.879,0.8791 -2.622,1.6379 -4.791,2.1758 -2.169,0.5379 -4.763,0.8676 -7.355,0.9629 -2.592,0.0953 -5.183,-0.0444 -7.35,-0.4395 -2.167,-0.395 -3.904,-1.0585 -4.7774,-1.9316 -0.8776,-0.8776 -1.3026,-2.2871 -1.3594,-3.9922 -0.0568,-1.7051 0.2524,-3.6913 0.7988,-5.6816 1.093,-3.9808 3.147,-7.9826 4.971,-9.8067 0.387,-0.3868 0.817,-0.4903 1.357,-0.4375 0.54,0.0529 1.174,0.2827 1.852,0.5723 1.355,0.5791 2.884,1.3992 4.41,1.3379 1.706,-0.0686 3.283,-0.9444 4.66,-1.5215 0.688,-0.2886 1.324,-0.5007 1.881,-0.5254 z"
       id="rtid-path1003-6-5-0-2"
       style="color:#000000;fill:#000000;stroke-width:0.5"
       sodipodi:nodetypes="cccccccsccsccscsccccscscssccsccccccc"
       inkscape:connector-curvature="0" />
    <path
       d="M 15.2637,1.67383 C 14.2081,1.80213 13.2884,2.16673 12.6172,2.83789 12.4529,3.00221 12.3763,3.22155 12.2695,3.53711 12.1627,3.85267 12.0507,4.25596 11.9297,4.72852 11.6876,5.67363 11.4114,6.89174 11.0859,8.1875 10.4351,10.779 9.57725,13.6857 8.5,15.2344 7.53403,16.623 6.35844,16.7546 5.32227,16.6836 4.80418,16.6481 4.33355,16.5523 3.94727,16.5254 3.75413,16.5119 3.57882,16.5114 3.4082,16.5742 c -0.17062,0.0629 -0.32551,0.2329 -0.36132,0.4297 -0.187,1.0274 0.12493,2.0229 0.70703,2.9492 0.58209,0.9263 1.43565,1.7977 2.38086,2.6211 1.8904,1.6469 4.15873,3.1138 5.33203,4.2871 1.2254,1.2255 2.0461,1.3016 3.3945,1.3496 1.3484,0.0481 3.3082,0.1035 7.1192,1.3399 1.1422,0.3706 2.2732,0.0275 3.2675,-0.5625 0.9944,-0.59 1.8764,-1.4311 2.5723,-2.127 1.1213,-1.1213 1.6301,-2.4147 1.8086,-3.8437 0.1786,-1.4291 0.0391,-2.9978 -0.1191,-4.7364 C 29.3935,17.0043 29.3913,15.498 29.2148,14.0957 29.0384,12.6934 28.6919,11.3794 27.8203,10.5078 27.2484,9.93589 27.1243,9.10195 26.9316,8.1543 26.739,7.20665 26.4596,6.15209 25.4863,5.30859 23.6822,3.74498 21.144,2.49229 18.7207,1.93359 17.5091,1.65425 16.3193,1.54552 15.2637,1.67383 Z m 0.0781,0.50195 c 0.9748,-0.11737 2.0989,-0.0253 3.2676,0.24414 2.3373,0.53889 4.8227,1.76992 6.5508,3.26758 0.8551,0.74109 1.0926,1.63889 1.2812,2.56641 0.1886,0.92751 0.311,1.89299 1.0254,2.60739 0.738,0.738 1.081,1.9388 1.252,3.2969 0.1709,1.3581 0.1735,2.8567 0.2929,4.168 0.1582,1.7375 0.29,3.2772 0.1211,4.6289 -0.1689,1.3517 -0.6256,2.5123 -1.666,3.5527 -0.6888,0.6888 -1.5472,1.5017 -2.4727,2.0508 -0.9254,0.5491 -1.8946,0.8306 -2.8593,0.5176 C 18.2796,27.8254 16.2246,27.7589 14.8789,27.7109 13.5332,27.663 12.9814,27.6689 11.8203,26.5078 10.5689,25.2564 8.31416,23.8101 6.46289,22.1973 5.53726,21.3909 4.71532,20.5441 4.17578,19.6855 3.63624,18.827 3.37951,17.9703 3.53906,17.0938 3.54898,17.0393 3.53508,17.0603 3.58203,17.043 c 0.04695,-0.0173 0.16636,-0.031 0.33008,-0.0196 0.32744,0.0229 0.8175,0.122 1.375,0.1602 1.11501,0.0764 2.55266,-0.1253 3.62305,-1.6641 1.17104,-1.6834 2.00594,-4.6042 2.66014,-7.20895 0.3271,-1.3024 0.6045,-2.525 0.8438,-3.45899 0.1196,-0.46699 0.2309,-0.86133 0.33,-1.15429 0.0992,-0.29296 0.2143,-0.49354 0.2266,-0.50586 0.5713,-0.57134 1.3963,-0.89826 2.3711,-1.01563 z"
       id="rtid-path1003-3-9-8"
       style="color:#000000;fill:#000000;stroke-width:0.5"
       sodipodi:nodetypes="ccscccscccccccccsccccccccscccsccsscccscccscscccccs"
       inkscape:connector-curvature="0" />
    <path
       d="m 47.1309,2.06055 c -1.4004,0.06284 -3.6659,0.04186 -5.8067,0.22461 -2.1407,0.18275 -4.162,0.5292 -5.1445,1.51172 -1.3037,1.3037 -1.8737,3.84347 -1.9414,6.68942 -0.0677,2.846 0.392,6.0039 1.2871,8.5371 0.5305,1.5013 2.1953,2.998 3.8848,4.3301 1.6894,1.3321 3.4328,2.4992 4.0566,3.1231 1.9457,1.9457 4.9174,2.9492 7.8848,2.998 2.9673,0.0488 5.9439,-0.856 7.8925,-2.8047 1.9952,-1.9951 2.1386,-5.7542 1.3633,-9.4746 C 59.8322,13.4749 58.1249,9.76945 56.1777,7.82227 55.1701,6.81466 53.7649,5.34655 52.1914,4.14258 50.618,2.9386 48.868,1.98259 47.1309,2.06055 Z m 0.0234,0.5 c 1.5354,-0.06891 3.2029,0.80865 4.7344,1.98047 1.5314,1.17181 2.9206,2.62178 3.9355,3.63671 1.824,1.82407 3.5344,5.47887 4.293,9.11917 0.7586,3.6402 0.5496,7.2434 -1.2266,9.0195 -1.8225,1.8225 -4.6717,2.7053 -7.5312,2.6582 -2.8595,-0.047 -5.7135,-1.026 -7.5391,-2.8516 -0.7252,-0.7251 -2.4328,-1.8463 -4.1015,-3.1621 -1.6688,-1.3157 -3.2705,-2.8237 -3.7227,-4.1035 -0.8694,-2.4603 -1.324,-5.5762 -1.2578,-8.3594 0.0662,-2.7831 0.6763,-5.22907 1.7949,-6.34761 0.7662,-0.76618 2.7245,-1.18728 4.832,-1.36719 2.1075,-0.17991 4.3599,-0.15852 5.7891,-0.22265 z"
       id="rtid-path1003-6-56-3-9"
       style="color:#000000;fill:#000000;stroke-width:0.5"
       sodipodi:nodetypes="cccscccsccccccccccccccscsc"
       inkscape:connector-curvature="0" />
    <path
       d="M 79.2891,2.50195 C 77.9162,2.63796 76.464,3.58626 75.1367,4.68164 73.8095,5.77702 72.6108,7.03369 71.8223,7.82227 69.8705,9.77399 68.9219,12.8914 68.9219,16 c 0,3.1086 0.9486,6.226 2.9004,8.1777 1.0037,1.0038 3.0103,2.3617 5.2539,3.4239 2.2436,1.0621 4.7107,1.8302 6.664,1.5488 3.5488,-0.5111 6.3563,-0.9501 8.2715,-2.8652 1.9892,-1.9892 2.9497,-6.3261 2.9981,-10.6661 C 95.0581,11.2792 94.1952,6.93941 92.2031,4.94727 91.0229,3.76709 88.692,3.10714 86.2031,2.74023 83.7143,2.37333 81.0725,2.32529 79.2891,2.50195 Z M 79.3379,3 c 1.7258,-0.17096 4.3468,-0.12595 6.791,0.23438 2.4442,0.36032 4.7153,1.06102 5.7207,2.0664 1.7791,1.77912 2.7077,6.04562 2.6602,10.31252 -0.0476,4.2669 -1.0695,8.5362 -2.8516,10.3183 -1.768,1.768 -4.4437,2.2122 -7.9883,2.7227 -1.7628,0.2539 -4.1831,-0.4635 -6.3808,-1.5039 C 75.0913,26.11 73.1036,24.7481 72.1777,23.8223 70.3582,22.0027 69.4219,19.0058 69.4219,16 c 0,-3.0058 0.9363,-6.00269 2.7558,-7.82227 C 72.9749,7.3806 74.1588,6.13817 75.4551,5.06836 76.7513,3.99855 78.1648,3.11622 79.3379,3 Z"
       id="rtid-path1003-7-2-6-7"
       style="color:#000000;fill:#000000;stroke-width:0.5"
       sodipodi:nodetypes="cccsccccccccccccscccsccc"
       inkscape:connector-curvature="0" />
    <path
       d="m 111.805,1.86523 c -0.879,-0.03332 -1.622,0.3119 -2.239,0.85743 -0.616,0.54553 -1.12,1.28734 -1.582,2.08398 -0.922,1.59328 -1.69,3.42249 -2.627,4.35938 -0.73,0.73105 -2.719,1.68668 -4.537,2.74418 -0.9083,0.5287 -1.7799,1.0894 -2.4509,1.6972 -0.6709,0.6079 -1.1561,1.2712 -1.2226,2.0176 -0.0836,0.9382 0.2636,1.7311 0.8398,2.3828 0.5762,0.6517 1.3755,1.1811 2.2407,1.6641 1.729,0.9659 3.735,1.7684 4.746,2.7793 0.774,0.7745 1.573,2.7844 2.48,4.6093 0.454,0.9125 0.942,1.7837 1.51,2.4512 0.568,0.6675 1.232,1.1444 2.019,1.1875 0.905,0.0495 1.694,-0.3242 2.368,-0.914 0.673,-0.5899 1.249,-1.3968 1.781,-2.2637 1.064,-1.7338 1.974,-3.7244 2.937,-4.6875 0.819,-0.8188 2.748,-1.8299 4.479,-2.9688 0.865,-0.5694 1.684,-1.1759 2.307,-1.8359 0.622,-0.66 1.055,-1.3858 1.087,-2.1836 0.071,-1.7354 -1.017,-3.0273 -2.324,-4.1074 -1.306,-1.0801 -2.857,-1.99006 -3.824,-2.95705 -0.855,-0.85532 -2.103,-2.54631 -3.492,-4.03711 -1.39,-1.4908 -2.923,-2.81926 -4.496,-2.87891 z m -0.018,0.5 c 1.292,0.04898 2.784,1.25716 4.147,2.71875 1.362,1.4616 2.591,3.13621 3.505,4.05079 1.043,1.04263 2.598,1.94523 3.86,2.98823 1.261,1.0431 2.204,2.1856 2.142,3.7032 -0.025,0.6277 -0.375,1.2483 -0.951,1.8593 -0.576,0.6111 -1.368,1.2025 -2.219,1.7618 -1.7,1.1186 -3.613,2.0902 -4.556,3.0332 -1.089,1.0893 -1.97,3.0852 -3.01,4.7793 -0.52,0.847 -1.074,1.6151 -1.684,2.1484 -0.609,0.5333 -1.257,0.8323 -2.011,0.791 -0.602,-0.0329 -1.146,-0.4008 -1.666,-1.0117 -0.52,-0.6109 -0.998,-1.4523 -1.444,-2.3496 -0.892,-1.7946 -1.629,-3.7959 -2.574,-4.7402 -1.145,-1.145 -3.169,-1.9218 -4.855,-2.8633 -0.8433,-0.4708 -1.5977,-0.9776 -2.1097,-1.5567 -0.5119,-0.579 -0.7877,-1.212 -0.7168,-2.0078 0.0493,-0.5529 0.4362,-1.1257 1.0606,-1.6914 0.6244,-0.5656 1.4719,-1.1157 2.3669,-1.6367 1.791,-1.0419 3.755,-1.9379 4.639,-2.82227 1.064,-1.06433 1.807,-2.91202 2.705,-4.46289 0.449,-0.77543 0.934,-1.47356 1.482,-1.95898 0.549,-0.48542 1.148,-0.76051 1.889,-0.73243 z"
       id="rtid-path1003-6-5-9-0-3"
       style="color:#000000;fill:#000000;stroke-width:0.5"
       sodipodi:nodetypes="cccccccscccsccsccccccccaccccccccccssccccccccca"
       inkscape:connector-curvature="0" />
  </g>
</svg>
