<?xml version="1.0" encoding="UTF-8" standalone="no"?>
<svg
   xmlns:dc="http://purl.org/dc/elements/1.1/"
   xmlns:cc="http://creativecommons.org/ns#"
   xmlns:rdf="http://www.w3.org/1999/02/22-rdf-syntax-ns#"
   xmlns:svg="http://www.w3.org/2000/svg"
   xmlns="http://www.w3.org/2000/svg"
   xmlns:xlink="http://www.w3.org/1999/xlink"
   xmlns:sodipodi="http://sodipodi.sourceforge.net/DTD/sodipodi-0.dtd"
   xmlns:inkscape="http://www.inkscape.org/namespaces/inkscape"
   height="128mm"
   id="base_svg"
   version="1.1"
   viewBox="0 0 128 128"
   width="128mm"
   sodipodi:docname="30.svg"
   inkscape:version="0.92.2 5c3e80d, 2017-08-06">
  <defs
     id="rtid-defs921">
    <mask
       id="rtid-mask1421"
       maskUnits="userSpaceOnUse">
      <g
         id="rtid-g1455"
         transform="matrix(0,1,1,0,0,0)">
        <path
           d="M 0,128 H 32 V 120 C 28.4562,120 28.3935,119.769 24.3135,121.069 20.6135,122.269 21.2463,120.594 19.8463,120.594 16.8863,120.394 12.8804,124.172 12.7224,121.372 12.6554,120.172 10.8066,118.563 7.45252,121.107 4.09847,123.651 3.90873,120.017 0,120 Z"
           id="rtid-path1423"
           style="fill:#ffffff;stroke-width:0.5218"
           sodipodi:nodetypes="cccssszcc"
           inkscape:connector-curvature="0" />
        <path
           d="M 32,128 H 64 V 120 C 60.4562,120 62.0203,118.549 60.3806,119.307 56.8496,120.939 55.551,119.238 54.151,119.238 51.191,119.038 49.2187,121.867 49.0607,119.067 48.9937,117.867 46.3315,119.919 41.6216,119.209 36.9118,118.499 35.9087,120.017 32,120 Z"
           id="rtid-path1425"
           style="fill:#ffffff;stroke-width:0.5218"
           sodipodi:nodetypes="cccssszcc"
           inkscape:connector-curvature="0" />
        <path
           d="M 64,128 H 96 V 120 C 92.4562,120 92.3935,119.769 88.3135,121.069 82.1864,122.601 74.6608,117.79 72.1304,119.48 68.7764,122.024 67.9087,120.017 64,120 Z"
           id="rtid-path1427"
           style="fill:#ffffff;stroke-width:0.5218"
           sodipodi:nodetypes="ccccccc"
           inkscape:connector-curvature="0" />
        <path
           d="M 96,128 H 128 V 120 C 120.461,120.42 115.569,121.001 115.501,118.796 115.433,116.591 111.01,116.529 107.655,119.073 104.301,121.617 99.9087,120.017 96,120 Z"
           id="rtid-path1429"
           style="fill:#ffffff;stroke-width:0.5218"
           sodipodi:nodetypes="ccczzcc"
           inkscape:connector-curvature="0" />
        <path
           d="M 0,96 H 32 V 88 C 28.4562,88 30.4271,90.0737 26.4826,89.6113 22.6194,89.1584 20.9752,90.8987 19.5752,90.8987 16.6152,90.6987 14.7784,88.9183 12.9935,88.423 11.8354,88.1016 9.17974,91.0369 6.09678,91.005 3.01383,90.9731 3.9088,88.017 0,88 Z"
           id="rtid-path1431"
           style="fill:#ffffff;stroke-width:0.5218"
           sodipodi:nodetypes="cccssszcc"
           inkscape:connector-curvature="0" />
        <path
           d="M 32,96 H 64.0001 V 88 C 60.4562,88 52.774,82.5794 51.4331,86.222 50.8156,87.8994 49.0674,85.592 46.2463,87.127 43.4252,88.662 43.2879,85.9645 39.4525,87.7513 35.6171,89.5381 35.9087,88.017 32,88 Z"
           id="rtid-path1433"
           style="fill:#ffffff;stroke-width:0.5218"
           sodipodi:nodetypes="cccszzcc"
           inkscape:connector-curvature="0" />
        <path
           d="M 64.0001,96 H 96.0001 V 88 C 92.4563,88 92.2963,85.189 87.0936,87.8489 81.8909,90.5088 83.9754,86.8187 75.2486,88.0224 66.5218,89.2261 67.9088,88.017 64.0001,88 Z"
           id="rtid-path1435"
           style="fill:#ffffff;stroke-width:0.5218"
           sodipodi:nodetypes="ccczzcc"
           inkscape:connector-curvature="0" />
        <path
           d="M 96.0001,96 H 128 V 88 C 124.456,88 125.342,89.5314 121.262,90.8314 117.562,92.0314 113.857,92.2544 112.457,92.2544 109.497,92.0544 105.313,91.5519 103.028,89.7787 100.743,88.0055 99.823,88.1444 96.0001,88 Z"
           id="rtid-path1437"
           style="fill:#ffffff;stroke-width:0.5218"
           sodipodi:nodetypes="cccsszcc"
           inkscape:connector-curvature="0" />
        <path
           d="M 0,64 H 32 V 56 C 28.4562,56 28.5291,54.8201 24.4491,56.1202 20.7491,57.32 25.7201,59.5766 22.0154,59.9833 19.0664,60.3071 11.118,61.2566 10.96,58.4568 10.893,57.2566 10.1287,53.343 6.77474,55.887 3.42064,58.4309 3.9088,56.017 0,56 Z"
           id="rtid-path1439"
           style="fill:#ffffff;stroke-width:0.5218"
           sodipodi:nodetypes="cccssszcc"
           inkscape:connector-curvature="0" />
        <path
           d="M 32,64 H 64.0001 V 56 C 60.4562,56 61.7492,58.0738 58.2117,58.1538 54.3228,58.2417 52.8396,54.2893 51.4397,54.2893 48.4796,54.0893 46.7041,54.6016 44.5869,52.7628 42.8929,51.2914 41.1798,52.394 37.5545,53.5822 33.9292,54.7705 35.9087,56.017 32,56 Z"
           id="rtid-path1441"
           style="fill:#ffffff;stroke-width:0.5218"
           sodipodi:nodetypes="cccssszcc"
           inkscape:connector-curvature="0" />
        <path
           d="M 64.0001,64 H 96.0001 V 56 C 92.4563,56 93.6234,55.2922 90.2117,55.7135 87.6191,56.0337 84.0111,53.9101 80.6972,54.1084 76.7252,54.3462 73.1056,56.8173 71.317,56.836 68.0362,56.8703 67.9088,56.017 64.0001,56 Z"
           id="rtid-path1443"
           style="fill:#ffffff;stroke-width:0.5218"
           sodipodi:nodetypes="cccssscc"
           inkscape:connector-curvature="0" />
        <path
           d="M 96.0001,64 H 128 V 56 C 124.456,56 124.664,55.6335 121.533,55.0356 117.713,54.306 115.619,58.7631 114.219,58.7631 111.259,58.5631 110.8,54.4748 108.18,55.4742 106.35,56.172 105.858,51.5805 102.503,54.1245 99.149,56.6684 99.9088,56.017 96.0001,56 Z"
           id="rtid-path1445"
           style="fill:#ffffff;stroke-width:0.5218"
           sodipodi:nodetypes="cccssszcc"
           inkscape:connector-curvature="0" />
        <path
           d="M 0,32.0001 H 32 V 24.0001 C 28.4562,24.0001 30.2915,22.0067 26.2115,23.3067 22.5115,24.5067 26.3948,27.8066 24.998,27.7122 23.7034,27.6248 22.7144,25.8039 20.3201,25.6839 19.2473,25.6302 16.5709,25.018 15.1831,25.6415 13.6874,26.3135 13.4914,28.2236 12.7208,28.1222 12.1538,28.0476 12.747,25.8073 12.7224,25.3721 12.6863,24.732 11.4845,25.2364 10.6207,24.588 9.86527,24.0209 9.55968,22.1577 7.99479,23.3447 7.15573,23.9811 5.97241,25.9933 5.42165,26.0098 3.77083,26.0593 2.93095,24.0128 0,24.0001 Z"
           id="rtid-path1447"
           style="fill:#ffffff;stroke-width:0.5218"
           sodipodi:nodetypes="cccssssssssscc"
           inkscape:connector-curvature="0" />
        <path
           d="M 32,32.0001 H 64.0001 V 24.0001 C 60.4562,24.0001 60.3935,23.7691 56.3137,25.0691 52.6135,26.2691 53.2431,24.6885 51.8464,24.5941 50.8568,24.5272 49.7503,24.905 48.7097,25.3329 46.6379,26.185 47.4685,27.0135 44.7225,25.3721 41.9765,23.7307 35.8441,24.1453 32,24.0001 Z"
           id="rtid-path1449"
           style="fill:#ffffff;stroke-width:0.5218"
           sodipodi:nodetypes="cccssszcc"
           inkscape:connector-curvature="0" />
        <path
           d="M 64.0001,32.0001 H 96.0001 V 24.0001 C 93.8482,24.0001 92.8443,26.2196 91.5806,26.4438 90.7633,26.5888 89.2383,24.4229 87.6358,24.9335 83.9295,26.1145 83.3536,25.7667 82.0841,26.3565 74.5242,30.6775 74.9351,23.3807 69.2835,27.5474 65.9294,30.0914 67.9088,24.0171 64.0001,24.0001 Z"
           id="rtid-path1451"
           style="fill:#ffffff;stroke-width:0.5218"
           sodipodi:nodetypes="cccsscccc"
           inkscape:connector-curvature="0" />
        <path
           d="M 96.0001,32.0001 H 128 V 24.0001 C 125.634,24.0001 124.637,22.7765 123.19,23.2664 121.791,23.74 123.007,21.1102 122.222,20.7445 121.146,20.244 119.771,23.0355 119.771,23.0355 116.065,24.2164 115.755,23.1028 114.355,23.1028 111.395,22.9028 110.344,27.6598 108.722,25.3721 107.028,22.9837 106.984,25.732 104.799,27.1166 104.274,27.4494 102.475,25.0209 101.825,25.5138 98.4708,28.0573 99.9088,24.0171 96.0001,24.0001 Z"
           id="rtid-path1453"
           style="fill:#ffffff;stroke-width:0.5218"
           sodipodi:nodetypes="cccssssssscc"
           inkscape:connector-curvature="0" />
      </g>
    </mask>
  </defs>
  <sodipodi:namedview
     bordercolor="#666666"
     borderopacity="1"
     gridtolerance="10"
     guidetolerance="10"
     id="rtid-namedview3444"
     objecttolerance="10"
     pagecolor="#ffffff"
     showgrid="true"
     showguides="false"
     inkscape:current-layer="rtid-models_layer"
     inkscape:cx="147.70762"
     inkscape:cy="162.583"
     inkscape:document-units="mm"
     inkscape:pageopacity="0"
     inkscape:pageshadow="2"
     inkscape:window-height="1059"
     inkscape:window-maximized="0"
     inkscape:window-width="1918"
     inkscape:window-x="1"
     inkscape:window-y="20"
     inkscape:zoom="1.28">
    <inkscape:grid
       id="rtid-grid1541"
       spacingx="32"
       spacingy="32"
       type="xygrid"
       units="mm" />
  </sodipodi:namedview>
  <metadata
     id="rtid-metadata1919">
    <rdf:RDF>
      <cc:Work
         rdf:about="">
        <dc:format>image/svg+xml</dc:format>
        <dc:type
           rdf:resource="http://purl.org/dc/dcmitype/StillImage" />
        <dc:title />
      </cc:Work>
    </rdf:RDF>
  </metadata>
  <g
     id="rtid-models_layer"
     inkscape:groupmode="layer"
     inkscape:label="Models"
     sodipodi:insensitive="true"
     style="display:none">
    <g
       id="rtid-bg_b_model">
      <rect
         height="128"
         id="rtid-rtid-rect2648-6"
         style="fill:#800000;stroke-width:2;stroke-linecap:round;stroke-linejoin:round;paint-order:markers fill stroke"
         width="128"
         x="0"
         y="0" />
      <text
         id="rtid-rtid-text2652-2"
         style="font-size:10.58329964px;line-height:1.25;font-family:sans-serif;letter-spacing:0px;word-spacing:0px;fill:#000000;stroke-width:0.26460001"
         x="12.47"
         y="19.639999"
         xml:space="preserve"><tspan
           id="rtid-rtid-tspan2650-6"
           x="12.47"
           y="19.639999"
           sodipodi:role="line">B</tspan></text>
    </g>
  </g>
  <g
     id="rtid-bg_b_layer"
     inkscape:groupmode="layer"
     inkscape:label="Background B"
     sodipodi:insensitive="true">
    <use
       height="100%"
       id="rtid-bgb30"
       mask="url(#rtid-mask1421)"
       width="100%"
       x="0"
       y="0"
       xlink:href="#rtid-bg_b_model" />
  </g>
  <g
     id="rtid-layer3"
     sodipodi:insensitive="true"
     inkscape:groupmode="layer"
     inkscape:label="borders">
    <g
       id="rtid-g1219"
       transform="matrix(0,1,1,0,-0.186627,0)">
      <path
         d="M 0,120.25 C 1.67453,120.344 2.87331,121.15 3.80273,121.727 4.29521,122.032 4.80953,122.279 5.42969,122.26 6.04984,122.241 6.74127,121.961 7.60352,121.307 9.24272,120.063 10.4636,119.87 11.2559,120.078 12.0481,120.287 12.4459,120.908 12.4727,121.387 12.4942,121.768 12.5809,122.068 12.7559,122.289 12.9308,122.51 13.1924,122.626 13.4629,122.652 14.0039,122.704 14.6239,122.478 15.3281,122.189 16.7366,121.613 18.4633,120.751 19.8301,120.844 H 19.8379 19.8457 C 20.1459,120.844 20.3,120.92 20.4707,121.041 20.6414,121.162 20.8201,121.345 21.0957,121.5 21.3713,121.655 21.7389,121.763 22.2578,121.75 22.7762,121.737 23.4507,121.611 24.3887,121.307 28.3189,120.054 28.7981,120.236 32,120.25 V 119.75 C 28.4671,119.75 28.3271,119.527 24.2383,120.83 H 24.2363 V 120.832 C 23.3256,121.127 22.6929,121.241 22.2461,121.252 21.7992,121.263 21.5436,121.177 21.3398,121.062 21.1361,120.948 20.9798,120.789 20.7598,120.633 20.5412,120.478 20.2475,120.347 19.8516,120.346 18.2614,120.243 16.5094,121.165 15.1387,121.727 14.4517,122.008 13.8568,122.188 13.5098,122.154 13.3362,122.138 13.2344,122.087 13.1484,121.979 13.0625,121.87 12.9906,121.676 12.9727,121.357 12.9324,120.636 12.3702,119.854 11.3828,119.594 10.3954,119.334 9.01566,119.608 7.30078,120.908 6.48601,121.526 5.89691,121.745 5.41602,121.76 4.93512,121.774 4.52921,121.588 4.06641,121.301 3.14079,120.727 2.03183,119.759 0,119.75 Z"
         id="rtid-path1862-36"
         style="color:#000000;fill:#000000;stroke-width:0.5"
         sodipodi:nodetypes="ccsccccscccssscccccccccccccccsccccc"
         inkscape:connector-curvature="0" />
      <path
         d="M 64,119.75 C 63.1311,119.75 62.5891,119.659 62.248,119.547 61.907,119.435 61.7682,119.312 61.6562,119.195 61.6003,119.137 61.5532,119.077 61.4844,119.012 61.4156,118.947 61.3147,118.878 61.1914,118.852 60.9448,118.799 60.6992,118.884 60.2754,119.08 56.8301,120.673 55.7556,118.994 54.1562,118.99 52.5994,118.889 51.3174,119.572 50.4668,119.893 50.0403,120.053 49.751,120.093 49.6211,120.025 49.5561,119.992 49.4953,119.932 49.4355,119.779 49.3758,119.627 49.3294,119.387 49.3105,119.053 49.2995,118.855 49.2134,118.659 49.0547,118.551 48.896,118.443 48.7156,118.426 48.5234,118.434 48.1391,118.448 47.6566,118.573 47.0293,118.709 45.7746,118.982 43.9712,119.31 41.6582,118.961 39.2747,118.602 37.7978,118.808 36.457,119.1 35.1163,119.391 33.9218,119.758 32,119.75 V 120.25 C 33.8038,120.219 35.3217,119.86 36.5645,119.59 37.8798,119.304 39.2576,119.106 41.584,119.457 43.9809,119.818 45.8641,119.475 47.1348,119.199 47.7701,119.061 48.2602,118.942 48.541,118.932 48.6814,118.926 48.7553,118.953 48.7734,118.965 48.7916,118.977 48.8049,118.978 48.8105,119.08 V 119.082 C 48.8312,119.448 48.8808,119.732 48.9707,119.961 49.0606,120.19 49.2022,120.371 49.3906,120.469 49.7675,120.665 50.1862,120.533 50.6426,120.361 51.5553,120.018 52.7377,119.394 54.1348,119.488 H 54.1426 54.1504 C 55.3481,119.488 56.8742,121.203 60.4863,119.533 60.8824,119.35 61.0558,119.333 61.0879,119.34 61.1039,119.343 61.108,119.344 61.1406,119.375 61.1733,119.406 61.2224,119.467 61.2949,119.543 61.4399,119.694 61.6782,119.887 62.0918,120.023 62.4512,120.142 63.2842,120.23 64,120.25 Z"
         id="rtid-path1862-1-7"
         style="color:#000000;fill:#000000;stroke-width:0.5"
         sodipodi:nodetypes="cccscccccccscccccccccccccsccccsccccccc"
         inkscape:connector-curvature="0" />
      <path
         d="M 64,120.25 C 65.7156,120.31 67.1333,120.766 68.2324,120.947 69.4011,121.14 70.5707,120.977 72.2812,119.68 L 72.2695,119.688 C 72.809,119.327 73.6908,119.291 74.8242,119.477 75.9577,119.662 77.3242,120.056 78.8086,120.457 81.7773,121.258 85.2283,122.099 88.375,121.312 L 88.3828,121.311 88.3887,121.307 C 92.3188,120.054 92.7981,120.236 96,120.25 V 119.75 C 92.4738,119.75 92.3198,119.532 88.2539,120.826 85.2734,121.571 81.896,120.773 78.9375,119.975 77.4583,119.575 76.087,119.178 74.9062,118.984 74.3159,118.888 73.7675,118.837 73.2773,118.873 72.7872,118.909 72.3551,119.029 71.9922,119.271 L 71.9844,119.275 71.9785,119.281 C 70.335,120.528 69.3953,120.632 68.3145,120.453 67.2337,120.275 65.997,119.759 64,119.75 Z"
         id="rtid-path1862-0-5"
         style="color:#000000;fill:#000000;stroke-width:0.5"
         sodipodi:nodetypes="ccccccccccccccccccccc"
         inkscape:connector-curvature="0" />
      <path
         d="M 96,120.25 C 97.8522,120.289 100.078,120.664 102.025,120.746 104.058,120.831 106.068,120.59 107.807,119.271 109.441,118.032 111.345,117.43 112.814,117.404 113.549,117.391 114.174,117.524 114.594,117.768 115.014,118.011 115.238,118.335 115.252,118.803 115.272,119.447 115.685,119.931 116.324,120.203 116.964,120.475 117.839,120.593 118.939,120.633 121.077,120.709 124.381,120.455 128,120.25 V 119.75 C 124.227,119.96 121.103,120.21 118.957,120.133 117.884,120.094 117.052,119.97 116.52,119.744 115.987,119.518 115.764,119.248 115.75,118.789 115.73,118.154 115.377,117.645 114.844,117.336 114.311,117.027 113.605,116.89 112.807,116.904 111.209,116.932 109.224,117.568 107.504,118.873 105.889,120.098 104.026,120.331 102.047,120.248 100.067,120.165 97.988,119.759 96,119.75 Z"
         id="rtid-path1862-6-3"
         style="color:#000000;fill:#000000;stroke-width:0.5"
         sodipodi:nodetypes="cccccccccccccsccccc"
         inkscape:connector-curvature="0" />
      <path
         d="M 0,88.25 C 1.6356,88.3315 2.56777,88.972 3.16992,89.6621 3.49066,90.0297 3.80312,90.4224 4.25195,90.7305 4.70078,91.0385 5.28294,91.2474 6.09375,91.2559 7.71529,91.2725 9.18922,90.5173 10.3926,89.8223 10.9943,89.4747 11.5303,89.1406 11.9727,88.9199 12.415,88.6992 12.7545,88.6165 12.9258,88.6641 14.6045,89.1299 16.506,90.9422 19.5586,91.1484 H 19.5664 19.5762 C 20.3798,91.1484 21.1421,90.6911 22.1895,90.3203 23.2368,89.9495 24.5623,89.6377 26.4531,89.8594 27.4583,89.9772 28.1091,89.9374 28.584,89.793 29.0589,89.6485 29.3437,89.3898 29.5723,89.1523 29.8008,88.9149 29.9781,88.7059 30.3086,88.541 30.5903,88.4005 31.3535,88.28 32,88.25 V 87.75 C 31.0897,87.75 30.5058,87.8843 30.0859,88.0938 29.666,88.3032 29.4257,88.5835 29.2109,88.8066 28.9962,89.0298 28.8131,89.2021 28.4375,89.3164 28.0619,89.4307 27.4787,89.4767 26.5117,89.3633 24.5392,89.132 23.1121,89.4635 22.0215,89.8496 20.9343,90.2345 20.1795,90.6439 19.584,90.6465 16.722,90.4497 14.9496,88.7058 13.0605,88.1816 12.6528,88.0685 12.2276,88.2344 11.75,88.4727 11.2724,88.7109 10.7349,89.0465 10.1426,89.3887 8.95785,90.073 7.56102,90.7709 6.09961,90.7559 5.36894,90.7483 4.90775,90.5741 4.53516,90.3184 4.16256,90.0626 3.87637,89.7096 3.54688,89.332 2.88789,88.5768 2.01751,87.7587 0,87.75 Z"
         id="rtid-path1862-3-5"
         style="color:#000000;fill:#000000;stroke-width:0.5"
         sodipodi:nodetypes="cccccccccscccccccccsccccccccccc"
         inkscape:connector-curvature="0" />
      <path
         d="M 32,88.25 C 33.6614,88.3015 34.8395,88.644 35.7109,88.7988 36.6458,88.965 37.6185,88.8825 39.5586,87.9785 41.4316,87.106 42.3035,87.3283 43.1582,87.584 44.0129,87.8396 44.8992,88.1453 46.3652,87.3477 47.7106,86.6156 48.7572,86.7988 49.6172,86.9727 50.0472,87.0596 50.4251,87.1581 50.7949,87.1035 51.1647,87.0489 51.494,86.7813 51.668,86.3086 51.8188,85.899 52.0422,85.6403 52.3379,85.4688 52.6336,85.2972 53.0123,85.2148 53.4648,85.2129 54.37,85.2091 55.5509,85.5341 56.8066,85.9805 58.0624,86.4269 59.3963,86.9909 60.6445,87.4453 61.7997,87.8659 63.093,88.2028 64,88.25 V 87.75 C 63.1778,87.75 62.0472,87.4227 60.8164,86.9746 59.5856,86.5265 58.25,85.9632 56.9746,85.5098 55.6992,85.0564 54.486,84.7086 53.4629,84.7129 52.9513,84.715 52.4828,84.8079 52.0879,85.0371 51.6929,85.2663 51.3837,85.6337 51.1992,86.1348 51.0645,86.5008 50.9424,86.575 50.7227,86.6074 50.5029,86.6399 50.1517,86.5708 49.7148,86.4824 48.8411,86.3057 47.6028,86.1052 46.127,86.9082 44.772,87.6454 44.1789,87.3681 43.3008,87.1055 42.4226,86.8428 41.31,86.6112 39.3477,87.5254 37.4524,88.4084 36.6522,88.4586 35.7969,88.3066 34.9415,88.1546 33.9868,87.7586 32,87.75 Z"
         id="rtid-path1862-1-2-6"
         style="color:#000000;fill:#000000;stroke-width:0.5"
         sodipodi:nodetypes="ccccccsccsccccssccccccccccc"
         inkscape:connector-curvature="0" />
      <path
         d="M 64,88.25 C 65.6431,88.2924 66.6083,88.5696 67.7871,88.7168 69.0499,88.8745 70.9104,88.8726 75.2832,88.2695 79.6151,87.672 81.1855,88.2763 82.4082,88.7168 83.0196,88.9371 83.569,89.1286 84.293,89.0781 85.017,89.0276 85.8915,88.7448 87.207,88.0723 88.4914,87.4157 89.4425,87.099 90.207,86.9922 90.9716,86.8854 91.5504,86.9872 92.0918,87.1641 93.1141,87.4981 94.3514,88.1761 96,88.25 V 87.75 C 94.2942,87.75 93.4299,87.0762 92.2461,86.6895 91.6542,86.4961 90.9957,86.3936 90.1562,86.5078 89.3168,86.6221 88.2975,86.9536 86.9805,87.627 85.6946,88.2843 84.8789,88.5368 84.2578,88.5801 83.6367,88.6234 83.1868,88.4654 82.5781,88.2461 81.3607,87.8075 79.6099,87.1691 75.2148,87.7754 70.8609,88.3759 69.0503,88.3709 67.8477,88.2207 66.6451,88.0705 65.9802,87.7586 64,87.75 Z"
         id="rtid-path1862-0-0-2"
         style="color:#000000;fill:#000000;stroke-width:0.5"
         sodipodi:nodetypes="ccccsscccccccsscscc"
         inkscape:connector-curvature="0" />
      <path
         d="M 128,87.75 C 126.192,87.75 125.426,88.1733 124.682,88.7285 123.937,89.2837 123.194,89.9539 121.186,90.5938 117.524,91.781 113.833,92.0038 112.459,92.0039 109.512,91.8039 105.364,91.276 103.182,89.582 102.024,88.6835 101.172,88.2461 100.141,88.0332 99.1088,87.8203 97.9077,87.8221 96,87.75 V 88.25 C 97.7061,88.3105 99.1471,88.339 100.041,88.5234 100.996,88.7205 101.748,89.1019 102.875,89.9766 105.259,91.8265 109.467,92.303 112.439,92.5039 H 112.449 112.457 C 113.883,92.5039 117.601,92.282 121.338,91.0703 123.41,90.4101 124.262,89.6644 124.98,89.1289 125.651,88.6288 126.518,88.2918 128,88.25 Z"
         id="rtid-path1862-6-6-91"
         style="color:#000000;fill:#000000;stroke-width:0.5"
         sodipodi:nodetypes="ccccccccccccscccc"
         inkscape:connector-curvature="0" />
      <path
         d="M 0,56.25 C 1.67091,56.3174 2.72111,56.85 3.50977,57.1387 3.92856,57.2919 4.37822,57.3675 4.91602,57.2227 5.45381,57.0778 6.07442,56.7317 6.92578,56.0859 7.73604,55.4714 8.35937,55.2731 8.82227,55.2969 9.28516,55.3206 9.62132,55.5544 9.90039,55.9199 10.4585,56.651 10.6795,57.9084 10.7109,58.4707 10.734,58.8799 10.9075,59.2379 11.1816,59.5156 11.4558,59.7934 11.8242,59.998 12.2539,60.1562 13.1134,60.4728 14.2318,60.6041 15.4336,60.6406 17.8372,60.7136 20.5706,60.3941 22.043,60.2324 22.5215,60.1799 22.8702,60.0972 23.1348,59.9766 23.3993,59.856 23.5881,59.6824 23.6719,59.4688 23.8394,59.0415 23.622,58.6329 23.4648,58.2539 23.3077,57.8749 23.188,57.5231 23.2695,57.2422 23.351,56.9613 23.6379,56.6452 24.5254,56.3574 V 56.3594 C 26.545,55.7158 27.4857,55.6921 28.3906,55.8203 29.2329,55.9396 30.4363,56.2132 32,56.25 V 55.75 C 30.2558,55.75 29.4254,55.4609 28.4609,55.3242 27.4964,55.1876 26.4335,55.2262 24.373,55.8828 H 24.3711 C 23.4086,56.1949 22.9319,56.6112 22.7891,57.1035 22.6462,57.5959 22.8439,58.0594 23.0039,58.4453 23.1639,58.8313 23.263,59.1374 23.2051,59.2852 23.1761,59.359 23.1149,59.4362 22.9277,59.5215 22.7406,59.6068 22.4359,59.6852 21.9883,59.7344 20.5117,59.8966 17.7966,60.2138 15.4492,60.1426 14.2755,60.107 13.1932,59.9702 12.4258,59.6875 12.0421,59.5461 11.7394,59.369 11.5371,59.1641 11.3348,58.9591 11.2254,58.7341 11.209,58.4434 11.1734,57.8056 10.9781,56.507 10.2988,55.6172 9.9592,55.1723 9.47346,54.829 8.84766,54.7969 8.22185,54.7648 7.48977,55.0301 6.62305,55.6875 5.79736,56.3138 5.22132,56.6208 4.78516,56.7383 4.34899,56.8558 4.04866,56.8042 3.68164,56.6699 2.94759,56.4013 2.00591,55.7588 0,55.75 Z"
         id="rtid-path1862-15-2"
         style="color:#000000;fill:#000000;stroke-width:0.5"
         sodipodi:nodetypes="cccccccccsccccscccccccccccccsccccsccccc"
         inkscape:connector-curvature="0" />
      <path
         d="M 64,55.75 C 62.1793,55.75 61.4948,56.3356 60.9316,56.8652 60.3685,57.3949 59.9263,57.8653 58.207,57.9043 56.3479,57.9463 55.0775,57.0315 54.0645,56.0723 53.558,55.5927 53.1233,55.1046 52.7129,54.7227 52.3032,54.3414 51.9079,54.0421 51.4414,54.041 49.9525,53.9417 48.7678,54.015 47.7266,53.8926 46.6809,53.7696 45.7757,53.4634 44.752,52.5742 44.301,52.1826 43.8301,51.9592 43.332,51.8652 42.8339,51.7713 42.3086,51.8072 41.7422,51.9316 40.6093,52.1806 39.2785,52.7551 37.4766,53.3457 35.6265,53.9521 35.1282,54.6347 34.7051,55.0684 34.4935,55.2852 34.3119,55.4384 33.9316,55.5586 33.5514,55.6788 32.9639,55.7542 32,55.75 V 56.25 C 32.7969,56.2374 33.6766,56.1634 34.082,56.0352 34.5432,55.8893 34.8272,55.6592 35.0625,55.418 35.5331,54.9356 35.8576,54.4022 37.6328,53.8203 39.4561,53.2227 40.7941,52.6515 41.8477,52.4199 42.3744,52.3042 42.8215,52.2639 43.2344,52.3398 43.6473,52.4158 44.0277,52.6072 44.4238,52.9512 45.5172,53.9008 46.5566,54.258 47.668,54.3887 48.7794,54.5194 49.9614,54.4403 51.4238,54.5391 H 51.4316 51.4395 C 51.6718,54.5391 51.9882,54.7315 52.3711,55.0879 52.754,55.4442 53.1953,55.9381 53.7207,56.4355 54.7715,57.4305 56.187,58.4501 58.2168,58.4043 60.0351,58.3631 60.7147,57.7558 61.2754,57.2285 61.7971,56.7379 62.5561,56.3068 64,56.25 Z"
         id="rtid-path1862-1-5-7"
         style="color:#000000;fill:#000000;stroke-width:0.5"
         sodipodi:nodetypes="cccsccccccscccccsccccsccscccccc"
         inkscape:connector-curvature="0" />
      <path
         d="M 64,56.25 C 65.6948,56.2821 66.9702,56.4847 67.8379,56.6816 68.7666,56.8924 69.6582,57.1034 71.3203,57.0859 72.3279,57.0753 73.663,56.4342 75.2812,55.7871 76.8995,55.14 78.774,54.4736 80.7129,54.3574 82.3113,54.2617 84.0168,54.7314 85.6562,55.1973 87.2957,55.6631 88.8651,56.1311 90.2422,55.9609 91.9345,55.752 92.4395,55.8219 93.0039,55.9434 93.5212,56.0547 94.529,56.2232 96,56.25 V 55.75 C 94.2447,55.75 93.7003,55.5822 93.1094,55.4551 92.5185,55.328 91.9008,55.2526 90.1816,55.4648 88.966,55.6151 87.4343,55.1832 85.793,54.7168 84.1517,54.2504 82.3971,53.7567 80.6816,53.8594 78.6487,53.9811 76.7274,54.6698 75.0957,55.3223 73.4641,55.9748 72.0954,56.5777 71.3145,56.5859 69.6958,56.6029 68.8817,56.405 67.9492,56.1934 67.0168,55.9818 65.9725,55.7587 64,55.75 Z"
         id="rtid-path1862-0-4-0"
         style="color:#000000;fill:#000000;stroke-width:0.5"
         sodipodi:nodetypes="ccccccccccscssccccc"
         inkscape:connector-curvature="0" />
      <path
         d="M 96,56.25 C 97.6526,56.2779 98.7778,56.424 99.5117,56.2676 100.302,56.0991 100.976,55.5969 102.654,54.3242 103.462,53.7119 104.052,53.5565 104.52,53.6094 104.987,53.6622 105.371,53.9319 105.74,54.2871 106.109,54.6423 106.445,55.0732 106.834,55.3926 107.223,55.712 107.723,55.9153 108.27,55.707 108.869,55.4783 109.29,55.5402 109.695,55.7578 110.1,55.9755 110.482,56.3763 110.885,56.834 111.691,57.7493 112.61,58.9042 114.203,59.0117 L 114.211,59.0137 H 114.219 C 114.701,59.0137 115.118,58.6803 115.582,58.2637 116.046,57.8471 116.556,57.3166 117.133,56.8145 118.287,55.8102 119.677,54.9357 121.486,55.2812 123.042,55.5783 123.761,55.8163 124.561,55.9863 125.302,56.144 126.469,56.2375 128,56.25 V 55.75 C 126.237,55.75 125.429,55.6608 124.664,55.498 123.899,55.3353 123.156,55.09 121.58,54.7891 119.57,54.4052 118.002,55.3957 116.805,56.4375 116.206,56.9584 115.69,57.4963 115.248,57.8926 114.81,58.286 114.445,58.5065 114.227,58.5098 112.867,58.4127 112.076,57.4302 111.26,56.5039 110.851,56.0394 110.442,55.5925 109.932,55.3184 109.421,55.0443 108.802,54.9693 108.092,55.2402 107.723,55.3808 107.476,55.2735 107.152,55.0078 106.829,54.7421 106.488,54.3152 106.086,53.9277 105.684,53.5403 105.202,53.1821 104.576,53.1113 103.95,53.0406 103.222,53.2661 102.352,53.9258 100.676,55.197 100.053,55.6399 99.4082,55.7773 98.763,55.9148 97.9683,55.7587 96,55.75 Z"
         id="rtid-path1862-6-7-9"
         style="color:#000000;fill:#000000;stroke-width:0.5"
         sodipodi:nodetypes="ccccsscccccsscccccccccccccccccccc"
         inkscape:connector-curvature="0" />
      <path
         d="M 0,24.25 C 1.2389,24.3166 2.33902,24.7747 3.05469,25.2383 3.82531,25.7375 4.49984,26.2877 5.42969,26.2598 5.71672,26.2512 5.89968,26.0684 6.11523,25.8535 6.33079,25.6386 6.55872,25.3605 6.79492,25.0664 7.26732,24.4782 7.78295,23.8207 8.14648,23.5449 8.5095,23.2695 8.76299,23.1955 8.94336,23.207 9.12373,23.2185 9.27047,23.3117 9.42969,23.4805 9.74812,23.8179 10.0008,24.4344 10.4707,24.7871 10.972,25.1634 11.5511,25.1977 11.9609,25.2324 12.1659,25.2498 12.3313,25.2725 12.4062,25.3027 12.4812,25.3329 12.4681,25.3064 12.4727,25.3867 12.4749,25.4269 12.4493,25.6648 12.4062,25.9355 12.3632,26.2063 12.3077,26.5335 12.2695,26.8535 12.2314,27.1736 12.2077,27.4847 12.2363,27.75 12.2506,27.8826 12.2759,28.0049 12.3398,28.1211 12.4038,28.2373 12.5336,28.3508 12.6875,28.3711 12.9822,28.4098 13.2348,28.24 13.4102,28.0352 13.5855,27.8303 13.7302,27.5722 13.8945,27.3008 14.2231,26.758 14.6144,26.1705 15.2852,25.8691 15.8964,25.5946 16.8878,25.5776 17.8496,25.6582 18.8114,25.7388 19.7332,25.9049 20.3066,25.9336 21.4424,25.9905 22.2352,26.4449 22.9316,26.918 23.6281,27.391 24.221,27.9096 24.9805,27.9609 25.0903,27.9684 25.1924,27.9632 25.293,27.9238 25.3935,27.8844 25.4894,27.796 25.5312,27.6953 25.6149,27.494 25.5537,27.3267 25.4922,27.1504 25.3692,26.7977 25.1347,26.3706 24.9766,25.9141 24.8184,25.4576 24.7437,24.9949 24.8906,24.6016 25.0374,24.2086 25.408,23.8305 26.2871,23.5449 27.2947,23.2239 27.9244,23.1135 28.3359,23.1172 28.7474,23.1209 28.9388,23.2186 29.166,23.373 29.3932,23.5275 29.6495,23.7572 30.0762,23.9395 30.4474,24.098 31.2792,24.2219 32,24.25 V 23.75 C 31.1375,23.75 30.6268,23.6295 30.2734,23.4785 29.92,23.3276 29.7142,23.1404 29.4473,22.959 29.1803,22.7776 28.8444,22.6217 28.3418,22.6172 27.8392,22.6127 27.1672,22.7394 26.1348,23.0684 25.1656,23.3827 24.633,23.8677 24.4238,24.4277 24.2146,24.9877 24.3283,25.5695 24.5039,26.0762 24.6795,26.5829 24.9249,27.0375 25.0215,27.3145 25.0589,27.4217 25.054,27.4486 25.0586,27.4609 25.0427,27.4624 25.0453,27.4649 25.0156,27.4629 24.4805,27.4267 23.9312,26.9931 23.2109,26.5039 22.4907,26.0147 21.5906,25.4967 20.332,25.4336 19.8326,25.4086 18.8821,25.2432 17.8906,25.1602 16.8991,25.0771 15.8567,25.0652 15.0801,25.4141 14.2552,25.7847 13.8028,26.488 13.4668,27.043 13.2988,27.3205 13.1561,27.5632 13.0312,27.709 12.9152,27.8445 12.8543,27.8684 12.7734,27.8633 12.7609,27.8355 12.7436,27.7811 12.7344,27.6953 12.714,27.5059 12.7294,27.2158 12.7656,26.9121 12.8018,26.6084 12.8568,26.2877 12.9004,26.0137 12.9439,25.7397 12.9827,25.5348 12.9727,25.3574 12.9591,25.1177 12.7813,24.9154 12.5938,24.8398 12.4062,24.7643 12.2119,24.752 12.0039,24.7344 11.5879,24.6992 11.134,24.6607 10.7715,24.3887 10.486,24.1743 10.2074,23.5759 9.79297,23.1367 9.58575,22.9171 9.31528,22.7307 8.97461,22.709 8.63394,22.6873 8.26319,22.8283 7.84375,23.1465 7.36824,23.5072 6.87101,24.1728 6.4043,24.7539 6.17094,25.0445 5.94916,25.3112 5.76172,25.498 5.57428,25.6849 5.40241,25.7601 5.41406,25.7598 4.69309,25.7814 4.12093,25.3332 3.32617,24.8184 2.53141,24.3035 1.52356,23.7566 0,23.75 Z"
         id="rtid-path1862-3-6-3"
         style="color:#000000;fill:#000000;stroke-width:0.5"
         sodipodi:nodetypes="ccccscscccccccccccscscccccccccsccccccscssccccccsscccscccsccsccccccc"
         inkscape:connector-curvature="0" />
      <path
         d="M 64,23.75 C 60.467,23.75 60.327,23.5273 56.2383,24.8301 L 56.2363,24.832 C 54.4129,25.4234 53.7385,25.3124 53.334,25.0957 53.1317,24.9874 52.9777,24.8337 52.7617,24.6758 52.5458,24.5179 52.2606,24.3706 51.8633,24.3438 50.7981,24.2718 49.6656,24.6697 48.6152,25.1016 47.542,25.543 47.1701,25.9733 46.9023,26.0469 46.7685,26.0837 46.6218,26.0766 46.3066,25.9473 45.9915,25.8179 45.5349,25.5666 44.8516,25.1582 43.4002,24.2907 41.1557,23.9954 38.7852,23.875 36.4147,23.7546 33.9081,23.8221 32,23.75 V 24.25 C 33.9017,24.3104 36.5065,24.2606 38.7598,24.375 41.1029,24.494 43.299,24.812 44.5938,25.5859 45.2835,25.9982 45.751,26.2598 46.1172,26.4102 46.4834,26.5605 46.7745,26.601 47.0352,26.5293 47.5565,26.386 47.8059,25.9752 48.8047,25.5645 49.8355,25.1407 50.9163,24.7821 51.8301,24.8438 52.1312,24.8641 52.2904,24.9506 52.4648,25.0781 52.6393,25.2057 52.8202,25.3885 53.0977,25.5371 53.6523,25.8342 54.5136,25.9144 56.3887,25.3066 60.3187,24.0544 60.798,24.236 64,24.25 Z"
         id="rtid-path1862-1-2-5-6"
         style="color:#000000;fill:#000000;stroke-width:0.5"
         sodipodi:nodetypes="ccccccccccsccccccccccccc"
         inkscape:connector-curvature="0" />
      <path
         d="M 96,23.75 C 94.8381,23.75 93.986,24.355 93.2949,24.9492 92.6038,25.5435 92.0404,26.108 91.5371,26.1973 91.4514,26.2125 91.2431,26.1489 90.9766,25.9844 90.71,25.8198 90.3926,25.5787 90.043,25.3438 89.3436,24.8738 88.4811,24.402 87.5605,24.6953 85.7177,25.2825 84.6641,25.4874 83.9023,25.6211 83.1406,25.7548 82.6433,25.82 81.9785,26.1289 L 81.9688,26.1348 81.9609,26.1387 C 80.0964,27.2043 78.7492,27.5401 77.6914,27.5293 76.6336,27.5185 75.8472,27.1642 75.0781,26.7852 74.3091,26.4062 73.5564,25.994 72.6133,25.9609 71.6702,25.9279 70.5745,26.2842 69.1348,27.3457 L 69.1328,27.3477 C 68.7279,27.6548 68.412,27.821 68.1855,27.8848 67.9591,27.9486 67.8357,27.9245 67.7227,27.8555 67.4966,27.7174 67.2916,27.2513 67.0859,26.6523 66.8803,26.0534 66.6528,25.3451 66.1992,24.7656 65.7457,24.1862 65.042,23.7545 64,23.75 V 24.25 C 64.7309,24.3183 65.4705,24.6448 65.8066,25.0742 66.1861,25.559 66.406,26.2107 66.6133,26.8145 66.8206,27.4182 66.9946,27.9953 67.4629,28.2812 67.697,28.4242 67.9997,28.4581 68.3223,28.3672 68.6437,28.2766 69,28.0749 69.4316,27.748 L 69.4355,27.7461 C 70.8192,26.7268 71.791,26.4328 72.5957,26.4609 73.4013,26.4891 74.0778,26.8501 74.8574,27.2344 75.6371,27.6186 76.5194,28.0174 77.6875,28.0293 78.851,28.0412 80.2852,27.6689 82.1895,26.584 82.794,26.3031 83.22,26.2484 83.9902,26.1133 84.7604,25.9781 85.8475,25.7656 87.7109,25.1719 88.393,24.9546 89.0955,25.3107 89.7637,25.7598 90.0978,25.9843 90.4135,26.2253 90.7129,26.4102 91.0123,26.595 91.3021,26.7467 91.625,26.6895 92.3853,26.5546 92.9564,25.8996 93.6211,25.3281 94.2224,24.8111 95.1483,24.3336 96,24.25 Z"
         id="rtid-path1862-0-0-6-0"
         style="color:#000000;fill:#000000;stroke-width:0.5"
         sodipodi:nodetypes="ccccccccccscccccccccccccccccccccccccccc"
         inkscape:connector-curvature="0" />
      <path
         d="M 96,24.25 C 96.7357,24.3038 97.5679,24.5312 97.9395,24.8027 98.3665,25.1148 98.6412,25.5153 98.9238,25.873 99.2064,26.2308 99.5316,26.5745 100.035,26.6016 100.539,26.6286 101.119,26.3628 101.977,25.7129 101.996,25.6979 102.01,25.6902 102.076,25.7012 102.143,25.7121 102.246,25.7524 102.365,25.8203 102.603,25.9562 102.901,26.1951 103.197,26.4453 103.494,26.6955 103.789,26.9554 104.062,27.1426 104.199,27.2362 104.33,27.3131 104.469,27.3594 104.608,27.4057 104.783,27.4238 104.934,27.3281 106.089,26.5962 106.676,25.5114 107.133,24.9941 107.247,24.8648 107.35,24.7752 107.434,24.7285 107.518,24.6818 107.574,24.6714 107.652,24.6875 107.81,24.7197 108.107,24.9393 108.518,25.5176 108.736,25.8254 108.956,26.0352 109.201,26.1504 109.446,26.2656 109.712,26.2677 109.947,26.1914 110.417,26.0388 110.798,25.6354 111.219,25.1934 112.06,24.3092 112.993,23.2607 114.338,23.3516 L 114.346,23.3535 H 114.355 C 114.989,23.3535 115.392,23.6189 116.152,23.7578 116.912,23.8967 117.971,23.8715 119.848,23.2734 L 119.949,23.2422 119.996,23.1465 C 119.996,23.1465 120.333,22.4645 120.793,21.8535 121.023,21.548 121.284,21.2625 121.525,21.0977 121.767,20.9328 121.947,20.8916 122.117,20.9707 122.152,20.987 122.174,21.0085 122.201,21.0742 122.229,21.1399 122.25,21.2458 122.258,21.375 122.274,21.6333 122.243,21.9774 122.227,22.3086 122.211,22.6398 122.193,22.9591 122.336,23.2383 122.407,23.3779 122.544,23.5052 122.715,23.5508 122.885,23.5964 123.067,23.5726 123.27,23.5039 123.917,23.2848 124.448,23.4423 125.17,23.6855 125.828,23.9073 126.936,24.2012 128,24.25 V 23.75 C 126.86,23.75 126.06,23.4591 125.33,23.2129 124.6,22.9667 123.909,22.7585 123.109,23.0293 122.963,23.079 122.878,23.0774 122.844,23.0684 122.81,23.0593 122.805,23.0558 122.781,23.0098 122.734,22.9176 122.71,22.6448 122.725,22.332 122.74,22.0193 122.778,21.6666 122.758,21.3438 122.748,21.1823 122.724,21.0271 122.662,20.8809 122.601,20.7346 122.489,20.5927 122.328,20.5176 121.96,20.3464 121.563,20.4677 121.244,20.6855 120.925,20.9034 120.641,21.2229 120.393,21.5527 119.939,22.1553 119.673,22.6992 119.619,22.8066 117.868,23.3522 116.901,23.3856 116.244,23.2656 115.576,23.1436 115.124,22.8584 114.365,22.8555 112.754,22.7504 111.684,23.9765 110.855,24.8477 110.44,25.2839 110.069,25.6271 109.793,25.7168 109.655,25.7616 109.549,25.7606 109.414,25.6973 109.279,25.634 109.113,25.4926 108.926,25.2285 108.489,24.6125 108.148,24.2783 107.752,24.1973 107.554,24.1568 107.355,24.2002 107.191,24.291 107.028,24.3818 106.892,24.5126 106.758,24.6641 106.223,25.27 105.696,26.2535 104.666,26.9062 104.686,26.8938 104.69,26.9076 104.627,26.8867 104.564,26.8658 104.462,26.8101 104.346,26.7305 104.113,26.5713 103.82,26.3182 103.52,26.0645 103.219,25.8107 102.912,25.5572 102.613,25.3867 102.464,25.3015 102.317,25.2352 102.158,25.209 102,25.1828 101.817,25.2062 101.674,25.3145 100.854,25.9363 100.355,26.1192 100.062,26.1035 99.7702,26.0878 99.5822,25.899 99.3164,25.5625 99.0506,25.226 98.7418,24.7712 98.2344,24.4004 97.7269,24.0296 97.0203,23.7544 96,23.75 Z"
         id="rtid-path1862-6-6-9-6"
         style="color:#000000;fill:#000000;stroke-width:0.5"
         sodipodi:nodetypes="cccccccccsccsccsscccsscccsccccsccccccsccccccccccccccscscccsccccccsccc"
         inkscape:connector-curvature="0" />
    </g>
  </g>
</svg>
