<?xml version="1.0" encoding="UTF-8" standalone="no"?>
<svg
   xmlns:dc="http://purl.org/dc/elements/1.1/"
   xmlns:cc="http://creativecommons.org/ns#"
   xmlns:rdf="http://www.w3.org/1999/02/22-rdf-syntax-ns#"
   xmlns:svg="http://www.w3.org/2000/svg"
   xmlns="http://www.w3.org/2000/svg"
   xmlns:xlink="http://www.w3.org/1999/xlink"
   xmlns:sodipodi="http://sodipodi.sourceforge.net/DTD/sodipodi-0.dtd"
   xmlns:inkscape="http://www.inkscape.org/namespaces/inkscape"
   height="128mm"
   id="base_svg"
   version="1.1"
   viewBox="0 0 128 128"
   width="128mm"
   sodipodi:docname="35.svg"
   inkscape:version="0.92.2 5c3e80d, 2017-08-06">
  <defs
     id="rtid-defs921">
    <mask
       id="rtid-mask4877"
       maskUnits="userSpaceOnUse">
      <g
         id="rtid-g4947"
         transform="matrix(-1,0,0,1,128,-4.0005e-4)">
        <g
           id="rtid-g4911"
           transform="matrix(1,0,0,-1,0,128)">
          <path
             d="M 0,128 H 32 V 120 C 31.38,120 26.62,120.2 22.54,121.5 18.84,122.7 15.83,125.1 14.43,125.1 11.47,124.9 4.732,121.2 4.574,118.4 4.507,117.2 4.525,109.7 5.008,106.2 5.665,101.6 8.006,96.44 8,96 H 0 Z"
             id="rtid-path4879"
             style="fill:#ffffff;stroke-width:0.5218"
             sodipodi:nodetypes="cccssssccc"
             inkscape:connector-curvature="0" />
          <path
             d="M 32,128 H 64 V 120 C 63.37,120 62.5348,119.501 58.4616,120.822 57.6462,121.087 53.0851,123.633 52.3728,123.848 49.8529,124.609 47.8579,123.411 46.7689,123.338 45.3157,123.239 42.6833,124.06 40.6367,122.795 38.5147,121.483 38.7645,118.876 38.6814,117.451 38.6403,116.748 38.826,115.034 38.9194,112.077 38.9854,109.987 36.8021,107.649 37.01,106.2 37.298,104.193 38.9905,103.502 39.5834,101.721 40.3493,99.419 40.0056,96.248 40,96 H 32 Z"
             id="rtid-path4881"
             style="fill:#ffffff;stroke-width:0.5216"
             sodipodi:nodetypes="cccssssssssccc"
             inkscape:connector-curvature="0" />
          <path
             d="M 64,128 H 96 V 120 C 95.37,120 91.0167,119.59 86.9267,120.89 83.2267,122.09 81.996,121.195 79.9891,121.168 78.1081,121.144 72.7398,124.298 70.3704,120.764 69.003,118.725 70.3083,115.281 70.4102,113.316 70.4725,112.116 70.2027,108.614 70.7046,105.115 71.0322,102.832 71.028,102.367 71.6905,100.449 72.3629,98.5019 71.9373,98.5062 72,96 H 64 Z"
             id="rtid-path4883"
             style="fill:#ffffff;stroke-width:0.5216"
             sodipodi:nodetypes="cccssssssccc"
             inkscape:connector-curvature="0" />
          <path
             d="M 96,128 H 128 V 120 C 123.914,120.068 124.104,119.518 120.772,120.239 119.947,120.417 117.077,119.886 116.263,120.144 112.555,121.32 111.461,116.762 110.061,116.762 107.161,116.562 103.886,117.878 103.786,115.078 103.686,113.878 102.298,110.848 102.83,107.352 103.133,105.36 104.139,104.395 104.336,102.372 104.595,99.7225 104,99.4127 104,96 H 96 Z"
             id="rtid-path4885"
             style="fill:#ffffff;stroke-width:0.5217"
             sodipodi:nodetypes="cccssssssccc"
             inkscape:connector-curvature="0" />
          <path
             d="M 96,96 H 128 V 88 C 125.416,88.0346 121.399,88.0757 119.125,88.6127 118.251,88.819 114.653,86.0236 113.515,86.3844 111.702,86.9593 113.004,91.5663 112.526,92.3732 112.233,92.8684 106.984,95.5382 103.976,94.7396 100.874,93.9163 99.7868,89.3613 99.4236,88.882 97.6681,86.5651 104.439,83.6879 104.339,80.8879 104.239,79.6879 102.849,77.8538 103.349,74.3438 104.049,69.7438 104,64.4 104,64 H 96 Z"
             id="rtid-path4887"
             style="fill:#ffffff;stroke-width:0.5217"
             sodipodi:nodetypes="cccsssssssccc"
             inkscape:connector-curvature="0" />
          <path
             d="M 64,96 H 96 V 87.99 C 92.1285,87.99 91.1761,87.3911 88.8645,87.7303 87.3271,87.9559 85.3516,86.8138 83.71,87.3331 80.0013,88.5061 77.4034,86.7151 76.0034,86.7151 73.1034,86.5051 66.3513,88.7107 66.2513,85.9107 66.1513,84.7107 65.7345,77.8968 66.2679,74.3917 66.4295,73.3299 66.7405,70.5305 67.9347,69.8874 68.9631,69.3335 70.857,70.9362 71.4144,70.1132 72.3279,68.7646 72,67.4875 72,64 H 64 Z"
             id="rtid-path4889"
             style="fill:#ffffff;stroke-width:0.5216"
             sodipodi:nodetypes="cccsssssssccc"
             inkscape:connector-curvature="0" />
          <path
             d="M 32,96 H 64 V 88 C 60.7041,88.0479 60.1859,87.6742 57.2152,88.2305 56.097,88.4399 53.3484,87.2752 52.2272,87.6307 48.5194,88.8063 46.1224,89.6489 44.7224,89.6489 41.8224,89.4489 43.7744,84.7591 41.1535,85.8048 37.7942,87.1452 40.6846,83.2652 36.8562,78.1304 35.6105,76.4596 38.5233,73.0762 39.1283,71.639 39.8741,69.8675 40,65.8086 40,64 H 32 Z"
             id="rtid-path4891"
             style="fill:#ffffff;stroke-width:0.5215"
             sodipodi:nodetypes="cccssssssccc"
             inkscape:connector-curvature="0" />
          <path
             d="M 0,96 H 32 V 87.99 C 29.7004,87.9421 28.6543,87.5055 25.9528,87.9619 24.643,88.1831 24.3393,90.2159 22.9972,90.6404 19.2886,91.8134 19.7267,94.2935 18.3304,94.1924 16.6926,94.0738 8.48571,94.7943 5.18068,92.9332 2.63376,91.499 1.2973,89.7543 1.25378,88.5269 1.23621,88.0315 2.60618,85.2779 2.62348,83.3745 2.63755,81.8274 4.50757,79.6457 5.22095,77.2585 5.76177,75.4487 5.169,73.317 5.29559,72.4265 5.95049,67.8199 8.007,68.5701 8.007,64 H 0 Z"
             id="rtid-path4893"
             style="fill:#ffffff;stroke-width:0.5214"
             sodipodi:nodetypes="cccssssssssccc"
             inkscape:connector-curvature="0" />
          <path
             d="M 0,64 H 32 V 55.99 C 27.146,55.99 29.1657,57.8376 25.9255,58.511 25.0184,58.6995 23.5662,56.5825 22.6738,56.8669 21.1306,57.3586 21.1718,59.5648 19.9101,60.35 18.1418,61.4505 14.9387,61.7394 14.43,61.1 8.07047,53.1068 4.729,57.19 4.569,54.39 4.53857,53.8574 5.96325,52.0823 5.99977,49.9656 6.04553,47.3123 4.73156,44.1224 4.998,42.17 5.19821,40.7029 7.44786,40.9007 7.87216,39.4878 8.77102,36.4949 7.90214,35.9829 7.998,32 H 0 Z"
             id="rtid-path4895"
             style="fill:#ffffff;stroke-width:0.5221"
             sodipodi:nodetypes="cccssssssssccc"
             inkscape:connector-curvature="0" />
          <path
             d="M 32,64 H 64 V 55.99 C 59.9129,56.0578 58.61,56.19 54.53,57.49 50.83,58.69 44.1018,60.0154 42.6918,60.0154 39.7318,59.8154 41.1839,56.1732 39.4948,53.441 38.8624,52.418 35.2829,49.0697 35.7899,45.5593 36.028,43.9102 37.897,39.9715 38.3724,39.0001 39.2144,37.2796 39.9467,35.3942 39.99,32 H 32 Z"
             id="rtid-path4897"
             style="fill:#ffffff;stroke-width:0.5221"
             sodipodi:nodetypes="cccsssssccc"
             inkscape:connector-curvature="0" />
          <path
             d="M 64,64 H 96 V 55.99 C 92.0463,55.99 90.61,56.19 86.49,57.49 82.82,58.69 76.8551,61.4823 75.4583,61.3876 72.5083,61.1876 66.5166,63.3528 66.5569,59.7584 66.5694,58.643 67.1982,55.2006 66.6709,54.0609 66.2585,53.1696 66.6682,50.1862 66.7106,49.0964 66.7814,47.2796 68.662,47.5437 69.1876,43.7491 69.5045,41.4609 71.1457,40.2351 71.3207,39.0065 71.9719,34.4352 72.01,35.1792 72.01,32 H 64 Z"
             id="rtid-path4899"
             style="fill:#ffffff;stroke-width:0.5217"
             sodipodi:nodetypes="cccsssssssccc"
             inkscape:connector-curvature="0" />
          <path
             d="M 96,64 H 128 V 55.99 C 125.552,56.4532 121.235,55.727 120.345,55.1135 119.299,54.3924 119.427,51.0764 117.585,51.6604 115.328,52.3761 111.543,52.9053 110.308,55.4112 109.515,57.0218 111.048,61.1 110.5,61.1 107.593,61.1 100.833,57.1821 100.6,54.39 100.542,53.6967 102.314,51.0324 102.4,48.1148 102.463,45.9827 99.3654,44.9399 99.5765,43.4579 99.8488,41.5464 100.665,39.3029 101.524,37.3089 102.721,34.5283 104.068,35.3511 104,32 H 96 Z"
             id="rtid-path4901"
             style="fill:#ffffff;stroke-width:0.5232"
             sodipodi:nodetypes="cccssssssssccc"
             inkscape:connector-curvature="0" />
          <path
             d="M 96,32 H 128 V 23.99 C 124.815,23.8941 124.606,26.1492 123.368,25.6023 121.982,24.9899 120.648,24.7934 118.5,25.49 117.795,25.7188 116.591,24.7008 115.948,24.9971 113.22,26.255 111.63,29.1718 110.5,29.09 109.069,28.9864 108.95,25.829 106.886,24.5551 104.766,23.2468 100.718,23.8046 100.6,22.39 100.541,21.6845 103.621,18.9024 103.71,15.938 103.772,13.8603 100.78,11.6443 101,10.2 101.255,8.52123 103.299,8.91583 103.785,7.81393 104.631,5.89519 103.97,2.75058 104,0 H 96 Z"
             id="rtid-path4903"
             style="fill:#ffffff;stroke-width:0.5231"
             sodipodi:nodetypes="cccsssssssssccc"
             inkscape:connector-curvature="0" />
          <path
             d="M 64,32 H 96 V 23.98 C 91.4941,23.98 90.5719,20.5337 88.1132,20.9126 86.6497,21.1381 86.3139,22.758 84.7654,23.2431 81.0505,24.4068 79.7864,29.1893 78.41,29.09 76.7512,28.9703 71.6452,30.7636 69.4374,29.188 67.7721,27.9996 68.4165,23.569 68.61,22.38 68.8192,21.0942 72.0459,19.3798 72.1233,16.5546 72.1834,14.3623 68.7815,11.7337 69,10.2 69.6567,5.59009 72.1456,4.87376 72.01,0 H 64 Z"
             id="rtid-path4905"
             style="fill:#ffffff;stroke-width:0.5212"
             sodipodi:nodetypes="cccsssssssccc"
             inkscape:connector-curvature="0" />
          <path
             d="M 32,32 H 64 V 24 C 59.9685,24 60.2671,24.3019 56.1746,25.6256 55.2157,25.9357 54.9161,28.7731 54.0701,29.1896 51.6429,30.3848 47.4355,29.1647 46.4,29.09 44.9106,28.9825 39.1008,30.3348 37.0013,28.9882 34.9987,27.7037 36.6713,23.7498 36.58,22.38 36.515,21.4045 34.3337,18.5164 34.6053,14.7472 34.6679,13.8795 36.5042,5.92246 37.01,5.49269 39.5946,3.29642 39.0594,1.7307 39.99,0 H 32 Z"
             id="rtid-path4907"
             style="fill:#ffffff;stroke-width:0.5217"
             sodipodi:nodetypes="cccsssssssccc"
             inkscape:connector-curvature="0" />
          <path
             d="M 0,32 H 32 V 23.98 C 30.7673,23.98 29.2577,24.6987 28.3335,25.6459 27.6117,26.3857 27.485,27.3706 26.5629,27.5666 25.5183,27.7886 23.8274,25.0485 22.46,25.48 21.0909,25.912 20.4353,27.4791 19.313,28.0823 17.3923,29.1145 15.2813,29.1538 14.4,29.09 13.6609,29.0365 13.6939,26.0443 12.6344,25.6092 11.9567,25.3309 9.74179,24.4492 9.01022,25.1595 7.94585,26.193 8.35591,29.0065 7.37477,28.7462 5.94753,28.3675 4.67985,23.3302 4.599,22.36 4.53881,21.6377 3.88971,17.632 3.98607,14.6026 4.01505,13.6915 2.7376,10.7639 4.01722,10.594 4.72238,10.5004 6.45214,13.6293 7.32115,14.1071 8.34265,14.6688 9.74739,12.6445 9.81079,12.2336 10.138,10.1127 8.90276,7.11966 9.52231,5.2736 10.2471,3.11389 7.72686,3.06261 7.998,0 H 0 Z"
             id="rtid-path4909"
             style="fill:#ffffff;stroke-width:0.5213"
             sodipodi:nodetypes="cccssssssssssssssccc"
             inkscape:connector-curvature="0" />
        </g>
        <g
           id="rtid-g4945"
           transform="rotate(180,64,64)">
          <path
             d="M 0,-0.0054 H 8.001 C 7.977,1.625 7.879,1.353 7.075,2.201 6.636,2.665 8.133,3.662 7.072,4.451 6.644,4.768 6.122,6.681 5.114,6.914 4.053,7.16 2.507,5.723 2.252,5.879 0.9546,6.676 1.496,8.033 0,7.996 Z"
             id="rtid-path4913"
             style="fill:#ffffff;stroke-width:0.5218"
             sodipodi:nodetypes="ccsssscc"
             inkscape:connector-curvature="0" />
          <path
             d="M 31.99,-0.0054 H 40 C 39.98,1.961 38.36,7.173 37.02,6.694 35.67,6.213 36.17,5.276 33.92,5.9 31.67,6.522 33.5,8.033 31.99,7.996 Z"
             id="rtid-path4915"
             style="fill:#ffffff;stroke-width:0.5218"
             sodipodi:nodetypes="cczzcc"
             inkscape:connector-curvature="0" />
          <path
             d="M 64,-0.0054 H 71.99 C 71.99,1.13 72.42,2.491 70.46,2.763 68.53,3.035 67.92,1.883 67.26,3.189 66.6,4.493 68.58,7.874 67.18,9.245 65.8,10.61 65.51,8.033 64,7.996 Z"
             id="rtid-path4917"
             style="fill:#ffffff;stroke-width:0.5218"
             sodipodi:nodetypes="cczzzcc"
             inkscape:connector-curvature="0" />
          <path
             d="M 95.99,-0.0054 H 104 C 103.9,3.345 100.6,4.858 98.5,3.919 96.33,2.982 97.5,8.033 95.99,7.996 Z"
             id="rtid-path4919"
             style="fill:#ffffff;stroke-width:0.5218"
             sodipodi:nodetypes="cczcc"
             inkscape:connector-curvature="0" />
          <path
             d="M 0,31.98 H 8.001 C 7.977,33.46 5.371,33.67 6.63,34.62 8.268,35.84 7.49,35.87 7.443,36.95 7.361,38.83 8.276,38.25 7.064,39.6 5.747,41.08 4.31,40.55 2.608,39.81 1.054,39.15 0.3768,39.99 0,39.99 Z"
             id="rtid-path4921"
             style="fill:#ffffff;stroke-width:0.5218"
             sodipodi:nodetypes="ccsssscc"
             inkscape:connector-curvature="0" />
          <path
             d="M 31.99,31.98 H 40 C 39.95,35.34 37.17,35.39 35.88,36.42 34.61,37.45 33.5,40.02 31.99,39.99 Z"
             id="rtid-path4923"
             style="fill:#ffffff;stroke-width:0.5218"
             sodipodi:nodetypes="cczcc"
             inkscape:connector-curvature="0" />
          <path
             d="M 64,31.98 H 71.99 C 71.94,35.34 75.14,33.49 73.55,35.26 71.99,37.03 65.51,40.02 64,39.99 Z"
             id="rtid-path4925"
             style="fill:#ffffff;stroke-width:0.5218"
             sodipodi:nodetypes="cczcc"
             inkscape:connector-curvature="0" />
          <path
             d="M 95.99,31.98 H 104 C 103.9,35.34 99.72,32.27 98.05,34.44 96.33,36.61 97.5,40.02 95.99,39.99 Z"
             id="rtid-path4927"
             style="fill:#ffffff;stroke-width:0.5218"
             sodipodi:nodetypes="cczcc"
             inkscape:connector-curvature="0" />
          <path
             d="M 0,63.99 H 8.001 C 7.972,65.79 5.794,64.18 4.609,65.58 3.421,66.98 3.336,65.66 2.376,67.38 1.416,69.13 4.061,69.84 2.433,70.45 0.8043,71.11 1.496,72.04 0,71.98 Z"
             id="rtid-path4929"
             style="fill:#ffffff;stroke-width:0.5218"
             sodipodi:nodetypes="cczzzcc"
             inkscape:connector-curvature="0" />
          <path
             d="M 31.99,63.99 H 40 C 39.98,64.87 40.61,65.1 39.26,66.8 37.94,68.52 37.07,66.48 36.43,68.07 35.06,71.53 35.8,70.9 34.87,71.03 33.02,71.27 33.5,72.04 31.99,71.98 Z"
             id="rtid-path4931"
             style="fill:#ffffff;stroke-width:0.5218"
             sodipodi:nodetypes="cczsscc"
             inkscape:connector-curvature="0" />
          <path
             d="M 64,63.99 H 71.99 C 71.94,67.35 71.07,69.26 69.37,70.95 67.68,72.67 65.51,72.04 64,71.98 Z"
             id="rtid-path4933"
             style="fill:#ffffff;stroke-width:0.5218"
             sodipodi:nodetypes="cczcc"
             inkscape:connector-curvature="0" />
          <path
             d="M 95.99,63.99 H 104 C 103.9,67.35 102.1,64.47 101.6,66.45 101,68.46 97.5,72.04 95.99,71.98 Z"
             id="rtid-path4935"
             style="fill:#ffffff;stroke-width:0.5218"
             sodipodi:nodetypes="cczcc"
             inkscape:connector-curvature="0" />
          <path
             d="M 0,95.98 H 8.001 C 7.948,99.34 6.879,99.87 6.765,102.4 6.654,105 1.496,104 0,104 Z"
             id="rtid-path4937"
             style="fill:#ffffff;stroke-width:0.5218"
             sodipodi:nodetypes="cczcc"
             inkscape:connector-curvature="0" />
          <path
             d="M 31.99,95.98 H 40 C 39.98,97.91 38.81,97.46 37.49,98.57 36.49,99.42 37.84,101.3 36.72,102 33.71,104.1 33.5,104 31.99,104 Z"
             id="rtid-path4939"
             style="fill:#ffffff;stroke-width:0.5218"
             sodipodi:nodetypes="ccsscc"
             inkscape:connector-curvature="0" />
          <path
             d="M 64,95.98 H 71.99 C 71.99,96.93 71.78,96.93 70.43,97.99 69.29,98.89 70.75,99.95 69.77,101 68.29,102.6 67.5,99.63 67.07,101.1 66.46,103.1 65.51,104 64,104 Z"
             id="rtid-path4941"
             style="fill:#ffffff;stroke-width:0.5218"
             sodipodi:nodetypes="ccssscc"
             inkscape:connector-curvature="0" />
          <path
             d="M 95.99,95.98 H 104 C 104,97.86 104.8,97.22 103.8,99.79 102.9,101.8 101.3,100.5 99.85,101.4 98.42,102.3 97.5,104 95.99,104 Z"
             id="rtid-path4943"
             style="fill:#ffffff;stroke-width:0.5218"
             sodipodi:nodetypes="ccszcc"
             inkscape:connector-curvature="0" />
        </g>
      </g>
    </mask>
  </defs>
  <sodipodi:namedview
     bordercolor="#666666"
     borderopacity="1"
     gridtolerance="10"
     guidetolerance="10"
     id="rtid-namedview3444"
     objecttolerance="10"
     pagecolor="#ffffff"
     showgrid="true"
     showguides="false"
     inkscape:current-layer="rtid-models_layer"
     inkscape:cx="17.416966"
     inkscape:cy="1.2703214"
     inkscape:pageopacity="0"
     inkscape:pageshadow="2"
     inkscape:window-height="1059"
     inkscape:window-maximized="0"
     inkscape:window-width="1918"
     inkscape:window-x="1"
     inkscape:window-y="20"
     inkscape:zoom="11.039996">
    <inkscape:grid
       id="rtid-grid1541"
       spacingx="32"
       spacingy="32"
       type="xygrid"
       units="mm" />
  </sodipodi:namedview>
  <metadata
     id="rtid-metadata1919">
    <rdf:RDF>
      <cc:Work
         rdf:about="">
        <dc:format>image/svg+xml</dc:format>
        <dc:type
           rdf:resource="http://purl.org/dc/dcmitype/StillImage" />
        <dc:title />
      </cc:Work>
    </rdf:RDF>
  </metadata>
  <g
     id="rtid-models_layer"
     inkscape:groupmode="layer"
     inkscape:label="Models"
     sodipodi:insensitive="true"
     style="display:none">
    <g
       id="rtid-bg_b_model">
      <rect
         height="128"
         id="rtid-rtid-rect2648-6"
         style="fill:#800000;stroke-width:2;stroke-linecap:round;stroke-linejoin:round;paint-order:markers fill stroke"
         width="128"
         x="0"
         y="0" />
      <text
         id="rtid-rtid-text2652-2"
         style="font-size:10.58329964px;line-height:1.25;font-family:sans-serif;letter-spacing:0px;word-spacing:0px;fill:#000000;stroke-width:0.26460001"
         x="12.47"
         y="19.639999"
         xml:space="preserve"><tspan
           id="rtid-rtid-tspan2650-6"
           x="12.47"
           y="19.639999"
           sodipodi:role="line">B</tspan></text>
    </g>
  </g>
  <g
     id="rtid-bg_b_layer"
     sodipodi:insensitive="true"
     inkscape:groupmode="layer"
     inkscape:label="Background B">
    <use
       height="100%"
       id="rtid-bgb30"
       mask="url(#rtid-mask4877)"
       width="100%"
       x="0"
       y="0"
       xlink:href="#rtid-bg_b_model" />
  </g>
  <g
     id="rtid-layer3"
     inkscape:groupmode="layer"
     inkscape:label="borders"
     sodipodi:insensitive="true">
    <g
       id="rtid-g4258"
       transform="matrix(-1,0,0,1,128,0)">
      <g
         id="rtid-g1931"
         transform="matrix(1,0,0,-1,0,128)">
        <path
           d="m 7.75,96 c -0.00587,0.0179 -0.0794,0.2775 -0.08594,0.2969 -0.06287,0.1867 -0.15724,0.4398 -0.27148,0.748 -0.22848,0.6164 -0.5424,1.4486 -0.87696,2.4121 -0.6691,1.927 -1.42334,4.379 -1.75585,6.707 v 0.002 c -0.4895,3.547 -0.50594,10.988 -0.43555,12.248 0.04495,0.797 0.53639,1.591 1.25781,2.357 0.72142,0.767 1.6859,1.508 2.73633,2.167 2.10084,1.316 4.52494,2.305 6.09574,2.412 h 0.0078 0.0078 c 0.8428,0 1.9229,-0.63 3.3125,-1.379 1.3891,-0.75 3.0513,-1.642 4.873,-2.233 3.8849,-1.238 8.5466,-1.473 9.3848,-1.488 v -0.5 c -0.6737,0 -5.4086,0.197 -9.5352,1.512 h -0.0019 c -1.8776,0.609 -3.5686,1.517 -4.959,2.267 -1.3879,0.749 -2.5101,1.317 -3.0684,1.319 -1.3907,-0.098 -3.8082,-1.054 -5.85152,-2.334 -1.02381,-0.642 -1.95783,-1.365 -2.63671,-2.086 -0.67889,-0.721 -1.08901,-1.438 -1.12305,-2.041 -0.06365,-1.14 -0.04486,-8.7 0.43164,-12.153 0.32446,-2.271 1.06828,-4.7 1.73242,-6.6129 0.33207,-0.9564 0.64375,-1.7838 0.87305,-2.4023 0.11465,-0.3093 0.20882,-0.566 0.27539,-0.7637 C 8.17,96.3562 8.19754,96.2727 8.2168,96.2012 8.23606,96.1296 8.25116,96.0846 8.25,96 Z"
           id="rtid-path1429-9"
           style="color:#000000;fill:#000000;stroke-width:0.5"
           sodipodi:nodetypes="ccsccccccccscccccccccccccccccc"
           inkscape:connector-curvature="0" />
        <path
           d="m 39.75,96 c 0.0089,0.1209 0.0315,0.4553 0.0449,0.6895 0.0208,0.3642 0.0397,0.8497 0.0352,1.3984 -0.009,1.0974 -0.1159,2.4471 -0.4844,3.5551 -0.277,0.832 -0.8162,1.42 -1.3555,2.074 -0.5392,0.653 -1.0752,1.379 -1.2285,2.447 -0.124,0.865 0.4155,1.821 0.9258,2.846 0.5103,1.024 1.0125,2.103 0.9824,3.058 -0.0931,2.95 -0.2835,4.626 -0.2383,5.397 0.0402,0.689 -0.003,1.719 0.2188,2.754 0.2218,1.034 0.7276,2.092 1.8555,2.789 1.0846,0.67 2.3097,0.781 3.4277,0.746 1.118,-0.036 2.1488,-0.212 2.8184,-0.166 0.4636,0.031 1.2531,0.344 2.2265,0.562 0.9735,0.219 2.1547,0.334 3.4668,-0.062 0.2381,-0.072 0.6346,-0.269 1.1777,-0.543 0.5432,-0.274 1.2055,-0.621 1.8711,-0.969 0.6656,-0.348 1.3341,-0.698 1.8848,-0.976 0.5508,-0.278 1.0031,-0.488 1.1602,-0.539 2.0231,-0.657 3.2292,-0.856 3.9961,-0.895 0.636,-0.032 1.1544,0.056 1.4648,0.084 v -0.5 c -0.249,0 -0.6636,-0.126 -1.4902,-0.084 -0.8266,0.042 -2.0748,0.253 -4.125,0.918 -0.2505,0.081 -0.6745,0.288 -1.2305,0.568 -0.556,0.281 -1.225,0.633 -1.8906,0.981 -0.6657,0.348 -1.3293,0.693 -1.8672,0.965 -0.5379,0.271 -0.9777,0.476 -1.0957,0.511 -1.2077,0.365 -2.2846,0.261 -3.211,0.053 -0.9263,-0.208 -1.6793,-0.532 -2.3046,-0.574 -0.7836,-0.053 -1.7942,0.132 -2.8672,0.166 -1.0731,0.034 -2.1885,-0.077 -3.1504,-0.672 -0.9944,-0.615 -1.4244,-1.515 -1.6289,-2.469 -0.2045,-0.953 -0.1642,-1.942 -0.2071,-2.677 -0.0373,-0.636 0.1447,-2.388 0.2383,-5.352 0.0358,-1.135 -0.5223,-2.267 -1.0351,-3.297 -0.5129,-1.029 -0.9607,-1.967 -0.877,-2.551 0.1349,-0.939 0.5899,-1.562 1.1172,-2.201 0.5273,-0.639 1.1294,-1.285 1.4453,-2.234 0.3972,-1.195 0.5006,-2.5836 0.5098,-3.7092 C 40.3347,97.529 40.3162,97.0321 40.2949,96.6602 40.2737,96.2882 40.2504,96.0161 40.25,96 Z"
           id="rtid-path1429-3-7"
           style="color:#000000;fill:#000000;stroke-width:0.5"
           sodipodi:nodetypes="ccscccccccccccccscccccsccccccccccccccscsccc"
           inkscape:connector-curvature="0" />
        <path
           d="m 96,119.75 c -0.1304,0 -0.5351,-0.025 -1.0996,-0.043 -0.5645,-0.018 -1.302,-0.03 -2.1484,0 -1.693,0.061 -3.8238,0.285 -5.9004,0.945 h -0.002 c -3.6497,1.184 -4.7776,0.294 -6.8574,0.266 -0.5416,-0.007 -1.2305,0.196 -2.0371,0.434 -0.8067,0.237 -1.7191,0.517 -2.6367,0.685 -0.9177,0.168 -1.837,0.223 -2.6524,0.033 -0.8154,-0.19 -1.5294,-0.612 -2.0879,-1.445 -0.6269,-0.935 -0.6556,-2.243 -0.4902,-3.582 0.1654,-1.339 0.5189,-2.685 0.5723,-3.715 0.0328,-0.631 -0.0207,-1.793 -0.0176,-3.25 0.003,-1.457 0.0602,-3.196 0.3086,-4.928 0.3283,-2.288 0.3163,-2.713 0.9746,-4.619 0.3416,-0.9886 0.4135,-1.5254 0.3984,-2.1033 C 72.3091,97.8498 72.219,97.2389 72.25,96 h -0.5 c -0.0072,1.0234 0.0617,1.9639 0.0742,2.4414 0.0139,0.5333 -0.0401,0.9676 -0.3711,1.9256 -0.6667,1.93 -0.6692,2.435 -0.9961,4.713 -0.2535,1.767 -0.3113,3.527 -0.3144,4.996 -0.0031,1.469 0.0472,2.658 0.0176,3.227 -0.0485,0.935 -0.3976,2.296 -0.5684,3.679 -0.1708,1.384 -0.1701,2.816 0.5703,3.92 0.6263,0.934 1.4723,1.443 2.3887,1.657 0.9163,0.213 1.9017,0.144 2.8574,-0.032 0.9557,-0.175 1.8845,-0.458 2.6875,-0.695 0.803,-0.237 1.4918,-0.419 1.8906,-0.414 1.934,0.026 3.2675,0.925 7.0176,-0.291 l -0.0019,0.002 c 2.0133,-0.64 4.1038,-0.862 5.7675,-0.922 0.8319,-0.03 1.5565,-0.018 2.1133,0 0.4322,0.014 0.9081,0.036 1.1172,0.043 z"
           id="rtid-path1429-3-6-3"
           style="color:#000000;fill:#000000;stroke-width:0.5"
           sodipodi:nodetypes="csccccccscsccccscccccscccccsccccccc"
           inkscape:connector-curvature="0" />
        <path
           d="m 128,119.75 c -2.032,0.034 -2.99,-0.085 -3.885,-0.125 -0.894,-0.04 -1.718,0.006 -3.396,0.369 -0.152,0.033 -0.481,0.04 -0.871,0.02 -0.391,-0.021 -0.851,-0.063 -1.313,-0.102 -0.462,-0.039 -0.927,-0.077 -1.334,-0.088 -0.406,-0.011 -0.746,-0.002 -1.013,0.082 -0.88,0.279 -1.573,0.216 -2.168,-0.025 -0.596,-0.242 -1.097,-0.674 -1.54,-1.156 -0.442,-0.482 -0.823,-1.011 -1.193,-1.434 -0.37,-0.423 -0.741,-0.779 -1.226,-0.779 -1.489,-0.1 -3.036,0.177 -4.178,0.133 -0.573,-0.023 -1.03,-0.127 -1.332,-0.352 -0.302,-0.225 -0.493,-0.574 -0.516,-1.225 v -0.006 -0.005 c -0.056,-0.678 -0.431,-1.705 -0.721,-3.034 -0.289,-1.328 -0.495,-2.929 -0.236,-4.634 0.146,-0.962 0.46,-1.673 0.776,-2.418 0.315,-0.746 0.628,-1.526 0.73,-2.575 0.131,-1.344 0.047,-2.12 -0.07,-2.9585 C 104.397,98.5986 104.25,97.6918 104.25,96 h -0.5 c 0.019,1.4996 0.16,2.7336 0.268,3.5059 0.115,0.8311 0.197,1.5361 0.07,2.8421 -0.095,0.974 -0.383,1.687 -0.695,2.427 -0.313,0.741 -0.654,1.509 -0.811,2.539 -0.272,1.791 -0.052,3.454 0.244,4.815 0.297,1.361 0.668,2.449 0.711,2.971 v -0.012 c 0.027,0.749 0.284,1.286 0.715,1.607 0.431,0.322 0.991,0.426 1.611,0.45 1.241,0.047 2.774,-0.23 4.18,-0.133 h 0.01 0.008 c 0.214,0 0.504,0.214 0.849,0.609 0.345,0.395 0.734,0.931 1.203,1.441 0.469,0.511 1.023,0.999 1.719,1.282 0.696,0.282 1.531,0.348 2.506,0.039 0.14,-0.044 0.463,-0.069 0.85,-0.059 0.386,0.011 0.844,0.047 1.304,0.086 0.46,0.039 0.923,0.081 1.328,0.102 0.405,0.021 0.744,0.027 1.004,-0.03 1.654,-0.358 2.403,-0.395 3.268,-0.357 0.809,0.036 2.112,0.139 3.908,0.125 z"
           id="rtid-path1429-3-6-7-6"
           style="color:#000000;fill:#000000;stroke-width:0.5"
           sodipodi:nodetypes="ccccsccccsccscccccccccccccccccccccssccccsscccc"
           inkscape:connector-curvature="0" />
        <path
           d="m 103.75,64 c 0.002,0.7276 0.023,5.8956 -0.648,10.3066 v 0.002 c -0.256,1.793 -0.027,3.1727 0.277,4.2422 0.303,1.066 0.664,1.8347 0.709,2.3496 0.02,0.5969 -0.337,1.2518 -0.912,1.9297 -0.576,0.6792 -1.353,1.3705 -2.086,2.0527 -0.734,0.6822 -1.4243,1.3525 -1.838,2.0371 -0.2069,0.3423 -0.3472,0.6931 -0.3672,1.0547 -0.0201,0.3616 0.0895,0.7282 0.3398,1.0586 0.006,0.0079 0.072,0.1314 0.1406,0.2988 0.0687,0.1674 0.1525,0.3892 0.2539,0.6446 0.2029,0.5106 0.4739,1.1595 0.8339,1.8242 0.72,1.3293 1.805,2.7405 3.459,3.1797 1.606,0.4262 3.696,-0.0673 5.443,-0.7051 0.874,-0.3189 1.661,-0.6768 2.252,-0.9902 0.296,-0.1568 0.543,-0.3019 0.731,-0.4278 0.188,-0.1259 0.307,-0.1971 0.402,-0.3574 0.099,-0.1671 0.126,-0.3547 0.141,-0.5762 0.015,-0.2215 0.009,-0.4762 -0.004,-0.7578 -0.027,-0.5631 -0.088,-1.229 -0.107,-1.8808 -0.02,-0.6519 0.006,-1.2899 0.134,-1.7715 0.129,-0.4817 0.333,-0.7786 0.686,-0.8907 0.16,-0.0505 0.572,0.0163 1.064,0.2168 0.493,0.2006 1.071,0.5074 1.645,0.8204 0.574,0.3129 1.142,0.6338 1.633,0.8671 0.245,0.1167 0.471,0.2115 0.675,0.2735 0.204,0.062 0.385,0.0994 0.575,0.0547 2.151,-0.5079 6.23,-0.5709 8.818,-0.6055 v -0.5 c -2.583,0.0344 -6.596,0.0678 -8.932,0.6191 -0.029,0.0069 -0.152,0.0031 -0.316,-0.0468 -0.164,-0.05 -0.373,-0.1374 -0.606,-0.2481 -0.465,-0.2214 -1.03,-0.5385 -1.607,-0.8535 -0.577,-0.315 -1.166,-0.6281 -1.695,-0.8437 -0.53,-0.2157 -0.995,-0.3602 -1.405,-0.2305 -0.553,0.1754 -0.865,0.6692 -1.017,1.2383 -0.152,0.5691 -0.172,1.2413 -0.152,1.914 0.019,0.6727 0.081,1.3451 0.107,1.8907 0.013,0.2727 0.018,0.514 0.006,0.7011 -0.013,0.1871 -0.052,0.321 -0.072,0.3555 0.021,-0.0365 -0.085,0.0835 -0.252,0.1953 -0.167,0.1118 -0.401,0.2516 -0.686,0.4024 -0.569,0.3014 -1.338,0.6523 -2.189,0.9628 -1.702,0.6212 -3.741,1.0637 -5.143,0.6914 -1.448,-0.3842 -2.459,-1.6617 -3.148,-2.9355 -0.345,-0.6369 -0.609,-1.2675 -0.809,-1.7715 -0.1001,-0.252 -0.1834,-0.4718 -0.2559,-0.6484 -0.0724,-0.1767 -0.1202,-0.3002 -0.2051,-0.4121 -0.1885,-0.2489 -0.2521,-0.4784 -0.2382,-0.7285 0.0138,-0.2502 0.1154,-0.5273 0.2949,-0.8243 0.3593,-0.594 1.0243,-1.251 1.7523,-1.9277 0.727,-0.6767 1.514,-1.3756 2.125,-2.0957 0.61,-0.7201 1.06,-1.4733 1.031,-2.2754 V 80.873 80.8672 c -0.057,-0.685 -0.437,-1.4281 -0.729,-2.4531 -0.291,-1.0246 -0.507,-2.3174 -0.263,-4.0332 v -0.002 C 104.3,69.7492 104.25,64.3795 104.25,64 Z"
           id="rtid-path1429-3-6-7-5-1"
           style="color:#000000;fill:#000000;stroke-width:0.5"
           sodipodi:nodetypes="ccccccccccccccccscscccccccsccccccsccsccccsccccccccccccccccccc"
           inkscape:connector-curvature="0" />
        <path
           d="m 71.75,64 c 0.0091,1.5714 0.0802,3.0066 0.0508,3.8496 -0.0315,0.9016 -0.1655,1.4906 -0.5938,2.1231 -0.0813,0.12 -0.1758,0.1465 -0.4023,0.125 -0.2265,-0.0216 -0.5386,-0.1187 -0.8731,-0.2325 -0.3344,-0.1137 -0.6932,-0.242 -1.0527,-0.3066 -0.3595,-0.0646 -0.7329,-0.0682 -1.0625,0.1094 -0.7224,0.3889 -1.0902,1.3135 -1.3437,2.25 -0.2536,0.9365 -0.3718,1.9133 -0.4512,2.4355 -0.5429,3.5676 -0.1219,10.334 -0.0195,11.5664 0.0143,0.4008 0.1568,0.7426 0.3984,0.9942 0.2416,0.2515 0.5685,0.4126 0.9434,0.5156 0.7497,0.206 1.7106,0.1921 2.7539,0.1035 2.0864,-0.1771 4.5154,-0.6677 5.8886,-0.5684 h 0.0078 0.0098 c 0.5933,0 1.6161,0.4351 2.9297,0.7422 1.3136,0.3071 2.9464,0.4678 4.8516,-0.1347 0.7431,-0.2351 1.6039,-0.0972 2.4882,0.0937 0.8844,0.191 1.7831,0.4364 2.627,0.3125 1.13,-0.1658 1.9125,-0.1031 2.9199,0.0039 0.9472,0.1006 2.4274,0.2512 4.1797,0.2676 v -0.5 c -1.923,0 -3.1125,-0.1579 -4.127,-0.2656 -1.0144,-0.1077 -1.8632,-0.1754 -3.0449,-0.002 -0.6935,0.1018 -1.5511,-0.1108 -2.4492,-0.3047 -0.8981,-0.1939 -1.8455,-0.3682 -2.7441,-0.0839 -1.8035,0.5703 -3.3254,0.422 -4.5879,0.1269 -1.26,-0.2946 -2.2315,-0.7521 -3.0371,-0.7539 -1.5273,-0.1078 -3.9177,0.3956 -5.9532,0.5684 -1.0197,0.0865 -1.9451,0.0866 -2.58,-0.0879 C 67.1591,86.86 66.9179,86.731 66.7598,86.5664 66.6016,86.4018 66.5126,86.2016 66.502,85.9023 V 85.8965 L 66.5,85.8906 c -0.0983,-1.1791 -0.5076,-8.0227 0.0156,-11.4609 0.082,-0.5395 0.1986,-1.4914 0.4395,-2.3809 0.2408,-0.8894 0.626,-1.6874 1.0976,-1.9414 0.1846,-0.0994 0.4341,-0.1109 0.7364,-0.0566 0.3022,0.0543 0.6451,0.1723 0.9824,0.2871 0.3373,0.1147 0.6668,0.2276 0.9844,0.2578 0.3175,0.0302 0.6678,-0.0505 0.8652,-0.3418 0.485,-0.7161 0.6447,-1.4407 0.6777,-2.3867 C 72.3318,66.9211 72.25,65.7359 72.25,64 Z"
           id="rtid-path1429-3-6-7-5-3-2"
           style="color:#000000;fill:#000000;stroke-width:0.5"
           sodipodi:nodetypes="cccccscccccccccssccccccccsccccccccccccccccccc"
           inkscape:connector-curvature="0" />
        <path
           d="m 39.75,64 c -0.0041,0.9064 -0.0406,2.456 -0.1562,3.8125 -0.1239,1.4517 -0.3471,2.9029 -0.6954,3.7305 -0.2745,0.6512 -1.1623,1.8818 -1.8222,3.1386 -0.3302,0.6288 -0.6057,1.269 -0.7207,1.8848 -0.1151,0.6158 -0.0627,1.2254 0.3007,1.7129 1.8782,2.519 2.099,4.6977 2.2754,6.1465 0.0882,0.7244 0.1304,1.2888 0.4961,1.6465 0.1829,0.1788 0.4495,0.2624 0.7461,0.248 0.2967,-0.0144 0.6388,-0.1102 1.0723,-0.2832 0.3027,-0.1208 0.5185,-0.1488 0.6601,-0.1289 0.1417,0.0199 0.2229,0.0743 0.3067,0.1816 0.1676,0.2147 0.2739,0.6831 0.375,1.2168 0.1011,0.5338 0.2085,1.1316 0.5059,1.6368 0.2973,0.5051 0.8174,0.9003 1.6113,0.955 h 0.0097 0.0079 c 1.5002,0 3.8757,-0.8548 7.58,-2.0293 0.4296,-0.1362 1.3992,0.0301 2.3633,0.25 0.9642,0.2199 1.9177,0.4843 2.5957,0.3575 1.4727,-0.2759 2.3173,-0.3205 3.2188,-0.3028 0.8364,0.0164 2.0711,0.0852 3.5195,0.0762 v -0.5 c -1.6384,0.0238 -2.5854,-0.058 -3.5098,-0.0762 -0.9243,-0.0181 -1.8225,0.03 -3.3203,0.3106 -0.4404,0.0824 -1.4225,-0.1304 -2.3926,-0.3516 -0.97,-0.2212 -1.9332,-0.4596 -2.625,-0.2402 -3.7043,1.1745 -6.1187,2.001 -7.4199,2.0039 -0.648,-0.0477 -0.9743,-0.3117 -1.207,-0.707 -0.2342,-0.3978 -0.3463,-0.9436 -0.4473,-1.4766 -0.1009,-0.533 -0.1785,-1.0529 -0.4726,-1.4297 -0.1471,-0.1884 -0.3663,-0.3319 -0.6309,-0.3691 -0.2645,-0.0372 -0.5615,0.0175 -0.9141,0.1582 -0.4063,0.1621 -0.7088,0.2381 -0.9121,0.248 -0.2032,0.0099 -0.2927,-0.0288 -0.3711,-0.1055 -0.1567,-0.1533 -0.26,-0.6297 -0.3476,-1.3496 -0.1753,-1.4398 -0.4227,-3.769 -2.3731,-6.3847 -0.2593,-0.3479 -0.3106,-0.787 -0.2109,-1.3203 0.0997,-0.5334 0.3558,-1.1405 0.6738,-1.7461 0.636,-1.2112 1.5089,-2.3916 1.8399,-3.1778 0.3973,-0.944 0.6088,-2.4081 0.7344,-3.8808 C 40.2193,66.3827 40.25,64.9102 40.25,64 Z"
           id="rtid-path1429-3-6-7-5-3-5-93"
           style="color:#000000;fill:#000000;stroke-width:0.5"
           sodipodi:nodetypes="ccccccscccccccccscccccccccccccccccccccscccc"
           inkscape:connector-curvature="0" />
        <path
           d="m 7.75,64 c -0.04455,2.0095 -0.50495,3.1644 -1.06641,4.0684 -0.59076,0.9511 -1.3019,1.981 -1.63476,4.3222 -0.07485,0.5267 0.05132,1.266 0.11523,2.125 0.06392,0.859 0.07194,1.8168 -0.18359,2.6719 -0.34551,1.1561 -0.98076,2.2856 -1.54102,3.3262 -0.56026,1.0405 -1.05846,1.9842 -1.0664,2.8574 -0.00812,0.8929 -0.34393,2.0452 -0.6836,3.0254 -0.16983,0.4901 -0.33901,0.9388 -0.46679,1.3008 -0.06389,0.1809 -0.11776,0.3407 -0.15625,0.4765 -0.03849,0.1359 -0.066886,0.2378 -0.0625,0.3614 0.04964,1.4001 1.46483,3.1567 4.05468,4.6152 1.74164,0.9807 4.63358,1.2487 7.31641,1.3164 1.3414,0.0338 2.6274,0.012 3.6797,-0.0098 1.0523,-0.0218 1.8815,-0.0428 2.2578,-0.0156 0.4216,0.0305 0.7577,-0.1608 1,-0.4297 0.2423,-0.2689 0.4327,-0.6083 0.6895,-0.9746 0.5134,-0.7325 1.267,-1.5879 3.0703,-2.1582 0.7753,-0.2452 1.2151,-0.9249 1.6211,-1.5117 0.4059,-0.5868 0.7667,-1.068 1.3007,-1.1582 C 28.5462,87.7778 29.872,88.1744 32,88.25 v -0.5 c -2.2695,-0.0472 -3.35,-0.4977 -6.0879,-0.0352 -0.7758,0.1311 -1.222,0.7762 -1.6309,1.3672 -0.4088,0.5911 -0.7925,1.1411 -1.3593,1.3203 -1.9053,0.6026 -2.7864,1.5721 -3.3301,2.3477 -0.2718,0.3878 -0.4663,0.7234 -0.6504,0.9277 -0.1841,0.2044 -0.3172,0.2857 -0.5937,0.2657 -0.4427,-0.0321 -1.2523,-0.0081 -2.3028,0.0136 -1.0504,0.0218 -2.33,0.0433 -3.6582,0.0098 C 9.7304,93.8998 6.86615,93.5952 5.30273,92.7148 2.79877,91.3047 1.5413,89.5722 1.50391,88.5176 c -1e-5,-3e-4 0.00983,-0.092 0.04297,-0.209 0.03313,-0.117 0.08414,-0.2687 0.14648,-0.4453 C 1.81805,87.5101 1.98948,87.0587 2.16211,86.5605 2.50736,85.5642 2.86386,84.3876 2.87305,83.377 2.87918,82.7031 3.32425,81.7838 3.88086,80.75 4.43747,79.7162 5.09308,78.561 5.46094,77.3301 5.74624,76.3754 5.72773,75.3604 5.66211,74.4785 5.59649,73.5966 5.49124,72.8249 5.54297,72.4609 5.86503,70.1956 6.50816,69.3 7.10938,68.332 7.71059,67.3641 8.25,66.3225 8.25,64 Z"
           id="rtid-path1429-3-6-7-5-3-5-6-1"
           style="color:#000000;fill:#000000;stroke-width:0.5"
           sodipodi:nodetypes="ccccccsccccccscscccccccccccccsccccccscscccc"
           inkscape:connector-curvature="0" />
        <path
           d="m 32,55.75 c -1.2294,0 -2.0383,0.1059 -2.6211,0.3027 -0.5828,0.1969 -0.936,0.4856 -1.2051,0.7754 -0.538,0.5797 -0.7334,1.1122 -2.2988,1.4375 -0.1225,0.0255 -0.3311,-0.0318 -0.5859,-0.1855 -0.2549,-0.1538 -0.5432,-0.3874 -0.8379,-0.6231 -0.2947,-0.2356 -0.5961,-0.474 -0.8985,-0.6445 -0.3024,-0.1705 -0.6278,-0.2879 -0.955,-0.1836 -0.8753,0.279 -1.2921,1.0415 -1.6368,1.7617 -0.3446,0.7203 -0.6429,1.4116 -1.1836,1.7481 -0.835,0.5196 -2.0538,0.8639 -3.1093,0.9902 -0.5278,0.0632 -1.0151,0.0718 -1.3868,0.0293 C 14.9096,61.1157 14.6669,60.996 14.625,60.9434 11.419,56.9139 8.92012,55.8905 7.22266,55.5527 6.37392,55.3839 5.72751,55.3733 5.35742,55.2578 5.17238,55.2 5.06488,55.1307 4.98242,55.0117 4.89997,54.8927 4.83685,54.6985 4.81836,54.375 4.81754,54.3607 4.87363,54.1459 5,53.8789 5.12637,53.6119 5.30479,53.2711 5.48633,52.877 5.84941,52.0886 6.2308,51.0821 6.25,49.9688 6.27363,48.5992 5.9494,47.126 5.66016,45.7539 5.37091,44.3818 5.12279,43.1066 5.24609,42.2031 5.28756,41.8992 5.42205,41.7032 5.63477,41.5215 5.84748,41.3398 6.14263,41.1876 6.46094,41.0332 7.09755,40.7245 7.86324,40.3847 8.11133,39.5586 8.56827,38.0372 8.57861,37.1064 8.48438,36.0918 8.39014,35.0772 8.20251,33.9729 8.25,32 h -0.5 c -0.01831,1.7885 0.15046,3.2142 0.23633,4.1387 0.09152,0.9853 0.08839,1.806 -0.35352,3.2773 -0.17622,0.5868 -0.74629,0.8555 -1.39062,1.168 -0.32217,0.1562 -0.65494,0.3186 -0.9336,0.5566 -0.27866,0.2381 -0.49995,0.5665 -0.55859,0.9961 -0.14313,1.0488 0.13219,2.3446 0.42188,3.7188 0.28968,1.3742 0.60026,2.8218 0.57812,4.1054 -0.01731,1.0036 -0.36797,1.9455 -0.71875,2.7071 -0.17539,0.3808 -0.34908,0.7143 -0.48242,0.9961 -0.13334,0.2817 -0.24291,0.4882 -0.22852,0.7402 0.02151,0.3765 0.09621,0.6678 0.25196,0.8926 0.15574,0.2248 0.38663,0.3594 0.63671,0.4375 0.50018,0.1561 1.11445,0.1491 1.91602,0.3086 1.60315,0.3189 3.9558,1.2492 7.1094,5.2129 0.2124,0.267 0.5629,0.3515 0.9902,0.4003 0.4273,0.0489 0.9443,0.0355 1.502,-0.0312 1.1152,-0.1334 2.3831,-0.4817 3.3164,-1.0625 0.721,-0.4487 1.0331,-1.2549 1.3691,-1.957 0.336,-0.7021 0.6699,-1.2871 1.3379,-1.5 0.1189,-0.0379 0.3094,0.002 0.5586,0.1425 0.2492,0.1406 0.5368,0.3651 0.8301,0.5997 0.2933,0.2345 0.5921,0.4789 0.8925,0.6601 0.3005,0.1813 0.6143,0.3169 0.9454,0.2481 1.6748,-0.3481 2.0888,-1.0755 2.5644,-1.5879 0.2378,-0.2562 0.4931,-0.472 0.9981,-0.6426 C 29.9927,56.3721 31.0025,56.2706 32,56.25 Z"
           id="rtid-path1429-2-9"
           style="color:#000000;fill:#000000;stroke-width:0.5"
           sodipodi:nodetypes="ccccccsccccccccccsccccccccccccccccsscccccccccscccccsccc"
           inkscape:connector-curvature="0" />
        <path
           d="m 39.75,32 c -0.0814,3.1631 -0.7923,5.2367 -1.6016,6.8906 -0.2394,0.4893 -0.8275,1.7184 -1.3867,3.0371 -0.5592,1.3188 -1.0905,2.7074 -1.2187,3.5957 -0.267,1.8487 0.5366,3.6171 1.4629,5.045 0.4631,0.7139 0.9603,1.3462 1.3789,1.8613 0.4186,0.5151 0.7637,0.9246 0.8984,1.1426 0.8016,1.2965 0.8652,2.8447 1.0879,4.1484 0.1113,0.6518 0.2614,1.2487 0.6094,1.7168 0.348,0.4681 0.903,0.7746 1.6953,0.8281 h 0.0078 0.0078 c 0.3917,0 1.073,-0.0847 1.9648,-0.2285 0.8919,-0.1438 1.9831,-0.3485 3.1465,-0.5898 2.3264,-0.4825 4.9363,-1.1135 6.8028,-1.7188 3.96,-1.2617 5.5671,-1.409 9.3945,-1.4785 v -0.5 c -4.0916,0.0678 -5.455,0.1989 -9.5449,1.502 h -0.002 c -1.8333,0.5946 -4.4372,1.225 -6.7519,1.705 -1.1574,0.2401 -2.2431,0.4438 -3.125,0.586 -0.8755,0.1411 -1.5546,0.2195 -1.8711,0.2207 -0.6838,-0.0474 -1.06,-0.2696 -1.3242,-0.625 -0.265,-0.3565 -0.4108,-0.8787 -0.5176,-1.5039 -0.2136,-1.2505 -0.2687,-2.8906 -1.1563,-4.3262 -0.1815,-0.2937 -0.5209,-0.6852 -0.9355,-1.1953 -0.4146,-0.5102 -0.8983,-1.1266 -1.3457,-1.8164 -0.8949,-1.3797 -1.6286,-3.0396 -1.3887,-4.7012 0.1099,-0.7609 0.6319,-2.1669 1.1856,-3.4727 0.5537,-1.3057 1.139,-2.5316 1.375,-3.0136 C 39.4461,37.3754 40.2065,35.4289 40.25,32 Z"
           id="rtid-path1429-3-9-4"
           style="color:#000000;fill:#000000;stroke-width:0.5"
           sodipodi:nodetypes="cccccsccsccscccccccccccccccccccc"
           inkscape:connector-curvature="0" />
        <path
           d="m 71.75,32 c -0.0032,2.801 -0.0472,2.5586 -0.6758,6.9707 -0.0738,0.5178 -0.5011,1.122 -0.9785,1.877 -0.4774,0.7549 -0.9906,1.671 -1.1562,2.8671 -0.2572,1.8565 -0.8222,2.6696 -1.3516,3.2872 -0.2647,0.3087 -0.5286,0.5682 -0.7422,0.8867 -0.2136,0.3185 -0.3654,0.6998 -0.3848,1.1972 -0.0204,0.5226 -0.1327,1.55 -0.1894,2.5528 -0.0284,0.5014 -0.043,0.9993 -0.0235,1.4355 0.0196,0.4362 0.0633,0.8064 0.1954,1.0918 0.2074,0.4483 0.2151,1.5997 0.123,2.7324 -0.0921,1.1328 -0.2531,2.2556 -0.2598,2.8575 -0.0109,0.9677 0.4244,1.628 1.0957,1.9687 0.6713,0.3407 1.5431,0.4053 2.4922,0.3711 1.8984,-0.0684 4.144,-0.5541 5.5469,-0.459 0.4439,0.0301 1.0705,-0.1419 1.8926,-0.4121 0.8221,-0.2702 1.815,-0.6496 2.8789,-1.0684 2.1264,-0.8369 4.5333,-1.8329 6.3516,-2.4277 l 0.0039,-0.0019 C 90.5648,56.4658 92.2928,56.2606 96,56.25 v -0.5 c -3.9621,0 -5.4573,0.1992 -9.5859,1.502 h -0.002 c -1.8515,0.6054 -4.2614,1.6044 -6.3828,2.4394 -1.0607,0.4175 -2.0477,0.7944 -2.8516,1.0586 -0.8038,0.2642 -1.4486,0.4059 -1.7031,0.3887 -1.5472,-0.105 -3.7727,0.3913 -5.5976,0.457 -0.9125,0.0329 -1.7151,-0.0479 -2.2481,-0.3184 -0.533,-0.2704 -0.8316,-0.6861 -0.8223,-1.5156 0.0058,-0.5136 0.1661,-1.67 0.2598,-2.8222 0.0937,-1.1523 0.1519,-2.2932 -0.168,-2.9844 -0.0741,-0.1603 -0.134,-0.4964 -0.1523,-0.9043 -0.0183,-0.408 -0.0044,-0.8907 0.0234,-1.3828 0.0557,-0.9843 0.1693,-1.9952 0.1914,-2.5625 0.016,-0.4109 0.1255,-0.676 0.3008,-0.9375 0.1754,-0.2615 0.4271,-0.5152 0.7071,-0.8418 0.5599,-0.6532 1.1982,-1.6047 1.4667,-3.543 0.1512,-1.092 0.6179,-1.9328 1.084,-2.6699 0.4662,-0.7372 0.9476,-1.3614 1.0489,-2.0723 C 72.2188,34.4749 72.25,35.1813 72.25,32 Z"
           id="rtid-path1429-3-6-1-7"
           style="color:#000000;fill:#000000;stroke-width:0.5"
           sodipodi:nodetypes="cccccsccccccsccscccccccsccccccccccccccccc"
           inkscape:connector-curvature="0" />
        <path
           d="m 103.75,32 c -0.01,1.3903 -0.281,2.2117 -0.703,2.707 -0.454,0.5321 -1.137,1.0722 -1.752,2.502 -0.863,2.0036 -1.6884,4.2596 -1.9669,6.2129 -0.0653,0.4591 0.13,0.874 0.4102,1.2402 0.2797,0.3662 0.6537,0.7069 1.0217,1.0606 0.735,0.7073 1.418,1.4408 1.39,2.3847 -0.041,1.4105 -0.495,2.7804 -0.937,3.8867 -0.221,0.5532 -0.438,1.0397 -0.6,1.4395 -0.162,0.3998 -0.286,0.6846 -0.261,0.9766 0.066,0.7929 0.57,1.5954 1.302,2.3769 0.732,0.7816 1.703,1.542 2.758,2.2149 2.11,1.3456 4.522,2.3476 6.088,2.3476 0.112,0 0.238,-0.0782 0.291,-0.1621 0.053,-0.0839 0.066,-0.162 0.074,-0.2402 0.017,-0.1565 0.001,-0.3311 -0.027,-0.543 -0.057,-0.4238 -0.172,-0.9818 -0.279,-1.5879 -0.215,-1.2122 -0.357,-2.6219 -0.026,-3.2949 0.576,-1.1684 1.765,-1.8992 3.121,-2.4238 1.356,-0.5247 2.856,-0.8346 4.006,-1.1993 0.396,-0.1256 0.609,-0.0525 0.819,0.1387 0.209,0.1912 0.393,0.5411 0.552,0.9512 0.16,0.4101 0.299,0.8737 0.469,1.2929 0.17,0.4193 0.366,0.8047 0.703,1.0372 0.281,0.1939 0.726,0.3476 1.307,0.498 0.58,0.1504 1.288,0.2854 2.045,0.3867 1.414,0.1893 3.205,0.2343 4.445,0.0469 v -0.5 c -1.174,0.2223 -2.9,0.1551 -4.379,-0.043 -0.739,-0.099 -1.431,-0.2311 -1.986,-0.375 -0.556,-0.1438 -0.985,-0.3109 -1.149,-0.4238 -0.185,-0.1281 -0.366,-0.4274 -0.523,-0.8144 -0.157,-0.3871 -0.297,-0.8511 -0.467,-1.2872 -0.169,-0.436 -0.365,-0.8498 -0.682,-1.1386 -0.317,-0.2889 -0.78,-0.4124 -1.304,-0.2461 -1.107,0.351 -2.628,0.6636 -4.037,1.209 -1.41,0.5453 -2.73,1.3324 -3.389,2.6699 -0.462,0.9376 -0.235,2.3721 -0.018,3.6015 0.109,0.6148 0.224,1.1772 0.276,1.5684 0.021,0.1596 0.023,0.2624 0.021,0.3457 -1.36,-0.0479 -3.679,-0.957 -5.681,-2.2344 -1.028,-0.6556 -1.971,-1.3984 -2.662,-2.1367 -0.692,-0.7383 -1.12,-1.4732 -1.17,-2.0762 -0.005,-0.0547 0.07,-0.362 0.226,-0.748 0.157,-0.386 0.376,-0.8771 0.602,-1.4414 0.451,-1.1286 0.928,-2.5515 0.972,-4.0586 0.035,-1.1881 -0.799,-2.0402 -1.545,-2.7578 -0.372,-0.3588 -0.729,-0.6911 -0.968,-1.0039 -0.2396,-0.3129 -0.3529,-0.5852 -0.3128,-0.8672 0.2668,-1.8693 1.0748,-4.0998 1.9298,-6.084 0.581,-1.3507 1.169,-1.7875 1.672,-2.377 0.502,-0.5894 0.859,-1.3225 0.824,-3.0312 z"
           id="rtid-path1429-3-6-7-2-8"
           style="color:#000000;fill:#000000;stroke-width:0.5"
           sodipodi:nodetypes="ccccccccscccssccccccccccccccccccccccccccccccccccccccc"
           inkscape:connector-curvature="0" />
        <path
           d="m 128,23.75 c -1.652,-0.0497 -2.58,0.5216 -3.203,1.0195 -0.312,0.249 -0.551,0.4693 -0.75,0.5782 -0.199,0.1088 -0.329,0.1354 -0.578,0.0253 -1.422,-0.6283 -2.855,-0.8313 -5.045,-0.121 h -0.002 c -0.209,0.0678 -0.656,-0.0762 -1.127,-0.2657 -0.236,-0.0947 -0.477,-0.1915 -0.719,-0.248 -0.241,-0.0566 -0.495,-0.078 -0.732,0.0312 -1.414,0.652 -2.513,1.7213 -3.395,2.5996 -0.441,0.4392 -0.83,0.8311 -1.162,1.0977 -0.332,0.2666 -0.598,0.3855 -0.769,0.373 -0.267,-0.0193 -0.473,-0.1723 -0.696,-0.4726 -0.222,-0.3003 -0.432,-0.7336 -0.666,-1.2149 -0.467,-0.9625 -1.03,-2.1262 -2.138,-2.8105 -1.134,-0.6998 -2.701,-0.8763 -3.987,-1.0762 -0.642,-0.0999 -1.217,-0.2054 -1.607,-0.3574 -0.195,-0.076 -0.341,-0.1633 -0.432,-0.252 -0.091,-0.0886 -0.133,-0.1699 -0.142,-0.2871 0,0.0087 0.014,-0.0882 0.084,-0.2207 0.069,-0.1324 0.181,-0.3062 0.32,-0.5058 0.277,-0.3993 0.661,-0.908 1.053,-1.4922 0.783,-1.1684 1.605,-2.6388 1.652,-4.2051 0.035,-1.1613 -0.746,-2.2622 -1.461,-3.2598 -0.358,-0.4987 -0.704,-0.9721 -0.941,-1.3945 -0.237,-0.4224 -0.35,-0.7844 -0.309,-1.0527 0.056,-0.36926 0.198,-0.59839 0.397,-0.78127 0.198,-0.18288 0.463,-0.31486 0.755,-0.43555 0.293,-0.12068 0.61,-0.22798 0.901,-0.38671 0.29,-0.15874 0.563,-0.38099 0.713,-0.72071 0.453,-1.0275 0.491,-2.32339 0.435,-3.70508 C 104.393,2.8273 104.235,1.35423 104.25,0 h -0.5 c 0.004,1.32161 0.147,2.95144 0.199,4.22852 0.055,1.35795 0.001,2.59311 -0.392,3.48437 -0.094,0.21123 -0.259,0.35278 -0.496,0.48242 -0.238,0.12965 -0.539,0.23504 -0.85,0.36328 -0.311,0.12825 -0.635,0.28153 -0.906,0.53125 -0.272,0.24973 -0.482,0.60211 -0.553,1.07226 -0.069,0.4539 0.109,0.9088 0.369,1.3731 0.26,0.4642 0.616,0.9459 0.971,1.4414 0.71,0.9909 1.396,2.0367 1.369,2.9531 -0.042,1.3981 -0.804,2.8013 -1.568,3.9414 -0.383,0.5701 -0.763,1.0749 -1.049,1.4883 -0.144,0.2067 -0.264,0.3903 -0.352,0.5566 -0.087,0.1663 -0.156,0.3092 -0.14,0.4942 0.019,0.2365 0.129,0.4467 0.291,0.6035 0.161,0.1567 0.365,0.2683 0.599,0.3593 0.468,0.1822 1.062,0.2858 1.711,0.3868 1.298,0.2019 2.815,0.3993 3.801,1.0078 0.955,0.5896 1.485,1.643 1.951,2.6035 0.233,0.4803 0.45,0.9342 0.717,1.2949 0.267,0.3607 0.612,0.6413 1.06,0.6738 0.394,0.0285 0.75,-0.1857 1.12,-0.4824 0.369,-0.2966 0.76,-0.6977 1.199,-1.1347 0.877,-0.8742 1.938,-1.8922 3.252,-2.4981 0.084,-0.0389 0.221,-0.0438 0.408,0 0.187,0.0439 0.412,0.1305 0.646,0.2246 0.468,0.1883 0.975,0.4402 1.471,0.2793 2.105,-0.6821 3.34,-0.4946 4.69,0.1016 0.37,0.1634 0.729,0.1142 1.017,-0.043 0.288,-0.1572 0.531,-0.3925 0.824,-0.6269 0.548,-0.4374 1.555,-0.8873 2.891,-0.9102 z"
           id="rtid-path1429-3-6-7-5-7-4"
           style="color:#000000;fill:#000000;stroke-width:0.5"
           sodipodi:nodetypes="ccccccccccscccccscccccccscccccsccccccccccccccccccccsccccccccsccc"
           inkscape:connector-curvature="0" />
        <path
           d="m 71.75,0 c 0.0141,2.21123 -0.5181,3.78788 -1.1719,5.08594 -0.6822,1.35448 -1.4918,2.7313 -1.8261,5.07816 -0.0689,0.4829 0.1369,0.9762 0.4355,1.4921 0.2986,0.516 0.7066,1.0613 1.1133,1.6211 0.8133,1.1198 1.5987,2.3053 1.5722,3.2696 -0.036,1.3189 -0.8124,2.4014 -1.6425,3.3301 -0.4151,0.4643 -0.8408,0.8863 -1.1836,1.2832 -0.3428,0.3969 -0.6164,0.7663 -0.6836,1.1796 -0.0977,0.5998 -0.3105,2.0169 -0.2871,3.4493 0.0233,1.4323 0.2521,2.9131 1.2168,3.6015 1.2145,0.8668 3.0917,0.7818 4.8691,0.543 0.8887,-0.1194 1.7553,-0.2841 2.4981,-0.4102 0.7427,-0.126 1.3715,-0.2096 1.7324,-0.1836 0.2452,0.0177 0.4744,-0.0759 0.6777,-0.2207 0.2033,-0.1447 0.3914,-0.3426 0.584,-0.5781 0.3852,-0.471 0.7879,-1.0975 1.2598,-1.7558 0.9438,-1.3167 2.1539,-2.7477 3.9257,-3.3028 0.8452,-0.2647 1.3565,-0.8408 1.8145,-1.332 0.458,-0.4912 0.8506,-0.8908 1.4961,-0.9902 0.556,-0.0857 1.0082,0.0394 1.4805,0.2929 0.4722,0.2535 0.9536,0.6415 1.5097,1.0528 1.0641,0.7867 2.7158,1.671 4.8594,1.7441 v -0.5 c -2.1892,0 -3.4725,-0.8405 -4.5625,-1.6465 -0.545,-0.403 -1.0373,-0.8057 -1.5703,-1.0918 -0.5331,-0.2861 -1.1196,-0.4495 -1.793,-0.3457 -0.8179,0.1261 -1.3223,0.6482 -1.7851,1.1445 -0.4629,0.4964 -0.8942,0.973 -1.5977,1.1934 -1.9429,0.6086 -3.2225,2.1495 -4.1836,3.4902 -0.4805,0.6704 -0.8852,1.2963 -1.2402,1.7305 -0.1775,0.2171 -0.3426,0.384 -0.4864,0.4863 -0.1437,0.1024 -0.2546,0.1361 -0.3535,0.1289 -0.4686,-0.0338 -1.1014,0.0622 -1.8515,0.1895 -0.7502,0.1273 -1.6094,0.2912 -2.4805,0.4082 -1.7422,0.234 -3.5205,0.2557 -4.5137,-0.4531 -0.7006,-0.5001 -0.9834,-1.8278 -1.0058,-3.2051 -0.0225,-1.3773 0.1852,-2.7701 0.2812,-3.3594 0.0373,-0.2296 0.245,-0.5572 0.5684,-0.9316 0.3234,-0.3745 0.7483,-0.7992 1.1758,-1.2774 0.8548,-0.9562 1.7302,-2.1441 1.7714,-3.6504 0.0337,-1.228 -0.85,-2.452 -1.6679,-3.5781 -0.409,-0.563 -0.8081,-1.0994 -1.084,-1.5762 C 69.3452,10.9295 69.2076,10.5183 69.248,10.2344 69.5704,7.97127 70.333,6.68515 71.0254,5.31055 71.7178,3.93594 72.3289,2.47972 72.26,0 Z"
           id="rtid-path1429-3-6-7-5-3-0-5"
           style="color:#000000;fill:#000000;stroke-width:0.5"
           sodipodi:nodetypes="cccccccscccscccsccscccccscccccscccscccccccccccc"
           inkscape:connector-curvature="0" />
        <path
           d="m 39.75,0 c -0.3359,0.76718 -0.6117,1.75827 -0.8652,2.49023 -0.2953,0.85257 -0.7736,1.73886 -2.0371,2.8125 -0.0899,0.07641 -0.1225,0.14773 -0.17,0.24219 -0.0474,0.09447 -0.0972,0.20857 -0.1484,0.34375 -0.1025,0.27036 -0.2167,0.62378 -0.3398,1.03711 -0.2463,0.82667 -0.5254,1.89254 -0.7911,2.9707 -0.2656,1.07822 -0.5175,2.16932 -0.707,3.04692 -0.1895,0.8775 -0.316,1.5079 -0.3359,1.7851 -0.1397,1.937 0.3521,3.6412 0.8789,4.9746 0.2634,0.6668 0.5365,1.2422 0.7441,1.7051 0.2076,0.4629 0.341,0.8288 0.3516,0.9883 0.0189,0.2839 -0.0597,0.7845 -0.1719,1.3652 -0.1122,0.5807 -0.2521,1.251 -0.332,1.9258 -0.08,0.6748 -0.1028,1.3556 0.0332,1.9727 0.136,0.617 0.4448,1.1779 1.0078,1.539 1.17,0.7503 3.167,0.7102 5.082,0.5528 0.9575,-0.0788 1.8928,-0.1948 2.6778,-0.2852 0.7849,-0.0904 1.4326,-0.1503 1.7558,-0.127 0.4446,0.0321 1.7984,0.3583 3.3027,0.5254 1.5044,0.1671 3.199,0.1866 4.4942,-0.4511 0.3072,-0.1512 0.4947,-0.4545 0.666,-0.8028 0.1713,-0.3483 0.3191,-0.7578 0.4688,-1.1562 0.1496,-0.3985 0.3018,-0.7857 0.4648,-1.0781 0.163,-0.2925 0.3354,-0.4694 0.4727,-0.5137 2.0531,-0.6641 3.0053,-1.0705 3.9199,-1.3047 C 61.0267,24.3397 62.2522,24.2595 64,24.25 v -0.5 c -2.022,0 -2.984,0.0765 -3.9512,0.3242 -0.9672,0.2477 -1.9119,0.6529 -3.9511,1.3125 -0.3424,0.1107 -0.5666,0.4063 -0.7559,0.7461 -0.1894,0.3398 -0.3452,0.7448 -0.4961,1.1465 -0.1509,0.4017 -0.2965,0.8008 -0.4492,1.1113 -0.1527,0.3105 -0.3217,0.5172 -0.4375,0.5742 -1.132,0.5574 -2.7537,0.5651 -4.2188,0.4024 -1.465,-0.1628 -2.7313,-0.4847 -3.3222,-0.5274 -0.4216,-0.0304 -1.0588,0.0381 -1.8477,0.129 -0.7889,0.0908 -1.7186,0.2075 -2.6621,0.2851 -1.8871,0.1552 -3.842,0.1195 -4.7715,-0.4766 -0.4383,-0.2811 -0.6726,-0.6961 -0.789,-1.2246 -0.1165,-0.5284 -0.1019,-1.1612 -0.0254,-1.8066 0.0764,-0.6455 0.2129,-1.3026 0.3261,-1.8887 0.1132,-0.586 0.2084,-1.0932 0.1817,-1.4941 -0.0219,-0.3283 -0.1854,-0.6894 -0.3965,-1.1602 -0.2112,-0.4707 -0.4783,-1.0352 -0.7344,-1.6836 -0.5122,-1.2967 -0.9758,-2.9217 -0.8437,-4.7539 0.0112,-0.1567 0.1379,-0.8449 0.3261,-1.7168 0.1883,-0.8718 0.4387,-1.9599 0.7032,-3.0332 C 36.1492,8.94234 36.4277,7.88163 36.6699,7.06836 36.791,6.66173 36.9031,6.31684 36.998,6.06641 37.0455,5.94119 37.088,5.83926 37.123,5.76953 37.1581,5.6998 37.1986,5.66091 37.1719,5.68359 38.4931,4.56096 39.0415,3.56634 39.3574,2.6543 39.6733,1.74225 39.8091,0.82005 40.25,0 Z"
           id="rtid-path1429-3-6-7-5-3-5-9-0"
           style="color:#000000;fill:#000000;stroke-width:0.5"
           sodipodi:nodetypes="ccccccccccscsccccccccsccccccsccsscccccccccccccccccccccc"
           inkscape:connector-curvature="0" />
        <path
           d="m 32,23.75 c -1.3299,0 -2.8706,0.7213 -3.8457,1.7207 -0.3945,0.4044 -0.6149,0.8586 -0.8398,1.2031 -0.225,0.3445 -0.4227,0.5676 -0.8028,0.6485 -0.1454,0.0309 -0.3936,-0.0511 -0.6992,-0.2559 -0.3056,-0.2047 -0.6543,-0.5102 -1.0195,-0.8144 -0.3653,-0.3043 -0.748,-0.6092 -1.1465,-0.8184 -0.3986,-0.2092 -0.8334,-0.3266 -1.2617,-0.1914 -0.7564,0.2386 -1.2942,0.779 -1.7754,1.3066 -0.4813,0.5277 -0.9146,1.0441 -1.4141,1.3125 -1.8557,0.9973 -3.9321,1.0397 -4.7773,0.9785 -0.0087,-6e-4 -0.0233,4e-4 -0.0684,-0.0546 -0.0451,-0.0551 -0.1028,-0.1587 -0.1562,-0.293 -0.107,-0.2686 -0.2055,-0.6574 -0.3145,-1.0645 -0.109,-0.4071 -0.2287,-0.8339 -0.3984,-1.2031 C 13.3108,25.8554 13.087,25.5242 12.7285,25.377 12.387,25.2367 11.6548,24.942 10.8984,24.7695 10.5203,24.6833 10.1351,24.6264 9.7793,24.6406 9.42348,24.6549 9.08261,24.741 8.83594,24.9805 8.2109,25.5874 8.06841,26.5947 7.91602,27.3906 7.83982,27.7886 7.7626,28.1399 7.66992,28.334 7.62358,28.4311 7.57602,28.4807 7.54883,28.498 7.52164,28.5154 7.51023,28.5227 7.43945,28.5039 7.20658,28.4421 6.87155,28.1152 6.56445,27.5977 6.25735,27.0801 5.96615,26.3959 5.7168,25.6914 5.21809,24.2825 4.88207,22.7529 4.84766,22.3398 4.81456,21.9427 4.63957,20.7851 4.48242,19.3203 4.32527,17.8556 4.18883,16.1047 4.23633,14.6113 4.24556,14.321 4.16292,13.9673 4.06641,13.5586 3.96989,13.1499 3.85489,12.6961 3.7793,12.2754 3.7037,11.8547 3.6736,11.4638 3.72266,11.2109 c 0.02452,-0.1264 0.06508,-0.2136 0.11328,-0.2675 0.0482,-0.054 0.10401,-0.0869 0.21484,-0.1016 -0.00851,0.0011 0.04556,0.0038 0.13672,0.0644 0.09116,0.0607 0.20973,0.1666 0.33984,0.3028 0.26022,0.2723 0.56755,0.6647 0.88086,1.0781 0.31331,0.4134 0.63375,0.848 0.93555,1.2149 0.3018,0.3668 0.56991,0.6661 0.85742,0.8242 0.33213,0.1826 0.70718,0.1503 1.0293,0.0136 0.32211,-0.1366 0.6131,-0.3706 0.87109,-0.6289 0.258,-0.2582 0.48087,-0.5423 0.64649,-0.7949 C 9.91366,12.6634 10.0262,12.4811 10.0586,12.2715 10.2321,11.1467 9.99453,9.85337 9.80469,8.61328 9.61484,7.3732 9.47889,6.1904 9.75977,5.35352 9.95496,4.77187 9.93526,4.28857 9.78711,3.88281 9.63896,3.47706 9.3803,3.15519 9.12891,2.82422 8.62612,2.16228 8.12044,1.46341 8.25,0 H 7.75 C 7.7138,1.3942 8.25802,2.50495 8.73047,3.12695 8.98465,3.46159 9.20432,3.7477 9.31641,4.05469 9.42849,4.36167 9.45235,4.69514 9.28516,5.19336 8.94645,6.20254 9.11946,7.43932 9.31055,8.6875 9.50163,9.93568 9.71812,11.1992 9.56445,12.1953 9.5651,12.1911 9.4776,12.4156 9.33008,12.6406 9.18255,12.8656 8.97685,13.1284 8.74805,13.3574 8.51924,13.5864 8.26571,13.7811 8.03516,13.8789 7.8046,13.9767 7.62003,13.9869 7.44141,13.8887 7.29442,13.8079 7.01944,13.5349 6.73047,13.1836 6.4415,12.8323 6.12254,12.4012 5.80664,11.9844 5.49074,11.5675 5.17827,11.1663 4.88867,10.8633 4.74387,10.7118 4.60665,10.5846 4.46484,10.4902 4.32304,10.3959 4.16918,10.3212 3.98438,10.3457 3.7753,10.3735 3.58987,10.4691 3.46289,10.6113 c -0.12698,0.1422 -0.19631,0.3178 -0.23242,0.5039 -0.07223,0.3724 -0.02356,0.8037 0.05664,1.25 0.08019,0.4463 0.19809,0.9069 0.29297,1.3086 0.09487,0.4018 0.1615,0.7548 0.15625,0.92 -0.04886,1.536 0.08969,3.3032 0.24805,4.7792 0.15835,1.4761 0.33813,2.6827 0.36523,3.0079 0.04642,0.5571 0.38432,2.0296 0.89648,3.4765 0.25609,0.7235 0.55414,1.4323 0.88868,1.9961 0.33453,0.5638 0.69503,1.0073 1.17578,1.1348 0.1745,0.0463 0.36547,0.0224 0.50781,-0.0684 0.14234,-0.0907 0.23291,-0.2248 0.30273,-0.3711 0.13964,-0.2925 0.20818,-0.6624 0.28516,-1.0644 0.15395,-0.8041 0.33801,-1.7199 0.77734,-2.1465 0.11912,-0.1157 0.33078,-0.1858 0.61719,-0.1973 0.28642,-0.0115 0.63462,0.037 0.98632,0.1172 0.7034,0.1604 1.4158,0.444 1.752,0.582 0.1713,0.0704 0.3411,0.278 0.4863,0.5938 0.1452,0.3158 0.2635,0.721 0.3711,1.123 0.1076,0.4021 0.2041,0.8 0.332,1.1211 0.064,0.1606 0.1357,0.3033 0.2344,0.4239 0.0987,0.1205 0.2438,0.2254 0.4199,0.2382 0.9174,0.0665 3.0632,0.03 5.0488,-1.0371 0.6228,-0.3347 1.0775,-0.9033 1.5469,-1.4179 0.4694,-0.5147 0.9439,-0.9727 1.5567,-1.166 0.2553,-0.0806 0.5432,-0.0181 0.8789,0.1582 0.3357,0.1762 0.6996,0.4606 1.0586,0.7597 0.3589,0.2991 0.7145,0.6107 1.0625,0.8438 0.3479,0.2331 0.7032,0.4101 1.08,0.33 0.5421,-0.1152 0.8678,-0.4813 1.1172,-0.8632 0.2494,-0.3819 0.4521,-0.7915 0.7793,-1.127 C 29.3257,24.986 30.9022,24.3358 32,24.25 Z"
           id="rtid-path1429-3-6-7-5-3-5-6-3-3"
           style="color:#000000;fill:#000000;stroke-width:0.5"
           sodipodi:nodetypes="cccccccccccccssccccccccccccccccccccscccccccccccccccccccccscsccsccccccccccccccscscccccccccccsccc"
           inkscape:connector-curvature="0" />
      </g>
      <g
         id="rtid-g1046"
         transform="rotate(180,64,63.9999)">
        <path
           d="m 7.75,96 c -0.056,1.43 -0.317,2.63 -0.582,3.43 -0.286,0.87 -0.595,1.67 -0.652,2.97 -0.024,0.6 -0.29,0.9 -0.758,1.1 -0.468,0.3 -1.141,0.4 -1.867,0.4 C 2.529,104 0.8398,103.7498 0,103.7498 v 0.5 c 0.7015,0 2.386,0.2502 3.914,0.1502 0.764,0 1.495,-0.1 2.072,-0.4 0.578,-0.3 0.998,-0.8 1.03,-1.6 0.054,-1.2 0.336,-1.9 0.627,-2.81 C 7.933,98.72 8.224,97.7 8.25,96 h -0.5"
           id="rtid-frontier-4"
           mask="none"
           style="color:#000000;fill:#000000;stroke-width:0.18709999"
           sodipodi:nodetypes="ccccccccccccc"
           inkscape:connector-curvature="0" />
        <path
           d="m 39.75,96 c -0.03,0.27 -0.11,0.79 -0.19,0.93 -0.11,0.2 -0.25,0.33 -0.46,0.45 -0.41,0.24 -1.08,0.43 -1.78,1.02 -0.31,0.25 -0.44,0.6 -0.48,0.95 -0.03,0.34 0.01,0.65 0.05,1.05 0.04,0.3 0.06,0.6 0.03,0.9 -0.04,0.2 -0.13,0.4 -0.34,0.5 -1.5,1 -2.3,1.5 -2.88,1.8 -0.49,0.2 -1.14,0.1498 -1.7,0.1498 v 0.5 c 0.75,0 1.23,0.0502 1.88,-0.2498 0.66,-0.2 1.47,-0.7 2.98,-1.8 0.33,-0.2 0.5,-0.5 0.55,-0.9 0.05,-0.3 0.01,-0.6 -0.02,-1 -0.04,-0.31 -0.08,-0.64 -0.05,-0.9 0.03,-0.26 0.11,-0.46 0.3,-0.62 0.63,-0.52 1.21,-0.67 1.71,-0.97 0.26,-0.15 0.49,-0.34 0.65,-0.64 0.16,-0.29 0.24,-0.67 0.25,-1.17 h -0.5"
           id="rtid-frontier-3-8"
           mask="none"
           style="color:#000000;fill:#000000;stroke-width:0.18709999"
           sodipodi:nodetypes="cccccccccccccccsccccc"
           inkscape:connector-curvature="0" />
        <path
           d="m 64,104.2498 c 0.8,0 1.49,-0.2498 2.04,-0.7498 0.55,-0.5 0.96,-1.3 1.26,-2.3 0.05,-0.2 0.09,-0.2 0.11,-0.2 0.04,0 0.23,0.1 0.45,0.3 0.23,0.2 0.52,0.4 0.89,0.4 0.37,0.1 0.79,-0.1 1.2,-0.5 0.28,-0.3 0.4,-0.7 0.43,-1 0.02,-0.27 -0.04,-0.56 -0.09,-0.81 -0.05,-0.25 -0.09,-0.47 -0.06,-0.65 0.03,-0.18 0.11,-0.35 0.35,-0.54 0.67,-0.53 1.06,-0.79 1.32,-1.08 0.26,-0.3 0.34,-0.64 0.35,-1.12 h -0.5 c -0.02,0.19 -0.1,0.64 -0.22,0.78 -0.19,0.21 -0.58,0.49 -1.26,1.03 -0.32,0.25 -0.49,0.56 -0.53,0.85 -0.05,0.3 0.01,0.57 0.06,0.83 0.05,0.26 0.1,0.49 0.08,0.71 -0.02,0.2 -0.09,0.4 -0.3,0.6 -0.33,0.4 -0.57,0.5 -0.77,0.4 -0.21,0 -0.42,-0.1 -0.63,-0.3 -0.21,-0.2 -0.37,-0.4 -0.65,-0.4 -0.14,-0.1 -0.34,0 -0.46,0.1 -0.12,0.1 -0.19,0.2 -0.25,0.4 -0.29,1 -0.67,1.7 -1.12,2.1 -0.39,0.4 -1.14,0.5498 -1.7,0.6498 v 0.5"
           id="rtid-frontier-3-6-1"
           mask="none"
           style="color:#000000;fill:#000000;stroke-width:0.18709999"
           sodipodi:nodetypes="cscsccccsscccccccscccscscccc"
           inkscape:connector-curvature="0" />
        <path
           d="m 96,104.2498 c 0.85,0 1.51,-0.4498 2.11,-1.0498 0.61,-0.5 1.19,-1.2 1.87,-1.6 0.62,-0.4 1.32,-0.3 2.12,-0.3 0.3,0 0.7,-0.1 1,-0.3 0.4,-0.2 0.7,-0.6 0.9,-1.1 0.5,-1.3 0.6,-1.86 0.5,-2.31 -0.1,-0.45 -0.25,-0.7 -0.25,-1.59 h -0.5 c 0.1,0.68 0.25,1.4 0.25,1.69 0.1,0.33 0.1,0.75 -0.5,2.02 -0.2,0.49 -0.4,0.69 -0.6,0.89 -0.3,0.1 -0.5,0.2 -0.9,0.2 -0.6,0 -1.5,-0.1 -2.27,0.4 -0.78,0.4 -1.37,1.1 -1.96,1.6 -0.5,0.5 -1.24,0.8498 -1.77,0.9498 v 0.5"
           id="rtid-frontier-3-6-7-0"
           mask="none"
           style="color:#000000;fill:#000000;stroke-width:0.18709999"
           sodipodi:nodetypes="cccsccscccccscccc"
           inkscape:connector-curvature="0" />
        <path
           d="M 0,72.25 C 0.3994,72.26 0.6785,72.21 0.9004,72.09 1.122,71.97 1.258,71.79 1.371,71.63 1.598,71.31 1.759,71 2.523,70.71 2.745,70.62 2.91,70.53 3.033,70.41 3.157,70.29 3.23,70.12 3.227,69.96 3.22,69.65 3.027,69.44 2.859,69.21 2.691,68.97 2.522,68.73 2.449,68.46 2.376,68.2 2.381,67.91 2.594,67.52 2.826,67.1 3.001,66.88 3.127,66.77 3.253,66.66 3.325,66.65 3.457,66.62 3.589,66.59 3.783,66.57 4.01,66.45 4.237,66.33 4.489,66.12 4.799,65.75 5.056,65.45 5.351,65.31 5.684,65.25 6.016,65.18 6.382,65.19 6.736,65.19 7.09,65.2 7.438,65.2 7.744,65.03 8.05,64.86 8.242,64.5 8.25,64 c 0,0 -0.5,0 -0.5,0 -0.042,0.12 -0.16,0.55 -0.244,0.59 -0.147,0.08 -0.423,0.11 -0.766,0.1 -0.342,0 -0.744,-0.02 -1.154,0.07 -0.41,0.08 -0.834,0.27 -1.17,0.67 C 4.133,65.77 3.93,65.92 3.777,66 3.624,66.08 3.515,66.1 3.357,66.13 3.2,66.16 2.996,66.22 2.799,66.4 c -0.197,0.17 -0.395,0.44 -0.643,0.88 -0.267,0.49 -0.29,0.94 -0.187,1.31 0.102,0.38 0.314,0.67 0.484,0.91 0.17,0.23 0.272,0.42 0.274,0.47 0,0.03 0.006,0.03 -0.041,0.08 -0.048,0.05 -0.158,0.12 -0.344,0.19 -0.864,0.34 -1.17,0.81 -1.3791,1.1 -0.1044,0.15 -0.1788,0.24 -0.2988,0.31 -0.0755,0.04 -0.5115,0.08 -0.6641,0.1 0,0 0,0.5 0,0.5"
           id="rtid-frontier-5-30"
           mask="none"
           style="color:#000000;fill:#000000;stroke-width:0.18709999"
           inkscape:connector-curvature="0" />
        <path
           d="m 39.75,64 c 0.04,0.32 0.14,0.86 0.13,1.1 -0.01,0.31 -0.15,0.74 -0.81,1.57 -0.31,0.4 -0.57,0.55 -0.78,0.6 -0.22,0.06 -0.42,0.02 -0.65,-0.03 -0.22,-0.05 -0.47,-0.12 -0.76,-0.04 -0.28,0.09 -0.5,0.34 -0.67,0.78 -0.69,1.74 -0.87,2.5 -0.96,2.74 -0.01,0.04 -0.01,0.03 -0.01,0.04 -0.04,0 -0.17,-0.01 -0.41,0.03 -0.95,0.13 -1.37,0.42 -1.67,0.63 -0.23,0.17 -0.76,0.3 -1.16,0.33 0,0 0,0.5 0,0.5 0.79,0.02 1.15,-0.21 1.45,-0.42 0.3,-0.22 0.57,-0.43 1.45,-0.55 0.21,-0.03 0.3,-0.01 0.45,-0.03 0.08,-0.01 0.18,-0.05 0.25,-0.13 0.06,-0.07 0.09,-0.15 0.12,-0.23 0.12,-0.34 0.27,-1 0.95,-2.73 0.15,-0.36 0.26,-0.45 0.36,-0.48 0.1,-0.03 0.27,0 0.5,0.05 0.24,0.05 0.54,0.11 0.88,0.03 0.34,-0.09 0.69,-0.33 1.05,-0.78 0.69,-0.87 0.9,-1.41 0.92,-1.87 0.02,-0.45 -0.14,-0.73 -0.13,-1.11 0,0 -0.5,0 -0.5,0"
           id="rtid-frontier-3-62-4"
           mask="none"
           style="color:#000000;fill:#000000;stroke-width:0.18709999"
           inkscape:connector-curvature="0" />
        <path
           d="m 71.75,64 c -0.1,3.11 -0.94,5.17 -2.55,6.79 -1.53,1.53 -3.67,1.04 -5.2,0.96 0,0 0,0.5 0,0.5 1.43,0.04 3.76,0.7 5.55,-1.11 1.74,-1.74 2.65,-3.75 2.7,-7.14 0,0 -0.5,0 -0.5,0"
           id="rtid-frontier-3-6-9-4"
           mask="none"
           style="color:#000000;fill:#000000;stroke-width:0.18709999"
           inkscape:connector-curvature="0" />
        <path
           d="m 103.75,64 c -0.1,0.54 -0.15,1.24 -0.25,1.36 -0.1,0.08 -0.1,0.11 -0.2,0.12 -0.1,0.02 -0.2,0.02 -0.3,0.01 -0.2,-0.02 -0.5,-0.11 -0.9,-0.02 -0.3,0.09 -0.6,0.38 -0.8,0.93 -0.2,0.92 -1.2,2.31 -2.35,3.43 -0.55,0.55 -1.14,1.05 -1.67,1.4 -0.42,0.28 -1,0.47 -1.28,0.52 v 0.5 c 0.48,0.01 0.99,-0.23 1.56,-0.61 0.56,-0.37 1.17,-0.88 1.75,-1.46 1.19,-1.15 2.19,-2.54 2.49,-3.64 0.1,-0.45 0.3,-0.54 0.5,-0.58 0.1,-0.05 0.4,0 0.7,0.03 0.1,0.01 0.3,0.02 0.4,-0.02 0.2,-0.04 0.4,-0.14 0.5,-0.3 0.2,-0.31 0.25,-0.81 0.35,-1.67 h -0.5"
           id="rtid-frontier-3-6-7-1-4"
           mask="none"
           style="color:#000000;fill:#000000;stroke-width:0.18709999"
           sodipodi:nodetypes="cccsccccccccccscccc"
           inkscape:connector-curvature="0" />
        <path
           d="m 7.75,32 c -0.055,0.16 -0.201,0.58 -0.332,0.72 -0.201,0.21 -0.475,0.4 -0.729,0.58 -0.253,0.18 -0.502,0.34 -0.613,0.63 -0.055,0.15 -0.048,0.33 0.028,0.48 0.075,0.15 0.201,0.28 0.376,0.42 0.402,0.3 0.648,0.52 0.782,0.69 0.134,0.16 0.155,0.25 0.156,0.33 0.002,0.17 -0.199,0.49 -0.225,1.09 -0.042,0.98 0.192,1.42 0.241,1.61 C 7.458,38.64 7.466,38.66 7.4,38.79 7.335,38.91 7.175,39.12 6.877,39.46 6.258,40.15 5.669,40.34 4.994,40.31 4.319,40.27 3.554,39.97 2.707,39.6 1.882,39.24 1.243,39.29 0.7871,39.43 0.5641,39.5 0.1369,39.68 0,39.75 c 0,0 0,0.5 0,0.5 0.1904,0.01 0.3136,-0.07 0.457,-0.14 C 0.6005,40.04 0.7549,39.96 0.9375,39.9 1.303,39.79 1.778,39.74 2.508,40.06 3.362,40.43 4.166,40.76 4.965,40.8 5.763,40.85 6.551,40.57 7.25,39.79 7.557,39.45 7.737,39.22 7.844,39.01 7.95,38.81 7.96,38.59 7.918,38.43 7.833,38.09 7.654,37.87 7.693,36.96 7.714,36.49 7.924,36.26 7.918,35.85 7.915,35.64 7.828,35.42 7.648,35.2 7.469,34.98 7.199,34.74 6.781,34.43 6.642,34.32 6.574,34.24 6.551,34.19 6.528,34.15 6.533,34.14 6.545,34.11 6.569,34.04 6.737,33.88 6.98,33.71 7.224,33.53 7.527,33.33 7.781,33.06 8.035,32.79 8.243,32.44 8.25,32 c 0,0 -0.5,0 -0.5,0"
           id="rtid-frontier-2-4"
           mask="none"
           style="color:#000000;fill:#000000;stroke-width:0.18709999"
           inkscape:connector-curvature="0" />
        <path
           d="m 39.75,32 c -0.1,1.39 -0.72,2.38 -1.48,2.88 -0.82,0.53 -1.83,0.79 -2.54,1.36 -0.69,0.55 -1.28,1.46 -1.9,2.22 -0.3,0.37 -0.61,0.71 -0.92,0.94 -0.23,0.17 -0.69,0.31 -0.91,0.35 0,0 0,0.5 0,0.5 0.45,0.01 0.85,-0.17 1.21,-0.45 0.36,-0.27 0.69,-0.64 1.01,-1.03 0.64,-0.78 1.24,-1.67 1.82,-2.14 0.58,-0.46 1.6,-0.74 2.5,-1.33 0.91,-0.59 1.68,-1.56 1.71,-3.3 0,0 -0.5,0 -0.5,0"
           id="rtid-frontier-3-7-7"
           mask="none"
           style="color:#000000;fill:#000000;stroke-width:0.18709999"
           inkscape:connector-curvature="0" />
        <path
           d="m 71.75,32 c 0.04,0.69 0.23,1.5 0.49,1.83 0.31,0.38 0.71,0.54 1.03,0.64 0.15,0.04 0.29,0.08 0.38,0.11 0.09,0.03 0.11,0.06 0.09,0.03 -0.02,-0.03 0.01,-0.05 -0.04,0.04 -0.04,0.09 -0.15,0.24 -0.34,0.46 -0.71,0.81 -2.73,2.02 -4.72,2.98 -0.99,0.48 -1.99,0.9 -2.82,1.2 -0.72,0.26 -1.48,0.43 -1.82,0.46 0,0 0,0.5 0,0.5 0.46,0.01 1.13,-0.18 1.99,-0.49 0.85,-0.3 1.86,-0.73 2.87,-1.22 2.02,-0.97 4.03,-2.14 4.87,-3.1 0.2,-0.23 0.34,-0.4 0.42,-0.57 0.08,-0.16 0.11,-0.36 0.02,-0.51 -0.09,-0.16 -0.23,-0.21 -0.36,-0.25 -0.13,-0.05 -0.26,-0.08 -0.4,-0.12 -0.28,-0.09 -0.56,-0.2 -0.78,-0.47 -0.22,-0.27 -0.39,-0.72 -0.38,-1.52 0,0 -0.5,0 -0.5,0"
           id="rtid-frontier-3-6-0-6"
           mask="none"
           style="color:#000000;fill:#000000;stroke-width:0.18709999"
           inkscape:connector-curvature="0" />
        <path
           d="m 103.75,32 c -0.1,1.16 -0.35,1.13 -0.55,1.27 -0.4,0.17 -0.9,0.18 -1.5,0.14 -0.7,-0.04 -1.4,-0.12 -2.05,-0.05 -0.68,0.08 -1.34,0.32 -1.81,0.92 -0.91,1.16 -1.04,2.62 -1.15,3.74 -0.05,0.57 -0.11,1.05 -0.22,1.35 -0.05,0.15 -0.11,0.24 -0.18,0.3 -0.01,0.01 -0.28,0.07 -0.29,0.08 v 0.5 c 0.23,0.01 0.44,-0.06 0.61,-0.2 0.16,-0.13 0.26,-0.31 0.34,-0.51 0.14,-0.4 0.18,-0.91 0.24,-1.47 0.11,-1.12 0.25,-2.46 1.04,-3.48 0.38,-0.48 0.88,-0.67 1.47,-0.73 0.6,-0.06 1.3,0.01 1.9,0.05 0.7,0.04 1.7,0.06 2.2,-0.2 0.5,-0.25 0.35,-0.82 0.45,-1.71 h -0.5"
           id="rtid-frontier-3-6-7-9-3"
           mask="none"
           style="color:#000000;fill:#000000;stroke-width:0.18709999"
           sodipodi:nodetypes="ccccccccccccccccccc"
           inkscape:connector-curvature="0" />
        <path
           d="M 0,8.25 C 0.4114,8.261 0.7186,8.171 0.9493,7.998 1.18,7.826 1.312,7.593 1.424,7.365 1.64,6.926 1.817,6.494 2.35,6.143 2.395,6.161 2.456,6.188 2.537,6.233 2.724,6.335 2.975,6.494 3.258,6.652 3.823,6.969 4.511,7.315 5.172,7.162 5.813,7.014 6.209,6.404 6.527,5.842 6.687,5.561 6.827,5.283 6.947,5.063 7.068,4.842 7.19,4.679 7.221,4.656 7.529,4.427 7.688,4.138 7.709,3.856 7.73,3.574 7.635,3.321 7.535,3.104 7.435,2.886 7.323,2.693 7.273,2.557 7.249,2.489 7.241,2.438 7.242,2.414 7.243,2.39 7.243,2.393 7.258,2.377 7.646,1.967 7.886,1.826 8.051,1.514 8.216,1.201 8.237,0.8203 8.25,0 8.25,0 7.75,0 7.75,0 7.731,0.5006 7.68,1.142 7.607,1.279 7.517,1.45 7.308,1.596 6.895,2.033 6.8,2.133 6.749,2.27 6.744,2.393 6.739,2.515 6.767,2.624 6.805,2.727 6.879,2.932 6.994,3.124 7.08,3.313 7.167,3.501 7.22,3.677 7.209,3.818 7.198,3.96 7.145,4.09 6.922,4.256 6.738,4.392 6.637,4.587 6.508,4.822 6.379,5.057 6.244,5.33 6.094,5.596 5.793,6.127 5.425,6.591 5.059,6.676 4.658,6.768 4.041,6.518 3.504,6.217 3.235,6.066 2.986,5.91 2.777,5.795 2.673,5.738 2.581,5.689 2.486,5.656 2.392,5.623 2.274,5.576 2.121,5.67 1.405,6.109 1.18,6.731 0.9766,7.145 0.8749,7.351 0.7795,7.501 0.6504,7.598 0.5702,7.658 0.1443,7.725 0,7.75 c 0,0 0,0.5 0,0.5"
           id="rtid-frontier-5-3-1"
           mask="none"
           style="color:#000000;fill:#000000;stroke-width:0.18709999"
           inkscape:connector-curvature="0" />
        <path
           d="m 32,8.25 c 0.21,0.005 0.37,-0.014 0.51,-0.072 0.15,-0.058 0.26,-0.167 0.33,-0.289 0.12,-0.245 0.08,-0.476 0.08,-0.684 0.01,-0.208 0.03,-0.386 0.16,-0.556 0.12,-0.171 0.37,-0.356 0.9,-0.502 0.56,-0.153 0.93,-0.206 1.18,-0.2 0.25,0.007 0.37,0.062 0.5,0.149 0.26,0.173 0.53,0.577 1.27,0.838 0.24,0.086 0.51,0.038 0.72,-0.088 0.22,-0.126 0.41,-0.322 0.6,-0.565 0.36,-0.485 0.69,-1.166 0.99,-1.923 0.58,-1.515 0.99,-3.31 1.01,-4.358 0,0 -0.5,0 -0.5,0 C 39.69,0.9592 39.3,2.803 38.77,4.178 38.49,4.909 38.16,5.562 37.85,5.98 37.69,6.19 37.53,6.337 37.4,6.412 37.28,6.487 37.19,6.497 37.1,6.463 36.48,6.243 36.33,5.939 35.94,5.68 35.75,5.55 35.5,5.458 35.17,5.449 34.84,5.44 34.43,5.505 33.85,5.664 c -0.6,0.165 -0.96,0.401 -1.18,0.688 -0.21,0.286 -0.24,0.601 -0.25,0.843 0,0.243 -0.01,0.422 -0.03,0.469 C 32.38,7.687 32.38,7.695 32.33,7.715 32.31,7.72 32.02,7.745 32,7.75"
           id="rtid-frontier-3-62-6-7"
           mask="none"
           style="color:#000000;fill:#000000;stroke-width:0.18709999"
           inkscape:connector-curvature="0" />
        <path
           d="m 64,8.25 c 0.3,0.008 0.53,0.14 0.77,0.344 0.23,0.204 0.45,0.478 0.68,0.728 0.23,0.251 0.47,0.494 0.82,0.563 0.34,0.069 0.72,-0.083 1.1,-0.457 0.41,-0.4 0.56,-0.944 0.58,-1.512 C 67.97,7.348 67.87,6.742 67.74,6.147 67.62,5.551 67.48,4.965 67.41,4.463 67.34,3.961 67.36,3.551 67.48,3.309 c 0.16,-0.3 0.28,-0.417 0.39,-0.465 0.11,-0.048 0.25,-0.048 0.47,-0.006 0.44,0.084 1.14,0.321 2.16,0.178 0.52,-0.072 0.9,-0.221 1.18,-0.44 C 71.96,2.357 72.12,2.069 72.2,1.771 72.36,1.177 72.24,0.534 72.25,0 c 0,0 -0.5,0 -0.5,0 0.01,0.5068 0.07,1.273 -0.03,1.643 -0.06,0.218 -0.16,0.392 -0.35,0.541 -0.19,0.148 -0.48,0.272 -0.94,0.336 -0.92,0.128 -1.49,-0.075 -2,-0.172 -0.25,-0.049 -0.51,-0.073 -0.76,0.039 -0.25,0.111 -0.45,0.34 -0.63,0.693 -0.21,0.41 -0.2,0.91 -0.12,1.451 0.07,0.542 0.22,1.132 0.34,1.715 0.12,0.584 0.21,1.16 0.19,1.652 C 67.43,8.391 67.31,8.784 67.02,9.07 66.7,9.383 66.52,9.425 66.36,9.395 66.21,9.364 66.03,9.216 65.82,8.986 65.61,8.757 65.38,8.465 65.1,8.217 64.88,8.024 64.32,7.821 64,7.75 c 0,0 0,0.5 0,0.5"
           id="rtid-frontier-3-6-9-0-5"
           mask="none"
           style="color:#000000;fill:#000000;stroke-width:0.18709999"
           inkscape:connector-curvature="0" />
        <path
           d="m 96,8.25 c 0.26,0.007 0.48,-0.113 0.64,-0.289 0.15,-0.176 0.24,-0.397 0.31,-0.642 0.15,-0.492 0.2,-1.095 0.28,-1.659 0.08,-0.563 0.19,-1.086 0.36,-1.355 0.09,-0.135 0.17,-0.203 0.28,-0.233 0.1,-0.029 0.26,-0.02 0.5,0.082 2.33,1.015 5.88,-0.641 5.88,-4.154 h -0.5 C 103.55,2.977 100.5,4.531 98.57,3.695 98.26,3.563 97.98,3.523 97.74,3.59 97.49,3.657 97.3,3.831 97.17,4.037 96.91,4.45 96.82,5.012 96.74,5.59 96.66,6.167 96.59,6.762 96.47,7.178 96.41,7.386 96.328563,7.5428884 96.26,7.633 96.258183,7.6353875 96,7.747 96,7.75 v 0.5"
           id="rtid-frontier-3-6-7-1-6-9"
           mask="none"
           style="color:#000000;fill:#000000;stroke-width:0.18709999"
           sodipodi:nodetypes="cccccccccccccsssc"
           inkscape:connector-curvature="0" />
      </g>
    </g>
  </g>
</svg>
