<?xml version="1.0" encoding="UTF-8" standalone="no"?>
<svg
   xmlns:dc="http://purl.org/dc/elements/1.1/"
   xmlns:cc="http://creativecommons.org/ns#"
   xmlns:rdf="http://www.w3.org/1999/02/22-rdf-syntax-ns#"
   xmlns:svg="http://www.w3.org/2000/svg"
   xmlns="http://www.w3.org/2000/svg"
   xmlns:xlink="http://www.w3.org/1999/xlink"
   xmlns:sodipodi="http://sodipodi.sourceforge.net/DTD/sodipodi-0.dtd"
   xmlns:inkscape="http://www.inkscape.org/namespaces/inkscape"
   height="128mm"
   id="base_svg"
   version="1.1"
   viewBox="0 0 128 128"
   width="128mm"
   sodipodi:docname="41.svg"
   inkscape:version="0.92.2 5c3e80d, 2017-08-06">
  <defs
     id="rtid-defs921">
    <mask
       id="rtid-mask2457"
       maskUnits="userSpaceOnUse">
      <g
         id="rtid-g2527"
         transform="scale(1)">
        <g
           id="rtid-g2491"
           transform="translate(0,0.0054)">
          <path
             d="M 0,-0.0054 H 8.001 C 7.977,1.625 7.879,1.353 7.075,2.201 6.636,2.665 8.133,3.662 7.072,4.451 6.644,4.768 6.122,6.681 5.114,6.914 4.053,7.16 2.507,5.723 2.252,5.879 0.9546,6.676 1.496,8.033 0,7.996 Z"
             id="rtid-path2459"
             style="fill:#ffffff;stroke-width:0.5218"
             sodipodi:nodetypes="ccsssscc"
             inkscape:connector-curvature="0" />
          <path
             d="M 31.99,-0.0054 H 40 C 39.98,1.961 38.36,7.173 37.02,6.694 35.67,6.213 36.17,5.276 33.92,5.9 31.67,6.522 33.5,8.033 31.99,7.996 Z"
             id="rtid-path2461"
             style="fill:#ffffff;stroke-width:0.5218"
             sodipodi:nodetypes="cczzcc"
             inkscape:connector-curvature="0" />
          <path
             d="M 64,-0.0054 H 71.99 C 71.99,1.13 72.42,2.491 70.46,2.763 68.53,3.035 67.92,1.883 67.26,3.189 66.6,4.493 68.58,7.874 67.18,9.245 65.8,10.61 65.51,8.033 64,7.996 Z"
             id="rtid-path2463"
             style="fill:#ffffff;stroke-width:0.5218"
             sodipodi:nodetypes="cczzzcc"
             inkscape:connector-curvature="0" />
          <path
             d="M 95.99,-0.0054 H 104 C 103.9,3.345 100.6,4.858 98.5,3.919 96.33,2.982 97.5,8.033 95.99,7.996 Z"
             id="rtid-path2465"
             style="fill:#ffffff;stroke-width:0.5218"
             sodipodi:nodetypes="cczcc"
             inkscape:connector-curvature="0" />
          <path
             d="M 0,31.98 H 8.001 C 7.977,33.46 5.371,33.67 6.63,34.62 8.268,35.84 7.49,35.87 7.443,36.95 7.361,38.83 8.276,38.25 7.064,39.6 5.747,41.08 4.31,40.55 2.608,39.81 1.054,39.15 0.3768,39.99 0,39.99 Z"
             id="rtid-path2467"
             style="fill:#ffffff;stroke-width:0.5218"
             sodipodi:nodetypes="ccsssscc"
             inkscape:connector-curvature="0" />
          <path
             d="M 31.99,31.98 H 40 C 39.95,35.34 37.17,35.39 35.88,36.42 34.61,37.45 33.5,40.02 31.99,39.99 Z"
             id="rtid-path2469"
             style="fill:#ffffff;stroke-width:0.5218"
             sodipodi:nodetypes="cczcc"
             inkscape:connector-curvature="0" />
          <path
             d="M 64,31.98 H 71.99 C 71.94,35.34 75.14,33.49 73.55,35.26 71.99,37.03 65.51,40.02 64,39.99 Z"
             id="rtid-path2471"
             style="fill:#ffffff;stroke-width:0.5218"
             sodipodi:nodetypes="cczcc"
             inkscape:connector-curvature="0" />
          <path
             d="M 95.99,31.98 H 104 C 103.9,35.34 99.72,32.27 98.05,34.44 96.33,36.61 97.5,40.02 95.99,39.99 Z"
             id="rtid-path2473"
             style="fill:#ffffff;stroke-width:0.5218"
             sodipodi:nodetypes="cczcc"
             inkscape:connector-curvature="0" />
          <path
             d="M 0,63.99 H 8.001 C 7.972,65.79 5.794,64.18 4.609,65.58 3.421,66.98 3.336,65.66 2.376,67.38 1.416,69.13 4.061,69.84 2.433,70.45 0.8043,71.11 1.496,72.04 0,71.98 Z"
             id="rtid-path2475"
             style="fill:#ffffff;stroke-width:0.5218"
             sodipodi:nodetypes="cczzzcc"
             inkscape:connector-curvature="0" />
          <path
             d="M 31.99,63.99 H 40 C 39.98,64.87 40.61,65.1 39.26,66.8 37.94,68.52 37.07,66.48 36.43,68.07 35.06,71.53 35.8,70.9 34.87,71.03 33.02,71.27 33.5,72.04 31.99,71.98 Z"
             id="rtid-path2477"
             style="fill:#ffffff;stroke-width:0.5218"
             sodipodi:nodetypes="cczsscc"
             inkscape:connector-curvature="0" />
          <path
             d="M 64,63.99 H 71.99 C 71.94,67.35 71.07,69.26 69.37,70.95 67.68,72.67 65.51,72.04 64,71.98 Z"
             id="rtid-path2479"
             style="fill:#ffffff;stroke-width:0.5218"
             sodipodi:nodetypes="cczcc"
             inkscape:connector-curvature="0" />
          <path
             d="M 95.99,63.99 H 104 C 103.9,67.35 102.1,64.47 101.6,66.45 101,68.46 97.5,72.04 95.99,71.98 Z"
             id="rtid-path2481"
             style="fill:#ffffff;stroke-width:0.5218"
             sodipodi:nodetypes="cczcc"
             inkscape:connector-curvature="0" />
          <path
             d="M 0,95.98 H 8.001 C 7.948,99.34 6.879,99.87 6.765,102.4 6.654,105 1.496,104 0,104 Z"
             id="rtid-path2483"
             style="fill:#ffffff;stroke-width:0.5218"
             sodipodi:nodetypes="cczcc"
             inkscape:connector-curvature="0" />
          <path
             d="M 31.99,95.98 H 40 C 39.98,97.91 38.81,97.46 37.49,98.57 36.49,99.42 37.84,101.3 36.72,102 33.71,104.1 33.5,104 31.99,104 Z"
             id="rtid-path2485"
             style="fill:#ffffff;stroke-width:0.5218"
             sodipodi:nodetypes="ccsscc"
             inkscape:connector-curvature="0" />
          <path
             d="M 64,95.98 H 71.99 C 71.99,96.93 71.78,96.93 70.43,97.99 69.29,98.89 70.75,99.95 69.77,101 68.29,102.6 67.5,99.63 67.07,101.1 66.46,103.1 65.51,104 64,104 Z"
             id="rtid-path2487"
             style="fill:#ffffff;stroke-width:0.5218"
             sodipodi:nodetypes="ccssscc"
             inkscape:connector-curvature="0" />
          <path
             d="M 95.99,95.98 H 104 C 104,97.86 104.8,97.22 103.8,99.79 102.9,101.8 101.3,100.5 99.85,101.4 98.42,102.3 97.5,104 95.99,104 Z"
             id="rtid-path2489"
             style="fill:#ffffff;stroke-width:0.5218"
             sodipodi:nodetypes="ccszcc"
             inkscape:connector-curvature="0" />
        </g>
        <g
           id="rtid-g2525"
           transform="matrix(-1,0,0,1,128,0)">
          <path
             d="M 0,-0.0054 H 8.001 C 7.977,1.625 7.879,1.353 7.075,2.201 6.636,2.665 8.133,3.662 7.072,4.451 6.644,4.768 6.122,6.681 5.114,6.914 4.053,7.16 2.507,5.723 2.252,5.879 0.9546,6.676 1.496,8.033 0,7.996 Z"
             id="rtid-path2493"
             style="fill:#ffffff;stroke-width:0.5218"
             sodipodi:nodetypes="ccsssscc"
             inkscape:connector-curvature="0" />
          <path
             d="M 31.99,-0.0054 H 40 C 39.98,1.961 38.36,7.173 37.02,6.694 35.67,6.213 36.17,5.276 33.92,5.9 31.67,6.522 33.5,8.033 31.99,7.996 Z"
             id="rtid-path2495"
             style="fill:#ffffff;stroke-width:0.5218"
             sodipodi:nodetypes="cczzcc"
             inkscape:connector-curvature="0" />
          <path
             d="M 64,-0.0054 H 71.99 C 71.99,1.13 72.42,2.491 70.46,2.763 68.53,3.035 67.92,1.883 67.26,3.189 66.6,4.493 68.58,7.874 67.18,9.245 65.8,10.61 65.51,8.033 64,7.996 Z"
             id="rtid-path2497"
             style="fill:#ffffff;stroke-width:0.5218"
             sodipodi:nodetypes="cczzzcc"
             inkscape:connector-curvature="0" />
          <path
             d="M 95.99,-0.0054 H 104 C 103.9,3.345 100.6,4.858 98.5,3.919 96.33,2.982 97.5,8.033 95.99,7.996 Z"
             id="rtid-path2499"
             style="fill:#ffffff;stroke-width:0.5218"
             sodipodi:nodetypes="cczcc"
             inkscape:connector-curvature="0" />
          <path
             d="M 0,31.98 H 8.001 C 7.977,33.46 5.371,33.67 6.63,34.62 8.268,35.84 7.49,35.87 7.443,36.95 7.361,38.83 8.276,38.25 7.064,39.6 5.747,41.08 4.31,40.55 2.608,39.81 1.054,39.15 0.3768,39.99 0,39.99 Z"
             id="rtid-path2501"
             style="fill:#ffffff;stroke-width:0.5218"
             sodipodi:nodetypes="ccsssscc"
             inkscape:connector-curvature="0" />
          <path
             d="M 31.99,31.98 H 40 C 39.95,35.34 37.17,35.39 35.88,36.42 34.61,37.45 33.5,40.02 31.99,39.99 Z"
             id="rtid-path2503"
             style="fill:#ffffff;stroke-width:0.5218"
             sodipodi:nodetypes="cczcc"
             inkscape:connector-curvature="0" />
          <path
             d="M 64,31.98 H 71.99 C 71.94,35.34 75.14,33.49 73.55,35.26 71.99,37.03 65.51,40.02 64,39.99 Z"
             id="rtid-path2505"
             style="fill:#ffffff;stroke-width:0.5218"
             sodipodi:nodetypes="cczcc"
             inkscape:connector-curvature="0" />
          <path
             d="M 95.99,31.98 H 104 C 103.9,35.34 99.72,32.27 98.05,34.44 96.33,36.61 97.5,40.02 95.99,39.99 Z"
             id="rtid-path2507"
             style="fill:#ffffff;stroke-width:0.5218"
             sodipodi:nodetypes="cczcc"
             inkscape:connector-curvature="0" />
          <path
             d="M 0,63.99 H 8.001 C 7.972,65.79 5.794,64.18 4.609,65.58 3.421,66.98 3.336,65.66 2.376,67.38 1.416,69.13 4.061,69.84 2.433,70.45 0.8043,71.11 1.496,72.04 0,71.98 Z"
             id="rtid-path2509"
             style="fill:#ffffff;stroke-width:0.5218"
             sodipodi:nodetypes="cczzzcc"
             inkscape:connector-curvature="0" />
          <path
             d="M 31.99,63.99 H 40 C 39.98,64.87 40.61,65.1 39.26,66.8 37.94,68.52 37.07,66.48 36.43,68.07 35.06,71.53 35.8,70.9 34.87,71.03 33.02,71.27 33.5,72.04 31.99,71.98 Z"
             id="rtid-path2511"
             style="fill:#ffffff;stroke-width:0.5218"
             sodipodi:nodetypes="cczsscc"
             inkscape:connector-curvature="0" />
          <path
             d="M 64,63.99 H 71.99 C 71.94,67.35 71.07,69.26 69.37,70.95 67.68,72.67 65.51,72.04 64,71.98 Z"
             id="rtid-path2513"
             style="fill:#ffffff;stroke-width:0.5218"
             sodipodi:nodetypes="cczcc"
             inkscape:connector-curvature="0" />
          <path
             d="M 95.99,63.99 H 104 C 103.9,67.35 102.1,64.47 101.6,66.45 101,68.46 97.5,72.04 95.99,71.98 Z"
             id="rtid-path2515"
             style="fill:#ffffff;stroke-width:0.5218"
             sodipodi:nodetypes="cczcc"
             inkscape:connector-curvature="0" />
          <path
             d="M 0,95.98 H 8.001 C 7.948,99.34 6.879,99.87 6.765,102.4 6.654,105 1.496,104 0,104 Z"
             id="rtid-path2517"
             style="fill:#ffffff;stroke-width:0.5218"
             sodipodi:nodetypes="cczcc"
             inkscape:connector-curvature="0" />
          <path
             d="M 31.99,95.98 H 40 C 39.98,97.91 38.81,97.46 37.49,98.57 36.49,99.42 37.84,101.3 36.72,102 33.71,104.1 33.5,104 31.99,104 Z"
             id="rtid-path2519"
             style="fill:#ffffff;stroke-width:0.5218"
             sodipodi:nodetypes="ccsscc"
             inkscape:connector-curvature="0" />
          <path
             d="M 64,95.98 H 71.99 C 71.99,96.93 71.78,96.93 70.43,97.99 69.29,98.89 70.75,99.95 69.77,101 68.29,102.6 67.5,99.63 67.07,101.1 66.46,103.1 65.51,104 64,104 Z"
             id="rtid-path2521"
             style="fill:#ffffff;stroke-width:0.5218"
             sodipodi:nodetypes="ccssscc"
             inkscape:connector-curvature="0" />
          <path
             d="M 95.99,95.98 H 104 C 104,97.86 104.8,97.22 103.8,99.79 102.9,101.8 101.3,100.5 99.85,101.4 98.42,102.3 97.5,104 95.99,104 Z"
             id="rtid-path2523"
             style="fill:#ffffff;stroke-width:0.5218"
             sodipodi:nodetypes="ccszcc"
             inkscape:connector-curvature="0" />
        </g>
      </g>
    </mask>
  </defs>
  <sodipodi:namedview
     bordercolor="#666666"
     borderopacity="1"
     gridtolerance="10"
     guidetolerance="10"
     id="rtid-namedview3444"
     objecttolerance="10"
     pagecolor="#ffffff"
     showgrid="false"
     inkscape:current-layer="rtid-models_layer"
     inkscape:cx="212.86003"
     inkscape:cy="97.623722"
     inkscape:pageopacity="0"
     inkscape:pageshadow="2"
     inkscape:window-height="1059"
     inkscape:window-maximized="0"
     inkscape:window-width="1918"
     inkscape:window-x="1"
     inkscape:window-y="20"
     inkscape:zoom="3.9032294" />
  <metadata
     id="rtid-metadata1919">
    <rdf:RDF>
      <cc:Work
         rdf:about="">
        <dc:format>image/svg+xml</dc:format>
        <dc:type
           rdf:resource="http://purl.org/dc/dcmitype/StillImage" />
        <dc:title />
      </cc:Work>
    </rdf:RDF>
  </metadata>
  <g
     id="rtid-models_layer"
     inkscape:groupmode="layer"
     inkscape:label="Models"
     sodipodi:insensitive="true"
     style="display:none">
    <g
       id="rtid-bg_b_model">
      <rect
         height="128"
         id="rtid-rtid-rect2648-6"
         style="fill:#800000;stroke-width:2;stroke-linecap:round;stroke-linejoin:round;paint-order:markers fill stroke"
         width="128"
         x="0"
         y="0" />
      <text
         id="rtid-rtid-text2652-2"
         style="font-size:10.58329964px;line-height:1.25;font-family:sans-serif;letter-spacing:0px;word-spacing:0px;fill:#000000;stroke-width:0.26460001"
         x="12.47"
         y="19.639999"
         xml:space="preserve"><tspan
           id="rtid-rtid-tspan2650-6"
           x="12.47"
           y="19.639999"
           sodipodi:role="line">B</tspan></text>
    </g>
  </g>
  <g
     id="rtid-bg_b_layer"
     sodipodi:insensitive="true"
     inkscape:groupmode="layer"
     inkscape:label="Background B">
    <use
       height="100%"
       id="rtid-bgb30"
       mask="url(#rtid-mask2457)"
       width="100%"
       x="0"
       y="0"
       xlink:href="#rtid-bg_b_model" />
  </g>
  <g
     id="rtid-layer3"
     inkscape:groupmode="layer"
     inkscape:label="borders"
     sodipodi:insensitive="true">
    <g
       id="rtid-g1046">
      <path
         d="m 7.75,96 c -0.056,1.43 -0.317,2.63 -0.582,3.43 -0.286,0.87 -0.595,1.67 -0.652,2.97 -0.024,0.6 -0.29,0.9 -0.758,1.1 -0.468,0.3 -1.141,0.4 -1.867,0.4 C 2.529,104 0.8398,103.75 0,103.75 v 0.5 c 0.7015,0 2.386,0.25 3.914,0.15 0.764,0 1.495,-0.1 2.072,-0.4 0.578,-0.3 0.998,-0.8 1.03,-1.6 0.054,-1.2 0.336,-1.9 0.627,-2.81 C 7.933,98.72 8.224,97.7 8.25,96 h -0.5"
         id="rtid-frontier-4"
         mask="none"
         style="color:#000000;fill:#000000;stroke-width:0.18709999"
         sodipodi:nodetypes="ccccccccccccc"
         inkscape:connector-curvature="0" />
      <path
         d="m 39.75,96 c -0.03,0.27 -0.11,0.79 -0.19,0.93 -0.11,0.2 -0.25,0.33 -0.46,0.45 -0.41,0.24 -1.08,0.43 -1.78,1.02 -0.31,0.25 -0.44,0.6 -0.48,0.95 -0.03,0.34 0.01,0.65 0.05,1.05 0.04,0.3 0.06,0.6 0.03,0.9 -0.04,0.2 -0.13,0.4 -0.34,0.5 -1.5,1 -2.3,1.5 -2.88,1.8 -0.49,0.2 -1.14,0.15 -1.7,0.15 v 0.5 c 0.75,0 1.23,0.05 1.88,-0.25 0.66,-0.2 1.47,-0.7 2.98,-1.8 0.33,-0.2 0.5,-0.5 0.55,-0.9 0.05,-0.3 0.01,-0.6 -0.02,-1 -0.04,-0.31 -0.08,-0.64 -0.05,-0.9 0.03,-0.26 0.11,-0.46 0.3,-0.62 0.63,-0.52 1.21,-0.67 1.71,-0.97 0.26,-0.15 0.49,-0.34 0.65,-0.64 0.16,-0.29 0.24,-0.67 0.25,-1.17 h -0.5"
         id="rtid-frontier-3-8"
         mask="none"
         style="color:#000000;fill:#000000;stroke-width:0.18709999"
         sodipodi:nodetypes="cccccccccccccccsccccc"
         inkscape:connector-curvature="0" />
      <path
         d="m 64,104.25 c 0.8,0 1.491023,-0.27722 2.04,-0.75 0.662389,-0.57046 0.96,-1.3 1.26,-2.3 0.05,-0.2 0.09,-0.2 0.11,-0.2 0.04,0 0.227779,0.10247 0.45,0.3 0.227807,0.20249 0.523333,0.35045 0.89,0.4 0.379823,0.0513 0.797893,-0.0921 1.2,-0.5 0.288077,-0.29225 0.403654,-0.69966 0.43,-1 0.02366,-0.269704 -0.04,-0.56 -0.09,-0.81 -0.05,-0.25 -0.09,-0.47 -0.06,-0.65 0.03,-0.18 0.109947,-0.350068 0.35,-0.54 0.669947,-0.530068 1.062471,-0.787804 1.32,-1.08 0.262489,-0.297824 0.34,-0.64 0.35,-1.12 h -0.5 c -0.02,0.19 -0.09774,0.641967 -0.22,0.78 -0.187769,0.211997 -0.578636,0.491722 -1.26,1.03 -0.318643,0.251728 -0.485855,0.560602 -0.53,0.85 -0.04586,0.30066 0.01,0.57 0.06,0.83 0.05,0.26 0.100944,0.490088 0.08,0.71 -0.01906,0.20009 -0.106,0.38444 -0.3,0.6 -0.346895,0.38544 -0.552761,0.45299 -0.77,0.4 -0.204019,-0.0498 -0.42,-0.1 -0.63,-0.3 -0.21,-0.2 -0.377614,-0.33515 -0.65,-0.4 -0.167368,-0.0399 -0.34,0 -0.46,0.1 -0.12,0.1 -0.191534,0.19955 -0.25,0.4 -0.291536,0.99955 -0.684011,1.68477 -1.12,2.1 -0.404546,0.38528 -1.14,0.55 -1.7,0.65 v 0.5"
         id="rtid-frontier-3-6-1"
         mask="none"
         style="color:#000000;fill:#000000;stroke-width:0.18709999"
         sodipodi:nodetypes="cacsssssssssccsssssssssssscc"
         inkscape:connector-curvature="0" />
      <path
         d="m 96,104.25 c 0.85,0 1.51,-0.45 2.11,-1.05 0.61,-0.5 1.19,-1.2 1.87,-1.6 0.62,-0.4 1.32,-0.3 2.12,-0.3 0.3,0 0.7,-0.1 1,-0.3 0.4,-0.2 0.7,-0.6 0.9,-1.1 0.5,-1.3 0.6,-1.86 0.5,-2.31 -0.1,-0.45 -0.25,-0.7 -0.25,-1.59 h -0.5 c 0.1,0.68 0.25,1.4 0.25,1.69 0.1,0.33 0.1,0.75 -0.5,2.02 -0.2,0.49 -0.4,0.69 -0.6,0.89 -0.3,0.1 -0.5,0.2 -0.9,0.2 -0.6,0 -1.5,-0.1 -2.27,0.4 -0.78,0.4 -1.37,1.1 -1.96,1.6 -0.5,0.5 -1.24,0.85 -1.77,0.95 v 0.5"
         id="rtid-frontier-3-6-7-0"
         mask="none"
         style="color:#000000;fill:#000000;stroke-width:0.18709999"
         sodipodi:nodetypes="cccsccscccccscccc"
         inkscape:connector-curvature="0" />
      <path
         d="M 0,72.25 C 0.3994,72.26 0.6785,72.21 0.9004,72.09 1.122,71.97 1.258,71.79 1.371,71.63 1.598,71.31 1.759,71 2.523,70.71 2.745,70.62 2.91,70.53 3.033,70.41 3.157,70.29 3.23,70.12 3.227,69.96 3.22,69.65 3.027,69.44 2.859,69.21 2.691,68.97 2.522,68.73 2.449,68.46 2.376,68.2 2.381,67.91 2.594,67.52 2.826,67.1 3.001,66.88 3.127,66.77 3.253,66.66 3.325,66.65 3.457,66.62 3.589,66.59 3.783,66.57 4.01,66.45 4.237,66.33 4.489,66.12 4.799,65.75 5.056,65.45 5.351,65.31 5.684,65.25 6.016,65.18 6.382,65.19 6.736,65.19 7.09,65.2 7.438,65.2 7.744,65.03 8.05,64.86 8.242,64.5 8.25,64 c 0,0 -0.5,0 -0.5,0 -0.042,0.12 -0.16,0.55 -0.244,0.59 -0.147,0.08 -0.423,0.11 -0.766,0.1 -0.342,0 -0.744,-0.02 -1.154,0.07 -0.41,0.08 -0.834,0.27 -1.17,0.67 C 4.133,65.77 3.93,65.92 3.777,66 3.624,66.08 3.515,66.1 3.357,66.13 3.2,66.16 2.996,66.22 2.799,66.4 c -0.197,0.17 -0.395,0.44 -0.643,0.88 -0.267,0.49 -0.29,0.94 -0.187,1.31 0.102,0.38 0.314,0.67 0.484,0.91 0.17,0.23 0.272,0.42 0.274,0.47 0,0.03 0.006,0.03 -0.041,0.08 -0.048,0.05 -0.158,0.12 -0.344,0.19 -0.864,0.34 -1.17,0.81 -1.3791,1.1 -0.1044,0.15 -0.1788,0.24 -0.2988,0.31 -0.0755,0.04 -0.5115,0.08 -0.6641,0.1 0,0 0,0.5 0,0.5"
         id="rtid-frontier-5-30"
         mask="none"
         style="color:#000000;fill:#000000;stroke-width:0.18709999"
         inkscape:connector-curvature="0" />
      <path
         d="m 39.75,64 c 0.04,0.32 0.14,0.86 0.13,1.1 -0.01,0.31 -0.15,0.74 -0.81,1.57 -0.31,0.4 -0.57,0.55 -0.78,0.6 -0.22,0.06 -0.42,0.02 -0.65,-0.03 -0.22,-0.05 -0.47,-0.12 -0.76,-0.04 -0.28,0.09 -0.5,0.34 -0.67,0.78 -0.69,1.74 -0.87,2.5 -0.96,2.74 -0.01,0.04 -0.01,0.03 -0.01,0.04 -0.04,0 -0.17,-0.01 -0.41,0.03 -0.95,0.13 -1.37,0.42 -1.67,0.63 -0.23,0.17 -0.76,0.3 -1.16,0.33 0,0 0,0.5 0,0.5 0.79,0.02 1.15,-0.21 1.45,-0.42 0.3,-0.22 0.57,-0.43 1.45,-0.55 0.21,-0.03 0.3,-0.01 0.45,-0.03 0.08,-0.01 0.18,-0.05 0.25,-0.13 0.06,-0.07 0.09,-0.15 0.12,-0.23 0.12,-0.34 0.27,-1 0.95,-2.73 0.15,-0.36 0.26,-0.45 0.36,-0.48 0.1,-0.03 0.27,0 0.5,0.05 0.24,0.05 0.54,0.11 0.88,0.03 0.34,-0.09 0.69,-0.33 1.05,-0.78 0.69,-0.87 0.9,-1.41 0.92,-1.87 0.02,-0.45 -0.14,-0.73 -0.13,-1.11 0,0 -0.5,0 -0.5,0"
         id="rtid-frontier-3-62-4"
         mask="none"
         style="color:#000000;fill:#000000;stroke-width:0.18709999"
         inkscape:connector-curvature="0" />
      <path
         d="m 71.75,64 c -0.1,3.11 -0.94,5.17 -2.55,6.79 -1.53,1.53 -3.67,1.04 -5.2,0.96 0,0 0,0.5 0,0.5 1.43,0.04 3.76,0.7 5.55,-1.11 1.74,-1.74 2.65,-3.75 2.7,-7.14 0,0 -0.5,0 -0.5,0"
         id="rtid-frontier-3-6-9-4"
         mask="none"
         style="color:#000000;fill:#000000;stroke-width:0.18709999"
         inkscape:connector-curvature="0" />
      <path
         d="m 103.75,64 c -0.1,0.54 -0.15,1.24 -0.25,1.36 -0.1,0.08 -0.1,0.11 -0.2,0.12 -0.1,0.02 -0.2,0.02 -0.3,0.01 -0.2,-0.02 -0.5,-0.11 -0.9,-0.02 -0.3,0.09 -0.6,0.38 -0.8,0.93 -0.2,0.92 -1.2,2.31 -2.35,3.43 -0.55,0.55 -1.14,1.05 -1.67,1.4 -0.42,0.28 -1,0.47 -1.28,0.52 v 0.5 c 0.48,0.01 0.99,-0.23 1.56,-0.61 0.56,-0.37 1.17,-0.88 1.75,-1.46 1.19,-1.15 2.19,-2.54 2.49,-3.64 0.1,-0.45 0.3,-0.54 0.5,-0.58 0.1,-0.05 0.4,0 0.7,0.03 0.1,0.01 0.3,0.02 0.4,-0.02 0.2,-0.04 0.4,-0.14 0.5,-0.3 0.2,-0.31 0.25,-0.81 0.35,-1.67 h -0.5"
         id="rtid-frontier-3-6-7-1-4"
         mask="none"
         style="color:#000000;fill:#000000;stroke-width:0.18709999"
         sodipodi:nodetypes="cccsccccccccccscccc"
         inkscape:connector-curvature="0" />
      <path
         d="m 7.75,32 c -0.055,0.16 -0.201,0.58 -0.332,0.72 -0.201,0.21 -0.475,0.4 -0.729,0.58 -0.253,0.18 -0.502,0.34 -0.613,0.63 -0.055,0.15 -0.048,0.33 0.028,0.48 0.075,0.15 0.201,0.28 0.376,0.42 0.402,0.3 0.648,0.52 0.782,0.69 0.134,0.16 0.155,0.25 0.156,0.33 0.002,0.17 -0.199,0.49 -0.225,1.09 -0.042,0.98 0.192,1.42 0.241,1.61 C 7.458,38.64 7.466,38.66 7.4,38.79 7.335,38.91 7.175,39.12 6.877,39.46 6.258,40.15 5.669,40.34 4.994,40.31 4.319,40.27 3.554,39.97 2.707,39.6 1.882,39.24 1.243,39.29 0.7871,39.43 0.5641,39.5 0.1369,39.68 0,39.75 c 0,0 0,0.5 0,0.5 0.1904,0.01 0.3136,-0.07 0.457,-0.14 C 0.6005,40.04 0.7549,39.96 0.9375,39.9 1.303,39.79 1.778,39.74 2.508,40.06 3.362,40.43 4.166,40.76 4.965,40.8 5.763,40.85 6.551,40.57 7.25,39.79 7.557,39.45 7.737,39.22 7.844,39.01 7.95,38.81 7.96,38.59 7.918,38.43 7.833,38.09 7.654,37.87 7.693,36.96 7.714,36.49 7.924,36.26 7.918,35.85 7.915,35.64 7.828,35.42 7.648,35.2 7.469,34.98 7.199,34.74 6.781,34.43 6.642,34.32 6.574,34.24 6.551,34.19 6.528,34.15 6.533,34.14 6.545,34.11 6.569,34.04 6.737,33.88 6.98,33.71 7.224,33.53 7.527,33.33 7.781,33.06 8.035,32.79 8.243,32.44 8.25,32 c 0,0 -0.5,0 -0.5,0"
         id="rtid-frontier-2-4"
         mask="none"
         style="color:#000000;fill:#000000;stroke-width:0.18709999"
         inkscape:connector-curvature="0" />
      <path
         d="m 39.75,32 c -0.1,1.39 -0.72,2.38 -1.48,2.88 -0.82,0.53 -1.83,0.79 -2.54,1.36 -0.69,0.55 -1.28,1.46 -1.9,2.22 -0.3,0.37 -0.61,0.71 -0.92,0.94 -0.23,0.17 -0.69,0.31 -0.91,0.35 0,0 0,0.5 0,0.5 0.45,0.01 0.85,-0.17 1.21,-0.45 0.36,-0.27 0.69,-0.64 1.01,-1.03 0.64,-0.78 1.24,-1.67 1.82,-2.14 0.58,-0.46 1.6,-0.74 2.5,-1.33 0.91,-0.59 1.68,-1.56 1.71,-3.3 0,0 -0.5,0 -0.5,0"
         id="rtid-frontier-3-7-7"
         mask="none"
         style="color:#000000;fill:#000000;stroke-width:0.18709999"
         inkscape:connector-curvature="0" />
      <path
         d="m 71.75,32 c 0.04,0.69 0.23,1.5 0.49,1.83 0.31,0.38 0.71,0.54 1.03,0.64 0.15,0.04 0.29,0.08 0.38,0.11 0.09,0.03 0.11,0.06 0.09,0.03 -0.02,-0.03 0.01,-0.05 -0.04,0.04 -0.04,0.09 -0.15,0.24 -0.34,0.46 -0.71,0.81 -2.73,2.02 -4.72,2.98 -0.99,0.48 -1.99,0.9 -2.82,1.2 -0.72,0.26 -1.48,0.43 -1.82,0.46 0,0 0,0.5 0,0.5 0.46,0.01 1.13,-0.18 1.99,-0.49 0.85,-0.3 1.86,-0.73 2.87,-1.22 2.02,-0.97 4.03,-2.14 4.87,-3.1 0.2,-0.23 0.34,-0.4 0.42,-0.57 0.08,-0.16 0.11,-0.36 0.02,-0.51 -0.09,-0.16 -0.23,-0.21 -0.36,-0.25 -0.13,-0.05 -0.26,-0.08 -0.4,-0.12 -0.28,-0.09 -0.56,-0.2 -0.78,-0.47 -0.22,-0.27 -0.39,-0.72 -0.38,-1.52 0,0 -0.5,0 -0.5,0"
         id="rtid-frontier-3-6-0-6"
         mask="none"
         style="color:#000000;fill:#000000;stroke-width:0.18709999"
         inkscape:connector-curvature="0" />
      <path
         d="m 103.75,32 c -0.1,1.16 -0.35,1.13 -0.55,1.27 -0.4,0.17 -0.9,0.18 -1.5,0.14 -0.7,-0.04 -1.4,-0.12 -2.05,-0.05 -0.68,0.08 -1.34,0.32 -1.81,0.92 -0.91,1.16 -1.04,2.62 -1.15,3.74 -0.05,0.57 -0.11,1.05 -0.22,1.35 -0.05,0.15 -0.11,0.24 -0.18,0.3 -0.01,0.01 -0.28,0.07 -0.29,0.08 v 0.5 c 0.23,0.01 0.44,-0.06 0.61,-0.2 0.16,-0.13 0.26,-0.31 0.34,-0.51 0.14,-0.4 0.18,-0.91 0.24,-1.47 0.11,-1.12 0.25,-2.46 1.04,-3.48 0.38,-0.48 0.88,-0.67 1.47,-0.73 0.6,-0.06 1.3,0.01 1.9,0.05 0.7,0.04 1.7,0.06 2.2,-0.2 0.5,-0.25 0.35,-0.82 0.45,-1.71 h -0.5"
         id="rtid-frontier-3-6-7-9-3"
         mask="none"
         style="color:#000000;fill:#000000;stroke-width:0.18709999"
         sodipodi:nodetypes="ccccccccccccccccccc"
         inkscape:connector-curvature="0" />
      <path
         d="M 0,8.25 C 0.4114,8.261 0.7186,8.171 0.9493,7.998 1.18,7.826 1.312,7.593 1.424,7.365 1.64,6.926 1.817,6.494 2.35,6.143 2.395,6.161 2.456,6.188 2.537,6.233 2.724,6.335 2.975,6.494 3.258,6.652 3.823,6.969 4.511,7.315 5.172,7.162 5.813,7.014 6.209,6.404 6.527,5.842 6.687,5.561 6.827,5.283 6.947,5.063 7.068,4.842 7.19,4.679 7.221,4.656 7.529,4.427 7.688,4.138 7.709,3.856 7.73,3.574 7.635,3.321 7.535,3.104 7.435,2.886 7.323,2.693 7.273,2.557 7.249,2.489 7.241,2.438 7.242,2.414 7.243,2.39 7.243,2.393 7.258,2.377 7.646,1.967 7.886,1.826 8.051,1.514 8.216,1.201 8.237,0.8203 8.25,0 8.25,0 7.75,0 7.75,0 7.731,0.5006 7.68,1.142 7.607,1.279 7.517,1.45 7.308,1.596 6.895,2.033 6.8,2.133 6.749,2.27 6.744,2.393 6.739,2.515 6.767,2.624 6.805,2.727 6.879,2.932 6.994,3.124 7.08,3.313 7.167,3.501 7.22,3.677 7.209,3.818 7.198,3.96 7.145,4.09 6.922,4.256 6.738,4.392 6.637,4.587 6.508,4.822 6.379,5.057 6.244,5.33 6.094,5.596 5.793,6.127 5.425,6.591 5.059,6.676 4.658,6.768 4.041,6.518 3.504,6.217 3.235,6.066 2.986,5.91 2.777,5.795 2.673,5.738 2.581,5.689 2.486,5.656 2.392,5.623 2.274,5.576 2.121,5.67 1.405,6.109 1.18,6.731 0.9766,7.145 0.8749,7.351 0.7795,7.501 0.6504,7.598 0.5702,7.658 0.1443,7.725 0,7.75 c 0,0 0,0.5 0,0.5"
         id="rtid-frontier-5-3-1"
         mask="none"
         style="color:#000000;fill:#000000;stroke-width:0.18709999"
         inkscape:connector-curvature="0" />
      <path
         d="m 32,8.25 c 0.21,0.005 0.37,-0.014 0.51,-0.072 0.15,-0.058 0.26,-0.167 0.33,-0.289 0.12,-0.245 0.08,-0.476 0.08,-0.684 0.01,-0.208 0.03,-0.386 0.16,-0.556 0.12,-0.171 0.37,-0.356 0.9,-0.502 0.56,-0.153 0.93,-0.206 1.18,-0.2 0.25,0.007 0.37,0.062 0.5,0.149 0.26,0.173 0.53,0.577 1.27,0.838 0.24,0.086 0.51,0.038 0.72,-0.088 0.22,-0.126 0.41,-0.322 0.6,-0.565 0.36,-0.485 0.69,-1.166 0.99,-1.923 0.58,-1.515 0.99,-3.31 1.01,-4.358 0,0 -0.5,0 -0.5,0 C 39.69,0.9592 39.3,2.803 38.77,4.178 38.49,4.909 38.16,5.562 37.85,5.98 37.69,6.19 37.53,6.337 37.4,6.412 37.28,6.487 37.19,6.497 37.1,6.463 36.48,6.243 36.33,5.939 35.94,5.68 35.75,5.55 35.5,5.458 35.17,5.449 34.84,5.44 34.43,5.505 33.85,5.664 c -0.6,0.165 -0.96,0.401 -1.18,0.688 -0.21,0.286 -0.24,0.601 -0.25,0.843 0,0.243 -0.01,0.422 -0.03,0.469 C 32.38,7.687 32.38,7.695 32.33,7.715 32.31,7.72 32.02,7.745 32,7.75"
         id="rtid-frontier-3-62-6-7"
         mask="none"
         style="color:#000000;fill:#000000;stroke-width:0.18709999"
         inkscape:connector-curvature="0" />
      <path
         d="m 64,8.25 c 0.3,0.008 0.53,0.14 0.77,0.344 0.23,0.204 0.45,0.478 0.68,0.728 0.23,0.251 0.47,0.494 0.82,0.563 0.34,0.069 0.72,-0.083 1.1,-0.457 0.41,-0.4 0.56,-0.944 0.58,-1.512 C 67.97,7.348 67.87,6.742 67.74,6.147 67.62,5.551 67.48,4.965 67.41,4.463 67.34,3.961 67.36,3.551 67.48,3.309 c 0.16,-0.3 0.28,-0.417 0.39,-0.465 0.11,-0.048 0.25,-0.048 0.47,-0.006 0.44,0.084 1.14,0.321 2.16,0.178 0.52,-0.072 0.9,-0.221 1.18,-0.44 C 71.96,2.357 72.12,2.069 72.2,1.771 72.36,1.177 72.24,0.534 72.25,0 c 0,0 -0.5,0 -0.5,0 0.01,0.5068 0.07,1.273 -0.03,1.643 -0.06,0.218 -0.16,0.392 -0.35,0.541 -0.19,0.148 -0.48,0.272 -0.94,0.336 -0.92,0.128 -1.49,-0.075 -2,-0.172 -0.25,-0.049 -0.51,-0.073 -0.76,0.039 -0.25,0.111 -0.45,0.34 -0.63,0.693 -0.21,0.41 -0.2,0.91 -0.12,1.451 0.07,0.542 0.22,1.132 0.34,1.715 0.12,0.584 0.21,1.16 0.19,1.652 C 67.43,8.391 67.31,8.784 67.02,9.07 66.7,9.383 66.52,9.425 66.36,9.395 66.21,9.364 66.03,9.216 65.82,8.986 65.61,8.757 65.38,8.465 65.1,8.217 64.88,8.024 64.32,7.821 64,7.75 c 0,0 0,0.5 0,0.5"
         id="rtid-frontier-3-6-9-0-5"
         mask="none"
         style="color:#000000;fill:#000000;stroke-width:0.18709999"
         inkscape:connector-curvature="0" />
      <path
         d="m 96,8.25 c 0.26,0.007 0.48,-0.113 0.64,-0.289 0.15,-0.176 0.24,-0.397 0.31,-0.642 0.15,-0.492 0.2,-1.095 0.28,-1.659 0.08,-0.563 0.19,-1.086 0.36,-1.355 0.09,-0.135 0.17,-0.203 0.28,-0.233 0.1,-0.029 0.26,-0.02 0.5,0.082 2.33,1.015 5.88,-0.641 5.88,-4.154 h -0.5 C 103.55,2.977 100.5,4.531 98.57,3.695 98.26,3.563 97.98,3.523 97.74,3.59 97.49,3.657 97.3,3.831 97.17,4.037 96.91,4.45 96.82,5.012 96.74,5.59 96.66,6.167 96.59,6.762 96.47,7.178 96.41,7.386 96.33,7.544 96.26,7.633 96.26,7.636 96,7.747 96,7.75 v 0.5"
         id="rtid-frontier-3-6-7-1-6-9"
         mask="none"
         style="color:#000000;fill:#000000;stroke-width:0.18709999"
         sodipodi:nodetypes="cccccccccccccscsc"
         inkscape:connector-curvature="0" />
    </g>
    <use
       height="100%"
       id="rtid-use2110"
       transform="matrix(-1,0,0,1,128,0)"
       width="100%"
       x="0"
       y="0"
       xlink:href="#rtid-g1046" />
  </g>
</svg>
