<?xml version="1.0" encoding="UTF-8" standalone="no"?>
<svg
    xmlns:dc="http://purl.org/dc/elements/1.1/"
    xmlns:cc="http://creativecommons.org/ns#"
    xmlns:rdf="http://www.w3.org/1999/02/22-rdf-syntax-ns#"
    xmlns:svg="http://www.w3.org/2000/svg"
    xmlns="http://www.w3.org/2000/svg"
    xmlns:xlink="http://www.w3.org/1999/xlink"
    xmlns:sodipodi="http://sodipodi.sourceforge.net/DTD/sodipodi-0.dtd"
    xmlns:inkscape="http://www.inkscape.org/namespaces/inkscape"
    width="128mm"
    height="128mm"
    viewBox="0 0 128 128"
    version="1.1"
    id="base_svg"
    sodipodi:docname="Bbottomandrightborders.svg"
    inkscape:version="0.92.2 5c3e80d, 2017-08-06">
   <defs
       id="defs921">
      <mask
          maskUnits="userSpaceOnUse"
          id="mask1933">
         <g
             id="g1967"
             transform="matrix(-1,0,0,1,128,0)">
            <path
                sodipodi:nodetypes="cccssssccc"
                inkscape:connector-curvature="0"
                id="path1935"
                d="M 0,128 H 32 V 120 C 31.38,120 26.62,120.2 22.54,121.5 18.84,122.7 15.83,125.1 14.43,125.1 11.47,124.9 4.732,121.2 4.574,118.4 4.507,117.2 4.525,109.7 5.008,106.2 5.665,101.6 8.006,96.44 8,96 H 0 Z"
                style="fill:#ffffff;stroke-width:0.5218" />
            <path
                sodipodi:nodetypes="cccssssssssccc"
                inkscape:connector-curvature="0"
                id="path1937"
                d="M 32,128 H 64 V 120 C 63.37,120 62.5348,119.501 58.4616,120.822 57.6462,121.087 53.0851,123.633 52.3728,123.848 49.8529,124.609 47.8579,123.411 46.7689,123.338 45.3157,123.239 42.6833,124.06 40.6367,122.795 38.5147,121.483 38.7645,118.876 38.6814,117.451 38.6403,116.748 38.826,115.034 38.9194,112.077 38.9854,109.987 36.8021,107.649 37.01,106.2 37.298,104.193 38.9905,103.502 39.5834,101.721 40.3493,99.419 40.0056,96.248 40,96 H 32 Z"
                style="fill:#ffffff;stroke-width:0.5216" />
            <path
                sodipodi:nodetypes="cccssssssccc"
                inkscape:connector-curvature="0"
                id="path1939"
                d="M 64,128 H 96 V 120 C 95.37,120 91.0167,119.59 86.9267,120.89 83.2267,122.09 81.996,121.195 79.9891,121.168 78.1081,121.144 72.7398,124.298 70.3704,120.764 69.003,118.725 70.3083,115.281 70.4102,113.316 70.4725,112.116 70.2027,108.614 70.7046,105.115 71.0322,102.832 71.028,102.367 71.6905,100.449 72.3629,98.5019 71.9373,98.5062 72,96 H 64 Z"
                style="fill:#ffffff;stroke-width:0.5216" />
            <path
                sodipodi:nodetypes="cccssssssccc"
                inkscape:connector-curvature="0"
                id="path1941"
                d="M 96,128 H 128 V 120 C 123.914,120.068 124.104,119.518 120.772,120.239 119.947,120.417 117.077,119.886 116.263,120.144 112.555,121.32 111.461,116.762 110.061,116.762 107.161,116.562 103.886,117.878 103.786,115.078 103.686,113.878 102.298,110.848 102.83,107.352 103.133,105.36 104.139,104.395 104.336,102.372 104.595,99.7225 104,99.4127 104,96 H 96 Z"
                style="fill:#ffffff;stroke-width:0.5217" />
            <path
                sodipodi:nodetypes="cccsssssssccc"
                inkscape:connector-curvature="0"
                id="path1943"
                d="M 96,96 H 128 V 88 C 125.416,88.0346 121.399,88.0757 119.125,88.6127 118.251,88.819 114.653,86.0236 113.515,86.3844 111.702,86.9593 113.004,91.5663 112.526,92.3732 112.233,92.8684 106.984,95.5382 103.976,94.7396 100.874,93.9163 99.7868,89.3613 99.4236,88.882 97.6681,86.5651 104.439,83.6879 104.339,80.8879 104.239,79.6879 102.849,77.8538 103.349,74.3438 104.049,69.7438 104,64.4 104,64 H 96 Z"
                style="fill:#ffffff;stroke-width:0.5217" />
            <path
                sodipodi:nodetypes="cccsssssssccc"
                inkscape:connector-curvature="0"
                id="path1945"
                d="M 64,96 H 96 V 87.99 C 92.1285,87.99 91.1761,87.3911 88.8645,87.7303 87.3271,87.9559 85.3516,86.8138 83.71,87.3331 80.0013,88.5061 77.4034,86.7151 76.0034,86.7151 73.1034,86.5051 66.3513,88.7107 66.2513,85.9107 66.1513,84.7107 65.7345,77.8968 66.2679,74.3917 66.4295,73.3299 66.7405,70.5305 67.9347,69.8874 68.9631,69.3335 70.857,70.9362 71.4144,70.1132 72.3279,68.7646 72,67.4875 72,64 H 64 Z"
                style="fill:#ffffff;stroke-width:0.5216" />
            <path
                sodipodi:nodetypes="cccssssssccc"
                inkscape:connector-curvature="0"
                id="path1947"
                d="M 32,96 H 64 V 88 C 60.7041,88.0479 60.1859,87.6742 57.2152,88.2305 56.097,88.4399 53.3484,87.2752 52.2272,87.6307 48.5194,88.8063 46.1224,89.6489 44.7224,89.6489 41.8224,89.4489 43.7744,84.7591 41.1535,85.8048 37.7942,87.1452 40.6846,83.2652 36.8562,78.1304 35.6105,76.4596 38.5233,73.0762 39.1283,71.639 39.8741,69.8675 40,65.8086 40,64 H 32 Z"
                style="fill:#ffffff;stroke-width:0.5215" />
            <path
                sodipodi:nodetypes="cccssssssssccc"
                inkscape:connector-curvature="0"
                id="path1949"
                d="M 0,96 H 32 V 87.99 C 29.7004,87.9421 28.6543,87.5055 25.9528,87.9619 24.643,88.1831 24.3393,90.2159 22.9972,90.6404 19.2886,91.8134 19.7267,94.2935 18.3304,94.1924 16.6926,94.0738 8.48571,94.7943 5.18068,92.9332 2.63376,91.499 1.2973,89.7543 1.25378,88.5269 1.23621,88.0315 2.60618,85.2779 2.62348,83.3745 2.63755,81.8274 4.50757,79.6457 5.22095,77.2585 5.76177,75.4487 5.169,73.317 5.29559,72.4265 5.95049,67.8199 8.007,68.5701 8.007,64 H 0 Z"
                style="fill:#ffffff;stroke-width:0.5214" />
            <path
                sodipodi:nodetypes="cccssssssssccc"
                inkscape:connector-curvature="0"
                id="path1951"
                d="M 0,64 H 32 V 55.99 C 27.146,55.99 29.1657,57.8376 25.9255,58.511 25.0184,58.6995 23.5662,56.5825 22.6738,56.8669 21.1306,57.3586 21.1718,59.5648 19.9101,60.35 18.1418,61.4505 14.9387,61.7394 14.43,61.1 8.07047,53.1068 4.729,57.19 4.569,54.39 4.53857,53.8574 5.96325,52.0823 5.99977,49.9656 6.04553,47.3123 4.73156,44.1224 4.998,42.17 5.19821,40.7029 7.44786,40.9007 7.87216,39.4878 8.77102,36.4949 7.90214,35.9829 7.998,32 H 0 Z"
                style="fill:#ffffff;stroke-width:0.5221" />
            <path
                sodipodi:nodetypes="cccsssssccc"
                inkscape:connector-curvature="0"
                id="path1953"
                d="M 32,64 H 64 V 55.99 C 59.9129,56.0578 58.61,56.19 54.53,57.49 50.83,58.69 44.1018,60.0154 42.6918,60.0154 39.7318,59.8154 41.1839,56.1732 39.4948,53.441 38.8624,52.418 35.2829,49.0697 35.7899,45.5593 36.028,43.9102 37.897,39.9715 38.3724,39.0001 39.2144,37.2796 39.9467,35.3942 39.99,32 H 32 Z"
                style="fill:#ffffff;stroke-width:0.5221" />
            <path
                sodipodi:nodetypes="cccsssssssccc"
                inkscape:connector-curvature="0"
                id="path1955"
                d="M 64,64 H 96 V 55.99 C 92.0463,55.99 90.61,56.19 86.49,57.49 82.82,58.69 76.8551,61.4823 75.4583,61.3876 72.5083,61.1876 66.5166,63.3528 66.5569,59.7584 66.5694,58.643 67.1982,55.2006 66.6709,54.0609 66.2585,53.1696 66.6682,50.1862 66.7106,49.0964 66.7814,47.2796 68.662,47.5437 69.1876,43.7491 69.5045,41.4609 71.1457,40.2351 71.3207,39.0065 71.9719,34.4352 72.01,35.1792 72.01,32 H 64 Z"
                style="fill:#ffffff;stroke-width:0.5217" />
            <path
                sodipodi:nodetypes="cccssssssssccc"
                inkscape:connector-curvature="0"
                id="path1957"
                d="M 96,64 H 128 V 55.99 C 125.552,56.4532 121.235,55.727 120.345,55.1135 119.299,54.3924 119.427,51.0764 117.585,51.6604 115.328,52.3761 111.543,52.9053 110.308,55.4112 109.515,57.0218 111.048,61.1 110.5,61.1 107.593,61.1 100.833,57.1821 100.6,54.39 100.542,53.6967 102.314,51.0324 102.4,48.1148 102.463,45.9827 99.3654,44.9399 99.5765,43.4579 99.8488,41.5464 100.665,39.3029 101.524,37.3089 102.721,34.5283 104.068,35.3511 104,32 H 96 Z"
                style="fill:#ffffff;stroke-width:0.5232" />
            <path
                sodipodi:nodetypes="cccsssssssssccc"
                inkscape:connector-curvature="0"
                id="path1959"
                d="M 96,32 H 128 V 23.99 C 124.815,23.8941 124.606,26.1492 123.368,25.6023 121.982,24.9899 120.648,24.7934 118.5,25.49 117.795,25.7188 116.591,24.7008 115.948,24.9971 113.22,26.255 111.63,29.1718 110.5,29.09 109.069,28.9864 108.95,25.829 106.886,24.5551 104.766,23.2468 100.718,23.8046 100.6,22.39 100.541,21.6845 103.621,18.9024 103.71,15.938 103.772,13.8603 100.78,11.6443 101,10.2 101.255,8.52123 103.299,8.91583 103.785,7.81393 104.631,5.89519 103.97,2.75058 104,0 H 96 Z"
                style="fill:#ffffff;stroke-width:0.5231" />
            <path
                sodipodi:nodetypes="cccsssssssccc"
                inkscape:connector-curvature="0"
                id="path1961"
                d="M 64,32 H 96 V 23.98 C 91.4941,23.98 90.5719,20.5337 88.1132,20.9126 86.6497,21.1381 86.3139,22.758 84.7654,23.2431 81.0505,24.4068 79.7864,29.1893 78.41,29.09 76.7512,28.9703 71.6452,30.7636 69.4374,29.188 67.7721,27.9996 68.4165,23.569 68.61,22.38 68.8192,21.0942 72.0459,19.3798 72.1233,16.5546 72.1834,14.3623 68.7815,11.7337 69,10.2 69.6567,5.59009 72.1456,4.87376 72.01,0 H 64 Z"
                style="fill:#ffffff;stroke-width:0.5212" />
            <path
                sodipodi:nodetypes="cccsssssssccc"
                inkscape:connector-curvature="0"
                id="path1963"
                d="M 32,32 H 64 V 24 C 59.9685,24 60.2671,24.3019 56.1746,25.6256 55.2157,25.9357 54.9161,28.7731 54.0701,29.1896 51.6429,30.3848 47.4355,29.1647 46.4,29.09 44.9106,28.9825 39.1008,30.3348 37.0013,28.9882 34.9987,27.7037 36.6713,23.7498 36.58,22.38 36.515,21.4045 34.3337,18.5164 34.6053,14.7472 34.6679,13.8795 36.5042,5.92246 37.01,5.49269 39.5946,3.29642 39.0594,1.7307 39.99,0 H 32 Z"
                style="fill:#ffffff;stroke-width:0.5217" />
            <path
                sodipodi:nodetypes="cccssssssssssssssccc"
                inkscape:connector-curvature="0"
                id="path1965"
                d="M 0,32 H 32 V 23.98 C 30.7673,23.98 29.2577,24.6987 28.3335,25.6459 27.6117,26.3857 27.485,27.3706 26.5629,27.5666 25.5183,27.7886 23.8274,25.0485 22.46,25.48 21.0909,25.912 20.4353,27.4791 19.313,28.0823 17.3923,29.1145 15.2813,29.1538 14.4,29.09 13.6609,29.0365 13.6939,26.0443 12.6344,25.6092 11.9567,25.3309 9.74179,24.4492 9.01022,25.1595 7.94585,26.193 8.35591,29.0065 7.37477,28.7462 5.94753,28.3675 4.67985,23.3302 4.599,22.36 4.53881,21.6377 3.88971,17.632 3.98607,14.6026 4.01505,13.6915 2.7376,10.7639 4.01722,10.594 4.72238,10.5004 6.45214,13.6293 7.32115,14.1071 8.34265,14.6688 9.74739,12.6445 9.81079,12.2336 10.138,10.1127 8.90276,7.11966 9.52231,5.2736 10.2471,3.11389 7.72686,3.06261 7.998,0 H 0 Z"
                style="fill:#ffffff;stroke-width:0.5213" />
         </g>
      </mask>
   </defs>
   <sodipodi:namedview
       pagecolor="#ffffff"
       bordercolor="#666666"
       borderopacity="1"
       objecttolerance="10"
       gridtolerance="10"
       guidetolerance="10"
       inkscape:pageopacity="0"
       inkscape:pageshadow="2"
       inkscape:window-width="1678"
       inkscape:window-height="1029"
       id="namedview3444"
       showgrid="true"
       inkscape:zoom="0.975807"
       inkscape:cx="94.0703"
       inkscape:cy="230.083"
       inkscape:window-x="1"
       inkscape:window-y="516"
       inkscape:window-maximized="0"
       inkscape:current-layer="bg_b_layer"
       showguides="false">
      <inkscape:grid
          type="xygrid"
          id="grid1541"
          spacingx="32"
          spacingy="32"
          units="mm" />
   </sodipodi:namedview>
   <metadata
       id="metadata1919">
      <rdf:RDF>
         <cc:Work
             rdf:about="">
            <dc:format>image/svg+xml</dc:format>
            <dc:type
                rdf:resource="http://purl.org/dc/dcmitype/StillImage" />
            <dc:title></dc:title>
         </cc:Work>
      </rdf:RDF>
   </metadata>
   <g
       inkscape:groupmode="layer"
       id="models_layer"
       inkscape:label="Models"
       sodipodi:insensitive="true">
      <g
          id="bg_a_model">
         <rect
             y="0"
             x="0"
             height="128"
             width="128"
             id="rect2648"
             style="fill:#008080;stroke-width:2;stroke-linecap:round;stroke-linejoin:round;paint-order:markers fill stroke" />
         <text
             id="text2652"
             y="19.64"
             x="12.47"
             style="font-size:10.5833px;line-height:1.25;font-family:sans-serif;letter-spacing:0px;word-spacing:0px;fill:#000000;stroke-width:0.2646"
             xml:space="preserve"><tspan
                y="19.64"
                x="12.47"
                id="tspan2650"
                sodipodi:role="line">A</tspan></text>
      </g>
      <g
          id="bg_b_model">
         <rect
             y="0"
             x="0"
             height="128"
             width="128"
             id="rect2648-6"
             style="fill:#800000;stroke-width:2;stroke-linecap:round;stroke-linejoin:round;paint-order:markers fill stroke" />
         <text
             id="text2652-2"
             y="19.64"
             x="12.47"
             style="font-size:10.5833px;line-height:1.25;font-family:sans-serif;letter-spacing:0px;word-spacing:0px;fill:#000000;stroke-width:0.2646"
             xml:space="preserve"><tspan
                y="19.64"
                x="12.47"
                id="tspan2650-6"
                sodipodi:role="line">B</tspan></text>
      </g>
   </g>
   <g
       inkscape:groupmode="layer"
       id="bg_a_layer"
       inkscape:label="Background A"
       sodipodi:insensitive="true">
      <use
          x="0"
          y="0"
          xlink:href="#bg_a_model"
          id="bga30"
          width="100%"
          height="100%" />
   </g>
   <g
       inkscape:groupmode="layer"
       id="bg_b_layer"
       inkscape:label="Background B">
      <use
          x="0"
          y="0"
          xlink:href="#bg_b_model"
          id="bgb30"
          width="100%"
          height="100%"
          mask="url(#mask1933)" />
   </g>
   <g
       inkscape:groupmode="layer"
       id="layer3"
       inkscape:label="borders"
       sodipodi:insensitive="true">
      <g
          id="g1931"
          transform="matrix(-1,0,0,1,128,0)">
         <path
             sodipodi:nodetypes="ccsccccccccscccccccccccccccccc"
             inkscape:connector-curvature="0"
             id="path1429-9"
             d="M 7.75,96 C 7.74413,96.0179 7.6706,96.2775 7.66406,96.2969 7.60119,96.4836 7.50682,96.7367 7.39258,97.0449 7.1641,97.6613 6.85018,98.4935 6.51562,99.457 5.84652,101.384 5.09228,103.836 4.75977,106.164 V 106.166 C 4.27027,109.713 4.25383,117.154 4.32422,118.414 4.36917,119.211 4.86061,120.005 5.58203,120.771 6.30345,121.538 7.26793,122.279 8.31836,122.938 10.4192,124.254 12.8433,125.243 14.4141,125.35 H 14.4219 14.4297 C 15.2725,125.35 16.3526,124.72 17.7422,123.971 19.1313,123.221 20.7935,122.329 22.6152,121.738 26.5001,120.5 31.1618,120.265 32,120.25 V 119.75 C 31.3263,119.75 26.5914,119.947 22.4648,121.262 H 22.4629 C 20.5853,121.871 18.8943,122.779 17.5039,123.529 16.116,124.278 14.9938,124.846 14.4355,124.848 13.0448,124.75 10.6273,123.794 8.58398,122.514 7.56017,121.872 6.62615,121.149 5.94727,120.428 5.26838,119.707 4.85826,118.99 4.82422,118.387 4.76057,117.247 4.77936,109.687 5.25586,106.234 5.58032,103.963 6.32414,101.534 6.98828,99.6211 7.32035,98.6647 7.63203,97.8373 7.86133,97.2188 7.97598,96.9095 8.07015,96.6528 8.13672,96.4551 8.17,96.3562 8.19754,96.2727 8.2168,96.2012 8.23606,96.1296 8.25116,96.0846 8.25,96 Z"
             style="color:#000000;fill:#000000;stroke-width:0.5" />
         <path
             sodipodi:nodetypes="ccscccccccccccccscccccsccccccccccccccscsccc"
             inkscape:connector-curvature="0"
             id="path1429-3-7"
             d="M 39.75,96 C 39.7589,96.1209 39.7815,96.4553 39.7949,96.6895 39.8157,97.0537 39.8346,97.5392 39.8301,98.0879 39.8211,99.1853 39.7142,100.535 39.3457,101.643 39.0687,102.475 38.5295,103.063 37.9902,103.717 37.451,104.37 36.915,105.096 36.7617,106.164 36.6377,107.029 37.1772,107.985 37.6875,109.01 38.1978,110.034 38.7,111.113 38.6699,112.068 38.5768,115.018 38.3864,116.694 38.4316,117.465 38.4718,118.154 38.4286,119.184 38.6504,120.219 38.8722,121.253 39.378,122.311 40.5059,123.008 41.5905,123.678 42.8156,123.789 43.9336,123.754 45.0516,123.718 46.0824,123.542 46.752,123.588 47.2156,123.619 48.0051,123.932 48.9785,124.15 49.952,124.369 51.1332,124.484 52.4453,124.088 52.6834,124.016 53.0799,123.819 53.623,123.545 54.1662,123.271 54.8285,122.924 55.4941,122.576 56.1597,122.228 56.8282,121.878 57.3789,121.6 57.9297,121.322 58.382,121.112 58.5391,121.061 60.5622,120.404 61.7683,120.205 62.5352,120.166 63.1712,120.134 63.6896,120.222 64,120.25 V 119.75 C 63.751,119.75 63.3364,119.624 62.5098,119.666 61.6832,119.708 60.435,119.919 58.3848,120.584 58.1343,120.665 57.7103,120.872 57.1543,121.152 56.5983,121.433 55.9293,121.785 55.2637,122.133 54.598,122.481 53.9344,122.826 53.3965,123.098 52.8586,123.369 52.4188,123.574 52.3008,123.609 51.0931,123.974 50.0162,123.87 49.0898,123.662 48.1635,123.454 47.4105,123.13 46.7852,123.088 46.0016,123.035 44.991,123.22 43.918,123.254 42.8449,123.288 41.7295,123.177 40.7676,122.582 39.7732,121.967 39.3432,121.067 39.1387,120.113 38.9342,119.16 38.9745,118.171 38.9316,117.436 38.8943,116.8 39.0763,115.048 39.1699,112.084 39.2057,110.949 38.6476,109.817 38.1348,108.787 37.6219,107.758 37.1741,106.82 37.2578,106.236 37.3927,105.297 37.8477,104.674 38.375,104.035 38.9023,103.396 39.5044,102.75 39.8203,101.801 40.2175,100.606 40.3209,99.2174 40.3301,98.0918 40.3347,97.529 40.3162,97.0321 40.2949,96.6602 40.2737,96.2882 40.2504,96.0161 40.25,96 Z"
             style="color:#000000;fill:#000000;stroke-width:0.5" />
         <path
             sodipodi:nodetypes="csccccccscsccccscccccscccccsccccccc"
             inkscape:connector-curvature="0"
             id="path1429-3-6-3"
             d="M 96,119.75 C 95.8696,119.75 95.4649,119.725 94.9004,119.707 94.3359,119.689 93.5984,119.677 92.752,119.707 91.059,119.768 88.9282,119.992 86.8516,120.652 H 86.8496 C 83.1999,121.836 82.072,120.946 79.9922,120.918 79.4506,120.911 78.7617,121.114 77.9551,121.352 77.1484,121.589 76.236,121.869 75.3184,122.037 74.4007,122.205 73.4814,122.26 72.666,122.07 71.8506,121.88 71.1366,121.458 70.5781,120.625 69.9512,119.69 69.9225,118.382 70.0879,117.043 70.2533,115.704 70.6068,114.358 70.6602,113.328 70.693,112.697 70.6395,111.535 70.6426,110.078 70.6456,108.621 70.7028,106.882 70.9512,105.15 71.2795,102.862 71.2675,102.437 71.9258,100.531 72.2674,99.5424 72.3393,99.0056 72.3242,98.4277 72.3091,97.8498 72.219,97.2389 72.25,96 H 71.75 C 71.7428,97.0234 71.8117,97.9639 71.8242,98.4414 71.8381,98.9747 71.7841,99.409 71.4531,100.367 70.7864,102.297 70.7839,102.802 70.457,105.08 70.2035,106.847 70.1457,108.607 70.1426,110.076 70.1395,111.545 70.1898,112.734 70.1602,113.303 70.1117,114.238 69.7626,115.599 69.5918,116.982 69.421,118.366 69.4217,119.798 70.1621,120.902 70.7884,121.836 71.6344,122.345 72.5508,122.559 73.4671,122.772 74.4525,122.703 75.4082,122.527 76.3639,122.352 77.2927,122.069 78.0957,121.832 78.8987,121.595 79.5875,121.413 79.9863,121.418 81.9203,121.444 83.2538,122.343 87.0039,121.127 L 87.002,121.129 C 89.0153,120.489 91.1058,120.267 92.7695,120.207 93.6014,120.177 94.326,120.189 94.8828,120.207 95.315,120.221 95.7909,120.243 96,120.25 Z"
             style="color:#000000;fill:#000000;stroke-width:0.5" />
         <path
             sodipodi:nodetypes="ccccsccccsccscccccccccccccccccccccssccccsscccc"
             inkscape:connector-curvature="0"
             id="path1429-3-6-7-6"
             d="M 128,119.75 C 125.968,119.784 125.01,119.665 124.115,119.625 123.221,119.585 122.397,119.631 120.719,119.994 120.567,120.027 120.238,120.034 119.848,120.014 119.457,119.993 118.997,119.951 118.535,119.912 118.073,119.873 117.608,119.835 117.201,119.824 116.795,119.813 116.455,119.822 116.188,119.906 115.308,120.185 114.615,120.122 114.02,119.881 113.424,119.639 112.923,119.207 112.48,118.725 112.038,118.243 111.657,117.714 111.287,117.291 110.917,116.868 110.546,116.512 110.061,116.512 108.572,116.412 107.025,116.689 105.883,116.645 105.31,116.622 104.853,116.518 104.551,116.293 104.249,116.068 104.058,115.719 104.035,115.068 V 115.062 115.057 C 103.979,114.379 103.604,113.352 103.314,112.023 103.025,110.695 102.819,109.094 103.078,107.389 103.224,106.427 103.538,105.716 103.854,104.971 104.169,104.225 104.482,103.445 104.584,102.396 104.715,101.052 104.631,100.276 104.514,99.4375 104.397,98.5986 104.25,97.6918 104.25,96 H 103.75 C 103.769,97.4996 103.91,98.7336 104.018,99.5059 104.133,100.337 104.215,101.042 104.088,102.348 103.993,103.322 103.705,104.035 103.393,104.775 103.08,105.516 102.739,106.284 102.582,107.314 102.31,109.105 102.53,110.768 102.826,112.129 103.123,113.49 103.494,114.578 103.537,115.1 V 115.088 C 103.564,115.837 103.821,116.374 104.252,116.695 104.683,117.017 105.243,117.121 105.863,117.145 107.104,117.192 108.637,116.915 110.043,117.012 H 110.053 110.061 C 110.275,117.012 110.565,117.226 110.91,117.621 111.255,118.016 111.644,118.552 112.113,119.062 112.582,119.573 113.136,120.061 113.832,120.344 114.528,120.626 115.363,120.692 116.338,120.383 116.478,120.339 116.801,120.314 117.188,120.324 117.574,120.335 118.032,120.371 118.492,120.41 118.952,120.449 119.415,120.491 119.82,120.512 120.225,120.533 120.564,120.539 120.824,120.482 122.478,120.124 123.227,120.087 124.092,120.125 124.901,120.161 126.204,120.264 128,120.25 Z"
             style="color:#000000;fill:#000000;stroke-width:0.5" />
         <path
             sodipodi:nodetypes="ccccccccccccccccscscccccccsccccccsccsccccsccccccccccccccccccc"
             inkscape:connector-curvature="0"
             id="path1429-3-6-7-5-1"
             d="M 103.75,64 C 103.752,64.7276 103.773,69.8956 103.102,74.3066 V 74.3086 C 102.846,76.1016 103.075,77.4813 103.379,78.5508 103.682,79.6168 104.043,80.3855 104.088,80.9004 104.108,81.4973 103.751,82.1522 103.176,82.8301 102.6,83.5093 101.823,84.2006 101.09,84.8828 100.356,85.565 99.6657,86.2353 99.252,86.9199 99.0451,87.2622 98.9048,87.613 98.8848,87.9746 98.8647,88.3362 98.9743,88.7028 99.2246,89.0332 99.2306,89.0411 99.2966,89.1646 99.3652,89.332 99.4339,89.4994 99.5177,89.7212 99.6191,89.9766 99.822,90.4872 100.093,91.1361 100.453,91.8008 101.173,93.1301 102.258,94.5413 103.912,94.9805 105.518,95.4067 107.608,94.9132 109.355,94.2754 110.229,93.9565 111.016,93.5986 111.607,93.2852 111.903,93.1284 112.15,92.9833 112.338,92.8574 112.526,92.7315 112.645,92.6603 112.74,92.5 112.839,92.3329 112.866,92.1453 112.881,91.9238 112.896,91.7023 112.89,91.4476 112.877,91.166 112.85,90.6029 112.789,89.937 112.77,89.2852 112.75,88.6333 112.776,87.9953 112.904,87.5137 113.033,87.032 113.237,86.7351 113.59,86.623 113.75,86.5725 114.162,86.6393 114.654,86.8398 115.147,87.0404 115.725,87.3472 116.299,87.6602 116.873,87.9731 117.441,88.294 117.932,88.5273 118.177,88.644 118.403,88.7388 118.607,88.8008 118.811,88.8628 118.992,88.9002 119.182,88.8555 121.333,88.3476 125.412,88.2846 128,88.25 V 87.75 C 125.417,87.7844 121.404,87.8178 119.068,88.3691 119.039,88.376 118.916,88.3722 118.752,88.3223 118.588,88.2723 118.379,88.1849 118.146,88.0742 117.681,87.8528 117.116,87.5357 116.539,87.2207 115.962,86.9057 115.373,86.5926 114.844,86.377 114.314,86.1613 113.849,86.0168 113.439,86.1465 112.886,86.3219 112.574,86.8157 112.422,87.3848 112.27,87.9539 112.25,88.6261 112.27,89.2988 112.289,89.9715 112.351,90.6439 112.377,91.1895 112.39,91.4622 112.395,91.7035 112.383,91.8906 112.37,92.0777 112.331,92.2116 112.311,92.2461 112.332,92.2096 112.226,92.3296 112.059,92.4414 111.892,92.5532 111.658,92.693 111.373,92.8438 110.804,93.1452 110.035,93.4961 109.184,93.8066 107.482,94.4278 105.443,94.8703 104.041,94.498 102.593,94.1138 101.582,92.8363 100.893,91.5625 100.548,90.9256 100.284,90.295 100.084,89.791 99.9839,89.539 99.9006,89.3192 99.8281,89.1426 99.7557,88.9659 99.7079,88.8424 99.623,88.7305 99.4345,88.4816 99.3709,88.2521 99.3848,88.002 99.3986,87.7518 99.5002,87.4747 99.6797,87.1777 100.039,86.5837 100.704,85.9267 101.432,85.25 102.159,84.5733 102.946,83.8744 103.557,83.1543 104.167,82.4342 104.617,81.681 104.588,80.8789 V 80.873 80.8672 C 104.531,80.1822 104.151,79.4391 103.859,78.4141 103.568,77.3895 103.352,76.0967 103.596,74.3809 V 74.3789 C 104.3,69.7492 104.25,64.3795 104.25,64 Z"
             style="color:#000000;fill:#000000;stroke-width:0.5" />
         <path
             sodipodi:nodetypes="cccccscccccccccssccccccccsccccccccccccccccccc"
             inkscape:connector-curvature="0"
             id="path1429-3-6-7-5-3-2"
             d="M 71.75,64 C 71.7591,65.5714 71.8302,67.0066 71.8008,67.8496 71.7693,68.7512 71.6353,69.3402 71.207,69.9727 71.1257,70.0927 71.0312,70.1192 70.8047,70.0977 70.5782,70.0761 70.2661,69.979 69.9316,69.8652 69.5972,69.7515 69.2384,69.6232 68.8789,69.5586 68.5194,69.494 68.146,69.4904 67.8164,69.668 67.094,70.0569 66.7262,70.9815 66.4727,71.918 66.2191,72.8545 66.1009,73.8313 66.0215,74.3535 65.4786,77.9211 65.8996,84.6875 66.002,85.9199 66.0163,86.3207 66.1588,86.6625 66.4004,86.9141 66.642,87.1656 66.9689,87.3267 67.3438,87.4297 68.0935,87.6357 69.0544,87.6218 70.0977,87.5332 72.1841,87.3561 74.6131,86.8655 75.9863,86.9648 H 75.9941 76.0039 C 76.5972,86.9648 77.62,87.3999 78.9336,87.707 80.2472,88.0141 81.88,88.1748 83.7852,87.5723 84.5283,87.3372 85.3891,87.4751 86.2734,87.666 87.1578,87.857 88.0565,88.1024 88.9004,87.9785 90.0304,87.8127 90.8129,87.8754 91.8203,87.9824 92.7675,88.083 94.2477,88.2336 96,88.25 V 87.75 C 94.077,87.75 92.8875,87.5921 91.873,87.4844 90.8586,87.3767 90.0098,87.309 88.8281,87.4824 88.1346,87.5842 87.277,87.3716 86.3789,87.1777 85.4808,86.9838 84.5334,86.8095 83.6348,87.0938 81.8313,87.6641 80.3094,87.5158 79.0469,87.2207 77.7869,86.9261 76.8154,86.4686 76.0098,86.4668 74.4825,86.359 72.0921,86.8624 70.0566,87.0352 69.0369,87.1217 68.1115,87.1218 67.4766,86.9473 67.1591,86.86 66.9179,86.731 66.7598,86.5664 66.6016,86.4018 66.5126,86.2016 66.502,85.9023 V 85.8965 L 66.5,85.8906 C 66.4017,84.7115 65.9924,77.8679 66.5156,74.4297 66.5976,73.8902 66.7142,72.9383 66.9551,72.0488 67.1959,71.1594 67.5811,70.3614 68.0527,70.1074 68.2373,70.008 68.4868,69.9965 68.7891,70.0508 69.0913,70.1051 69.4342,70.2231 69.7715,70.3379 70.1088,70.4526 70.4383,70.5655 70.7559,70.5957 71.0734,70.6259 71.4237,70.5452 71.6211,70.2539 72.1061,69.5378 72.2658,68.8132 72.2988,67.8672 72.3318,66.9211 72.25,65.7359 72.25,64 Z"
             style="color:#000000;fill:#000000;stroke-width:0.5" />
         <path
             sodipodi:nodetypes="ccccccscccccccccscccccccccccccccccccccscccc"
             inkscape:connector-curvature="0"
             id="path1429-3-6-7-5-3-5-93"
             d="M 39.75,64 C 39.7459,64.9064 39.7094,66.456 39.5938,67.8125 39.4699,69.2642 39.2467,70.7154 38.8984,71.543 38.6239,72.1942 37.7361,73.4248 37.0762,74.6816 36.746,75.3104 36.4705,75.9506 36.3555,76.5664 36.2404,77.1822 36.2928,77.7918 36.6562,78.2793 38.5344,80.7983 38.7552,82.977 38.9316,84.4258 39.0198,85.1502 39.062,85.7146 39.4277,86.0723 39.6106,86.2511 39.8772,86.3347 40.1738,86.3203 40.4705,86.3059 40.8126,86.2101 41.2461,86.0371 41.5488,85.9163 41.7646,85.8883 41.9062,85.9082 42.0479,85.9281 42.1291,85.9825 42.2129,86.0898 42.3805,86.3045 42.4868,86.7729 42.5879,87.3066 42.689,87.8404 42.7964,88.4382 43.0938,88.9434 43.3911,89.4485 43.9112,89.8437 44.7051,89.8984 H 44.7148 44.7227 C 46.2229,89.8984 48.5984,89.0436 52.3027,87.8691 52.7323,87.7329 53.7019,87.8992 54.666,88.1191 55.6302,88.339 56.5837,88.6034 57.2617,88.4766 58.7344,88.2007 59.579,88.1561 60.4805,88.1738 61.3169,88.1902 62.5516,88.259 64,88.25 V 87.75 C 62.3616,87.7738 61.4146,87.692 60.4902,87.6738 59.5659,87.6557 58.6677,87.7038 57.1699,87.9844 56.7295,88.0668 55.7474,87.854 54.7773,87.6328 53.8073,87.4116 52.8441,87.1732 52.1523,87.3926 48.448,88.5671 46.0336,89.3936 44.7324,89.3965 44.0844,89.3488 43.7581,89.0848 43.5254,88.6895 43.2912,88.2917 43.1791,87.7459 43.0781,87.2129 42.9772,86.6799 42.8996,86.16 42.6055,85.7832 42.4584,85.5948 42.2392,85.4513 41.9746,85.4141 41.7101,85.3769 41.4131,85.4316 41.0605,85.5723 40.6542,85.7344 40.3517,85.8104 40.1484,85.8203 39.9452,85.8302 39.8557,85.7915 39.7773,85.7148 39.6206,85.5615 39.5173,85.0851 39.4297,84.3652 39.2544,82.9254 39.007,80.5962 37.0566,77.9805 36.7973,77.6326 36.746,77.1935 36.8457,76.6602 36.9454,76.1268 37.2015,75.5197 37.5195,74.9141 38.1555,73.7029 39.0284,72.5225 39.3594,71.7363 39.7567,70.7923 39.9682,69.3282 40.0938,67.8555 40.2193,66.3827 40.25,64.9102 40.25,64 Z"
             style="color:#000000;fill:#000000;stroke-width:0.5" />
         <path
             sodipodi:nodetypes="ccccccsccccccscscccccccccccccsccccccscscccc"
             inkscape:connector-curvature="0"
             id="path1429-3-6-7-5-3-5-6-1"
             d="M 7.75,64 C 7.70545,66.0095 7.24505,67.1644 6.68359,68.0684 6.09283,69.0195 5.38169,70.0494 5.04883,72.3906 4.97398,72.9173 5.10015,73.6566 5.16406,74.5156 5.22798,75.3746 5.236,76.3324 4.98047,77.1875 4.63496,78.3436 3.99971,79.4731 3.43945,80.5137 2.87919,81.5542 2.38099,82.4979 2.37305,83.3711 2.36493,84.264 2.02912,85.4163 1.68945,86.3965 1.51962,86.8866 1.35044,87.3353 1.22266,87.6973 1.15877,87.8782 1.1049,88.038 1.06641,88.1738 1.02792,88.3097 0.999524,88.4116 1.00391,88.5352 1.05355,89.9353 2.46874,91.6919 5.05859,93.1504 6.80023,94.1311 9.69217,94.3991 12.375,94.4668 13.7164,94.5006 15.0024,94.4788 16.0547,94.457 17.107,94.4352 17.9362,94.4142 18.3125,94.4414 18.7341,94.4719 19.0702,94.2806 19.3125,94.0117 19.5548,93.7428 19.7452,93.4034 20.002,93.0371 20.5154,92.3046 21.269,91.4492 23.0723,90.8789 23.8476,90.6337 24.2874,89.954 24.6934,89.3672 25.0993,88.7804 25.4601,88.2992 25.9941,88.209 28.5462,87.7778 29.872,88.1744 32,88.25 V 87.75 C 29.7305,87.7028 28.65,87.2523 25.9121,87.7148 25.1363,87.8459 24.6901,88.491 24.2812,89.082 23.8724,89.6731 23.4887,90.2231 22.9219,90.4023 21.0166,91.0049 20.1355,91.9744 19.5918,92.75 19.32,93.1378 19.1255,93.4734 18.9414,93.6777 18.7573,93.8821 18.6242,93.9634 18.3477,93.9434 17.905,93.9113 17.0954,93.9353 16.0449,93.957 14.9945,93.9788 13.7149,94.0003 12.3867,93.9668 9.7304,93.8998 6.86615,93.5952 5.30273,92.7148 2.79877,91.3047 1.5413,89.5722 1.50391,88.5176 1.5039,88.5173 1.51374,88.4256 1.54688,88.3086 1.58001,88.1916 1.63102,88.0399 1.69336,87.8633 1.81805,87.5101 1.98948,87.0587 2.16211,86.5605 2.50736,85.5642 2.86386,84.3876 2.87305,83.377 2.87918,82.7031 3.32425,81.7838 3.88086,80.75 4.43747,79.7162 5.09308,78.561 5.46094,77.3301 5.74624,76.3754 5.72773,75.3604 5.66211,74.4785 5.59649,73.5966 5.49124,72.8249 5.54297,72.4609 5.86503,70.1956 6.50816,69.3 7.10938,68.332 7.71059,67.3641 8.25,66.3225 8.25,64 Z"
             style="color:#000000;fill:#000000;stroke-width:0.5" />
         <path
             sodipodi:nodetypes="ccccccsccccccccccsccccccccccccccccsscccccccccscccccsccc"
             inkscape:connector-curvature="0"
             id="path1429-2-9"
             d="M 32,55.75 C 30.7706,55.75 29.9617,55.8559 29.3789,56.0527 28.7961,56.2496 28.4429,56.5383 28.1738,56.8281 27.6358,57.4078 27.4404,57.9403 25.875,58.2656 25.7525,58.2911 25.5439,58.2338 25.2891,58.0801 25.0342,57.9263 24.7459,57.6927 24.4512,57.457 24.1565,57.2214 23.8551,56.983 23.5527,56.8125 23.2503,56.642 22.9249,56.5246 22.5977,56.6289 21.7224,56.9079 21.3056,57.6704 20.9609,58.3906 20.6163,59.1109 20.318,59.8022 19.7773,60.1387 18.9423,60.6583 17.7235,61.0026 16.668,61.1289 16.1402,61.1921 15.6529,61.2007 15.2812,61.1582 14.9096,61.1157 14.6669,60.996 14.625,60.9434 11.419,56.9139 8.92012,55.8905 7.22266,55.5527 6.37392,55.3839 5.72751,55.3733 5.35742,55.2578 5.17238,55.2 5.06488,55.1307 4.98242,55.0117 4.89997,54.8927 4.83685,54.6985 4.81836,54.375 4.81754,54.3607 4.87363,54.1459 5,53.8789 5.12637,53.6119 5.30479,53.2711 5.48633,52.877 5.84941,52.0886 6.2308,51.0821 6.25,49.9688 6.27363,48.5992 5.9494,47.126 5.66016,45.7539 5.37091,44.3818 5.12279,43.1066 5.24609,42.2031 5.28756,41.8992 5.42205,41.7032 5.63477,41.5215 5.84748,41.3398 6.14263,41.1876 6.46094,41.0332 7.09755,40.7245 7.86324,40.3847 8.11133,39.5586 8.56827,38.0372 8.57861,37.1064 8.48438,36.0918 8.39014,35.0772 8.20251,33.9729 8.25,32 H 7.75 C 7.73169,33.7885 7.90046,35.2142 7.98633,36.1387 8.07785,37.124 8.07472,37.9447 7.63281,39.416 7.45659,40.0028 6.88652,40.2715 6.24219,40.584 5.92002,40.7402 5.58725,40.9026 5.30859,41.1406 5.02993,41.3787 4.80864,41.7071 4.75,42.1367 4.60687,43.1855 4.88219,44.4813 5.17188,45.8555 5.46156,47.2297 5.77214,48.6773 5.75,49.9609 5.73269,50.9645 5.38203,51.9064 5.03125,52.668 4.85586,53.0488 4.68217,53.3823 4.54883,53.6641 4.41549,53.9458 4.30592,54.1523 4.32031,54.4043 4.34182,54.7808 4.41652,55.0721 4.57227,55.2969 4.72801,55.5217 4.9589,55.6563 5.20898,55.7344 5.70916,55.8905 6.32343,55.8835 7.125,56.043 8.72815,56.3619 11.0808,57.2922 14.2344,61.2559 14.4468,61.5229 14.7973,61.6074 15.2246,61.6562 15.6519,61.7051 16.1689,61.6917 16.7266,61.625 17.8418,61.4916 19.1097,61.1433 20.043,60.5625 20.764,60.1138 21.0761,59.3076 21.4121,58.6055 21.7481,57.9034 22.082,57.3184 22.75,57.1055 22.8689,57.0676 23.0594,57.1075 23.3086,57.248 23.5578,57.3886 23.8454,57.6131 24.1387,57.8477 24.432,58.0822 24.7308,58.3266 25.0312,58.5078 25.3317,58.6891 25.6455,58.8247 25.9766,58.7559 27.6514,58.4078 28.0654,57.6804 28.541,57.168 28.7788,56.9118 29.0341,56.696 29.5391,56.5254 29.9927,56.3721 31.0025,56.2706 32,56.25 Z"
             style="color:#000000;fill:#000000;stroke-width:0.5" />
         <path
             sodipodi:nodetypes="cccccsccsccscccccccccccccccccccc"
             inkscape:connector-curvature="0"
             id="path1429-3-9-4"
             d="M 39.75,32 C 39.6686,35.1631 38.9577,37.2367 38.1484,38.8906 37.909,39.3799 37.3209,40.609 36.7617,41.9277 36.2025,43.2465 35.6712,44.6351 35.543,45.5234 35.276,47.3721 36.0796,49.1405 37.0059,50.5684 37.469,51.2823 37.9662,51.9146 38.3848,52.4297 38.8034,52.9448 39.1485,53.3543 39.2832,53.5723 40.0848,54.8688 40.1484,56.417 40.3711,57.7207 40.4824,58.3725 40.6325,58.9694 40.9805,59.4375 41.3285,59.9056 41.8835,60.2121 42.6758,60.2656 H 42.6836 42.6914 C 43.0831,60.2656 43.7644,60.1809 44.6562,60.0371 45.5481,59.8933 46.6393,59.6886 47.8027,59.4473 50.1291,58.9648 52.739,58.3338 54.6055,57.7285 58.5655,56.4668 60.1726,56.3195 64,56.25 V 55.75 C 59.9084,55.8178 58.545,55.9489 54.4551,57.252 H 54.4531 C 52.6198,57.8466 50.0159,58.477 47.7012,58.957 46.5438,59.1971 45.4581,59.4008 44.5762,59.543 43.7007,59.6841 43.0216,59.7625 42.7051,59.7637 42.0213,59.7163 41.6451,59.4941 41.3809,59.1387 41.1159,58.7822 40.9701,58.26 40.8633,57.6348 40.6497,56.3843 40.5946,54.7442 39.707,53.3086 39.5255,53.0149 39.1861,52.6234 38.7715,52.1133 38.3569,51.6031 37.8732,50.9867 37.4258,50.2969 36.5309,48.9172 35.7972,47.2573 36.0371,45.5957 36.147,44.8348 36.669,43.4288 37.2227,42.123 37.7764,40.8173 38.3617,39.5914 38.5977,39.1094 39.4461,37.3754 40.2065,35.4289 40.25,32 Z"
             style="color:#000000;fill:#000000;stroke-width:0.5" />
         <path
             sodipodi:nodetypes="cccccsccccccsccscccccccsccccccccccccccccc"
             inkscape:connector-curvature="0"
             id="path1429-3-6-1-7"
             d="M 71.75,32 C 71.7468,34.801 71.7028,34.5586 71.0742,38.9707 71.0004,39.4885 70.5731,40.0927 70.0957,40.8477 69.6183,41.6026 69.1051,42.5187 68.9395,43.7148 68.6823,45.5713 68.1173,46.3844 67.5879,47.002 67.3232,47.3107 67.0593,47.5702 66.8457,47.8887 66.6321,48.2072 66.4803,48.5885 66.4609,49.0859 66.4405,49.6085 66.3282,50.6359 66.2715,51.6387 66.2431,52.1401 66.2285,52.638 66.248,53.0742 66.2676,53.5104 66.3113,53.8806 66.4434,54.166 66.6508,54.6143 66.6585,55.7657 66.5664,56.8984 66.4743,58.0312 66.3133,59.154 66.3066,59.7559 66.2957,60.7236 66.731,61.3839 67.4023,61.7246 68.0736,62.0653 68.9454,62.1299 69.8945,62.0957 71.7929,62.0273 74.0385,61.5416 75.4414,61.6367 75.8853,61.6668 76.5119,61.4948 77.334,61.2246 78.1561,60.9544 79.149,60.575 80.2129,60.1562 82.3393,59.3193 84.7462,58.3233 86.5645,57.7285 L 86.5684,57.7266 C 90.5648,56.4658 92.2928,56.2606 96,56.25 V 55.75 C 92.0379,55.75 90.5427,55.9492 86.4141,57.252 H 86.4121 C 84.5606,57.8574 82.1507,58.8564 80.0293,59.6914 78.9686,60.1089 77.9816,60.4858 77.1777,60.75 76.3739,61.0142 75.7291,61.1559 75.4746,61.1387 73.9274,61.0337 71.7019,61.53 69.877,61.5957 68.9645,61.6286 68.1619,61.5478 67.6289,61.2773 67.0959,61.0069 66.7973,60.5912 66.8066,59.7617 66.8124,59.2481 66.9727,58.0917 67.0664,56.9395 67.1601,55.7872 67.2183,54.6463 66.8984,53.9551 66.8243,53.7948 66.7644,53.4587 66.7461,53.0508 66.7278,52.6428 66.7417,52.1601 66.7695,51.668 66.8252,50.6837 66.9388,49.6728 66.9609,49.1055 66.9769,48.6946 67.0864,48.4295 67.2617,48.168 67.4371,47.9065 67.6888,47.6528 67.9688,47.3262 68.5287,46.673 69.167,45.7215 69.4355,43.7832 69.5867,42.6912 70.0534,41.8504 70.5195,41.1133 70.9857,40.3761 71.4671,39.7519 71.5684,39.041 72.2188,34.4749 72.25,35.1813 72.25,32 Z"
             style="color:#000000;fill:#000000;stroke-width:0.5" />
         <path
             sodipodi:nodetypes="ccccccccscccssccccccccccccccccccccccccccccccccccccccc"
             inkscape:connector-curvature="0"
             id="path1429-3-6-7-2-8"
             d="M 103.75,32 C 103.74,33.3903 103.469,34.2117 103.047,34.707 102.593,35.2391 101.91,35.7792 101.295,37.209 100.432,39.2126 99.6066,41.4686 99.3281,43.4219 99.2628,43.881 99.4581,44.2959 99.7383,44.6621 100.018,45.0283 100.392,45.369 100.76,45.7227 101.495,46.43 102.178,47.1635 102.15,48.1074 102.109,49.5179 101.655,50.8878 101.213,51.9941 100.992,52.5473 100.775,53.0338 100.613,53.4336 100.451,53.8334 100.327,54.1182 100.352,54.4102 100.418,55.2031 100.922,56.0056 101.654,56.7871 102.386,57.5687 103.357,58.3291 104.412,59.002 106.522,60.3476 108.934,61.3496 110.5,61.3496 110.612,61.3496 110.738,61.2714 110.791,61.1875 110.844,61.1036 110.857,61.0255 110.865,60.9473 110.882,60.7908 110.866,60.6162 110.838,60.4043 110.781,59.9805 110.666,59.4225 110.559,58.8164 110.344,57.6042 110.202,56.1945 110.533,55.5215 111.109,54.3531 112.298,53.6223 113.654,53.0977 115.01,52.573 116.51,52.2631 117.66,51.8984 118.056,51.7728 118.269,51.8459 118.479,52.0371 118.688,52.2283 118.872,52.5782 119.031,52.9883 119.191,53.3984 119.33,53.862 119.5,54.2812 119.67,54.7005 119.866,55.0859 120.203,55.3184 120.484,55.5123 120.929,55.666 121.51,55.8164 122.09,55.9668 122.798,56.1018 123.555,56.2031 124.969,56.3924 126.76,56.4374 128,56.25 V 55.75 C 126.826,55.9723 125.1,55.9051 123.621,55.707 122.882,55.608 122.19,55.4759 121.635,55.332 121.079,55.1882 120.65,55.0211 120.486,54.9082 120.301,54.7801 120.12,54.4808 119.963,54.0938 119.806,53.7067 119.666,53.2427 119.496,52.8066 119.327,52.3706 119.131,51.9568 118.814,51.668 118.497,51.3791 118.034,51.2556 117.51,51.4219 116.403,51.7729 114.882,52.0855 113.473,52.6309 112.063,53.1762 110.743,53.9633 110.084,55.3008 109.622,56.2384 109.849,57.6729 110.066,58.9023 110.175,59.5171 110.29,60.0795 110.342,60.4707 110.363,60.6303 110.365,60.7331 110.363,60.8164 109.003,60.7685 106.684,59.8594 104.682,58.582 103.654,57.9264 102.711,57.1836 102.02,56.4453 101.328,55.707 100.9,54.9721 100.85,54.3691 100.845,54.3144 100.92,54.0071 101.076,53.6211 101.233,53.2351 101.452,52.744 101.678,52.1797 102.129,51.0511 102.606,49.6282 102.65,48.1211 102.685,46.933 101.851,46.0809 101.105,45.3633 100.733,45.0045 100.376,44.6722 100.137,44.3594 99.8974,44.0465 99.7841,43.7742 99.8242,43.4922 100.091,41.6229 100.899,39.3924 101.754,37.4082 102.335,36.0575 102.923,35.6207 103.426,35.0312 103.928,34.4418 104.285,33.7087 104.25,32 Z"
             style="color:#000000;fill:#000000;stroke-width:0.5" />
         <path
             sodipodi:nodetypes="ccccccccccscccccscccccccscccccsccccccccccccccccccccsccccccccsccc"
             inkscape:connector-curvature="0"
             id="path1429-3-6-7-5-7-4"
             d="M 128,23.75 C 126.348,23.7003 125.42,24.2716 124.797,24.7695 124.485,25.0185 124.246,25.2388 124.047,25.3477 123.848,25.4565 123.718,25.4831 123.469,25.373 122.047,24.7447 120.614,24.5417 118.424,25.252 H 118.422 C 118.213,25.3198 117.766,25.1758 117.295,24.9863 117.059,24.8916 116.818,24.7948 116.576,24.7383 116.335,24.6817 116.081,24.6603 115.844,24.7695 114.43,25.4215 113.331,26.4908 112.449,27.3691 112.008,27.8083 111.619,28.2002 111.287,28.4668 110.955,28.7334 110.689,28.8523 110.518,28.8398 110.251,28.8205 110.045,28.6675 109.822,28.3672 109.6,28.0669 109.39,27.6336 109.156,27.1523 108.689,26.1898 108.126,25.0261 107.018,24.3418 105.884,23.642 104.317,23.4655 103.031,23.2656 102.389,23.1657 101.814,23.0602 101.424,22.9082 101.229,22.8322 101.083,22.7449 100.992,22.6562 100.901,22.5676 100.859,22.4863 100.85,22.3691 100.85,22.3778 100.864,22.2809 100.934,22.1484 101.003,22.016 101.115,21.8422 101.254,21.6426 101.531,21.2433 101.915,20.7346 102.307,20.1504 103.09,18.982 103.912,17.5116 103.959,15.9453 103.994,14.784 103.213,13.6831 102.498,12.6855 102.14,12.1868 101.794,11.7134 101.557,11.291 101.32,10.8686 101.207,10.5066 101.248,10.2383 101.304,9.86904 101.446,9.63991 101.645,9.45703 101.843,9.27415 102.108,9.14217 102.4,9.02148 102.693,8.9008 103.01,8.7935 103.301,8.63477 103.591,8.47603 103.864,8.25378 104.014,7.91406 104.467,6.88656 104.505,5.59067 104.449,4.20898 104.393,2.8273 104.235,1.35423 104.25,0 H 103.75 C 103.754,1.32161 103.897,2.95144 103.949,4.22852 104.004,5.58647 103.95,6.82163 103.557,7.71289 103.463,7.92412 103.298,8.06567 103.061,8.19531 102.823,8.32496 102.522,8.43035 102.211,8.55859 101.9,8.68684 101.576,8.84012 101.305,9.08984 101.033,9.33957 100.823,9.69195 100.752,10.1621 100.683,10.616 100.861,11.0709 101.121,11.5352 101.381,11.9994 101.737,12.4811 102.092,12.9766 102.802,13.9675 103.488,15.0133 103.461,15.9297 103.419,17.3278 102.657,18.731 101.893,19.8711 101.51,20.4412 101.13,20.946 100.844,21.3594 100.7,21.5661 100.58,21.7497 100.492,21.916 100.405,22.0823 100.336,22.2252 100.352,22.4102 100.371,22.6467 100.481,22.8569 100.643,23.0137 100.804,23.1704 101.008,23.282 101.242,23.373 101.71,23.5552 102.304,23.6588 102.953,23.7598 104.251,23.9617 105.768,24.1591 106.754,24.7676 107.709,25.3572 108.239,26.4106 108.705,27.3711 108.938,27.8514 109.155,28.3053 109.422,28.666 109.689,29.0267 110.034,29.3073 110.482,29.3398 110.876,29.3683 111.232,29.1541 111.602,28.8574 111.971,28.5608 112.362,28.1597 112.801,27.7227 113.678,26.8485 114.739,25.8305 116.053,25.2246 116.137,25.1857 116.274,25.1808 116.461,25.2246 116.648,25.2685 116.873,25.3551 117.107,25.4492 117.575,25.6375 118.082,25.8894 118.578,25.7285 120.683,25.0464 121.918,25.2339 123.268,25.8301 123.638,25.9935 123.997,25.9443 124.285,25.7871 124.573,25.6299 124.816,25.3946 125.109,25.1602 125.657,24.7228 126.664,24.2729 128,24.25 Z"
             style="color:#000000;fill:#000000;stroke-width:0.5" />
         <path
             sodipodi:nodetypes="cccccccscccscccsccscccccscccccscccscccccccccccc"
             inkscape:connector-curvature="0"
             id="path1429-3-6-7-5-3-0-5"
             d="M 71.75,0 C 71.7641,2.21123 71.2319,3.78788 70.5781,5.08594 69.8959,6.44042 69.0863,7.81724 68.752,10.1641 68.6831,10.647 68.8889,11.1403 69.1875,11.6562 69.4861,12.1722 69.8941,12.7175 70.3008,13.2773 71.1141,14.3971 71.8995,15.5826 71.873,16.5469 71.837,17.8658 71.0606,18.9483 70.2305,19.877 69.8154,20.3413 69.3897,20.7633 69.0469,21.1602 68.7041,21.5571 68.4305,21.9265 68.3633,22.3398 68.2656,22.9396 68.0528,24.3567 68.0762,25.7891 68.0995,27.2214 68.3283,28.7022 69.293,29.3906 70.5075,30.2574 72.3847,30.1724 74.1621,29.9336 75.0508,29.8142 75.9174,29.6495 76.6602,29.5234 77.4029,29.3974 78.0317,29.3138 78.3926,29.3398 78.6378,29.3575 78.867,29.2639 79.0703,29.1191 79.2736,28.9744 79.4617,28.7765 79.6543,28.541 80.0395,28.07 80.4422,27.4435 80.9141,26.7852 81.8579,25.4685 83.068,24.0375 84.8398,23.4824 85.685,23.2177 86.1963,22.6416 86.6543,22.1504 87.1123,21.6592 87.5049,21.2596 88.1504,21.1602 88.7064,21.0745 89.1586,21.1996 89.6309,21.4531 90.1031,21.7066 90.5845,22.0946 91.1406,22.5059 92.2047,23.2926 93.8564,24.1769 96,24.25 V 23.75 C 93.8108,23.75 92.5275,22.9095 91.4375,22.1035 90.8925,21.7005 90.4002,21.2978 89.8672,21.0117 89.3341,20.7256 88.7476,20.5622 88.0742,20.666 87.2563,20.7921 86.7519,21.3142 86.2891,21.8105 85.8262,22.3069 85.3949,22.7835 84.6914,23.0039 82.7485,23.6125 81.4689,25.1534 80.5078,26.4941 80.0273,27.1645 79.6226,27.7904 79.2676,28.2246 79.0901,28.4417 78.925,28.6086 78.7812,28.7109 78.6375,28.8133 78.5266,28.847 78.4277,28.8398 77.9591,28.806 77.3263,28.902 76.5762,29.0293 75.826,29.1566 74.9668,29.3205 74.0957,29.4375 72.3535,29.6715 70.5752,29.6932 69.582,28.9844 68.8814,28.4843 68.5986,27.1566 68.5762,25.7793 68.5537,24.402 68.7614,23.0092 68.8574,22.4199 68.8947,22.1903 69.1024,21.8627 69.4258,21.4883 69.7492,21.1138 70.1741,20.6891 70.6016,20.2109 71.4564,19.2547 72.3318,18.0668 72.373,16.5605 72.4067,15.3325 71.523,14.1085 70.7051,12.9824 70.2961,12.4194 69.897,11.883 69.6211,11.4062 69.3452,10.9295 69.2076,10.5183 69.248,10.2344 69.5704,7.97127 70.333,6.68515 71.0254,5.31055 71.7178,3.93594 72.3289,2.47972 72.26,0 Z"
             style="color:#000000;fill:#000000;stroke-width:0.5" />
         <path
             sodipodi:nodetypes="ccccccccccscsccccccccsccccccsccsscccccccccccccccccccccc"
             inkscape:connector-curvature="0"
             id="path1429-3-6-7-5-3-5-9-0"
             d="M 39.75,0 C 39.4141,0.76718 39.1383,1.75827 38.8848,2.49023 38.5895,3.3428 38.1112,4.22909 36.8477,5.30273 36.7578,5.37914 36.7252,5.45046 36.6777,5.54492 36.6303,5.63939 36.5805,5.75349 36.5293,5.88867 36.4268,6.15903 36.3126,6.51245 36.1895,6.92578 35.9432,7.75245 35.6641,8.81832 35.3984,9.89648 35.1328,10.9747 34.8809,12.0658 34.6914,12.9434 34.5019,13.8209 34.3754,14.4513 34.3555,14.7285 34.2158,16.6655 34.7076,18.3697 35.2344,19.7031 35.4978,20.3699 35.7709,20.9453 35.9785,21.4082 36.1861,21.8711 36.3195,22.237 36.3301,22.3965 36.349,22.6804 36.2704,23.181 36.1582,23.7617 36.046,24.3424 35.9061,25.0127 35.8262,25.6875 35.7462,26.3623 35.7234,27.0431 35.8594,27.6602 35.9954,28.2772 36.3042,28.8381 36.8672,29.1992 38.0372,29.9495 40.0342,29.9094 41.9492,29.752 42.9067,29.6732 43.842,29.5572 44.627,29.4668 45.4119,29.3764 46.0596,29.3165 46.3828,29.3398 46.8274,29.3719 48.1812,29.6981 49.6855,29.8652 51.1899,30.0323 52.8845,30.0518 54.1797,29.4141 54.4869,29.2629 54.6744,28.9596 54.8457,28.6113 55.017,28.263 55.1648,27.8535 55.3145,27.4551 55.4641,27.0566 55.6163,26.6694 55.7793,26.377 55.9423,26.0845 56.1147,25.9076 56.252,25.8633 58.3051,25.1992 59.2573,24.7928 60.1719,24.5586 61.0267,24.3397 62.2522,24.2595 64,24.25 V 23.75 C 61.978,23.75 61.016,23.8265 60.0488,24.0742 59.0816,24.3219 58.1369,24.7271 56.0977,25.3867 55.7553,25.4974 55.5311,25.793 55.3418,26.1328 55.1524,26.4726 54.9966,26.8776 54.8457,27.2793 54.6948,27.681 54.5492,28.0801 54.3965,28.3906 54.2438,28.7011 54.0748,28.9078 53.959,28.9648 52.827,29.5222 51.2053,29.5299 49.7402,29.3672 48.2752,29.2044 47.0089,28.8825 46.418,28.8398 45.9964,28.8094 45.3592,28.8779 44.5703,28.9688 43.7814,29.0596 42.8517,29.1763 41.9082,29.2539 40.0211,29.4091 38.0662,29.3734 37.1367,28.7773 36.6984,28.4962 36.4641,28.0812 36.3477,27.5527 36.2312,27.0243 36.2458,26.3915 36.3223,25.7461 36.3987,25.1006 36.5352,24.4435 36.6484,23.8574 36.7616,23.2714 36.8568,22.7642 36.8301,22.3633 36.8082,22.035 36.6447,21.6739 36.4336,21.2031 36.2224,20.7324 35.9553,20.1679 35.6992,19.5195 35.187,18.2228 34.7234,16.5978 34.8555,14.7656 34.8667,14.6089 34.9934,13.9207 35.1816,13.0488 35.3699,12.177 35.6203,11.0889 35.8848,10.0156 36.1492,8.94234 36.4277,7.88163 36.6699,7.06836 36.791,6.66173 36.9031,6.31684 36.998,6.06641 37.0455,5.94119 37.088,5.83926 37.123,5.76953 37.1581,5.6998 37.1986,5.66091 37.1719,5.68359 38.4931,4.56096 39.0415,3.56634 39.3574,2.6543 39.6733,1.74225 39.8091,0.82005 40.25,0 Z"
             style="color:#000000;fill:#000000;stroke-width:0.5" />
         <path
             sodipodi:nodetypes="cccccccccccccssccccccccccccccccccccscccccccccccccccccccccscsccsccccccccccccccscscccccccccccsccc"
             inkscape:connector-curvature="0"
             id="path1429-3-6-7-5-3-5-6-3-3"
             d="M 32,23.75 C 30.6701,23.75 29.1294,24.4713 28.1543,25.4707 27.7598,25.8751 27.5394,26.3293 27.3145,26.6738 27.0895,27.0183 26.8918,27.2414 26.5117,27.3223 26.3663,27.3532 26.1181,27.2712 25.8125,27.0664 25.5069,26.8617 25.1582,26.5562 24.793,26.252 24.4277,25.9477 24.045,25.6428 23.6465,25.4336 23.2479,25.2244 22.8131,25.107 22.3848,25.2422 21.6284,25.4808 21.0906,26.0212 20.6094,26.5488 20.1281,27.0765 19.6948,27.5929 19.1953,27.8613 17.3396,28.8586 15.2632,28.901 14.418,28.8398 14.4093,28.8392 14.3947,28.8402 14.3496,28.7852 14.3045,28.7301 14.2468,28.6265 14.1934,28.4922 14.0864,28.2236 13.9879,27.8348 13.8789,27.4277 13.7699,27.0206 13.6502,26.5938 13.4805,26.2246 13.3108,25.8554 13.087,25.5242 12.7285,25.377 12.387,25.2367 11.6548,24.942 10.8984,24.7695 10.5203,24.6833 10.1351,24.6264 9.7793,24.6406 9.42348,24.6549 9.08261,24.741 8.83594,24.9805 8.2109,25.5874 8.06841,26.5947 7.91602,27.3906 7.83982,27.7886 7.7626,28.1399 7.66992,28.334 7.62358,28.4311 7.57602,28.4807 7.54883,28.498 7.52164,28.5154 7.51023,28.5227 7.43945,28.5039 7.20658,28.4421 6.87155,28.1152 6.56445,27.5977 6.25735,27.0801 5.96615,26.3959 5.7168,25.6914 5.21809,24.2825 4.88207,22.7529 4.84766,22.3398 4.81456,21.9427 4.63957,20.7851 4.48242,19.3203 4.32527,17.8556 4.18883,16.1047 4.23633,14.6113 4.24556,14.321 4.16292,13.9673 4.06641,13.5586 3.96989,13.1499 3.85489,12.6961 3.7793,12.2754 3.7037,11.8547 3.6736,11.4638 3.72266,11.2109 3.74718,11.0845 3.78774,10.9973 3.83594,10.9434 3.88414,10.8894 3.93995,10.8565 4.05078,10.8418 4.04227,10.8429 4.09634,10.8456 4.1875,10.9062 4.27866,10.9669 4.39723,11.0728 4.52734,11.209 4.78756,11.4813 5.09489,11.8737 5.4082,12.2871 5.72151,12.7005 6.04195,13.1351 6.34375,13.502 6.64555,13.8688 6.91366,14.1681 7.20117,14.3262 7.5333,14.5088 7.90835,14.4765 8.23047,14.3398 8.55258,14.2032 8.84357,13.9692 9.10156,13.7109 9.35956,13.4527 9.58243,13.1686 9.74805,12.916 9.91366,12.6634 10.0262,12.4811 10.0586,12.2715 10.2321,11.1467 9.99453,9.85337 9.80469,8.61328 9.61484,7.3732 9.47889,6.1904 9.75977,5.35352 9.95496,4.77187 9.93526,4.28857 9.78711,3.88281 9.63896,3.47706 9.3803,3.15519 9.12891,2.82422 8.62612,2.16228 8.12044,1.46341 8.25,0 H 7.75 C 7.7138,1.3942 8.25802,2.50495 8.73047,3.12695 8.98465,3.46159 9.20432,3.7477 9.31641,4.05469 9.42849,4.36167 9.45235,4.69514 9.28516,5.19336 8.94645,6.20254 9.11946,7.43932 9.31055,8.6875 9.50163,9.93568 9.71812,11.1992 9.56445,12.1953 9.5651,12.1911 9.4776,12.4156 9.33008,12.6406 9.18255,12.8656 8.97685,13.1284 8.74805,13.3574 8.51924,13.5864 8.26571,13.7811 8.03516,13.8789 7.8046,13.9767 7.62003,13.9869 7.44141,13.8887 7.29442,13.8079 7.01944,13.5349 6.73047,13.1836 6.4415,12.8323 6.12254,12.4012 5.80664,11.9844 5.49074,11.5675 5.17827,11.1663 4.88867,10.8633 4.74387,10.7118 4.60665,10.5846 4.46484,10.4902 4.32304,10.3959 4.16918,10.3212 3.98438,10.3457 3.7753,10.3735 3.58987,10.4691 3.46289,10.6113 3.33591,10.7535 3.26658,10.9291 3.23047,11.1152 3.15824,11.4876 3.20691,11.9189 3.28711,12.3652 3.3673,12.8115 3.4852,13.2721 3.58008,13.6738 3.67495,14.0756 3.74158,14.4286 3.73633,14.5938 3.68747,16.1298 3.82602,17.897 3.98438,19.373 4.14273,20.8491 4.32251,22.0557 4.34961,22.3809 4.39603,22.938 4.73393,24.4105 5.24609,25.8574 5.50218,26.5809 5.80023,27.2897 6.13477,27.8535 6.4693,28.4173 6.8298,28.8608 7.31055,28.9883 7.48505,29.0346 7.67602,29.0107 7.81836,28.9199 7.9607,28.8292 8.05127,28.6951 8.12109,28.5488 8.26073,28.2563 8.32927,27.8864 8.40625,27.4844 8.5602,26.6803 8.74426,25.7645 9.18359,25.3379 9.30271,25.2222 9.51437,25.1521 9.80078,25.1406 10.0872,25.1291 10.4354,25.1776 10.7871,25.2578 11.4905,25.4182 12.2029,25.7018 12.5391,25.8398 12.7104,25.9102 12.8802,26.1178 13.0254,26.4336 13.1706,26.7494 13.2889,27.1546 13.3965,27.5566 13.5041,27.9587 13.6006,28.3566 13.7285,28.6777 13.7925,28.8383 13.8642,28.981 13.9629,29.1016 14.0616,29.2221 14.2067,29.327 14.3828,29.3398 15.3002,29.4063 17.446,29.3698 19.4316,28.3027 20.0544,27.968 20.5091,27.3994 20.9785,26.8848 21.4479,26.3701 21.9224,25.9121 22.5352,25.7188 22.7905,25.6382 23.0784,25.7007 23.4141,25.877 23.7498,26.0532 24.1137,26.3376 24.4727,26.6367 24.8316,26.9358 25.1872,27.2474 25.5352,27.4805 25.8831,27.7136 26.2384,27.8906 26.6152,27.8105 27.1573,27.6953 27.483,27.3292 27.7324,26.9473 27.9818,26.5654 28.1845,26.1558 28.5117,25.8203 29.3257,24.986 30.9022,24.3358 32,24.25 Z"
             style="color:#000000;fill:#000000;stroke-width:0.5" />
      </g>
   </g>
  <g
     inkscape:groupmode="layer"
     id="details"
     inkscape:label="details" />
</svg>
