<?xml version="1.0" encoding="UTF-8" standalone="no"?>
<svg
    xmlns:dc="http://purl.org/dc/elements/1.1/"
    xmlns:cc="http://creativecommons.org/ns#"
    xmlns:rdf="http://www.w3.org/1999/02/22-rdf-syntax-ns#"
    xmlns:svg="http://www.w3.org/2000/svg"
    xmlns="http://www.w3.org/2000/svg"
    xmlns:xlink="http://www.w3.org/1999/xlink"
    xmlns:sodipodi="http://sodipodi.sourceforge.net/DTD/sodipodi-0.dtd"
    xmlns:inkscape="http://www.inkscape.org/namespaces/inkscape"
    width="128mm"
    height="128mm"
    viewBox="0 0 128 128"
    version="1.1"
    id="base_svg"
    sodipodi:docname="Bleftcorners.svg"
    inkscape:version="0.92.2 5c3e80d, 2017-08-06">
   <defs
       id="defs921">
      <mask
          maskUnits="userSpaceOnUse"
          id="mask2783">
         <g
             id="g2853"
             transform="scale(1)">
            <g
                id="g2817"
                transform="translate(0,0.0054)">
               <path
                   style="fill:#ffffff;stroke-width:0.5218"
                   d="M 0,-0.0054 H 8.001 C 7.977,1.625 7.879,1.353 7.075,2.201 6.636,2.665 8.133,3.662 7.072,4.451 6.644,4.768 6.122,6.681 5.114,6.914 4.053,7.16 2.507,5.723 2.252,5.879 0.9546,6.676 1.496,8.033 0,7.996 Z"
                   id="path2785"
                   inkscape:connector-curvature="0"
                   sodipodi:nodetypes="ccsssscc" />
               <path
                   style="fill:#ffffff;stroke-width:0.5218"
                   d="M 31.99,-0.0054 H 40 C 39.98,1.961 38.36,7.173 37.02,6.694 35.67,6.213 36.17,5.276 33.92,5.9 31.67,6.522 33.5,8.033 31.99,7.996 Z"
                   id="path2787"
                   inkscape:connector-curvature="0"
                   sodipodi:nodetypes="cczzcc" />
               <path
                   style="fill:#ffffff;stroke-width:0.5218"
                   d="M 64,-0.0054 H 71.99 C 71.99,1.13 72.42,2.491 70.46,2.763 68.53,3.035 67.92,1.883 67.26,3.189 66.6,4.493 68.58,7.874 67.18,9.245 65.8,10.61 65.51,8.033 64,7.996 Z"
                   id="path2789"
                   inkscape:connector-curvature="0"
                   sodipodi:nodetypes="cczzzcc" />
               <path
                   style="fill:#ffffff;stroke-width:0.5218"
                   d="M 95.99,-0.0054 H 104 C 103.9,3.345 100.6,4.858 98.5,3.919 96.33,2.982 97.5,8.033 95.99,7.996 Z"
                   id="path2791"
                   inkscape:connector-curvature="0"
                   sodipodi:nodetypes="cczcc" />
               <path
                   style="fill:#ffffff;stroke-width:0.5218"
                   d="M 0,31.98 H 8.001 C 7.977,33.46 5.371,33.67 6.63,34.62 8.268,35.84 7.49,35.87 7.443,36.95 7.361,38.83 8.276,38.25 7.064,39.6 5.747,41.08 4.31,40.55 2.608,39.81 1.054,39.15 0.3768,39.99 0,39.99 Z"
                   id="path2793"
                   inkscape:connector-curvature="0"
                   sodipodi:nodetypes="ccsssscc" />
               <path
                   style="fill:#ffffff;stroke-width:0.5218"
                   d="M 31.99,31.98 H 40 C 39.95,35.34 37.17,35.39 35.88,36.42 34.61,37.45 33.5,40.02 31.99,39.99 Z"
                   id="path2795"
                   inkscape:connector-curvature="0"
                   sodipodi:nodetypes="cczcc" />
               <path
                   style="fill:#ffffff;stroke-width:0.5218"
                   d="M 64,31.98 H 71.99 C 71.94,35.34 75.14,33.49 73.55,35.26 71.99,37.03 65.51,40.02 64,39.99 Z"
                   id="path2797"
                   inkscape:connector-curvature="0"
                   sodipodi:nodetypes="cczcc" />
               <path
                   style="fill:#ffffff;stroke-width:0.5218"
                   d="M 95.99,31.98 H 104 C 103.9,35.34 99.72,32.27 98.05,34.44 96.33,36.61 97.5,40.02 95.99,39.99 Z"
                   id="path2799"
                   inkscape:connector-curvature="0"
                   sodipodi:nodetypes="cczcc" />
               <path
                   style="fill:#ffffff;stroke-width:0.5218"
                   d="M 0,63.99 H 8.001 C 7.972,65.79 5.794,64.18 4.609,65.58 3.421,66.98 3.336,65.66 2.376,67.38 1.416,69.13 4.061,69.84 2.433,70.45 0.8043,71.11 1.496,72.04 0,71.98 Z"
                   id="path2801"
                   inkscape:connector-curvature="0"
                   sodipodi:nodetypes="cczzzcc" />
               <path
                   style="fill:#ffffff;stroke-width:0.5218"
                   d="M 31.99,63.99 H 40 C 39.98,64.87 40.61,65.1 39.26,66.8 37.94,68.52 37.07,66.48 36.43,68.07 35.06,71.53 35.8,70.9 34.87,71.03 33.02,71.27 33.5,72.04 31.99,71.98 Z"
                   id="path2803"
                   inkscape:connector-curvature="0"
                   sodipodi:nodetypes="cczsscc" />
               <path
                   style="fill:#ffffff;stroke-width:0.5218"
                   d="M 64,63.99 H 71.99 C 71.94,67.35 71.07,69.26 69.37,70.95 67.68,72.67 65.51,72.04 64,71.98 Z"
                   id="path2805"
                   inkscape:connector-curvature="0"
                   sodipodi:nodetypes="cczcc" />
               <path
                   style="fill:#ffffff;stroke-width:0.5218"
                   d="M 95.99,63.99 H 104 C 103.9,67.35 102.1,64.47 101.6,66.45 101,68.46 97.5,72.04 95.99,71.98 Z"
                   id="path2807"
                   inkscape:connector-curvature="0"
                   sodipodi:nodetypes="cczcc" />
               <path
                   style="fill:#ffffff;stroke-width:0.5218"
                   d="M 0,95.98 H 8.001 C 7.948,99.34 6.879,99.87 6.765,102.4 6.654,105 1.496,104 0,104 Z"
                   id="path2809"
                   inkscape:connector-curvature="0"
                   sodipodi:nodetypes="cczcc" />
               <path
                   style="fill:#ffffff;stroke-width:0.5218"
                   d="M 31.99,95.98 H 40 C 39.98,97.91 38.81,97.46 37.49,98.57 36.49,99.42 37.84,101.3 36.72,102 33.71,104.1 33.5,104 31.99,104 Z"
                   id="path2811"
                   inkscape:connector-curvature="0"
                   sodipodi:nodetypes="ccsscc" />
               <path
                   style="fill:#ffffff;stroke-width:0.5218"
                   d="M 64,95.98 H 71.99 C 71.99,96.93 71.78,96.93 70.43,97.99 69.29,98.89 70.75,99.95 69.77,101 68.29,102.6 67.5,99.63 67.07,101.1 66.46,103.1 65.51,104 64,104 Z"
                   id="path2813"
                   inkscape:connector-curvature="0"
                   sodipodi:nodetypes="ccssscc" />
               <path
                   style="fill:#ffffff;stroke-width:0.5218"
                   d="M 95.99,95.98 H 104 C 104,97.86 104.8,97.22 103.8,99.79 102.9,101.8 101.3,100.5 99.85,101.4 98.42,102.3 97.5,104 95.99,104 Z"
                   id="path2815"
                   inkscape:connector-curvature="0"
                   sodipodi:nodetypes="ccszcc" />
            </g>
            <g
                transform="matrix(1,0,0,-1,0,128)"
                id="g2851">
               <path
                   sodipodi:nodetypes="ccsssscc"
                   inkscape:connector-curvature="0"
                   id="path2819"
                   d="M 0,-0.0054 H 8.001 C 7.977,1.625 7.879,1.353 7.075,2.201 6.636,2.665 8.133,3.662 7.072,4.451 6.644,4.768 6.122,6.681 5.114,6.914 4.053,7.16 2.507,5.723 2.252,5.879 0.9546,6.676 1.496,8.033 0,7.996 Z"
                   style="fill:#ffffff;stroke-width:0.5218" />
               <path
                   sodipodi:nodetypes="cczzcc"
                   inkscape:connector-curvature="0"
                   id="path2821"
                   d="M 31.99,-0.0054 H 40 C 39.98,1.961 38.36,7.173 37.02,6.694 35.67,6.213 36.17,5.276 33.92,5.9 31.67,6.522 33.5,8.033 31.99,7.996 Z"
                   style="fill:#ffffff;stroke-width:0.5218" />
               <path
                   sodipodi:nodetypes="cczzzcc"
                   inkscape:connector-curvature="0"
                   id="path2823"
                   d="M 64,-0.0054 H 71.99 C 71.99,1.13 72.42,2.491 70.46,2.763 68.53,3.035 67.92,1.883 67.26,3.189 66.6,4.493 68.58,7.874 67.18,9.245 65.8,10.61 65.51,8.033 64,7.996 Z"
                   style="fill:#ffffff;stroke-width:0.5218" />
               <path
                   sodipodi:nodetypes="cczcc"
                   inkscape:connector-curvature="0"
                   id="path2825"
                   d="M 95.99,-0.0054 H 104 C 103.9,3.345 100.6,4.858 98.5,3.919 96.33,2.982 97.5,8.033 95.99,7.996 Z"
                   style="fill:#ffffff;stroke-width:0.5218" />
               <path
                   sodipodi:nodetypes="ccsssscc"
                   inkscape:connector-curvature="0"
                   id="path2827"
                   d="M 0,31.98 H 8.001 C 7.977,33.46 5.371,33.67 6.63,34.62 8.268,35.84 7.49,35.87 7.443,36.95 7.361,38.83 8.276,38.25 7.064,39.6 5.747,41.08 4.31,40.55 2.608,39.81 1.054,39.15 0.3768,39.99 0,39.99 Z"
                   style="fill:#ffffff;stroke-width:0.5218" />
               <path
                   sodipodi:nodetypes="cczcc"
                   inkscape:connector-curvature="0"
                   id="path2829"
                   d="M 31.99,31.98 H 40 C 39.95,35.34 37.17,35.39 35.88,36.42 34.61,37.45 33.5,40.02 31.99,39.99 Z"
                   style="fill:#ffffff;stroke-width:0.5218" />
               <path
                   sodipodi:nodetypes="cczcc"
                   inkscape:connector-curvature="0"
                   id="path2831"
                   d="M 64,31.98 H 71.99 C 71.94,35.34 75.14,33.49 73.55,35.26 71.99,37.03 65.51,40.02 64,39.99 Z"
                   style="fill:#ffffff;stroke-width:0.5218" />
               <path
                   sodipodi:nodetypes="cczcc"
                   inkscape:connector-curvature="0"
                   id="path2833"
                   d="M 95.99,31.98 H 104 C 103.9,35.34 99.72,32.27 98.05,34.44 96.33,36.61 97.5,40.02 95.99,39.99 Z"
                   style="fill:#ffffff;stroke-width:0.5218" />
               <path
                   sodipodi:nodetypes="cczzzcc"
                   inkscape:connector-curvature="0"
                   id="path2835"
                   d="M 0,63.99 H 8.001 C 7.972,65.79 5.794,64.18 4.609,65.58 3.421,66.98 3.336,65.66 2.376,67.38 1.416,69.13 4.061,69.84 2.433,70.45 0.8043,71.11 1.496,72.04 0,71.98 Z"
                   style="fill:#ffffff;stroke-width:0.5218" />
               <path
                   sodipodi:nodetypes="cczsscc"
                   inkscape:connector-curvature="0"
                   id="path2837"
                   d="M 31.99,63.99 H 40 C 39.98,64.87 40.61,65.1 39.26,66.8 37.94,68.52 37.07,66.48 36.43,68.07 35.06,71.53 35.8,70.9 34.87,71.03 33.02,71.27 33.5,72.04 31.99,71.98 Z"
                   style="fill:#ffffff;stroke-width:0.5218" />
               <path
                   sodipodi:nodetypes="cczcc"
                   inkscape:connector-curvature="0"
                   id="path2839"
                   d="M 64,63.99 H 71.99 C 71.94,67.35 71.07,69.26 69.37,70.95 67.68,72.67 65.51,72.04 64,71.98 Z"
                   style="fill:#ffffff;stroke-width:0.5218" />
               <path
                   sodipodi:nodetypes="cczcc"
                   inkscape:connector-curvature="0"
                   id="path2841"
                   d="M 95.99,63.99 H 104 C 103.9,67.35 102.1,64.47 101.6,66.45 101,68.46 97.5,72.04 95.99,71.98 Z"
                   style="fill:#ffffff;stroke-width:0.5218" />
               <path
                   sodipodi:nodetypes="cczcc"
                   inkscape:connector-curvature="0"
                   id="path2843"
                   d="M 0,95.98 H 8.001 C 7.948,99.34 6.879,99.87 6.765,102.4 6.654,105 1.496,104 0,104 Z"
                   style="fill:#ffffff;stroke-width:0.5218" />
               <path
                   sodipodi:nodetypes="ccsscc"
                   inkscape:connector-curvature="0"
                   id="path2845"
                   d="M 31.99,95.98 H 40 C 39.98,97.91 38.81,97.46 37.49,98.57 36.49,99.42 37.84,101.3 36.72,102 33.71,104.1 33.5,104 31.99,104 Z"
                   style="fill:#ffffff;stroke-width:0.5218" />
               <path
                   sodipodi:nodetypes="ccssscc"
                   inkscape:connector-curvature="0"
                   id="path2847"
                   d="M 64,95.98 H 71.99 C 71.99,96.93 71.78,96.93 70.43,97.99 69.29,98.89 70.75,99.95 69.77,101 68.29,102.6 67.5,99.63 67.07,101.1 66.46,103.1 65.51,104 64,104 Z"
                   style="fill:#ffffff;stroke-width:0.5218" />
               <path
                   sodipodi:nodetypes="ccszcc"
                   inkscape:connector-curvature="0"
                   id="path2849"
                   d="M 95.99,95.98 H 104 C 104,97.86 104.8,97.22 103.8,99.79 102.9,101.8 101.3,100.5 99.85,101.4 98.42,102.3 97.5,104 95.99,104 Z"
                   style="fill:#ffffff;stroke-width:0.5218" />
            </g>
         </g>
      </mask>
   </defs>
   <sodipodi:namedview
       pagecolor="#ffffff"
       bordercolor="#666666"
       borderopacity="1"
       objecttolerance="10"
       gridtolerance="10"
       guidetolerance="10"
       inkscape:pageopacity="0"
       inkscape:pageshadow="2"
       inkscape:window-width="1678"
       inkscape:window-height="1029"
       id="namedview3444"
       showgrid="false"
       inkscape:zoom="1.38"
       inkscape:cx="225.4"
       inkscape:cy="235.7"
       inkscape:window-x="1"
       inkscape:window-y="516"
       inkscape:window-maximized="0"
       inkscape:current-layer="bg_b_layer" />
   <metadata
       id="metadata1919">
      <rdf:RDF>
         <cc:Work
             rdf:about="">
            <dc:format>image/svg+xml</dc:format>
            <dc:type
                rdf:resource="http://purl.org/dc/dcmitype/StillImage" />
            <dc:title></dc:title>
         </cc:Work>
      </rdf:RDF>
   </metadata>
   <g
       inkscape:groupmode="layer"
       id="models_layer"
       inkscape:label="Models"
       sodipodi:insensitive="true">
      <g
          id="bg_a_model">
         <rect
             y="0"
             x="0"
             height="128"
             width="128"
             id="rect2648"
             style="fill:#008080;stroke-width:2;stroke-linecap:round;stroke-linejoin:round;paint-order:markers fill stroke" />
         <text
             id="text2652"
             y="19.64"
             x="12.47"
             style="font-size:10.5833px;line-height:1.25;font-family:sans-serif;letter-spacing:0px;word-spacing:0px;fill:#000000;stroke-width:0.2646"
             xml:space="preserve"><tspan
                y="19.64"
                x="12.47"
                id="tspan2650"
                sodipodi:role="line">A</tspan></text>
      </g>
      <g
          id="bg_b_model">
         <rect
             y="0"
             x="0"
             height="128"
             width="128"
             id="rect2648-6"
             style="fill:#800000;stroke-width:2;stroke-linecap:round;stroke-linejoin:round;paint-order:markers fill stroke" />
         <text
             id="text2652-2"
             y="19.64"
             x="12.47"
             style="font-size:10.5833px;line-height:1.25;font-family:sans-serif;letter-spacing:0px;word-spacing:0px;fill:#000000;stroke-width:0.2646"
             xml:space="preserve"><tspan
                y="19.64"
                x="12.47"
                id="tspan2650-6"
                sodipodi:role="line">B</tspan></text>
      </g>
   </g>
   <g
       inkscape:groupmode="layer"
       id="bg_a_layer"
       inkscape:label="Background A"
       sodipodi:insensitive="true">
      <use
          x="0"
          y="0"
          xlink:href="#bg_a_model"
          id="bga30"
          width="100%"
          height="100%" />
   </g>
   <g
       inkscape:groupmode="layer"
       id="bg_b_layer"
       inkscape:label="Background B">
      <use
          x="0"
          y="0"
          xlink:href="#bg_b_model"
          id="bgb30"
          width="100%"
          height="100%"
          mask="url(#mask2783)" />
   </g>
   <g
       inkscape:groupmode="layer"
       id="layer3"
       inkscape:label="borders"
       sodipodi:insensitive="true">
      <g
          id="g1046">
         <path
             mask="none"
             inkscape:connector-curvature="0"
             style="color:#000000;fill:#000000;stroke-width:0.1871"
             d="M 7.75,96 C 7.694,97.43 7.433,98.63 7.168,99.43 6.882,100.3 6.573,101.1 6.516,102.4 6.492,103 6.226,103.3 5.758,103.5 5.29,103.8 4.617,103.9 3.891,103.9 2.529,104 0.8398,103.8 0,103.8 0,103.8 0,104.3 0,104.3 0.7015,104.3 2.386,104.5 3.914,104.4 4.678,104.4 5.409,104.3 5.986,104 6.564,103.7 6.984,103.2 7.016,102.4 7.07,101.2 7.352,100.5 7.643,99.59 7.933,98.72 8.224,97.7 8.25,96 8.25,96 7.75,96 7.75,96"
             id="frontier-4" />
         <path
             mask="none"
             inkscape:connector-curvature="0"
             style="color:#000000;fill:#000000;stroke-width:0.1871"
             d="M 39.75,96 C 39.72,96.27 39.64,96.79 39.56,96.93 39.45,97.13 39.31,97.26 39.1,97.38 38.69,97.62 38.02,97.81 37.32,98.4 37.01,98.65 36.88,99 36.84,99.35 36.81,99.69 36.85,100 36.89,100.4 36.93,100.7 36.95,101 36.92,101.3 36.88,101.5 36.79,101.7 36.58,101.8 35.08,102.8 34.28,103.3 33.7,103.6 33.21,103.8 32.56,103.8 32,103.8 32,103.8 32,104.3 32,104.3 32.75,104.3 33.23,104.3 33.88,104 34.54,103.8 35.35,103.3 36.86,102.2 37.19,102 37.36,101.7 37.41,101.3 37.46,101 37.42,100.7 37.39,100.3 37.35,99.99 37.31,99.66 37.34,99.4 37.37,99.14 37.45,98.94 37.64,98.78 38.27,98.26 38.85,98.11 39.35,97.81 39.61,97.66 39.84,97.47 40,97.17 40.16,96.88 40.24,96.5 40.25,96 40.25,96 39.75,96 39.75,96"
             id="frontier-3-8" />
         <path
             mask="none"
             inkscape:connector-curvature="0"
             style="color:#000000;fill:#000000;stroke-width:0.1871"
             d="M 64,104.3 C 64.8,104.3 65.49,104 66.04,103.5 66.59,103 67,102.2 67.3,101.2 67.35,101 67.39,101 67.41,101 67.45,101 67.64,101.1 67.86,101.3 68.09,101.5 68.38,101.7 68.75,101.7 69.12,101.8 69.54,101.6 69.95,101.2 70.23,100.9 70.35,100.5 70.38,100.2 70.4,99.93 70.34,99.64 70.29,99.39 70.24,99.14 70.2,98.92 70.23,98.74 70.26,98.56 70.34,98.39 70.58,98.2 71.25,97.67 71.64,97.41 71.9,97.12 72.16,96.82 72.24,96.48 72.25,96 72.25,96 71.75,96 71.75,96 71.73,96.19 71.65,96.64 71.53,96.78 71.34,96.99 70.95,97.27 70.27,97.81 69.95,98.06 69.78,98.37 69.74,98.66 69.69,98.96 69.75,99.23 69.8,99.49 69.85,99.75 69.9,99.98 69.88,100.2 69.86,100.4 69.79,100.6 69.58,100.8 69.25,101.2 69.01,101.3 68.81,101.2 68.6,101.2 68.39,101.1 68.18,100.9 67.97,100.7 67.81,100.5 67.53,100.5 67.39,100.4 67.19,100.5 67.07,100.6 66.95,100.7 66.88,100.8 66.82,101 66.53,102 66.15,102.7 65.7,103.1 65.31,103.5 64.56,103.7 64,103.8 64,103.8 64,104.3 64,104.3"
             id="frontier-3-6-1" />
         <path
             mask="none"
             inkscape:connector-curvature="0"
             style="color:#000000;fill:#000000;stroke-width:0.1871"
             d="M 96,104.3 C 96.85,104.3 97.51,103.8 98.11,103.2 98.72,102.7 99.3,102 99.98,101.6 100.6,101.2 101.3,101.3 102.1,101.3 102.4,101.3 102.8,101.2 103.1,101 103.5,100.8 103.8,100.4 104,99.9 104.5,98.6 104.6,98.04 104.5,97.59 104.4,97.14 104.2,96.89 104.2,96 104.2,96 103.7,96 103.7,96 103.8,96.68 104,97.4 104,97.69 104.1,98.02 104.1,98.44 103.5,99.71 103.3,100.2 103.1,100.4 102.9,100.6 102.6,100.7 102.4,100.8 102,100.8 101.4,100.8 100.5,100.7 99.73,101.2 98.95,101.6 98.36,102.3 97.77,102.8 97.27,103.3 96.53,103.7 96,103.8 96,103.8 96,104.3 96,104.3"
             id="frontier-3-6-7-0" />
         <path
             mask="none"
             inkscape:connector-curvature="0"
             style="color:#000000;fill:#000000;stroke-width:0.1871"
             d="M 0,72.25 C 0.3994,72.26 0.6785,72.21 0.9004,72.09 1.122,71.97 1.258,71.79 1.371,71.63 1.598,71.31 1.759,71 2.523,70.71 2.745,70.62 2.91,70.53 3.033,70.41 3.157,70.29 3.23,70.12 3.227,69.96 3.22,69.65 3.027,69.44 2.859,69.21 2.691,68.97 2.522,68.73 2.449,68.46 2.376,68.2 2.381,67.91 2.594,67.52 2.826,67.1 3.001,66.88 3.127,66.77 3.253,66.66 3.325,66.65 3.457,66.62 3.589,66.59 3.783,66.57 4.01,66.45 4.237,66.33 4.489,66.12 4.799,65.75 5.056,65.45 5.351,65.31 5.684,65.25 6.016,65.18 6.382,65.19 6.736,65.19 7.09,65.2 7.438,65.2 7.744,65.03 8.05,64.86 8.242,64.5 8.25,64 8.25,64 7.75,64 7.75,64 7.708,64.12 7.59,64.55 7.506,64.59 7.359,64.67 7.083,64.7 6.74,64.69 6.398,64.69 5.996,64.67 5.586,64.76 5.176,64.84 4.752,65.03 4.416,65.43 4.133,65.77 3.93,65.92 3.777,66 3.624,66.08 3.515,66.1 3.357,66.13 3.2,66.16 2.996,66.22 2.799,66.4 2.602,66.57 2.404,66.84 2.156,67.28 1.889,67.77 1.866,68.22 1.969,68.59 2.071,68.97 2.283,69.26 2.453,69.5 2.623,69.73 2.725,69.92 2.727,69.97 2.727,70 2.733,70 2.686,70.05 2.638,70.1 2.528,70.17 2.342,70.24 1.478,70.58 1.172,71.05 0.9629,71.34 0.8585,71.49 0.7841,71.58 0.6641,71.65 0.5886,71.69 0.1526,71.73 0,71.75 0,71.75 0,72.25 0,72.25"
             id="frontier-5-30" />
         <path
             mask="none"
             inkscape:connector-curvature="0"
             style="color:#000000;fill:#000000;stroke-width:0.1871"
             d="M 39.75,64 C 39.79,64.32 39.89,64.86 39.88,65.1 39.87,65.41 39.73,65.84 39.07,66.67 38.76,67.07 38.5,67.22 38.29,67.27 38.07,67.33 37.87,67.29 37.64,67.24 37.42,67.19 37.17,67.12 36.88,67.2 36.6,67.29 36.38,67.54 36.21,67.98 35.52,69.72 35.34,70.48 35.25,70.72 35.24,70.76 35.24,70.75 35.24,70.76 35.2,70.76 35.07,70.75 34.83,70.79 33.88,70.92 33.46,71.21 33.16,71.42 32.93,71.59 32.4,71.72 32,71.75 32,71.75 32,72.25 32,72.25 32.79,72.27 33.15,72.04 33.45,71.83 33.75,71.61 34.02,71.4 34.9,71.28 35.11,71.25 35.2,71.27 35.35,71.25 35.43,71.24 35.53,71.2 35.6,71.12 35.66,71.05 35.69,70.97 35.72,70.89 35.84,70.55 35.99,69.89 36.67,68.16 36.82,67.8 36.93,67.71 37.03,67.68 37.13,67.65 37.3,67.68 37.53,67.73 37.77,67.78 38.07,67.84 38.41,67.76 38.75,67.67 39.1,67.43 39.46,66.98 40.15,66.11 40.36,65.57 40.38,65.11 40.4,64.66 40.24,64.38 40.25,64 40.25,64 39.75,64 39.75,64"
             id="frontier-3-62-4" />
         <path
             mask="none"
             inkscape:connector-curvature="0"
             style="color:#000000;fill:#000000;stroke-width:0.1871"
             d="M 71.75,64 C 71.65,67.11 70.81,69.17 69.2,70.79 67.67,72.32 65.53,71.83 64,71.75 64,71.75 64,72.25 64,72.25 65.43,72.29 67.76,72.95 69.55,71.14 71.29,69.4 72.2,67.39 72.25,64 72.25,64 71.75,64 71.75,64"
             id="frontier-3-6-9-4" />
         <path
             mask="none"
             inkscape:connector-curvature="0"
             style="color:#000000;fill:#000000;stroke-width:0.1871"
             d="M 103.8,64 C 103.7,64.54 103.6,65.24 103.5,65.36 103.4,65.44 103.4,65.47 103.3,65.48 103.2,65.5 103.1,65.5 103,65.49 102.8,65.47 102.5,65.38 102.1,65.47 101.8,65.56 101.5,65.85 101.3,66.4 101.1,67.32 100.1,68.71 98.95,69.83 98.4,70.38 97.81,70.88 97.28,71.23 96.86,71.51 96.28,71.7 96,71.75 96,71.75 96,72.25 96,72.25 96.48,72.26 96.99,72.02 97.56,71.64 98.12,71.27 98.73,70.76 99.31,70.18 100.5,69.03 101.5,67.64 101.8,66.54 101.9,66.09 102.1,66 102.3,65.96 102.4,65.91 102.7,65.96 103,65.99 103.1,66 103.3,66.01 103.4,65.97 103.6,65.93 103.8,65.83 103.9,65.67 104.1,65.36 104.2,64.86 104.3,64 104.3,64 103.8,64 103.8,64"
             id="frontier-3-6-7-1-4" />
         <path
             mask="none"
             inkscape:connector-curvature="0"
             style="color:#000000;fill:#000000;stroke-width:0.1871"
             d="M 7.75,32 C 7.695,32.16 7.549,32.58 7.418,32.72 7.217,32.93 6.943,33.12 6.689,33.3 6.436,33.48 6.187,33.64 6.076,33.93 6.021,34.08 6.028,34.26 6.104,34.41 6.179,34.56 6.305,34.69 6.48,34.83 6.882,35.13 7.128,35.35 7.262,35.52 7.396,35.68 7.417,35.77 7.418,35.85 7.42,36.02 7.219,36.34 7.193,36.94 7.151,37.92 7.385,38.36 7.434,38.55 7.458,38.64 7.466,38.66 7.4,38.79 7.335,38.91 7.175,39.12 6.877,39.46 6.258,40.15 5.669,40.34 4.994,40.31 4.319,40.27 3.554,39.97 2.707,39.6 1.882,39.24 1.243,39.29 0.7871,39.43 0.5641,39.5 0.1369,39.68 0,39.75 0,39.75 0,40.25 0,40.25 0.1904,40.26 0.3136,40.18 0.457,40.11 0.6005,40.04 0.7549,39.96 0.9375,39.9 1.303,39.79 1.778,39.74 2.508,40.06 3.362,40.43 4.166,40.76 4.965,40.8 5.763,40.85 6.551,40.57 7.25,39.79 7.557,39.45 7.737,39.22 7.844,39.01 7.95,38.81 7.96,38.59 7.918,38.43 7.833,38.09 7.654,37.87 7.693,36.96 7.714,36.49 7.924,36.26 7.918,35.85 7.915,35.64 7.828,35.42 7.648,35.2 7.469,34.98 7.199,34.74 6.781,34.43 6.642,34.32 6.574,34.24 6.551,34.19 6.528,34.15 6.533,34.14 6.545,34.11 6.569,34.04 6.737,33.88 6.98,33.71 7.224,33.53 7.527,33.33 7.781,33.06 8.035,32.79 8.243,32.44 8.25,32 8.25,32 7.75,32 7.75,32"
             id="frontier-2-4" />
         <path
             mask="none"
             inkscape:connector-curvature="0"
             style="color:#000000;fill:#000000;stroke-width:0.1871"
             d="M 39.75,32 C 39.65,33.39 39.03,34.38 38.27,34.88 37.45,35.41 36.44,35.67 35.73,36.24 35.04,36.79 34.45,37.7 33.83,38.46 33.53,38.83 33.22,39.17 32.91,39.4 32.68,39.57 32.22,39.71 32,39.75 32,39.75 32,40.25 32,40.25 32.45,40.26 32.85,40.08 33.21,39.8 33.57,39.53 33.9,39.16 34.22,38.77 34.86,37.99 35.46,37.1 36.04,36.63 36.62,36.17 37.64,35.89 38.54,35.3 39.45,34.71 40.22,33.74 40.25,32 40.25,32 39.75,32 39.75,32"
             id="frontier-3-7-7" />
         <path
             mask="none"
             inkscape:connector-curvature="0"
             style="color:#000000;fill:#000000;stroke-width:0.1871"
             d="M 71.75,32 C 71.79,32.69 71.98,33.5 72.24,33.83 72.55,34.21 72.95,34.37 73.27,34.47 73.42,34.51 73.56,34.55 73.65,34.58 73.74,34.61 73.76,34.64 73.74,34.61 73.72,34.58 73.75,34.56 73.7,34.65 73.66,34.74 73.55,34.89 73.36,35.11 72.65,35.92 70.63,37.13 68.64,38.09 67.65,38.57 66.65,38.99 65.82,39.29 65.1,39.55 64.34,39.72 64,39.75 64,39.75 64,40.25 64,40.25 64.46,40.26 65.13,40.07 65.99,39.76 66.84,39.46 67.85,39.03 68.86,38.54 70.88,37.57 72.89,36.4 73.73,35.44 73.93,35.21 74.07,35.04 74.15,34.87 74.23,34.71 74.26,34.51 74.17,34.36 74.08,34.2 73.94,34.15 73.81,34.11 73.68,34.06 73.55,34.03 73.41,33.99 73.13,33.9 72.85,33.79 72.63,33.52 72.41,33.25 72.24,32.8 72.25,32 72.25,32 71.75,32 71.75,32"
             id="frontier-3-6-0-6" />
         <path
             mask="none"
             inkscape:connector-curvature="0"
             style="color:#000000;fill:#000000;stroke-width:0.1871"
             d="M 103.8,32 C 103.7,33.16 103.4,33.13 103.2,33.27 102.8,33.44 102.3,33.45 101.7,33.41 101,33.37 100.3,33.29 99.65,33.36 98.97,33.44 98.31,33.68 97.84,34.28 96.93,35.44 96.8,36.9 96.69,38.02 96.64,38.59 96.58,39.07 96.47,39.37 96.42,39.52 96.36,39.61 96.29,39.67 96.28,39.68 96.01,39.74 96,39.75 96,39.75 96,40.25 96,40.25 96.23,40.26 96.44,40.19 96.61,40.05 96.77,39.92 96.87,39.74 96.95,39.54 97.09,39.14 97.13,38.63 97.19,38.07 97.3,36.95 97.44,35.61 98.23,34.59 98.61,34.11 99.11,33.92 99.7,33.86 100.3,33.8 101,33.87 101.6,33.91 102.3,33.95 103.3,33.97 103.8,33.71 104.3,33.46 104.2,32.89 104.3,32 104.3,32 103.8,32 103.8,32"
             id="frontier-3-6-7-9-3" />
         <path
             mask="none"
             inkscape:connector-curvature="0"
             style="color:#000000;fill:#000000;stroke-width:0.1871"
             d="M 0,8.25 C 0.4114,8.261 0.7186,8.171 0.9493,7.998 1.18,7.826 1.312,7.593 1.424,7.365 1.64,6.926 1.817,6.494 2.35,6.143 2.395,6.161 2.456,6.188 2.537,6.233 2.724,6.335 2.975,6.494 3.258,6.652 3.823,6.969 4.511,7.315 5.172,7.162 5.813,7.014 6.209,6.404 6.527,5.842 6.687,5.561 6.827,5.283 6.947,5.063 7.068,4.842 7.19,4.679 7.221,4.656 7.529,4.427 7.688,4.138 7.709,3.856 7.73,3.574 7.635,3.321 7.535,3.104 7.435,2.886 7.323,2.693 7.273,2.557 7.249,2.489 7.241,2.438 7.242,2.414 7.243,2.39 7.243,2.393 7.258,2.377 7.646,1.967 7.886,1.826 8.051,1.514 8.216,1.201 8.237,0.8203 8.25,0 8.25,0 7.75,0 7.75,0 7.731,0.5006 7.68,1.142 7.607,1.279 7.517,1.45 7.308,1.596 6.895,2.033 6.8,2.133 6.749,2.27 6.744,2.393 6.739,2.515 6.767,2.624 6.805,2.727 6.879,2.932 6.994,3.124 7.08,3.313 7.167,3.501 7.22,3.677 7.209,3.818 7.198,3.96 7.145,4.09 6.922,4.256 6.738,4.392 6.637,4.587 6.508,4.822 6.379,5.057 6.244,5.33 6.094,5.596 5.793,6.127 5.425,6.591 5.059,6.676 4.658,6.768 4.041,6.518 3.504,6.217 3.235,6.066 2.986,5.91 2.777,5.795 2.673,5.738 2.581,5.689 2.486,5.656 2.392,5.623 2.274,5.576 2.121,5.67 1.405,6.109 1.18,6.731 0.9766,7.145 0.8749,7.351 0.7795,7.501 0.6504,7.598 0.5702,7.658 0.1443,7.725 0,7.75 0,7.75 0,8.25 0,8.25"
             id="frontier-5-3-1" />
         <path
             mask="none"
             inkscape:connector-curvature="0"
             style="color:#000000;fill:#000000;stroke-width:0.1871"
             d="M 32,8.25 C 32.21,8.255 32.37,8.236 32.51,8.178 32.66,8.12 32.77,8.011 32.84,7.889 32.96,7.644 32.92,7.413 32.92,7.205 32.93,6.997 32.95,6.819 33.08,6.649 33.2,6.478 33.45,6.293 33.98,6.147 34.54,5.994 34.91,5.941 35.16,5.947 35.41,5.954 35.53,6.009 35.66,6.096 35.92,6.269 36.19,6.673 36.93,6.934 37.17,7.02 37.44,6.972 37.65,6.846 37.87,6.72 38.06,6.524 38.25,6.281 38.61,5.796 38.94,5.115 39.24,4.358 39.82,2.843 40.23,1.048 40.25,0 40.25,0 39.75,0 39.75,0 39.69,0.9592 39.3,2.803 38.77,4.178 38.49,4.909 38.16,5.562 37.85,5.98 37.69,6.19 37.53,6.337 37.4,6.412 37.28,6.487 37.19,6.497 37.1,6.463 36.48,6.243 36.33,5.939 35.94,5.68 35.75,5.55 35.5,5.458 35.17,5.449 34.84,5.44 34.43,5.505 33.85,5.664 33.25,5.829 32.89,6.065 32.67,6.352 32.46,6.638 32.43,6.953 32.42,7.195 32.42,7.438 32.41,7.617 32.39,7.664 32.38,7.687 32.38,7.695 32.33,7.715 32.31,7.72 32.02,7.745 32,7.75"
             id="frontier-3-62-6-7" />
         <path
             mask="none"
             inkscape:connector-curvature="0"
             style="color:#000000;fill:#000000;stroke-width:0.1871"
             d="M 64,8.25 C 64.3,8.258 64.53,8.39 64.77,8.594 65,8.798 65.22,9.072 65.45,9.322 65.68,9.573 65.92,9.816 66.27,9.885 66.61,9.954 66.99,9.802 67.37,9.428 67.78,9.028 67.93,8.484 67.95,7.916 67.97,7.348 67.87,6.742 67.74,6.147 67.62,5.551 67.48,4.965 67.41,4.463 67.34,3.961 67.36,3.551 67.48,3.309 67.64,3.009 67.76,2.892 67.87,2.844 67.98,2.796 68.12,2.796 68.34,2.838 68.78,2.922 69.48,3.159 70.5,3.016 71.02,2.944 71.4,2.795 71.68,2.576 71.96,2.357 72.12,2.069 72.2,1.771 72.36,1.177 72.24,0.534 72.25,0 72.25,0 71.75,0 71.75,0 71.76,0.5068 71.82,1.273 71.72,1.643 71.66,1.861 71.56,2.035 71.37,2.184 71.18,2.332 70.89,2.456 70.43,2.52 69.51,2.648 68.94,2.445 68.43,2.348 68.18,2.299 67.92,2.275 67.67,2.387 67.42,2.498 67.22,2.727 67.04,3.08 66.83,3.49 66.84,3.99 66.92,4.531 66.99,5.073 67.14,5.663 67.26,6.246 67.38,6.83 67.47,7.406 67.45,7.898 67.43,8.391 67.31,8.784 67.02,9.07 66.7,9.383 66.52,9.425 66.36,9.395 66.21,9.364 66.03,9.216 65.82,8.986 65.61,8.757 65.38,8.465 65.1,8.217 64.88,8.024 64.32,7.821 64,7.75 64,7.75 64,8.25 64,8.25"
             id="frontier-3-6-9-0-5" />
         <path
             mask="none"
             inkscape:connector-curvature="0"
             style="color:#000000;fill:#000000;stroke-width:0.1871"
             d="M 96,8.25 C 96.26,8.257 96.48,8.137 96.64,7.961 96.79,7.785 96.88,7.564 96.95,7.319 97.1,6.827 97.15,6.224 97.23,5.66 97.31,5.097 97.42,4.574 97.59,4.305 97.68,4.17 97.76,4.102 97.87,4.072 97.97,4.043 98.13,4.052 98.37,4.154 100.7,5.169 104.2,3.513 104.2,0 104.2,0 103.7,0 103.7,0 103.5,2.977 100.5,4.531 98.57,3.695 98.26,3.563 97.98,3.523 97.74,3.59 97.49,3.657 97.3,3.831 97.17,4.037 96.91,4.45 96.82,5.012 96.74,5.59 96.66,6.167 96.59,6.762 96.47,7.178 96.41,7.386 96.33,7.544 96.26,7.633 96.26,7.636 96,7.747 96,7.75 96,7.75 96,8.25 96,8.25"
             id="frontier-3-6-7-1-6-9" />
      </g>
      <use
          x="0"
          y="0"
          xlink:href="#g1046"
          id="use1484"
          transform="matrix(1,0,0,-1,0,128)"
          width="100%"
          height="100%" />
   </g>
  <g
     inkscape:groupmode="layer"
     id="details"
     inkscape:label="details" />
</svg>
