<?xml version="1.0" encoding="UTF-8" standalone="no"?>
<svg
    xmlns:dc="http://purl.org/dc/elements/1.1/"
    xmlns:cc="http://creativecommons.org/ns#"
    xmlns:rdf="http://www.w3.org/1999/02/22-rdf-syntax-ns#"
    xmlns:svg="http://www.w3.org/2000/svg"
    xmlns="http://www.w3.org/2000/svg"
    xmlns:xlink="http://www.w3.org/1999/xlink"
    xmlns:sodipodi="http://sodipodi.sourceforge.net/DTD/sodipodi-0.dtd"
    xmlns:inkscape="http://www.inkscape.org/namespaces/inkscape"
    width="128mm"
    height="128mm"
    viewBox="0 0 128 128"
    version="1.1"
    id="base_svg"
    sodipodi:docname="bnotbottomborder.svg"
    inkscape:version="0.92.2 5c3e80d, 2017-08-06">
   <defs
       id="defs921">
      <mask
          maskUnits="userSpaceOnUse"
          id="mask3892">
         <g
             id="g3926"
             transform="matrix(1,0,0,-1,0,128)">
            <path
                style="fill:#ffffff;stroke-width:1.972157"
                d="M 0,362.834 V 483.779 H 120.945 V 362.834 L 90.7088,362.835 C 90.5797,373.202 97.8557,388.683 99.2003,401.957 102.823,437.718 98.9244,445.074 87.8908,456.105 79.1805,464.813 69.7202,463.527 59.9817,463.094 49.8011,462.642 39.3403,462.646 30.2363,453.543 20.9501,444.258 19.9609,426.185 22.4222,407.227 24.6823,389.82 30.0529,371.467 30.2363,362.835 Z"
                transform="scale(0.264583)"
                id="path3894"
                inkscape:connector-curvature="0"
                sodipodi:nodetypes="cccccssssscc" />
            <path
                style="fill:#ffffff;stroke-width:0.521799"
                d="M 32,96 V 128 H 64 V 96 L 56,96.0003 C 55.7792,99.911 58.0485,102.515 58.2957,104.197 58.6205,106.408 59.3913,108.403 60.355,110.772 62.4244,115.86 62.5892,121.139 59.9995,123.728 56.7103,127.017 45.8911,127.212 40.8779,124.814 38.7067,123.775 37.2216,122.576 35.7973,121.152 32.2697,117.626 36.5416,110.369 37.6606,104.055 38.0367,101.932 40.1779,101.539 40,96.0003 Z"
                id="path3896"
                inkscape:connector-curvature="0"
                sodipodi:nodetypes="cccccsssssscc" />
            <path
                style="fill:#ffffff;stroke-width:0.521799"
                d="M 64,95.9997 V 128 H 96 V 95.9997 L 88,96 C 87.9103,103.205 91.2904,113.728 90.1692,119.729 89.5631,122.973 81.3103,126.239 77.2081,126.313 73.0916,126.387 70.1204,123.583 69.8309,119.729 69.2528,112.035 71.8986,100.771 72,96 Z"
                id="path3898"
                inkscape:connector-curvature="0"
                sodipodi:nodetypes="cccccssscc" />
            <path
                style="fill:#ffffff;stroke-width:0.521799"
                d="M 96,96 V 128 H 128 V 96 L 120,96.0003 C 119.981,97.4942 118.275,101.774 118.549,103.578 119.009,106.611 120.818,110.212 120.94,113.765 121.095,118.29 119.852,123.389 117.221,124.745 113.862,126.475 108.51,125.797 106.508,123.932 104.592,122.147 100.329,120.368 100.481,116.07 100.607,112.489 104.959,106.474 105.464,103.627 105.895,101.195 103.972,97.3349 104,96.0003 Z"
                id="path3900"
                inkscape:connector-curvature="0"
                sodipodi:nodetypes="cccccsssssscc" />
            <path
                style="fill:#ffffff;stroke-width:0.521799"
                d="M 0,63.9997 V 96 H 32 V 63.9997 L 24,64 C 23.9502,67.9981 17.2051,73.8369 17.7065,78.746 17.8402,80.0543 18.9443,84.2993 20.6536,83.0124 27.9719,77.5027 31.0273,87.2771 26.6437,90.3047 21.159,94.0929 12.3741,95.4912 7.66109,90.7792 5.41095,88.5295 2.50708,82.6214 3.00228,78.0294 3.5443,73.0034 7.94704,66.4932 8.00002,64 Z"
                id="path3902"
                inkscape:connector-curvature="0"
                sodipodi:nodetypes="cccccssssscc" />
            <path
                style="fill:#ffffff;stroke-width:0.521799"
                d="M 32,64 V 96 H 64.0001 V 64 L 56.0001,64.0003 C 55.9598,67.2407 55.4617,70.6316 58.2751,72.9289 61.456,75.5263 62.8118,80.3259 60.2181,82.9192 55.5043,87.6322 50.3386,89.1506 47.0939,89.6297 44.1044,90.0712 37.9564,87.8568 37.815,84.753 37.523,78.3432 39.9149,68.0023 40,64.0003 Z"
                id="path3904"
                inkscape:connector-curvature="0"
                sodipodi:nodetypes="cccccsssscc" />
            <path
                style="fill:#ffffff;stroke-width:0.521799"
                d="M 64.0001,63.9997 V 96 H 96.0001 V 63.9997 L 88.0002,64 C 87.9417,68.7015 87.1866,72.2202 87.2912,77.6724 87.3469,80.5757 83.8863,82.2882 82.2484,83.9258 77.5345,88.6389 76.713,92.712 72,88 67.287,83.288 71.8987,68.771 72,64 Z"
                id="path3906"
                inkscape:connector-curvature="0"
                sodipodi:nodetypes="cccccsszcc" />
            <path
                style="fill:#ffffff;stroke-width:0.521799"
                d="M 96.0001,64 V 96 H 128 V 64 L 120,64.0003 C 119.968,66.5447 120.208,75.527 120.762,78.7486 121.777,84.6492 119.321,90.0354 116.272,93.0839 111.558,97.7969 100.057,93.3899 98.5771,88.6779 97.7913,86.1764 101.238,83.161 102.878,77.8789 104.328,73.211 103.953,66.2384 104,64.0003 Z"
                id="path3908"
                inkscape:connector-curvature="0"
                sodipodi:nodetypes="cccccsssscc" />
            <path
                style="fill:#ffffff;stroke-width:0.521799"
                d="M 0,31.9997 V 64 H 32 V 31.9997 L 24,32 C 23.9556,35.5634 28.1758,40.3196 28.7819,44.7874 29.4014,49.3533 26.3826,53.6179 24.0001,56 19.2863,60.713 12.713,60.712 8.00002,56 5.4647,53.4652 12.5299,50.0102 13.2377,44.8442 13.8456,40.4069 7.95317,34.2045 8.00002,32 Z"
                id="path3910"
                inkscape:connector-curvature="0"
                sodipodi:nodetypes="cccccsssscc" />
            <path
                style="fill:#ffffff;stroke-width:0.521799"
                d="M 32,32 V 64 H 64.0001 V 32 L 56.0001,32.0003 C 55.9104,39.205 57.6463,46.6856 52.9325,51.3986 48.2187,56.1116 39.5364,59.9451 34.8234,55.2331 30.1103,50.5211 39.8986,36.771 40,32.0003 Z"
                id="path3912"
                inkscape:connector-curvature="0"
                sodipodi:nodetypes="ccccczzcc" />
            <path
                style="fill:#ffffff;stroke-width:0.521799"
                d="M 64.0001,31.9997 V 64 H 96.0001 V 31.9997 L 88.0002,32 C 87.9812,39.1615 101.435,45.9204 88.0002,56 74.5657,66.0796 76.713,60.712 72,56 69.4554,53.456 66.3696,45.3696 67.0839,40.1862 67.6926,35.7691 71.9534,34.1951 72,32 Z"
                id="path3914"
                inkscape:connector-curvature="0"
                sodipodi:nodetypes="ccccczsscc" />
            <path
                style="fill:#ffffff;stroke-width:0.521799"
                d="M 96.0001,32 V 64 H 128 V 32 L 120,32.0003 C 119.948,36.1649 121.531,41.959 121.966,47.0177 122.284,50.7105 128.798,55.3553 125.368,59.3552 119.701,65.9652 117.389,56.8142 112.735,56.7543 107.815,56.6909 106.463,64.152 99.8779,61.0808 93.7178,58.2077 101.757,50.9482 101.911,47.3626 102.159,41.5924 103.938,34.9427 104,32.0003 Z"
                id="path3916"
                inkscape:connector-curvature="0"
                sodipodi:nodetypes="cccccssssscc" />
            <path
                style="fill:#ffffff;stroke-width:0.521799"
                d="M 0,-3e-4 V 32 H 32 V -3e-4 L 24,0 C 23.9599,3.21896 20.6786,7.60311 21.3068,11.6769 22.0848,16.7216 30.2507,23.3099 27.6429,25.9173 22.9291,30.6303 12.0875,29.278 8.00002,24 3.91254,18.722 14.748,6.01635 8.00002,0 Z"
                id="path3918"
                inkscape:connector-curvature="0"
                sodipodi:nodetypes="cccccsszcc" />
            <path
                style="fill:#ffffff;stroke-width:0.521799"
                d="M 32,0 V 32 H 64.0001 V 0 L 56.0001,3e-4 C 55.9656,2.77163 57.8055,5.49769 58.3988,9.01533 59.348,14.6426 60.2428,16.6902 57.3422,19.5903 56.0729,20.8594 59.9288,26.4522 58.5844,28.1549 57.0173,30.1396 47.9406,29.6791 46.3529,29.5208 44.2443,29.3106 42.1564,23.6635 40.1917,21.6993 37.9666,19.4747 44.9138,15.448 45.3897,10.9099 45.9217,5.83568 39.9465,2.51867 40,3e-4 Z"
                id="path3920"
                inkscape:connector-curvature="0"
                sodipodi:nodetypes="cccccsssssscc" />
            <path
                style="fill:#ffffff;stroke-width:0.521799"
                d="M 64.0001,-3e-4 V 32 H 96.0001 V -3e-4 L 88.0002,0 C 87.9672,2.65434 86.1031,7.41677 87.4008,10.9141 89.6258,16.91 95.1954,21.7902 92.2182,24.7669 87.5043,29.48 75.3709,32.7383 70.6579,28.0263 69.2137,26.5824 68.2329,22.1951 67.5069,19.5632 66.7022,16.6463 67.5963,11.3777 68.1264,8.24622 68.679,4.98223 71.9641,1.68881 72,0 Z"
                id="path3922"
                inkscape:connector-curvature="0"
                sodipodi:nodetypes="cccccssssscc" />
            <path
                style="fill:#ffffff;stroke-width:0.521799"
                d="M 96.0001,0 V 32 H 128 V 0 L 120,3e-4 C 119.967,2.65051 124.239,5.19375 124.813,8.55431 125.34,11.639 121.521,14.4098 120.432,17.3119 119.482,19.8432 116.979,21.4616 115.59,22.8496 110.876,27.5627 108.713,28.712 104,24 101.128,21.1285 99.6098,14.4242 100.532,8.69489 101.124,5.02254 103.961,1.86377 104,3e-4 Z"
                id="path3924"
                inkscape:connector-curvature="0"
                sodipodi:nodetypes="cccccssssscc" />
         </g>
      </mask>
   </defs>
   <sodipodi:namedview
       pagecolor="#ffffff"
       bordercolor="#666666"
       borderopacity="1"
       objecttolerance="10"
       gridtolerance="10"
       guidetolerance="10"
       inkscape:pageopacity="0"
       inkscape:pageshadow="2"
       inkscape:window-width="1678"
       inkscape:window-height="1029"
       id="namedview3444"
       showgrid="false"
       inkscape:zoom="1.38"
       inkscape:cx="180.033"
       inkscape:cy="234.982"
       inkscape:window-x="1"
       inkscape:window-y="516"
       inkscape:window-maximized="0"
       inkscape:current-layer="bg_b_layer"
       inkscape:document-units="mm" />
   <metadata
       id="metadata1919">
      <rdf:RDF>
         <cc:Work
             rdf:about="">
            <dc:format>image/svg+xml</dc:format>
            <dc:type
                rdf:resource="http://purl.org/dc/dcmitype/StillImage" />
            <dc:title></dc:title>
         </cc:Work>
      </rdf:RDF>
   </metadata>
   <g
       inkscape:groupmode="layer"
       id="models_layer"
       inkscape:label="Models"
       sodipodi:insensitive="true">
      <g
          id="bg_a_model">
         <rect
             y="0"
             x="0"
             height="128"
             width="128"
             id="rect2648"
             style="fill:#008080;stroke-width:2;stroke-linecap:round;stroke-linejoin:round;paint-order:markers fill stroke" />
         <text
             id="text2652"
             y="19.64"
             x="12.47"
             style="font-size:10.5833px;line-height:1.25;font-family:sans-serif;letter-spacing:0px;word-spacing:0px;fill:#000000;stroke-width:0.2646"
             xml:space="preserve"><tspan
                y="19.64"
                x="12.47"
                id="tspan2650"
                sodipodi:role="line">A</tspan></text>
      </g>
      <g
          id="bg_b_model">
         <rect
             y="0"
             x="0"
             height="128"
             width="128"
             id="rect2648-6"
             style="fill:#800000;stroke-width:2;stroke-linecap:round;stroke-linejoin:round;paint-order:markers fill stroke" />
         <text
             id="text2652-2"
             y="19.64"
             x="12.47"
             style="font-size:10.5833px;line-height:1.25;font-family:sans-serif;letter-spacing:0px;word-spacing:0px;fill:#000000;stroke-width:0.2646"
             xml:space="preserve"><tspan
                y="19.64"
                x="12.47"
                id="tspan2650-6"
                sodipodi:role="line">B</tspan></text>
      </g>
   </g>
   <g
       inkscape:groupmode="layer"
       id="bg_a_layer"
       inkscape:label="Background A"
       sodipodi:insensitive="true">
      <use
          x="0"
          y="0"
          xlink:href="#bg_a_model"
          id="bga30"
          width="100%"
          height="100%" />
   </g>
   <g
       inkscape:groupmode="layer"
       id="bg_b_layer"
       inkscape:label="Background B">
      <use
          x="0"
          y="0"
          xlink:href="#bg_b_model"
          id="bgb30"
          width="100%"
          height="100%"
          mask="url(#mask3892)" />
   </g>
   <g
       inkscape:groupmode="layer"
       id="layer3"
       inkscape:label="borders"
       sodipodi:insensitive="true">
      <g
          id="g3890"
          transform="matrix(1,0,0,-1,0,128)">
         <path
             sodipodi:nodetypes="cccccsccccccccccccccccc"
             inkscape:connector-curvature="0"
             id="path1003-10"
             d="M 7.75,96 C 7.69534,97.1043 7.34116,98.9836 6.92773,100.951 6.4918,103.026 5.98635,105.396 5.68555,107.713 5.03061,112.757 5.25877,117.613 7.82422,120.178 10.3005,122.653 13.1738,122.659 15.8594,122.777 17.1404,122.835 18.4252,122.951 19.7012,122.756 20.9772,122.561 22.243,122.044 23.4316,120.855 24.9005,119.387 25.9315,118.113 26.4473,116.027 26.963,113.942 26.9765,111.068 26.4961,106.326 26.3147,104.535 25.7378,102.623 25.2168,100.818 24.7224,99.1064 24.28,97.2813 24.25,96 H 23.75 C 23.7322,97.4315 24.2144,99.1494 24.7363,100.957 25.2583,102.765 25.8238,104.656 25.998,106.377 26.4763,111.097 26.4531,113.926 25.9629,115.908 25.4726,117.891 24.5285,119.052 23.0781,120.502 21.9622,121.618 20.8228,122.079 19.627,122.262 18.4311,122.444 17.1766,122.335 15.8809,122.277 13.1797,122.158 10.5188,122.164 8.17773,119.822 5.82924,117.475 5.53218,112.765 6.17969,107.777 6.47687,105.488 6.97984,103.129 7.41602,101.053 7.85219,98.9769 8.22472,97.1899 8.25,96 Z"
             style="color:#000000;fill:#000000;stroke-width:0.5" />
         <path
             sodipodi:nodetypes="ccccccccccccccccccscccccccccc"
             inkscape:connector-curvature="0"
             id="path1003-6-6"
             d="M 39.75,96 C 39.7946,98.541 39.3391,100.206 38.8164,101.191 38.2734,102.215 37.616,102.873 37.4141,104.012 36.8613,107.131 35.5172,110.519 34.7441,113.588 34.3576,115.122 34.1127,116.579 34.1934,117.896 34.2741,119.214 34.691,120.398 35.6211,121.328 37.0572,122.764 38.5708,123.987 40.7695,125.039 43.3417,126.269 47.3211,126.816 51.0957,126.654 54.8703,126.493 58.436,125.644 60.1758,123.904 61.5326,122.548 62.1495,120.512 62.1738,118.189 62.1981,115.867 61.6311,113.248 60.5859,110.678 59.623,108.311 58.8628,106.336 58.543,104.16 58.4061,103.229 57.7665,102.171 57.2031,100.838 56.665,99.5647 56.1982,97.7913 56.25,96 H 55.75 C 55.6367,98.0067 56.1644,99.6641 56.7422,101.031 57.32,102.398 57.9386,103.482 58.0488,104.232 58.379,106.478 59.1582,108.496 60.123,110.867 61.1467,113.385 61.6972,115.948 61.6738,118.184 61.6504,120.42 61.0552,122.318 59.8223,123.551 58.2728,125.1 54.7848,125.996 51.0742,126.154 47.3636,126.313 43.4274,125.756 40.9863,124.588 38.8426,123.562 37.3871,122.387 35.9746,120.975 35.1409,120.141 34.7669,119.098 34.6914,117.865 34.6159,116.633 34.8482,115.221 35.2285,113.711 35.9892,110.691 37.3401,107.292 37.9062,104.098 38.0806,103.114 38.6826,102.514 39.2598,101.426 39.8369,100.338 40.34,98.8017 40.25,96 Z"
             style="color:#000000;fill:#000000;stroke-width:0.5" />
         <path
             sodipodi:nodetypes="ccccccccccccccccscc"
             inkscape:connector-curvature="0"
             id="path1003-1-3"
             d="M 71.75,96 C 71.6723,98.3648 71.0003,102.46 70.4121,106.734 69.8095,111.114 69.2902,115.864 69.582,119.748 69.8804,123.72 72.9809,126.639 77.2129,126.562 79.3273,126.524 82.4257,125.68 85.1055,124.436 86.4454,123.813 87.6779,123.092 88.625,122.309 89.5721,121.525 90.2451,120.68 90.4141,119.775 90.9879,116.704 90.413,112.561 89.7188,108.275 89.0391,104.08 88.2416,99.5222 88.25,96 H 87.75 C 87.7046,99.6431 88.5316,104.078 89.2246,108.355 89.9176,112.633 90.4713,116.754 89.9238,119.684 89.7897,120.401 89.2056,121.18 88.3066,121.924 87.4077,122.667 86.2063,123.373 84.8945,123.982 82.2709,125.201 79.191,126.027 77.2031,126.062 73.2024,126.134 70.3607,123.447 70.0801,119.711 69.7938,115.901 70.307,111.172 70.9082,106.803 71.5094,102.434 72.1985,98.4275 72.25,96 Z"
             style="color:#000000;fill:#000000;stroke-width:0.5" />
         <path
             sodipodi:nodetypes="ccccccscccccccccccccccccccccccc"
             inkscape:connector-curvature="0"
             id="path1003-6-2-2"
             d="M 103.75,96 C 103.779,96.3567 103.895,96.9902 104.037,97.4824 104.209,98.0768 104.432,98.7594 104.643,99.4727 105.063,100.899 105.419,102.453 105.219,103.584 104.983,104.916 103.777,107.149 102.607,109.461 101.438,111.773 100.297,114.174 100.23,116.061 100.152,118.293 101.235,119.894 102.549,121.125 103.863,122.356 105.417,123.258 106.338,124.115 107.409,125.113 109.286,125.746 111.332,125.936 113.378,126.125 115.597,125.863 117.336,124.967 118.751,124.238 119.733,122.561 120.363,120.518 120.994,118.474 121.268,116.044 121.189,113.756 121.065,110.124 119.247,106.507 118.797,103.541 118.676,102.744 119.013,101.214 119.406,99.7363 119.774,98.3562 120.189,96.8528 120.25,96 H 119.75 C 119.742,96.6548 119.32,98.1224 118.924,99.6094 118.528,101.096 118.15,102.608 118.303,103.615 118.773,106.715 120.57,110.299 120.689,113.773 120.766,116.01 120.496,118.393 119.887,120.369 119.277,122.345 118.324,123.897 117.107,124.523 115.488,125.358 113.349,125.62 111.379,125.438 109.409,125.255 107.608,124.617 106.678,123.75 105.682,122.823 104.149,121.941 102.891,120.762 101.632,119.583 100.657,118.143 100.73,116.078 100.79,114.384 101.888,111.988 103.053,109.686 104.217,107.383 105.442,105.185 105.711,103.67 105.942,102.369 105.549,100.777 105.123,99.332 104.91,98.6094 104.685,97.9245 104.518,97.3438 104.35,96.763 104.244,96.2711 104.25,96 Z"
             style="color:#000000;fill:#000000;stroke-width:0.5" />
         <path
             sodipodi:nodetypes="ccccccccccccccccccccsscsccccccccc"
             inkscape:connector-curvature="0"
             id="path1003-9-0"
             d="M 7.75,64 C 7.69186,64.5515 7.42134,65.5192 7.04102,66.4414 6.61628,67.4713 6.0455,68.6751 5.45703,69.9609 4.2801,72.5325 3.03142,75.4286 2.75391,78.002 2.49949,80.361 3.11433,83.0185 4.07031,85.377 5.02629,87.7354 6.31995,89.7908 7.48438,90.9551 9.90455,93.3747 13.3576,94.2161 16.8789,93.9785 20.4002,93.741 24.0032,92.4312 26.7852,90.5098 29.1028,88.9092 29.4464,85.5825 28.2578,83.3398 27.6635,82.2185 26.6623,81.356 25.3301,81.1543 23.9979,80.9525 22.3686,81.4087 20.5039,82.8125 20.1397,83.0867 19.9131,83.0595 19.6328,82.8672 19.3525,82.6748 19.058,82.2558 18.8145,81.7441 18.3273,80.7207 18.0176,79.3329 17.9551,78.7207 17.7169,76.3889 19.2311,73.7336 20.8574,71.166 22.4253,68.6907 24.1079,66.0829 24.25,64 H 23.75 C 23.7268,65.86 22.0689,68.3198 20.4355,70.8984 18.8022,73.4771 17.1938,76.1943 17.457,78.7715 17.5282,79.4677 17.8376,80.8545 18.3633,81.959 18.6261,82.5112 18.9379,82.9968 19.3496,83.2793 19.7613,83.5618 20.3143,83.5821 20.8047,83.2129 22.5992,81.8619 24.0939,81.4725 25.2559,81.6484 26.4178,81.8244 27.28,82.5622 27.8164,83.5742 28.8892,85.5982 28.5679,88.6729 26.502,90.0996 23.7991,91.9665 20.2663,93.2497 16.8457,93.4805 13.4251,93.7112 10.1307,92.8939 7.83789,90.6016 6.75217,89.516 5.46789,87.4954 4.5332,85.1895 3.59852,82.8835 3.00921,80.2894 3.25,78.0566 3.51451,75.6039 4.73892,72.7314 5.91211,70.168 6.4987,68.8863 7.07129,67.6819 7.50391,66.6328 7.93652,65.5838 8.23524,64.6945 8.25,64 Z"
             style="color:#000000;fill:#000000;stroke-width:0.5" />
         <path
             sodipodi:nodetypes="ccccccccccccccccccccccc"
             inkscape:connector-curvature="0"
             id="path1003-6-3-6"
             d="M 39.75,64 C 39.6797,65.9884 39.0767,69.6524 38.5195,73.4375 37.9468,77.328 37.4167,81.5217 37.5645,84.7637 37.6035,85.6206 38.0564,86.3984 38.7285,87.0645 39.4006,87.7305 40.2974,88.2958 41.2812,88.748 43.249,89.6525 45.5518,90.1102 47.1309,89.877 50.4131,89.3925 55.6351,87.8543 60.3945,83.0957 61.7613,81.7291 62.0821,79.7803 61.6562,77.8711 61.2304,75.9618 60.0691,74.0698 58.4336,72.7344 57.0792,71.6284 56.5309,70.2839 56.3145,68.7832 56.1092,67.3598 56.2211,65.5489 56.25,64 H 55.75 C 55.73,65.6085 55.5926,67.2744 55.8203,68.8535 56.0481,70.4327 56.6583,71.9317 58.1172,73.123 59.6628,74.385 60.7691,76.1922 61.168,77.9805 61.5668,79.7687 61.2679,81.5154 60.041,82.7422 55.3728,87.4096 50.2636,88.9095 47.0566,89.3828 45.6462,89.5912 43.3793,89.1612 41.4902,88.293 40.5457,87.8588 39.6939,87.3173 39.0801,86.709 38.4662,86.1007 38.0961,85.4372 38.0645,84.7422 37.9201,81.5744 38.4421,77.3927 39.0137,73.5098 39.5853,69.6268 40.2065,66.0462 40.25,64 Z"
             style="color:#000000;fill:#000000;stroke-width:0.5" />
         <path
             sodipodi:nodetypes="ccccccscccccscccccccc"
             inkscape:connector-curvature="0"
             id="path1003-1-1-1"
             d="M 71.75,64 C 71.6558,66.3661 70.5138,71.2603 69.9473,75.9922 69.6578,78.4097 69.5158,80.8316 69.748,82.9609 69.9803,85.0903 70.5862,86.94 71.8242,88.1777 73.0178,89.371 73.9789,90.0302 74.8652,90.2559 75.7516,90.4816 76.5425,90.2357 77.2715,89.6992 78.7294,88.6262 80.0892,86.4379 82.4258,84.1016 83.2133,83.3142 84.4915,82.4731 85.5762,81.457 86.6608,80.4409 87.5707,79.2198 87.541,77.668 87.4388,72.3428 88.1672,68.5947 88.25,64 H 87.75 C 87.6918,68.6765 86.9358,72.2006 87.041,77.6777 87.0669,79.0291 86.2756,80.1164 85.2344,81.0918 84.1932,82.0672 82.9227,82.8979 82.0723,83.748 79.695,86.125 78.2862,88.333 76.9766,89.2969 76.3218,89.7788 75.7288,89.9601 74.9883,89.7715 74.2477,89.5829 73.3407,88.985 72.1777,87.8223 71.0593,86.7041 70.4715,84.9732 70.2461,82.9062 70.0207,80.8393 70.1563,78.4499 70.4434,76.0527 71.0174,71.2584 72.1978,66.4606 72.25,64 Z"
             style="color:#000000;fill:#000000;stroke-width:0.5" />
         <path
             sodipodi:nodetypes="ccccscccccccccccccscc"
             inkscape:connector-curvature="0"
             id="path1003-6-2-9-5"
             d="M 103.75,64 C 103.735,65.1823 103.804,67.5338 103.715,70.0195 103.622,72.6154 103.351,75.5102 102.639,77.8047 101.829,80.4113 100.572,82.4655 99.5996,84.1992 99.1134,85.0661 98.6974,85.8527 98.4492,86.5996 98.201,87.3465 98.1215,88.063 98.3379,88.752 99.1266,91.2633 102.437,93.5369 106.139,94.6543 109.84,95.7716 113.993,95.7175 116.449,93.2617 119.555,90.1566 122.039,84.699 121.008,78.707 120.474,75.6046 120.228,66.6952 120.25,64 H 119.75 C 119.718,66.5676 119.951,75.5048 120.516,78.791 121.515,84.6001 119.088,89.9144 116.096,92.9062 113.838,95.1632 109.881,95.2617 106.283,94.1758 102.686,93.0899 99.5076,90.8041 98.8164,88.6035 98.6399,88.0416 98.6955,87.443 98.9238,86.7559 99.1522,86.0687 99.5529,85.3033 100.035,84.4434 101,82.7235 102.286,80.6287 103.117,77.9531 103.854,75.5796 104.121,72.654 104.215,70.0371 104.309,67.4202 104.227,65.0996 104.25,64 Z"
             style="color:#000000;fill:#000000;stroke-width:0.5" />
         <path
             sodipodi:nodetypes="csccccccccscccccccccccccc"
             inkscape:connector-curvature="0"
             id="path1003-4-5"
             d="M 23.75,32 C 23.7266,33.8817 24.7979,35.9738 25.9238,38.168 27.0497,40.3622 28.2389,42.6513 28.5332,44.8203 29.1353,49.2584 26.1759,53.471 23.8242,55.8223 19.1926,60.4531 12.8085,60.452 8.17773,55.8223 7.89139,55.536 7.75509,55.2614 7.71484,54.9707 7.6746,54.68 7.73395,54.3626 7.88086,54.0098 8.17468,53.3041 8.82703,52.4809 9.59375,51.5703 11.1272,49.7492 13.1183,47.5653 13.4863,44.8789 13.8071,42.5371 12.4423,39.8503 11.0449,37.459 10.3462,36.2633 9.63224,35.1421 9.10156,34.1914 8.57088,33.2407 8.2407,32.4373 8.25,32 H 7.75 C 7.81033,32.6217 8.18082,33.5663 8.66602,34.4355 9.20799,35.4065 9.92072,36.5258 10.6133,37.7109 11.9984,40.0813 13.2773,42.715 12.9902,44.8105 12.6505,47.2901 10.7532,49.4164 9.21094,51.248 8.4398,52.1638 7.75793,53.0018 7.41797,53.8184 7.24799,54.2266 7.16482,54.6354 7.2207,55.0391 7.27659,55.4427 7.47674,55.8303 7.82422,56.1777 12.6194,60.9718 19.3817,60.9729 24.1777,56.1777 26.5911,53.7648 29.666,49.4476 29.0293,44.7539 28.7174,42.4552 27.4938,40.1311 26.3691,37.9395 25.2944,35.8449 24.3161,33.639 24.25,32 Z"
             style="color:#000000;fill:#000000;stroke-width:0.5" />
         <path
             sodipodi:nodetypes="ccccccscccccccccscc"
             inkscape:connector-curvature="0"
             id="path1003-6-7-4"
             d="M 39.75,32 C 39.6698,33.1145 39.0664,34.9623 38.2559,36.8828 37.4006,38.9094 36.3138,41.2249 35.375,43.5449 34.4362,45.865 33.6423,48.1881 33.3809,50.2539 33.1194,52.3197 33.3946,54.1586 34.6465,55.4102 37.0812,57.8443 40.5462,58.0632 43.9473,57.0898 47.3483,56.1165 50.7222,53.963 53.1094,51.5762 55.5239,49.1621 56.2813,46.0357 56.4492,42.6465 56.6132,39.3356 56.2266,35.5024 56.25,32 H 55.75 C 55.7049,35.6236 56.1162,39.2905 55.9512,42.6211 55.7862,45.9516 55.0552,48.9238 52.7559,51.2227 50.4293,53.5489 47.1054,55.6658 43.8086,56.6094 40.5118,57.5529 37.2782,57.3344 35,55.0566 33.8953,53.9522 33.6255,52.3031 33.877,50.3164 34.1284,48.3297 34.9061,46.0353 35.8379,43.7324 36.7697,41.4296 37.8556,39.1187 38.7168,37.0781 39.578,35.0375 40.2229,33.2755 40.25,32 Z"
             style="color:#000000;fill:#000000;stroke-width:0.5" />
         <path
             sodipodi:nodetypes="ccccccccsccccccsccccccccccccc"
             inkscape:connector-curvature="0"
             id="path1003-1-8-7"
             d="M 71.75,32 C 71.6766,32.384 71.4303,33.0141 71.1016,33.4297 70.7016,33.9353 70.1486,34.4728 69.5703,35.0879 68.4137,36.318 67.1505,37.8697 66.8359,40.1523 66.4697,42.8097 67.0736,46.1499 68.082,49.1621 69.0905,52.1743 70.4921,54.8478 71.8223,56.1777 72.977,57.3322 73.7153,58.5287 74.3906,59.543 75.0659,60.5572 75.6842,61.4095 76.6387,61.7793 77.5931,62.1491 78.813,61.995 80.6035,61.1406 82.394,60.2862 84.7858,58.7236 88.1504,56.1992 91.5358,53.6592 93.258,51.3059 93.9062,49.0742 94.5545,46.8425 94.114,44.7577 93.2598,42.8047 92.4055,40.8516 91.1397,39.0153 90.0977,37.2285 89.106,35.5281 88.3193,33.6309 88.25,32 H 87.75 C 87.7451,33.8688 88.6106,35.6708 89.666,37.4805 90.7214,39.2902 91.9753,41.114 92.8027,43.0059 93.6302,44.8977 94.0341,46.8412 93.4258,48.9355 92.8174,51.0299 91.1816,53.301 87.8496,55.8008 84.4969,58.3162 82.1193,59.8627 80.3867,60.6895 78.6541,61.5162 77.5975,61.6156 76.8203,61.3145 76.0431,61.0133 75.4741,60.27 74.8066,59.2676 74.1392,58.2652 73.3775,57.0237 72.1758,55.8223 70.9615,54.6082 69.5486,51.9668 68.5566,49.0039 67.5647,46.041 66.9839,42.7468 67.332,40.2207 67.6261,38.0864 68.7979,36.6416 69.9355,35.4316 70.5044,34.8267 71.0631,34.2832 71.4941,33.7383 71.9252,33.1934 72.2366,32.6289 72.25,32 Z"
             style="color:#000000;fill:#000000;stroke-width:0.5" />
         <path
             sodipodi:nodetypes="ccccccccsscccsccscccccsccsccccscccccccc"
             inkscape:connector-curvature="0"
             id="path1003-6-2-4-6"
             d="M 103.75,32 C 103.69,33.4417 103.244,35.9313 102.779,38.5781 102.295,41.3319 101.787,44.4449 101.662,47.3516 101.627,48.1583 101.118,49.2727 100.443,50.4941 99.7688,51.7156 98.9386,53.0524 98.3008,54.3809 97.6629,55.7094 97.2082,57.033 97.3262,58.2539 97.4441,59.4748 98.176,60.5625 99.7715,61.3066 101.456,62.0922 102.844,62.2157 104.031,61.9355 105.218,61.6554 106.19,60.9848 107.09,60.2383 107.99,59.4918 108.822,58.6663 109.719,58.041 110.616,57.4157 111.566,56.9888 112.732,57.0039 113.814,57.0178 114.78,57.5624 115.721,58.3105 116.662,59.0587 117.563,60.0015 118.518,60.752 119.472,61.5024 120.498,62.0726 121.674,61.9961 122.85,61.9196 124.118,61.1981 125.559,59.5176 126.457,58.4697 126.717,57.3408 126.576,56.2285 126.436,55.1162 125.916,54.0191 125.289,52.9453 124.035,50.7977 122.362,48.706 122.215,46.9961 121.784,41.9899 120.255,36.0846 120.25,32 H 119.75 C 119.697,36.2308 121.285,42.0156 121.717,47.0391 121.888,49.0219 123.632,51.0993 124.857,53.1973 125.47,54.2463 125.954,55.292 126.08,56.291 126.206,57.29 125.994,58.2412 125.178,59.1934 123.785,60.8179 122.637,61.4312 121.641,61.4961 120.644,61.5609 119.74,61.078 118.826,60.3594 117.912,59.6408 117.01,58.6979 116.031,57.9199 115.053,57.1419 113.983,56.5199 112.738,56.5039 111.445,56.4872 110.38,56.971 109.434,57.6309 108.487,58.2907 107.648,59.1265 106.771,59.8535 105.895,60.5805 104.988,61.1961 103.916,61.4492 102.844,61.7023 101.592,61.6036 99.9844,60.8535 98.4997,60.1611 97.9267,59.2655 97.8242,58.2051 97.7218,57.1447 98.1308,55.8914 98.752,54.5977 99.3731,53.3039 100.197,51.9742 100.881,50.7363 101.564,49.4984 102.118,48.3589 102.16,47.373 102.283,44.5094 102.788,41.4134 103.271,38.6641 103.755,35.9148 104.218,33.5175 104.25,32 Z"
             style="color:#000000;fill:#000000;stroke-width:0.5" />
         <path
             sodipodi:nodetypes="ccccccccccccccccccccscccscc"
             inkscape:connector-curvature="0"
             id="path1003-9-5-5"
             d="M 7.75,0 C 9.3321,1.4439 10.0244,3.49809 10.0215,5.54492 10.0185,7.61813 9.43333,9.91675 8.75781,12.2051 8.0823,14.4934 7.31912,16.7704 6.97852,18.8281 6.63791,20.8858 6.7184,22.7522 7.80273,24.1523 9.90566,26.8678 13.6959,28.5386 17.5605,28.9531 21.4252,29.3676 25.3872,28.5264 27.8203,26.0938 28.188,25.7262 28.3727,25.2681 28.4004,24.7773 28.428,24.2866 28.3092,23.7633 28.0957,23.2109 27.6686,22.1062 26.8582,20.8739 25.9492,19.5684 24.1313,16.9573 21.9261,14.047 21.5547,11.6387 21.2526,9.67993 21.893,7.60466 22.6367,5.60547 23.3463,3.69786 24.1594,1.63409 24.25,0 H 23.75 C 23.731,1.52592 22.9179,3.41364 22.168,5.42969 21.418,7.44573 20.7344,9.59981 21.0605,11.7148 21.4671,14.3512 23.7315,17.2574 25.5391,19.8535 26.4428,21.1516 27.234,22.371 27.6289,23.3926 27.8264,23.9034 27.9242,24.3617 27.9023,24.75 27.8805,25.1383 27.7511,25.456 27.4668,25.7402 25.1861,28.0205 21.3698,28.8599 17.6133,28.457 13.8568,28.0541 10.1818,26.4102 8.19727,23.8477 7.23787,22.6088 7.14014,20.9072 7.4707,18.9102 7.80127,16.9131 8.55936,14.6475 9.23828,12.3477 9.9172,10.0478 10.5184,7.71299 10.5215,5.54688 10.5246,3.38076 9.99442,1.55527 8.25,0 Z"
             style="color:#000000;fill:#000000;stroke-width:0.5" />
         <path
             sodipodi:nodetypes="ccccscccccccccccccccscccccscccccccccccccccccc"
             inkscape:connector-curvature="0"
             id="path1003-6-3-0-6"
             d="M 55.75,0 C 55.7142,2.88399 57.5697,5.60171 58.1523,9.05664 58.6284,11.8781 59.084,13.7957 59.0645,15.3223 59.0449,16.8488 58.5863,17.9939 57.166,19.4141 56.9525,19.6275 56.8591,19.9208 56.8379,20.2363 56.8167,20.5518 56.8613,20.901 56.9453,21.2793 57.1133,22.0358 57.4376,22.9112 57.7559,23.7949 58.0741,24.6786 58.3862,25.5691 58.5332,26.3242 58.6802,27.0794 58.6475,27.6722 58.3887,28 58.0726,28.4004 57.2569,28.7538 56.1836,28.9824 55.1102,29.211 53.7882,29.3363 52.4648,29.3926 49.818,29.505 47.1478,29.3483 46.377,29.2715 45.9557,29.2295 45.4691,28.8889 44.9648,28.3203 44.4606,27.7517 43.9444,26.9738 43.4316,26.1367 42.4062,24.4625 41.4048,22.557 40.3691,21.5215 40.1273,21.2797 40.0241,21.0404 40.0059,20.7656 39.9876,20.4909 40.0644,20.1733 40.2266,19.8164 40.5509,19.1026 41.2133,18.254 41.9707,17.3301 43.4854,15.4823 45.3883,13.3225 45.6387,10.9355 45.9153,8.2963 44.5022,6.13225 43.0703,4.33984 42.3544,3.44364 41.6285,2.63493 41.0957,1.90625 40.5629,1.17757 40.2387,0.529636 40.25,0 H 39.75 C 39.8188,0.643008 40.202,1.52918 40.6934,2.20117 41.2492,2.96129 41.975,3.77022 42.6797,4.65234 44.0891,6.41659 45.3958,8.44786 45.1406,10.8828 44.915,13.034 43.1056,15.1575 41.584,17.0137 40.8232,17.9418 40.1388,18.8007 39.7715,19.6094 39.5878,20.0137 39.4819,20.4099 39.5078,20.7988 39.5337,21.1878 39.7011,21.5626 40.0156,21.877 40.9445,22.8057 41.969,24.7055 43.0059,26.3984 43.5243,27.2449 44.0482,28.0416 44.5898,28.6523 45.1315,29.2631 45.6951,29.7064 46.3281,29.7695 47.145,29.851 49.8061,30.0045 52.4863,29.8906 53.8265,29.8337 55.1682,29.711 56.2871,29.4727 57.406,29.2343 58.3139,28.9026 58.7812,28.3105 59.1947,27.787 59.1816,27.0405 59.0234,26.2285 58.8653,25.4165 58.5456,24.511 58.2266,23.625 57.9075,22.739 57.5895,21.8722 57.4336,21.1699 57.3556,20.8188 57.3198,20.5095 57.3359,20.2695 57.3521,20.0296 57.4157,19.8714 57.5195,19.7676 58.9996,18.2876 59.5436,16.9572 59.5645,15.3281 59.5853,13.699 59.1179,11.7804 58.6445,8.97461 58.0587,5.50069 56.3225,2.58451 56.25,0 Z"
             style="color:#000000;fill:#000000;stroke-width:0.5" />
         <path
             sodipodi:nodetypes="cccccccccccccccsccccccccccccc"
             inkscape:connector-curvature="0"
             id="path1003-1-1-3-9"
             d="M 71.75,0 C 71.6916,0.326208 71.4946,0.944301 71.2363,1.42383 70.9218,2.00786 70.4936,2.67713 70.0449,3.40039 69.1476,4.84692 68.1684,6.50633 67.8809,8.20508 67.3507,11.3364 66.428,16.5919 67.2656,19.6289 67.6269,20.9383 68.0538,22.6978 68.5742,24.3164 69.0947,25.935 69.6888,27.4117 70.4805,28.2031 72.9332,30.6554 77.2286,30.999 81.4844,30.1758 85.7402,29.3525 89.9822,27.3554 92.3945,24.9434 93.1906,24.1475 93.4274,23.1797 93.2812,22.1543 93.1351,21.1289 92.6335,20.0329 91.9785,18.8516 90.6685,16.4889 88.7312,13.7811 87.6348,10.8262 87.0123,9.14881 87.1436,7.12424 87.4492,5.17969 87.7403,3.32754 88.1932,1.35928 88.25,0 H 87.75 C 87.7343,1.27047 87.2654,3.12701 86.9551,5.10156 86.6448,7.07611 86.4907,9.18003 87.166,11 88.2944,14.041 90.2543,16.7731 91.541,19.0938 92.1844,20.2541 92.6568,21.3104 92.7871,22.2246 92.9174,23.1389 92.7337,23.8974 92.041,24.5898 89.7396,26.891 85.5582,28.8794 81.3906,29.6855 77.2231,30.4917 73.0943,30.1095 70.834,27.8496 70.1814,27.1972 69.5633,25.758 69.0508,24.1641 68.5382,22.5701 68.1129,20.8186 67.748,19.4961 66.9767,16.6993 67.8428,11.4187 68.373,8.28711 68.638,6.72186 69.5765,5.10242 70.4688,3.66406 70.9149,2.94488 71.349,2.2706 71.6777,1.66016 72.0065,1.04972 72.2393,0.501447 72.25,0 Z"
             style="color:#000000;fill:#000000;stroke-width:0.5" />
         <path
             sodipodi:nodetypes="ccccccccccccccccccccccscc"
             inkscape:connector-curvature="0"
             id="path1003-6-2-9-6-3"
             d="M 103.75,0 C 103.647,0.80947 102.985,2.17388 102.252,3.55273 101.462,5.03836 100.589,6.7673 100.285,8.6543 99.3513,14.4563 100.844,21.1979 103.822,24.1758 105.011,25.3641 106.046,26.1936 107.021,26.6934 107.997,27.1932 108.922,27.358 109.836,27.2051 111.665,26.8993 113.404,25.3883 115.768,23.0254 117.119,21.6749 119.678,20.0341 120.666,17.4004 121.186,16.0148 122.397,14.6012 123.432,13.1465 124.466,11.6918 125.341,10.1651 125.059,8.51172 124.756,6.7403 123.509,5.23854 122.373,3.85156 121.313,2.55689 120.359,1.12102 120.25,0 H 119.75 C 119.732,1.46039 120.851,2.78259 121.986,4.16992 123.122,5.55726 124.295,7.00657 124.566,8.5957 124.811,10.027 124.041,11.43 123.025,12.8574 122.01,14.2848 120.766,15.7081 120.197,17.2246 119.286,19.6535 116.841,21.2464 115.414,22.6719 113.063,25.0221 111.363,26.4438 109.754,26.7129 108.949,26.8475 108.153,26.7107 107.25,26.248 106.347,25.7854 105.346,24.9899 104.178,23.8223 101.412,21.0572 99.8688,14.391 100.779,8.73438 101.067,6.94903 101.907,5.26482 102.693,3.78711 103.479,2.3094 104.228,1.05557 104.25,0 Z"
             style="color:#000000;fill:#000000;stroke-width:0.5" />
      </g>
   </g>
</svg>
