<?xml version="1.0" encoding="UTF-8" standalone="no"?>
<!-- Created with Inkscape (http://www.inkscape.org/) -->

<svg
   xmlns:dc="http://purl.org/dc/elements/1.1/"
   xmlns:cc="http://creativecommons.org/ns#"
   xmlns:rdf="http://www.w3.org/1999/02/22-rdf-syntax-ns#"
   xmlns:svg="http://www.w3.org/2000/svg"
   xmlns="http://www.w3.org/2000/svg"
   xmlns:xlink="http://www.w3.org/1999/xlink"
   xmlns:sodipodi="http://sodipodi.sourceforge.net/DTD/sodipodi-0.dtd"
   xmlns:inkscape="http://www.inkscape.org/namespaces/inkscape"
   width="128mm"
   height="128mm"
   viewBox="0 0 128 128"
   version="1.1"
   id="svg4999"
   sodipodi:docname="Btopleftcorner.svg"
   style="enable-background:new"
   inkscape:version="0.92.2 5c3e80d, 2017-08-06">
  <sodipodi:namedview
     id="base"
     pagecolor="#ffffff"
     bordercolor="#666666"
     borderopacity="1.0"
     inkscape:pageopacity="0.0"
     inkscape:pageshadow="2"
     inkscape:zoom="0.5"
     inkscape:cx="264.40688"
     inkscape:cy="-59.430768"
     inkscape:document-units="mm"
     inkscape:current-layer="layer1"
     showgrid="true"
     inkscape:snap-global="false"
     inkscape:window-width="1678"
     inkscape:window-height="1029"
     inkscape:window-x="1"
     inkscape:window-y="516"
     inkscape:window-maximized="0"
     showguides="false"
     inkscape:pagecheckerboard="true">
    <inkscape:grid
       spacingy="31.999999"
       spacingx="31.999999"
       units="mm"
       id="grid5544"
       type="xygrid" />
  </sodipodi:namedview>
  <defs
     id="defs4993">
    <mask
       id="mask2925"
       maskUnits="userSpaceOnUse">
      <path
         sodipodi:nodetypes="ccszcc"
         inkscape:connector-curvature="0"
         id="path2927"
         d="M 1.1458333e-6,32.000041 8.000001,32.000001 C 7.971101,33.865009 8.8220905,33.236849 7.7685012,35.80059 6.9298805,37.84125 5.3100696,36.50975 3.8555015,37.37992 2.4009309,38.250089 1.4958706,40.038299 1.1458333e-6,40.000001 Z"
         style="display:inline;fill:#ffffff;stroke:none;stroke-width:0.52173102;stroke-linecap:butt;stroke-linejoin:miter;stroke-miterlimit:4;stroke-dasharray:none;stroke-opacity:1" />
    </mask>
    <mask
       id="mask2929"
       maskUnits="userSpaceOnUse">
      <path
         sodipodi:nodetypes="cczcc"
         inkscape:connector-curvature="0"
         id="path2931"
         d="M 1.1458333e-6,32.000039 8.000001,31.999999 C 7.9481004,35.3495 6.1493888,32.468179 5.5705889,34.4742 4.9917891,36.48022 1.4958733,40.038311 1.1458333e-6,39.999999 Z"
         style="display:inline;fill:#ffffff;stroke:none;stroke-width:0.52173102;stroke-linecap:butt;stroke-linejoin:miter;stroke-miterlimit:4;stroke-dasharray:none;stroke-opacity:1" />
    </mask>
    <mask
       id="mask2933"
       maskUnits="userSpaceOnUse">
      <path
         sodipodi:nodetypes="cczcc"
         inkscape:connector-curvature="0"
         id="path2935"
         d="M 1.1458333e-6,32.000039 8.000001,31.999999 C 7.9481004,35.3495 3.7327243,32.26676 2.034139,34.437169 0.33555367,36.607581 1.4958706,40.038311 1.1458333e-6,39.999999 Z"
         style="display:inline;fill:#ffffff;stroke:none;stroke-width:0.52173102;stroke-linecap:butt;stroke-linejoin:miter;stroke-miterlimit:4;stroke-dasharray:none;stroke-opacity:1" />
    </mask>
    <mask
       id="mask2937"
       maskUnits="userSpaceOnUse">
      <path
         sodipodi:nodetypes="cczcc"
         inkscape:connector-curvature="0"
         id="path2939"
         d="M 1.1458333e-6,32.00004 8.000001,32 C 7.9481004,35.3495 4.6280505,36.86315 2.4664337,35.92471 0.30482496,34.98627 1.4958733,40.0383 1.1458333e-6,40 Z"
         style="display:inline;fill:#ffffff;stroke:none;stroke-width:0.52173102;stroke-linecap:butt;stroke-linejoin:miter;stroke-miterlimit:4;stroke-dasharray:none;stroke-opacity:1" />
    </mask>
    <mask
       id="mask2941"
       maskUnits="userSpaceOnUse">
      <path
         sodipodi:nodetypes="cczzzcc"
         inkscape:connector-curvature="0"
         id="path2943"
         d="M 1.6458333e-6,32.00004 8.0000015,32 c -0.017595,1.13517 0.418547,2.49562 -1.5323952,2.76757 C 4.516664,35.03952 3.9326598,33.88814 3.2605335,35.19364 2.5884072,36.49914 4.593933,39.8758 3.1940437,41.24945 1.7941518,42.62309 1.4958659,40.0383 1.6458333e-6,40 Z"
         style="display:inline;fill:#ffffff;stroke:none;stroke-width:0.52173102;stroke-linecap:butt;stroke-linejoin:miter;stroke-miterlimit:4;stroke-dasharray:none;stroke-opacity:1" />
    </mask>
    <mask
       id="mask2945"
       maskUnits="userSpaceOnUse">
      <path
         sodipodi:nodetypes="cczcc"
         inkscape:connector-curvature="0"
         id="path2947"
         d="M 1.6458333e-6,32.000039 8.0000015,31.999999 c -0.051901,3.349501 3.1050625,1.499122 1.5454207,3.273222 -1.559642,1.774108 -8.0495537,4.76509 -9.5454205541667,4.726778 z"
         style="display:inline;fill:#ffffff;stroke:none;stroke-width:0.52173102;stroke-linecap:butt;stroke-linejoin:miter;stroke-miterlimit:4;stroke-dasharray:none;stroke-opacity:1" />
    </mask>
    <mask
       id="mask2949"
       maskUnits="userSpaceOnUse">
      <path
         sodipodi:nodetypes="cczcc"
         inkscape:connector-curvature="0"
         id="path2951"
         d="M 1.6458333e-6,32.000039 8.0000015,31.999999 C 7.9481009,35.3495 7.0754389,37.260029 5.3768589,38.96742 3.6782762,40.674811 1.4958659,40.038311 1.6458333e-6,39.999999 Z"
         style="display:inline;fill:#ffffff;stroke:none;stroke-width:0.52173102;stroke-linecap:butt;stroke-linejoin:miter;stroke-miterlimit:4;stroke-dasharray:none;stroke-opacity:1" />
    </mask>
    <mask
       id="mask2953"
       maskUnits="userSpaceOnUse">
      <path
         sodipodi:nodetypes="ccssscc"
         inkscape:connector-curvature="0"
         id="path2955"
         d="M 1.6458333e-6,32.000041 8.0000015,32.000001 C 7.9857405,32.920161 7.777606,32.94177 6.422807,34.007329 5.29764,34.892281 6.7584098,35.945219 5.762579,37.009889 4.2882572,38.586131 3.4945998,35.646121 3.0617547,37.115339 2.4656511,39.13869 1.4958685,40.038299 1.6458333e-6,40.000001 Z"
         style="display:inline;fill:#ffffff;stroke:none;stroke-width:0.52173102;stroke-linecap:butt;stroke-linejoin:miter;stroke-miterlimit:4;stroke-dasharray:none;stroke-opacity:1" />
    </mask>
    <mask
       id="mask2957"
       maskUnits="userSpaceOnUse">
      <path
         sodipodi:nodetypes="ccsscc"
         inkscape:connector-curvature="0"
         id="path2959"
         d="M -5.0000001e-7,32.000041 7.9999994,32.000001 c -0.02958,1.90876 -1.1905589,1.480968 -2.520188,2.58808 -1.0036096,0.83565 0.3476731,2.703978 -0.764413,3.4533 C 1.7175872,40.061289 1.495869,40.038299 -5e-7,40.000001 Z"
         style="display:inline;fill:#ffffff;stroke:none;stroke-width:0.52173102;stroke-linecap:butt;stroke-linejoin:miter;stroke-miterlimit:4;stroke-dasharray:none;stroke-opacity:1" />
    </mask>
    <mask
       id="mask2961"
       maskUnits="userSpaceOnUse">
      <path
         sodipodi:nodetypes="cczsscc"
         inkscape:connector-curvature="0"
         id="path2963"
         d="M -5.0000001e-7,32.000039 7.9999994,31.999999 c -0.013679,0.88329 0.6064964,1.11992 -0.733261,2.82466 C 5.9269837,36.52939 5.0691357,34.476449 4.4393639,36.069111 3.0645571,39.545929 3.8032526,38.9041 2.863315,39.033561 1.0324434,39.28574 1.495869,40.038311 -5e-7,39.999999 Z"
         style="display:inline;fill:#ffffff;stroke:none;stroke-width:0.52173102;stroke-linecap:butt;stroke-linejoin:miter;stroke-miterlimit:4;stroke-dasharray:none;stroke-opacity:1" />
    </mask>
    <mask
       id="mask2965"
       maskUnits="userSpaceOnUse">
      <path
         sodipodi:nodetypes="cczcc"
         inkscape:connector-curvature="0"
         id="path2967"
         d="M -5.0000001e-7,32.000039 7.9999994,31.999999 c -0.051901,3.349501 -2.8308697,3.4099 -4.1112573,4.4337 -1.2803849,1.0238 -2.3928705,3.604612 -3.88874260000001,3.5663 z"
         style="display:inline;fill:#ffffff;stroke:none;stroke-width:0.52173102;stroke-linecap:butt;stroke-linejoin:miter;stroke-miterlimit:4;stroke-dasharray:none;stroke-opacity:1" />
    </mask>
    <mask
       id="mask2969"
       maskUnits="userSpaceOnUse">
      <path
         sodipodi:nodetypes="cczzcc"
         inkscape:connector-curvature="0"
         id="path2971"
         d="M -5.0000001e-7,32.00004 7.9999994,32 C 7.96953,33.96639 6.3695681,39.17926 5.0129673,38.69841 3.6563639,38.21756 4.178617,37.28154 1.9173291,37.90462 -0.34395883,38.52769 1.495869,40.0383 -5.0000001e-7,40 Z"
         style="display:inline;fill:#ffffff;stroke:none;stroke-width:0.52173102;stroke-linecap:butt;stroke-linejoin:miter;stroke-miterlimit:4;stroke-dasharray:none;stroke-opacity:1" />
    </mask>
    <mask
       id="mask2973"
       maskUnits="userSpaceOnUse">
      <path
         sodipodi:nodetypes="ccsssscc"
         inkscape:connector-curvature="0"
         id="path2975"
         d="M 0,32.00004 8.0000001,32 c -0.02526,1.6303 -0.1218612,1.35814 -0.9243531,2.20562 -0.4392287,0.46385 1.0587948,1.46011 -0.00406,2.25053 C 6.6437235,36.77434 6.122761,38.68569 5.1152221,38.91867 4.0528076,39.16433 2.5069414,37.72699 2.2517155,37.88363 0.95463421,38.67972 1.4958696,40.0383 0,40 Z"
         style="display:inline;fill:#ffffff;stroke:none;stroke-width:0.52173102;stroke-linecap:butt;stroke-linejoin:miter;stroke-miterlimit:4;stroke-dasharray:none;stroke-opacity:1" />
    </mask>
    <mask
       id="mask2977"
       maskUnits="userSpaceOnUse">
      <path
         sodipodi:nodetypes="ccsssscc"
         inkscape:connector-curvature="0"
         id="path2979"
         d="m 0,32.000039 8.0000001,-4e-5 c -0.02255,1.45518 -2.6277001,1.678731 -1.3691131,2.62635 1.6384129,1.233591 0.8587951,1.25277 0.8125401,2.32184 -0.08179,1.8903 0.8300953,1.319361 -0.3797384,2.67461 -1.3177962,1.4762 -2.7551394,0.942422 -4.4559684,0.205981 C 1.0536744,39.155891 0.37666877,40.009649 0,39.999999 Z"
         style="display:inline;fill:#ffffff;stroke:none;stroke-width:0.52173102;stroke-linecap:butt;stroke-linejoin:miter;stroke-miterlimit:4;stroke-dasharray:none;stroke-opacity:1" />
    </mask>
    <mask
       id="mask2981"
       maskUnits="userSpaceOnUse">
      <path
         sodipodi:nodetypes="cczzzcc"
         inkscape:connector-curvature="0"
         id="path2983"
         d="m 0,32.000039 8.0000001,-4e-5 c -0.02799,1.806422 -2.2058648,0.179221 -3.3923509,1.591252 -1.1864859,1.412028 -1.2720439,0.0744 -2.2318803,1.811938 C 1.4159322,37.14071 4.062312,37.83612 2.4333669,38.471321 0.80442268,39.10653 1.4958696,40.038311 0,39.999999 Z"
         style="display:inline;fill:#ffffff;stroke:none;stroke-width:0.52173102;stroke-linecap:butt;stroke-linejoin:miter;stroke-miterlimit:4;stroke-dasharray:none;stroke-opacity:1" />
    </mask>
    <mask
       id="mask2985"
       maskUnits="userSpaceOnUse">
      <path
         sodipodi:nodetypes="cczcc"
         inkscape:connector-curvature="0"
         id="path2987"
         d="m 0,32.000041 8.0000001,-4e-5 C 7.9481,35.349499 6.8769981,35.870969 6.7659192,38.43825 6.6548402,41.005529 1.4958696,40.038299 0,40.000001 Z"
         style="display:inline;fill:#ffffff;stroke:none;stroke-width:0.52173102;stroke-linecap:butt;stroke-linejoin:miter;stroke-miterlimit:4;stroke-dasharray:none;stroke-opacity:1" />
    </mask>
  </defs>
  <metadata
     id="metadata4996">
    <rdf:RDF>
      <cc:Work
         rdf:about="">
        <dc:format>image/svg+xml</dc:format>
        <dc:type
           rdf:resource="http://purl.org/dc/dcmitype/StillImage" />
        <dc:title />
      </cc:Work>
    </rdf:RDF>
  </metadata>
  <g
     sodipodi:insensitive="true"
     transform="translate(0,64)"
     inkscape:label="models"
     id="layer3"
     inkscape:groupmode="layer">
    <g
       inkscape:label="#bg0"
       id="BG0"
       transform="translate(-32)">
      <rect
         style="fill:#008000;stroke-width:2;stroke-linecap:round;stroke-linejoin:round;paint-order:markers fill stroke"
         id="rect5549"
         width="32"
         height="32"
         x="32"
         y="32" />
      <text
         xml:space="preserve"
         style="font-size:10.58333302px;line-height:1.25;font-family:sans-serif;letter-spacing:0px;word-spacing:0px;fill:#000000;stroke-width:0.26458332"
         x="43.973675"
         y="52.018486"
         id="text5622"><tspan
           sodipodi:role="line"
           id="tspan5620"
           x="43.973675"
           y="52.018486">A</tspan></text>
    </g>
    <g
       inkscape:label="#bg1"
       transform="translate(-32)"
       id="BG1">
      <g
         id="g5818">
        <rect
           y="32"
           x="32"
           height="32"
           width="32"
           id="rect5549-3"
           style="fill:#ff0000;stroke-width:2;stroke-linecap:round;stroke-linejoin:round;paint-order:markers fill stroke" />
        <text
           xml:space="preserve"
           style="font-size:10.58333302px;line-height:1.25;font-family:sans-serif;letter-spacing:0px;word-spacing:0px;fill:#000000;stroke-width:0.26458332"
           x="43.973675"
           y="52.018486"
           id="text916"><tspan
             sodipodi:role="line"
             id="tspan914"
             x="43.973675"
             y="52.018486">B</tspan></text>
      </g>
    </g>
    <path
       sodipodi:nodetypes="cczcc"
       inkscape:connector-curvature="0"
       id="frontier"
       d="m 0,32.000042 8,-4.1e-5 C 7.9481,35.349503 6.876998,35.870968 6.765919,38.438252 6.6548401,41.005535 1.4958696,40.038305 0,40 Z"
       style="fill:#ffffff;stroke-width:0.52173102" />
    <path
       sodipodi:nodetypes="ccsscc"
       inkscape:connector-curvature="0"
       id="frontier-3"
       d="m 32,32.000042 8,-4.1e-5 c -0.02958,1.908761 -1.19056,1.480973 -2.52019,2.588079 -1.003609,0.835649 0.347675,2.703977 -0.764412,3.453297 C 33.717586,40.06129 33.495869,40.038305 32,40 Z"
       style="fill:#ffffff;stroke-width:0.52173102" />
    <path
       sodipodi:nodetypes="ccssscc"
       inkscape:connector-curvature="0"
       id="frontier-3-6"
       d="m 64,32.000042 8,-4.1e-5 c -0.01426,0.920164 -0.222394,0.941768 -1.577194,2.007324 -1.125168,0.88495 0.335603,1.937895 -0.660228,3.002565 C 68.288256,38.586129 67.4946,35.64612 67.061753,37.115335 66.46565,39.138692 65.495869,40.038305 64,40 Z"
       style="fill:#ffffff;stroke-width:0.52173102" />
    <path
       sodipodi:nodetypes="ccszcc"
       inkscape:connector-curvature="0"
       id="frontier-3-6-7"
       d="m 96,32.000042 8,-4.1e-5 c -0.0289,1.865011 0.82209,1.236846 -0.2315,3.800591 -0.83862,2.040661 -2.45843,0.709159 -3.913,1.579327 C 98.40093,38.250087 97.495869,40.038305 96,40 Z"
       style="fill:#ffffff;stroke-width:0.52173102" />
    <path
       sodipodi:nodetypes="cczzzcc"
       inkscape:connector-curvature="0"
       id="frontier-5"
       d="M 0,4.2744382e-5 8,7.4438215e-7 C 7.97201,1.8064151 5.7941352,0.17921623 4.6076492,1.5912509 3.4211632,3.0032856 3.3356051,1.6656798 2.3757689,3.4031935 1.4159322,5.1407071 4.0623119,5.8361183 2.4333673,6.4713243 0.80442267,7.1065303 1.4958696,8.038305 0,8 Z"
       style="fill:#ffffff;stroke-width:0.52173102" />
    <path
       sodipodi:nodetypes="cczsscc"
       inkscape:connector-curvature="0"
       id="frontier-3-62"
       d="M 31.999999,4.2744382e-5 40,7.4438215e-7 C 39.986314,0.88328736 40.606495,1.1199246 39.266738,2.824657 37.926982,4.5293894 37.069136,2.4764475 36.439363,4.0691124 35.064557,7.5459252 35.803253,6.9040999 34.863315,7.0335639 33.032442,7.2857429 33.495869,8.038305 31.999999,8 Z"
       style="fill:#ffffff;stroke-width:0.52173102" />
    <path
       sodipodi:nodetypes="cczcc"
       inkscape:connector-curvature="0"
       id="frontier-3-6-9"
       d="M 64.000002,4.2744382e-5 72,7.4438215e-7 C 71.9481,3.3495027 71.075438,5.2600309 69.376857,6.9674182 67.678276,8.6748055 65.495866,8.038305 64,8 Z"
       style="fill:#ffffff;stroke-width:0.52173102" />
    <path
       sodipodi:nodetypes="cczcc"
       inkscape:connector-curvature="0"
       id="frontier-3-6-7-1"
       d="M 96.000001,4.2744382e-5 104,7.4438215e-7 C 103.9481,3.3495027 102.14939,0.46818531 101.57059,2.4742024 100.99179,4.4802194 97.495871,8.038305 96.000001,8 Z"
       style="fill:#ffffff;stroke-width:0.52173102" />
    <path
       sodipodi:nodetypes="ccsssscc"
       inkscape:connector-curvature="0"
       id="frontier-2"
       d="m 0,-31.999957 8,-4.2e-5 c -0.02255,1.455175 -2.6277001,1.678734 -1.3691131,2.626349 1.638413,1.233592 0.8587952,1.252775 0.8125402,2.321842 -0.08179,1.890297 0.8300951,1.319357 -0.3797386,2.674613 C 5.7458923,-22.901 4.3085493,-23.434779 2.6077203,-24.17122 1.0536744,-24.844106 0.37666877,-23.990354 0,-24 Z"
       style="fill:#ffffff;stroke-width:0.52173102" />
    <path
       sodipodi:nodetypes="cczcc"
       inkscape:connector-curvature="0"
       id="frontier-3-7"
       d="M 31.999999,-31.999957 40,-31.999999 c -0.0519,3.349503 -2.830872,3.409895 -4.111258,4.433697 C 34.608357,-26.5425 33.49587,-23.961693 32,-24 Z"
       style="fill:#ffffff;stroke-width:0.52173102" />
    <path
       sodipodi:nodetypes="cczcc"
       inkscape:connector-curvature="0"
       id="frontier-3-6-0"
       d="M 64.000002,-31.999957 72,-31.999999 c -0.0519,3.349503 3.105063,1.49912 1.545421,3.273224 -1.559642,1.774103 -8.049553,4.765082 -9.545419,4.726775 z"
       style="fill:#ffffff;stroke-width:0.52173102" />
    <path
       sodipodi:nodetypes="cczcc"
       inkscape:connector-curvature="0"
       id="frontier-3-6-7-9"
       d="M 96.000001,-31.999957 104,-31.999999 c -0.0519,3.349503 -4.267278,0.266758 -5.965863,2.437166 C 96.335552,-27.392424 97.49587,-23.961693 96,-24 Z"
       style="fill:#ffffff;stroke-width:0.52173102" />
    <path
       sodipodi:nodetypes="ccsssscc"
       inkscape:connector-curvature="0"
       id="frontier-5-3"
       d="m 0,-63.999957 8,-4.2e-5 c -0.02526,1.630296 -0.1218613,1.358141 -0.924353,2.205621 -0.4392288,0.463851 1.0587946,1.460109 -0.00406,2.250526 -0.4278637,0.31819 -0.9488261,2.229545 -1.956365,2.46252 -1.062413,0.245664 -2.6082793,-1.191679 -2.8635052,-1.035035 C 0.95463419,-57.320284 1.4958696,-55.961695 0,-56 Z"
       style="fill:#ffffff;stroke-width:0.52173102" />
    <path
       sodipodi:nodetypes="cczzcc"
       inkscape:connector-curvature="0"
       id="frontier-3-62-6"
       d="M 31.999999,-63.999957 40,-63.999999 c -0.03047,1.966389 -1.630432,7.179262 -2.987034,6.698411 -1.356602,-0.480851 -0.834349,-1.416867 -3.095637,-0.793791 -2.261288,0.623072 -0.42146,2.133684 -1.91733,2.095379 z"
       style="fill:#ffffff;stroke-width:0.52173102" />
    <path
       sodipodi:nodetypes="cczzzcc"
       inkscape:connector-curvature="0"
       id="frontier-3-6-9-0"
       d="M 64.000002,-63.999957 72,-63.999999 c -0.01759,1.135173 0.418548,2.495615 -1.532395,2.767568 -1.950942,0.271953 -2.534947,-0.879432 -3.207073,0.426072 -0.672125,1.305504 1.333399,4.682165 -0.06649,6.055809 C 65.794154,-53.376906 65.495866,-55.961695 64,-56 Z"
       style="fill:#ffffff;stroke-width:0.52173102" />
    <path
       sodipodi:nodetypes="cczcc"
       inkscape:connector-curvature="0"
       id="frontier-3-6-7-1-6"
       d="M 96.000001,-63.999957 104,-63.999999 c -0.0519,3.349502 -3.37195,4.863152 -5.533566,3.924709 -2.16161,-0.938443 -0.970561,4.113595 -2.466433,4.07529 z"
       style="fill:#ffffff;stroke-width:0.52173102" />
  </g>
  <g
     transform="translate(0,-169)"
     id="layer1"
     inkscape:groupmode="layer"
     inkscape:label="actual">
    <use
       transform="matrix(1.000000,0.000000,0.000000,1.000000,0.000000,137.000000)"
       height="100%"
       width="100%"
       id="use4983"
       xlink:href="#BG0"
       y="0"
       x="0"
       style="enable-background:new" />
    <use
       transform="matrix(1.000000,0.000000,0.000000,1.000000,96.000000,137.000000)"
       height="100%"
       width="100%"
       id="use4986"
       xlink:href="#BG0"
       y="0"
       x="0"
       style="enable-background:new" />
    <use
       transform="matrix(1.000000,0.000000,0.000000,1.000000,64.000000,137.000000)"
       height="100%"
       width="100%"
       id="use4989"
       xlink:href="#BG0"
       y="0"
       x="0"
       style="enable-background:new" />
    <use
       transform="matrix(1.000000,0.000000,0.000000,1.000000,32.000000,137.000000)"
       height="100%"
       width="100%"
       id="use4992"
       xlink:href="#BG0"
       y="0"
       x="0"
       style="enable-background:new" />
    <use
       transform="matrix(1.000000,0.000000,0.000000,1.000000,0.000000,169.000000)"
       height="100%"
       width="100%"
       id="use4995"
       xlink:href="#BG0"
       y="0"
       x="0"
       style="enable-background:new" />
    <use
       transform="matrix(1.000000,0.000000,0.000000,1.000000,96.000000,169.000000)"
       height="100%"
       width="100%"
       id="use4998"
       xlink:href="#BG0"
       y="0"
       x="0"
       style="enable-background:new" />
    <use
       transform="matrix(1.000000,0.000000,0.000000,1.000000,64.000000,169.000000)"
       height="100%"
       width="100%"
       id="use5001"
       xlink:href="#BG0"
       y="0"
       x="0"
       style="enable-background:new" />
    <use
       transform="matrix(1.000000,0.000000,0.000000,1.000000,96.000000,137.000000)"
       mask="url(#mask2937)"
       height="100%"
       width="100%"
       id="use4935"
       xlink:href="#BG1"
       y="0"
       x="0"
       style="enable-background:new" />
    <use
       transform="matrix(1.000000,0.000000,0.000000,1.000000,32.000000,169.000000)"
       height="100%"
       width="100%"
       id="use5004"
       xlink:href="#BG0"
       y="0"
       x="0"
       style="enable-background:new" />
    <use
       transform="matrix(1.000000,0.000000,0.000000,1.000000,0.000000,201.000000)"
       height="100%"
       width="100%"
       id="use5007"
       xlink:href="#BG0"
       y="0"
       x="0"
       style="enable-background:new" />
    <use
       transform="matrix(1.000000,0.000000,0.000000,1.000000,96.000000,201.000000)"
       height="100%"
       width="100%"
       id="use5010"
       xlink:href="#BG0"
       y="0"
       x="0"
       style="enable-background:new" />
    <use
       transform="matrix(1.000000,0.000000,0.000000,1.000000,64.000000,201.000000)"
       height="100%"
       width="100%"
       id="use5013"
       xlink:href="#BG0"
       y="0"
       x="0"
       style="enable-background:new" />
    <use
       transform="matrix(1.000000,0.000000,0.000000,1.000000,32.000000,201.000000)"
       height="100%"
       width="100%"
       id="use5016"
       xlink:href="#BG0"
       y="0"
       x="0"
       style="enable-background:new" />
    <use
       transform="matrix(1.000000,0.000000,0.000000,1.000000,0.000000,233.000000)"
       height="100%"
       width="100%"
       id="use5019"
       xlink:href="#BG0"
       y="0"
       x="0"
       style="enable-background:new" />
    <use
       transform="matrix(1.000000,0.000000,0.000000,1.000000,96.000000,233.000000)"
       height="100%"
       width="100%"
       id="use5022"
       xlink:href="#BG0"
       y="0"
       x="0"
       style="enable-background:new" />
    <use
       transform="matrix(1.000000,0.000000,0.000000,1.000000,64.000000,233.000000)"
       height="100%"
       width="100%"
       id="use5025"
       xlink:href="#BG0"
       y="0"
       x="0"
       style="enable-background:new" />
    <use
       transform="matrix(1.000000,0.000000,0.000000,1.000000,0.000000,233.000000)"
       mask="url(#mask2985)"
       height="100%"
       width="100%"
       id="use4932"
       xlink:href="#BG1"
       y="0"
       x="0"
       style="enable-background:new" />
    <use
       transform="matrix(1.000000,0.000000,0.000000,1.000000,32.000000,233.000000)"
       height="100%"
       width="100%"
       id="use5028"
       xlink:href="#BG0"
       y="0"
       x="0"
       style="enable-background:new" />
    <use
       transform="matrix(1.000000,0.000000,0.000000,1.000000,32.000000,137.000000)"
       mask="url(#mask2969)"
       height="100%"
       width="100%"
       id="use4938"
       xlink:href="#BG1"
       y="0"
       x="0"
       style="enable-background:new" />
    <use
       transform="translate(-32.459885,94.503278)"
       height="100%"
       width="100%"
       id="use4941"
       xlink:href="#use4938"
       y="0"
       x="0"
       style="display:none;enable-background:new" />
    <use
       transform="matrix(1.000000,0.000000,0.000000,1.000000,64.000000,137.000000)"
       mask="url(#mask2941)"
       height="100%"
       width="100%"
       id="use4944"
       xlink:href="#BG1"
       y="0"
       x="0"
       style="enable-background:new" />
    <use
       transform="matrix(1.000000,0.000000,0.000000,1.000000,96.000000,169.000000)"
       mask="url(#mask2933)"
       height="100%"
       width="100%"
       id="use4947"
       xlink:href="#BG1"
       y="0"
       x="0"
       style="enable-background:new" />
    <use
       transform="matrix(1.000000,0.000000,0.000000,1.000000,64.000000,169.000000)"
       mask="url(#mask2945)"
       height="100%"
       width="100%"
       id="use4950"
       xlink:href="#BG1"
       y="0"
       x="0"
       style="enable-background:new" />
    <use
       transform="matrix(1.000000,0.000000,0.000000,1.000000,32.000000,169.000000)"
       mask="url(#mask2965)"
       height="100%"
       width="100%"
       id="use4953"
       xlink:href="#BG1"
       y="0"
       x="0"
       style="enable-background:new" />
    <use
       transform="matrix(1.000000,0.000000,0.000000,1.000000,0.000000,137.000000)"
       mask="url(#mask2973)"
       height="100%"
       width="100%"
       id="use4956"
       xlink:href="#BG1"
       y="0"
       x="0"
       style="enable-background:new" />
    <use
       transform="matrix(1.000000,0.000000,0.000000,1.000000,96.000000,201.000000)"
       mask="url(#mask2929)"
       height="100%"
       width="100%"
       id="use4959"
       xlink:href="#BG1"
       y="0"
       x="0"
       style="enable-background:new" />
    <use
       transform="matrix(1.000000,0.000000,0.000000,1.000000,64.000000,201.000000)"
       mask="url(#mask2949)"
       height="100%"
       width="100%"
       id="use4962"
       xlink:href="#BG1"
       y="0"
       x="0"
       style="enable-background:new" />
    <use
       transform="matrix(1.000000,0.000000,0.000000,1.000000,32.000000,201.000000)"
       mask="url(#mask2961)"
       height="100%"
       width="100%"
       id="use4965"
       xlink:href="#BG1"
       y="0"
       x="0"
       style="enable-background:new" />
    <use
       transform="matrix(1.000000,0.000000,0.000000,1.000000,0.000000,169.000000)"
       mask="url(#mask2977)"
       height="100%"
       width="100%"
       id="use4968"
       xlink:href="#BG1"
       y="0"
       x="0"
       style="enable-background:new" />
    <use
       transform="matrix(1.000000,0.000000,0.000000,1.000000,96.000000,233.000000)"
       mask="url(#mask2925)"
       height="100%"
       width="100%"
       id="use4971"
       xlink:href="#BG1"
       y="0"
       x="0"
       style="enable-background:new" />
    <use
       transform="matrix(1.000000,0.000000,0.000000,1.000000,64.000000,233.000000)"
       mask="url(#mask2953)"
       height="100%"
       width="100%"
       id="use4974"
       xlink:href="#BG1"
       y="0"
       x="0"
       style="enable-background:new" />
    <use
       transform="matrix(1.000000,0.000000,0.000000,1.000000,32.000000,233.000000)"
       mask="url(#mask2957)"
       height="100%"
       width="100%"
       id="use4977"
       xlink:href="#BG1"
       y="0"
       x="0"
       style="enable-background:new" />
    <use
       transform="matrix(1.000000,0.000000,0.000000,1.000000,0.000000,201.000000)"
       mask="url(#mask2981)"
       height="100%"
       width="100%"
       id="use4980"
       xlink:href="#BG1"
       y="0"
       x="0"
       style="enable-background:new" />
    <path
       id="frontier-4"
       d="M7.75 265.0C7.69397 266.43107 7.4328333 267.63392 7.1679688 268.43359C6.8819804 269.29704 6.5726329 270.11015 6.515625 271.42773C6.491497 271.98538 6.2259166 272.30723 5.7578125 272.54883C5.2897084 272.79043 4.6173093 272.91104 3.890625 272.94727C2.5285813 273.01517 0.8397835 272.79391 0.0 272.75C0.0 272.75 0.0 273.25014 0.0 273.25014C0.70145571 273.26814 2.3862087 273.52162 3.9140625 273.44545C4.6779894 273.40735 5.4091383 273.29023 5.9863281 272.99233C6.563518 272.69443 6.9842134 272.17535 7.015625 271.44936C7.069696 270.19966 7.3522708 269.46842 7.6425781 268.59194C7.9328855 267.71545 8.2236404 266.70118 8.25 265.0C8.25 265.0 7.75 265.0 7.75 265.0"
       style="color:#000000;stroke-width:0.18708867;fill:#000000" />
    <path
       id="frontier-3-8"
       d="M39.75 265.0C39.72029 265.26873 39.639439 265.78875 39.560547 265.93359C39.452368 266.13221 39.308914 266.25722 39.101562 266.37891C38.68686 266.62227 38.024792 266.8099 37.320312 267.39648C37.013008 267.65236 36.879808 268.00476 36.84375 268.34961C36.80769 268.69446 36.85411 269.04392 36.89062 269.375C36.92713 269.70608 36.95426 270.01822 36.91601 270.26562C36.87776 270.51303 36.794804 270.68667 36.576166 270.83398C35.079994 271.8421 34.280231 272.33429 33.703119 272.56055C33.209024 272.75426 32.558395 272.76156 32.0 272.75C32.0 272.75 32.0 273.25014 32.0 273.25014C32.746971 273.26924 33.227598 273.28314 33.884766 273.02553C34.541933 272.76788 35.35383 272.25998 36.855469 271.24819C37.192873 271.02084 37.357631 270.68171 37.410156 270.34194C37.462686 270.00217 37.423566 269.65458 37.386716 269.32045C37.349866 268.98633 37.314196 268.66444 37.341796 268.40053C37.369386 268.13663 37.446124 267.94139 37.640624 267.77944C38.265775 267.25891 38.847925 267.10739 39.353515 266.81069C39.606309 266.66233 39.840624 266.46658 39.999999 266.17397C40.159374 265.88136 40.24221 265.50266 40.25 265.0C40.25 265.0 39.75 265.0 39.75 265.0"
       style="color:#000000;stroke-width:0.18708867;fill:#000000" />
    <path
       id="frontier-3-6-1"
       d="M64.0 273.25014C64.799382 273.27064 65.488552 273.03056 66.039062 272.51381C66.589573 271.99707 66.995182 271.22298 67.300781 270.18569C67.345121 270.0352 67.390001 269.97293 67.40625 269.95326C67.45325 269.97286 67.641808 270.11737 67.863281 270.29702C68.092319 270.4828 68.380076 270.69259 68.751953 270.73256C69.12383 270.77256 69.542603 270.61233 69.945312 270.18178C70.229142 269.87833 70.352584 269.54563 70.376953 269.23647C70.401323 268.9273 70.338733 268.64437 70.289063 268.39272C70.239393 268.14107 70.204253 267.92179 70.232423 267.73842C70.260593 267.55505 70.33643 267.39336 70.578126 267.20326C71.251281 266.67382 71.642092 266.41114 71.902345 266.11537C72.162597 265.81961 72.242578 265.47889 72.25 265.0C72.25 265.0 71.75 265.0 71.75 265.0C71.72566 265.19201 71.65337 265.63998 71.527344 265.7832C71.341264 265.99467 70.949222 266.27443 70.267578 266.81055C69.94669 267.06293 69.783789 267.36589 69.738281 267.66211C69.692771 267.95833 69.748431 268.23494 69.798831 268.49023C69.849221 268.74552 69.895881 268.98191 69.878911 269.19727C69.861931 269.41262 69.794171 269.61096 69.580083 269.83984C69.245632 270.19742 69.011759 270.25838 68.806646 270.23633C68.601533 270.21423 68.387465 270.07674 68.179693 269.9082C67.97192 269.73967 67.806323 269.53916 67.527349 269.46094C67.387862 269.42184 67.18893 269.45694 67.068364 269.57227C66.947799 269.68788 66.882496 269.8405 66.822271 270.04492C66.531766 271.03098 66.154644 271.71912 65.697271 272.14844C65.305839 272.51586 64.558118 272.7134 64.0 272.75C64.0 272.75 64.0 273.25014 64.0 273.25014"
       style="color:#000000;stroke-width:0.18708867;fill:#000000" />
    <path
       id="frontier-3-6-7-0"
       d="M96.0 273.25014C96.848746 273.27184 97.505119 272.77814 98.113281 272.21498C98.721444 271.65182 99.302231 271.00197 99.984375 270.59389C100.62836 270.20863 101.3271 270.31203 102.05469 270.27944C102.41848 270.26314 102.79248 270.20694 103.13672 270.00014C103.48095 269.79333 103.77596 269.4418 104.0 268.89662C104.53306 267.59951 104.60237 267.04421 104.51367 266.58998C104.42497 266.13576 104.23613 265.89493 104.25 265.0C104.25 265.0 103.75 265.0 103.75 265.0C103.7902 265.68436 103.96721 266.39759 104.02344 266.68555C104.08964 267.02443 104.05764 267.43846 103.53711 268.70508C103.34184 269.18023 103.1197 269.4276 102.87891 269.57227C102.63811 269.71693 102.35906 269.76461 102.03125 269.7793C101.37563 269.8087 100.53714 269.6811 99.726562 270.16602C98.954135 270.62811 98.355415 271.30874 97.773438 271.84766C97.271892 272.31209 96.534188 272.67361 96.0 272.75C96.0 272.75 96.0 273.25014 96.0 273.25014"
       style="color:#000000;stroke-width:0.18708867;fill:#000000" />
    <path
       id="frontier-5-30"
       d="M0.0 241.25014C0.39940337 241.26034 0.67847035 241.20534 0.90039062 241.08608C1.1223109 240.96681 1.2577425 240.79306 1.3710938 240.63295C1.5977962 240.31274 1.7586692 240.00344 2.5234375 239.70522C2.7449214 239.61882 2.9098277 239.52853 3.0332031 239.40834C3.1565786 239.28816 3.2300382 239.1197 3.2265625 238.96303C3.2196125 238.64969 3.0273266 238.43898 2.859375 238.20522C2.6914234 237.97145 2.5220056 237.72631 2.4492188 237.46108C2.3764318 237.19585 2.3807148 236.90922 2.59375 236.52358C2.8263842 236.10245 3.0008983 235.88361 3.1269531 235.77358C3.2530079 235.66355 3.3247662 235.64635 3.4570312 235.61928C3.5892963 235.59218 3.7830102 235.56718 4.0097656 235.44741C4.2365211 235.3276 4.4887483 235.12112 4.7988281 234.75209C5.0560029 234.44603 5.3507949 234.31275 5.6835938 234.24623C6.0163926 234.17973 6.382401 234.19123 6.7363281 234.19353C7.0902553 234.19553 7.4378716 234.19853 7.7441406 234.03142C8.0504097 233.86448 8.2422154 233.5024 8.25 233.0C8.25 233.0 7.75 233.0 7.75 233.0C7.707839 233.11663 7.5902694 233.54579 7.5058594 233.5918C7.358827 233.6719 7.0825854 233.69557 6.7402344 233.69336C6.3978833 233.69136 5.9960641 233.67386 5.5859375 233.75586C5.1758109 233.83786 4.7520839 234.02973 4.4160156 234.42969C4.1328525 234.76668 3.9303245 234.92308 3.7773438 235.00391C3.624363 235.08471 3.5148366 235.09861 3.3574219 235.13086C3.2000072 235.16306 2.9958471 235.22446 2.7988281 235.39648C2.6018091 235.56846 2.403534 235.83556 2.15625 236.2832C1.8893663 236.76632 1.8661993 237.21811 1.96875 237.5918C2.0713007 237.96548 2.2830794 238.25942 2.453125 238.49609C2.6231706 238.73277 2.7254534 238.92462 2.7265625 238.97461C2.727117 238.99961 2.7329825 239.00261 2.6855465 239.04881C2.6381065 239.09501 2.5275488 239.16583 2.3417965 239.23826C1.4776205 239.57525 1.1716677 240.04883 0.96289022 240.34373C0.85850146 240.49118 0.78411336 240.58195 0.6640621 240.64646C0.5885589 240.68706 0.15254753 240.7325 0.0 240.75C0.0 240.75 0.0 241.25014 0.0 241.25014"
       style="color:#000000;stroke-width:0.18708867;fill:#000000" />
    <path
       id="frontier-3-62-4"
       d="M39.75 233.0C39.78699 233.31873 39.889732 233.85551 39.880859 234.0957C39.869319 234.40796 39.725139 234.83671 39.070312 235.66992C38.758447 236.06675 38.502828 236.21513 38.285156 236.27148C38.067484 236.32788 37.865307 236.29348 37.640625 236.24418C37.415943 236.19488 37.165026 236.11737 36.884766 236.20318C36.604505 236.28898 36.378364 236.54333 36.207031 236.97662C35.515932 238.72438 35.34195 239.4785 35.253906 239.72272C35.241566 239.75692 35.243156 239.75032 35.238276 239.75982C35.198106 239.76064 35.065794 239.75282 34.830073 239.78522C33.878511 239.91628 33.458252 240.20841 33.160151 240.42194C32.925163 240.59025 32.395974 240.71654 32.0 240.75C32.0 240.75 32.0 241.25014 32.0 241.25014C32.789158 241.27034 33.1493 241.04449 33.451172 240.82826C33.753044 240.61204 34.017174 240.4025 34.896484 240.28139C35.108193 240.25219 35.198476 240.27439 35.349609 240.25209C35.425179 240.24099 35.531791 240.19659 35.597656 240.12319C35.663526 240.04979 35.692336 239.97488 35.722656 239.89076C35.843951 239.55432 35.988167 238.88936 36.671875 237.1603C36.815428 236.79726 36.931674 236.71226 37.03125 236.68178C37.13083 236.65128 37.297233 236.68079 37.533203 236.73258C37.769174 236.78438 38.070496 236.84396 38.410156 236.75598C38.749817 236.66808 39.10488 236.43418 39.462891 235.97864C40.147822 235.10711 40.364123 234.56646 40.380859 234.1134C40.397599 233.66034 40.244071 233.38281 40.25 233.0C40.25 233.0 39.75 233.0 39.75 233.0"
       style="color:#000000;stroke-width:0.18708867;fill:#000000" />
    <path
       id="frontier-3-6-9-4"
       d="M71.75 233.0C71.65221 236.1127 70.809583 238.1723 69.199219 239.79102C67.673766 241.32438 65.527228 240.83354 64.0 240.75C64.0 240.75 64.0 241.25 64.0 241.25C65.431237 241.2867 67.758682 241.94999 69.554688 240.14467C71.288837 238.40153 72.19745 236.39143 72.25 233.0C72.25 233.0 71.75 233.0 71.75 233.0"
       style="color:#000000;stroke-width:0.18708867;fill:#000000" />
    <path
       id="frontier-3-6-7-1-4"
       d="M103.75 233.0C103.7072 233.54217 103.58271 234.23786 103.48438 234.36133C103.42398 234.43713 103.37231 234.46572 103.29883 234.48438C103.22533 234.50308 103.12738 234.50368 103.00781 234.49238C102.76868 234.46938 102.46002 234.385 102.125 234.47088C101.78998 234.55678 101.48876 234.85452 101.33008 235.40448C101.06693 236.3165 100.06724 237.71011 98.953125 238.82635C98.39607 239.38448 97.810312 239.88038 97.283203 240.22674C96.856778 240.50695 96.27903 240.69727 96.0 240.75C96.0 240.75 96.0 241.25 96.0 241.25C96.47547 241.2622 96.989464 241.01736 97.556641 240.64467C98.123817 240.27198 98.730382 239.75719 99.306641 239.17983C100.45916 238.0251 101.4949 236.6371 101.81055 235.54311C101.94127 235.09006 102.08336 234.99794 102.25 234.95522C102.41664 234.91252 102.6696 234.96222 102.95898 234.99032C103.10368 235.00422 103.25915 235.01012 103.42188 234.96882C103.5846 234.92752 103.75042 234.83031 103.875 234.6739C104.12415 234.36107 104.23667 233.86029 104.25 233.0C104.25 233.0 103.75 233.0 103.75 233.0"
       style="color:#000000;stroke-width:0.18708867;fill:#000000" />
    <path
       id="frontier-2-4"
       d="M7.75 201.0C7.695371 201.16124 7.5485755 201.58088 7.4179688 201.71875C7.2165305 201.93139 6.9424711 202.11934 6.6894531 202.30078C6.4364351 202.48222 6.1867002 202.6423 6.0761719 202.93164C6.0209079 203.07631 6.0281049 203.25929 6.1035159 203.41211C6.1789269 203.56493 6.3047051 203.69384 6.4804691 203.82617C6.8822126 204.12865 7.1278109 204.35341 7.2617191 204.51758C7.3956272 204.68175 7.4167534 204.76512 7.4179691 204.85156C7.4203991 205.02445 7.2191064 205.34243 7.1933597 205.9375C7.1507767 206.92165 7.3852031 207.35558 7.4335941 207.54688C7.4577891 207.64248 7.4655941 207.65873 7.4003911 207.78516C7.3351881 207.91158 7.1748292 208.12335 6.8769536 208.45703C6.2580957 209.15028 5.6691192 209.34418 4.9941411 209.30664C4.3191631 209.26914 3.5540926 208.96638 2.7070317 208.59961C1.8824819 208.24259 1.2431914 208.28542 0.78710988 208.42773C0.56407749 208.49733 0.13689546 208.68354 0.0 208.75C0.0 208.75 0.0 209.25 0.0 209.25C0.19043298 209.255 0.31358292 209.177 0.45703125 209.10756C0.60047958 209.03806 0.75495002 208.9614 0.9375 208.90444C1.3026 208.79051 1.7783164 208.74287 2.5078125 209.05873C3.3615807 209.42841 4.1664939 209.76042 4.9648438 209.80483C5.7631936 209.84923 6.5510617 209.57216 7.25 208.7892C7.5570412 208.44526 7.7371103 208.22057 7.84375 208.01381C7.9503897 207.80705 7.9602916 207.59323 7.917969 207.42592C7.833323 207.0913 7.6541521 206.86527 7.6933596 205.95912C7.7138676 205.48513 7.9237681 205.25821 7.917969 204.84584C7.915069 204.63966 7.827709 204.4211 7.6484377 204.20131C7.469166 203.98153 7.1987131 203.74024 6.7812502 203.42592C6.6423674 203.32135 6.5737147 203.23802 6.5507814 203.19155C6.5278484 203.14505 6.5325894 203.14185 6.5449214 203.10955C6.5695854 203.04495 6.7367034 202.882 6.9804683 202.7072C7.2242331 202.5324 7.5272108 202.33083 7.7812495 202.06267C8.0352882 201.79451 8.2432085 201.43826 8.25 201.0C8.25 201.0 7.75 201.0 7.75 201.0"
       style="color:#000000;stroke-width:0.18708867;fill:#000000" />
    <path
       id="frontier-3-7-7"
       d="M39.75 201.0C39.649942 202.3877 39.028193 203.3828 38.267578 203.87891C37.450745 204.41168 36.439643 204.67279 35.732422 205.23828C35.039788 205.79211 34.446069 206.7023 33.832031 207.45703C33.525012 207.83439 33.214995 208.17277 32.908203 208.4043C32.684442 208.57317 32.217821 208.70523 32.0 208.75C32.0 208.75 32.0 209.25 32.0 209.25C32.446577 209.2614 32.846459 209.07647 33.208984 208.80287C33.571509 208.52928 33.900615 208.1646 34.21875 207.77358C34.855019 206.99153 35.457171 206.09901 36.044922 205.62905C36.618088 205.17074 37.635292 204.88972 38.541016 204.29897C39.446739 203.70822 40.222979 202.74384 40.25 201.0C40.25 201.0 39.75 201.0 39.75 201.0"
       style="color:#000000;stroke-width:0.18708867;fill:#000000" />
    <path
       id="frontier-3-6-0-6"
       d="M71.75 201.0C71.7874 201.6861 71.978032 202.50453 72.244141 202.83203C72.55296 203.21209 72.954335 203.37261 73.265625 203.4668C73.42127 203.5139 73.557247 203.5475 73.646484 203.57812C73.735724 203.60882 73.756994 203.63972 73.740234 203.61132C73.723474 203.58292 73.745934 203.55912 73.701174 203.64842C73.656394 203.73772 73.545687 203.89325 73.357424 204.1074C72.645137 204.91764 70.631495 206.13358 68.640627 207.09178C67.645193 207.57088 66.650542 207.9922 65.818361 208.291C65.098348 208.54952 64.338451 208.71639 64.0 208.75C64.0 208.75 64.0 209.25 64.0 209.25C64.461822 209.2618 65.134152 209.06854 65.988281 208.76186C66.84241 208.45518 67.84844 208.02678 68.857422 207.54116C70.875387 206.56991 72.885067 205.40152 73.732422 204.43764C73.93407 204.20826 74.067135 204.03534 74.148438 203.87319C74.229738 203.71103 74.262511 203.51427 74.169918 203.35756C74.077328 203.20085 73.935175 203.14911 73.80859 203.10561C73.682004 203.06211 73.548406 203.03021 73.410152 202.98842C73.133645 202.90472 72.852584 202.7882 72.632808 202.51772C72.413033 202.24724 72.237628 201.79847 72.25 201.0C72.25 201.0 71.75 201.0 71.75 201.0"
       style="color:#000000;stroke-width:0.18708867;fill:#000000" />
    <path
       id="frontier-3-6-7-9-3"
       d="M103.75 201.0C103.7235 202.16499 103.44916 202.12607 103.17188 202.26562C102.82531 202.44005 102.27797 202.4519 101.65039 202.41211C101.02281 202.37231 100.32238 202.29052 99.648438 202.36331C98.974497 202.43611 98.31117 202.67849 97.837891 203.28323C96.932169 204.44054 96.800613 205.89949 96.691406 207.02347C96.636806 207.58546 96.583668 208.06915 96.474609 208.36722C96.420079 208.51625 96.356813 208.61227 96.289062 208.668C96.279662 208.676 96.00978 208.7433 96.0 208.75C96.0 208.75 96.0 209.25 96.0 209.25C96.234304 209.256 96.44372 209.1878 96.605469 209.05483C96.767218 208.92179 96.871725 208.74032 96.945312 208.5392C97.092488 208.13696 97.134829 207.63266 97.189453 207.07045C97.298702 205.94604 97.437606 204.60504 98.230469 203.59194C98.606482 203.11148 99.107333 202.92384 99.703125 202.85952C100.29892 202.79522 100.97407 202.86952 101.61914 202.91032C102.26421 202.95122 103.31174 202.97102 103.82324 202.71353C104.33474 202.45609 104.2362 201.89086 104.25 201.00048C104.25 201.00048 103.75 201.0 103.75 201.0"
       style="color:#000000;stroke-width:0.18708867;fill:#000000" />
    <path
       id="frontier-5-3-1"
       d="M0.0 177.25C0.41138714 177.2605 0.71857611 177.1705 0.94921875 176.99819C1.1798614 176.82584 1.311727 176.59311 1.4238281 176.36537C1.6401514 175.9259 1.8172401 175.49357 2.3496094 175.14272C2.3944924 175.16052 2.4558022 175.18772 2.5371094 175.23252C2.7236318 175.3354 2.9754339 175.49411 3.2578125 175.65244C3.8225696 175.96911 4.510469 176.31514 5.171875 176.16221C5.8126351 176.01404 6.2087497 175.40439 6.5273438 174.8419C6.6866408 174.56065 6.8264651 174.28297 6.9472656 174.0626C7.0680661 173.84223 7.1904151 173.67887 7.2207031 173.65635C7.5291613 173.42696 7.6878369 173.1375 7.7089844 172.85557C7.7301314 172.57364 7.6353814 172.32143 7.5351562 172.10362C7.4349314 171.8858 7.3228949 171.69299 7.2734375 171.55674C7.2487085 171.48864 7.2411665 171.43787 7.2421875 171.41416C7.2432075 171.39046 7.2426601 171.39306 7.2578125 171.37706C7.6464283 170.96666 7.885688 170.82643 8.0507812 170.51378C8.2158745 170.20113 8.2372902 169.8203 8.25 169.0C8.25 169.0 7.75 169.0 7.75 169.0C7.730733 169.5006 7.679737 170.14235 7.6074219 170.2793C7.5172769 170.45001 7.3084073 170.59612 6.8945312 171.0332C6.7998762 171.1332 6.7494198 171.26993 6.7441406 171.39258C6.7388606 171.51522 6.7673506 171.62371 6.8046876 171.72656C6.8793626 171.93228 6.9935576 172.12447 7.0800782 172.3125C7.1665992 172.50053 7.2196114 172.67669 7.2089845 172.81836C7.1983575 172.96003 7.1448445 173.09004 6.9218751 173.25586C6.7382314 173.39243 6.6365148 173.58748 6.5078126 173.82227C6.3791104 174.05705 6.244119 174.33022 6.0937501 174.5957C5.7930123 175.12667 5.4253726 175.59097 5.0585939 175.67578C4.6575853 175.76848 4.0414924 175.51823 3.5039063 175.2168C3.2351133 175.06608 2.9856541 174.90982 2.7773439 174.79492C2.6731887 174.73752 2.5810997 174.68909 2.4863282 174.65625C2.3915562 174.62345 2.2735777 174.57635 2.1210939 174.66995C1.4053054 175.10927 1.1799804 175.7313 0.9765626 176.14456C0.87485371 176.35119 0.77951356 176.5012 0.65039072 176.59769C0.57021782 176.65759 0.14433928 176.7245 0.0 176.75C0.0 176.75 0.0 177.25 0.0 177.25"
       style="color:#000000;stroke-width:0.18708867;fill:#000000" />
    <path
       id="frontier-3-62-6-7"
       d="M32.0 177.25014C32.207346 177.25514 32.367162 177.23564 32.511719 177.17784C32.656276 177.12014 32.77444 177.01141 32.835938 176.88878C32.958933 176.64353 32.917408 176.41321 32.921878 176.20519C32.926378 175.99716 32.950158 175.81916 33.076175 175.64855C33.202193 175.47794 33.452367 175.29318 33.984378 175.14659C34.536622 174.99443 34.90735 174.94077 35.158206 174.94738C35.409063 174.95438 35.534921 175.00898 35.664065 175.09581C35.922354 175.26943 36.193722 175.67284 36.929691 175.9337C37.173591 176.0201 37.436214 175.9719 37.6543 175.8458C37.872386 175.71975 38.064943 175.52379 38.24805 175.28135C38.614264 174.79648 38.944677 174.11488 39.236331 173.35752C39.819639 171.84282 40.233771 170.04755 40.250003 169.0C40.250003 169.0 39.75 169.0 39.75 169.0C39.69323 169.95921 39.298788 171.80339 38.769531 173.17773C38.487811 173.90929 38.163931 174.56172 37.847656 174.98047C37.689519 175.18984 37.53349 175.33744 37.404297 175.41211C37.275104 175.48681 37.190953 175.49661 37.095703 175.46291C36.475068 175.24293 36.328417 174.93854 35.943359 174.67971C35.750831 174.55029 35.499524 174.45792 35.169922 174.44924C34.84032 174.44024 34.429963 174.50474 33.851562 174.66408C33.25293 174.82903 32.885576 175.06491 32.673828 175.35158C32.46208 175.63826 32.427092 175.95261 32.421875 176.19533C32.416675 176.43805 32.412075 176.61739 32.388675 176.66408C32.376965 176.68738 32.376155 176.69488 32.326175 176.71488C32.314295 176.71988 32.01804 176.74498 32.0 176.74998"
       style="color:#000000;stroke-width:0.18708867;fill:#000000" />
    <path
       id="frontier-3-6-9-0-5"
       d="M64.0 177.25014C64.302251 177.25814 64.534485 177.38951 64.769531 177.59389C65.004577 177.79827 65.219476 178.07231 65.447266 178.32241C65.675056 178.5725 65.920986 178.81582 66.265625 178.88491C66.610264 178.95401 66.988024 178.80181 67.369141 178.42787C67.776959 178.0277 67.930454 177.48395 67.951172 176.91616C67.971892 176.34836 67.866592 175.74231 67.744141 175.14662C67.621685 174.55094 67.479084 173.96498 67.410156 173.46303C67.341226 172.96108 67.357626 172.55113 67.482426 172.30873C67.636868 172.00875 67.764464 171.89215 67.873051 171.84389C67.981638 171.79559 68.117383 171.79589 68.337895 171.83789C68.778918 171.92229 69.475327 172.15873 70.501957 172.01562C71.019183 171.94352 71.402876 171.79505 71.681645 171.57617C71.960413 171.35729 72.122193 171.0689 72.201176 170.77148C72.359141 170.17665 72.241726 169.53403 72.250006 169.0C72.250006 169.0 71.75 169.0 71.75 169.0C71.76245 169.50684 71.81499 170.27283 71.7168 170.64258C71.65875 170.86116 71.561756 171.03543 71.37305 171.18359C71.184344 171.33176 70.891842 171.45565 70.433597 171.51953C69.509285 171.64837 68.938389 171.44463 68.431644 171.34766C68.178271 171.29916 67.920841 171.27516 67.669925 171.38676C67.419009 171.49828 67.220687 171.72735 67.039065 172.08012C66.827798 172.49047 66.841692 172.99002 66.916019 173.53129C66.990349 174.07256 67.135939 174.66276 67.255862 175.24613C67.375786 175.8295 67.469144 176.40601 67.451175 176.89848C67.433205 177.39094 67.311661 177.7837 67.019534 178.07035C66.700706 178.3832 66.515039 178.42499 66.363284 178.39457C66.211529 178.36417 66.027114 178.21556 65.818362 177.98637C65.609611 177.75718 65.383001 177.46495 65.097659 177.21684C64.876043 177.02413 64.316825 176.82053 64.0 176.75C64.0 176.75 64.0 177.25014 64.0 177.25014"
       style="color:#000000;stroke-width:0.18708867;fill:#000000" />
    <path
       id="frontier-3-6-7-1-6-9"
       d="M96.0 177.25014C96.256851 177.25714 96.484155 177.13733 96.636719 176.96108C96.789282 176.78482 96.881388 176.56412 96.953125 176.3185C97.096599 175.82725 97.151738 175.22373 97.230469 174.6603C97.309199 174.09686 97.419391 173.57436 97.589844 173.30483C97.675074 173.17006 97.760084 173.10157 97.867188 173.07241C97.974291 173.04321 98.13072 173.05181 98.367188 173.15441C100.70465 174.16919 104.19556 172.51347 104.25 169.0C104.25 169.0 103.75 169.0 103.75 169.0C103.51955 171.9772 100.49048 173.53063 98.566406 172.69531C98.262471 172.56336 97.983678 172.5225 97.736328 172.58984C97.488978 172.65724 97.298431 172.83081 97.167969 173.03711C96.907045 173.4497 96.817021 174.01237 96.736328 174.58984C96.655638 175.16732 96.594125 175.76183 96.472656 176.17773C96.411926 176.38569 96.334877 176.54378 96.257812 176.63281C96.255412 176.63581 96.0024 176.747 96.0 176.75C96.0 176.75 96.0 177.25014 96.0 177.25014"
       style="color:#000000;stroke-width:0.18708867;fill:#000000" />
  </g>
</svg>
